%TF.GenerationSoftware,Altium Limited,Altium Designer,23.11.1 (41)*%
G04 Layer_Physical_Order=14*
G04 Layer_Color=16711680*
%FSLAX45Y45*%
%MOMM*%
%TF.SameCoordinates,1BD89016-B4D8-4A99-B54A-05B805E6E99A*%
%TF.FilePolarity,Positive*%
%TF.FileFunction,Copper,L14,Bot,Signal*%
%TF.Part,Single*%
G01*
G75*
%TA.AperFunction,Conductor*%
%ADD10C,0.23844*%
%TA.AperFunction,SMDPad,CuDef*%
G04:AMPARAMS|DCode=16|XSize=2.5mm|YSize=1.5mm|CornerRadius=0.3mm|HoleSize=0mm|Usage=FLASHONLY|Rotation=90.000|XOffset=0mm|YOffset=0mm|HoleType=Round|Shape=RoundedRectangle|*
%AMROUNDEDRECTD16*
21,1,2.50000,0.90000,0,0,90.0*
21,1,1.90000,1.50000,0,0,90.0*
1,1,0.60000,0.45000,0.95000*
1,1,0.60000,0.45000,-0.95000*
1,1,0.60000,-0.45000,-0.95000*
1,1,0.60000,-0.45000,0.95000*
%
%ADD16ROUNDEDRECTD16*%
G04:AMPARAMS|DCode=17|XSize=1.8034mm|YSize=1.1938mm|CornerRadius=0.20295mm|HoleSize=0mm|Usage=FLASHONLY|Rotation=180.000|XOffset=0mm|YOffset=0mm|HoleType=Round|Shape=RoundedRectangle|*
%AMROUNDEDRECTD17*
21,1,1.80340,0.78791,0,0,180.0*
21,1,1.39751,1.19380,0,0,180.0*
1,1,0.40589,-0.69875,0.39395*
1,1,0.40589,0.69875,0.39395*
1,1,0.40589,0.69875,-0.39395*
1,1,0.40589,-0.69875,-0.39395*
%
%ADD17ROUNDEDRECTD17*%
G04:AMPARAMS|DCode=18|XSize=1.397mm|YSize=1.0922mm|CornerRadius=0.20206mm|HoleSize=0mm|Usage=FLASHONLY|Rotation=180.000|XOffset=0mm|YOffset=0mm|HoleType=Round|Shape=RoundedRectangle|*
%AMROUNDEDRECTD18*
21,1,1.39700,0.68809,0,0,180.0*
21,1,0.99289,1.09220,0,0,180.0*
1,1,0.40411,-0.49644,0.34404*
1,1,0.40411,0.49644,0.34404*
1,1,0.40411,0.49644,-0.34404*
1,1,0.40411,-0.49644,-0.34404*
%
%ADD18ROUNDEDRECTD18*%
G04:AMPARAMS|DCode=19|XSize=0.508mm|YSize=0.508mm|CornerRadius=0.1524mm|HoleSize=0mm|Usage=FLASHONLY|Rotation=180.000|XOffset=0mm|YOffset=0mm|HoleType=Round|Shape=RoundedRectangle|*
%AMROUNDEDRECTD19*
21,1,0.50800,0.20320,0,0,180.0*
21,1,0.20320,0.50800,0,0,180.0*
1,1,0.30480,-0.10160,0.10160*
1,1,0.30480,0.10160,0.10160*
1,1,0.30480,0.10160,-0.10160*
1,1,0.30480,-0.10160,-0.10160*
%
%ADD19ROUNDEDRECTD19*%
%ADD20R,0.45720X0.30480*%
G04:AMPARAMS|DCode=22|XSize=1.397mm|YSize=1.0922mm|CornerRadius=0.20206mm|HoleSize=0mm|Usage=FLASHONLY|Rotation=90.000|XOffset=0mm|YOffset=0mm|HoleType=Round|Shape=RoundedRectangle|*
%AMROUNDEDRECTD22*
21,1,1.39700,0.68809,0,0,90.0*
21,1,0.99289,1.09220,0,0,90.0*
1,1,0.40411,0.34404,0.49644*
1,1,0.40411,0.34404,-0.49644*
1,1,0.40411,-0.34404,-0.49644*
1,1,0.40411,-0.34404,0.49644*
%
%ADD22ROUNDEDRECTD22*%
G04:AMPARAMS|DCode=31|XSize=2.5mm|YSize=1.5mm|CornerRadius=0.3mm|HoleSize=0mm|Usage=FLASHONLY|Rotation=180.000|XOffset=0mm|YOffset=0mm|HoleType=Round|Shape=RoundedRectangle|*
%AMROUNDEDRECTD31*
21,1,2.50000,0.90000,0,0,180.0*
21,1,1.90000,1.50000,0,0,180.0*
1,1,0.60000,-0.95000,0.45000*
1,1,0.60000,0.95000,0.45000*
1,1,0.60000,0.95000,-0.45000*
1,1,0.60000,-0.95000,-0.45000*
%
%ADD31ROUNDEDRECTD31*%
%ADD35R,2.80000X2.80000*%
G04:AMPARAMS|DCode=38|XSize=0.508mm|YSize=0.508mm|CornerRadius=0.1524mm|HoleSize=0mm|Usage=FLASHONLY|Rotation=90.000|XOffset=0mm|YOffset=0mm|HoleType=Round|Shape=RoundedRectangle|*
%AMROUNDEDRECTD38*
21,1,0.50800,0.20320,0,0,90.0*
21,1,0.20320,0.50800,0,0,90.0*
1,1,0.30480,0.10160,0.10160*
1,1,0.30480,0.10160,-0.10160*
1,1,0.30480,-0.10160,-0.10160*
1,1,0.30480,-0.10160,0.10160*
%
%ADD38ROUNDEDRECTD38*%
%ADD41R,0.71120X1.01600*%
%ADD46R,2.80000X2.80000*%
%ADD52R,0.30480X0.45720*%
G04:AMPARAMS|DCode=53|XSize=1.8034mm|YSize=1.1938mm|CornerRadius=0.20295mm|HoleSize=0mm|Usage=FLASHONLY|Rotation=90.000|XOffset=0mm|YOffset=0mm|HoleType=Round|Shape=RoundedRectangle|*
%AMROUNDEDRECTD53*
21,1,1.80340,0.78791,0,0,90.0*
21,1,1.39751,1.19380,0,0,90.0*
1,1,0.40589,0.39395,0.69875*
1,1,0.40589,0.39395,-0.69875*
1,1,0.40589,-0.39395,-0.69875*
1,1,0.40589,-0.39395,0.69875*
%
%ADD53ROUNDEDRECTD53*%
%ADD63R,1.01600X0.71120*%
%ADD64C,1.00000*%
G04:AMPARAMS|DCode=65|XSize=2.26mm|YSize=2.16mm|CornerRadius=0.54mm|HoleSize=0mm|Usage=FLASHONLY|Rotation=180.000|XOffset=0mm|YOffset=0mm|HoleType=Round|Shape=RoundedRectangle|*
%AMROUNDEDRECTD65*
21,1,2.26000,1.08000,0,0,180.0*
21,1,1.18000,2.16000,0,0,180.0*
1,1,1.08000,-0.59000,0.54000*
1,1,1.08000,0.59000,0.54000*
1,1,1.08000,0.59000,-0.54000*
1,1,1.08000,-0.59000,-0.54000*
%
%ADD65ROUNDEDRECTD65*%
G04:AMPARAMS|DCode=86|XSize=0.59mm|YSize=0.45mm|CornerRadius=0.1125mm|HoleSize=0mm|Usage=FLASHONLY|Rotation=90.000|XOffset=0mm|YOffset=0mm|HoleType=Round|Shape=RoundedRectangle|*
%AMROUNDEDRECTD86*
21,1,0.59000,0.22500,0,0,90.0*
21,1,0.36500,0.45000,0,0,90.0*
1,1,0.22500,0.11250,0.18250*
1,1,0.22500,0.11250,-0.18250*
1,1,0.22500,-0.11250,-0.18250*
1,1,0.22500,-0.11250,0.18250*
%
%ADD86ROUNDEDRECTD86*%
%ADD87R,0.45000X0.59000*%
%TA.AperFunction,Conductor*%
%ADD98C,0.50800*%
%ADD99C,1.01600*%
%ADD100C,1.27000*%
%ADD102C,0.25400*%
%ADD103C,0.23978*%
%ADD104C,0.76200*%
%ADD105C,0.22860*%
%ADD106C,0.16164*%
%ADD108C,0.21907*%
%TA.AperFunction,ComponentPad*%
%ADD110C,6.20000*%
%ADD111C,3.50000*%
%ADD112C,2.20000*%
%ADD113C,3.00000*%
%ADD114R,3.00000X3.00000*%
%ADD115R,1.90500X1.90500*%
%ADD116C,1.90500*%
%ADD117C,1.60000*%
%ADD118C,0.60000*%
%ADD119C,1.52400*%
G04:AMPARAMS|DCode=120|XSize=1.524mm|YSize=1.524mm|CornerRadius=0mm|HoleSize=0mm|Usage=FLASHONLY|Rotation=0.000|XOffset=0mm|YOffset=0mm|HoleType=Round|Shape=Octagon|*
%AMOCTAGOND120*
4,1,8,0.76200,-0.38100,0.76200,0.38100,0.38100,0.76200,-0.38100,0.76200,-0.76200,0.38100,-0.76200,-0.38100,-0.38100,-0.76200,0.38100,-0.76200,0.76200,-0.38100,0.0*
%
%ADD120OCTAGOND120*%

%ADD121C,3.81000*%
%TA.AperFunction,ViaPad*%
%ADD122C,0.76200*%
%ADD123C,0.50000*%
%ADD124C,0.30480*%
%ADD125C,0.50800*%
%ADD126C,0.71120*%
%ADD127C,0.55880*%
%TA.AperFunction,Conductor*%
%ADD130C,0.23784*%
%ADD131C,0.12314*%
%TA.AperFunction,SMDPad,CuDef*%
%ADD132R,0.30000X0.55000*%
%ADD133R,0.40000X0.55000*%
G04:AMPARAMS|DCode=134|XSize=0.59mm|YSize=0.45mm|CornerRadius=0.1125mm|HoleSize=0mm|Usage=FLASHONLY|Rotation=0.000|XOffset=0mm|YOffset=0mm|HoleType=Round|Shape=RoundedRectangle|*
%AMROUNDEDRECTD134*
21,1,0.59000,0.22500,0,0,0.0*
21,1,0.36500,0.45000,0,0,0.0*
1,1,0.22500,0.18250,-0.11250*
1,1,0.22500,-0.18250,-0.11250*
1,1,0.22500,-0.18250,0.11250*
1,1,0.22500,0.18250,0.11250*
%
%ADD134ROUNDEDRECTD134*%
%ADD135R,0.59000X0.45000*%
D10*
X6920770Y7772400D02*
X6965220Y7727950D01*
X7061200D01*
X6908800Y7772400D02*
X6920770D01*
X7258050Y7022156D02*
X7373294Y7137400D01*
X7416800D01*
X14446249Y3511550D02*
X14452600Y3505200D01*
X14376401Y3511550D02*
X14446249D01*
X7258050Y6908800D02*
Y7022156D01*
X10061800Y2708500D02*
Y2933700D01*
X10259900Y2932000D02*
X10261600Y2930300D01*
X10063500Y2932000D02*
X10259900D01*
X10061800Y2933700D02*
X10063500Y2932000D01*
X10675620Y3779520D02*
Y3896360D01*
X11027410Y4163060D02*
Y4253230D01*
X11031220Y4257040D01*
X11023600Y4159250D02*
X11027410Y4163060D01*
X11012500Y4070350D02*
X11018050Y4064800D01*
X10814050Y4070350D02*
X11012500D01*
X10769600Y4114800D02*
Y4130040D01*
Y4114800D02*
X10814050Y4070350D01*
X11018050Y4064800D02*
X11023600Y4070350D01*
X10863580Y3911600D02*
X10908030Y3956050D01*
X11023600D01*
X10863580Y3896360D02*
Y3911600D01*
X12446000Y6757111D02*
X12499975Y6811086D01*
X12446000Y6756400D02*
Y6757111D01*
X12762974Y6944361D02*
X12806154Y6901180D01*
X12755880Y6945630D02*
X12757149Y6944361D01*
X12806154Y6901180D02*
X12807950D01*
X12757149Y6944361D02*
X12762974D01*
X12896992Y6901180D02*
X12951321Y6955510D01*
X12896851Y6901180D02*
X12896992D01*
X12951321Y6955510D02*
X12951463D01*
X12815887Y6992790D02*
X12850008Y7026910D01*
X12807950Y6901180D02*
X12815887Y6909117D01*
X12749529Y7114541D02*
X12837160Y7026910D01*
X12748260Y7147560D02*
X12749529Y7146291D01*
Y7114541D02*
Y7146291D01*
X13541022Y8458200D02*
X13599239Y8399983D01*
X13540286Y8458200D02*
X13541022D01*
X13599239Y8399983D02*
X13599973D01*
X12658090Y8432800D02*
X12676764Y8451474D01*
X12348490Y8444464D02*
X12476246D01*
X12487910Y8432800D01*
X12888873Y8873539D02*
X12947981Y8932645D01*
X12888873Y8799982D02*
Y8873539D01*
X12947981Y8932645D02*
X12949251Y8931376D01*
X12968588D02*
X12999983Y8899982D01*
X12949251Y8931376D02*
X12968588D01*
X12999983Y8899982D02*
X13099644D01*
Y8888553D02*
X13111073Y8899982D01*
X13045724Y8651525D02*
X13093700Y8699500D01*
X13044455Y8637305D02*
X13045724Y8638575D01*
Y8651525D01*
X12088876Y8599983D02*
X12161828Y8672935D01*
X11951541Y8548700D02*
X12000258Y8499983D01*
X11950982Y8548700D02*
X11951541D01*
X12739349Y6640851D02*
X12760939D01*
X12800330Y6601460D02*
X12800330D01*
X12738100Y6642100D02*
X12739349Y6640851D01*
X12760939D02*
X12800330Y6601460D01*
X13716000Y5867400D02*
X13810001Y5773400D01*
Y5626100D02*
Y5773400D01*
X14130000Y5626100D02*
X14350999D01*
X14227174Y5222875D02*
X14309724D01*
X14224001Y5226050D02*
X14227174Y5222875D01*
X14309724D02*
X14312900Y5219700D01*
X14224001Y5314950D02*
X14306551D01*
X14224001Y5111750D02*
X14319250D01*
X14224001Y5022850D02*
X14293851D01*
X13874750Y4514850D02*
Y4610100D01*
X14867300Y7845000D02*
X15033200D01*
X14845500Y7823200D02*
X14867300Y7845000D01*
X14845500Y8279600D02*
X14846300Y8280400D01*
X14845500Y8112760D02*
Y8279600D01*
X12499975Y6901782D02*
X12536828Y6938635D01*
Y6940830D02*
X12538098Y6942099D01*
X12499975Y6899986D02*
Y6901782D01*
X12536828Y6938635D02*
Y6940830D01*
X12896851Y6901180D02*
X12897784Y6902115D01*
X13392149Y6896100D02*
X13443280Y6947230D01*
X13454231D01*
X13455499Y6948500D01*
X13350195Y6943045D02*
Y6954240D01*
X13303250Y6896100D02*
X13350195Y6943045D01*
Y6954240D02*
X13351463Y6955510D01*
X13551463Y6653714D02*
X13569949Y6635229D01*
X13551463Y6653714D02*
Y6655510D01*
X13569949Y6553200D02*
Y6635229D01*
X13750195Y6644545D02*
Y6654240D01*
X13658850Y6553200D02*
X13750195Y6644545D01*
Y6654240D02*
X13751463Y6655510D01*
X13744450Y7851471D02*
X13745718Y7850202D01*
X13749754D02*
X13799973Y7799984D01*
X13745718Y7850202D02*
X13749754D01*
X13651463Y7855510D02*
X13652734Y7854240D01*
X13656816D02*
X13711072Y7799984D01*
X13652734Y7854240D02*
X13656816D01*
X12749760Y7660870D02*
X12799974Y7711084D01*
X12749760Y7645734D02*
Y7660870D01*
X12748490Y7644464D02*
X12749760Y7645734D01*
X12756770Y7844985D02*
X12799974Y7801780D01*
X12755500Y7848500D02*
X12756770Y7847230D01*
X12799974Y7799984D02*
Y7801780D01*
X12756770Y7844985D02*
Y7847230D01*
X12595246Y7944464D02*
X12648490D01*
X12564110Y7975600D02*
X12595246Y7944464D01*
X12734290Y7975600D02*
Y7980379D01*
X12776347Y8022436D01*
X12824666D01*
X12846695Y8044464D01*
X12848489D01*
X12564110Y7956710D02*
X12654231Y7866590D01*
Y7849769D02*
X12655500Y7848500D01*
X12564110Y7956710D02*
Y7975600D01*
X12654231Y7849769D02*
Y7866590D01*
X12447627Y7849287D02*
X12448897Y7848018D01*
X12452932D02*
X12503150Y7797800D01*
X12448897Y7848018D02*
X12452932D01*
X12545724Y7844126D02*
Y7850205D01*
Y7844126D02*
X12592050Y7797800D01*
X12544454Y7851474D02*
X12545724Y7850205D01*
X12349758Y7845731D02*
Y7849767D01*
X12348488Y7844461D02*
X12349758Y7845731D01*
Y7849767D02*
X12399975Y7899984D01*
X12311075Y7901780D02*
X12347221Y7937925D01*
Y7943195D02*
X12348490Y7944464D01*
X12311075Y7899984D02*
Y7901780D01*
X12347221Y7937925D02*
Y7943195D01*
X12676764Y8451474D02*
X12844453D01*
X12658090Y8432800D02*
Y8443557D01*
X11745724Y8943249D02*
Y8950205D01*
X11744454Y8951474D02*
X11745724Y8950205D01*
X11812270Y8856980D02*
Y8876703D01*
X11745724Y8943249D02*
X11812270Y8876703D01*
X11950700Y8648700D02*
X11951259D01*
X11999976Y8599983D01*
X12045391Y7556500D02*
X12052300D01*
X11988876Y7499985D02*
X12045391Y7556500D01*
X12939503Y7366292D02*
X12955499Y7350295D01*
Y7348500D02*
Y7350295D01*
X12901930Y7452360D02*
X12939503Y7414786D01*
Y7366292D02*
Y7414786D01*
X13154614Y7452360D02*
X13251463Y7355510D01*
X13072110Y7452360D02*
X13154614D01*
X12947868Y7234664D02*
X12964903Y7251700D01*
X12966701D01*
X12852400Y7197090D02*
X12889973Y7234664D01*
X12947868D01*
X12850008Y7026910D02*
X12852400D01*
X12837160D02*
X12850008D01*
X13051463Y7155510D02*
X13052734Y7154240D01*
Y7070416D02*
X13061951Y7061200D01*
X13052734Y7070416D02*
Y7154240D01*
X13150850Y7061200D02*
Y7143750D01*
X13817870Y6823710D02*
X13849669Y6855510D01*
X13665199Y6823710D02*
X13817870D01*
X13849669Y6855510D02*
X13851463D01*
X13665199Y6993890D02*
X13789844D01*
X13851463Y7055510D01*
X13455650Y7670800D02*
X13534380D01*
X13549669Y7655510D02*
X13551463D01*
X13246249Y7651474D02*
X13265576Y7670800D01*
X13534380D02*
X13549669Y7655510D01*
X13265576Y7670800D02*
X13366750D01*
X13244453Y7651474D02*
X13246249D01*
X13156770Y7766085D02*
X13199974Y7809289D01*
X13156770Y7749769D02*
Y7766085D01*
X13155499Y7748500D02*
X13156770Y7749769D01*
X13199974Y7809289D02*
Y7811084D01*
X13149756Y7849767D02*
X13199974Y7899984D01*
X13149756Y7845731D02*
Y7849767D01*
X13148486Y7844461D02*
X13149756Y7845731D01*
X13347701Y7937500D02*
X13388133Y7977934D01*
X13436453D01*
X13478510Y8019991D02*
Y8026400D01*
X13436453Y7977934D02*
X13478510Y8019991D01*
X13648689Y8026400D02*
X13673764Y8051474D01*
X13744453D01*
X13299977Y8311087D02*
X13356064Y8255000D01*
X13236411Y8347457D02*
X13247447D01*
X13299977Y8399987D01*
X13235141Y8346187D02*
X13236411Y8347457D01*
X12950546Y8749718D02*
X12954582D01*
X13004800Y8699500D01*
X12949277Y8750987D02*
X12950546Y8749718D01*
X12756762Y8843195D02*
X12799974Y8799982D01*
X12799974D01*
X12749760Y8843195D02*
X12756762D01*
X12748490Y8844464D02*
X12749760Y8843195D01*
X12548490Y8643240D02*
X12592050Y8686800D01*
Y8686800D01*
X12548490Y8544464D02*
Y8643240D01*
X12471334Y8656779D02*
X12501354Y8686800D01*
X12451464Y8655510D02*
X12452734Y8656779D01*
X12501354Y8686800D02*
X12503150D01*
X12452734Y8656779D02*
X12471334D01*
X11982450Y8876703D02*
X12050195Y8944448D01*
Y8954240D02*
X12051464Y8955510D01*
X11982450Y8856980D02*
Y8876703D01*
X12050195Y8944448D02*
Y8954240D01*
X12231065Y8672935D02*
X12255500Y8648500D01*
X12161828Y8672935D02*
X12231065D01*
X11754231Y8249769D02*
Y8480819D01*
X11735067Y8499983D02*
X11754231Y8480819D01*
Y8249769D02*
X11755500Y8248500D01*
X11848489Y8144461D02*
X11849759Y8145730D01*
Y8149766D02*
X11899976Y8199984D01*
X11849759Y8145730D02*
Y8149766D01*
X11550195Y8050205D02*
Y8054240D01*
X11499977Y7999987D02*
X11550195Y8050205D01*
Y8054240D02*
X11551464Y8055510D01*
X12352734Y7463843D02*
X12399975Y7511085D01*
X12351464Y7455510D02*
X12352734Y7456779D01*
X12399975Y7511085D02*
Y7511085D01*
X12352734Y7456779D02*
Y7463843D01*
X12350195Y7454240D02*
X12351464Y7455510D01*
X12360855Y7550205D02*
X12399975Y7511085D01*
X12344454Y7551474D02*
X12345724Y7550205D01*
X12360855D01*
X12233910Y7237057D02*
Y7239748D01*
Y7226300D02*
Y7237057D01*
X12449672Y7455510D02*
X12451464D01*
X12233910Y7239748D02*
X12449672Y7455510D01*
X12544454Y7249679D02*
Y7251474D01*
X12551464Y7155510D02*
Y7242669D01*
X12544454Y7249679D02*
X12551464Y7242669D01*
X12404090Y7211060D02*
Y7215543D01*
X12446147Y7173486D01*
X12456904D01*
X12474880Y7155510D02*
X12551464D01*
X12404090Y7215543D02*
Y7226300D01*
X12456904Y7173486D02*
X12474880Y7155510D01*
X12891026Y6601460D02*
X12935477Y6557009D01*
X12942570D02*
X12943840Y6555740D01*
X12889230Y6601460D02*
X12891026D01*
X12935477Y6557009D02*
X12942570D01*
X11930497Y3345297D02*
Y3493787D01*
X12113377Y4554237D02*
Y4798177D01*
X11625580Y2557780D02*
X11811000D01*
X11662427Y3950987D02*
X11764127D01*
Y3664067D02*
Y3747787D01*
X12256769Y8849769D02*
X12260862D01*
X12311075Y8899982D01*
X12255500Y8848500D02*
X12256769Y8849769D01*
X12263834Y8847230D02*
X12311077Y8799987D01*
X11564887Y8499983D02*
X11600383Y8464486D01*
X11552734Y8512136D02*
X11564887Y8499983D01*
X11551464Y8655510D02*
X11552734Y8654241D01*
Y8512136D02*
Y8654241D01*
X11600383Y8392571D02*
Y8464486D01*
Y8392571D02*
X11648490Y8344464D01*
X11995154Y7744464D02*
X12048490D01*
X11972290Y7721600D02*
X11995154Y7744464D01*
X12048490Y7244464D02*
X12104013Y7299987D01*
X12170980D01*
X12233910Y7237057D01*
X12256769Y7063739D02*
X12404090Y7211060D01*
X12255500Y7048500D02*
X12256769Y7049769D01*
Y7063739D01*
X12192000Y6813550D02*
X12232641Y6854191D01*
X12246611D02*
X12247880Y6855460D01*
X12192000Y6813550D02*
X12192000D01*
X12232641Y6854191D02*
X12246611D01*
X12151464Y7055510D02*
X12192000Y7014974D01*
Y6902450D02*
Y7014974D01*
X11788877Y6599987D02*
X11851640Y6537223D01*
Y6405880D02*
Y6537223D01*
X6965950Y6813550D02*
X6972300Y6807200D01*
X6965950Y6813550D02*
Y6908800D01*
X7048500Y6665738D02*
X7053088D01*
Y6907038D01*
X7054850Y6908800D01*
X7024862Y6642100D02*
X7048500Y6665738D01*
X7014210Y6642100D02*
X7024862D01*
X7124208Y6884233D02*
Y6894832D01*
X7054850Y6908800D02*
X7110240D01*
X7124208Y6894832D01*
Y6884233D02*
X7137686Y6870755D01*
X7169150Y6814820D02*
X7209012Y6774958D01*
X7232650Y6736080D02*
X7247890D01*
X7209012Y6759718D02*
X7232650Y6736080D01*
X7209012Y6759718D02*
Y6774958D01*
X7169150Y6814820D02*
Y6908800D01*
X9745980Y7145020D02*
Y7421880D01*
Y7145020D02*
X9786714Y7104286D01*
X9817100Y7493000D02*
Y7543800D01*
X9745980Y7421880D02*
X9817100Y7493000D01*
X9786714Y6963729D02*
Y7104286D01*
D16*
X8288000Y7518400D02*
D03*
X7968000D02*
D03*
X13810001Y5626100D02*
D03*
X14130000D02*
D03*
X13622000Y4318000D02*
D03*
X13302000D02*
D03*
D17*
X14845500Y7823200D02*
D03*
Y8112760D02*
D03*
X16255200Y7485380D02*
D03*
Y7195820D02*
D03*
X11811000Y2557780D02*
D03*
Y2268220D02*
D03*
X13601700Y1198880D02*
D03*
Y909320D02*
D03*
X19414000Y2903220D02*
D03*
Y3192780D02*
D03*
X15036800Y3220720D02*
D03*
Y3510280D02*
D03*
X15239999Y2392680D02*
D03*
Y2103120D02*
D03*
D18*
X13665199Y6823710D02*
D03*
Y6993890D02*
D03*
X12852400Y7026910D02*
D03*
Y7197090D02*
D03*
D19*
X11899976Y8111084D02*
D03*
Y8199984D02*
D03*
X11493500Y6800850D02*
D03*
Y6711950D02*
D03*
X17031837Y2593285D02*
D03*
Y2504385D02*
D03*
Y2390085D02*
D03*
Y2301185D02*
D03*
X812800Y3956050D02*
D03*
Y3867150D02*
D03*
X17576801Y6191250D02*
D03*
Y6102350D02*
D03*
Y5899150D02*
D03*
Y5988050D02*
D03*
X14376401Y3511550D02*
D03*
Y3600450D02*
D03*
Y3803650D02*
D03*
Y3714750D02*
D03*
X11023600Y4159250D02*
D03*
Y4070350D02*
D03*
Y3867150D02*
D03*
Y3956050D02*
D03*
X3804920Y8874850D02*
D03*
Y8963750D02*
D03*
Y9217750D02*
D03*
Y9128850D02*
D03*
X2336800Y6153150D02*
D03*
Y6242050D02*
D03*
Y6356350D02*
D03*
Y6445250D02*
D03*
X723900Y2597150D02*
D03*
Y2686050D02*
D03*
X622300D02*
D03*
Y2597150D02*
D03*
X520700Y2686050D02*
D03*
Y2597150D02*
D03*
X12499975Y6811086D02*
D03*
Y6899986D02*
D03*
X12192000Y6813550D02*
D03*
Y6902450D02*
D03*
X13199974Y7811084D02*
D03*
Y7899984D02*
D03*
X13599973Y8311083D02*
D03*
Y8399983D02*
D03*
X13299977Y8311087D02*
D03*
Y8399987D02*
D03*
X12399975Y7511085D02*
D03*
Y7599985D02*
D03*
X12799974Y7711084D02*
D03*
Y7799984D02*
D03*
X11499977Y8088887D02*
D03*
Y7999987D02*
D03*
X15899600Y7029450D02*
D03*
Y6940550D02*
D03*
X7061200Y7727950D02*
D03*
Y7816850D02*
D03*
X14224001Y5022850D02*
D03*
Y5111750D02*
D03*
Y5226050D02*
D03*
Y5314950D02*
D03*
X4114800Y2838450D02*
D03*
Y2749550D02*
D03*
X3251200Y2889250D02*
D03*
Y2800350D02*
D03*
X4114800Y1987550D02*
D03*
Y2076450D02*
D03*
X3251200D02*
D03*
Y1987550D02*
D03*
X12113377Y4465337D02*
D03*
Y4554237D02*
D03*
X18376410Y1450050D02*
D03*
Y1538950D02*
D03*
X18478011Y1450050D02*
D03*
Y1538950D02*
D03*
X18579610Y1450050D02*
D03*
Y1538950D02*
D03*
X15239999Y3168650D02*
D03*
Y3257550D02*
D03*
X15036800Y2444750D02*
D03*
Y2355850D02*
D03*
D20*
X15849600Y5046980D02*
D03*
Y4991100D02*
D03*
X15748000Y5046980D02*
D03*
Y4991100D02*
D03*
D22*
X12734290Y7975600D02*
D03*
X12564110D02*
D03*
X12404090Y7226300D02*
D03*
X12233910D02*
D03*
X13648689Y8026400D02*
D03*
X13478510D02*
D03*
X12487910Y8432800D02*
D03*
X12658090D02*
D03*
X11735067Y8499983D02*
D03*
X11564887D02*
D03*
X11982450Y8856980D02*
D03*
X11812270D02*
D03*
X11802110Y7721600D02*
D03*
X11972290D02*
D03*
X12901930Y7452360D02*
D03*
X13072110D02*
D03*
D31*
X7061200Y8018800D02*
D03*
Y8338800D02*
D03*
D35*
X7367400Y7951810D02*
D03*
X3699835Y8034840D02*
D03*
X9139300Y4596000D02*
D03*
D38*
X12311075Y7899984D02*
D03*
X12399975D02*
D03*
X11899976Y7499985D02*
D03*
X11988876D02*
D03*
X11804650Y6997700D02*
D03*
X11893550D02*
D03*
X11711076Y6899986D02*
D03*
X11799976D02*
D03*
X13455650Y7670800D02*
D03*
X13366750D02*
D03*
X361950Y3708400D02*
D03*
X450850D02*
D03*
X654050D02*
D03*
X565150D02*
D03*
Y3606800D02*
D03*
X654050D02*
D03*
X6965950Y6908800D02*
D03*
X7054850D02*
D03*
X7258050D02*
D03*
X7169150D02*
D03*
X17938750Y4876800D02*
D03*
X18027650D02*
D03*
X17735550D02*
D03*
X17824451D02*
D03*
X520700Y2844800D02*
D03*
X609600D02*
D03*
X13658850Y6553200D02*
D03*
X13569949D02*
D03*
X13392149Y6896100D02*
D03*
X13303250D02*
D03*
X13711072Y7799984D02*
D03*
X13799973D02*
D03*
X12799974Y8799982D02*
D03*
X12888873D02*
D03*
X13004800Y8699500D02*
D03*
X13093700D02*
D03*
X13111073Y8899982D02*
D03*
X13199974D02*
D03*
X12399977Y8799987D02*
D03*
X12311077D02*
D03*
X11699977Y7399985D02*
D03*
X11788877D02*
D03*
X13061951Y7061200D02*
D03*
X13150850D02*
D03*
X12807950Y6901180D02*
D03*
X12896851D02*
D03*
X12889230Y6601460D02*
D03*
X12800330D02*
D03*
X12503150Y7797800D02*
D03*
X12592050D02*
D03*
X12088876Y8599983D02*
D03*
X11999976D02*
D03*
X12592050Y8686800D02*
D03*
X12503150D02*
D03*
X12399975Y8899982D02*
D03*
X12311075D02*
D03*
X7410450Y8331200D02*
D03*
X7321550D02*
D03*
X7423150Y7416800D02*
D03*
X7512050D02*
D03*
X7626350D02*
D03*
X7715250D02*
D03*
X13874750Y4610100D02*
D03*
X13963651D02*
D03*
X3983990Y3162390D02*
D03*
X3895090D02*
D03*
X3092450Y3200400D02*
D03*
X3003550D02*
D03*
X4006850Y2387600D02*
D03*
X3917950D02*
D03*
X3092450D02*
D03*
X3003550D02*
D03*
X13938251Y1130300D02*
D03*
X13849350D02*
D03*
X13944600Y1564640D02*
D03*
X13855701D02*
D03*
X13944600Y1767840D02*
D03*
X13855701D02*
D03*
X13938251Y1333500D02*
D03*
X13849350D02*
D03*
X11853027Y3950987D02*
D03*
X11764127D02*
D03*
X11853027Y3747787D02*
D03*
X11764127D02*
D03*
X12706350Y4013200D02*
D03*
X12795250D02*
D03*
X18556750Y2946400D02*
D03*
X18645650D02*
D03*
X18442450D02*
D03*
X18353551D02*
D03*
X18899651Y2895600D02*
D03*
X18810750D02*
D03*
X19013950D02*
D03*
X19102850D02*
D03*
X18992360Y1342100D02*
D03*
X19081261D02*
D03*
X18992360Y1545300D02*
D03*
X19081261D02*
D03*
X18992360Y1443700D02*
D03*
X19081261D02*
D03*
X19115550Y2997200D02*
D03*
X19204449D02*
D03*
X9353550Y3340100D02*
D03*
X9442450D02*
D03*
X9137650D02*
D03*
X9048750D02*
D03*
X9461500Y2438400D02*
D03*
X9550400D02*
D03*
X9258300D02*
D03*
X9347200D02*
D03*
X11788877Y6599987D02*
D03*
X11699977D02*
D03*
D41*
X16754977Y2576865D02*
D03*
X16848958Y2343185D02*
D03*
X16660999D02*
D03*
X17322800Y6162040D02*
D03*
X17416780Y5928360D02*
D03*
X17228819D02*
D03*
X14122400Y3774440D02*
D03*
X14216380Y3540760D02*
D03*
X14028419D02*
D03*
X10675620Y3896360D02*
D03*
X10769600Y4130040D02*
D03*
X10863580Y3896360D02*
D03*
X3558540Y9152980D02*
D03*
X3652520Y8919300D02*
D03*
X3464560D02*
D03*
X2590800Y6182360D02*
D03*
X2496820Y6416040D02*
D03*
X2684780D02*
D03*
X3860800Y3012440D02*
D03*
X3954780Y2778760D02*
D03*
X3766820D02*
D03*
X2903220D02*
D03*
X2997200Y3012440D02*
D03*
X3091180Y2778760D02*
D03*
X3766820Y2016760D02*
D03*
X3860800Y2250440D02*
D03*
X3954780Y2016760D02*
D03*
X2903220D02*
D03*
X2997200Y2250440D02*
D03*
X3091180Y2016760D02*
D03*
D46*
X13665199Y4914900D02*
D03*
D52*
X19104120Y3098800D02*
D03*
X19160001D02*
D03*
X19104120Y3200400D02*
D03*
X19160001D02*
D03*
X9189720Y2730500D02*
D03*
X9245600D02*
D03*
X9494520Y2336800D02*
D03*
X9550400D02*
D03*
X9347200D02*
D03*
X9291320D02*
D03*
D53*
X12220057Y3493787D02*
D03*
X11930497D02*
D03*
X18434830Y1240500D02*
D03*
X18724390D02*
D03*
X19029190Y1748500D02*
D03*
X18739630D02*
D03*
D63*
X640080Y3954780D02*
D03*
X406400Y3860800D02*
D03*
Y4048760D02*
D03*
X7014210Y6642100D02*
D03*
X7247890Y6736080D02*
D03*
Y6548120D02*
D03*
X17764760Y4622800D02*
D03*
X17998441Y4716780D02*
D03*
Y4528820D02*
D03*
D64*
X1422400Y9296400D02*
D03*
X11176000Y2768600D02*
D03*
X6451600Y2692400D02*
D03*
X19862801Y6756400D02*
D03*
D65*
X10261600Y1464200D02*
D03*
Y974200D02*
D03*
X9753600Y1464200D02*
D03*
Y974200D02*
D03*
X9245600Y1464200D02*
D03*
Y974200D02*
D03*
X8737600Y1464200D02*
D03*
Y974200D02*
D03*
D86*
X9042400Y3140300D02*
D03*
X10261600D02*
D03*
D87*
X9042400Y2930300D02*
D03*
X10261600D02*
D03*
D98*
X13302000Y4318000D02*
Y4523627D01*
X13614400Y4089400D02*
X13618201Y4093200D01*
Y4314200D02*
X13622000Y4318000D01*
X13618201Y4093200D02*
Y4314200D01*
X6832600Y7874000D02*
X7004050D01*
X7061200Y7816850D01*
X7569200Y7112000D02*
X7642225Y7185025D01*
Y7343775D01*
X7715250Y7416800D01*
D99*
X14876781Y3220720D02*
X15036800D01*
D100*
X13703300Y9906000D02*
X14185899Y9423400D01*
X16319501D01*
X16967200Y8775700D01*
X1524000Y9906000D02*
X13703300D01*
X16967200Y7061200D02*
Y8775700D01*
X1066800Y6671060D02*
Y9448800D01*
Y6451600D02*
Y6671060D01*
Y9448800D02*
X1524000Y9906000D01*
X16967200Y7061200D02*
X17119600D01*
X17278287D01*
X1066800Y6451600D02*
X1219200Y6299200D01*
D102*
X7543800Y7315200D02*
X7615218Y7386618D01*
X7543800Y7239000D02*
Y7315200D01*
X7615218Y7405668D02*
X7626350Y7416800D01*
X7615218Y7386618D02*
Y7405668D01*
X7366000Y7289800D02*
X7423150Y7346950D01*
Y7416800D01*
X7391400Y8509000D02*
X7410450Y8489950D01*
Y8331200D02*
Y8489950D01*
X7315200Y8509000D02*
X7391400D01*
D103*
X2287741Y4367059D02*
X2584065D01*
X2286000Y4368800D02*
X2287741Y4367059D01*
X2584065D02*
X2585806Y4365317D01*
X11023600Y3782060D02*
X11026140Y3779520D01*
X11023600Y3782060D02*
Y3867150D01*
X11802110Y7814310D02*
X11849100Y7861300D01*
X11802110Y7721600D02*
Y7814310D01*
X7247890Y6548120D02*
X7360920D01*
X11843461Y7556500D02*
X11899976Y7499985D01*
D104*
X7321550Y7997660D02*
Y8331200D01*
X6774200Y8018800D02*
X7061200D01*
X6756400Y8001000D02*
X6774200Y8018800D01*
X6846990Y8316810D02*
X7039210D01*
X7061200Y8338800D01*
X7068800Y8331200D01*
X7321550D01*
Y7997660D02*
X7367400Y7951810D01*
D105*
X11666161Y2260600D02*
X11803380D01*
X11620500Y2222500D02*
X11628061D01*
X11666161Y2260600D01*
X12794039Y2362200D02*
X12801601D01*
X12785189Y2371050D02*
X12794039Y2362200D01*
X12625509Y2371050D02*
X12785189D01*
X12606970Y2352511D02*
X12625509Y2371050D01*
X12598400Y2324500D02*
X12606970Y2333070D01*
Y2352511D01*
X13601700Y909320D02*
X13837920D01*
X12598400Y2159000D02*
Y2247500D01*
X11803380Y2260600D02*
X11811000Y2268220D01*
D106*
X12117120Y4465337D02*
X12264857Y4317600D01*
X12113377Y4465337D02*
X12117120D01*
X12264857Y4317600D02*
X12268600D01*
X11853027Y3747787D02*
X11892414Y3708400D01*
X11971020D01*
D108*
X13938251Y1130300D02*
X14033501D01*
X13938251Y1333500D02*
X14033501D01*
X14020799Y1640840D02*
Y1778000D01*
X13944600Y1564640D02*
X14020799Y1640840D01*
X13850751Y1948050D02*
X14020799Y1778000D01*
X12387450Y1948050D02*
X13850751D01*
X13858240Y1854200D02*
X13944600Y1767840D01*
X12915900Y1854200D02*
X12919075Y1857375D01*
X12915900Y1854200D02*
X13858240D01*
X13852525Y1133475D02*
Y1764665D01*
X13601700Y1198880D02*
X13714729D01*
X13849350Y1333500D01*
X13852525Y1764665D02*
X13855701Y1767840D01*
X13849350Y1130300D02*
X13852525Y1133475D01*
X12280900Y1841500D02*
X12387450Y1948050D01*
X12656097Y2139226D02*
Y2200831D01*
Y2139226D02*
X12689202Y2106120D01*
X12703537Y2140727D02*
X12721685D01*
X12690704Y2153560D02*
Y2200831D01*
X12798942Y2169042D02*
Y2245109D01*
X12736020Y2106120D02*
X12798942Y2169042D01*
X12721685Y2140727D02*
X12764335Y2183377D01*
X12690704Y2153560D02*
X12703537Y2140727D01*
X12689202Y2106120D02*
X12736020D01*
X12764335Y2183377D02*
Y2259444D01*
X12652446Y2204481D02*
X12656097Y2200831D01*
X12694354Y2204481D02*
Y2243454D01*
X12690704Y2200831D02*
X12694354Y2204481D01*
X12652446D02*
Y2243454D01*
X12648400Y2247500D02*
X12652446Y2243454D01*
X12694354D02*
X12698400Y2247500D01*
X12798942Y2245109D02*
X12814433Y2260600D01*
X12885764D01*
X12764335Y2259444D02*
X12800098Y2295207D01*
X12900098D01*
X12885764Y2260600D02*
X12898596Y2247767D01*
X12933203Y2241282D02*
Y2262102D01*
X12898596Y2226947D02*
Y2247767D01*
X12900098Y2295207D02*
X12933203Y2262102D01*
X12871449Y2171700D02*
Y2171833D01*
X12933203Y2241282D02*
X12933205Y2241282D01*
Y2198980D02*
Y2241282D01*
X12960350Y2171700D02*
Y2171833D01*
X12933205Y2198980D02*
X12960350Y2171833D01*
X12898596Y2226947D02*
X12898598Y2226947D01*
X12871449Y2171833D02*
X12898598Y2198980D01*
Y2226947D01*
X12540704Y2151925D02*
Y2218120D01*
X12493263Y2153427D02*
X12506096Y2166260D01*
X12507598Y2118820D02*
X12540704Y2151925D01*
X12420600Y2207942D02*
Y2363702D01*
X12385993Y2193607D02*
Y2349367D01*
X12475115Y2153427D02*
X12493263D01*
X12420600Y2207942D02*
X12475115Y2153427D01*
X12385993Y2193607D02*
X12460780Y2118820D01*
X12507598D01*
X12506096Y2166260D02*
Y2218120D01*
X12502446Y2221771D02*
X12506096Y2218120D01*
X12540704D02*
X12544354Y2221771D01*
X12502446D02*
Y2243454D01*
X12544354Y2221771D02*
Y2243454D01*
X12387494Y2396807D02*
X12420600Y2363702D01*
X12373160Y2362200D02*
X12385993Y2349367D01*
X12337414Y2362200D02*
X12373160D01*
X12323080Y2396807D02*
X12387494D01*
X12263597Y2211680D02*
Y2337324D01*
X12323080Y2396807D01*
X12325350Y2184400D02*
Y2184533D01*
X12298204Y2211680D02*
X12325350Y2184533D01*
X12236450Y2184400D02*
Y2184533D01*
X12263597Y2211680D01*
X12298204Y2322989D02*
X12337414Y2362200D01*
X12298204Y2211680D02*
Y2322989D01*
X12498400Y2247500D02*
X12502446Y2243454D01*
X12544354D02*
X12548400Y2247500D01*
D110*
X16967200Y1447800D02*
D03*
X19574646Y9311709D02*
D03*
X533400Y9499600D02*
D03*
X4025798Y3806550D02*
D03*
D111*
X14438298Y9761666D02*
D03*
X10418298Y5731666D02*
D03*
D112*
X19151601Y507200D02*
D03*
X19405600Y761200D02*
D03*
Y253200D02*
D03*
X18897600D02*
D03*
Y761200D02*
D03*
X17729201Y508000D02*
D03*
X17983200Y762000D02*
D03*
Y254000D02*
D03*
X17475200D02*
D03*
Y762000D02*
D03*
X16306799Y508000D02*
D03*
X16560800Y762000D02*
D03*
Y254000D02*
D03*
X16052800D02*
D03*
Y762000D02*
D03*
X14782800Y508000D02*
D03*
X15036800Y762000D02*
D03*
Y254000D02*
D03*
X14528799D02*
D03*
Y762000D02*
D03*
D113*
X545200Y1017050D02*
D03*
X965200D02*
D03*
X545200Y1567050D02*
D03*
X965200D02*
D03*
X1385200D02*
D03*
X5240000Y711200D02*
D03*
X6444000D02*
D03*
D114*
X1385200Y1017050D02*
D03*
D115*
X8749600Y457200D02*
D03*
D116*
X9249600D02*
D03*
X9749600D02*
D03*
X10249600D02*
D03*
D117*
X5967000Y1181200D02*
D03*
X5717000D02*
D03*
X5967000Y981200D02*
D03*
X5717000D02*
D03*
D118*
X12400600Y4095600D02*
D03*
Y3988600D02*
D03*
Y3881600D02*
D03*
X12293600Y4095600D02*
D03*
Y3988600D02*
D03*
Y3881600D02*
D03*
X12186600Y4095600D02*
D03*
Y3988600D02*
D03*
Y3881600D02*
D03*
D119*
X13004800Y1574800D02*
D03*
X12090400D02*
D03*
X13233400D02*
D03*
X12192000Y1092200D02*
D03*
X12395200D02*
D03*
X12598400D02*
D03*
X12801601D02*
D03*
X12293600Y914400D02*
D03*
X12496800D02*
D03*
X12700000D02*
D03*
X11861800Y1574800D02*
D03*
X7162800Y9702800D02*
D03*
Y9448800D02*
D03*
X10871200Y9296400D02*
D03*
X10363200D02*
D03*
X10617200D02*
D03*
D120*
X12903200Y914400D02*
D03*
D121*
X11912600Y660400D02*
D03*
X13182600D02*
D03*
D122*
X2222500Y3111500D02*
D03*
X571500Y4254500D02*
D03*
Y4508500D02*
D03*
X317500Y4254500D02*
D03*
Y4508500D02*
D03*
X1079500Y3810000D02*
D03*
Y3556000D02*
D03*
Y4064000D02*
D03*
X817791Y4517800D02*
D03*
Y4263800D02*
D03*
X1325791Y4517800D02*
D03*
X1071791D02*
D03*
X1325791Y4263800D02*
D03*
X1071791D02*
D03*
X1587500Y4064000D02*
D03*
X1333500D02*
D03*
X1587500Y3556000D02*
D03*
Y3810000D02*
D03*
X1333500Y3556000D02*
D03*
Y3810000D02*
D03*
X1219200Y6299200D02*
D03*
X1778000Y4445000D02*
D03*
X1905000Y5080000D02*
D03*
X1651000D02*
D03*
Y6096000D02*
D03*
Y5842000D02*
D03*
Y5588000D02*
D03*
X1905000Y6096000D02*
D03*
Y5842000D02*
D03*
Y5588000D02*
D03*
X1397000D02*
D03*
X1905000Y5334000D02*
D03*
X1651000D02*
D03*
X1397000D02*
D03*
Y6350000D02*
D03*
X1651000D02*
D03*
X1905000D02*
D03*
X1397000Y6604000D02*
D03*
X1651000D02*
D03*
X1905000D02*
D03*
X15661127Y5889671D02*
D03*
X15925800Y5537200D02*
D03*
X15951199Y5638800D02*
D03*
Y5969000D02*
D03*
X16332201Y5842000D02*
D03*
X16408400Y6019800D02*
D03*
X16510736Y6461760D02*
D03*
X16535400Y5765800D02*
D03*
X16814799Y5791200D02*
D03*
X16586200Y5918200D02*
D03*
Y6400800D02*
D03*
X16713200Y6553200D02*
D03*
X16992599Y6527800D02*
D03*
X16916400Y6629400D02*
D03*
X17170399Y6096000D02*
D03*
X17043401Y6375400D02*
D03*
X18872200Y5130800D02*
D03*
X18059399Y5740400D02*
D03*
X18262601Y5664200D02*
D03*
X18567400Y5054600D02*
D03*
X18948399Y5257800D02*
D03*
X19067780Y5377180D02*
D03*
X18948399Y5715000D02*
D03*
X18821400Y5867400D02*
D03*
X18449211Y5796400D02*
D03*
X18465800Y7848600D02*
D03*
X18592799Y7874000D02*
D03*
X18821400D02*
D03*
X17627600Y7670800D02*
D03*
X17653000Y7518400D02*
D03*
X18186400Y7899400D02*
D03*
X17881599Y7924800D02*
D03*
X18694400Y6350000D02*
D03*
X18110201Y6781800D02*
D03*
X18973801Y6654800D02*
D03*
X18923000Y7035800D02*
D03*
X19100800Y7213600D02*
D03*
X18948399D02*
D03*
X18897600Y7366000D02*
D03*
Y7518400D02*
D03*
X18923000Y7670800D02*
D03*
X18669000Y8026400D02*
D03*
X17272000Y5029200D02*
D03*
X17043401Y5224780D02*
D03*
X17136404Y5096805D02*
D03*
X16764000Y4953000D02*
D03*
X17576801Y4419600D02*
D03*
X17424400Y4521200D02*
D03*
X17272000Y4318000D02*
D03*
X16586200Y4597400D02*
D03*
X16738600Y4368800D02*
D03*
X17297400Y4191000D02*
D03*
X16648198Y3367002D02*
D03*
X16154401Y3022600D02*
D03*
X16306799Y2616200D02*
D03*
X16459998Y2616998D02*
D03*
X16913206Y2784135D02*
D03*
X17094200Y2997200D02*
D03*
X17052296Y3251200D02*
D03*
X16901402Y3012198D02*
D03*
X16764000Y3251200D02*
D03*
X16281400Y3276600D02*
D03*
X8534400Y5181600D02*
D03*
X8788400Y5156200D02*
D03*
X8712200Y4140200D02*
D03*
X7264400Y2590800D02*
D03*
X7289800Y2133600D02*
D03*
X8128000D02*
D03*
X8102600Y2692400D02*
D03*
X8075400Y4802400D02*
D03*
X8102600Y3962400D02*
D03*
X9829800D02*
D03*
X9677400D02*
D03*
X9964400Y3962059D02*
D03*
X10312400Y3530600D02*
D03*
Y4191000D02*
D03*
X10210800Y4318000D02*
D03*
X10083800Y4376000D02*
D03*
X10160000Y4470400D02*
D03*
X13792200Y4064000D02*
D03*
X14478000Y5994400D02*
D03*
X14579601D02*
D03*
Y5664200D02*
D03*
X14478000Y5740400D02*
D03*
X14325600Y5511800D02*
D03*
Y4673600D02*
D03*
X13302000Y4523627D02*
D03*
X13614400Y4089400D02*
D03*
X13435201Y4499200D02*
D03*
X13614400Y4495800D02*
D03*
X6832600Y7874000D02*
D03*
X6937790Y7641810D02*
D03*
X8458200Y7645400D02*
D03*
Y7823200D02*
D03*
X8371790Y7731810D02*
D03*
X7569200Y7112000D02*
D03*
X6784810Y8181810D02*
D03*
X6904707Y8091810D02*
D03*
X6756400Y8001000D02*
D03*
X6846990Y8316810D02*
D03*
X7837408Y6016679D02*
D03*
X3937000Y6375400D02*
D03*
X2844800Y4064000D02*
D03*
X3048000Y4089400D02*
D03*
X3493810Y4382810D02*
D03*
X3501390Y4702810D02*
D03*
X3235706Y4607306D02*
D03*
X2438400Y4064000D02*
D03*
X2585806Y4068994D02*
D03*
X3302000Y7556500D02*
D03*
X2832540Y8103040D02*
D03*
X3302000Y8064500D02*
D03*
Y8318500D02*
D03*
Y8191500D02*
D03*
X5080000Y7874000D02*
D03*
X14876781Y3220720D02*
D03*
X17119600Y7061200D02*
D03*
X17270139Y7067129D02*
D03*
X16967200Y7061200D02*
D03*
X1066800Y6671060D02*
D03*
Y6451600D02*
D03*
X2129040Y1683967D02*
D03*
Y1493467D02*
D03*
X1938540D02*
D03*
Y1683967D02*
D03*
X1397000Y2349500D02*
D03*
Y2159000D02*
D03*
Y1968500D02*
D03*
X1143000Y2349500D02*
D03*
Y2159000D02*
D03*
Y1968500D02*
D03*
X1333500Y1270000D02*
D03*
X1587500D02*
D03*
X825500D02*
D03*
X1079500D02*
D03*
X317500D02*
D03*
X571500D02*
D03*
Y762000D02*
D03*
X317500D02*
D03*
X635000Y1841500D02*
D03*
Y2095500D02*
D03*
X825500Y1841500D02*
D03*
Y2095500D02*
D03*
X571500Y571500D02*
D03*
X317500D02*
D03*
X825500Y381000D02*
D03*
X1079500D02*
D03*
X1587500Y571500D02*
D03*
X1333500D02*
D03*
X1079500D02*
D03*
X825500D02*
D03*
Y762000D02*
D03*
X1079500D02*
D03*
X1333500D02*
D03*
X1587500D02*
D03*
X1905000Y2222500D02*
D03*
X2349500Y1587500D02*
D03*
Y1778000D02*
D03*
X2095500Y2222500D02*
D03*
X2349500Y1397000D02*
D03*
X1714500Y2032000D02*
D03*
X2540000Y1016000D02*
D03*
X2286000D02*
D03*
X2540000Y825500D02*
D03*
X2286000D02*
D03*
X2540000Y635000D02*
D03*
X2286000D02*
D03*
X2540000Y444500D02*
D03*
X2286000D02*
D03*
X2032000D02*
D03*
X1778000D02*
D03*
Y254000D02*
D03*
X2032000D02*
D03*
X2286000D02*
D03*
X2540000D02*
D03*
X1714500Y2222500D02*
D03*
Y2413000D02*
D03*
X2540000Y2349500D02*
D03*
X2349500D02*
D03*
Y2159000D02*
D03*
Y1968500D02*
D03*
X2540000Y1397000D02*
D03*
Y1587500D02*
D03*
Y1778000D02*
D03*
Y1968500D02*
D03*
Y2159000D02*
D03*
D123*
X18416400Y6751400D02*
D03*
Y6829400D02*
D03*
Y6907400D02*
D03*
X18244400D02*
D03*
Y6829400D02*
D03*
Y6751400D02*
D03*
X7697408Y5734796D02*
D03*
X7754908Y5829796D02*
D03*
X7639908D02*
D03*
X7697408Y5924796D02*
D03*
X7477600Y7915310D02*
D03*
Y7988310D02*
D03*
Y8061810D02*
D03*
X7331065Y7841770D02*
D03*
X7404065D02*
D03*
X7477565D02*
D03*
X7257400Y7915310D02*
D03*
Y7841810D02*
D03*
Y7988310D02*
D03*
Y8061810D02*
D03*
X7331100D02*
D03*
X7404100D02*
D03*
X13555200Y4951600D02*
D03*
Y4878600D02*
D03*
Y4804900D02*
D03*
X13628700D02*
D03*
X13775200D02*
D03*
X13701700D02*
D03*
X13775240Y5025065D02*
D03*
Y4951565D02*
D03*
Y4878565D02*
D03*
X13555200Y5025100D02*
D03*
X13628700D02*
D03*
X13701700D02*
D03*
X3810035Y7998340D02*
D03*
Y8071339D02*
D03*
Y8144839D02*
D03*
X3663500Y7924800D02*
D03*
X3736500D02*
D03*
X3810000D02*
D03*
X3589835Y7998340D02*
D03*
Y7924840D02*
D03*
Y8071339D02*
D03*
Y8144839D02*
D03*
X3663535D02*
D03*
X3736535D02*
D03*
X15814799Y7400000D02*
D03*
X15704800D02*
D03*
X15594800D02*
D03*
X15484801D02*
D03*
X15374800D02*
D03*
X15814799Y7510000D02*
D03*
X15704800D02*
D03*
X15594800D02*
D03*
X15484801D02*
D03*
X15374800D02*
D03*
X15814799Y7620000D02*
D03*
X15704800D02*
D03*
X15594800D02*
D03*
X15484801D02*
D03*
X15374800D02*
D03*
X15814799Y7730000D02*
D03*
X15704800D02*
D03*
X15594800D02*
D03*
X15484801D02*
D03*
X15374800D02*
D03*
X15814799Y7840000D02*
D03*
X15704800D02*
D03*
X15594800D02*
D03*
X15484801D02*
D03*
X15374800D02*
D03*
X17097539Y4627652D02*
D03*
X16997539D02*
D03*
Y4827652D02*
D03*
X16897539D02*
D03*
Y4627652D02*
D03*
Y4727652D02*
D03*
X16997539D02*
D03*
X17097539Y4827652D02*
D03*
Y4727652D02*
D03*
X15193401Y2861700D02*
D03*
Y2751700D02*
D03*
X15083400Y2861700D02*
D03*
Y2751700D02*
D03*
X9249500Y4559500D02*
D03*
Y4632500D02*
D03*
Y4706000D02*
D03*
X9102965Y4485960D02*
D03*
X9175965D02*
D03*
X9249465D02*
D03*
X9029300Y4559500D02*
D03*
Y4486000D02*
D03*
Y4632500D02*
D03*
Y4706000D02*
D03*
X9103000D02*
D03*
X9176000D02*
D03*
X18584399Y3877600D02*
D03*
X18694400D02*
D03*
X18804401D02*
D03*
X18914400D02*
D03*
X19024400D02*
D03*
X18584399Y3767600D02*
D03*
X18694400D02*
D03*
X18804401D02*
D03*
X18914400D02*
D03*
X19024400D02*
D03*
X18584399Y3657600D02*
D03*
X18694400D02*
D03*
X18804401D02*
D03*
X18914400D02*
D03*
X19024400D02*
D03*
X18584399Y3547600D02*
D03*
X18694400D02*
D03*
X18804401D02*
D03*
X18914400D02*
D03*
X19024400D02*
D03*
X18584399Y3437600D02*
D03*
X18694400D02*
D03*
X18804401D02*
D03*
X18914400D02*
D03*
X19024400D02*
D03*
X15409200Y5228300D02*
D03*
X15299200D02*
D03*
X15189200D02*
D03*
X15079201D02*
D03*
X14969200D02*
D03*
X15409200Y5338300D02*
D03*
X15299200D02*
D03*
X15189200D02*
D03*
X15079201D02*
D03*
X14969200D02*
D03*
X15409200Y5448300D02*
D03*
X15299200D02*
D03*
X15189200D02*
D03*
X15079201D02*
D03*
X14969200D02*
D03*
X15409200Y5558300D02*
D03*
X15299200D02*
D03*
X15189200D02*
D03*
X15079201D02*
D03*
X14969200D02*
D03*
X15409200Y5668300D02*
D03*
X15299200D02*
D03*
X15189200D02*
D03*
X15079201D02*
D03*
X14969200D02*
D03*
X9008800Y1972800D02*
D03*
Y2082800D02*
D03*
Y2192800D02*
D03*
X9118800Y1972800D02*
D03*
Y2082800D02*
D03*
Y2192800D02*
D03*
X9228800Y1972800D02*
D03*
Y2082800D02*
D03*
Y2192800D02*
D03*
X9338800Y1972800D02*
D03*
Y2082800D02*
D03*
Y2192800D02*
D03*
X9448800Y1972800D02*
D03*
Y2082800D02*
D03*
Y2192800D02*
D03*
X9558800Y1972800D02*
D03*
Y2082800D02*
D03*
Y2192800D02*
D03*
X9668800Y1972800D02*
D03*
Y2082800D02*
D03*
Y2192800D02*
D03*
X9778800Y1972800D02*
D03*
Y2082800D02*
D03*
Y2192800D02*
D03*
X9888800Y1972800D02*
D03*
Y2082800D02*
D03*
Y2192800D02*
D03*
D124*
X10117598Y7421102D02*
D03*
X8892588Y5778500D02*
D03*
Y6944360D02*
D03*
X8623300Y5664200D02*
D03*
X13849350Y3651250D02*
D03*
X14452600Y3505200D02*
D03*
X3500540Y8618640D02*
D03*
X3884835Y7456265D02*
D03*
X4102100Y7137400D02*
D03*
X4038600D02*
D03*
Y7366000D02*
D03*
X4102100D02*
D03*
X10797540Y8054340D02*
D03*
X10795000Y7733050D02*
D03*
X10317500Y7739400D02*
D03*
X9873902Y6879987D02*
D03*
X9954225Y7315200D02*
D03*
X10051413Y7043810D02*
D03*
X9830678Y7144142D02*
D03*
X9391480Y7243216D02*
D03*
X10198082Y7034285D02*
D03*
X9131300Y7142480D02*
D03*
X9302750Y7245350D02*
D03*
X8986520Y6172200D02*
D03*
X9024620Y6456680D02*
D03*
X8968740Y6804660D02*
D03*
X8950960Y6901180D02*
D03*
X10184939Y7135321D02*
D03*
X10064750Y7410450D02*
D03*
X9810750Y7374890D02*
D03*
X9645650Y7263130D02*
D03*
X9552618Y7264400D02*
D03*
X9555480Y7493000D02*
D03*
X9633933Y7042163D02*
D03*
X9987280Y7470140D02*
D03*
X9761220Y7518400D02*
D03*
X9311640Y7439660D02*
D03*
X9123680Y7203440D02*
D03*
X9552618Y7043020D02*
D03*
X9093200Y6197600D02*
D03*
X10039980Y6479987D02*
D03*
X10124458Y6479987D02*
D03*
X12446000Y6756400D02*
D03*
X11945620Y3863340D02*
D03*
X13137086Y6641132D02*
D03*
X13051463Y6655510D02*
D03*
X13103860Y6261100D02*
D03*
X12999977Y6374126D02*
D03*
X12899977Y6400996D02*
D03*
X13195300Y6351009D02*
D03*
X13151463Y6755510D02*
D03*
X12799977Y6390026D02*
D03*
X12458700Y6654800D02*
D03*
X12851129Y6840967D02*
D03*
X12755880Y6945630D02*
D03*
X12338100Y6642100D02*
D03*
X12748260Y7147560D02*
D03*
X12651184Y6950202D02*
D03*
X12649200Y6748780D02*
D03*
X12544454Y6751474D02*
D03*
Y6851474D02*
D03*
X13251463Y6755510D02*
D03*
X13048489Y6844464D02*
D03*
X13251463Y6955510D02*
D03*
Y6855510D02*
D03*
X13451463Y6755510D02*
D03*
X13551463D02*
D03*
X13444453Y6851474D02*
D03*
X13351463Y6855510D02*
D03*
Y6655510D02*
D03*
X13155499Y6948500D02*
D03*
X13351463Y7055510D02*
D03*
X13251463Y7155510D02*
D03*
X13749020Y8549640D02*
D03*
X13545821Y8839200D02*
D03*
X12750800Y8750300D02*
D03*
X12951460Y8549640D02*
D03*
X13251180D02*
D03*
X13548360Y8651240D02*
D03*
X13654865Y8449135D02*
D03*
X13540286Y8458200D02*
D03*
X13645090Y8550839D02*
D03*
Y8950839D02*
D03*
X13749126Y8945099D02*
D03*
X13645090Y8750839D02*
D03*
X13650829Y8654875D02*
D03*
X13549126Y8745099D02*
D03*
X13545090Y8950839D02*
D03*
Y9050839D02*
D03*
X13650829Y7654875D02*
D03*
X13345090Y7750839D02*
D03*
X13454865Y7549135D02*
D03*
X13345090Y7550839D02*
D03*
X13245090D02*
D03*
X13049126Y7645099D02*
D03*
Y7845099D02*
D03*
X13050830Y7954875D02*
D03*
X12750829Y8154875D02*
D03*
X12850830D02*
D03*
X12745089Y8250839D02*
D03*
X12849126Y8245099D02*
D03*
X12954053Y8259088D02*
D03*
X13454865Y7849135D02*
D03*
X13245090Y7950839D02*
D03*
X13145090Y8050839D02*
D03*
X13045090D02*
D03*
X13254865Y8249135D02*
D03*
X13049126Y8245099D02*
D03*
X13145090Y8250839D02*
D03*
X13045090Y8850839D02*
D03*
X13157201Y8851900D02*
D03*
X12945090Y8850839D02*
D03*
Y8650839D02*
D03*
X13150830Y8654875D02*
D03*
X13245090Y8450839D02*
D03*
X13354865Y8149135D02*
D03*
X13450830Y8254875D02*
D03*
X13350830Y8354875D02*
D03*
X13151974Y8932649D02*
D03*
X13045090Y8750839D02*
D03*
X13044455Y8637305D02*
D03*
X12947981Y8932645D02*
D03*
X12845090Y8550839D02*
D03*
X12745089D02*
D03*
X12945090Y8450839D02*
D03*
X13049126Y8445099D02*
D03*
X13054865Y8949135D02*
D03*
X13249126Y8745099D02*
D03*
X13145090Y8750839D02*
D03*
X13249126Y8645099D02*
D03*
X13445090Y8850839D02*
D03*
Y8750839D02*
D03*
X13350830Y8654875D02*
D03*
X13450830D02*
D03*
X13449126Y8545099D02*
D03*
X13550830Y8554875D02*
D03*
X13450830Y8454875D02*
D03*
X13354865Y8449135D02*
D03*
X13049126Y8345099D02*
D03*
X13149126D02*
D03*
X13144501Y8547100D02*
D03*
X13149126Y8445099D02*
D03*
X12650469Y8552497D02*
D03*
Y8651987D02*
D03*
X12651572Y8753600D02*
D03*
X12848489Y8644464D02*
D03*
X12851463Y8755510D02*
D03*
X12549977Y8870475D02*
D03*
X12553490Y8953500D02*
D03*
X12152864Y8547100D02*
D03*
X11950982Y8548700D02*
D03*
X13151463Y6855510D02*
D03*
X13055499Y6948500D02*
D03*
Y6748500D02*
D03*
X12852400Y6350000D02*
D03*
X12848489Y6744464D02*
D03*
X12738100Y6642100D02*
D03*
X12740482Y6844528D02*
D03*
X11950700Y8648700D02*
D03*
X11849100Y7861300D02*
D03*
X11751464Y7855510D02*
D03*
X12052300Y7556500D02*
D03*
X12966701Y7251700D02*
D03*
X13150850Y7143750D02*
D03*
X13244453Y7651474D02*
D03*
X13551463Y7655510D02*
D03*
X13550900Y7848600D02*
D03*
X13347701Y7937500D02*
D03*
X13356064Y8255000D02*
D03*
X13235141Y8346187D02*
D03*
X12351464Y7455510D02*
D03*
X12700000Y6376409D02*
D03*
X12955499Y6648500D02*
D03*
X12943840Y6555740D02*
D03*
X12855499Y6648500D02*
D03*
X12748490Y6744464D02*
D03*
X12944453Y6751474D02*
D03*
X12948489Y6844464D02*
D03*
X12959081Y7045960D02*
D03*
X12448490Y8244464D02*
D03*
X12348490Y7744464D02*
D03*
X13844453Y6551474D02*
D03*
X13551463Y6655510D02*
D03*
X13544453Y6851474D02*
D03*
X13851463Y7055510D02*
D03*
X13544453Y7251474D02*
D03*
X12951463Y6955510D02*
D03*
X13251463Y7355510D02*
D03*
X13744450Y7851471D02*
D03*
X13744453Y8251474D02*
D03*
Y8651474D02*
D03*
X13848489Y8944464D02*
D03*
X13348489Y8844464D02*
D03*
X12451464Y8655510D02*
D03*
X12655500Y8848500D02*
D03*
X12255500D02*
D03*
X12251464Y8955510D02*
D03*
X11444454Y7851474D02*
D03*
X12048490Y7744464D02*
D03*
Y7244464D02*
D03*
X12247880Y6855460D02*
D03*
X11851640Y6405880D02*
D03*
X12538098Y6942099D02*
D03*
X13544453Y7051474D02*
D03*
X13751463Y6655510D02*
D03*
X12037660Y7055410D02*
D03*
X11871960Y7056120D02*
D03*
X11841480Y6944360D02*
D03*
X11936310Y7053580D02*
D03*
X11736345Y6745245D02*
D03*
X11744960Y6845881D02*
D03*
X11561911Y6636851D02*
D03*
X12551464Y7155510D02*
D03*
X12544454Y7251474D02*
D03*
X13051463Y7155510D02*
D03*
X13151463Y7355510D02*
D03*
X13851463Y6855510D02*
D03*
X13051463Y8555510D02*
D03*
X13451463Y8355510D02*
D03*
Y8155510D02*
D03*
X13351463Y8055510D02*
D03*
X13651463Y7855510D02*
D03*
X13744453Y8051474D02*
D03*
X13651463Y8355510D02*
D03*
X13744453Y8451474D02*
D03*
X13771523Y9238563D02*
D03*
X13461313Y9234527D02*
D03*
X13748489Y8744464D02*
D03*
X13344453Y8551474D02*
D03*
Y8751474D02*
D03*
X13246100Y8851900D02*
D03*
X11645900Y9105900D02*
D03*
X11988800Y9093200D02*
D03*
X11849100Y7442200D02*
D03*
X12052300Y7645400D02*
D03*
X12151464Y6655510D02*
D03*
X13455499Y6948500D02*
D03*
X13351463Y6955510D02*
D03*
X13451463Y7355510D02*
D03*
X13655499Y7348500D02*
D03*
X13748489Y7344464D02*
D03*
X13744453Y7251474D02*
D03*
X13551463Y7555510D02*
D03*
X13748489Y7544464D02*
D03*
X12455500Y7648500D02*
D03*
X12451464Y7455510D02*
D03*
X12555500Y7448500D02*
D03*
X12755500Y7348500D02*
D03*
X12648490Y7544464D02*
D03*
X12655500Y7448500D02*
D03*
X12555500Y7648500D02*
D03*
X12651464Y7655510D02*
D03*
X12855499Y7548500D02*
D03*
X12751464Y7755510D02*
D03*
X12748490Y7644464D02*
D03*
X12751464Y7555510D02*
D03*
X12748490Y7444464D02*
D03*
X12955499Y7348500D02*
D03*
X12951463Y7555510D02*
D03*
X13051463D02*
D03*
Y7755510D02*
D03*
X12844453Y7751474D02*
D03*
Y7651474D02*
D03*
X13155499Y7748500D02*
D03*
X13148486Y7844461D02*
D03*
X13048489Y8144464D02*
D03*
X12948489Y8044464D02*
D03*
X12844453Y8451474D02*
D03*
X12855499Y8348500D02*
D03*
X12744454Y8651474D02*
D03*
X12949277Y8750987D02*
D03*
X12748490Y8844464D02*
D03*
X12455500Y8848500D02*
D03*
X12548490Y8544464D02*
D03*
X12244454Y8451474D02*
D03*
X12348490Y8444464D02*
D03*
X11955500Y8448500D02*
D03*
X12255500Y8648500D02*
D03*
X11455500Y8948500D02*
D03*
X12051464Y8955510D02*
D03*
X11744454Y8951474D02*
D03*
X11555500Y8748500D02*
D03*
X11648490Y8744464D02*
D03*
X11848490Y8644464D02*
D03*
X11644454Y8651474D02*
D03*
X11551464Y8655510D02*
D03*
X11648490Y8344464D02*
D03*
X11551464Y8055510D02*
D03*
Y8255510D02*
D03*
X11555500Y8348500D02*
D03*
X11755500Y8248500D02*
D03*
X12048490Y8344464D02*
D03*
X11948490Y8244464D02*
D03*
X11951464Y8055510D02*
D03*
X11848489Y8144461D02*
D03*
X12251464Y8155510D02*
D03*
X12451464D02*
D03*
X12848489Y8044464D02*
D03*
X12544454Y8151474D02*
D03*
X12651464Y8055510D02*
D03*
X12951463Y7855510D02*
D03*
X12848489Y7844464D02*
D03*
X12955499Y7948500D02*
D03*
X12855499D02*
D03*
X12648490Y7944464D02*
D03*
X12448490D02*
D03*
X12248490D02*
D03*
X12348490D02*
D03*
X12348488Y7844461D02*
D03*
X12447627Y7849287D02*
D03*
X12755500Y7848500D02*
D03*
X12655500D02*
D03*
X12544454Y7851474D02*
D03*
X12648490Y7744464D02*
D03*
X12544454Y7751474D02*
D03*
X12555500Y7548500D02*
D03*
X12248490Y7544464D02*
D03*
X12455500Y7548500D02*
D03*
X12344454Y7551474D02*
D03*
X12153900Y7353300D02*
D03*
X12151464Y7055510D02*
D03*
X12255500Y7048500D02*
D03*
X11031220Y6859940D02*
D03*
X11644555D02*
D03*
X11843461Y7556500D02*
D03*
X11699977Y6388100D02*
D03*
X9721295Y7039987D02*
D03*
X9588500Y7543800D02*
D03*
X9563100Y6642100D02*
D03*
X9859010Y6160770D02*
D03*
X7551358Y6167058D02*
D03*
X8394700Y6629400D02*
D03*
X8502650Y6686550D02*
D03*
X8540750Y7245350D02*
D03*
X8451850Y7232650D02*
D03*
X8540750Y7004050D02*
D03*
X8451850D02*
D03*
X8890000Y5664200D02*
D03*
X9004300Y7505700D02*
D03*
X9931400Y7785100D02*
D03*
X9817100D02*
D03*
X8636000Y7366000D02*
D03*
Y7023100D02*
D03*
X8648700Y6680200D02*
D03*
X8623300Y6565900D02*
D03*
Y6451600D02*
D03*
Y6337300D02*
D03*
Y6223000D02*
D03*
Y6108700D02*
D03*
Y5994400D02*
D03*
Y5880100D02*
D03*
Y5778500D02*
D03*
X10199980Y6559987D02*
D03*
X10119980D02*
D03*
X10039980D02*
D03*
X9873902Y6959324D02*
D03*
X9786714Y6879987D02*
D03*
X9067800Y7505700D02*
D03*
X9182100Y7480300D02*
D03*
X9098262Y6443962D02*
D03*
X9029700Y6527800D02*
D03*
X8890000Y6565900D02*
D03*
X9486900Y6642100D02*
D03*
X9478377Y6558669D02*
D03*
X9563100Y6564378D02*
D03*
X9601200Y6832600D02*
D03*
X9194800Y7023100D02*
D03*
X9931400Y7506896D02*
D03*
X10048258Y6959714D02*
D03*
X9957296Y6959987D02*
D03*
X9964438Y6883042D02*
D03*
X10353642Y6774780D02*
D03*
X9894792Y6692834D02*
D03*
X10846853Y6582193D02*
D03*
X10303434Y6821496D02*
D03*
X10896600Y6629400D02*
D03*
X9826239Y6694767D02*
D03*
X9017000Y6888480D02*
D03*
Y6819900D02*
D03*
X9004300Y7162801D02*
D03*
X9283700Y7099300D02*
D03*
X9389987Y7041553D02*
D03*
X9479979Y6477354D02*
D03*
X9245600Y7518400D02*
D03*
X9471302Y7040571D02*
D03*
X9817100Y7543800D02*
D03*
X9702800D02*
D03*
X9474200D02*
D03*
X9359900D02*
D03*
X11744555Y6960656D02*
D03*
X11760646Y7055410D02*
D03*
X11353800Y6197600D02*
D03*
X9634914Y6965052D02*
D03*
X9559980D02*
D03*
X9639979Y6878671D02*
D03*
X9479980Y6965052D02*
D03*
X9483729Y6883737D02*
D03*
X9398000Y6484620D02*
D03*
X9396899Y6402239D02*
D03*
X9489459Y6398860D02*
D03*
X9641849Y6399948D02*
D03*
X9745980Y6307045D02*
D03*
X10083833Y6778660D02*
D03*
X11546840Y7150100D02*
D03*
X11549978Y7049986D02*
D03*
X10180466Y6843350D02*
D03*
X11449977Y7049986D02*
D03*
X10185530Y6774957D02*
D03*
X11541760Y6957060D02*
D03*
X10993120Y6827538D02*
D03*
X11541660Y7256163D02*
D03*
X11048475Y7022920D02*
D03*
X10195560Y6972300D02*
D03*
X11640820Y7259320D02*
D03*
X11666220Y6951980D02*
D03*
X11646037Y7050903D02*
D03*
X11442869Y6553031D02*
D03*
X11849100Y7243025D02*
D03*
X11239500Y7394734D02*
D03*
X10857359Y7240140D02*
D03*
X9697474Y6400370D02*
D03*
X10623207Y6873288D02*
D03*
X10607040Y7129780D02*
D03*
X11236912Y6982460D02*
D03*
X10076180Y6683412D02*
D03*
X10284460Y7043420D02*
D03*
X10363200Y7038340D02*
D03*
X10283999Y7135321D02*
D03*
X10345420Y7139940D02*
D03*
X10502900Y7142480D02*
D03*
X10426700Y7137400D02*
D03*
X10119980Y7039985D02*
D03*
X10432010Y7039957D02*
D03*
X10515600Y7030720D02*
D03*
X10997852Y7069185D02*
D03*
X10850880Y7099950D02*
D03*
X11742420Y7163775D02*
D03*
X11655400Y7139318D02*
D03*
X10777220Y6507480D02*
D03*
X10195987Y6402664D02*
D03*
X10279980D02*
D03*
X11163300Y6573520D02*
D03*
X10590887Y6482671D02*
D03*
X10359980Y6401356D02*
D03*
Y6482671D02*
D03*
X10592658Y6400863D02*
D03*
X10359982Y6565892D02*
D03*
X10442235Y6565295D02*
D03*
X9799320Y6479540D02*
D03*
X9878060Y6398260D02*
D03*
X11744960Y7251100D02*
D03*
X9719979Y6879987D02*
D03*
X10124458Y6402664D02*
D03*
X10439980D02*
D03*
X10515600Y6403322D02*
D03*
X10279811Y6484638D02*
D03*
X9639300Y6477000D02*
D03*
X9720580Y6479540D02*
D03*
X9879983Y6479987D02*
D03*
X9884912Y6555140D02*
D03*
X11851040Y6850380D02*
D03*
X11442759Y6460656D02*
D03*
X10251440Y6789420D02*
D03*
X9786714Y6963729D02*
D03*
X11328400Y7645418D02*
D03*
X11303000Y7454900D02*
D03*
X11955780Y7155180D02*
D03*
X11845459Y7158821D02*
D03*
X11449977Y7649986D02*
D03*
X11549978Y7649986D02*
D03*
X10807700Y7302500D02*
D03*
X11645900Y6731000D02*
D03*
X9791700Y6667500D02*
D03*
X9720355Y6959987D02*
D03*
X10039979Y6402664D02*
D03*
X12146002Y7250431D02*
D03*
X11544300Y6553200D02*
D03*
X11539308Y6844564D02*
D03*
X9559980Y6399987D02*
D03*
X11345290Y6845300D02*
D03*
X10199980Y6479987D02*
D03*
X11445290Y6845300D02*
D03*
X11252200Y7696200D02*
D03*
X11751690Y7554064D02*
D03*
X11545900Y7551700D02*
D03*
X11549978Y7449986D02*
D03*
X11449978D02*
D03*
X11954055Y7448274D02*
D03*
X11948264Y7345910D02*
D03*
X11851690Y7354064D02*
D03*
X11751690D02*
D03*
X5080000Y9499600D02*
D03*
D125*
X8534400Y4521200D02*
D03*
X13604160Y6399987D02*
D03*
X15360304Y9326880D02*
D03*
X5384800Y7162800D02*
D03*
X5372100Y7531100D02*
D03*
Y7874000D02*
D03*
X4546600Y7124700D02*
D03*
X4559300Y7289800D02*
D03*
X4572000Y7416800D02*
D03*
X4394200Y7404100D02*
D03*
X4191000D02*
D03*
X4711700Y7632700D02*
D03*
X4813300Y7569200D02*
D03*
X4800600Y7721600D02*
D03*
X15773399Y2590800D02*
D03*
X15735300Y2755900D02*
D03*
Y2997200D02*
D03*
X15938499D02*
D03*
Y2857500D02*
D03*
Y2717800D02*
D03*
Y2578100D02*
D03*
X14681200Y2971800D02*
D03*
X14693900Y2667000D02*
D03*
X14795500D02*
D03*
X14876781Y3108029D02*
D03*
X15367000Y3187700D02*
D03*
X15608299D02*
D03*
X15798801D02*
D03*
X15697200D02*
D03*
X8432800Y9702800D02*
D03*
X16319501Y4241800D02*
D03*
X16598900Y6743700D02*
D03*
X14350999Y5791200D02*
D03*
X14084300Y2921000D02*
D03*
X13944600Y3759200D02*
D03*
X7416800Y7137400D02*
D03*
X7213108Y6997700D02*
D03*
X3327400Y7721600D02*
D03*
X3160610Y7799490D02*
D03*
X3784600Y7378700D02*
D03*
X11620500Y2222500D02*
D03*
X10061800Y2708500D02*
D03*
X10454640Y4826000D02*
D03*
X10634980Y4147820D02*
D03*
X10675620Y3779520D02*
D03*
X11026140D02*
D03*
X11031220Y4257040D02*
D03*
X11480800Y4823460D02*
D03*
X9494520Y3817620D02*
D03*
X9260840Y3839210D02*
D03*
X8735060Y4826000D02*
D03*
X8737940Y4646000D02*
D03*
X8742546Y4736000D02*
D03*
X8763315Y4286000D02*
D03*
X8276180Y9699400D02*
D03*
X8269380Y8886600D02*
D03*
X11582400Y4216400D02*
D03*
X12268600Y4317600D02*
D03*
X12848703Y5504200D02*
D03*
Y5943600D02*
D03*
X12052300Y6390339D02*
D03*
X11696700Y3797300D02*
D03*
X12540000Y5943600D02*
D03*
X11531600Y6083300D02*
D03*
X11785600Y6337300D02*
D03*
X11950700Y6386950D02*
D03*
X13716000Y5867400D02*
D03*
X14350999Y5626100D02*
D03*
X13138150Y4832350D02*
D03*
X14478000Y5130800D02*
D03*
X14579601D02*
D03*
X14478000Y4953000D02*
D03*
X14579601D02*
D03*
X14306551Y5314950D02*
D03*
X14312900Y5219700D02*
D03*
X14319250Y5111750D02*
D03*
X14293851Y5022850D02*
D03*
X13982700Y4508500D02*
D03*
X13874750Y4514850D02*
D03*
X13859898Y5867400D02*
D03*
X14338300Y6045200D02*
D03*
X14668500Y6324600D02*
D03*
X14274800D02*
D03*
X14681200Y6972300D02*
D03*
X14274800Y6959600D02*
D03*
X15024100Y7759700D02*
D03*
X15033200Y7845000D02*
D03*
X15138400Y8064500D02*
D03*
X14617700Y7899400D02*
D03*
Y7988300D02*
D03*
X14846300Y8280400D02*
D03*
X16421100Y8458200D02*
D03*
X16600951Y8587250D02*
D03*
X16043336Y8696264D02*
D03*
X16040100Y9093200D02*
D03*
X15218900Y8339600D02*
D03*
X14274800Y9169400D02*
D03*
X14681200Y9156700D02*
D03*
Y8483600D02*
D03*
X14274800D02*
D03*
X12301200Y5943600D02*
D03*
X12540000Y5506700D02*
D03*
X12301200Y5516900D02*
D03*
X11785600Y5740400D02*
D03*
X11798300Y6146800D02*
D03*
X12496800Y1270000D02*
D03*
X11607800Y4013200D02*
D03*
X11557000Y3835400D02*
D03*
X11636993Y3747787D02*
D03*
X11930497Y3345297D02*
D03*
X12214977Y3329823D02*
D03*
X12115800Y3327400D02*
D03*
X12014200D02*
D03*
X11808577Y4671177D02*
D03*
X11912600Y4673600D02*
D03*
X12014200D02*
D03*
X12217400Y4749800D02*
D03*
X12113377Y4798177D02*
D03*
X12214977Y4645777D02*
D03*
X12316577D02*
D03*
X12903200Y3810000D02*
D03*
Y3911600D02*
D03*
Y4013200D02*
D03*
Y4114800D02*
D03*
Y4216400D02*
D03*
Y4318000D02*
D03*
Y4419600D02*
D03*
X14033501Y1130300D02*
D03*
Y1333500D02*
D03*
X12801601Y2362200D02*
D03*
X13837920Y909320D02*
D03*
X12280900Y1841500D02*
D03*
X12915900Y1854200D02*
D03*
X12960350Y2171700D02*
D03*
X12871449D02*
D03*
X12236450Y2184400D02*
D03*
X12325350D02*
D03*
X12598400Y2159000D02*
D03*
X11625580Y2557780D02*
D03*
X11906250Y2851150D02*
D03*
X11672587Y4255787D02*
D03*
Y4154187D02*
D03*
X11667507Y4052587D02*
D03*
X11526520Y3947160D02*
D03*
X11662427Y3950987D02*
D03*
X11764127Y3664067D02*
D03*
X12793980Y4541520D02*
D03*
X11971020Y3708400D02*
D03*
X11611077Y6218657D02*
D03*
X6972300Y6807200D02*
D03*
X7360920Y6548120D02*
D03*
X7594600Y6553200D02*
D03*
Y6667500D02*
D03*
X7620000Y6007100D02*
D03*
X7302500Y5854700D02*
D03*
X7467600Y5829300D02*
D03*
Y5969000D02*
D03*
Y5664200D02*
D03*
X8292004Y5866304D02*
D03*
X8190404D02*
D03*
X8028805Y5755505D02*
D03*
X7708900Y5575300D02*
D03*
X8103808Y5487608D02*
D03*
X8002208D02*
D03*
X8286750Y6121400D02*
D03*
X8309784Y6036484D02*
D03*
X8182784D02*
D03*
X8188898Y6423598D02*
D03*
X9118600Y7797800D02*
D03*
X2484206Y5718810D02*
D03*
X2636606D02*
D03*
X2789006D02*
D03*
X2941406D02*
D03*
X2865206Y5642610D02*
D03*
X2560406D02*
D03*
X2941406Y5566410D02*
D03*
X2789006D02*
D03*
X2636606D02*
D03*
X2484206D02*
D03*
X2865206Y5490210D02*
D03*
X2560406D02*
D03*
X2941406Y5414010D02*
D03*
X2789006D02*
D03*
X2636606D02*
D03*
X2484206D02*
D03*
X2865206Y5337810D02*
D03*
X2560406D02*
D03*
X2941406Y5261610D02*
D03*
X2789006D02*
D03*
X2636606D02*
D03*
X2484206D02*
D03*
X2865206Y5185410D02*
D03*
X2712806D02*
D03*
X2560406D02*
D03*
X2941406Y5109210D02*
D03*
X2789006D02*
D03*
X2636606D02*
D03*
X2865206Y5033010D02*
D03*
X2712806D02*
D03*
X2941406Y4956810D02*
D03*
X2789006D02*
D03*
X2636606D02*
D03*
X2484206D02*
D03*
Y5109210D02*
D03*
X2560406Y5033010D02*
D03*
X2712806Y5642610D02*
D03*
Y5490210D02*
D03*
Y5337810D02*
D03*
D126*
X6908800Y7772400D02*
D03*
X7543800Y7239000D02*
D03*
X7366000Y7289800D02*
D03*
X7315200Y8509000D02*
D03*
X7924800Y6502400D02*
D03*
X7758295Y6618105D02*
D03*
X7837408Y6135608D02*
D03*
X2286000Y4368800D02*
D03*
X2585806Y4365317D02*
D03*
X10007600Y7825740D02*
D03*
D127*
X18602800Y5586400D02*
D03*
Y5486400D02*
D03*
Y5386400D02*
D03*
X18702800D02*
D03*
Y5486400D02*
D03*
Y5586400D02*
D03*
X18802800D02*
D03*
Y5486400D02*
D03*
Y5386400D02*
D03*
X16424998Y2912198D02*
D03*
X16524998D02*
D03*
X16624998D02*
D03*
Y3012198D02*
D03*
X16524998D02*
D03*
X16424998D02*
D03*
Y3112198D02*
D03*
X16524998D02*
D03*
X16624998D02*
D03*
X16913200Y6046800D02*
D03*
Y6146800D02*
D03*
Y6246800D02*
D03*
X16813200D02*
D03*
Y6146800D02*
D03*
Y6046800D02*
D03*
X16713200D02*
D03*
Y6146800D02*
D03*
Y6246800D02*
D03*
D130*
X10693751Y7669184D02*
G03*
X10717535Y7645400I23784J0D01*
G01*
X10693751Y7696527D02*
G03*
X10679203Y7711074I-14547J0D01*
G01*
X10666734D02*
G03*
X10652186Y7696527I0J-14547D01*
G01*
X10637639Y7642070D02*
G03*
X10652186Y7656617I0J14547D01*
G01*
X10610622D02*
G03*
X10625170Y7642070I14547J0D01*
G01*
X10610622Y7696527D02*
G03*
X10596075Y7711074I-14547J0D01*
G01*
X10583605D02*
G03*
X10569058Y7696527I0J-14547D01*
G01*
X10545274Y7645400D02*
G03*
X10569058Y7669184I0J23784D01*
G01*
X10992130Y7769860D02*
G03*
X10968345Y7746076I0J-23784D01*
G01*
X10953798Y7731526D02*
G03*
X10968345Y7746073I0J14547D01*
G01*
X10926781D02*
G03*
X10941328Y7731526I14547J0D01*
G01*
X10926781Y7793658D02*
G03*
X10912234Y7808205I-14547J0D01*
G01*
X10899764D02*
G03*
X10885217Y7793658I0J-14547D01*
G01*
X10861432Y7769860D02*
G03*
X10885217Y7793644I0J23784D01*
G01*
X10265524Y7408024D02*
G03*
X10265524Y7374388I16818J-16818D01*
G01*
X10279347Y7339991D02*
G03*
X10279347Y7360564I-10287J10286D01*
G01*
X10249957Y7331174D02*
G03*
X10270530Y7331174I10286J10286D01*
G01*
X10236134Y7344998D02*
G03*
X10202498Y7344998I-16818J-16818D01*
G01*
X10089181Y7231681D02*
G03*
X10089181Y7198045I16818J-16818D01*
G01*
X10103005Y7163649D02*
G03*
X10103005Y7184222I-10287J10286D01*
G01*
X10073615Y7154832D02*
G03*
X10094188Y7154832I10286J10286D01*
G01*
X10059791Y7168655D02*
G03*
X10026155Y7168655I-16818J-16818D01*
G01*
X10525289Y6688908D02*
G03*
X10525289Y6655271I16818J-16818D01*
G01*
X10530317Y6693936D02*
G03*
X10530317Y6714509I-10286J10286D01*
G01*
X10521500Y6723326D02*
G03*
X10500927Y6723326I-10286J-10287D01*
G01*
X10462262Y6718298D02*
G03*
X10495898Y6718298I16818J16818D01*
G01*
X11028404Y6629124D02*
G03*
X11028404Y6595488I16818J-16818D01*
G01*
X11043233Y6560086D02*
G03*
X11043233Y6580659I-10287J10286D01*
G01*
X11013843Y6551269D02*
G03*
X11034416Y6551269I10286J10286D01*
G01*
X10955582Y6609530D02*
G03*
X10935009Y6609530I-10286J-10286D01*
G01*
X10926192Y6600712D02*
G03*
X10926192Y6580139I10286J-10286D01*
G01*
X10935988Y6536708D02*
G03*
X10935988Y6570344I-16818J16818D01*
G01*
X10886752Y6926267D02*
G03*
X10853116Y6926267I-16818J-16818D01*
G01*
X10803706Y6897430D02*
G03*
X10824279Y6897430I10286J10286D01*
G01*
X10794889Y6926821D02*
G03*
X10794889Y6906248I10287J-10286D01*
G01*
X10850374Y6982306D02*
G03*
X10850374Y7002879I-10286J10286D01*
G01*
X10841557Y7011696D02*
G03*
X10820984Y7011696I-10286J-10287D01*
G01*
X10705320Y6916606D02*
G03*
X10725893Y6916606I10286J10286D01*
G01*
X10696503Y6945996D02*
G03*
X10696503Y6925423I10287J-10286D01*
G01*
X10775209Y7024702D02*
G03*
X10775209Y7045275I-10286J10286D01*
G01*
X10766391Y7054092D02*
G03*
X10745818Y7054092I-10286J-10287D01*
G01*
X10645573Y6974420D02*
G03*
X10666146Y6974420I10286J10286D01*
G01*
X10636755Y7003810D02*
G03*
X10636755Y6983237I10287J-10286D01*
G01*
X10706164Y7073219D02*
G03*
X10706164Y7106855I-16818J16818D01*
G01*
X10206690Y7248206D02*
G03*
X10240326Y7248206I16818J16818D01*
G01*
X10203760Y7251136D02*
G03*
X10183187Y7251136I-10286J-10286D01*
G01*
X10174370Y7242319D02*
G03*
X10174370Y7221746I10286J-10286D01*
G01*
X10177299Y7185179D02*
G03*
X10177299Y7218816I-16818J16818D01*
G01*
X11428549Y6932567D02*
G03*
X11452333Y6908782I23784J0D01*
G01*
X11428549Y6983877D02*
G03*
X11414002Y6998424I-14547J0D01*
G01*
X11401532D02*
G03*
X11386985Y6983877I0J-14547D01*
G01*
X11363201Y6908782D02*
G03*
X11386985Y6932567I0J23784D01*
G01*
X10779885Y6362700D02*
G03*
X10756101Y6338916I0J-23784D01*
G01*
X10741554Y6284993D02*
G03*
X10756101Y6299541I0J14547D01*
G01*
X10714537D02*
G03*
X10729084Y6284993I14547J0D01*
G01*
X10714537Y6398434D02*
G03*
X10699989Y6412982I-14547J0D01*
G01*
X10687520D02*
G03*
X10672972Y6398434I0J-14547D01*
G01*
X10658425Y6262850D02*
G03*
X10672972Y6277397I0J14547D01*
G01*
X10631408D02*
G03*
X10645955Y6262850I14547J0D01*
G01*
X10631408Y6345658D02*
G03*
X10616861Y6360205I-14547J0D01*
G01*
X10604391D02*
G03*
X10589844Y6345658I0J-14547D01*
G01*
X10575296Y6262850D02*
G03*
X10589844Y6277397I0J14547D01*
G01*
X10548279D02*
G03*
X10562827Y6262850I14547J0D01*
G01*
X10548279Y6348117D02*
G03*
X10533732Y6362664I-14547J0D01*
G01*
X10521262D02*
G03*
X10506715Y6348117I0J-14547D01*
G01*
X10492168Y6262850D02*
G03*
X10506715Y6277397I0J14547D01*
G01*
X10465151D02*
G03*
X10479698Y6262850I14547J0D01*
G01*
X10465151Y6347459D02*
G03*
X10450603Y6362006I-14547J0D01*
G01*
X10438134D02*
G03*
X10423586Y6347459I0J-14547D01*
G01*
X10409039Y6262850D02*
G03*
X10423586Y6277397I0J14547D01*
G01*
X10382022D02*
G03*
X10396570Y6262850I14547J0D01*
G01*
X10382022Y6321136D02*
G03*
X10358238Y6344920I-23784J0D01*
G01*
X10321062Y6249324D02*
G03*
X10344846Y6225540I23784J0D01*
G01*
X10321062Y6276480D02*
G03*
X10306515Y6291027I-14547J0D01*
G01*
X10294045D02*
G03*
X10279498Y6276480I0J-14547D01*
G01*
X10255714Y6225540D02*
G03*
X10279498Y6249324I0J23784D01*
G01*
X10193517Y6260603D02*
G03*
X10159881Y6260603I-16818J-16818D01*
G01*
X10093734Y6215029D02*
G03*
X10114307Y6215029I10286J10286D01*
G01*
X10084917Y6244420D02*
G03*
X10084917Y6223847I10287J-10286D01*
G01*
X10180538Y6340041D02*
G03*
X10180538Y6360614I-10286J10286D01*
G01*
X10171721Y6369432D02*
G03*
X10151148Y6369431I-10286J-10287D01*
G01*
X10101100Y6353020D02*
G03*
X10134736Y6353020I16818J16818D01*
G01*
X10502127Y7555727D02*
G03*
X10502126Y7522090I16818J-16818D01*
G01*
X10564395Y7439249D02*
G03*
X10564395Y7459821I-10287J10286D01*
G01*
X10535005Y7430431D02*
G03*
X10555578Y7430431I10286J10286D01*
G01*
X10472736Y7492700D02*
G03*
X10439100Y7492700I-16818J-16818D01*
G01*
X11221296Y7543800D02*
G03*
X11197512Y7520016I0J-23784D01*
G01*
X11182964Y7479849D02*
G03*
X11197512Y7494396I0J14547D01*
G01*
X11155947D02*
G03*
X11170495Y7479849I14547J0D01*
G01*
X11155947Y7552903D02*
G03*
X11141400Y7567450I-14547J0D01*
G01*
X11128930D02*
G03*
X11114383Y7552903I0J-14547D01*
G01*
X11099836Y7483215D02*
G03*
X11114383Y7497762I0J14547D01*
G01*
X11072819D02*
G03*
X11087366Y7483215I14547J0D01*
G01*
X11072819Y7552903D02*
G03*
X11058272Y7567450I-14547J0D01*
G01*
X11045802D02*
G03*
X11031255Y7552903I0J-14547D01*
G01*
X11016707Y7483215D02*
G03*
X11031255Y7497762I0J14547D01*
G01*
X10989690D02*
G03*
X11004238Y7483215I14547J0D01*
G01*
X10989690Y7552903D02*
G03*
X10975143Y7567450I-14547J0D01*
G01*
X10962673D02*
G03*
X10948126Y7552903I0J-14547D01*
G01*
X10933579Y7483215D02*
G03*
X10948126Y7497762I0J14547D01*
G01*
X10906562D02*
G03*
X10921109Y7483215I14547J0D01*
G01*
X10906562Y7552903D02*
G03*
X10892014Y7567450I-14547J0D01*
G01*
X10879545D02*
G03*
X10864997Y7552903I0J-14547D01*
G01*
X10850450Y7479849D02*
G03*
X10864997Y7494396I0J14547D01*
G01*
X10823433D02*
G03*
X10837980Y7479849I14547J0D01*
G01*
X10823433Y7552903D02*
G03*
X10808886Y7567450I-14547J0D01*
G01*
X10796416D02*
G03*
X10781869Y7552903I0J-14547D01*
G01*
X10767321Y7479849D02*
G03*
X10781869Y7494396I0J14547D01*
G01*
X10740304D02*
G03*
X10754852Y7479849I14547J0D01*
G01*
X10740304Y7520016D02*
G03*
X10716520Y7543800I-23784J0D01*
G01*
X11176237Y7394734D02*
G03*
X11152453Y7370950I0J-23784D01*
G01*
X11137906Y7261251D02*
G03*
X11152453Y7275799I0J14547D01*
G01*
X11110889D02*
G03*
X11125436Y7261251I14547J0D01*
G01*
X11110889Y7431357D02*
G03*
X11096341Y7445904I-14547J0D01*
G01*
X11083872D02*
G03*
X11069324Y7431357I0J-14547D01*
G01*
X11054777Y7250950D02*
G03*
X11069324Y7265497I0J14547D01*
G01*
X11027760D02*
G03*
X11042307Y7250950I14547J0D01*
G01*
X11027760Y7431357D02*
G03*
X11013213Y7445904I-14547J0D01*
G01*
X11000743D02*
G03*
X10986196Y7431357I0J-14547D01*
G01*
X10971648Y7250950D02*
G03*
X10986196Y7265497I0J14547D01*
G01*
X10944631D02*
G03*
X10959179Y7250950I14547J0D01*
G01*
X10944631Y7431357D02*
G03*
X10930084Y7445904I-14547J0D01*
G01*
X10917614D02*
G03*
X10903067Y7431357I0J-14547D01*
G01*
X10895792Y7390592D02*
G03*
X10903067Y7408154I-17559J17561D01*
G01*
X10776509Y7211154D02*
G03*
X10776509Y7244791I-16818J16818D01*
G01*
X10755970Y7190615D02*
G03*
X10755970Y7170042I10287J-10286D01*
G01*
X10764787Y7161225D02*
G03*
X10785360Y7161225I10286J10286D01*
G01*
X10839536Y7181764D02*
G03*
X10805899Y7181764I-16818J-16818D01*
G01*
X8892588Y5778500D02*
X9309100D01*
X8892588Y6944360D02*
X9018619D01*
X9833244Y6920645D02*
X9873902Y6879987D01*
X9879328Y7135294D02*
Y7454824D01*
X9833244Y7089210D02*
X9879328Y7135294D01*
X9833244Y6920645D02*
Y7089210D01*
X8986520Y6225864D02*
X9118276Y6357620D01*
X8986520Y6172200D02*
Y6225864D01*
X9054372Y6484620D02*
X9398000D01*
X9026432Y6456680D02*
X9054372Y6484620D01*
X9024620Y6456680D02*
X9026432D01*
X9018619Y6944360D02*
X9044846Y6918133D01*
X9127047D02*
X9253238Y6791942D01*
X9044846Y6918133D02*
X9127047D01*
X9097357Y6955443D02*
X9267537D01*
X9004300Y7048500D02*
X9097357Y6955443D01*
X9004300Y7048500D02*
Y7162801D01*
X9253238Y6791942D02*
X9734513D01*
X9749771Y6807200D01*
X9888273D01*
X9911861Y6783612D01*
Y6733263D02*
Y6783612D01*
X9836714Y6622486D02*
X9881942D01*
X9935450Y6675993D02*
Y6709675D01*
X10074899Y6684605D02*
Y6728517D01*
X9881942Y6622486D02*
X9935450Y6675993D01*
X10010069Y6692024D02*
Y6740583D01*
X9997954Y6752699D02*
X10010069Y6740583D01*
X10043077Y6760339D02*
X10074899Y6728517D01*
X9997954Y6752699D02*
Y6859059D01*
X10074899Y6684605D02*
X10076092Y6683412D01*
X9972759Y6676570D02*
X10048684Y6600645D01*
X10010069Y6692024D02*
X10064138Y6637955D01*
X9955023Y6742865D02*
X9972759Y6725129D01*
X10043077Y6760339D02*
Y6796952D01*
X9911861Y6733263D02*
X9935450Y6709675D01*
X9955023Y6742865D02*
Y6822992D01*
X9972759Y6676570D02*
Y6725129D01*
X9791700Y6667500D02*
X9836714Y6622486D01*
X9916638Y6861377D02*
Y7154703D01*
Y6861377D02*
X9955023Y6822992D01*
X9267537Y6955443D02*
X9385300Y6837680D01*
X9520238D01*
X9449646Y6924395D02*
X9675572D01*
X9182100Y7112000D02*
X9409083Y6885018D01*
X9334500Y7039541D02*
X9449646Y6924395D01*
X9409083Y6885018D02*
X9482448D01*
X9520238Y6837680D02*
X9561229Y6878671D01*
X9498027Y7176733D02*
Y7519973D01*
Y7176733D02*
X9511960Y7162800D01*
X9916638Y7154703D02*
X10531795Y7769860D01*
X10849539D01*
X9626600Y7416800D02*
Y7505700D01*
X9593275Y7006691D02*
Y7383475D01*
X9626600Y7416800D01*
X9588500Y7543800D02*
X9626600Y7505700D01*
X9674860Y7005482D02*
X9720355Y6959987D01*
X9674860Y7185660D02*
X9702800Y7213600D01*
X9674860Y7005482D02*
Y7185660D01*
X9593275Y7006691D02*
X9634914Y6965052D01*
X9182100Y7112000D02*
Y7480300D01*
X9004300Y7451451D02*
X9073548Y7382202D01*
Y7102802D02*
Y7382202D01*
Y7102802D02*
X9153251Y7023100D01*
X9093200Y6197600D02*
Y6252519D01*
X9994900Y6434907D02*
X10039980Y6479987D01*
X11042030Y6872562D02*
Y6962790D01*
X11031220Y6861752D02*
X11042030Y6872562D01*
X11031220Y6859940D02*
Y6861752D01*
X9093200Y6252519D02*
X9139881Y6299200D01*
X9474200Y7543800D02*
X9498027Y7519973D01*
X9511960Y7013073D02*
Y7162800D01*
X9701519Y7494259D02*
X9702800Y7492978D01*
Y7213600D02*
Y7492978D01*
X9525802Y6679398D02*
X9563100Y6642100D01*
X9004300Y7451451D02*
Y7505700D01*
X10767466Y7645400D02*
X11328382D01*
X10717535D02*
X10767466D01*
X10693751Y7669184D02*
Y7696527D01*
X10666734Y7711074D02*
X10679203D01*
X10652186Y7656617D02*
Y7696527D01*
X10625170Y7642070D02*
X10637639D01*
X10610622Y7656617D02*
Y7696527D01*
X10583605Y7711074D02*
X10596075D01*
X10569058Y7669184D02*
Y7696527D01*
X10533380Y7645400D02*
X10545274D01*
X11038840Y7744460D02*
X11180812D01*
X11013440Y7769860D02*
X11038840Y7744460D01*
X10992130Y7769860D02*
X11013440D01*
X10968345Y7746073D02*
Y7746076D01*
X10941328Y7731526D02*
X10953798D01*
X10926781Y7746073D02*
Y7793658D01*
X10899764Y7808205D02*
X10912234D01*
X10885217Y7793644D02*
Y7793658D01*
X10849539Y7769860D02*
X10861432D01*
X11180812Y7744460D02*
X11203940D01*
X10502900Y7645400D02*
X10533380D01*
X10318665Y7461165D02*
X10502900Y7645400D01*
X11203940Y7744460D02*
X11252200Y7696200D01*
X10039980Y6559987D02*
X10081260Y6518707D01*
X10261481Y6559987D02*
X10262789Y6558679D01*
X10301214D01*
X10345483Y6567173D02*
X10358701D01*
X10081260Y6372860D02*
Y6518707D01*
X10358701Y6567173D02*
X10359982Y6565892D01*
X10048684Y6600645D02*
X10312012D01*
X10199980Y6559987D02*
X10261481D01*
X10312012Y6600645D02*
X10345483Y6567173D01*
X9153251Y7023100D02*
X9194800D01*
X9675572Y6924395D02*
X9719979Y6879987D01*
X9309100Y5778500D02*
X9878060Y6347460D01*
Y6398260D01*
X9701519Y7494259D02*
Y7542519D01*
X9702800Y7543800D01*
X9359900Y7493000D02*
Y7543800D01*
Y7493000D02*
X9436100Y7416800D01*
Y7062868D02*
Y7416800D01*
X9139881Y6299200D02*
X9539193D01*
X9098262Y6443962D02*
X9414841D01*
X9029700Y6527800D02*
X9359900D01*
X8890000Y6565900D02*
X9006858Y6682758D01*
X9503741D02*
X9507100Y6679398D01*
X9525802D01*
X9006858Y6682758D02*
X9503741D01*
X9390769Y6558669D02*
X9478377D01*
X9563065Y6564378D02*
X9563100D01*
X9516699Y6518011D02*
X9563065Y6564378D01*
X9452590Y6518011D02*
X9516699D01*
X9561229Y6878671D02*
X9639979D01*
X9879328Y7454824D02*
X9931400Y7506896D01*
X10007600Y6868705D02*
Y7070338D01*
X9988355Y7089583D02*
X10007600Y7070338D01*
X9997954Y6859059D02*
X10007600Y6868705D01*
X9988355Y7089583D02*
Y7130855D01*
X10265524Y7408024D02*
X10318665Y7461165D01*
X10265524Y7374388D02*
X10279347Y7360564D01*
X10279347Y7360564D02*
X10279347Y7360564D01*
X10270530Y7331174D02*
X10279347Y7339991D01*
X10249957Y7331174D02*
X10249957Y7331174D01*
X10236134Y7344998D02*
X10249957Y7331174D01*
X10236133Y7344997D02*
X10236134Y7344998D01*
X10089181Y7231681D02*
X10202498Y7344998D01*
X10089181Y7198045D02*
X10103005Y7184222D01*
X10103005Y7184222D02*
X10103005Y7184222D01*
X10094188Y7154832D02*
X10103005Y7163649D01*
X10073614Y7154831D02*
X10073615Y7154832D01*
X10059791Y7168655D02*
X10073615Y7154832D01*
X10059791Y7168655D02*
X10059791Y7168655D01*
X9988355Y7130855D02*
X10026155Y7168655D01*
X9334500Y7039541D02*
Y7124700D01*
X10064138Y6637955D02*
X10369576D01*
X9414841Y6443962D02*
X9438658Y6467779D01*
Y6504079D01*
X9452590Y6518011D01*
X9478698Y6449606D02*
Y6476073D01*
X9448800Y6383020D02*
Y6419708D01*
X9478698Y6476073D02*
X9479979Y6477354D01*
X9448800Y6419708D02*
X9478698Y6449606D01*
X9359900Y6527800D02*
X9390769Y6558669D01*
X9245600Y7213600D02*
Y7518400D01*
Y7213600D02*
X9334500Y7124700D01*
X9482448Y6885018D02*
X9483729Y6883737D01*
X9430644Y7023730D02*
X9436100Y7018274D01*
X9430644Y7057412D02*
X9436100Y7062868D01*
X9430644Y7023730D02*
Y7057412D01*
X9436100Y7008932D02*
Y7018274D01*
Y7008932D02*
X9479980Y6965052D01*
X9511960Y7013073D02*
X9559980Y6965052D01*
X9118276Y6357620D02*
X9423400D01*
X9448800Y6383020D01*
X9539193Y6299200D02*
X9600638Y6360645D01*
Y6416236D01*
X9601200Y6416798D01*
Y6438900D01*
X9639300Y6477000D01*
X10083833Y6778660D02*
X10180115Y6682377D01*
X10139680Y6893555D02*
X10182795D01*
X10043077Y6796952D02*
X10139680Y6893555D01*
X10721239Y6847835D02*
X10871205D01*
X10932160Y6786880D02*
X11021060D01*
X10871205Y6847835D02*
X10932160Y6786880D01*
X10991839Y6828819D02*
X10993120Y6827538D01*
X10935970Y6877050D02*
X10984201Y6828819D01*
X10991839D01*
X11021060Y6786880D02*
X11091388Y6857208D01*
Y7035085D01*
X11541660Y7256163D02*
X11541666D01*
X11639456Y7260596D02*
X11639544D01*
X10182795Y6893555D02*
X10261535Y6972295D01*
X10594846D01*
X10634296Y6932844D01*
X11353123Y7296820D02*
X11603232D01*
X11639456Y7260596D01*
X11091388Y7035085D02*
X11353123Y7296820D01*
X10634296Y6932844D02*
X10636230D01*
X10721239Y6847835D01*
X11541666Y7256163D02*
X11607088Y7190740D01*
X11661477D01*
X10195560Y6972300D02*
X10238740Y7015480D01*
X11561415Y6908782D02*
X11701780Y7049147D01*
Y7150437D01*
X11556801Y6908782D02*
X11561415D01*
X10858500Y7241281D02*
Y7353300D01*
X10857359Y7240140D02*
X10858500Y7241281D01*
X9772725Y6335602D02*
Y6369125D01*
X9745980Y6308857D02*
X9772725Y6335602D01*
X9745980Y6307045D02*
Y6308857D01*
X9772725Y6369125D02*
X9799320Y6395720D01*
X10570035Y6610525D02*
X10731674D01*
X10551660Y6628900D02*
X10560069Y6620491D01*
X10525289Y6655271D02*
X10551660Y6628900D01*
X10525289Y6688908D02*
X10530317Y6693936D01*
X10521500Y6723326D02*
X10530317Y6714509D01*
X10495898Y6718298D02*
X10500927Y6723326D01*
X10462262Y6718297D02*
X10462262Y6718298D01*
X10462261Y6718299D02*
X10462262Y6718298D01*
X10454640Y6725920D02*
X10462261Y6718299D01*
X10453064Y6725920D02*
X10454640D01*
X10560069Y6620491D02*
X10570035Y6610525D01*
X10314940Y6725920D02*
X10453064D01*
X10991812Y6450292D02*
X11109960Y6568440D01*
Y6619240D02*
X11292840Y6802120D01*
X11109960Y6568440D02*
Y6619240D01*
X10824034Y6518165D02*
X10917445D01*
X11028404Y6629124D02*
X11059394Y6660114D01*
X11028404Y6595488D02*
X11028404Y6595488D01*
X11043233Y6580659D01*
X11034416Y6551269D02*
X11043233Y6560086D01*
X10955582Y6609530D02*
X11013843Y6551269D01*
X10955582Y6609530D02*
X10955582Y6609530D01*
X10926192Y6600712D02*
X10935009Y6609530D01*
X10926192Y6580139D02*
X10926192Y6580139D01*
X10935988Y6570344D01*
X10935987Y6570343D02*
X10935988Y6570344D01*
X10927578Y6528298D02*
X10935988Y6536708D01*
X10917445Y6518165D02*
X10927578Y6528298D01*
X11059394Y6660114D02*
X11229340Y6830060D01*
Y6870700D02*
X11336020Y6977380D01*
X11229340Y6830060D02*
Y6870700D01*
X11292840Y6802120D02*
Y6865620D01*
X11336002Y6908782D01*
X11336020Y6977380D02*
Y7005320D01*
X11315700Y7025640D02*
X11336020Y7005320D01*
X11280092Y7025640D02*
X11315700D01*
X11236912Y6982460D02*
X11280092Y7025640D01*
X11305095Y6514655D02*
Y6707695D01*
X11344009Y6746609D02*
Y6844019D01*
X11305095Y6707695D02*
X11344009Y6746609D01*
Y6844019D02*
X11345290Y6845300D01*
X10927561Y6885459D02*
X10935970Y6877050D01*
X10886752Y6926267D02*
X10927561Y6885459D01*
X10886752Y6926267D02*
X10886752Y6926267D01*
X10824279Y6897430D02*
X10853116Y6926267D01*
X10803706Y6897430D02*
X10803706Y6897430D01*
X10794889Y6906248D02*
X10803706Y6897430D01*
X10794889Y6906248D02*
X10794889Y6906248D01*
Y6926821D02*
X10850374Y6982306D01*
X10841557Y7011696D02*
X10850374Y7002879D01*
X10820984Y7011696D02*
Y7011696D01*
X10725893Y6916606D02*
X10820984Y7011696D01*
X10705320Y6916606D02*
X10705320Y6916606D01*
X10696503Y6925423D02*
X10705320Y6916606D01*
X10696503Y6925423D02*
X10696503Y6925423D01*
Y6945996D02*
Y6945996D01*
X10775209Y7024702D01*
X10766391Y7054092D02*
X10775209Y7045275D01*
X10745818Y7054092D02*
Y7054092D01*
X10666146Y6974420D02*
X10745818Y7054092D01*
X10645573Y6974420D02*
X10645573Y6974420D01*
X10636755Y6983237D02*
X10645573Y6974420D01*
X10636755Y6983237D02*
X10636755Y6983237D01*
Y7003810D02*
Y7003810D01*
X10706164Y7073219D01*
X10706164Y7106855D02*
X10706164Y7106855D01*
X10676773Y7136247D02*
X10706164Y7106855D01*
X10668364Y7144656D02*
X10676773Y7136247D01*
X10619740Y7193280D02*
X10668364Y7144656D01*
X10284460Y7193280D02*
X10619740D01*
X10602805Y7270443D02*
X10813955Y7059292D01*
X10867721D01*
X10401300Y7270443D02*
X10602805D01*
X10561320Y7084060D02*
X10607040Y7129780D01*
X10476113Y7084060D02*
X10561320D01*
X10867721Y7059292D02*
X10907410Y7098982D01*
X11336002Y6908782D02*
X11351307D01*
X10240326Y7248206D02*
X10304780Y7312660D01*
X10203760Y7251136D02*
X10206690Y7248206D01*
X10174370Y7242319D02*
X10183187Y7251136D01*
X10174369Y7221746D02*
X10177299Y7218816D01*
X10177299Y7218816D02*
X10177299Y7218816D01*
X10168890Y7176770D02*
X10177299Y7185179D01*
X10119980Y7127860D02*
X10168890Y7176770D01*
X10359083Y7312660D02*
X10401300Y7270443D01*
X10304780Y7312660D02*
X10359083D01*
X10238740Y7015480D02*
Y7147560D01*
X10284460Y7193280D01*
X10119980Y7039985D02*
Y7127860D01*
X10432010Y7039957D02*
X10476113Y7084060D01*
X10388600Y7353300D02*
X10434148Y7307753D01*
X10388600Y7353300D02*
Y7442200D01*
X10434148Y7307753D02*
X10713547D01*
X10850880Y7099950D02*
Y7166129D01*
X10957194Y7086026D02*
X11038469Y7167301D01*
X10957194Y7047627D02*
Y7086026D01*
X10993128Y7213640D02*
X11020827D01*
X11038469Y7167301D02*
Y7195998D01*
X10957194Y7047627D02*
X11042030Y6962790D01*
X10907410Y7127922D02*
X10993128Y7213640D01*
X10713547Y7307753D02*
X10731500Y7289800D01*
X10907410Y7098982D02*
Y7127922D01*
X11020827Y7213640D02*
X11038469Y7195998D01*
X10845800Y7171209D02*
X10850880Y7166129D01*
X11452333Y6908782D02*
X11556801D01*
X11428549Y6932567D02*
Y6983877D01*
X11401532Y6998424D02*
X11414002D01*
X11386985Y6932567D02*
Y6983877D01*
X11351307Y6908782D02*
X11363201D01*
X11661477Y7190740D02*
X11701780Y7150437D01*
X10640060Y6570980D02*
X10703560Y6507480D01*
X10528300Y6570980D02*
X10640060D01*
X10416903Y6682377D02*
X10528300Y6570980D01*
X10703560Y6507480D02*
X10777220D01*
X10251440Y6789420D02*
X10314940Y6725920D01*
X10180115Y6682377D02*
X10416903D01*
X10731674Y6610525D02*
X10824034Y6518165D01*
X10369576Y6637955D02*
X10442235Y6565295D01*
X10779885Y6362700D02*
X10837514D01*
X10756101Y6299541D02*
Y6338916D01*
X10729084Y6284993D02*
X10741554D01*
X10714537Y6299541D02*
Y6398434D01*
X10687520Y6412982D02*
X10699989D01*
X10672972Y6277397D02*
Y6398434D01*
X10645955Y6262850D02*
X10658425D01*
X10631408Y6277397D02*
Y6345658D01*
X10604391Y6360205D02*
X10616861D01*
X10589844Y6277397D02*
Y6345658D01*
X10562827Y6262850D02*
X10575296D01*
X10548279Y6277397D02*
Y6348117D01*
X10521262Y6362664D02*
X10533732D01*
X10506715Y6277397D02*
Y6348117D01*
X10479698Y6262850D02*
X10492168D01*
X10465151Y6277397D02*
Y6347459D01*
X10438134Y6362006D02*
X10450603D01*
X10423586Y6277397D02*
Y6347459D01*
X10396570Y6262850D02*
X10409039D01*
X10382022Y6277397D02*
Y6321136D01*
X10304780Y6344920D02*
X10358238D01*
X10837514Y6362700D02*
X11003280D01*
X10271760Y6344920D02*
X10304780D01*
X10344846Y6225540D02*
X10403840D01*
X10321062Y6249324D02*
Y6276480D01*
X10294045Y6291027D02*
X10306515D01*
X10279498Y6249324D02*
Y6276480D01*
X10243820Y6225540D02*
X10255714D01*
X10403840D02*
X11015980D01*
X10228580D02*
X10243820D01*
X10227791Y6226329D02*
X10228580Y6225540D01*
X10193517Y6260603D02*
X10227791Y6226329D01*
X10193517Y6260603D02*
X10193517Y6260603D01*
X10114307Y6215029D02*
X10159881Y6260603D01*
X10093734Y6215029D02*
X10093734Y6215029D01*
X10084917Y6223847D02*
X10093734Y6215029D01*
X10084917Y6223847D02*
X10084917Y6223847D01*
Y6244420D02*
Y6244420D01*
X10180538Y6340041D01*
X10171721Y6369432D02*
X10180538Y6360614D01*
X10151148Y6369431D02*
Y6369432D01*
X10134736Y6353020D02*
X10151148Y6369432D01*
X10101099Y6353021D02*
X10101100Y6353020D01*
X10092690Y6361430D02*
X10101099Y6353021D01*
X10081260Y6372860D02*
X10092690Y6361430D01*
X10236645Y6380035D02*
X10271760Y6344920D01*
X11015980Y6225540D02*
X11305095Y6514655D01*
X10236645Y6380035D02*
Y6443322D01*
X10152380Y6103620D02*
X11140440D01*
X11399977Y6363157D01*
X9994900Y6261100D02*
X10152380Y6103620D01*
X9994900Y6261100D02*
Y6434907D01*
X11399977Y6363157D02*
Y6799987D01*
X11163184Y6522604D02*
Y6573404D01*
X11163300Y6573520D01*
X11003280Y6362700D02*
X11163184Y6522604D01*
X10692131Y6450292D02*
X10991812D01*
X10618435Y6523987D02*
X10692131Y6450292D01*
X10473955Y6523987D02*
X10618435D01*
X10301214Y6558679D02*
X10336563Y6523329D01*
X10473297D01*
X10473955Y6523987D01*
X9799320Y6395720D02*
Y6479540D01*
X10502127Y7555727D02*
X10536184Y7589784D01*
X10502126Y7522090D02*
X10564395Y7459821D01*
X10555578Y7430431D02*
X10564395Y7439249D01*
X10472736Y7492700D02*
X10535005Y7430431D01*
X10472736Y7492700D02*
X10472736Y7492700D01*
X10401300Y7454900D02*
X10439100Y7492700D01*
X10536184Y7589784D02*
X10551160Y7604760D01*
X11395205D01*
X10629900Y7505700D02*
X10663062Y7538862D01*
X11221296Y7543800D02*
X11275072D01*
X11197512Y7494396D02*
Y7520016D01*
X11170495Y7479849D02*
X11182964D01*
X11155947Y7494396D02*
Y7552903D01*
X11128930Y7567450D02*
X11141400D01*
X11114383Y7497762D02*
Y7552903D01*
X11087366Y7483215D02*
X11099836D01*
X11072819Y7497762D02*
Y7552903D01*
X11045802Y7567450D02*
X11058272D01*
X11031255Y7497762D02*
Y7552903D01*
X11004238Y7483215D02*
X11016707D01*
X10989690Y7497762D02*
Y7552903D01*
X10962673Y7567450D02*
X10975143D01*
X10948126Y7497762D02*
Y7552903D01*
X10921109Y7483215D02*
X10933579D01*
X10906562Y7497762D02*
Y7552903D01*
X10879545Y7567450D02*
X10892014D01*
X10864997Y7494396D02*
Y7552903D01*
X10837980Y7479849D02*
X10850450D01*
X10823433Y7494396D02*
Y7552903D01*
X10796416Y7567450D02*
X10808886D01*
X10781869Y7494396D02*
Y7552903D01*
X10754852Y7479849D02*
X10767321D01*
X10740304Y7494396D02*
Y7520016D01*
X10668000Y7543800D02*
X10716520D01*
X10663062Y7538862D02*
X10668000Y7543800D01*
X11275072D02*
X11353800D01*
X10199980Y6479987D02*
X10236645Y6443322D01*
X11328382Y7645400D02*
X11328400Y7645418D01*
X11395205Y7604760D02*
X11549978Y7449986D01*
X11176237Y7394734D02*
X11226763D01*
X11152453Y7275799D02*
Y7370950D01*
X11125436Y7261251D02*
X11137906D01*
X11110889Y7275799D02*
Y7431357D01*
X11083872Y7445904D02*
X11096341D01*
X11069324Y7265497D02*
Y7431357D01*
X11042307Y7250950D02*
X11054777D01*
X11027760Y7265497D02*
Y7431357D01*
X11000743Y7445904D02*
X11013213D01*
X10986196Y7265497D02*
Y7431357D01*
X10959179Y7250950D02*
X10971648D01*
X10944631Y7265497D02*
Y7431357D01*
X10917614Y7445904D02*
X10930084D01*
X10903067Y7408154D02*
Y7431357D01*
X10883900Y7378700D02*
X10895792Y7390592D01*
X10858500Y7353300D02*
X10883900Y7378700D01*
X10750550Y7359650D02*
X10806419Y7303781D01*
X10629900Y7404100D02*
Y7505700D01*
Y7404100D02*
X10674350Y7359650D01*
X10750550D01*
X10388600Y7442200D02*
X10401300Y7454900D01*
X11328400Y7404100D02*
X11366500D01*
X11391900Y7429500D02*
Y7505700D01*
X11366500Y7404100D02*
X11391900Y7429500D01*
X11303000D02*
Y7454900D01*
Y7429500D02*
X11328400Y7404100D01*
X11353800Y7543800D02*
X11391900Y7505700D01*
X10731500Y7289800D02*
X10739909Y7281391D01*
X10776509Y7244791D01*
X10776509Y7244790D02*
X10776509Y7244791D01*
X10755970Y7190615D02*
X10776509Y7211154D01*
X10755970Y7190615D02*
Y7190615D01*
X10755970Y7170042D02*
X10755970Y7170042D01*
X10764787Y7161225D01*
X10764787Y7161225D02*
X10764787Y7161225D01*
X10785360D02*
X10805899Y7181764D01*
X10839535Y7181764D02*
X10839536Y7181764D01*
X10839536Y7181763D01*
Y7181764D02*
X10845800Y7175500D01*
Y7171209D02*
Y7175500D01*
X11399977Y6799987D02*
X11445290Y6845300D01*
D131*
X10526487Y6895595D02*
G03*
X10537477Y6869143I37329J0D01*
G01*
X10526487Y6900279D02*
G03*
X10515954Y6910812I-10533J0D01*
G01*
X10506925D02*
G03*
X10496392Y6900279I0J-10533D01*
G01*
X10460845Y6838472D02*
G03*
X10496392Y6874019I0J35547D01*
G01*
X10416269D02*
G03*
X10451816Y6838472I35547J0D01*
G01*
X10416269Y6905173D02*
G03*
X10405736Y6915705I-10533J0D01*
G01*
X10396707D02*
G03*
X10386175Y6905173I0J-10533D01*
G01*
X10348846Y6867451D02*
G03*
X10386175Y6904779I0J37329D01*
G01*
X10551501Y6895595D02*
G03*
X10555108Y6886888I12314J0D01*
G01*
X10551501Y6900279D02*
G03*
X10515954Y6935826I-35547J0D01*
G01*
X10506925D02*
G03*
X10471378Y6900279I0J-35547D01*
G01*
X10460845Y6863486D02*
G03*
X10471378Y6874019I0J10533D01*
G01*
X10441283D02*
G03*
X10451816Y6863486I10533J0D01*
G01*
X10441283Y6905173D02*
G03*
X10405736Y6940720I-35547J0D01*
G01*
X10396707D02*
G03*
X10361160Y6905173I0J-35547D01*
G01*
X10348846Y6892465D02*
G03*
X10361160Y6904779I0J12314D01*
G01*
X10875623Y6742219D02*
G03*
X10887938Y6729905I12314J0D01*
G01*
X10875623Y6767558D02*
G03*
X10840076Y6803105I-35547J0D01*
G01*
X10831047D02*
G03*
X10795500Y6767558I0J-35547D01*
G01*
X10783186Y6729905D02*
G03*
X10795500Y6742219I0J12314D01*
G01*
X11407742Y7169627D02*
G03*
X11420056Y7157312I12314J0D01*
G01*
X11407742Y7198365D02*
G03*
X11372195Y7233912I-35547J0D01*
G01*
X11363166D02*
G03*
X11327619Y7198365I0J-35547D01*
G01*
X11315305Y7157312D02*
G03*
X11327619Y7169627I0J12314D01*
G01*
X10709400Y6790149D02*
G03*
X10709400Y6805045I-7448J7448D01*
G01*
X10703015Y6811429D02*
G03*
X10688120Y6811429I-7448J-7448D01*
G01*
X10705933Y6786682D02*
G03*
X10705933Y6769267I8708J-8708D01*
G01*
X10667238Y6807962D02*
G03*
X10684653Y6807962I8708J8708D01*
G01*
X10850609Y6742219D02*
G03*
X10887938Y6704891I37329J0D01*
G01*
X10850609Y6767558D02*
G03*
X10840076Y6778091I-10533J0D01*
G01*
X10831047D02*
G03*
X10820515Y6767558I0J-10533D01*
G01*
X10783186Y6704891D02*
G03*
X10820515Y6742219I0J37329D01*
G01*
X11382728Y7169627D02*
G03*
X11420056Y7132298I37329J0D01*
G01*
X11382728Y7198365D02*
G03*
X11372195Y7208898I-10533J0D01*
G01*
X11363166D02*
G03*
X11352633Y7198365I0J-10533D01*
G01*
X11315305Y7132298D02*
G03*
X11352633Y7169627I0J37329D01*
G01*
X11680714Y7854626D02*
G03*
X11689422Y7851019I8707J8708D01*
G01*
X11724971Y7815472D02*
G03*
X11689424Y7851019I-35547J0D01*
G01*
Y7770896D02*
G03*
X11724971Y7806444I0J35547D01*
G01*
X11658405Y7770896D02*
G03*
X11647872Y7760363I0J-10533D01*
G01*
Y7751335D02*
G03*
X11658405Y7740802I10533J0D01*
G01*
X11726245Y7705255D02*
G03*
X11690698Y7740802I-35547J0D01*
G01*
Y7660679D02*
G03*
X11726245Y7696226I0J35547D01*
G01*
X11644252Y7660679D02*
G03*
X11633719Y7650146I0J-10533D01*
G01*
Y7641118D02*
G03*
X11644252Y7630585I10533J0D01*
G01*
X11722673Y7595038D02*
G03*
X11687126Y7630585I-35547J0D01*
G01*
Y7550462D02*
G03*
X11722673Y7586009I0J35547D01*
G01*
X11624149Y7550462D02*
G03*
X11613616Y7539929I0J-10533D01*
G01*
Y7530901D02*
G03*
X11624149Y7520368I10533J0D01*
G01*
X11670914Y7483039D02*
G03*
X11633586Y7520368I-37329J0D01*
G01*
X11662970Y7836995D02*
G03*
X11689422Y7826005I26452J26339D01*
G01*
X11699957Y7815472D02*
G03*
X11689424Y7826005I-10533J0D01*
G01*
Y7795911D02*
G03*
X11699957Y7806444I0J10533D01*
G01*
X11658405Y7795911D02*
G03*
X11622857Y7760363I0J-35547D01*
G01*
Y7751335D02*
G03*
X11658405Y7715788I35547J0D01*
G01*
X11701231Y7705255D02*
G03*
X11690698Y7715788I-10533J0D01*
G01*
Y7685694D02*
G03*
X11701231Y7696226I0J10533D01*
G01*
X11644252Y7685694D02*
G03*
X11608704Y7650146I0J-35547D01*
G01*
Y7641118D02*
G03*
X11644252Y7605571I35547J0D01*
G01*
X11697659Y7595038D02*
G03*
X11687126Y7605571I-10533J0D01*
G01*
Y7575476D02*
G03*
X11697659Y7586009I0J10533D01*
G01*
X11624149Y7575476D02*
G03*
X11588602Y7539929I0J-35547D01*
G01*
Y7530901D02*
G03*
X11624149Y7495353I35547J0D01*
G01*
X11645900Y7483039D02*
G03*
X11633586Y7495353I-12314J0D01*
G01*
X11512485Y7790963D02*
G03*
X11524799Y7778649I12314J0D01*
G01*
X11561756Y7768116D02*
G03*
X11551223Y7778649I-10533J0D01*
G01*
Y7748554D02*
G03*
X11561756Y7759087I0J10533D01*
G01*
X11524799Y7748554D02*
G03*
X11512485Y7736240I0J-12314D01*
G01*
X9733464Y6746240D02*
X9762849Y6775625D01*
X9818071Y6750611D02*
X9848008Y6720674D01*
X9207299Y6721226D02*
X9743826D01*
X9762849Y6775625D02*
X9828432D01*
X9743826Y6721226D02*
X9773211Y6750611D01*
X9818071D01*
X9828432Y6775625D02*
X9873023Y6731035D01*
X9217660Y6746240D02*
X9733464D01*
X9848008Y6710472D02*
Y6720674D01*
X9890661Y6692834D02*
X9894792D01*
X9831155Y6694767D02*
X9839646Y6703259D01*
X9840794D01*
X9873023Y6710472D02*
Y6731035D01*
X9840794Y6703259D02*
X9848008Y6710472D01*
X9873023D02*
X9890661Y6692834D01*
X9826239Y6694767D02*
X9831155D01*
X9086842Y6841683D02*
X9207299Y6721226D01*
X9097203Y6866697D02*
X9217660Y6746240D01*
X9038783Y6841683D02*
X9086842D01*
X9038783Y6866697D02*
X9097203D01*
X10847488Y6583845D02*
Y6612347D01*
X10403505Y6808492D02*
X10418474Y6793523D01*
X10356581Y6808492D02*
X10403505D01*
X10418474Y6793523D02*
X10516325D01*
X10349367Y6801278D02*
X10356581Y6808492D01*
X10349367Y6791077D02*
Y6801278D01*
X10667365Y6642483D02*
X10817353D01*
X10516325Y6793523D02*
X10667365Y6642483D01*
X10817353D02*
X10847488Y6612347D01*
X10846853Y6583210D02*
X10847488Y6583845D01*
X10413866Y6833506D02*
X10428835Y6818537D01*
X10346219Y6833506D02*
X10413866D01*
X10329932Y6817219D02*
X10346219Y6833506D01*
X10428835Y6818537D02*
X10526686D01*
X10319731Y6817219D02*
X10329932D01*
X10895965Y6630035D02*
X10896600Y6629400D01*
X10865176Y6630035D02*
X10895965D01*
X10677726Y6667497D02*
X10827714D01*
X10526686Y6818537D02*
X10677726Y6667497D01*
X10827714D02*
X10865176Y6630035D01*
X9017000Y6888480D02*
X9038783Y6866697D01*
X9017000Y6819900D02*
X9038783Y6841683D01*
X10637704Y6802120D02*
X10642600Y6797224D01*
X10604500Y6802120D02*
X10637704D01*
X10537477Y6869143D02*
X10604500Y6802120D01*
X10526487Y6895595D02*
Y6900279D01*
X10506925Y6910812D02*
X10515954D01*
X10496392Y6874019D02*
Y6900279D01*
X10451816Y6838472D02*
X10460845D01*
X10416269Y6874019D02*
Y6905173D01*
X10396707Y6915705D02*
X10405736D01*
X10386175Y6904779D02*
Y6905173D01*
X10330180Y6867451D02*
X10348846D01*
X10614861Y6827134D02*
X10642600D01*
X10555108Y6886888D02*
X10614861Y6827134D01*
X10551501Y6895595D02*
Y6900279D01*
X10506925Y6935826D02*
X10515954D01*
X10471378Y6874019D02*
Y6900279D01*
X10451816Y6863486D02*
X10460845D01*
X10441283Y6874019D02*
Y6905173D01*
X10396707Y6940720D02*
X10405736D01*
X10361160Y6904779D02*
Y6905173D01*
X10330180Y6892465D02*
X10348846D01*
X10642600Y6797224D02*
X10734934Y6704891D01*
X10280083Y6867451D02*
X10330180D01*
X10642600Y6827134D02*
X10648066D01*
X10269721Y6892465D02*
X10330180D01*
X11445017Y7157312D02*
X11465739D01*
X11512485Y7110566D01*
Y7075105D02*
Y7110566D01*
X11487471Y7057200D02*
Y7100205D01*
X11455378Y7132298D02*
X11487471Y7100205D01*
X11512485Y7057200D02*
Y7067778D01*
X11549978Y7049986D02*
X11549978Y7049986D01*
X11512485Y7057200D02*
X11519699Y7049986D01*
X11549978D01*
X10887938Y6729905D02*
X10949940D01*
X10875623Y6742219D02*
Y6767558D01*
X10831047Y6803105D02*
X10840076D01*
X10795500Y6742219D02*
Y6767558D01*
X10764520Y6729905D02*
X10783186D01*
X10949940D02*
X11043009D01*
X10745295D02*
X10764520D01*
X11407742Y7169627D02*
Y7198365D01*
X11420056Y7157312D02*
X11445017D01*
X11363166Y7233912D02*
X11372195D01*
X11327619Y7169627D02*
Y7198365D01*
X11296639Y7157312D02*
X11315305D01*
X11287537D02*
X11296639D01*
X11150986Y7020761D02*
X11287537Y7157312D01*
X11150986Y6837881D02*
Y7020761D01*
X11043009Y6729905D02*
X11150986Y6837881D01*
X10729813Y6745387D02*
X10745295Y6729905D01*
X10211898Y6834641D02*
X10269721Y6892465D01*
X10185381Y6843350D02*
X10194090Y6834641D01*
X10211898D01*
X10180466Y6843350D02*
X10185381D01*
X10705933Y6786682D02*
X10709400Y6790149D01*
X10703015Y6811429D02*
X10709400Y6805045D01*
X10705933Y6769267D02*
X10725460Y6749740D01*
X10729813Y6745386D01*
X10688120Y6811429D02*
Y6811429D01*
X10662883Y6812317D02*
X10667237Y6807963D01*
X10648066Y6827134D02*
X10662883Y6812317D01*
X10684653Y6807962D02*
X10688120Y6811429D01*
X10667237Y6807963D02*
X10667238Y6807962D01*
X11449977Y7049986D02*
X11480257D01*
X11487471Y7057200D01*
X11449977Y7049986D02*
X11449977Y7049986D01*
X10887938Y6704891D02*
X10949940D01*
X10850609Y6742219D02*
Y6767558D01*
X10831047Y6778091D02*
X10840076D01*
X10820515Y6742219D02*
Y6767558D01*
X10764520Y6704891D02*
X10783186D01*
X10734934D02*
X10764520D01*
X10949940D02*
X11053371D01*
X11382728Y7169627D02*
Y7198365D01*
X11420056Y7132298D02*
X11455378D01*
X11363166Y7208898D02*
X11372195D01*
X11352633Y7169627D02*
Y7198365D01*
X11297898Y7132298D02*
X11315305D01*
X11296639Y7131039D02*
X11297898Y7132298D01*
X11176000Y7010400D02*
X11296639Y7131039D01*
X11176000Y6827520D02*
Y7010400D01*
X11053371Y6704891D02*
X11176000Y6827520D01*
X10222259Y6809627D02*
X10280083Y6867451D01*
X10212215Y6809627D02*
X10222259D01*
X10193877Y6791289D02*
X10212215Y6809627D01*
X10185530Y6779873D02*
X10193877Y6788220D01*
Y6791289D01*
X10185530Y6774957D02*
Y6779873D01*
X11048475Y7022920D02*
Y7060675D01*
X11622967Y7912373D02*
X11680714Y7854626D01*
X11689422Y7851019D02*
X11689424D01*
X11724971Y7806444D02*
Y7815472D01*
X11658405Y7770896D02*
X11689424D01*
X11647872Y7751335D02*
Y7760363D01*
X11658405Y7740802D02*
X11690698D01*
X11726245Y7696226D02*
Y7705255D01*
X11644252Y7660679D02*
X11690698D01*
X11633719Y7641118D02*
Y7650146D01*
X11644252Y7630585D02*
X11687126D01*
X11722673Y7586009D02*
Y7595038D01*
X11624149Y7550462D02*
X11687126D01*
X11613616Y7530901D02*
Y7539929D01*
X11624149Y7520368D02*
X11633586D01*
X11670914Y7464373D02*
Y7483039D01*
X11582444Y7899987D02*
X11599977D01*
X11599977D02*
X11662969Y7836995D01*
X11689422Y7826005D02*
X11689424D01*
X11699957Y7806444D02*
Y7815472D01*
X11658405Y7795911D02*
X11689424D01*
X11622857Y7751335D02*
Y7760363D01*
X11658405Y7715788D02*
X11690698D01*
X11701231Y7696226D02*
Y7705255D01*
X11644252Y7685694D02*
X11690698D01*
X11608704Y7641118D02*
Y7650146D01*
X11644252Y7605571D02*
X11687126D01*
X11697659Y7586009D02*
Y7595038D01*
X11624149Y7575476D02*
X11687126D01*
X11588602Y7530901D02*
Y7539929D01*
X11624149Y7495353D02*
X11633586D01*
X11645900Y7464373D02*
Y7483039D01*
X11610338Y7925002D02*
X11622968Y7912373D01*
X11056077Y7103653D02*
X11285312Y7332888D01*
X11310077Y7357653D01*
X11073765Y7085965D02*
X11303000Y7315200D01*
X11327765Y7339965D01*
X10997852Y7069185D02*
X11001327Y7072660D01*
X11025085D01*
X11048475Y7060675D02*
X11073765Y7085965D01*
X11025085Y7072660D02*
X11056077Y7103653D01*
X11335311Y7347511D02*
X11564413D01*
X11670914Y7454012D02*
Y7464373D01*
X11324949Y7372525D02*
X11554052D01*
X11327765Y7339965D02*
X11335311Y7347511D01*
X11564413D02*
X11670914Y7454012D01*
X11554052Y7372525D02*
X11645900Y7464373D01*
X11310077Y7357653D02*
X11324949Y7372525D01*
X11532187Y7899987D02*
X11582444D01*
X11487470Y7712383D02*
Y7874126D01*
Y7890646D01*
X11521826Y7925002D01*
X11487470Y7683500D02*
Y7712383D01*
X11512485Y7790963D02*
Y7812264D01*
X11524799Y7778649D02*
X11551223D01*
X11561756Y7759087D02*
Y7768116D01*
X11524799Y7748554D02*
X11551223D01*
X11512485Y7699987D02*
Y7736240D01*
Y7812264D02*
Y7880285D01*
Y7683500D02*
Y7699987D01*
X11521826Y7925002D02*
X11610338D01*
X11512485Y7880285D02*
X11532187Y7899987D01*
X11449977Y7649986D02*
X11453956D01*
X11487470Y7683500D01*
X11545998Y7649986D02*
X11549978D01*
X11512485Y7683500D02*
X11545998Y7649986D01*
D132*
X12698400Y2247500D02*
D03*
X12648400D02*
D03*
X12548400D02*
D03*
X12498400D02*
D03*
X12698400Y2324500D02*
D03*
X12648400D02*
D03*
X12548400D02*
D03*
X12498400D02*
D03*
D133*
X12598400Y2247500D02*
D03*
Y2324500D02*
D03*
D134*
X9242200Y2933700D02*
D03*
Y3187700D02*
D03*
X10061800Y2933700D02*
D03*
Y3187700D02*
D03*
D135*
X9452200Y2933700D02*
D03*
Y3187700D02*
D03*
X9851800Y2933700D02*
D03*
Y3187700D02*
D03*
%TF.MD5,cb7ef0f637dfa4b2d4e3666559987462*%
M02*
