G04*
G04 #@! TF.GenerationSoftware,Altium Limited,Altium Designer,23.11.1 (41)*
G04*
G04 Layer_Color=8388736*
%FSLAX44Y44*%
%MOMM*%
G71*
G04*
G04 #@! TF.SameCoordinates,6B8C5B76-4EC9-4DBB-A8E1-E51C7E6A7B67*
G04*
G04*
G04 #@! TF.FilePolarity,Negative*
G04*
G01*
G75*
%ADD41R,5.1600X3.1000*%
G04:AMPARAMS|DCode=115|XSize=4.527mm|YSize=2.627mm|CornerRadius=0.6885mm|HoleSize=0mm|Usage=FLASHONLY|Rotation=0.000|XOffset=0mm|YOffset=0mm|HoleType=Round|Shape=RoundedRectangle|*
%AMROUNDEDRECTD115*
21,1,4.5270,1.2500,0,0,0.0*
21,1,3.1500,2.6270,0,0,0.0*
1,1,1.3770,1.5750,-0.6250*
1,1,1.3770,-1.5750,-0.6250*
1,1,1.3770,-1.5750,0.6250*
1,1,1.3770,1.5750,0.6250*
%
%ADD115ROUNDEDRECTD115*%
%ADD116R,0.9020X1.8418*%
G04:AMPARAMS|DCode=117|XSize=1.8418mm|YSize=0.902mm|CornerRadius=0.2605mm|HoleSize=0mm|Usage=FLASHONLY|Rotation=270.000|XOffset=0mm|YOffset=0mm|HoleType=Round|Shape=RoundedRectangle|*
%AMROUNDEDRECTD117*
21,1,1.8418,0.3810,0,0,270.0*
21,1,1.3208,0.9020,0,0,270.0*
1,1,0.5210,-0.1905,-0.6604*
1,1,0.5210,-0.1905,0.6604*
1,1,0.5210,0.1905,0.6604*
1,1,0.5210,0.1905,-0.6604*
%
%ADD117ROUNDEDRECTD117*%
G04:AMPARAMS|DCode=118|XSize=1.9304mm|YSize=1.3208mm|CornerRadius=0.2665mm|HoleSize=0mm|Usage=FLASHONLY|Rotation=180.000|XOffset=0mm|YOffset=0mm|HoleType=Round|Shape=RoundedRectangle|*
%AMROUNDEDRECTD118*
21,1,1.9304,0.7879,0,0,180.0*
21,1,1.3975,1.3208,0,0,180.0*
1,1,0.5329,-0.6988,0.3940*
1,1,0.5329,0.6988,0.3940*
1,1,0.5329,0.6988,-0.3940*
1,1,0.5329,-0.6988,-0.3940*
%
%ADD118ROUNDEDRECTD118*%
G04:AMPARAMS|DCode=119|XSize=2.627mm|YSize=1.627mm|CornerRadius=0.3635mm|HoleSize=0mm|Usage=FLASHONLY|Rotation=90.000|XOffset=0mm|YOffset=0mm|HoleType=Round|Shape=RoundedRectangle|*
%AMROUNDEDRECTD119*
21,1,2.6270,0.9000,0,0,90.0*
21,1,1.9000,1.6270,0,0,90.0*
1,1,0.7270,0.4500,0.9500*
1,1,0.7270,0.4500,-0.9500*
1,1,0.7270,-0.4500,-0.9500*
1,1,0.7270,-0.4500,0.9500*
%
%ADD119ROUNDEDRECTD119*%
G04:AMPARAMS|DCode=120|XSize=1.524mm|YSize=1.2192mm|CornerRadius=0.2656mm|HoleSize=0mm|Usage=FLASHONLY|Rotation=180.000|XOffset=0mm|YOffset=0mm|HoleType=Round|Shape=RoundedRectangle|*
%AMROUNDEDRECTD120*
21,1,1.5240,0.6881,0,0,180.0*
21,1,0.9929,1.2192,0,0,180.0*
1,1,0.5311,-0.4964,0.3440*
1,1,0.5311,0.4964,0.3440*
1,1,0.5311,0.4964,-0.3440*
1,1,0.5311,-0.4964,-0.3440*
%
%ADD120ROUNDEDRECTD120*%
G04:AMPARAMS|DCode=121|XSize=0.635mm|YSize=0.635mm|CornerRadius=0.2159mm|HoleSize=0mm|Usage=FLASHONLY|Rotation=180.000|XOffset=0mm|YOffset=0mm|HoleType=Round|Shape=RoundedRectangle|*
%AMROUNDEDRECTD121*
21,1,0.6350,0.2032,0,0,180.0*
21,1,0.2032,0.6350,0,0,180.0*
1,1,0.4318,-0.1016,0.1016*
1,1,0.4318,0.1016,0.1016*
1,1,0.4318,0.1016,-0.1016*
1,1,0.4318,-0.1016,-0.1016*
%
%ADD121ROUNDEDRECTD121*%
%ADD122R,0.5842X0.4318*%
G04:AMPARAMS|DCode=123|XSize=7.927mm|YSize=9.727mm|CornerRadius=2.0135mm|HoleSize=0mm|Usage=FLASHONLY|Rotation=0.000|XOffset=0mm|YOffset=0mm|HoleType=Round|Shape=RoundedRectangle|*
%AMROUNDEDRECTD123*
21,1,7.9270,5.7000,0,0,0.0*
21,1,3.9000,9.7270,0,0,0.0*
1,1,4.0270,1.9500,-2.8500*
1,1,4.0270,-1.9500,-2.8500*
1,1,4.0270,-1.9500,2.8500*
1,1,4.0270,1.9500,2.8500*
%
%ADD123ROUNDEDRECTD123*%
G04:AMPARAMS|DCode=124|XSize=1.524mm|YSize=1.2192mm|CornerRadius=0.2656mm|HoleSize=0mm|Usage=FLASHONLY|Rotation=90.000|XOffset=0mm|YOffset=0mm|HoleType=Round|Shape=RoundedRectangle|*
%AMROUNDEDRECTD124*
21,1,1.5240,0.6881,0,0,90.0*
21,1,0.9929,1.2192,0,0,90.0*
1,1,0.5311,0.3440,0.4964*
1,1,0.5311,0.3440,-0.4964*
1,1,0.5311,-0.3440,-0.4964*
1,1,0.5311,-0.3440,0.4964*
%
%ADD124ROUNDEDRECTD124*%
%ADD125R,3.2000X2.3000*%
%ADD126R,1.0900X0.7400*%
%ADD127R,1.7400X1.8400*%
%ADD128R,0.7400X1.0900*%
%ADD129R,1.2400X2.3900*%
%ADD130R,1.5000X1.3400*%
%ADD131R,2.1400X3.1500*%
%ADD132R,3.2400X2.3400*%
G04:AMPARAMS|DCode=133|XSize=2.627mm|YSize=1.627mm|CornerRadius=0.3635mm|HoleSize=0mm|Usage=FLASHONLY|Rotation=180.000|XOffset=0mm|YOffset=0mm|HoleType=Round|Shape=RoundedRectangle|*
%AMROUNDEDRECTD133*
21,1,2.6270,0.9000,0,0,180.0*
21,1,1.9000,1.6270,0,0,180.0*
1,1,0.7270,-0.9500,0.4500*
1,1,0.7270,0.9500,0.4500*
1,1,0.7270,0.9500,-0.4500*
1,1,0.7270,-0.9500,-0.4500*
%
%ADD133ROUNDEDRECTD133*%
G04:AMPARAMS|DCode=134|XSize=2.54mm|YSize=1.79mm|CornerRadius=0.1113mm|HoleSize=0mm|Usage=FLASHONLY|Rotation=270.000|XOffset=0mm|YOffset=0mm|HoleType=Round|Shape=RoundedRectangle|*
%AMROUNDEDRECTD134*
21,1,2.5400,1.5675,0,0,270.0*
21,1,2.3175,1.7900,0,0,270.0*
1,1,0.2225,-0.7838,-1.1588*
1,1,0.2225,-0.7838,1.1588*
1,1,0.2225,0.7838,1.1588*
1,1,0.2225,0.7838,-1.1588*
%
%ADD134ROUNDEDRECTD134*%
G04:AMPARAMS|DCode=135|XSize=0.38mm|YSize=0.74mm|CornerRadius=0.1192mm|HoleSize=0mm|Usage=FLASHONLY|Rotation=270.000|XOffset=0mm|YOffset=0mm|HoleType=Round|Shape=RoundedRectangle|*
%AMROUNDEDRECTD135*
21,1,0.3800,0.5016,0,0,270.0*
21,1,0.1416,0.7400,0,0,270.0*
1,1,0.2384,-0.2508,-0.0708*
1,1,0.2384,-0.2508,0.0708*
1,1,0.2384,0.2508,0.0708*
1,1,0.2384,0.2508,-0.0708*
%
%ADD135ROUNDEDRECTD135*%
G04:AMPARAMS|DCode=136|XSize=1.74mm|YSize=1.84mm|CornerRadius=0.47mm|HoleSize=0mm|Usage=FLASHONLY|Rotation=270.000|XOffset=0mm|YOffset=0mm|HoleType=Round|Shape=RoundedRectangle|*
%AMROUNDEDRECTD136*
21,1,1.7400,0.9000,0,0,270.0*
21,1,0.8000,1.8400,0,0,270.0*
1,1,0.9400,-0.4500,-0.4000*
1,1,0.9400,-0.4500,0.4000*
1,1,0.9400,0.4500,0.4000*
1,1,0.9400,0.4500,-0.4000*
%
%ADD136ROUNDEDRECTD136*%
%ADD137R,2.9400X2.9400*%
%ADD138R,1.8400X1.7400*%
%ADD139R,3.2400X2.4900*%
G04:AMPARAMS|DCode=140|XSize=0.635mm|YSize=0.635mm|CornerRadius=0.2159mm|HoleSize=0mm|Usage=FLASHONLY|Rotation=90.000|XOffset=0mm|YOffset=0mm|HoleType=Round|Shape=RoundedRectangle|*
%AMROUNDEDRECTD140*
21,1,0.6350,0.2032,0,0,90.0*
21,1,0.2032,0.6350,0,0,90.0*
1,1,0.4318,0.1016,0.1016*
1,1,0.4318,0.1016,-0.1016*
1,1,0.4318,-0.1016,-0.1016*
1,1,0.4318,-0.1016,0.1016*
%
%ADD140ROUNDEDRECTD140*%
%ADD141C,0.5770*%
G04:AMPARAMS|DCode=142|XSize=1.127mm|YSize=0.927mm|CornerRadius=0.2635mm|HoleSize=0mm|Usage=FLASHONLY|Rotation=180.000|XOffset=0mm|YOffset=0mm|HoleType=Round|Shape=RoundedRectangle|*
%AMROUNDEDRECTD142*
21,1,1.1270,0.4000,0,0,180.0*
21,1,0.6000,0.9270,0,0,180.0*
1,1,0.5270,-0.3000,0.2000*
1,1,0.5270,0.3000,0.2000*
1,1,0.5270,0.3000,-0.2000*
1,1,0.5270,-0.3000,-0.2000*
%
%ADD142ROUNDEDRECTD142*%
%ADD143R,0.8382X1.1430*%
%ADD144R,4.6400X2.6700*%
%ADD145R,2.6700X4.6400*%
%ADD146R,2.4900X3.2400*%
%ADD147R,1.7400X1.8400*%
%ADD148R,2.9400X2.9400*%
G04:AMPARAMS|DCode=149|XSize=1.74mm|YSize=1.84mm|CornerRadius=0.47mm|HoleSize=0mm|Usage=FLASHONLY|Rotation=0.000|XOffset=0mm|YOffset=0mm|HoleType=Round|Shape=RoundedRectangle|*
%AMROUNDEDRECTD149*
21,1,1.7400,0.9000,0,0,0.0*
21,1,0.8000,1.8400,0,0,0.0*
1,1,0.9400,0.4000,-0.4500*
1,1,0.9400,-0.4000,-0.4500*
1,1,0.9400,-0.4000,0.4500*
1,1,0.9400,0.4000,0.4500*
%
%ADD149ROUNDEDRECTD149*%
G04:AMPARAMS|DCode=150|XSize=4.527mm|YSize=2.627mm|CornerRadius=0.6885mm|HoleSize=0mm|Usage=FLASHONLY|Rotation=270.000|XOffset=0mm|YOffset=0mm|HoleType=Round|Shape=RoundedRectangle|*
%AMROUNDEDRECTD150*
21,1,4.5270,1.2500,0,0,270.0*
21,1,3.1500,2.6270,0,0,270.0*
1,1,1.3770,-0.6250,-1.5750*
1,1,1.3770,-0.6250,1.5750*
1,1,1.3770,0.6250,1.5750*
1,1,1.3770,0.6250,-1.5750*
%
%ADD150ROUNDEDRECTD150*%
%ADD151O,0.3700X0.9400*%
%ADD152O,0.9400X0.3700*%
%ADD153R,7.5400X7.5400*%
%ADD154R,0.4318X0.5842*%
G04:AMPARAMS|DCode=155|XSize=1.9304mm|YSize=1.3208mm|CornerRadius=0.2665mm|HoleSize=0mm|Usage=FLASHONLY|Rotation=90.000|XOffset=0mm|YOffset=0mm|HoleType=Round|Shape=RoundedRectangle|*
%AMROUNDEDRECTD155*
21,1,1.9304,0.7879,0,0,90.0*
21,1,1.3975,1.3208,0,0,90.0*
1,1,0.5329,0.3940,0.6988*
1,1,0.5329,0.3940,-0.6988*
1,1,0.5329,-0.3940,-0.6988*
1,1,0.5329,-0.3940,0.6988*
%
%ADD155ROUNDEDRECTD155*%
%ADD156R,2.0900X1.6900*%
%ADD157R,2.9400X2.4400*%
%ADD158R,2.4400X2.9400*%
G04:AMPARAMS|DCode=159|XSize=1.09mm|YSize=0.44mm|CornerRadius=0.145mm|HoleSize=0mm|Usage=FLASHONLY|Rotation=0.000|XOffset=0mm|YOffset=0mm|HoleType=Round|Shape=RoundedRectangle|*
%AMROUNDEDRECTD159*
21,1,1.0900,0.1500,0,0,0.0*
21,1,0.8000,0.4400,0,0,0.0*
1,1,0.2900,0.4000,-0.0750*
1,1,0.2900,-0.4000,-0.0750*
1,1,0.2900,-0.4000,0.0750*
1,1,0.2900,0.4000,0.0750*
%
%ADD159ROUNDEDRECTD159*%
G04:AMPARAMS|DCode=160|XSize=0.49mm|YSize=1.14mm|CornerRadius=0.1575mm|HoleSize=0mm|Usage=FLASHONLY|Rotation=0.000|XOffset=0mm|YOffset=0mm|HoleType=Round|Shape=RoundedRectangle|*
%AMROUNDEDRECTD160*
21,1,0.4900,0.8250,0,0,0.0*
21,1,0.1750,1.1400,0,0,0.0*
1,1,0.3150,0.0875,-0.4125*
1,1,0.3150,-0.0875,-0.4125*
1,1,0.3150,-0.0875,0.4125*
1,1,0.3150,0.0875,0.4125*
%
%ADD160ROUNDEDRECTD160*%
%ADD161R,3.1500X3.1500*%
G04:AMPARAMS|DCode=162|XSize=0.49mm|YSize=1.14mm|CornerRadius=0.1575mm|HoleSize=0mm|Usage=FLASHONLY|Rotation=270.000|XOffset=0mm|YOffset=0mm|HoleType=Round|Shape=RoundedRectangle|*
%AMROUNDEDRECTD162*
21,1,0.4900,0.8250,0,0,270.0*
21,1,0.1750,1.1400,0,0,270.0*
1,1,0.3150,-0.4125,-0.0875*
1,1,0.3150,-0.4125,0.0875*
1,1,0.3150,0.4125,0.0875*
1,1,0.3150,0.4125,-0.0875*
%
%ADD162ROUNDEDRECTD162*%
G04:AMPARAMS|DCode=163|XSize=3.15mm|YSize=3.15mm|CornerRadius=0.1575mm|HoleSize=0mm|Usage=FLASHONLY|Rotation=270.000|XOffset=0mm|YOffset=0mm|HoleType=Round|Shape=RoundedRectangle|*
%AMROUNDEDRECTD163*
21,1,3.1500,2.8350,0,0,270.0*
21,1,2.8350,3.1500,0,0,270.0*
1,1,0.3150,-1.4175,-1.4175*
1,1,0.3150,-1.4175,1.4175*
1,1,0.3150,1.4175,1.4175*
1,1,0.3150,1.4175,-1.4175*
%
%ADD163ROUNDEDRECTD163*%
%ADD164R,1.5400X2.8900*%
%ADD165R,1.1430X0.8382*%
%ADD166C,3.0000*%
G04:AMPARAMS|DCode=167|XSize=2.4632mm|YSize=2.3632mm|CornerRadius=0.6416mm|HoleSize=0mm|Usage=FLASHONLY|Rotation=180.000|XOffset=0mm|YOffset=0mm|HoleType=Round|Shape=RoundedRectangle|*
%AMROUNDEDRECTD167*
21,1,2.4632,1.0800,0,0,180.0*
21,1,1.1800,2.3632,0,0,180.0*
1,1,1.2832,-0.5900,0.5400*
1,1,1.2832,0.5900,0.5400*
1,1,1.2832,0.5900,-0.5400*
1,1,1.2832,-0.5900,-0.5400*
%
%ADD167ROUNDEDRECTD167*%
%ADD168R,2.6524X1.8524*%
%ADD169R,1.0770X2.1270*%
%ADD170R,5.2770X6.1270*%
%ADD171R,4.0132X4.4450*%
G04:AMPARAMS|DCode=172|XSize=3.15mm|YSize=3.15mm|CornerRadius=0.1575mm|HoleSize=0mm|Usage=FLASHONLY|Rotation=0.000|XOffset=0mm|YOffset=0mm|HoleType=Round|Shape=RoundedRectangle|*
%AMROUNDEDRECTD172*
21,1,3.1500,2.8350,0,0,0.0*
21,1,2.8350,3.1500,0,0,0.0*
1,1,0.3150,1.4175,-1.4175*
1,1,0.3150,-1.4175,-1.4175*
1,1,0.3150,-1.4175,1.4175*
1,1,0.3150,1.4175,1.4175*
%
%ADD172ROUNDEDRECTD172*%
%ADD173R,2.2500X2.2500*%
%ADD174O,0.9500X0.3500*%
%ADD175O,0.3500X0.9500*%
G04:AMPARAMS|DCode=176|XSize=0.4mm|YSize=0.55mm|CornerRadius=0.125mm|HoleSize=0mm|Usage=FLASHONLY|Rotation=90.000|XOffset=0mm|YOffset=0mm|HoleType=Round|Shape=RoundedRectangle|*
%AMROUNDEDRECTD176*
21,1,0.4000,0.3000,0,0,90.0*
21,1,0.1500,0.5500,0,0,90.0*
1,1,0.2500,0.1500,0.0750*
1,1,0.2500,0.1500,-0.0750*
1,1,0.2500,-0.1500,-0.0750*
1,1,0.2500,-0.1500,0.0750*
%
%ADD176ROUNDEDRECTD176*%
%ADD177R,1.7770X0.7270*%
%ADD178R,0.6990X2.4390*%
G04:AMPARAMS|DCode=179|XSize=0.79mm|YSize=0.99mm|CornerRadius=0.2325mm|HoleSize=0mm|Usage=FLASHONLY|Rotation=180.000|XOffset=0mm|YOffset=0mm|HoleType=Round|Shape=RoundedRectangle|*
%AMROUNDEDRECTD179*
21,1,0.7900,0.5250,0,0,180.0*
21,1,0.3250,0.9900,0,0,180.0*
1,1,0.4650,-0.1625,0.2625*
1,1,0.4650,0.1625,0.2625*
1,1,0.4650,0.1625,-0.2625*
1,1,0.4650,-0.1625,-0.2625*
%
%ADD179ROUNDEDRECTD179*%
%ADD180R,0.9270X0.3770*%
%ADD181R,0.3770X0.9270*%
G04:AMPARAMS|DCode=182|XSize=3.527mm|YSize=3.527mm|CornerRadius=0mm|HoleSize=0mm|Usage=FLASHONLY|Rotation=90.000|XOffset=0mm|YOffset=0mm|HoleType=Round|Shape=RoundedRectangle|*
%AMROUNDEDRECTD182*
21,1,3.5270,3.5270,0,0,90.0*
21,1,3.5270,3.5270,0,0,90.0*
1,1,0.0000,1.7635,1.7635*
1,1,0.0000,1.7635,-1.7635*
1,1,0.0000,-1.7635,-1.7635*
1,1,0.0000,-1.7635,1.7635*
%
%ADD182ROUNDEDRECTD182*%
%ADD183C,1.1400*%
%ADD184O,0.4200X0.9900*%
%ADD185O,0.9900X0.4200*%
%ADD186R,5.7400X5.7400*%
%ADD187R,0.7670X0.7370*%
%ADD188O,1.9400X0.5400*%
G04:AMPARAMS|DCode=189|XSize=0.7424mm|YSize=0.6024mm|CornerRadius=0.1887mm|HoleSize=0mm|Usage=FLASHONLY|Rotation=90.000|XOffset=0mm|YOffset=0mm|HoleType=Round|Shape=RoundedRectangle|*
%AMROUNDEDRECTD189*
21,1,0.7424,0.2250,0,0,90.0*
21,1,0.3650,0.6024,0,0,90.0*
1,1,0.3774,0.1125,0.1825*
1,1,0.3774,0.1125,-0.1825*
1,1,0.3774,-0.1125,-0.1825*
1,1,0.3774,-0.1125,0.1825*
%
%ADD189ROUNDEDRECTD189*%
%ADD190R,0.6024X0.7424*%
%ADD191O,0.4270X1.7270*%
%ADD192R,1.7524X1.6524*%
G04:AMPARAMS|DCode=193|XSize=1.3524mm|YSize=1.3524mm|CornerRadius=0.3762mm|HoleSize=0mm|Usage=FLASHONLY|Rotation=180.000|XOffset=0mm|YOffset=0mm|HoleType=Round|Shape=RoundedRectangle|*
%AMROUNDEDRECTD193*
21,1,1.3524,0.6000,0,0,180.0*
21,1,0.6000,1.3524,0,0,180.0*
1,1,0.7524,-0.3000,0.3000*
1,1,0.7524,0.3000,0.3000*
1,1,0.7524,0.3000,-0.3000*
1,1,0.7524,-0.3000,-0.3000*
%
%ADD193ROUNDEDRECTD193*%
%ADD194R,1.3524X1.3524*%
%ADD195R,1.1900X0.7400*%
G04:AMPARAMS|DCode=196|XSize=1.127mm|YSize=0.927mm|CornerRadius=0.2635mm|HoleSize=0mm|Usage=FLASHONLY|Rotation=90.000|XOffset=0mm|YOffset=0mm|HoleType=Round|Shape=RoundedRectangle|*
%AMROUNDEDRECTD196*
21,1,1.1270,0.4000,0,0,90.0*
21,1,0.6000,0.9270,0,0,90.0*
1,1,0.5270,0.2000,0.3000*
1,1,0.5270,0.2000,-0.3000*
1,1,0.5270,-0.2000,-0.3000*
1,1,0.5270,-0.2000,0.3000*
%
%ADD196ROUNDEDRECTD196*%
%ADD197C,0.5500*%
%ADD198R,1.5370X0.7750*%
G04:AMPARAMS|DCode=199|XSize=3.2mm|YSize=1.03mm|CornerRadius=0.2925mm|HoleSize=0mm|Usage=FLASHONLY|Rotation=90.000|XOffset=0mm|YOffset=0mm|HoleType=Round|Shape=RoundedRectangle|*
%AMROUNDEDRECTD199*
21,1,3.2000,0.4450,0,0,90.0*
21,1,2.6150,1.0300,0,0,90.0*
1,1,0.5850,0.2225,1.3075*
1,1,0.5850,0.2225,-1.3075*
1,1,0.5850,-0.2225,-1.3075*
1,1,0.5850,-0.2225,1.3075*
%
%ADD199ROUNDEDRECTD199*%
%ADD200R,5.4900X8.6800*%
%ADD201C,6.3400*%
%ADD202C,3.6270*%
%ADD203C,2.3270*%
%ADD204C,3.1372*%
%ADD205C,3.1400*%
%ADD206R,3.1400X3.1400*%
%ADD207R,2.1450X2.1450*%
%ADD208C,2.1450*%
%ADD209C,1.7400*%
%ADD210C,0.7270*%
%ADD211C,1.6510*%
G04:AMPARAMS|DCode=212|XSize=1.651mm|YSize=1.651mm|CornerRadius=0mm|HoleSize=0mm|Usage=FLASHONLY|Rotation=0.000|XOffset=0mm|YOffset=0mm|HoleType=Round|Shape=Octagon|*
%AMOCTAGOND212*
4,1,8,0.8255,-0.4128,0.8255,0.4128,0.4128,0.8255,-0.4128,0.8255,-0.8255,0.4128,-0.8255,-0.4128,-0.4128,-0.8255,0.4128,-0.8255,0.8255,-0.4128,0.0*
%
%ADD212OCTAGOND212*%

%ADD213C,3.9370*%
%ADD214C,1.6764*%
%ADD215C,0.3000*%
G36*
X768118Y600680D02*
X768145D01*
X768173Y600675D01*
X768200Y600673D01*
X768227Y600667D01*
X768254Y600662D01*
X768280Y600654D01*
X768307Y600647D01*
X768333Y600637D01*
X768359Y600628D01*
X768543Y600552D01*
X768567Y600540D01*
X768593Y600529D01*
X768616Y600515D01*
X768641Y600502D01*
X768663Y600486D01*
X768687Y600471D01*
X768708Y600454D01*
X768730Y600438D01*
X768750Y600418D01*
X768771Y600400D01*
X768911Y600259D01*
X768929Y600238D01*
X768949Y600219D01*
X768965Y600196D01*
X768983Y600176D01*
X768997Y600152D01*
X769013Y600130D01*
X769026Y600105D01*
X769040Y600082D01*
X769051Y600056D01*
X769063Y600032D01*
X769140Y599848D01*
X769148Y599821D01*
X769159Y599796D01*
X769165Y599769D01*
X769174Y599743D01*
X769178Y599716D01*
X769184Y599689D01*
X769186Y599661D01*
X769191Y599634D01*
Y599607D01*
X769193Y599579D01*
Y599480D01*
Y566480D01*
Y566380D01*
X769191Y566353D01*
Y566325D01*
X769186Y566298D01*
X769184Y566270D01*
X769178Y566244D01*
X769174Y566216D01*
X769165Y566190D01*
X769159Y566163D01*
X769148Y566138D01*
X769140Y566111D01*
X769063Y565928D01*
X769051Y565903D01*
X769040Y565878D01*
X769026Y565854D01*
X769013Y565830D01*
X768997Y565807D01*
X768983Y565784D01*
X768965Y565763D01*
X768949Y565740D01*
X768929Y565721D01*
X768911Y565700D01*
X768771Y565559D01*
X768749Y565541D01*
X768730Y565522D01*
X768708Y565506D01*
X768687Y565488D01*
X768663Y565473D01*
X768641Y565457D01*
X768616Y565444D01*
X768593Y565430D01*
X768568Y565420D01*
X768543Y565407D01*
X768359Y565331D01*
X768333Y565322D01*
X768307Y565312D01*
X768280Y565305D01*
X768254Y565297D01*
X768227Y565293D01*
X768200Y565286D01*
X768172Y565284D01*
X768145Y565280D01*
X768118D01*
X768090Y565277D01*
X766391D01*
X766364Y565280D01*
X766336D01*
X766309Y565284D01*
X766282Y565286D01*
X766255Y565293D01*
X766227Y565297D01*
X766201Y565305D01*
X766174Y565312D01*
X766149Y565322D01*
X766123Y565331D01*
X765939Y565407D01*
X765914Y565420D01*
X765889Y565430D01*
X765865Y565444D01*
X765841Y565457D01*
X765818Y565473D01*
X765795Y565488D01*
X765774Y565505D01*
X765752Y565522D01*
X765732Y565541D01*
X765711Y565559D01*
X765571Y565700D01*
X765553Y565721D01*
X765533Y565740D01*
X765517Y565763D01*
X765499Y565784D01*
X765484Y565807D01*
X765468Y565830D01*
X765456Y565854D01*
X765441Y565878D01*
X765431Y565903D01*
X765418Y565928D01*
X765342Y566111D01*
X765334Y566138D01*
X765323Y566163D01*
X765317Y566190D01*
X765308Y566216D01*
X765304Y566243D01*
X765297Y566270D01*
X765295Y566298D01*
X765291Y566325D01*
Y566353D01*
X765289Y566380D01*
Y566480D01*
Y599480D01*
Y599579D01*
X765291Y599607D01*
Y599634D01*
X765295Y599661D01*
X765297Y599689D01*
X765304Y599716D01*
X765308Y599743D01*
X765317Y599769D01*
X765323Y599796D01*
X765333Y599821D01*
X765342Y599848D01*
X765418Y600032D01*
X765431Y600056D01*
X765441Y600082D01*
X765456Y600105D01*
X765468Y600130D01*
X765485Y600152D01*
X765499Y600176D01*
X765517Y600196D01*
X765533Y600219D01*
X765553Y600238D01*
X765571Y600259D01*
X765711Y600400D01*
X765732Y600418D01*
X765752Y600438D01*
X765774Y600454D01*
X765795Y600471D01*
X765818Y600486D01*
X765841Y600502D01*
X765865Y600515D01*
X765889Y600529D01*
X765914Y600540D01*
X765939Y600552D01*
X766123Y600628D01*
X766149Y600637D01*
X766174Y600647D01*
X766201Y600654D01*
X766227Y600662D01*
X766255Y600667D01*
X766282Y600673D01*
X766309Y600675D01*
X766336Y600680D01*
X766364D01*
X766391Y600682D01*
X768090D01*
X768118Y600680D01*
D02*
G37*
G36*
X773118D02*
X773145D01*
X773173Y600675D01*
X773200Y600673D01*
X773227Y600667D01*
X773254Y600662D01*
X773280Y600654D01*
X773307Y600647D01*
X773333Y600637D01*
X773359Y600628D01*
X773543Y600552D01*
X773567Y600540D01*
X773593Y600529D01*
X773616Y600515D01*
X773641Y600502D01*
X773663Y600486D01*
X773687Y600471D01*
X773708Y600454D01*
X773730Y600438D01*
X773750Y600418D01*
X773771Y600400D01*
X773911Y600259D01*
X773929Y600238D01*
X773949Y600219D01*
X773965Y600196D01*
X773983Y600176D01*
X773997Y600152D01*
X774014Y600130D01*
X774026Y600105D01*
X774040Y600082D01*
X774051Y600056D01*
X774063Y600032D01*
X774140Y599848D01*
X774148Y599821D01*
X774159Y599796D01*
X774165Y599769D01*
X774174Y599743D01*
X774178Y599716D01*
X774184Y599689D01*
X774186Y599661D01*
X774191Y599634D01*
Y599607D01*
X774193Y599579D01*
Y599480D01*
Y566480D01*
Y566380D01*
X774191Y566353D01*
Y566325D01*
X774186Y566298D01*
X774184Y566270D01*
X774178Y566244D01*
X774174Y566216D01*
X774165Y566190D01*
X774159Y566163D01*
X774148Y566138D01*
X774140Y566111D01*
X774063Y565928D01*
X774051Y565903D01*
X774040Y565878D01*
X774026Y565854D01*
X774014Y565830D01*
X773997Y565807D01*
X773983Y565784D01*
X773965Y565763D01*
X773949Y565740D01*
X773929Y565721D01*
X773911Y565700D01*
X773771Y565559D01*
X773749Y565541D01*
X773730Y565522D01*
X773708Y565506D01*
X773687Y565488D01*
X773663Y565473D01*
X773641Y565457D01*
X773616Y565444D01*
X773593Y565430D01*
X773568Y565420D01*
X773543Y565407D01*
X773359Y565331D01*
X773333Y565322D01*
X773307Y565312D01*
X773280Y565305D01*
X773254Y565297D01*
X773227Y565293D01*
X773200Y565286D01*
X773172Y565284D01*
X773145Y565280D01*
X773118D01*
X773090Y565277D01*
X771391D01*
X771364Y565280D01*
X771336D01*
X771309Y565284D01*
X771282Y565286D01*
X771255Y565293D01*
X771227Y565297D01*
X771201Y565305D01*
X771174Y565312D01*
X771149Y565322D01*
X771123Y565331D01*
X770939Y565407D01*
X770914Y565420D01*
X770889Y565430D01*
X770865Y565444D01*
X770841Y565457D01*
X770818Y565473D01*
X770795Y565488D01*
X770774Y565505D01*
X770752Y565522D01*
X770732Y565541D01*
X770711Y565559D01*
X770571Y565700D01*
X770553Y565721D01*
X770533Y565740D01*
X770517Y565763D01*
X770499Y565784D01*
X770485Y565807D01*
X770468Y565830D01*
X770456Y565854D01*
X770441Y565878D01*
X770431Y565903D01*
X770418Y565928D01*
X770342Y566111D01*
X770334Y566138D01*
X770323Y566163D01*
X770317Y566190D01*
X770308Y566216D01*
X770304Y566243D01*
X770297Y566270D01*
X770295Y566298D01*
X770291Y566325D01*
Y566353D01*
X770289Y566380D01*
Y566480D01*
Y599480D01*
Y599579D01*
X770291Y599607D01*
Y599634D01*
X770295Y599661D01*
X770297Y599689D01*
X770304Y599716D01*
X770308Y599743D01*
X770317Y599769D01*
X770323Y599796D01*
X770334Y599821D01*
X770342Y599848D01*
X770418Y600032D01*
X770431Y600056D01*
X770441Y600082D01*
X770456Y600105D01*
X770468Y600130D01*
X770485Y600152D01*
X770499Y600176D01*
X770517Y600196D01*
X770533Y600219D01*
X770553Y600238D01*
X770571Y600259D01*
X770711Y600400D01*
X770732Y600418D01*
X770752Y600438D01*
X770774Y600454D01*
X770795Y600471D01*
X770818Y600486D01*
X770841Y600502D01*
X770865Y600515D01*
X770889Y600529D01*
X770914Y600540D01*
X770939Y600552D01*
X771123Y600628D01*
X771149Y600637D01*
X771174Y600647D01*
X771201Y600654D01*
X771227Y600662D01*
X771255Y600667D01*
X771282Y600673D01*
X771309Y600675D01*
X771336Y600680D01*
X771364D01*
X771391Y600682D01*
X773090D01*
X773118Y600680D01*
D02*
G37*
G36*
X1879950Y674633D02*
X1880057Y674608D01*
X1880099Y674590D01*
X1880159Y674566D01*
X1880253Y674508D01*
X1880336Y674436D01*
Y674436D01*
X1880336D01*
X1880408Y674353D01*
X1880466Y674259D01*
X1880490Y674199D01*
X1880508Y674157D01*
X1880533Y674050D01*
X1880542Y673940D01*
D01*
Y673940D01*
Y656940D01*
X1880533Y656830D01*
X1880508Y656723D01*
X1880466Y656621D01*
X1880408Y656527D01*
X1880336Y656443D01*
X1880253Y656372D01*
X1880159Y656314D01*
X1880057Y656272D01*
X1879950Y656246D01*
X1879840Y656238D01*
X1863840D01*
D01*
X1863840D01*
X1863730Y656246D01*
X1863623Y656272D01*
X1863521Y656314D01*
X1863427Y656372D01*
X1863344Y656443D01*
X1863272Y656527D01*
X1863214Y656621D01*
X1863172Y656723D01*
X1863147Y656830D01*
X1863138Y656940D01*
Y656940D01*
D01*
X1863138Y666440D01*
X1863140Y666470D01*
X1863141Y666500D01*
X1863145Y666525D01*
X1863147Y666550D01*
X1863154Y666579D01*
X1863159Y666609D01*
X1863167Y666633D01*
X1863172Y666657D01*
X1863184Y666685D01*
X1863194Y666713D01*
X1863205Y666736D01*
X1863215Y666759D01*
X1863230Y666784D01*
X1863244Y666811D01*
X1863259Y666832D01*
X1863272Y666853D01*
X1863292Y666876D01*
X1863310Y666900D01*
X1869809Y674399D01*
X1869827Y674417D01*
X1869843Y674436D01*
X1869866Y674455D01*
X1869888Y674477D01*
X1869908Y674491D01*
X1869927Y674508D01*
X1869953Y674523D01*
X1869978Y674541D01*
X1870000Y674552D01*
X1870021Y674565D01*
X1870049Y674577D01*
X1870076Y674590D01*
X1870100Y674598D01*
X1870123Y674607D01*
X1870152Y674614D01*
X1870181Y674623D01*
X1870206Y674627D01*
X1870230Y674633D01*
X1870260Y674635D01*
X1870290Y674640D01*
X1870315Y674640D01*
X1870340Y674642D01*
X1879840Y674642D01*
D01*
X1879840D01*
X1879950Y674633D01*
D02*
G37*
D41*
X944880Y208280D02*
D03*
D115*
X127000Y477520D02*
D03*
X43000D02*
D03*
X127000Y599440D02*
D03*
X43000D02*
D03*
X3827780Y284480D02*
D03*
X3911780D02*
D03*
X3675380D02*
D03*
X3759380D02*
D03*
X810440Y299720D02*
D03*
X726440D02*
D03*
X812800Y182880D02*
D03*
X728800D02*
D03*
D116*
X1266190Y288290D02*
D03*
X1278890D02*
D03*
X1291590D02*
D03*
X1215390D02*
D03*
X1228090D02*
D03*
X1240790D02*
D03*
X1253490D02*
D03*
X1266190Y199390D02*
D03*
X1278890D02*
D03*
X1291590D02*
D03*
X1304290D02*
D03*
X1215390D02*
D03*
X1228090D02*
D03*
X1240790D02*
D03*
X1253490D02*
D03*
D117*
X1304290Y288290D02*
D03*
D118*
X6060440Y303022D02*
D03*
Y331978D02*
D03*
X5913120Y303022D02*
D03*
Y331978D02*
D03*
X5844540Y303022D02*
D03*
Y331978D02*
D03*
X4262120D02*
D03*
Y303022D02*
D03*
X1671240Y750062D02*
D03*
Y779018D02*
D03*
X1725020Y308378D02*
D03*
Y279422D02*
D03*
X1920160Y508762D02*
D03*
Y537718D02*
D03*
X1747520Y497078D02*
D03*
Y468122D02*
D03*
X1615440Y497078D02*
D03*
Y468122D02*
D03*
X1982040Y324358D02*
D03*
Y295402D02*
D03*
X1615440Y555752D02*
D03*
Y584708D02*
D03*
X1010920Y227838D02*
D03*
Y198882D02*
D03*
X878840D02*
D03*
Y227838D02*
D03*
X1633060Y617220D02*
D03*
X198311Y494387D02*
D03*
X169681D02*
D03*
X1633060Y646176D02*
D03*
X198311Y465431D02*
D03*
X169681D02*
D03*
D119*
X5983480Y322580D02*
D03*
X6015480D02*
D03*
X964440Y375920D02*
D03*
X996440D02*
D03*
X1418080Y604520D02*
D03*
X1386080D02*
D03*
X1880360Y609600D02*
D03*
X1848360D02*
D03*
X1632820Y354860D02*
D03*
X1664820D02*
D03*
X1681214Y396565D02*
D03*
X1713214D02*
D03*
X1802640Y802640D02*
D03*
X1834640D02*
D03*
X1667100Y556260D02*
D03*
X1699100D02*
D03*
X1286000Y614680D02*
D03*
Y574040D02*
D03*
X1228600Y934720D02*
D03*
X1321560D02*
D03*
X1355600Y955040D02*
D03*
X1190750D02*
D03*
X1198120Y614680D02*
D03*
Y574040D02*
D03*
X1254000Y614680D02*
D03*
Y574040D02*
D03*
X1260600Y934720D02*
D03*
X1289560D02*
D03*
X1387600Y955040D02*
D03*
X1158750D02*
D03*
X1230120Y614680D02*
D03*
Y574040D02*
D03*
D120*
X5768340Y314071D02*
D03*
Y331089D02*
D03*
X4191000Y331597D02*
D03*
Y313563D02*
D03*
X843521Y603648D02*
D03*
Y586630D02*
D03*
X1630600Y872949D02*
D03*
Y855931D02*
D03*
X802880Y586630D02*
D03*
Y603648D02*
D03*
X1366520Y338709D02*
D03*
Y321691D02*
D03*
D121*
X5689600Y328295D02*
D03*
Y337185D02*
D03*
X5615940Y328295D02*
D03*
Y337185D02*
D03*
X5542280Y328295D02*
D03*
Y337185D02*
D03*
X5468620Y328295D02*
D03*
Y337185D02*
D03*
X5394960Y328295D02*
D03*
Y337185D02*
D03*
X5321300Y328295D02*
D03*
Y337185D02*
D03*
X5102860Y328295D02*
D03*
Y337185D02*
D03*
X5031740Y328295D02*
D03*
Y337185D02*
D03*
X4960620Y328295D02*
D03*
Y337185D02*
D03*
X4889500Y328295D02*
D03*
Y337185D02*
D03*
X4818380Y328295D02*
D03*
Y337185D02*
D03*
X4747260Y328295D02*
D03*
Y337185D02*
D03*
X4676140Y328295D02*
D03*
Y337185D02*
D03*
X4610100Y328295D02*
D03*
Y337185D02*
D03*
X4538980Y328295D02*
D03*
Y337185D02*
D03*
X4467860Y328295D02*
D03*
Y337185D02*
D03*
X4396740Y328295D02*
D03*
Y337185D02*
D03*
X4325620Y328295D02*
D03*
Y337185D02*
D03*
X3583940Y328295D02*
D03*
Y337185D02*
D03*
X3512820Y328295D02*
D03*
Y337185D02*
D03*
X3441700Y328295D02*
D03*
Y337185D02*
D03*
X3370580Y328295D02*
D03*
Y337185D02*
D03*
X3299460Y328295D02*
D03*
Y337185D02*
D03*
X3228340Y328295D02*
D03*
Y337185D02*
D03*
X3157220Y328295D02*
D03*
Y337185D02*
D03*
X3086100Y328295D02*
D03*
Y337185D02*
D03*
X3020060Y328295D02*
D03*
Y337185D02*
D03*
X2948940Y328295D02*
D03*
Y337185D02*
D03*
X2877820Y328295D02*
D03*
Y337185D02*
D03*
X2811780Y328295D02*
D03*
Y337185D02*
D03*
X2740660Y328295D02*
D03*
Y337185D02*
D03*
X2669540Y328295D02*
D03*
Y337185D02*
D03*
X2598420Y328295D02*
D03*
Y337185D02*
D03*
X2527300Y328295D02*
D03*
Y337185D02*
D03*
X2456180Y328295D02*
D03*
Y337185D02*
D03*
X2385060Y328295D02*
D03*
Y337185D02*
D03*
X2313940Y328295D02*
D03*
Y337185D02*
D03*
X2242820Y328295D02*
D03*
Y337185D02*
D03*
X2171700Y328295D02*
D03*
Y337185D02*
D03*
X2098040Y328295D02*
D03*
Y337185D02*
D03*
X911860Y761365D02*
D03*
Y770255D02*
D03*
X919480Y809625D02*
D03*
Y818515D02*
D03*
X986790Y809625D02*
D03*
Y818515D02*
D03*
X857250Y668655D02*
D03*
Y677545D02*
D03*
X323464Y779949D02*
D03*
Y771059D02*
D03*
X308223D02*
D03*
Y779949D02*
D03*
X1513760Y859995D02*
D03*
Y868885D02*
D03*
X1614494Y895500D02*
D03*
Y904390D02*
D03*
X1559480Y702945D02*
D03*
Y694055D02*
D03*
X1614494Y884705D02*
D03*
Y875815D02*
D03*
X1650920Y849835D02*
D03*
Y858725D02*
D03*
X1737360Y695325D02*
D03*
Y686435D02*
D03*
X1747520Y695325D02*
D03*
Y686435D02*
D03*
X1757680Y695325D02*
D03*
Y686435D02*
D03*
X1767840Y655955D02*
D03*
Y664845D02*
D03*
Y695325D02*
D03*
Y686435D02*
D03*
X695960Y517525D02*
D03*
Y508635D02*
D03*
X1699620Y308505D02*
D03*
Y299615D02*
D03*
X1595120Y502285D02*
D03*
Y493395D02*
D03*
X1681480Y655320D02*
D03*
Y664210D02*
D03*
X1305560Y492125D02*
D03*
Y483235D02*
D03*
X868680Y437515D02*
D03*
Y446405D02*
D03*
X800221Y567105D02*
D03*
Y558215D02*
D03*
X810381Y567105D02*
D03*
Y558215D02*
D03*
X739261Y573455D02*
D03*
Y582345D02*
D03*
X513080Y168275D02*
D03*
Y177165D02*
D03*
X574040Y263525D02*
D03*
Y254635D02*
D03*
X558800Y263525D02*
D03*
Y254635D02*
D03*
X589280Y263525D02*
D03*
Y254635D02*
D03*
X1376680Y356235D02*
D03*
Y365125D02*
D03*
X1366520Y356235D02*
D03*
Y365125D02*
D03*
X1356360Y356235D02*
D03*
Y365125D02*
D03*
X1211338Y353824D02*
D03*
Y344934D02*
D03*
X1201178Y353824D02*
D03*
Y344934D02*
D03*
X1221498Y353824D02*
D03*
Y344934D02*
D03*
X1191018Y446534D02*
D03*
Y455424D02*
D03*
X1180858Y446534D02*
D03*
Y455424D02*
D03*
X1221498Y446534D02*
D03*
Y455424D02*
D03*
X1211338Y446534D02*
D03*
Y455424D02*
D03*
X1231658Y446534D02*
D03*
Y455424D02*
D03*
X1201178Y446534D02*
D03*
Y455424D02*
D03*
X584200Y410845D02*
D03*
Y401955D02*
D03*
X574040Y410845D02*
D03*
Y401955D02*
D03*
X1880440Y452755D02*
D03*
Y461645D02*
D03*
X1890600Y452755D02*
D03*
Y461645D02*
D03*
X1834720Y207645D02*
D03*
Y198755D02*
D03*
X1844880Y207645D02*
D03*
Y198755D02*
D03*
X1890600Y207315D02*
D03*
Y198425D02*
D03*
X1900760Y207315D02*
D03*
Y198425D02*
D03*
X1961720Y330200D02*
D03*
Y321310D02*
D03*
X1860120Y452755D02*
D03*
Y461645D02*
D03*
X1849960Y452755D02*
D03*
Y461645D02*
D03*
X1997280Y380365D02*
D03*
Y371475D02*
D03*
Y410845D02*
D03*
Y401955D02*
D03*
X1951560Y452755D02*
D03*
Y461645D02*
D03*
X1941400Y452755D02*
D03*
Y461645D02*
D03*
X1921715Y452755D02*
D03*
Y461645D02*
D03*
X1911555Y452755D02*
D03*
Y461645D02*
D03*
X1829640Y452755D02*
D03*
Y461645D02*
D03*
X1819480Y452755D02*
D03*
Y461645D02*
D03*
X1758520Y422275D02*
D03*
Y431165D02*
D03*
Y396875D02*
D03*
Y405765D02*
D03*
Y371475D02*
D03*
Y380365D02*
D03*
X314960Y417195D02*
D03*
Y426085D02*
D03*
X284480D02*
D03*
Y417195D02*
D03*
X258581Y426085D02*
D03*
Y417195D02*
D03*
X228600D02*
D03*
Y426085D02*
D03*
X243840D02*
D03*
Y417195D02*
D03*
X1595120Y576580D02*
D03*
Y585470D02*
D03*
X1518920Y474345D02*
D03*
Y483235D02*
D03*
X1529080Y474345D02*
D03*
Y483235D02*
D03*
X1564640Y422275D02*
D03*
Y431165D02*
D03*
X1544320Y424180D02*
D03*
Y433070D02*
D03*
X1468120Y423545D02*
D03*
Y432435D02*
D03*
X1488440Y423545D02*
D03*
Y432435D02*
D03*
X1524000Y316865D02*
D03*
Y325755D02*
D03*
X1513840Y316865D02*
D03*
Y325755D02*
D03*
X1508760Y243205D02*
D03*
Y234315D02*
D03*
X1518920Y243205D02*
D03*
Y234315D02*
D03*
X1503680Y316865D02*
D03*
Y325755D02*
D03*
X1559560Y259715D02*
D03*
Y250825D02*
D03*
X1529080Y243205D02*
D03*
Y234315D02*
D03*
X1549400Y250825D02*
D03*
Y259715D02*
D03*
X1539240Y234315D02*
D03*
Y243205D02*
D03*
X1569720Y250825D02*
D03*
Y259715D02*
D03*
X1371600Y920115D02*
D03*
Y929005D02*
D03*
X1351280Y920115D02*
D03*
Y929005D02*
D03*
X843280Y903605D02*
D03*
Y894715D02*
D03*
X980440Y975995D02*
D03*
Y984885D02*
D03*
X944880Y147955D02*
D03*
Y156845D02*
D03*
X965200D02*
D03*
Y147955D02*
D03*
X955040Y156845D02*
D03*
Y147955D02*
D03*
X934720Y156845D02*
D03*
Y147955D02*
D03*
X1005840Y173355D02*
D03*
Y182245D02*
D03*
X883920Y173355D02*
D03*
Y182245D02*
D03*
X975360Y309245D02*
D03*
Y318135D02*
D03*
X1041400D02*
D03*
Y309245D02*
D03*
X554050Y925435D02*
D03*
Y934325D02*
D03*
X1765128Y877260D02*
D03*
Y886150D02*
D03*
X981710Y770255D02*
D03*
X949960Y818515D02*
D03*
X299720Y417195D02*
D03*
X980440Y898525D02*
D03*
X1012730Y936165D02*
D03*
X980440Y889635D02*
D03*
X1012730Y927275D02*
D03*
X981710Y761365D02*
D03*
X924560Y770255D02*
D03*
Y761365D02*
D03*
X970280Y770255D02*
D03*
Y761365D02*
D03*
X993140Y770255D02*
D03*
Y761365D02*
D03*
X949960Y809625D02*
D03*
X947420Y770255D02*
D03*
Y761365D02*
D03*
X935990Y770255D02*
D03*
Y761365D02*
D03*
X900430Y770255D02*
D03*
Y761365D02*
D03*
X958850Y770255D02*
D03*
Y761365D02*
D03*
X299720Y426085D02*
D03*
D122*
X5247640Y332486D02*
D03*
Y338074D02*
D03*
X5173980Y332486D02*
D03*
Y338074D02*
D03*
X472440Y787400D02*
D03*
Y792988D02*
D03*
X482600Y786892D02*
D03*
Y792480D02*
D03*
X492760Y786892D02*
D03*
Y792480D02*
D03*
X1604334Y894865D02*
D03*
Y900453D02*
D03*
X1523920Y698500D02*
D03*
Y692912D02*
D03*
X1513760Y698500D02*
D03*
Y692912D02*
D03*
X1569640Y703580D02*
D03*
Y697992D02*
D03*
X1604334Y882419D02*
D03*
Y876831D02*
D03*
X470784Y750104D02*
D03*
Y744516D02*
D03*
X482600Y746760D02*
D03*
Y741172D02*
D03*
X1910920Y320040D02*
D03*
Y314452D02*
D03*
X1921080Y320040D02*
D03*
Y314452D02*
D03*
X1834720Y320040D02*
D03*
Y314452D02*
D03*
X1844880Y320040D02*
D03*
Y314452D02*
D03*
X1819480Y370840D02*
D03*
Y376428D02*
D03*
X1931240Y373126D02*
D03*
Y378714D02*
D03*
X1829640Y370840D02*
D03*
Y376428D02*
D03*
X1951560Y330708D02*
D03*
Y325120D02*
D03*
X1941400Y330708D02*
D03*
Y325120D02*
D03*
Y373126D02*
D03*
Y378714D02*
D03*
X1931240Y330708D02*
D03*
Y325120D02*
D03*
X1447800Y506984D02*
D03*
Y501396D02*
D03*
X1574800Y504698D02*
D03*
Y499110D02*
D03*
X1584960Y504698D02*
D03*
Y499110D02*
D03*
X1457960Y506984D02*
D03*
Y501396D02*
D03*
Y582676D02*
D03*
Y588264D02*
D03*
X1574800Y582676D02*
D03*
Y588264D02*
D03*
X1584960Y531876D02*
D03*
Y537464D02*
D03*
X1447800Y582676D02*
D03*
Y588264D02*
D03*
X1584960Y582676D02*
D03*
Y588264D02*
D03*
X1574800Y531876D02*
D03*
Y537464D02*
D03*
X1041400Y290576D02*
D03*
Y296164D02*
D03*
D123*
X3997960Y251460D02*
D03*
X4122960D02*
D03*
D124*
X2056511Y330200D02*
D03*
X2073529D02*
D03*
X801872Y628700D02*
D03*
X818890D02*
D03*
X775829Y681499D02*
D03*
X758811D02*
D03*
X775829Y640859D02*
D03*
X758811D02*
D03*
D125*
X1844040Y751840D02*
D03*
D126*
X1875090Y751940D02*
D03*
Y715940D02*
D03*
Y706940D02*
D03*
Y697940D02*
D03*
Y688940D02*
D03*
Y679940D02*
D03*
Y724940D02*
D03*
Y733940D02*
D03*
Y742940D02*
D03*
X1786590Y751940D02*
D03*
Y742940D02*
D03*
Y733940D02*
D03*
Y724940D02*
D03*
Y679940D02*
D03*
Y688940D02*
D03*
Y697940D02*
D03*
Y706940D02*
D03*
Y715940D02*
D03*
X709990Y791181D02*
D03*
Y782181D02*
D03*
Y809181D02*
D03*
Y800181D02*
D03*
Y773181D02*
D03*
Y818181D02*
D03*
Y764181D02*
D03*
X818490Y809181D02*
D03*
Y800181D02*
D03*
Y791181D02*
D03*
Y782181D02*
D03*
Y773181D02*
D03*
Y818181D02*
D03*
Y764181D02*
D03*
X1415270Y554990D02*
D03*
Y482990D02*
D03*
Y491990D02*
D03*
Y500990D02*
D03*
Y518990D02*
D03*
Y536990D02*
D03*
Y545990D02*
D03*
X1326770Y482990D02*
D03*
Y554990D02*
D03*
Y545990D02*
D03*
Y536990D02*
D03*
Y527990D02*
D03*
Y518990D02*
D03*
Y509990D02*
D03*
Y500990D02*
D03*
Y491990D02*
D03*
X1415270Y509990D02*
D03*
Y527990D02*
D03*
X343233Y817484D02*
D03*
Y808484D02*
D03*
Y781484D02*
D03*
Y826484D02*
D03*
X451734Y817484D02*
D03*
Y808484D02*
D03*
Y799484D02*
D03*
Y826484D02*
D03*
X343233Y772484D02*
D03*
X451734Y790484D02*
D03*
Y781484D02*
D03*
Y772484D02*
D03*
X343233Y799484D02*
D03*
Y790484D02*
D03*
X887180Y473600D02*
D03*
Y464600D02*
D03*
Y437600D02*
D03*
Y482600D02*
D03*
Y428600D02*
D03*
X995680Y473600D02*
D03*
Y464600D02*
D03*
Y455600D02*
D03*
Y446600D02*
D03*
Y437600D02*
D03*
Y482600D02*
D03*
Y428600D02*
D03*
X887180Y455600D02*
D03*
Y446600D02*
D03*
D127*
X1871840Y766440D02*
D03*
X1789840D02*
D03*
Y665440D02*
D03*
D128*
X1830840Y770190D02*
D03*
X1839840D02*
D03*
X1848840D02*
D03*
X1857840D02*
D03*
X1821840D02*
D03*
X1812840D02*
D03*
X1803840D02*
D03*
Y661690D02*
D03*
X1812840D02*
D03*
X1821840D02*
D03*
X1857840D02*
D03*
X1848840D02*
D03*
X1839840D02*
D03*
X1830840D02*
D03*
X773240Y746431D02*
D03*
X755240D02*
D03*
X737240Y834931D02*
D03*
X746240D02*
D03*
X755240D02*
D03*
X764240D02*
D03*
X773240D02*
D03*
X782240D02*
D03*
X791240D02*
D03*
X800240D02*
D03*
X728240D02*
D03*
X791240Y746431D02*
D03*
X782240D02*
D03*
X764240D02*
D03*
X746240D02*
D03*
X737240D02*
D03*
X728240D02*
D03*
X800240D02*
D03*
X1397520Y573240D02*
D03*
X1343520D02*
D03*
X1388520D02*
D03*
X1379520D02*
D03*
X1370520D02*
D03*
X1361520D02*
D03*
X1352520D02*
D03*
X1397520Y464740D02*
D03*
X1343520D02*
D03*
X1388520D02*
D03*
X1361520D02*
D03*
X1352520D02*
D03*
X1379520D02*
D03*
X1370520D02*
D03*
X370484Y843234D02*
D03*
X379483D02*
D03*
X388484D02*
D03*
X397483D02*
D03*
X406483D02*
D03*
X415484D02*
D03*
X424483D02*
D03*
X433484D02*
D03*
X361483D02*
D03*
X397483Y754734D02*
D03*
X379483D02*
D03*
X370484D02*
D03*
X361483D02*
D03*
X424483D02*
D03*
X415484D02*
D03*
X433484D02*
D03*
X406483D02*
D03*
X388484D02*
D03*
X914430Y499350D02*
D03*
X923430D02*
D03*
X932430D02*
D03*
X941430D02*
D03*
X950430D02*
D03*
X959430D02*
D03*
X968430D02*
D03*
X977430D02*
D03*
X905430D02*
D03*
X968430Y410850D02*
D03*
X959430D02*
D03*
X941430D02*
D03*
X923430D02*
D03*
X914430D02*
D03*
X905430D02*
D03*
X977430D02*
D03*
X950430D02*
D03*
X932430D02*
D03*
D129*
X1833040Y682940D02*
D03*
D130*
X1807540Y756540D02*
D03*
D131*
X1804340Y729140D02*
D03*
D132*
X1843840Y717040D02*
D03*
D133*
X1031240Y370080D02*
D03*
Y402080D02*
D03*
X1102360Y804670D02*
D03*
Y772670D02*
D03*
X1056640Y773940D02*
D03*
Y805940D02*
D03*
Y852680D02*
D03*
Y884680D02*
D03*
X1102360Y852680D02*
D03*
Y884680D02*
D03*
X308223Y810304D02*
D03*
Y842304D02*
D03*
X508000Y767080D02*
D03*
Y735080D02*
D03*
X1910080Y735840D02*
D03*
Y767840D02*
D03*
X1427480Y899920D02*
D03*
X1468120D02*
D03*
Y649480D02*
D03*
X1427480D02*
D03*
X853440Y503680D02*
D03*
X410981Y438281D02*
D03*
X372881D02*
D03*
X1427480Y867920D02*
D03*
X1468120D02*
D03*
Y681480D02*
D03*
X1427480D02*
D03*
X853440Y471680D02*
D03*
X410981Y470281D02*
D03*
X372881D02*
D03*
D134*
X769741Y582980D02*
D03*
D135*
X755741D02*
D03*
X783741Y587980D02*
D03*
X755741D02*
D03*
Y572980D02*
D03*
Y592980D02*
D03*
Y577980D02*
D03*
X783741Y592980D02*
D03*
Y582980D02*
D03*
Y577980D02*
D03*
Y572980D02*
D03*
D136*
X713740Y749681D02*
D03*
X346983Y757984D02*
D03*
X890930Y414100D02*
D03*
D137*
X736740Y795181D02*
D03*
X369983Y803484D02*
D03*
X913930Y459600D02*
D03*
D138*
X713740Y831681D02*
D03*
X814740D02*
D03*
Y749681D02*
D03*
X447984Y839984D02*
D03*
Y757984D02*
D03*
X346983Y839984D02*
D03*
X991930Y496100D02*
D03*
Y414100D02*
D03*
X890930Y496100D02*
D03*
D139*
X786740Y772281D02*
D03*
Y808981D02*
D03*
X419983Y817284D02*
D03*
Y780584D02*
D03*
X963930Y436700D02*
D03*
Y473400D02*
D03*
D140*
X880745Y588010D02*
D03*
X871855D02*
D03*
X880745Y599440D02*
D03*
X871855D02*
D03*
X880745Y577850D02*
D03*
X871855D02*
D03*
X880745Y610870D02*
D03*
X871855D02*
D03*
X880745Y622300D02*
D03*
X871855D02*
D03*
X880745Y656590D02*
D03*
X871855D02*
D03*
X880745Y645160D02*
D03*
X871855D02*
D03*
X880745Y633730D02*
D03*
X871855D02*
D03*
X985901Y623017D02*
D03*
X977011D02*
D03*
X871855Y566420D02*
D03*
X880745D02*
D03*
X930275Y731520D02*
D03*
X939165D02*
D03*
X955675D02*
D03*
X964565D02*
D03*
X981075D02*
D03*
X989965D02*
D03*
X871855Y690880D02*
D03*
X880745D02*
D03*
X871855Y679450D02*
D03*
X880745D02*
D03*
X367914Y861864D02*
D03*
X359024D02*
D03*
X1621075Y774700D02*
D03*
X1629965D02*
D03*
X1616503Y808560D02*
D03*
X1625393D02*
D03*
X1494155Y789940D02*
D03*
X1485265D02*
D03*
X1494155Y800100D02*
D03*
X1485265D02*
D03*
X1169998Y629999D02*
D03*
X1161108D02*
D03*
X1874725Y508000D02*
D03*
X1865835D02*
D03*
X319405Y152400D02*
D03*
X310515D02*
D03*
X178435Y284480D02*
D03*
X187325D02*
D03*
X1860550Y645160D02*
D03*
X1869440D02*
D03*
X1767205Y675640D02*
D03*
X1758315D02*
D03*
X1802765Y645160D02*
D03*
X1793875D02*
D03*
X654685Y386080D02*
D03*
X645795D02*
D03*
Y436880D02*
D03*
X654685D02*
D03*
X1708009Y432125D02*
D03*
X1716899D02*
D03*
X1687689D02*
D03*
X1696579D02*
D03*
X1692275Y513080D02*
D03*
X1701165D02*
D03*
X1270635Y381000D02*
D03*
X1279525D02*
D03*
X359659Y729784D02*
D03*
X368549D02*
D03*
X379978D02*
D03*
X388868D02*
D03*
X913765Y518160D02*
D03*
X904875D02*
D03*
X909955Y391160D02*
D03*
X918845D02*
D03*
X935355D02*
D03*
X944245D02*
D03*
X755136Y608380D02*
D03*
X764026D02*
D03*
X738626Y593140D02*
D03*
X729736D02*
D03*
X779145Y557530D02*
D03*
X788035D02*
D03*
X624205Y182880D02*
D03*
X615315D02*
D03*
X502285Y264160D02*
D03*
X493395D02*
D03*
X534035D02*
D03*
X542925D02*
D03*
Y248920D02*
D03*
X534035D02*
D03*
X1345565Y314960D02*
D03*
X1336675D02*
D03*
X1340485Y391160D02*
D03*
X1331595D02*
D03*
X1246898Y435739D02*
D03*
X1255788D02*
D03*
X1325245Y294640D02*
D03*
X1334135D02*
D03*
X1199515Y293370D02*
D03*
X1190625D02*
D03*
X1185303Y384939D02*
D03*
X1176413D02*
D03*
X1185303Y395099D02*
D03*
X1176413D02*
D03*
X1185303Y405259D02*
D03*
X1176413D02*
D03*
X1185303Y415419D02*
D03*
X1176413D02*
D03*
X1270635Y391160D02*
D03*
X1279525D02*
D03*
X1185303Y374779D02*
D03*
X1176413D02*
D03*
X1270635Y411480D02*
D03*
X1279525D02*
D03*
X1270635Y421640D02*
D03*
X1279525D02*
D03*
X1270635Y431800D02*
D03*
X1279525D02*
D03*
X1270635Y441960D02*
D03*
X1279525D02*
D03*
X1270635Y401320D02*
D03*
X1279525D02*
D03*
X1185303Y425579D02*
D03*
X1176413D02*
D03*
X542925Y396240D02*
D03*
X534035D02*
D03*
X554355D02*
D03*
X563245D02*
D03*
X1881075Y472440D02*
D03*
X1889965D02*
D03*
X1834085Y182880D02*
D03*
X1825195D02*
D03*
X1850595D02*
D03*
X1859485D02*
D03*
X1834720Y218440D02*
D03*
X1843610D02*
D03*
X1900125D02*
D03*
X1891235D02*
D03*
X1931875Y355600D02*
D03*
X1940765D02*
D03*
X1931875Y345440D02*
D03*
X1940765D02*
D03*
X1879805Y304800D02*
D03*
X1870915D02*
D03*
X1879805Y314960D02*
D03*
X1870915D02*
D03*
X1901395Y182880D02*
D03*
X1910285D02*
D03*
X1889965D02*
D03*
X1881075D02*
D03*
X1920445Y111760D02*
D03*
X1911555D02*
D03*
X1815035Y116840D02*
D03*
X1823925D02*
D03*
X1850595Y472440D02*
D03*
X1859485D02*
D03*
X1977595Y370840D02*
D03*
X1986485D02*
D03*
X1977595Y381000D02*
D03*
X1986485D02*
D03*
Y401320D02*
D03*
X1977595D02*
D03*
Y411480D02*
D03*
X1986485D02*
D03*
X1911555Y472440D02*
D03*
X1920445D02*
D03*
X1950925D02*
D03*
X1942035D02*
D03*
X1820115D02*
D03*
X1829005D02*
D03*
X1778205Y431800D02*
D03*
X1769315D02*
D03*
X1778205Y421640D02*
D03*
X1769315D02*
D03*
X1778205Y406400D02*
D03*
X1769315D02*
D03*
X1778205Y396240D02*
D03*
X1769315D02*
D03*
Y381000D02*
D03*
X1778205D02*
D03*
X1769315Y370840D02*
D03*
X1778205D02*
D03*
X1529715Y458470D02*
D03*
X1538605D02*
D03*
X1518285D02*
D03*
X1509395D02*
D03*
X1550035Y443230D02*
D03*
X1558925D02*
D03*
X1473835D02*
D03*
X1482725D02*
D03*
X1477645Y285750D02*
D03*
X1468755D02*
D03*
X1477645Y275590D02*
D03*
X1468755D02*
D03*
X1558925Y270510D02*
D03*
X1550035D02*
D03*
X1558925Y280670D02*
D03*
X1550035D02*
D03*
Y290830D02*
D03*
X1558925D02*
D03*
X1604645Y106680D02*
D03*
X1595755D02*
D03*
X1483995Y214630D02*
D03*
X1492885D02*
D03*
Y204470D02*
D03*
X1483995D02*
D03*
X1482725Y106680D02*
D03*
X1473835D02*
D03*
X1483995Y245110D02*
D03*
X1492885D02*
D03*
Y224790D02*
D03*
X1483995D02*
D03*
X1492885Y234950D02*
D03*
X1483995D02*
D03*
X788035Y868680D02*
D03*
X796925D02*
D03*
X1189355Y919480D02*
D03*
X1198245D02*
D03*
X1172845D02*
D03*
X1163955D02*
D03*
X1365885Y629920D02*
D03*
X1356995D02*
D03*
X868045Y868680D02*
D03*
X859155D02*
D03*
X991235Y262890D02*
D03*
X1000125D02*
D03*
X1006475Y243840D02*
D03*
X1015365D02*
D03*
X883285D02*
D03*
X874395D02*
D03*
X441325Y152400D02*
D03*
X432435D02*
D03*
X437515Y30480D02*
D03*
X446405D02*
D03*
X580415Y909560D02*
D03*
X589305D02*
D03*
X580415Y960360D02*
D03*
X589305D02*
D03*
X1791163Y861385D02*
D03*
X1800053D02*
D03*
X1791163Y912185D02*
D03*
X1800053D02*
D03*
X1021461Y623017D02*
D03*
X838835Y622300D02*
D03*
Y655320D02*
D03*
X845185Y707390D02*
D03*
Y731520D02*
D03*
X1049401Y623017D02*
D03*
X1015365Y731520D02*
D03*
X908685D02*
D03*
X938911Y623017D02*
D03*
X968121D02*
D03*
X473075Y381000D02*
D03*
Y370840D02*
D03*
X310515Y30480D02*
D03*
X481965Y381000D02*
D03*
Y370840D02*
D03*
X319405Y30480D02*
D03*
X1030351Y623017D02*
D03*
X847725Y622300D02*
D03*
Y655320D02*
D03*
X854075Y707390D02*
D03*
Y731520D02*
D03*
X871855Y668020D02*
D03*
X880745D02*
D03*
X1040511Y623017D02*
D03*
X1006475Y731520D02*
D03*
X917575D02*
D03*
X947801Y623017D02*
D03*
X959231D02*
D03*
X871855Y702310D02*
D03*
X880745D02*
D03*
X871855Y736600D02*
D03*
X880745D02*
D03*
X871855Y725170D02*
D03*
X880745D02*
D03*
X871855Y713740D02*
D03*
X880745D02*
D03*
D141*
X935998Y643999D02*
D03*
Y707999D02*
D03*
X951998Y643999D02*
D03*
Y707999D02*
D03*
X967998Y643999D02*
D03*
Y707999D02*
D03*
X991998Y651999D02*
D03*
Y699999D02*
D03*
X1007998Y643999D02*
D03*
Y651999D02*
D03*
Y707999D02*
D03*
X1015998Y643999D02*
D03*
X1023998Y651999D02*
D03*
Y699999D02*
D03*
Y707999D02*
D03*
X1031998Y651999D02*
D03*
Y707999D02*
D03*
X1047998Y643999D02*
D03*
Y691999D02*
D03*
Y707999D02*
D03*
X1055998Y643999D02*
D03*
X935998Y651999D02*
D03*
Y659999D02*
D03*
Y691999D02*
D03*
Y699999D02*
D03*
X943998Y643999D02*
D03*
Y651999D02*
D03*
Y659999D02*
D03*
Y691999D02*
D03*
Y699999D02*
D03*
Y707999D02*
D03*
X951998Y651999D02*
D03*
Y659999D02*
D03*
Y691999D02*
D03*
Y699999D02*
D03*
X959998Y643999D02*
D03*
Y651999D02*
D03*
Y659999D02*
D03*
Y691999D02*
D03*
Y699999D02*
D03*
Y707999D02*
D03*
X967998Y651999D02*
D03*
Y659999D02*
D03*
Y691999D02*
D03*
Y699999D02*
D03*
X975998Y643999D02*
D03*
Y651999D02*
D03*
Y659999D02*
D03*
Y691999D02*
D03*
Y699999D02*
D03*
Y707999D02*
D03*
X983998Y643999D02*
D03*
Y651999D02*
D03*
Y659999D02*
D03*
Y691999D02*
D03*
Y699999D02*
D03*
Y707999D02*
D03*
X991998Y643999D02*
D03*
Y659999D02*
D03*
Y691999D02*
D03*
Y707999D02*
D03*
X999998Y643999D02*
D03*
Y651999D02*
D03*
Y659999D02*
D03*
Y691999D02*
D03*
Y699999D02*
D03*
Y707999D02*
D03*
X1007998Y659999D02*
D03*
Y691999D02*
D03*
Y699999D02*
D03*
X1015998Y651999D02*
D03*
Y659999D02*
D03*
Y691999D02*
D03*
Y699999D02*
D03*
Y707999D02*
D03*
X1023998Y643999D02*
D03*
Y659999D02*
D03*
Y691999D02*
D03*
X1031998Y643999D02*
D03*
Y659999D02*
D03*
Y691999D02*
D03*
Y699999D02*
D03*
X1039998Y643999D02*
D03*
Y651999D02*
D03*
Y659999D02*
D03*
Y691999D02*
D03*
Y699999D02*
D03*
Y707999D02*
D03*
X1047998Y651999D02*
D03*
Y659999D02*
D03*
Y699999D02*
D03*
X1055998Y651999D02*
D03*
Y659999D02*
D03*
Y691999D02*
D03*
Y699999D02*
D03*
Y707999D02*
D03*
D142*
X1753870Y614675D02*
D03*
Y598175D02*
D03*
X416560Y318130D02*
D03*
Y301630D02*
D03*
X330200Y306710D02*
D03*
Y323210D02*
D03*
X1699374Y254879D02*
D03*
Y238379D02*
D03*
X330200Y241930D02*
D03*
Y225430D02*
D03*
X416560Y241930D02*
D03*
Y225430D02*
D03*
X31750Y266070D02*
D03*
X386080Y890910D02*
D03*
X237490Y636265D02*
D03*
X31750Y282570D02*
D03*
X386080Y907410D02*
D03*
X237490Y619765D02*
D03*
D143*
X60960Y280924D02*
D03*
X51562Y257556D02*
D03*
X70358D02*
D03*
D144*
X1139190Y195580D02*
D03*
X1412240Y406400D02*
D03*
X1645920Y223520D02*
D03*
X1635760Y396240D02*
D03*
X795020Y713740D02*
D03*
X523240Y223520D02*
D03*
X1808480Y538480D02*
D03*
X1071880Y340360D02*
D03*
X1783920Y193040D02*
D03*
X1408430Y312420D02*
D03*
X431800Y899160D02*
D03*
X279400Y629920D02*
D03*
D145*
X680720Y111760D02*
D03*
X40640Y218440D02*
D03*
Y325120D02*
D03*
X1534160Y142240D02*
D03*
X873760Y303530D02*
D03*
X1732280Y553720D02*
D03*
X1117600Y482600D02*
D03*
X254000Y294640D02*
D03*
X1071880Y482600D02*
D03*
X1640840Y929640D02*
D03*
X1737360Y767080D02*
D03*
X655320Y172720D02*
D03*
D146*
X1352720Y541490D02*
D03*
X1389420D02*
D03*
D147*
X1412020Y569490D02*
D03*
X1330020D02*
D03*
Y468490D02*
D03*
D148*
X1366520Y491490D02*
D03*
D149*
X1412020Y468490D02*
D03*
D150*
X232024Y760264D02*
D03*
Y844264D02*
D03*
X589280Y751840D02*
D03*
Y835840D02*
D03*
X772160Y396240D02*
D03*
Y480240D02*
D03*
X393201Y595937D02*
D03*
Y511937D02*
D03*
D151*
X1521980Y806750D02*
D03*
X1526980D02*
D03*
X1531980D02*
D03*
X1536980D02*
D03*
X1541980D02*
D03*
X1546980D02*
D03*
X1551980D02*
D03*
X1556980D02*
D03*
X1561980D02*
D03*
X1566980D02*
D03*
X1571980D02*
D03*
X1576980D02*
D03*
X1581980D02*
D03*
X1586980D02*
D03*
X1591980D02*
D03*
X1596980D02*
D03*
X1591980Y717250D02*
D03*
X1586980D02*
D03*
X1576980D02*
D03*
X1571980D02*
D03*
X1561980D02*
D03*
X1556980D02*
D03*
X1551980D02*
D03*
X1546980D02*
D03*
X1536980D02*
D03*
X1531980D02*
D03*
X1521980D02*
D03*
X1596980D02*
D03*
X1581980D02*
D03*
X1566980D02*
D03*
X1541980D02*
D03*
X1526980D02*
D03*
X1481420Y589580D02*
D03*
X1486420D02*
D03*
X1491420D02*
D03*
X1496420D02*
D03*
X1501420D02*
D03*
X1506420D02*
D03*
X1511420D02*
D03*
X1516420D02*
D03*
X1521420D02*
D03*
X1526420D02*
D03*
X1531420D02*
D03*
X1536420D02*
D03*
X1541420D02*
D03*
X1546420D02*
D03*
X1551420D02*
D03*
X1556420D02*
D03*
Y500080D02*
D03*
X1551420D02*
D03*
X1546420D02*
D03*
X1541420D02*
D03*
X1536420D02*
D03*
X1531420D02*
D03*
X1526420D02*
D03*
X1521420D02*
D03*
X1516420D02*
D03*
X1511420D02*
D03*
X1506420D02*
D03*
X1501420D02*
D03*
X1496420D02*
D03*
X1491420D02*
D03*
X1486420D02*
D03*
X1481420D02*
D03*
D152*
X1604230Y799500D02*
D03*
Y789500D02*
D03*
Y784500D02*
D03*
Y774500D02*
D03*
Y764500D02*
D03*
Y759500D02*
D03*
Y749500D02*
D03*
Y744500D02*
D03*
Y724500D02*
D03*
X1514730D02*
D03*
Y734500D02*
D03*
Y739500D02*
D03*
Y744500D02*
D03*
Y754500D02*
D03*
Y759500D02*
D03*
Y769500D02*
D03*
Y774500D02*
D03*
Y784500D02*
D03*
Y789500D02*
D03*
Y794500D02*
D03*
X1604230D02*
D03*
Y779500D02*
D03*
Y769500D02*
D03*
Y754500D02*
D03*
Y734500D02*
D03*
Y729500D02*
D03*
X1514730D02*
D03*
Y749500D02*
D03*
Y764500D02*
D03*
Y779500D02*
D03*
Y799500D02*
D03*
X1604230Y739500D02*
D03*
X1563670Y582330D02*
D03*
Y577330D02*
D03*
Y572330D02*
D03*
Y567330D02*
D03*
Y562330D02*
D03*
Y557330D02*
D03*
Y552330D02*
D03*
Y547330D02*
D03*
Y542330D02*
D03*
Y537330D02*
D03*
Y532330D02*
D03*
Y527330D02*
D03*
Y522330D02*
D03*
Y517330D02*
D03*
Y512330D02*
D03*
Y507330D02*
D03*
X1474170D02*
D03*
Y512330D02*
D03*
Y517330D02*
D03*
Y522330D02*
D03*
Y527330D02*
D03*
Y532330D02*
D03*
Y537330D02*
D03*
Y542330D02*
D03*
Y547330D02*
D03*
Y552330D02*
D03*
Y557330D02*
D03*
Y562330D02*
D03*
Y567330D02*
D03*
Y572330D02*
D03*
Y577330D02*
D03*
Y582330D02*
D03*
D153*
X1559480Y762000D02*
D03*
X1518920Y544830D02*
D03*
D154*
X1620440Y739140D02*
D03*
X1626028D02*
D03*
X1494710Y777240D02*
D03*
X1489122D02*
D03*
X1504108Y732360D02*
D03*
X1498520D02*
D03*
X1615360Y798400D02*
D03*
X1620948D02*
D03*
X404743Y729784D02*
D03*
X410331D02*
D03*
X404743Y719624D02*
D03*
X410331D02*
D03*
X1834720Y330200D02*
D03*
X1829132D02*
D03*
X1834720Y340360D02*
D03*
X1829132D02*
D03*
X1511554Y610870D02*
D03*
X1505966D02*
D03*
X1511554Y600710D02*
D03*
X1505966D02*
D03*
D155*
X1578172Y920265D02*
D03*
X1549216D02*
D03*
X1345438Y335280D02*
D03*
X1316482D02*
D03*
X1250442Y472440D02*
D03*
X1279398D02*
D03*
D156*
X1580480Y884760D02*
D03*
Y833960D02*
D03*
Y859360D02*
D03*
X1538480D02*
D03*
Y884760D02*
D03*
Y833960D02*
D03*
D157*
X670280Y570930D02*
D03*
Y610930D02*
D03*
Y650930D02*
D03*
X468280D02*
D03*
Y610930D02*
D03*
Y570930D02*
D03*
Y530930D02*
D03*
X670280D02*
D03*
Y490930D02*
D03*
X468280D02*
D03*
D158*
X549280Y463680D02*
D03*
X589280D02*
D03*
X629280D02*
D03*
Y678180D02*
D03*
X509280D02*
D03*
Y463680D02*
D03*
X549280Y678180D02*
D03*
X589280D02*
D03*
D159*
X1723753Y459765D02*
D03*
X1675753D02*
D03*
Y466265D02*
D03*
X1723753Y485765D02*
D03*
X1675753D02*
D03*
X1723753Y479265D02*
D03*
X1675753D02*
D03*
Y472765D02*
D03*
X1723753D02*
D03*
Y466265D02*
D03*
D160*
X1686754Y496764D02*
D03*
X1693254D02*
D03*
X1699754D02*
D03*
X1706254D02*
D03*
X1712754D02*
D03*
Y448764D02*
D03*
X1706254D02*
D03*
X1699754D02*
D03*
X1693254D02*
D03*
X1686754D02*
D03*
X1870280Y524640D02*
D03*
X1883280D02*
D03*
X1876780D02*
D03*
X1857280Y572640D02*
D03*
X1863780D02*
D03*
X1870280D02*
D03*
X1876780D02*
D03*
X1883280D02*
D03*
X1863780Y524640D02*
D03*
X1857280D02*
D03*
X1646000Y325220D02*
D03*
X1652500D02*
D03*
X1659000D02*
D03*
X1665500D02*
D03*
X1659000Y277220D02*
D03*
X1652500D02*
D03*
X1639500Y325220D02*
D03*
X1665500Y277220D02*
D03*
X1646000D02*
D03*
X1639500D02*
D03*
X1687820Y638680D02*
D03*
X1694320D02*
D03*
X1681320D02*
D03*
X1668320D02*
D03*
X1674820D02*
D03*
X1694320Y590680D02*
D03*
X1687820D02*
D03*
X1681320D02*
D03*
X1674820D02*
D03*
X1668320D02*
D03*
D161*
X1699754Y472765D02*
D03*
D162*
X1894280Y555140D02*
D03*
Y548640D02*
D03*
Y542140D02*
D03*
Y535640D02*
D03*
X1846280D02*
D03*
Y542140D02*
D03*
Y561640D02*
D03*
X1894280D02*
D03*
X1846280Y548640D02*
D03*
Y555140D02*
D03*
X1676500Y301220D02*
D03*
Y294720D02*
D03*
Y288220D02*
D03*
Y314220D02*
D03*
Y307720D02*
D03*
X1628500Y288220D02*
D03*
Y294720D02*
D03*
Y301220D02*
D03*
Y307720D02*
D03*
Y314220D02*
D03*
X1705320Y614680D02*
D03*
Y608180D02*
D03*
X1657320D02*
D03*
Y614680D02*
D03*
Y621180D02*
D03*
Y627680D02*
D03*
X1705320D02*
D03*
Y621180D02*
D03*
Y601680D02*
D03*
X1657320D02*
D03*
D163*
X1870280Y548640D02*
D03*
X1681320Y614680D02*
D03*
D164*
X401640Y125190D02*
D03*
X441640Y57690D02*
D03*
Y125190D02*
D03*
X401640Y57690D02*
D03*
X314640D02*
D03*
X274640Y125190D02*
D03*
Y57690D02*
D03*
X314640Y125190D02*
D03*
X787080Y895890D02*
D03*
X747080Y963390D02*
D03*
Y895890D02*
D03*
X787080Y963390D02*
D03*
D165*
X661924Y402082D02*
D03*
Y420878D02*
D03*
X638556Y411480D02*
D03*
D166*
X142240Y929640D02*
D03*
X1117600Y276860D02*
D03*
X645160Y269240D02*
D03*
X1986280Y675640D02*
D03*
D167*
X203200Y199020D02*
D03*
Y248020D02*
D03*
D168*
X152080Y325120D02*
D03*
X112080D02*
D03*
D169*
X149800Y284260D02*
D03*
X104200D02*
D03*
D170*
X127000Y213260D02*
D03*
D171*
X203200Y95150D02*
D03*
Y158850D02*
D03*
D172*
X1652500Y301220D02*
D03*
D173*
X1513840Y280670D02*
D03*
D174*
X1493340Y268170D02*
D03*
Y273170D02*
D03*
Y278170D02*
D03*
Y283170D02*
D03*
Y288170D02*
D03*
Y293170D02*
D03*
X1534340D02*
D03*
Y288170D02*
D03*
Y283170D02*
D03*
Y278170D02*
D03*
Y273170D02*
D03*
Y268170D02*
D03*
D175*
X1501340Y301170D02*
D03*
X1506340D02*
D03*
X1511340D02*
D03*
X1516340D02*
D03*
X1521340D02*
D03*
X1526340D02*
D03*
Y260170D02*
D03*
X1521340D02*
D03*
X1516340D02*
D03*
X1511340D02*
D03*
X1506340D02*
D03*
X1501340D02*
D03*
D176*
X626510Y167560D02*
D03*
Y157560D02*
D03*
X613010D02*
D03*
Y162560D02*
D03*
Y167560D02*
D03*
D177*
X531630Y167640D02*
D03*
X596130Y180340D02*
D03*
Y154940D02*
D03*
X531630D02*
D03*
Y180340D02*
D03*
D178*
X544449Y375475D02*
D03*
X557149D02*
D03*
X569849D02*
D03*
X582549D02*
D03*
X595249Y284925D02*
D03*
X582549D02*
D03*
X569849D02*
D03*
X557149D02*
D03*
X506349D02*
D03*
X519049D02*
D03*
X531749D02*
D03*
X544449D02*
D03*
X531749Y375475D02*
D03*
X506349D02*
D03*
X519049D02*
D03*
X595249D02*
D03*
D179*
X1339210Y358010D02*
D03*
X1322710D02*
D03*
X1339210Y373510D02*
D03*
X1322710D02*
D03*
D180*
X1204860Y381360D02*
D03*
Y386360D02*
D03*
Y391360D02*
D03*
Y396360D02*
D03*
Y401360D02*
D03*
Y406360D02*
D03*
Y411360D02*
D03*
Y416360D02*
D03*
X1253860D02*
D03*
Y411360D02*
D03*
Y406360D02*
D03*
Y401360D02*
D03*
Y396360D02*
D03*
Y391360D02*
D03*
Y386360D02*
D03*
Y381360D02*
D03*
D181*
X1211860Y423360D02*
D03*
X1216860D02*
D03*
X1221860D02*
D03*
X1226860D02*
D03*
X1231860D02*
D03*
X1236860D02*
D03*
X1241860D02*
D03*
X1246860Y374360D02*
D03*
X1241860D02*
D03*
X1236860D02*
D03*
X1231860D02*
D03*
X1226860D02*
D03*
X1216860D02*
D03*
X1246860Y423360D02*
D03*
X1221860Y374360D02*
D03*
X1211860D02*
D03*
D182*
X1229360Y398860D02*
D03*
D183*
X1605280Y127000D02*
D03*
X1483360D02*
D03*
X1819480Y137160D02*
D03*
X1921080D02*
D03*
X1855040Y259080D02*
D03*
X1834720D02*
D03*
X1910920D02*
D03*
X1890600D02*
D03*
X1488440Y346710D02*
D03*
X1468120D02*
D03*
X1564640Y346380D02*
D03*
X1544320Y346710D02*
D03*
D184*
X1907940Y331010D02*
D03*
X1902940D02*
D03*
X1897940D02*
D03*
X1892940D02*
D03*
X1882940D02*
D03*
X1877940D02*
D03*
X1867940D02*
D03*
X1862940D02*
D03*
X1857940D02*
D03*
X1852940D02*
D03*
Y400510D02*
D03*
X1857940D02*
D03*
X1862940D02*
D03*
X1867940D02*
D03*
X1872940D02*
D03*
X1877940D02*
D03*
X1882940D02*
D03*
X1887940D02*
D03*
X1892940D02*
D03*
X1897940D02*
D03*
X1902940D02*
D03*
X1907940D02*
D03*
X1887940Y331010D02*
D03*
X1872940D02*
D03*
D185*
X1845690Y338260D02*
D03*
Y343260D02*
D03*
Y348260D02*
D03*
Y353260D02*
D03*
Y358260D02*
D03*
Y363260D02*
D03*
Y368260D02*
D03*
Y373260D02*
D03*
Y378260D02*
D03*
Y383260D02*
D03*
Y388260D02*
D03*
Y393260D02*
D03*
X1915190D02*
D03*
Y388260D02*
D03*
Y383260D02*
D03*
Y378260D02*
D03*
Y373260D02*
D03*
Y368260D02*
D03*
Y363260D02*
D03*
Y353260D02*
D03*
Y348260D02*
D03*
Y343260D02*
D03*
Y338260D02*
D03*
Y358260D02*
D03*
D186*
X1880440Y365760D02*
D03*
D187*
X1834720Y243510D02*
D03*
Y234010D02*
D03*
X1849960Y243510D02*
D03*
Y234010D02*
D03*
X1890600Y243180D02*
D03*
Y233680D02*
D03*
X1905840Y243180D02*
D03*
Y233680D02*
D03*
X1468120Y382600D02*
D03*
Y392100D02*
D03*
X1564640Y382600D02*
D03*
Y392100D02*
D03*
X1544320Y382600D02*
D03*
Y392100D02*
D03*
X1488440Y382600D02*
D03*
Y392100D02*
D03*
D188*
X1896110Y137160D02*
D03*
Y143660D02*
D03*
Y150160D02*
D03*
Y156660D02*
D03*
X1854610Y137160D02*
D03*
Y143660D02*
D03*
Y150160D02*
D03*
Y156660D02*
D03*
D189*
X812800Y969940D02*
D03*
Y950300D02*
D03*
Y909660D02*
D03*
X467360Y66380D02*
D03*
Y101940D02*
D03*
X340360Y80940D02*
D03*
X1048290Y956780D02*
D03*
X1068610Y977780D02*
D03*
X467360Y116500D02*
D03*
X340360D02*
D03*
Y66380D02*
D03*
X1088930Y977780D02*
D03*
D190*
X812800Y990940D02*
D03*
Y929300D02*
D03*
Y888660D02*
D03*
X467360Y45380D02*
D03*
Y80940D02*
D03*
X340360Y101940D02*
D03*
X1048290Y977780D02*
D03*
X1068610Y956780D02*
D03*
X467360Y137500D02*
D03*
X340360D02*
D03*
Y45380D02*
D03*
X1088930Y956780D02*
D03*
D191*
X902630Y180280D02*
D03*
X909130D02*
D03*
X915630D02*
D03*
X922130D02*
D03*
X928630D02*
D03*
X935130D02*
D03*
X941630D02*
D03*
X948130D02*
D03*
X954630D02*
D03*
X961130D02*
D03*
X967630D02*
D03*
X974130D02*
D03*
X980630D02*
D03*
X987130D02*
D03*
X902630Y236280D02*
D03*
X909130D02*
D03*
X915630D02*
D03*
X922130D02*
D03*
X928630D02*
D03*
X935130D02*
D03*
X941630D02*
D03*
X948130D02*
D03*
X954630D02*
D03*
X961130D02*
D03*
X967630D02*
D03*
X974130D02*
D03*
X980630D02*
D03*
X987130D02*
D03*
D192*
X924560Y287030D02*
D03*
X1008939Y287020D02*
D03*
D193*
X938560Y319530D02*
D03*
X1022939Y319520D02*
D03*
D194*
X910560Y319530D02*
D03*
X994939Y319520D02*
D03*
D195*
X1780703Y896285D02*
D03*
Y886785D02*
D03*
Y877285D02*
D03*
X1806703D02*
D03*
Y896285D02*
D03*
X571530Y944460D02*
D03*
Y934960D02*
D03*
Y925460D02*
D03*
X597530D02*
D03*
Y944460D02*
D03*
D196*
X1100450Y411480D02*
D03*
X1083950D02*
D03*
X1414150Y375920D02*
D03*
X721355Y687070D02*
D03*
X1796410Y492760D02*
D03*
X52710Y367030D02*
D03*
X69210D02*
D03*
X1430650Y375920D02*
D03*
X704855Y687070D02*
D03*
X1779910Y492760D02*
D03*
D197*
X1389998Y649999D02*
D03*
Y899999D02*
D03*
X1379998Y699999D02*
D03*
Y739999D02*
D03*
Y779999D02*
D03*
Y819999D02*
D03*
Y859999D02*
D03*
X1359998Y679999D02*
D03*
Y719999D02*
D03*
Y839999D02*
D03*
X1349998Y659999D02*
D03*
Y759999D02*
D03*
Y799999D02*
D03*
X1339998Y889999D02*
D03*
X1329998Y689999D02*
D03*
Y839999D02*
D03*
X1319998Y729999D02*
D03*
Y789999D02*
D03*
Y869999D02*
D03*
X1309998Y659999D02*
D03*
X1299998Y889999D02*
D03*
X1289998Y689999D02*
D03*
Y719999D02*
D03*
Y749999D02*
D03*
Y769999D02*
D03*
Y789999D02*
D03*
Y809999D02*
D03*
Y839999D02*
D03*
X1279998Y759999D02*
D03*
Y779999D02*
D03*
Y799999D02*
D03*
Y859999D02*
D03*
X1269998Y659999D02*
D03*
Y749999D02*
D03*
Y769999D02*
D03*
Y789999D02*
D03*
X1259998Y759999D02*
D03*
Y779999D02*
D03*
Y799999D02*
D03*
Y889999D02*
D03*
X1249998Y689999D02*
D03*
Y749999D02*
D03*
Y769999D02*
D03*
Y789999D02*
D03*
Y829999D02*
D03*
X1239998Y739999D02*
D03*
Y759999D02*
D03*
Y779999D02*
D03*
Y799999D02*
D03*
Y859999D02*
D03*
X1229998Y659999D02*
D03*
X1219998Y889999D02*
D03*
X1209998Y699999D02*
D03*
Y729999D02*
D03*
Y779999D02*
D03*
X1199998Y829999D02*
D03*
Y859999D02*
D03*
X1189998Y659999D02*
D03*
Y799999D02*
D03*
X1179998Y689999D02*
D03*
Y759999D02*
D03*
Y889999D02*
D03*
X1169998Y719999D02*
D03*
Y839999D02*
D03*
Y879999D02*
D03*
X1149998Y699999D02*
D03*
Y739999D02*
D03*
Y779999D02*
D03*
Y819999D02*
D03*
Y859999D02*
D03*
X1139998Y649999D02*
D03*
Y899999D02*
D03*
X1339998Y769999D02*
D03*
X1379998Y679999D02*
D03*
Y719999D02*
D03*
Y759999D02*
D03*
Y799999D02*
D03*
Y839999D02*
D03*
Y879999D02*
D03*
X1369998Y659999D02*
D03*
X1359998Y699999D02*
D03*
Y739999D02*
D03*
Y779999D02*
D03*
Y829999D02*
D03*
X1349998Y749999D02*
D03*
X1339998Y699999D02*
D03*
Y729999D02*
D03*
Y809999D02*
D03*
Y829999D02*
D03*
Y849999D02*
D03*
Y869999D02*
D03*
X1329998Y659999D02*
D03*
Y759999D02*
D03*
Y799999D02*
D03*
X1319998Y889999D02*
D03*
X1309998Y679999D02*
D03*
Y729999D02*
D03*
Y779999D02*
D03*
Y819999D02*
D03*
X1299998Y709999D02*
D03*
Y769999D02*
D03*
Y849999D02*
D03*
Y869999D02*
D03*
X1289998Y659999D02*
D03*
X1279998Y709999D02*
D03*
Y839999D02*
D03*
Y889999D02*
D03*
X1269998Y689999D02*
D03*
Y739999D02*
D03*
X1259998Y719999D02*
D03*
Y809999D02*
D03*
Y859999D02*
D03*
X1249998Y659999D02*
D03*
Y709999D02*
D03*
X1239998Y849999D02*
D03*
Y889999D02*
D03*
X1229998Y679999D02*
D03*
Y759999D02*
D03*
Y839999D02*
D03*
X1219998Y709999D02*
D03*
Y729999D02*
D03*
Y809999D02*
D03*
Y869999D02*
D03*
X1209998Y659999D02*
D03*
Y839999D02*
D03*
X1199998Y759999D02*
D03*
Y889999D02*
D03*
X1189998Y699999D02*
D03*
Y819999D02*
D03*
Y849999D02*
D03*
Y869999D02*
D03*
X1179998Y669999D02*
D03*
Y749999D02*
D03*
X1169998Y779999D02*
D03*
Y829999D02*
D03*
Y859999D02*
D03*
X1149998Y799999D02*
D03*
Y839999D02*
D03*
Y879999D02*
D03*
X1389998Y659999D02*
D03*
Y679999D02*
D03*
Y669999D02*
D03*
Y689999D02*
D03*
Y699999D02*
D03*
Y719999D02*
D03*
Y729999D02*
D03*
Y739999D02*
D03*
Y759999D02*
D03*
Y749999D02*
D03*
Y709999D02*
D03*
Y769999D02*
D03*
Y779999D02*
D03*
Y789999D02*
D03*
Y799999D02*
D03*
Y819999D02*
D03*
Y809999D02*
D03*
Y829999D02*
D03*
Y869999D02*
D03*
Y879999D02*
D03*
Y859999D02*
D03*
Y849999D02*
D03*
Y839999D02*
D03*
Y889999D02*
D03*
X1379998Y649999D02*
D03*
Y659999D02*
D03*
Y669999D02*
D03*
Y689999D02*
D03*
Y709999D02*
D03*
Y729999D02*
D03*
Y749999D02*
D03*
Y769999D02*
D03*
Y789999D02*
D03*
Y809999D02*
D03*
Y829999D02*
D03*
Y849999D02*
D03*
Y869999D02*
D03*
Y889999D02*
D03*
Y899999D02*
D03*
X1369998Y649999D02*
D03*
Y669999D02*
D03*
Y679999D02*
D03*
Y689999D02*
D03*
Y699999D02*
D03*
Y709999D02*
D03*
Y719999D02*
D03*
Y729999D02*
D03*
Y739999D02*
D03*
Y749999D02*
D03*
Y759999D02*
D03*
Y769999D02*
D03*
Y779999D02*
D03*
Y789999D02*
D03*
Y799999D02*
D03*
Y809999D02*
D03*
Y819999D02*
D03*
Y829999D02*
D03*
Y839999D02*
D03*
Y849999D02*
D03*
Y859999D02*
D03*
Y869999D02*
D03*
Y879999D02*
D03*
Y889999D02*
D03*
Y899999D02*
D03*
X1359998Y649999D02*
D03*
Y659999D02*
D03*
Y669999D02*
D03*
Y689999D02*
D03*
Y709999D02*
D03*
Y729999D02*
D03*
Y749999D02*
D03*
Y759999D02*
D03*
Y769999D02*
D03*
Y789999D02*
D03*
Y799999D02*
D03*
Y809999D02*
D03*
Y819999D02*
D03*
Y849999D02*
D03*
Y859999D02*
D03*
Y869999D02*
D03*
Y879999D02*
D03*
Y889999D02*
D03*
Y899999D02*
D03*
X1349998Y649999D02*
D03*
Y669999D02*
D03*
Y679999D02*
D03*
Y689999D02*
D03*
Y699999D02*
D03*
Y709999D02*
D03*
Y719999D02*
D03*
Y729999D02*
D03*
Y739999D02*
D03*
Y769999D02*
D03*
Y779999D02*
D03*
Y789999D02*
D03*
Y809999D02*
D03*
Y819999D02*
D03*
Y829999D02*
D03*
Y839999D02*
D03*
Y849999D02*
D03*
Y859999D02*
D03*
Y869999D02*
D03*
Y879999D02*
D03*
Y889999D02*
D03*
Y899999D02*
D03*
X1339998Y649999D02*
D03*
Y659999D02*
D03*
Y669999D02*
D03*
Y679999D02*
D03*
Y689999D02*
D03*
Y709999D02*
D03*
Y719999D02*
D03*
Y739999D02*
D03*
Y749999D02*
D03*
Y759999D02*
D03*
Y779999D02*
D03*
Y789999D02*
D03*
Y799999D02*
D03*
Y819999D02*
D03*
Y839999D02*
D03*
Y859999D02*
D03*
Y879999D02*
D03*
Y899999D02*
D03*
X1329998Y649999D02*
D03*
Y669999D02*
D03*
Y679999D02*
D03*
Y699999D02*
D03*
Y709999D02*
D03*
Y719999D02*
D03*
Y729999D02*
D03*
Y739999D02*
D03*
Y749999D02*
D03*
Y769999D02*
D03*
Y779999D02*
D03*
Y789999D02*
D03*
Y809999D02*
D03*
Y819999D02*
D03*
Y829999D02*
D03*
Y849999D02*
D03*
Y859999D02*
D03*
Y869999D02*
D03*
Y879999D02*
D03*
Y889999D02*
D03*
Y899999D02*
D03*
X1319998Y649999D02*
D03*
Y659999D02*
D03*
Y669999D02*
D03*
Y679999D02*
D03*
Y689999D02*
D03*
Y699999D02*
D03*
Y709999D02*
D03*
Y719999D02*
D03*
Y739999D02*
D03*
Y749999D02*
D03*
Y759999D02*
D03*
Y769999D02*
D03*
Y779999D02*
D03*
Y799999D02*
D03*
Y809999D02*
D03*
Y819999D02*
D03*
Y829999D02*
D03*
Y839999D02*
D03*
Y849999D02*
D03*
Y859999D02*
D03*
Y879999D02*
D03*
Y899999D02*
D03*
X1309998Y649999D02*
D03*
Y669999D02*
D03*
Y689999D02*
D03*
Y699999D02*
D03*
Y709999D02*
D03*
Y719999D02*
D03*
Y739999D02*
D03*
Y749999D02*
D03*
Y759999D02*
D03*
Y769999D02*
D03*
Y789999D02*
D03*
Y799999D02*
D03*
Y809999D02*
D03*
Y829999D02*
D03*
Y839999D02*
D03*
Y849999D02*
D03*
Y859999D02*
D03*
Y869999D02*
D03*
Y879999D02*
D03*
Y889999D02*
D03*
Y899999D02*
D03*
X1299998Y649999D02*
D03*
Y659999D02*
D03*
Y669999D02*
D03*
Y679999D02*
D03*
Y689999D02*
D03*
Y699999D02*
D03*
Y719999D02*
D03*
Y729999D02*
D03*
Y739999D02*
D03*
Y749999D02*
D03*
Y759999D02*
D03*
Y779999D02*
D03*
Y789999D02*
D03*
Y799999D02*
D03*
Y809999D02*
D03*
Y819999D02*
D03*
Y829999D02*
D03*
Y839999D02*
D03*
Y859999D02*
D03*
Y879999D02*
D03*
Y899999D02*
D03*
X1289998Y649999D02*
D03*
Y669999D02*
D03*
Y679999D02*
D03*
Y699999D02*
D03*
Y709999D02*
D03*
Y729999D02*
D03*
Y739999D02*
D03*
Y759999D02*
D03*
Y779999D02*
D03*
Y799999D02*
D03*
Y819999D02*
D03*
Y829999D02*
D03*
Y849999D02*
D03*
Y859999D02*
D03*
Y869999D02*
D03*
Y879999D02*
D03*
Y889999D02*
D03*
Y899999D02*
D03*
X1279998Y649999D02*
D03*
Y659999D02*
D03*
Y669999D02*
D03*
Y679999D02*
D03*
Y689999D02*
D03*
Y699999D02*
D03*
Y719999D02*
D03*
Y729999D02*
D03*
Y739999D02*
D03*
Y749999D02*
D03*
Y769999D02*
D03*
Y789999D02*
D03*
Y809999D02*
D03*
Y819999D02*
D03*
Y829999D02*
D03*
Y849999D02*
D03*
Y869999D02*
D03*
Y879999D02*
D03*
Y899999D02*
D03*
X1269998Y649999D02*
D03*
Y669999D02*
D03*
Y679999D02*
D03*
Y699999D02*
D03*
Y709999D02*
D03*
Y719999D02*
D03*
Y729999D02*
D03*
Y759999D02*
D03*
Y779999D02*
D03*
Y799999D02*
D03*
Y809999D02*
D03*
Y819999D02*
D03*
Y829999D02*
D03*
Y839999D02*
D03*
Y849999D02*
D03*
Y859999D02*
D03*
Y869999D02*
D03*
Y879999D02*
D03*
Y889999D02*
D03*
Y899999D02*
D03*
X1259998Y649999D02*
D03*
Y659999D02*
D03*
Y669999D02*
D03*
Y679999D02*
D03*
Y689999D02*
D03*
Y699999D02*
D03*
Y709999D02*
D03*
Y729999D02*
D03*
Y739999D02*
D03*
Y749999D02*
D03*
Y769999D02*
D03*
Y789999D02*
D03*
Y819999D02*
D03*
Y829999D02*
D03*
Y839999D02*
D03*
Y849999D02*
D03*
Y869999D02*
D03*
Y879999D02*
D03*
Y899999D02*
D03*
X1249998Y649999D02*
D03*
Y669999D02*
D03*
Y679999D02*
D03*
Y699999D02*
D03*
Y719999D02*
D03*
Y729999D02*
D03*
Y739999D02*
D03*
Y759999D02*
D03*
Y779999D02*
D03*
Y799999D02*
D03*
Y809999D02*
D03*
Y819999D02*
D03*
Y839999D02*
D03*
Y849999D02*
D03*
Y859999D02*
D03*
Y869999D02*
D03*
Y879999D02*
D03*
Y889999D02*
D03*
Y899999D02*
D03*
X1239998Y649999D02*
D03*
Y659999D02*
D03*
Y669999D02*
D03*
Y679999D02*
D03*
Y689999D02*
D03*
Y699999D02*
D03*
Y709999D02*
D03*
Y719999D02*
D03*
Y729999D02*
D03*
Y749999D02*
D03*
Y769999D02*
D03*
Y789999D02*
D03*
Y809999D02*
D03*
Y819999D02*
D03*
Y829999D02*
D03*
Y839999D02*
D03*
Y869999D02*
D03*
Y879999D02*
D03*
Y899999D02*
D03*
X1229998Y649999D02*
D03*
Y669999D02*
D03*
Y689999D02*
D03*
Y699999D02*
D03*
Y709999D02*
D03*
Y719999D02*
D03*
Y729999D02*
D03*
Y739999D02*
D03*
Y749999D02*
D03*
Y769999D02*
D03*
Y779999D02*
D03*
Y789999D02*
D03*
Y799999D02*
D03*
Y809999D02*
D03*
Y819999D02*
D03*
Y829999D02*
D03*
Y849999D02*
D03*
Y859999D02*
D03*
Y869999D02*
D03*
Y879999D02*
D03*
Y889999D02*
D03*
Y899999D02*
D03*
X1219998Y649999D02*
D03*
Y659999D02*
D03*
Y669999D02*
D03*
Y679999D02*
D03*
Y689999D02*
D03*
Y699999D02*
D03*
Y719999D02*
D03*
Y739999D02*
D03*
Y749999D02*
D03*
Y759999D02*
D03*
Y769999D02*
D03*
Y779999D02*
D03*
Y789999D02*
D03*
Y799999D02*
D03*
Y819999D02*
D03*
Y829999D02*
D03*
Y839999D02*
D03*
Y849999D02*
D03*
Y859999D02*
D03*
Y879999D02*
D03*
Y899999D02*
D03*
X1209998Y649999D02*
D03*
Y669999D02*
D03*
Y679999D02*
D03*
Y689999D02*
D03*
Y709999D02*
D03*
Y719999D02*
D03*
Y739999D02*
D03*
Y749999D02*
D03*
Y759999D02*
D03*
Y769999D02*
D03*
Y789999D02*
D03*
Y799999D02*
D03*
Y809999D02*
D03*
Y819999D02*
D03*
Y829999D02*
D03*
Y849999D02*
D03*
Y859999D02*
D03*
Y869999D02*
D03*
Y879999D02*
D03*
Y889999D02*
D03*
Y899999D02*
D03*
X1199998Y649999D02*
D03*
Y659999D02*
D03*
Y669999D02*
D03*
Y679999D02*
D03*
Y689999D02*
D03*
Y699999D02*
D03*
Y709999D02*
D03*
Y719999D02*
D03*
Y729999D02*
D03*
Y739999D02*
D03*
Y749999D02*
D03*
Y769999D02*
D03*
Y779999D02*
D03*
Y789999D02*
D03*
Y799999D02*
D03*
Y809999D02*
D03*
Y819999D02*
D03*
Y839999D02*
D03*
Y849999D02*
D03*
Y869999D02*
D03*
Y879999D02*
D03*
Y899999D02*
D03*
X1189998Y649999D02*
D03*
Y669999D02*
D03*
Y679999D02*
D03*
Y689999D02*
D03*
Y709999D02*
D03*
Y719999D02*
D03*
Y729999D02*
D03*
Y739999D02*
D03*
Y749999D02*
D03*
Y759999D02*
D03*
Y769999D02*
D03*
Y779999D02*
D03*
Y789999D02*
D03*
Y809999D02*
D03*
Y829999D02*
D03*
Y839999D02*
D03*
Y859999D02*
D03*
Y879999D02*
D03*
Y889999D02*
D03*
Y899999D02*
D03*
X1179998Y649999D02*
D03*
Y659999D02*
D03*
Y679999D02*
D03*
Y699999D02*
D03*
Y709999D02*
D03*
Y719999D02*
D03*
Y729999D02*
D03*
Y739999D02*
D03*
Y769999D02*
D03*
Y779999D02*
D03*
Y789999D02*
D03*
Y799999D02*
D03*
Y809999D02*
D03*
Y819999D02*
D03*
Y829999D02*
D03*
Y839999D02*
D03*
Y849999D02*
D03*
Y859999D02*
D03*
Y869999D02*
D03*
Y879999D02*
D03*
Y899999D02*
D03*
X1169998Y649999D02*
D03*
Y659999D02*
D03*
Y669999D02*
D03*
Y679999D02*
D03*
Y689999D02*
D03*
Y699999D02*
D03*
Y709999D02*
D03*
Y729999D02*
D03*
Y739999D02*
D03*
Y749999D02*
D03*
Y759999D02*
D03*
Y769999D02*
D03*
Y789999D02*
D03*
Y799999D02*
D03*
Y809999D02*
D03*
Y819999D02*
D03*
Y849999D02*
D03*
Y869999D02*
D03*
Y889999D02*
D03*
Y899999D02*
D03*
X1159998Y649999D02*
D03*
Y659999D02*
D03*
Y669999D02*
D03*
Y679999D02*
D03*
Y689999D02*
D03*
Y699999D02*
D03*
Y709999D02*
D03*
Y719999D02*
D03*
Y729999D02*
D03*
Y739999D02*
D03*
Y749999D02*
D03*
Y759999D02*
D03*
Y769999D02*
D03*
Y779999D02*
D03*
Y789999D02*
D03*
Y799999D02*
D03*
Y809999D02*
D03*
Y819999D02*
D03*
Y829999D02*
D03*
Y839999D02*
D03*
Y849999D02*
D03*
Y859999D02*
D03*
Y869999D02*
D03*
Y879999D02*
D03*
Y889999D02*
D03*
Y899999D02*
D03*
X1149998Y649999D02*
D03*
Y659999D02*
D03*
Y669999D02*
D03*
Y679999D02*
D03*
Y689999D02*
D03*
Y709999D02*
D03*
Y719999D02*
D03*
Y729999D02*
D03*
Y749999D02*
D03*
Y759999D02*
D03*
Y769999D02*
D03*
Y789999D02*
D03*
Y809999D02*
D03*
Y829999D02*
D03*
Y849999D02*
D03*
Y869999D02*
D03*
Y889999D02*
D03*
Y899999D02*
D03*
X1139998Y659999D02*
D03*
Y669999D02*
D03*
Y679999D02*
D03*
Y689999D02*
D03*
Y699999D02*
D03*
Y709999D02*
D03*
Y719999D02*
D03*
Y729999D02*
D03*
Y739999D02*
D03*
Y749999D02*
D03*
Y759999D02*
D03*
Y769999D02*
D03*
Y779999D02*
D03*
Y789999D02*
D03*
Y799999D02*
D03*
Y809999D02*
D03*
Y819999D02*
D03*
Y829999D02*
D03*
Y839999D02*
D03*
Y849999D02*
D03*
Y859999D02*
D03*
Y869999D02*
D03*
Y879999D02*
D03*
Y889999D02*
D03*
D198*
X960120Y902716D02*
D03*
X863600Y978916D02*
D03*
Y966216D02*
D03*
X960120Y890016D02*
D03*
X863600D02*
D03*
Y902716D02*
D03*
Y915416D02*
D03*
Y953516D02*
D03*
Y940816D02*
D03*
Y928116D02*
D03*
X960120Y915416D02*
D03*
Y978916D02*
D03*
Y966216D02*
D03*
Y953516D02*
D03*
Y940816D02*
D03*
Y928116D02*
D03*
D199*
X271281Y460731D02*
D03*
X233181D02*
D03*
X245881D02*
D03*
X258581D02*
D03*
X283981D02*
D03*
X296681D02*
D03*
X309381D02*
D03*
D200*
X271281Y533781D02*
D03*
D201*
X1696720Y144780D02*
D03*
X1957465Y931171D02*
D03*
X53340Y949960D02*
D03*
X402580Y380655D02*
D03*
D202*
X1443830Y976167D02*
D03*
X1041830Y573167D02*
D03*
D203*
X1915160Y50720D02*
D03*
X1940560Y76120D02*
D03*
Y25320D02*
D03*
X1889760D02*
D03*
Y76120D02*
D03*
X1772920Y50800D02*
D03*
X1798320Y76200D02*
D03*
Y25400D02*
D03*
X1747520D02*
D03*
Y76200D02*
D03*
X1630680Y50800D02*
D03*
X1656080Y76200D02*
D03*
Y25400D02*
D03*
X1605280D02*
D03*
Y76200D02*
D03*
X1478280Y50800D02*
D03*
X1503680Y76200D02*
D03*
Y25400D02*
D03*
X1452880D02*
D03*
Y76200D02*
D03*
D204*
X138520Y28705D02*
D03*
X54520D02*
D03*
D205*
Y101705D02*
D03*
X96520D02*
D03*
X54520Y156705D02*
D03*
X96520D02*
D03*
X138520D02*
D03*
X524000Y71120D02*
D03*
X644400D02*
D03*
D206*
X138520Y101705D02*
D03*
D207*
X874960Y45720D02*
D03*
D208*
X924960D02*
D03*
X974960D02*
D03*
X1024960D02*
D03*
D209*
X596700Y118120D02*
D03*
X571700D02*
D03*
X596700Y98120D02*
D03*
X571700D02*
D03*
D210*
X1240060Y409560D02*
D03*
Y398860D02*
D03*
Y388160D02*
D03*
X1229360Y409560D02*
D03*
Y398860D02*
D03*
Y388160D02*
D03*
X1218660Y409560D02*
D03*
Y398860D02*
D03*
Y388160D02*
D03*
D211*
X1300480Y157480D02*
D03*
X1209040D02*
D03*
X1323340D02*
D03*
X1219200Y109220D02*
D03*
X1239520D02*
D03*
X1259840D02*
D03*
X1280160D02*
D03*
X1229360Y91440D02*
D03*
X1249680D02*
D03*
X1270000D02*
D03*
X1186180Y157480D02*
D03*
D212*
X1290320Y91440D02*
D03*
D213*
X1191260Y66040D02*
D03*
X1318260D02*
D03*
D214*
X716280Y970280D02*
D03*
Y944880D02*
D03*
X1087120Y929640D02*
D03*
X1036320D02*
D03*
X1061720D02*
D03*
D215*
X1841640Y675140D02*
D03*
Y682940D02*
D03*
Y690740D02*
D03*
X1824440D02*
D03*
Y682940D02*
D03*
Y675140D02*
D03*
X1709754Y462765D02*
D03*
X1699754D02*
D03*
Y482765D02*
D03*
X1689754D02*
D03*
Y462765D02*
D03*
Y472765D02*
D03*
X1699754D02*
D03*
X1709754Y482765D02*
D03*
Y472765D02*
D03*
M02*
