G04*
G04 #@! TF.GenerationSoftware,Altium Limited,Altium Designer,23.11.1 (41)*
G04*
G04 Layer_Physical_Order=3*
G04 Layer_Color=36540*
%FSLAX44Y44*%
%MOMM*%
G71*
G04*
G04 #@! TF.SameCoordinates,6B8C5B76-4EC9-4DBB-A8E1-E51C7E6A7B67*
G04*
G04*
G04 #@! TF.FilePolarity,Positive*
G04*
G01*
G75*
%ADD10C,0.2540*%
%ADD216C,0.2384*%
%ADD248C,0.2191*%
%ADD250C,6.2000*%
%ADD251C,3.5000*%
%ADD252C,2.2000*%
%ADD253C,3.0000*%
%ADD254R,3.0000X3.0000*%
%ADD255R,1.9050X1.9050*%
%ADD256C,1.9050*%
%ADD257C,1.6000*%
%ADD258C,0.6000*%
%ADD259C,1.5240*%
G04:AMPARAMS|DCode=260|XSize=1.524mm|YSize=1.524mm|CornerRadius=0mm|HoleSize=0mm|Usage=FLASHONLY|Rotation=0.000|XOffset=0mm|YOffset=0mm|HoleType=Round|Shape=Octagon|*
%AMOCTAGOND260*
4,1,8,0.7620,-0.3810,0.7620,0.3810,0.3810,0.7620,-0.3810,0.7620,-0.7620,0.3810,-0.7620,-0.3810,-0.3810,-0.7620,0.3810,-0.7620,0.7620,-0.3810,0.0*
%
%ADD260OCTAGOND260*%

%ADD261C,3.8100*%
%ADD262C,0.7620*%
%ADD263C,0.5000*%
%ADD264C,0.3048*%
%ADD265C,0.5080*%
%ADD266C,0.7112*%
%ADD267C,0.5588*%
%ADD268C,0.1479*%
%ADD269C,0.0924*%
D10*
X783741Y601668D02*
Y613561D01*
Y592980D02*
Y601668D01*
D216*
X995423Y731520D02*
X995754Y731188D01*
D248*
X1283948Y133328D02*
X1383052D01*
X1403350Y113030D01*
X1285240Y175260D02*
X1361440D01*
X1403350Y133350D01*
X1219200Y109220D02*
X1285240Y175260D01*
X1219200Y109220D02*
X1221648Y106772D01*
Y99152D02*
X1229360Y91440D01*
X1221648Y99152D02*
Y106772D01*
X1259840Y109220D02*
X1283948Y133328D01*
X1252128Y93888D02*
Y101508D01*
X1249680Y91440D02*
X1252128Y93888D01*
Y101508D02*
X1259840Y109220D01*
D250*
X1696720Y144780D02*
D03*
X1957465Y931171D02*
D03*
X53340Y949960D02*
D03*
X402580Y380655D02*
D03*
D251*
X1443830Y976167D02*
D03*
X1041830Y573167D02*
D03*
D252*
X1915160Y50720D02*
D03*
X1940560Y76120D02*
D03*
Y25320D02*
D03*
X1889760D02*
D03*
Y76120D02*
D03*
X1772920Y50800D02*
D03*
X1798320Y76200D02*
D03*
Y25400D02*
D03*
X1747520D02*
D03*
Y76200D02*
D03*
X1630680Y50800D02*
D03*
X1656080Y76200D02*
D03*
Y25400D02*
D03*
X1605280D02*
D03*
Y76200D02*
D03*
X1478280Y50800D02*
D03*
X1503680Y76200D02*
D03*
Y25400D02*
D03*
X1452880D02*
D03*
Y76200D02*
D03*
D253*
X54520Y101705D02*
D03*
X96520D02*
D03*
X54520Y156705D02*
D03*
X96520D02*
D03*
X138520D02*
D03*
X524000Y71120D02*
D03*
X644400D02*
D03*
D254*
X138520Y101705D02*
D03*
D255*
X874960Y45720D02*
D03*
D256*
X924960D02*
D03*
X974960D02*
D03*
X1024960D02*
D03*
D257*
X596700Y118120D02*
D03*
X571700D02*
D03*
X596700Y98120D02*
D03*
X571700D02*
D03*
D258*
X1240060Y409560D02*
D03*
Y398860D02*
D03*
Y388160D02*
D03*
X1229360Y409560D02*
D03*
Y398860D02*
D03*
Y388160D02*
D03*
X1218660Y409560D02*
D03*
Y398860D02*
D03*
Y388160D02*
D03*
D259*
X1300480Y157480D02*
D03*
X1209040D02*
D03*
X1323340D02*
D03*
X1219200Y109220D02*
D03*
X1239520D02*
D03*
X1259840D02*
D03*
X1280160D02*
D03*
X1229360Y91440D02*
D03*
X1249680D02*
D03*
X1270000D02*
D03*
X1186180Y157480D02*
D03*
X716280Y970280D02*
D03*
Y944880D02*
D03*
X1087120Y929640D02*
D03*
X1036320D02*
D03*
X1061720D02*
D03*
D260*
X1290320Y91440D02*
D03*
D261*
X1191260Y66040D02*
D03*
X1318260D02*
D03*
D262*
X222250Y311150D02*
D03*
X57150Y425450D02*
D03*
Y450850D02*
D03*
X31750Y425450D02*
D03*
Y450850D02*
D03*
X107950Y381000D02*
D03*
Y355600D02*
D03*
Y406400D02*
D03*
X81779Y451780D02*
D03*
Y426380D02*
D03*
X132579Y451780D02*
D03*
X107179D02*
D03*
X132579Y426380D02*
D03*
X107179D02*
D03*
X158750Y406400D02*
D03*
X133350D02*
D03*
X158750Y355600D02*
D03*
Y381000D02*
D03*
X133350Y355600D02*
D03*
Y381000D02*
D03*
X121920Y629920D02*
D03*
X177800Y444500D02*
D03*
X190500Y508000D02*
D03*
X165100D02*
D03*
Y609600D02*
D03*
Y584200D02*
D03*
Y558800D02*
D03*
X190500Y609600D02*
D03*
Y584200D02*
D03*
Y558800D02*
D03*
X139700D02*
D03*
X190500Y533400D02*
D03*
X165100D02*
D03*
X139700D02*
D03*
Y635000D02*
D03*
X165100D02*
D03*
X190500D02*
D03*
X139700Y660400D02*
D03*
X165100D02*
D03*
X190500D02*
D03*
X1566113Y588967D02*
D03*
X1592580Y553720D02*
D03*
X1595120Y563880D02*
D03*
Y596900D02*
D03*
X1633220Y584200D02*
D03*
X1640840Y601980D02*
D03*
X1651074Y646176D02*
D03*
X1653540Y576580D02*
D03*
X1681480Y579120D02*
D03*
X1658620Y591820D02*
D03*
Y640080D02*
D03*
X1671320Y655320D02*
D03*
X1699260Y652780D02*
D03*
X1691640Y662940D02*
D03*
X1717040Y609600D02*
D03*
X1704340Y637540D02*
D03*
X1887220Y513080D02*
D03*
X1805940Y574040D02*
D03*
X1826260Y566420D02*
D03*
X1856740Y505460D02*
D03*
X1894840Y525780D02*
D03*
X1906778Y537718D02*
D03*
X1894840Y571500D02*
D03*
X1882140Y586740D02*
D03*
X1844921Y579640D02*
D03*
X1846580Y784860D02*
D03*
X1859280Y787400D02*
D03*
X1882140D02*
D03*
X1762760Y767080D02*
D03*
X1765300Y751840D02*
D03*
X1818640Y789940D02*
D03*
X1788160Y792480D02*
D03*
X1869440Y635000D02*
D03*
X1811020Y678180D02*
D03*
X1897380Y665480D02*
D03*
X1892300Y703580D02*
D03*
X1910080Y721360D02*
D03*
X1894840D02*
D03*
X1889760Y736600D02*
D03*
Y751840D02*
D03*
X1892300Y767080D02*
D03*
X1866900Y802640D02*
D03*
X1727200Y502920D02*
D03*
X1704340Y522478D02*
D03*
X1713640Y509680D02*
D03*
X1676400Y495300D02*
D03*
X1757680Y441960D02*
D03*
X1742440Y452120D02*
D03*
X1727200Y431800D02*
D03*
X1658620Y459740D02*
D03*
X1673860Y436880D02*
D03*
X1729740Y419100D02*
D03*
X1664820Y336700D02*
D03*
X1615440Y302260D02*
D03*
X1630680Y261620D02*
D03*
X1646000Y261700D02*
D03*
X1691321Y278414D02*
D03*
X1709420Y299720D02*
D03*
X1705230Y325120D02*
D03*
X1690140Y301220D02*
D03*
X1676400Y325120D02*
D03*
X1628140Y327660D02*
D03*
X853440Y518160D02*
D03*
X878840Y515620D02*
D03*
X871220Y414020D02*
D03*
X726440Y259080D02*
D03*
X728980Y213360D02*
D03*
X812800D02*
D03*
X810260Y269240D02*
D03*
X807540Y480240D02*
D03*
X810260Y396240D02*
D03*
X982980D02*
D03*
X967740D02*
D03*
X996440Y396206D02*
D03*
X1031240Y353060D02*
D03*
Y419100D02*
D03*
X1021080Y431800D02*
D03*
X1008380Y437600D02*
D03*
X1016000Y447040D02*
D03*
X1379220Y406400D02*
D03*
X1447800Y599440D02*
D03*
X1457960D02*
D03*
Y566420D02*
D03*
X1447800Y574040D02*
D03*
X1432560Y551180D02*
D03*
Y467360D02*
D03*
X1330200Y452363D02*
D03*
X1361440Y408940D02*
D03*
X1343520Y449920D02*
D03*
X1361440Y449580D02*
D03*
X683260Y787400D02*
D03*
X693779Y764181D02*
D03*
X845820Y764540D02*
D03*
Y782320D02*
D03*
X837179Y773181D02*
D03*
X756920Y711200D02*
D03*
X678481Y818181D02*
D03*
X690471Y809181D02*
D03*
X675640Y800100D02*
D03*
X684699Y831681D02*
D03*
X783741Y601668D02*
D03*
X393700Y637540D02*
D03*
X284480Y406400D02*
D03*
X304800Y408940D02*
D03*
X349381Y438281D02*
D03*
X350139Y470281D02*
D03*
X323571Y460731D02*
D03*
X243840Y406400D02*
D03*
X258581Y406899D02*
D03*
X330200Y755650D02*
D03*
X283254Y810304D02*
D03*
X330200Y806450D02*
D03*
Y831850D02*
D03*
Y819150D02*
D03*
X508000Y787400D02*
D03*
X1487678Y322072D02*
D03*
X1711960Y706120D02*
D03*
X1727014Y706713D02*
D03*
X1696720Y706120D02*
D03*
X106680Y667106D02*
D03*
Y645160D02*
D03*
X212904Y168397D02*
D03*
Y149347D02*
D03*
X193854D02*
D03*
Y168397D02*
D03*
X139700Y234950D02*
D03*
Y215900D02*
D03*
Y196850D02*
D03*
X114300Y234950D02*
D03*
Y215900D02*
D03*
Y196850D02*
D03*
X133350Y127000D02*
D03*
X158750D02*
D03*
X82550D02*
D03*
X107950D02*
D03*
X31750D02*
D03*
X57150D02*
D03*
Y76200D02*
D03*
X31750D02*
D03*
X63500Y184150D02*
D03*
Y209550D02*
D03*
X82550Y184150D02*
D03*
Y209550D02*
D03*
X57150Y57150D02*
D03*
X31750D02*
D03*
X82550Y38100D02*
D03*
X107950D02*
D03*
X158750Y57150D02*
D03*
X133350D02*
D03*
X107950D02*
D03*
X82550D02*
D03*
Y76200D02*
D03*
X107950D02*
D03*
X133350D02*
D03*
X158750D02*
D03*
X190500Y222250D02*
D03*
X234950Y158750D02*
D03*
Y177800D02*
D03*
X209550Y222250D02*
D03*
X234950Y139700D02*
D03*
X171450Y203200D02*
D03*
X254000Y101600D02*
D03*
X228600D02*
D03*
X254000Y82550D02*
D03*
X228600D02*
D03*
X254000Y63500D02*
D03*
X228600D02*
D03*
X254000Y44450D02*
D03*
X228600D02*
D03*
X203200D02*
D03*
X177800D02*
D03*
Y25400D02*
D03*
X203200D02*
D03*
X228600D02*
D03*
X254000D02*
D03*
X171450Y222250D02*
D03*
Y241300D02*
D03*
X254000Y234950D02*
D03*
X234950D02*
D03*
Y215900D02*
D03*
Y196850D02*
D03*
X254000Y139700D02*
D03*
Y158750D02*
D03*
Y177800D02*
D03*
Y196850D02*
D03*
Y215900D02*
D03*
D263*
X1841640Y675140D02*
D03*
Y682940D02*
D03*
Y690740D02*
D03*
X1824440D02*
D03*
Y682940D02*
D03*
Y675140D02*
D03*
X769741Y573480D02*
D03*
X775491Y582980D02*
D03*
X763991D02*
D03*
X769741Y592480D02*
D03*
X747760Y791531D02*
D03*
Y798831D02*
D03*
Y806181D02*
D03*
X733107Y784177D02*
D03*
X740406D02*
D03*
X747757D02*
D03*
X725740Y791531D02*
D03*
Y784181D02*
D03*
Y798831D02*
D03*
Y806181D02*
D03*
X733110D02*
D03*
X740410D02*
D03*
X1355520Y495160D02*
D03*
Y487860D02*
D03*
Y480490D02*
D03*
X1362870D02*
D03*
X1377520D02*
D03*
X1370170D02*
D03*
X1377524Y502506D02*
D03*
Y495157D02*
D03*
Y487856D02*
D03*
X1355520Y502510D02*
D03*
X1362870D02*
D03*
X1370170D02*
D03*
X381003Y799834D02*
D03*
Y807134D02*
D03*
Y814484D02*
D03*
X366350Y792480D02*
D03*
X373650D02*
D03*
X381000D02*
D03*
X358983Y799834D02*
D03*
Y792484D02*
D03*
Y807134D02*
D03*
Y814484D02*
D03*
X366353D02*
D03*
X373653D02*
D03*
X1581480Y740000D02*
D03*
X1570480D02*
D03*
X1559480D02*
D03*
X1548480D02*
D03*
X1537480D02*
D03*
X1581480Y751000D02*
D03*
X1570480D02*
D03*
X1559480D02*
D03*
X1548480D02*
D03*
X1537480D02*
D03*
X1581480Y762000D02*
D03*
X1570480D02*
D03*
X1559480D02*
D03*
X1548480D02*
D03*
X1537480D02*
D03*
X1581480Y773000D02*
D03*
X1570480D02*
D03*
X1559480D02*
D03*
X1548480D02*
D03*
X1537480D02*
D03*
X1581480Y784000D02*
D03*
X1570480D02*
D03*
X1559480D02*
D03*
X1548480D02*
D03*
X1537480D02*
D03*
X1709754Y462765D02*
D03*
X1699754D02*
D03*
Y482765D02*
D03*
X1689754D02*
D03*
Y462765D02*
D03*
Y472765D02*
D03*
X1699754D02*
D03*
X1709754Y482765D02*
D03*
Y472765D02*
D03*
X1519340Y286170D02*
D03*
Y275170D02*
D03*
X1508340Y286170D02*
D03*
Y275170D02*
D03*
X924950Y455950D02*
D03*
Y463250D02*
D03*
Y470600D02*
D03*
X910296Y448596D02*
D03*
X917597D02*
D03*
X924947D02*
D03*
X902930Y455950D02*
D03*
Y448600D02*
D03*
Y463250D02*
D03*
Y470600D02*
D03*
X910300D02*
D03*
X917600D02*
D03*
X1858440Y387760D02*
D03*
X1869440D02*
D03*
X1880440D02*
D03*
X1891440D02*
D03*
X1902440D02*
D03*
X1858440Y376760D02*
D03*
X1869440D02*
D03*
X1880440D02*
D03*
X1891440D02*
D03*
X1902440D02*
D03*
X1858440Y365760D02*
D03*
X1869440D02*
D03*
X1880440D02*
D03*
X1891440D02*
D03*
X1902440D02*
D03*
X1858440Y354760D02*
D03*
X1869440D02*
D03*
X1880440D02*
D03*
X1891440D02*
D03*
X1902440D02*
D03*
X1858440Y343760D02*
D03*
X1869440D02*
D03*
X1880440D02*
D03*
X1891440D02*
D03*
X1902440D02*
D03*
X1540920Y522830D02*
D03*
X1529920D02*
D03*
X1518920D02*
D03*
X1507920D02*
D03*
X1496920D02*
D03*
X1540920Y533830D02*
D03*
X1529920D02*
D03*
X1518920D02*
D03*
X1507920D02*
D03*
X1496920D02*
D03*
X1540920Y544830D02*
D03*
X1529920D02*
D03*
X1518920D02*
D03*
X1507920D02*
D03*
X1496920D02*
D03*
X1540920Y555830D02*
D03*
X1529920D02*
D03*
X1518920D02*
D03*
X1507920D02*
D03*
X1496920D02*
D03*
X1540920Y566830D02*
D03*
X1529920D02*
D03*
X1518920D02*
D03*
X1507920D02*
D03*
X1496920D02*
D03*
X900880Y197280D02*
D03*
Y208280D02*
D03*
Y219280D02*
D03*
X911880Y197280D02*
D03*
Y208280D02*
D03*
Y219280D02*
D03*
X922880Y197280D02*
D03*
Y208280D02*
D03*
Y219280D02*
D03*
X933880Y197280D02*
D03*
Y208280D02*
D03*
Y219280D02*
D03*
X944880Y197280D02*
D03*
Y208280D02*
D03*
Y219280D02*
D03*
X955880Y197280D02*
D03*
Y208280D02*
D03*
Y219280D02*
D03*
X966880Y197280D02*
D03*
Y208280D02*
D03*
Y219280D02*
D03*
X977880Y197280D02*
D03*
Y208280D02*
D03*
Y219280D02*
D03*
X988880Y197280D02*
D03*
Y208280D02*
D03*
Y219280D02*
D03*
D264*
X1011760Y742110D02*
D03*
X889259Y577850D02*
D03*
Y694436D02*
D03*
X862330Y566420D02*
D03*
X1384935Y365125D02*
D03*
X1445260Y350520D02*
D03*
X350054Y861864D02*
D03*
X388484Y745627D02*
D03*
X410210Y713740D02*
D03*
X403860D02*
D03*
Y736600D02*
D03*
X410210D02*
D03*
X1079754Y805434D02*
D03*
X1079500Y773305D02*
D03*
X1031750Y773940D02*
D03*
X987390Y687999D02*
D03*
X995423Y731520D02*
D03*
X1005141Y704381D02*
D03*
X983068Y714414D02*
D03*
X939148Y724322D02*
D03*
X1019808Y703428D02*
D03*
X913130Y714248D02*
D03*
X930275Y724535D02*
D03*
X898652Y617220D02*
D03*
X902462Y645668D02*
D03*
X896874Y680466D02*
D03*
X895096Y690118D02*
D03*
X1018494Y713532D02*
D03*
X1006475Y741045D02*
D03*
X981075Y737489D02*
D03*
X964565Y726313D02*
D03*
X955262Y726440D02*
D03*
X955548Y749300D02*
D03*
X963393Y704216D02*
D03*
X998728Y747014D02*
D03*
X976122Y751840D02*
D03*
X931164Y743966D02*
D03*
X912368Y720344D02*
D03*
X955262Y704302D02*
D03*
X909320Y619760D02*
D03*
X1003998Y647999D02*
D03*
X1012446Y647999D02*
D03*
X1244600Y675640D02*
D03*
X1194562Y386334D02*
D03*
X1313709Y664113D02*
D03*
X1305146Y665551D02*
D03*
X1310386Y626110D02*
D03*
X1299998Y637413D02*
D03*
X1289998Y640100D02*
D03*
X1319530Y635101D02*
D03*
X1315146Y675551D02*
D03*
X1279998Y639003D02*
D03*
X1245870Y665480D02*
D03*
X1285113Y684097D02*
D03*
X1275588Y694563D02*
D03*
X1233810Y664210D02*
D03*
X1274826Y714756D02*
D03*
X1265118Y695020D02*
D03*
X1264920Y674878D02*
D03*
X1254445Y675147D02*
D03*
Y685147D02*
D03*
X1325146Y675551D02*
D03*
X1304849Y684446D02*
D03*
X1325146Y695551D02*
D03*
Y685551D02*
D03*
X1345146Y675551D02*
D03*
X1355146D02*
D03*
X1344445Y685147D02*
D03*
X1335146Y685551D02*
D03*
Y665551D02*
D03*
X1315550Y694850D02*
D03*
X1335146Y705551D02*
D03*
X1325146Y715551D02*
D03*
X1374902Y854964D02*
D03*
X1354582Y883920D02*
D03*
X1275080Y875030D02*
D03*
X1295146Y854964D02*
D03*
X1325118D02*
D03*
X1354836Y865124D02*
D03*
X1365486Y844913D02*
D03*
X1354029Y845820D02*
D03*
X1364509Y855084D02*
D03*
Y895084D02*
D03*
X1374913Y894510D02*
D03*
X1364509Y875084D02*
D03*
X1365083Y865488D02*
D03*
X1354913Y874510D02*
D03*
X1354509Y895084D02*
D03*
Y905084D02*
D03*
X1365083Y765488D02*
D03*
X1334509Y775084D02*
D03*
X1345486Y754913D02*
D03*
X1334509Y755084D02*
D03*
X1324509D02*
D03*
X1304913Y764510D02*
D03*
Y784510D02*
D03*
X1305083Y795488D02*
D03*
X1275083Y815488D02*
D03*
X1285083D02*
D03*
X1274509Y825084D02*
D03*
X1284913Y824510D02*
D03*
X1295405Y825909D02*
D03*
X1345486Y784913D02*
D03*
X1324509Y795084D02*
D03*
X1314509Y805084D02*
D03*
X1304509D02*
D03*
X1325486Y824913D02*
D03*
X1304913Y824510D02*
D03*
X1314509Y825084D02*
D03*
X1304509Y885084D02*
D03*
X1315720Y885190D02*
D03*
X1294509Y885084D02*
D03*
Y865084D02*
D03*
X1315083Y865488D02*
D03*
X1324509Y845084D02*
D03*
X1335486Y814913D02*
D03*
X1345083Y825488D02*
D03*
X1335083Y835488D02*
D03*
X1315197Y893265D02*
D03*
X1304509Y875084D02*
D03*
X1304445Y863730D02*
D03*
X1294798Y893264D02*
D03*
X1284509Y855084D02*
D03*
X1274509D02*
D03*
X1294509Y845084D02*
D03*
X1304913Y844510D02*
D03*
X1305486Y894913D02*
D03*
X1324913Y874510D02*
D03*
X1314509Y875084D02*
D03*
X1324913Y864510D02*
D03*
X1344509Y885084D02*
D03*
Y875084D02*
D03*
X1335083Y865488D02*
D03*
X1345083D02*
D03*
X1344913Y854510D02*
D03*
X1355083Y855488D02*
D03*
X1345083Y845488D02*
D03*
X1335486Y844913D02*
D03*
X1304913Y834510D02*
D03*
X1314913D02*
D03*
X1314450Y854710D02*
D03*
X1314913Y844510D02*
D03*
X1265047Y855250D02*
D03*
Y865199D02*
D03*
X1265157Y875360D02*
D03*
X1284849Y864446D02*
D03*
X1285146Y875551D02*
D03*
X1254998Y887048D02*
D03*
X1255349Y895350D02*
D03*
X1215286Y854710D02*
D03*
X1195098Y854870D02*
D03*
X1315146Y685551D02*
D03*
X1305550Y694850D02*
D03*
Y674850D02*
D03*
X1285240Y635000D02*
D03*
X1284849Y674446D02*
D03*
X1273810Y664210D02*
D03*
X1274048Y684453D02*
D03*
X1195070Y864870D02*
D03*
X1184910Y786130D02*
D03*
X1175146Y785551D02*
D03*
X1205230Y755650D02*
D03*
X1296670Y725170D02*
D03*
X1315085Y714375D02*
D03*
X1324445Y765147D02*
D03*
X1355146Y765551D02*
D03*
X1355090Y784860D02*
D03*
X1334770Y793750D02*
D03*
X1335606Y825500D02*
D03*
X1323514Y834619D02*
D03*
X1235146Y745551D02*
D03*
X1270000Y637641D02*
D03*
X1295550Y664850D02*
D03*
X1294384Y655574D02*
D03*
X1285550Y664850D02*
D03*
X1274849Y674446D02*
D03*
X1294445Y675147D02*
D03*
X1294849Y684446D02*
D03*
X1295908Y704596D02*
D03*
X1244849Y824446D02*
D03*
X1234849Y774446D02*
D03*
X1384445Y655147D02*
D03*
X1355146Y665551D02*
D03*
X1354445Y685147D02*
D03*
X1385146Y705551D02*
D03*
X1354445Y725147D02*
D03*
X1295146Y695551D02*
D03*
X1325146Y735551D02*
D03*
X1374445Y785147D02*
D03*
X1374445Y825147D02*
D03*
Y865147D02*
D03*
X1384849Y894446D02*
D03*
X1334849Y884446D02*
D03*
X1245146Y865551D02*
D03*
X1265550Y884850D02*
D03*
X1225550D02*
D03*
X1225146Y895551D02*
D03*
X1144445Y785147D02*
D03*
X1204849Y774446D02*
D03*
Y724446D02*
D03*
X1224788Y685546D02*
D03*
X1185164Y640588D02*
D03*
X1253810Y694210D02*
D03*
X1354445Y705147D02*
D03*
X1375146Y665551D02*
D03*
X1203766Y705541D02*
D03*
X1187196Y705612D02*
D03*
X1184148Y694436D02*
D03*
X1193631Y705358D02*
D03*
X1173634Y674525D02*
D03*
X1174496Y684588D02*
D03*
X1156191Y663685D02*
D03*
X1255146Y715551D02*
D03*
X1254445Y725147D02*
D03*
X1305146Y715551D02*
D03*
X1315146Y735551D02*
D03*
X1385146Y685551D02*
D03*
X1305146Y855551D02*
D03*
X1345146Y835551D02*
D03*
Y815551D02*
D03*
X1335146Y805551D02*
D03*
X1365146Y785551D02*
D03*
X1374445Y805147D02*
D03*
X1365146Y835551D02*
D03*
X1374445Y845147D02*
D03*
X1377152Y923856D02*
D03*
X1346131Y923453D02*
D03*
X1374849Y874446D02*
D03*
X1334445Y855147D02*
D03*
Y875147D02*
D03*
X1324610Y885190D02*
D03*
X1164590Y910590D02*
D03*
X1198880Y909320D02*
D03*
X1184910Y744220D02*
D03*
X1205230Y764540D02*
D03*
X1215146Y665551D02*
D03*
X1345550Y694850D02*
D03*
X1335146Y695551D02*
D03*
X1345146Y735551D02*
D03*
X1365550Y734850D02*
D03*
X1374849Y734446D02*
D03*
X1374445Y725147D02*
D03*
X1355146Y755551D02*
D03*
X1374849Y754446D02*
D03*
X1245550Y764850D02*
D03*
X1245146Y745551D02*
D03*
X1255550Y744850D02*
D03*
X1275550Y734850D02*
D03*
X1264849Y754446D02*
D03*
X1265550Y744850D02*
D03*
X1255550Y764850D02*
D03*
X1265146Y765551D02*
D03*
X1285550Y754850D02*
D03*
X1275146Y775551D02*
D03*
X1274849Y764446D02*
D03*
X1275146Y755551D02*
D03*
X1274849Y744446D02*
D03*
X1295550Y734850D02*
D03*
X1295146Y755551D02*
D03*
X1305146D02*
D03*
Y775551D02*
D03*
X1284445Y775147D02*
D03*
Y765147D02*
D03*
X1315550Y774850D02*
D03*
X1314849Y784446D02*
D03*
X1304849Y814446D02*
D03*
X1294849Y804446D02*
D03*
X1284445Y845147D02*
D03*
X1285550Y834850D02*
D03*
X1274445Y865147D02*
D03*
X1294928Y875099D02*
D03*
X1274849Y884446D02*
D03*
X1245550Y884850D02*
D03*
X1254849Y854446D02*
D03*
X1224445Y845147D02*
D03*
X1234849Y844446D02*
D03*
X1195550Y844850D02*
D03*
X1225550Y864850D02*
D03*
X1145550Y894850D02*
D03*
X1205146Y895551D02*
D03*
X1174445Y895147D02*
D03*
X1155550Y874850D02*
D03*
X1164849Y874446D02*
D03*
X1184849Y864446D02*
D03*
X1164445Y865147D02*
D03*
X1155146Y865551D02*
D03*
X1164849Y834446D02*
D03*
X1155146Y805551D02*
D03*
Y825551D02*
D03*
X1155550Y834850D02*
D03*
X1175550Y824850D02*
D03*
X1204849Y834446D02*
D03*
X1194849Y824446D02*
D03*
X1195146Y805551D02*
D03*
X1184849Y814446D02*
D03*
X1225146Y815551D02*
D03*
X1245146D02*
D03*
X1284849Y804446D02*
D03*
X1254445Y815147D02*
D03*
X1265146Y805551D02*
D03*
X1295146Y785551D02*
D03*
X1284849Y784446D02*
D03*
X1295550Y794850D02*
D03*
X1285550D02*
D03*
X1264849Y794446D02*
D03*
X1244849D02*
D03*
X1224849D02*
D03*
X1234849D02*
D03*
X1234849Y784446D02*
D03*
X1244763Y784929D02*
D03*
X1275550Y784850D02*
D03*
X1265550D02*
D03*
X1254445Y785147D02*
D03*
X1264849Y774446D02*
D03*
X1254445Y775147D02*
D03*
X1255550Y754850D02*
D03*
X1224849Y754446D02*
D03*
X1245550Y754850D02*
D03*
X1234445Y755147D02*
D03*
X1215390Y735330D02*
D03*
X1215146Y705551D02*
D03*
X1225550Y704850D02*
D03*
X1103122Y685994D02*
D03*
X1164455D02*
D03*
X1184346Y755650D02*
D03*
X1169998Y638810D02*
D03*
X972130Y703999D02*
D03*
X958850Y754380D02*
D03*
X956310Y664210D02*
D03*
X985901Y616077D02*
D03*
X755136Y616706D02*
D03*
X839470Y662940D02*
D03*
X850265Y668655D02*
D03*
X854075Y724535D02*
D03*
X845185Y723265D02*
D03*
X854075Y700405D02*
D03*
X845185D02*
D03*
X889000Y566420D02*
D03*
X900430Y750570D02*
D03*
X993140Y778510D02*
D03*
X981710D02*
D03*
X863600Y736600D02*
D03*
Y702310D02*
D03*
X864870Y668020D02*
D03*
X862330Y656590D02*
D03*
Y645160D02*
D03*
Y633730D02*
D03*
Y622300D02*
D03*
Y610870D02*
D03*
Y599440D02*
D03*
Y588010D02*
D03*
Y577850D02*
D03*
X1019998Y655999D02*
D03*
X1011998D02*
D03*
X1003998D02*
D03*
X987390Y695932D02*
D03*
X978671Y687999D02*
D03*
X906780Y750570D02*
D03*
X918210Y748030D02*
D03*
X909826Y644396D02*
D03*
X902970Y652780D02*
D03*
X889000Y656590D02*
D03*
X948690Y664210D02*
D03*
X947838Y655867D02*
D03*
X956310Y656438D02*
D03*
X960120Y683260D02*
D03*
X919480Y702310D02*
D03*
X993140Y750690D02*
D03*
X1004826Y695971D02*
D03*
X995730Y695999D02*
D03*
X996444Y688304D02*
D03*
X1035364Y677478D02*
D03*
X989479Y669283D02*
D03*
X1084685Y658219D02*
D03*
X1030343Y682150D02*
D03*
X1089660Y662940D02*
D03*
X982624Y669477D02*
D03*
X901700Y688848D02*
D03*
Y681990D02*
D03*
X900430Y716280D02*
D03*
X928370Y709930D02*
D03*
X938999Y704155D02*
D03*
X947998Y647735D02*
D03*
X924560Y751840D02*
D03*
X947130Y704057D02*
D03*
X981710Y754380D02*
D03*
X970280D02*
D03*
X947420D02*
D03*
X935990D02*
D03*
X1174455Y696066D02*
D03*
X1176065Y705541D02*
D03*
X1135380Y619760D02*
D03*
X963491Y696505D02*
D03*
X955998D02*
D03*
X963998Y687867D02*
D03*
X947998Y696505D02*
D03*
X948373Y688374D02*
D03*
X939800Y648462D02*
D03*
X939690Y640224D02*
D03*
X948946Y639886D02*
D03*
X964185Y639995D02*
D03*
X974598Y630704D02*
D03*
X1008383Y677866D02*
D03*
X1154684Y715010D02*
D03*
X1154998Y704999D02*
D03*
X1018047Y684335D02*
D03*
X1144998Y704999D02*
D03*
X1018553Y677496D02*
D03*
X1154176Y695706D02*
D03*
X1099312Y682754D02*
D03*
X1154166Y725616D02*
D03*
X1104847Y702292D02*
D03*
X1019556Y697230D02*
D03*
X1164082Y725932D02*
D03*
X1166622Y695198D02*
D03*
X1164604Y705090D02*
D03*
X1144287Y655303D02*
D03*
X1184910Y724303D02*
D03*
X1123950Y739473D02*
D03*
X1085736Y724014D02*
D03*
X969747Y640037D02*
D03*
X1062321Y687329D02*
D03*
X1060704Y712978D02*
D03*
X1123691Y698246D02*
D03*
X1007618Y668341D02*
D03*
X1028446Y704342D02*
D03*
X1036320Y703834D02*
D03*
X1028400Y713532D02*
D03*
X1034542Y713994D02*
D03*
X1050290Y714248D02*
D03*
X1042670Y713740D02*
D03*
X1011998Y703998D02*
D03*
X1043201Y703996D02*
D03*
X1051560Y703072D02*
D03*
X1099785Y706918D02*
D03*
X1085088Y709995D02*
D03*
X1174242Y716377D02*
D03*
X1165540Y713932D02*
D03*
X1077722Y650748D02*
D03*
X1019599Y640266D02*
D03*
X1027998D02*
D03*
X1116330Y657352D02*
D03*
X1059089Y648267D02*
D03*
X1035998Y640136D02*
D03*
Y648267D02*
D03*
X1059266Y640086D02*
D03*
X1035998Y656589D02*
D03*
X1044223Y656529D02*
D03*
X979932Y647954D02*
D03*
X987806Y639826D02*
D03*
X1174496Y725110D02*
D03*
X971998Y687999D02*
D03*
X1012446Y640266D02*
D03*
X1043998D02*
D03*
X1051560Y640332D02*
D03*
X1027981Y648464D02*
D03*
X963930Y647700D02*
D03*
X972058Y647954D02*
D03*
X987998Y647999D02*
D03*
X988491Y655514D02*
D03*
X1185104Y685038D02*
D03*
X1144276Y646066D02*
D03*
X1025144Y678942D02*
D03*
X978671Y696373D02*
D03*
X1132840Y764542D02*
D03*
X1130300Y745490D02*
D03*
X1195578Y715518D02*
D03*
X1184546Y715882D02*
D03*
X1144998Y764999D02*
D03*
X1154998Y764999D02*
D03*
X1080770Y730250D02*
D03*
X1164590Y673100D02*
D03*
X979170Y666750D02*
D03*
X972036Y695999D02*
D03*
X1003998Y640266D02*
D03*
X1214600Y725043D02*
D03*
X1154430Y655320D02*
D03*
X1153931Y684456D02*
D03*
X955998Y639999D02*
D03*
X1134529Y684530D02*
D03*
X1019998Y647999D02*
D03*
X1144529Y684530D02*
D03*
X1125220Y769620D02*
D03*
X1175169Y755406D02*
D03*
X1154590Y755170D02*
D03*
X1154998Y744999D02*
D03*
X1144998D02*
D03*
X1195406Y744827D02*
D03*
X1194826Y734591D02*
D03*
X1185169Y735406D02*
D03*
X1175169D02*
D03*
X508000Y949960D02*
D03*
D265*
X853440Y452120D02*
D03*
X1360416Y639999D02*
D03*
X1536030Y932688D02*
D03*
X538480Y716280D02*
D03*
X537210Y753110D02*
D03*
Y787400D02*
D03*
X454660Y712470D02*
D03*
X455930Y728980D02*
D03*
X457200Y741680D02*
D03*
X439420Y740410D02*
D03*
X419100D02*
D03*
X471170Y763270D02*
D03*
X481330Y756920D02*
D03*
X480060Y772160D02*
D03*
X1577340Y259080D02*
D03*
X1573530Y275590D02*
D03*
Y299720D02*
D03*
X1593850D02*
D03*
Y285750D02*
D03*
Y271780D02*
D03*
Y257810D02*
D03*
X1468120Y297180D02*
D03*
X1469390Y266700D02*
D03*
X1479550D02*
D03*
X1487678Y310803D02*
D03*
X1536700Y318770D02*
D03*
X1560830D02*
D03*
X1579880D02*
D03*
X1569720D02*
D03*
X843280Y970280D02*
D03*
X1631950Y424180D02*
D03*
X1659890Y674370D02*
D03*
X1435100Y579120D02*
D03*
X1408430Y292100D02*
D03*
X1394460Y375920D02*
D03*
X741680Y713740D02*
D03*
X721311Y699770D02*
D03*
X332740Y772160D02*
D03*
X316061Y779949D02*
D03*
X378460Y737870D02*
D03*
X1162050Y222250D02*
D03*
X1006180Y270850D02*
D03*
X1045464Y482600D02*
D03*
X1063498Y414782D02*
D03*
X1067562Y377952D02*
D03*
X1102614D02*
D03*
X1103122Y425704D02*
D03*
X1148080Y482346D02*
D03*
X949452Y381762D02*
D03*
X926084Y383921D02*
D03*
X873506Y482600D02*
D03*
X873794Y464600D02*
D03*
X874255Y473600D02*
D03*
X876331Y428600D02*
D03*
X827618Y969940D02*
D03*
X826938Y888660D02*
D03*
X1158240Y421640D02*
D03*
X1226860Y431760D02*
D03*
X1284870Y550420D02*
D03*
Y594360D02*
D03*
X1205230Y639034D02*
D03*
X1169670Y379730D02*
D03*
X1254000Y594360D02*
D03*
X1153160Y608330D02*
D03*
X1178560Y633730D02*
D03*
X1195070Y638695D02*
D03*
X1371600Y586740D02*
D03*
X1435100Y562610D02*
D03*
X1313815Y483235D02*
D03*
X1447800Y513080D02*
D03*
X1457960D02*
D03*
X1447800Y495300D02*
D03*
X1457960D02*
D03*
X1430655Y531495D02*
D03*
X1431290Y521970D02*
D03*
X1431925Y511175D02*
D03*
X1429385Y502285D02*
D03*
X1398270Y450850D02*
D03*
X1387475Y451485D02*
D03*
X1385990Y586740D02*
D03*
X1433830Y604520D02*
D03*
X1466850Y632460D02*
D03*
X1427480D02*
D03*
X1468120Y697230D02*
D03*
X1427480Y695960D02*
D03*
X1502410Y775970D02*
D03*
X1503320Y784500D02*
D03*
X1513840Y806450D02*
D03*
X1461770Y789940D02*
D03*
Y798830D02*
D03*
X1484630Y828040D02*
D03*
X1642110Y845820D02*
D03*
X1660095Y858725D02*
D03*
X1604334Y869626D02*
D03*
X1604010Y909320D02*
D03*
X1521890Y833960D02*
D03*
X1427480Y916940D02*
D03*
X1468120Y915670D02*
D03*
Y848360D02*
D03*
X1427480D02*
D03*
X1230120Y594360D02*
D03*
X1254000Y550670D02*
D03*
X1230120Y551690D02*
D03*
X1178560Y574040D02*
D03*
X1179830Y614680D02*
D03*
X1249680Y127000D02*
D03*
X1160780Y401320D02*
D03*
X1155700Y383540D02*
D03*
X1163699Y374779D02*
D03*
X1193050Y334530D02*
D03*
X1221498Y332982D02*
D03*
X1211580Y332740D02*
D03*
X1201420D02*
D03*
X1180858Y467118D02*
D03*
X1191260Y467360D02*
D03*
X1201420D02*
D03*
X1221740Y474980D02*
D03*
X1211338Y479818D02*
D03*
X1221498Y464578D02*
D03*
X1231658D02*
D03*
X1290320Y381000D02*
D03*
Y391160D02*
D03*
Y401320D02*
D03*
Y411480D02*
D03*
Y421640D02*
D03*
Y431800D02*
D03*
Y441960D02*
D03*
X1403350Y113030D02*
D03*
Y133350D02*
D03*
X1280160Y236220D02*
D03*
X1383792Y90932D02*
D03*
X1228090Y184150D02*
D03*
X1291590Y185420D02*
D03*
X1296035Y217170D02*
D03*
X1287145D02*
D03*
X1223645Y218440D02*
D03*
X1232535D02*
D03*
X1259840Y215900D02*
D03*
X1162558Y255778D02*
D03*
X1190625Y285115D02*
D03*
X1167259Y425579D02*
D03*
Y415419D02*
D03*
X1166751Y405259D02*
D03*
X1152652Y394716D02*
D03*
X1166243Y395099D02*
D03*
X1176413Y366407D02*
D03*
X1279398Y454152D02*
D03*
X1197102Y370840D02*
D03*
X1161108Y621866D02*
D03*
X697230Y680720D02*
D03*
X736092Y654812D02*
D03*
X759460Y655320D02*
D03*
Y666750D02*
D03*
X762000Y600710D02*
D03*
X730250Y585470D02*
D03*
X746760Y582930D02*
D03*
Y596900D02*
D03*
Y566420D02*
D03*
X829200Y586630D02*
D03*
X819040D02*
D03*
X802880Y575550D02*
D03*
X770890Y557530D02*
D03*
X810381Y548761D02*
D03*
X800221D02*
D03*
X828675Y612140D02*
D03*
X830978Y603648D02*
D03*
X818278D02*
D03*
X818890Y642360D02*
D03*
X911860Y779780D02*
D03*
X248421Y571881D02*
D03*
X263661D02*
D03*
X278901D02*
D03*
X294141D02*
D03*
X286521Y564261D02*
D03*
X256041D02*
D03*
X294141Y556641D02*
D03*
X278901D02*
D03*
X263661D02*
D03*
X248421D02*
D03*
X286521Y549021D02*
D03*
X256041D02*
D03*
X294141Y541401D02*
D03*
X278901D02*
D03*
X263661D02*
D03*
X248421D02*
D03*
X286521Y533781D02*
D03*
X256041D02*
D03*
X294141Y526161D02*
D03*
X278901D02*
D03*
X263661D02*
D03*
X248421D02*
D03*
X286521Y518541D02*
D03*
X271281D02*
D03*
X256041D02*
D03*
X294141Y510921D02*
D03*
X278901D02*
D03*
X263661D02*
D03*
X286521Y503301D02*
D03*
X271281D02*
D03*
X294141Y495681D02*
D03*
X278901D02*
D03*
X263661D02*
D03*
X248421D02*
D03*
Y510921D02*
D03*
X256041Y503301D02*
D03*
X271281Y564261D02*
D03*
Y549021D02*
D03*
Y533781D02*
D03*
D266*
X690880Y777240D02*
D03*
X754380Y723900D02*
D03*
X736600Y728980D02*
D03*
X731520Y850900D02*
D03*
X792480Y650240D02*
D03*
X775829Y661811D02*
D03*
X783741Y613561D02*
D03*
X228600Y436880D02*
D03*
X258581Y436532D02*
D03*
X1000760Y782574D02*
D03*
D267*
X1860280Y558640D02*
D03*
Y548640D02*
D03*
Y538640D02*
D03*
X1870280D02*
D03*
Y548640D02*
D03*
Y558640D02*
D03*
X1880280D02*
D03*
Y548640D02*
D03*
Y538640D02*
D03*
X1642500Y291220D02*
D03*
X1652500D02*
D03*
X1662500D02*
D03*
Y301220D02*
D03*
X1652500D02*
D03*
X1642500D02*
D03*
Y311220D02*
D03*
X1652500D02*
D03*
X1662500D02*
D03*
X1691320Y604680D02*
D03*
Y614680D02*
D03*
Y624680D02*
D03*
X1681320D02*
D03*
Y614680D02*
D03*
Y604680D02*
D03*
X1671320D02*
D03*
Y614680D02*
D03*
Y624680D02*
D03*
D268*
X1053860Y652383D02*
G03*
X1052381Y650904I0J-1479D01*
G01*
X1051241Y648467D02*
G03*
X1052381Y649606I0J1140D01*
G01*
X1049124D02*
G03*
X1050264Y648467I1140J0D01*
G01*
X1049124Y651239D02*
G03*
X1047984Y652379I-1140J0D01*
G01*
X1047007D02*
G03*
X1045867Y651239I0J-1140D01*
G01*
X1044727Y648467D02*
G03*
X1045867Y649606I0J1140D01*
G01*
X1042610D02*
G03*
X1043750Y648467I1140J0D01*
G01*
X1042610Y650904D02*
G03*
X1041131Y652383I-1479J0D01*
G01*
X1030316Y653862D02*
G03*
X1031795Y652383I1479J0D01*
G01*
X1030316Y659477D02*
G03*
X1029176Y660617I-1140J0D01*
G01*
X1028199D02*
G03*
X1027059Y659477I0J-1140D01*
G01*
X1025581Y652383D02*
G03*
X1027059Y653862I0J1479D01*
G01*
X1088542Y688493D02*
G03*
X1088109Y687447I1046J-1046D01*
G01*
X1086969Y671337D02*
G03*
X1088109Y672477I0J1140D01*
G01*
X1084852D02*
G03*
X1085992Y671337I1140J0D01*
G01*
X1084852Y686561D02*
G03*
X1083712Y687701I-1140J0D01*
G01*
X1082735D02*
G03*
X1081595Y686561I0J-1140D01*
G01*
X1080455Y671337D02*
G03*
X1081595Y672477I0J1140D01*
G01*
X1078338D02*
G03*
X1079478Y671337I1140J0D01*
G01*
X1078338Y674718D02*
G03*
X1075814Y675764I-1479J0D01*
G01*
X1045769Y675004D02*
G03*
X1047248Y673525I1479J0D01*
G01*
X1045769Y678019D02*
G03*
X1044629Y679158I-1140J0D01*
G01*
X1043652D02*
G03*
X1042512Y678019I0J-1140D01*
G01*
X1041372Y670270D02*
G03*
X1042512Y671410I0J1140D01*
G01*
X1039255D02*
G03*
X1040395Y670270I1140J0D01*
G01*
X1039255Y672722D02*
G03*
X1038115Y673862I-1140J0D01*
G01*
X1037138D02*
G03*
X1035998Y672722I0J-1140D01*
G01*
X1034858Y666280D02*
G03*
X1035998Y667419I0J1140D01*
G01*
X1032741D02*
G03*
X1033881Y666280I1140J0D01*
G01*
X1032741Y673847D02*
G03*
X1031601Y674987I-1140J0D01*
G01*
X1030624D02*
G03*
X1029484Y673847I0J-1140D01*
G01*
X1028344Y666280D02*
G03*
X1029484Y667419I0J1140D01*
G01*
X1026227D02*
G03*
X1027367Y666280I1140J0D01*
G01*
X1026227Y674186D02*
G03*
X1025088Y675326I-1140J0D01*
G01*
X1024110D02*
G03*
X1022971Y674186I0J-1140D01*
G01*
X1021831Y666280D02*
G03*
X1022971Y667419I0J1140D01*
G01*
X1019714D02*
G03*
X1020854Y666280I1140J0D01*
G01*
X1019714Y672740D02*
G03*
X1018574Y673880I-1140J0D01*
G01*
X1017597D02*
G03*
X1016457Y672740I0J-1140D01*
G01*
X1015317Y666280D02*
G03*
X1016457Y667419I0J1140D01*
G01*
X1013200D02*
G03*
X1014340Y666280I1140J0D01*
G01*
X1013200Y672046D02*
G03*
X1011721Y673525I-1479J0D01*
G01*
X1004908D02*
G03*
X1003429Y672046I0J-1479D01*
G01*
X1002289Y666280D02*
G03*
X1003429Y667419I0J1140D01*
G01*
X1000172D02*
G03*
X1001312Y666280I1140J0D01*
G01*
X1000172Y677511D02*
G03*
X999032Y678651I-1140J0D01*
G01*
X998055D02*
G03*
X996915Y677511I0J-1140D01*
G01*
X995436Y673525D02*
G03*
X996915Y675004I0J1479D01*
G01*
X1072530Y668505D02*
G03*
X1071051Y667027I0J-1479D01*
G01*
X1069911Y658934D02*
G03*
X1071051Y660074I0J1140D01*
G01*
X1067794D02*
G03*
X1068934Y658934I1140J0D01*
G01*
X1067794Y669553D02*
G03*
X1066654Y670693I-1140J0D01*
G01*
X1065677D02*
G03*
X1064537Y669553I0J-1140D01*
G01*
X1063397Y655181D02*
G03*
X1064537Y656321I0J1140D01*
G01*
X1061280D02*
G03*
X1062420Y655181I1140J0D01*
G01*
X1061280Y669553D02*
G03*
X1060140Y670693I-1140J0D01*
G01*
X1059163D02*
G03*
X1058023Y669553I0J-1140D01*
G01*
X1056883Y655214D02*
G03*
X1058023Y656354I0J1140D01*
G01*
X1054766D02*
G03*
X1055906Y655214I1140J0D01*
G01*
X1054766Y669553D02*
G03*
X1053626Y670693I-1140J0D01*
G01*
X1052649D02*
G03*
X1051509Y669553I0J-1140D01*
G01*
X1050369Y655211D02*
G03*
X1051509Y656350I0J1140D01*
G01*
X1048252D02*
G03*
X1049392Y655211I1140J0D01*
G01*
X1048252Y667027D02*
G03*
X1046774Y668505I-1479J0D01*
G01*
X1059068Y695027D02*
G03*
X1060546Y693548I1479J0D01*
G01*
X1059068Y700440D02*
G03*
X1057928Y701579I-1140J0D01*
G01*
X1056951D02*
G03*
X1055810Y700440I0J-1140D01*
G01*
X1054332Y693548D02*
G03*
X1055810Y695027I0J1479D01*
G01*
X1133907Y716115D02*
G03*
X1132428Y714636I0J-1479D01*
G01*
X1131289Y710464D02*
G03*
X1132428Y711604I0J1140D01*
G01*
X1129172D02*
G03*
X1130311Y710464I1140J0D01*
G01*
X1129172Y726787D02*
G03*
X1128032Y727926I-1140J0D01*
G01*
X1127055D02*
G03*
X1125915Y726787I0J-1140D01*
G01*
X1124436Y716115D02*
G03*
X1125915Y717593I0J1479D01*
G01*
X1116820Y716115D02*
G03*
X1115341Y714636I0J-1479D01*
G01*
X1114201Y710535D02*
G03*
X1115341Y711674I0J1140D01*
G01*
X1112084D02*
G03*
X1113224Y710535I1140J0D01*
G01*
X1112084Y726787D02*
G03*
X1110944Y727926I-1140J0D01*
G01*
X1109967D02*
G03*
X1108827Y726787I0J-1140D01*
G01*
X1107687Y705908D02*
G03*
X1108827Y707048I0J1140D01*
G01*
X1105570D02*
G03*
X1106710Y705908I1140J0D01*
G01*
X1105570Y726787D02*
G03*
X1104430Y727926I-1140J0D01*
G01*
X1103453D02*
G03*
X1102313Y726787I0J-1140D01*
G01*
X1101173Y710535D02*
G03*
X1102313Y711674I0J1140D01*
G01*
X1099056D02*
G03*
X1100196Y710535I1140J0D01*
G01*
X1099056Y723156D02*
G03*
X1097916Y724296I-1140J0D01*
G01*
X1096939D02*
G03*
X1095799Y723156I0J-1140D01*
G01*
X1095366Y709480D02*
G03*
X1095799Y710526I-1046J1046D01*
G01*
X1086028Y703713D02*
G03*
X1088553Y702667I1479J0D01*
G01*
X1086028Y705239D02*
G03*
X1084888Y706379I-1140J0D01*
G01*
X1083911D02*
G03*
X1082771Y705239I0J-1140D01*
G01*
X1082201Y696316D02*
G03*
X1082771Y697692I-1376J1376D01*
G01*
X1015323Y719597D02*
G03*
X1016802Y718118I1479J0D01*
G01*
X1015323Y723111D02*
G03*
X1014183Y724251I-1140J0D01*
G01*
X1013206D02*
G03*
X1012066Y723111I0J-1140D01*
G01*
X1010926Y710153D02*
G03*
X1012066Y711292I0J1140D01*
G01*
X1008809D02*
G03*
X1009949Y710153I1140J0D01*
G01*
X1008809Y733624D02*
G03*
X1007669Y734764I-1140J0D01*
G01*
X1006692D02*
G03*
X1005552Y733624I0J-1140D01*
G01*
X1004412Y710153D02*
G03*
X1005552Y711292I0J1140D01*
G01*
X1002295D02*
G03*
X1003435Y710153I1140J0D01*
G01*
X1002295Y733624D02*
G03*
X1001155Y734764I-1140J0D01*
G01*
X1000178D02*
G03*
X999038Y733624I0J-1140D01*
G01*
X997560Y718118D02*
G03*
X999038Y719597I0J1479D01*
G01*
X1140313Y639080D02*
G03*
X1142404Y639080I1046J1046D01*
G01*
X1139961Y639432D02*
G03*
X1138349Y639432I-806J-806D01*
G01*
X1137658Y638741D02*
G03*
X1137658Y637129I806J-806D01*
G01*
X1138010Y634686D02*
G03*
X1138010Y636777I-1046J1046D01*
G01*
X1128663Y634917D02*
G03*
X1130142Y633438I1479J0D01*
G01*
X1128663Y636306D02*
G03*
X1127524Y637446I-1140J0D01*
G01*
X1126546D02*
G03*
X1125406Y636306I0J-1140D01*
G01*
X1123928Y633438D02*
G03*
X1125406Y634917I0J1479D01*
G01*
X1068469Y633438D02*
G03*
X1069948Y634917I0J1479D01*
G01*
X1071088Y636931D02*
G03*
X1069948Y635791I0J-1140D01*
G01*
X1073205D02*
G03*
X1072065Y636931I-1140J0D01*
G01*
X1073205Y633891D02*
G03*
X1074345Y632752I1140J0D01*
G01*
X1075322D02*
G03*
X1076462Y633891I0J1140D01*
G01*
X1077602Y636931D02*
G03*
X1076462Y635791I0J-1140D01*
G01*
X1079719D02*
G03*
X1078579Y636931I-1140J0D01*
G01*
X1079719Y633891D02*
G03*
X1080859Y632752I1140J0D01*
G01*
X1081836D02*
G03*
X1082976Y633891I0J1140D01*
G01*
X1084116Y636931D02*
G03*
X1082976Y635791I0J-1140D01*
G01*
X1086233D02*
G03*
X1085093Y636931I-1140J0D01*
G01*
X1086233Y633891D02*
G03*
X1087373Y632752I1140J0D01*
G01*
X1088350D02*
G03*
X1089490Y633891I0J1140D01*
G01*
X1090630Y636931D02*
G03*
X1089490Y635791I0J-1140D01*
G01*
X1092747D02*
G03*
X1091607Y636931I-1140J0D01*
G01*
X1092747Y633891D02*
G03*
X1093887Y632752I1140J0D01*
G01*
X1094864D02*
G03*
X1096004Y633891I0J1140D01*
G01*
X1097144Y636948D02*
G03*
X1096004Y635808I0J-1140D01*
G01*
X1099261D02*
G03*
X1098121Y636948I-1140J0D01*
G01*
X1099261Y633891D02*
G03*
X1100401Y632752I1140J0D01*
G01*
X1101378D02*
G03*
X1102518Y633891I0J1140D01*
G01*
X1103658Y642583D02*
G03*
X1102518Y641443I0J-1140D01*
G01*
X1105775D02*
G03*
X1104635Y642583I-1140J0D01*
G01*
X1105775Y634917D02*
G03*
X1107253Y633438I1479J0D01*
G01*
X1129766Y650240D02*
G03*
X1128287Y648761I0J-1479D01*
G01*
X1127147Y640277D02*
G03*
X1128287Y641417I0J1140D01*
G01*
X1125030D02*
G03*
X1126170Y640277I1140J0D01*
G01*
X1125030Y657425D02*
G03*
X1123890Y658565I-1140J0D01*
G01*
X1122913D02*
G03*
X1121773Y657425I0J-1140D01*
G01*
X1120633Y636270D02*
G03*
X1121773Y637410I0J1140D01*
G01*
X1118516D02*
G03*
X1119656Y636270I1140J0D01*
G01*
X1118516Y652596D02*
G03*
X1117376Y653736I-1140J0D01*
G01*
X1116399D02*
G03*
X1115259Y652596I0J-1140D01*
G01*
X1114119Y636270D02*
G03*
X1115259Y637410I0J1140D01*
G01*
X1112002D02*
G03*
X1113142Y636270I1140J0D01*
G01*
X1112002Y656561D02*
G03*
X1110862Y657701I-1140J0D01*
G01*
X1109885D02*
G03*
X1108745Y656561I0J-1140D01*
G01*
X1107266Y650240D02*
G03*
X1108745Y651719I0J1479D01*
G01*
X962642Y677654D02*
G03*
X962642Y675562I1046J-1046D01*
G01*
X964585Y672007D02*
G03*
X964585Y673619I-806J806D01*
G01*
X962282Y671316D02*
G03*
X963894Y671316I806J806D01*
G01*
X952957Y680640D02*
G03*
X951345Y680640I-806J-806D01*
G01*
X950654Y679950D02*
G03*
X950654Y678337I806J-806D01*
G01*
X955944Y670956D02*
G03*
X955944Y673047I-1046J1046D01*
G01*
X1099327Y661178D02*
G03*
X1099327Y659086I1046J-1046D01*
G01*
X1099919Y656883D02*
G03*
X1099919Y658495I-806J806D01*
G01*
X1097616Y656192D02*
G03*
X1099228Y656192I806J806D01*
G01*
X1093627Y660181D02*
G03*
X1092015Y660181I-806J-806D01*
G01*
X1091324Y659490D02*
G03*
X1091324Y657878I806J-806D01*
G01*
X1095312Y652277D02*
G03*
X1095312Y653889I-806J806D01*
G01*
X1093009Y651586D02*
G03*
X1094622Y651586I806J806D01*
G01*
X1088894Y655702D02*
G03*
X1087282Y655702I-806J-806D01*
G01*
X1086591Y655011D02*
G03*
X1086591Y653399I806J-806D01*
G01*
X1088024Y649874D02*
G03*
X1088024Y651965I-1046J1046D01*
G01*
X1149984Y679450D02*
G03*
X1148505Y677971I0J-1479D01*
G01*
X1147365Y674661D02*
G03*
X1148505Y675801I0J1140D01*
G01*
X1145248D02*
G03*
X1146388Y674661I1140J0D01*
G01*
X1145248Y677971D02*
G03*
X1143769Y679450I-1479J0D01*
G01*
X1125706Y680929D02*
G03*
X1127185Y679450I1479J0D01*
G01*
X1125706Y684369D02*
G03*
X1124566Y685508I-1140J0D01*
G01*
X1123589D02*
G03*
X1122449Y684369I0J-1140D01*
G01*
X1121309Y679325D02*
G03*
X1122449Y680465I0J1140D01*
G01*
X1119192D02*
G03*
X1120332Y679325I1140J0D01*
G01*
X1119192Y684369D02*
G03*
X1118052Y685508I-1140J0D01*
G01*
X1117075D02*
G03*
X1115935Y684369I0J-1140D01*
G01*
X1114795Y672900D02*
G03*
X1115935Y674040I0J1140D01*
G01*
X1112678D02*
G03*
X1113818Y672900I1140J0D01*
G01*
X1112678Y678573D02*
G03*
X1111538Y679713I-1140J0D01*
G01*
X1110561D02*
G03*
X1109421Y678573I0J-1140D01*
G01*
X1108281Y666386D02*
G03*
X1109421Y667526I0J1140D01*
G01*
X1106164D02*
G03*
X1107304Y666386I1140J0D01*
G01*
X1106164Y672059D02*
G03*
X1105025Y673199I-1140J0D01*
G01*
X1104047D02*
G03*
X1102907Y672059I0J-1140D01*
G01*
X1102337Y664187D02*
G03*
X1102907Y665564I-1376J1376D01*
G01*
X1143633Y671830D02*
G03*
X1142154Y670351I0J-1479D01*
G01*
X1141014Y669211D02*
G03*
X1142154Y670351I0J1140D01*
G01*
X1138897D02*
G03*
X1140037Y669211I1140J0D01*
G01*
X1138897Y675260D02*
G03*
X1137757Y676400I-1140J0D01*
G01*
X1136780D02*
G03*
X1135640Y675260I0J-1140D01*
G01*
X1134500Y657045D02*
G03*
X1135640Y658185I0J1140D01*
G01*
X1132383D02*
G03*
X1133523Y657045I1140J0D01*
G01*
X1132383Y675479D02*
G03*
X1131243Y676618I-1140J0D01*
G01*
X1130266D02*
G03*
X1129126Y675479I0J-1140D01*
G01*
X1127987Y660962D02*
G03*
X1129126Y662102I0J1140D01*
G01*
X1125870D02*
G03*
X1127009Y660962I1140J0D01*
G01*
X1125870Y675479D02*
G03*
X1124730Y676618I-1140J0D01*
G01*
X1123753D02*
G03*
X1122613Y675479I0J-1140D01*
G01*
X1121134Y671830D02*
G03*
X1122613Y673309I0J1479D01*
G01*
X1013785Y625610D02*
G03*
X1012307Y627089I-1479J0D01*
G01*
X1013785Y625053D02*
G03*
X1014925Y623913I1140J0D01*
G01*
X1015902D02*
G03*
X1017042Y625053I0J1140D01*
G01*
X1018182Y627089D02*
G03*
X1017042Y625949I0J-1140D01*
G01*
X1020299D02*
G03*
X1019159Y627089I-1140J0D01*
G01*
X1020299Y623731D02*
G03*
X1021439Y622592I1140J0D01*
G01*
X1022416D02*
G03*
X1023556Y623731I0J1140D01*
G01*
X1024696Y627089D02*
G03*
X1023556Y625949I0J-1140D01*
G01*
X1026813D02*
G03*
X1025673Y627089I-1140J0D01*
G01*
X1026813Y623731D02*
G03*
X1027953Y622592I1140J0D01*
G01*
X1028930D02*
G03*
X1030070Y623731I0J1140D01*
G01*
X1031210Y627089D02*
G03*
X1030070Y625949I0J-1140D01*
G01*
X1033327D02*
G03*
X1032187Y627089I-1140J0D01*
G01*
X1033327Y623731D02*
G03*
X1034467Y622592I1140J0D01*
G01*
X1035444D02*
G03*
X1036584Y623731I0J1140D01*
G01*
X1037724Y627089D02*
G03*
X1036584Y625949I0J-1140D01*
G01*
X1039841D02*
G03*
X1038701Y627089I-1140J0D01*
G01*
X1039841Y623731D02*
G03*
X1040981Y622592I1140J0D01*
G01*
X1041958D02*
G03*
X1043098Y623731I0J1140D01*
G01*
X1044238Y627089D02*
G03*
X1043098Y625949I0J-1140D01*
G01*
X1046355D02*
G03*
X1045215Y627089I-1140J0D01*
G01*
X1046355Y623731D02*
G03*
X1047495Y622592I1140J0D01*
G01*
X1048472D02*
G03*
X1049612Y623731I0J1140D01*
G01*
X1050752Y627089D02*
G03*
X1049612Y625949I0J-1140D01*
G01*
X1052869D02*
G03*
X1051729Y627089I-1140J0D01*
G01*
X1052869Y623731D02*
G03*
X1054009Y622592I1140J0D01*
G01*
X1054986D02*
G03*
X1056126Y623731I0J1140D01*
G01*
X1057266Y627089D02*
G03*
X1056126Y625949I0J-1140D01*
G01*
X1059383D02*
G03*
X1058243Y627089I-1140J0D01*
G01*
X1059383Y623731D02*
G03*
X1060523Y622592I1140J0D01*
G01*
X1061500D02*
G03*
X1062640Y623731I0J1140D01*
G01*
X1063780Y627089D02*
G03*
X1062640Y625949I0J-1140D01*
G01*
X1065897D02*
G03*
X1064757Y627089I-1140J0D01*
G01*
X1065897Y623731D02*
G03*
X1067036Y622592I1140J0D01*
G01*
X1068014D02*
G03*
X1069154Y623731I0J1140D01*
G01*
X1070632Y627089D02*
G03*
X1069154Y625610I0J-1479D01*
G01*
X942131Y668979D02*
G03*
X943610Y670458I0J1479D01*
G01*
X939995Y668979D02*
G03*
X938855Y667839I0J-1140D01*
G01*
Y666862D02*
G03*
X939995Y665722I1140J0D01*
G01*
X944382Y664583D02*
G03*
X943242Y665722I-1140J0D01*
G01*
Y662466D02*
G03*
X944382Y663605I0J1140D01*
G01*
X932341Y662466D02*
G03*
X931201Y661326I0J-1140D01*
G01*
Y660349D02*
G03*
X932341Y659209I1140J0D01*
G01*
X944382Y658069D02*
G03*
X943242Y659209I-1140J0D01*
G01*
Y655952D02*
G03*
X944382Y657092I0J1140D01*
G01*
X932341Y655952D02*
G03*
X931201Y654812I0J-1140D01*
G01*
Y653835D02*
G03*
X932341Y652695I1140J0D01*
G01*
X943610Y651216D02*
G03*
X942131Y652695I-1479J0D01*
G01*
X1135366Y701862D02*
G03*
X1133887Y700383I0J-1479D01*
G01*
X1132747Y698709D02*
G03*
X1133887Y699849I0J1140D01*
G01*
X1130630D02*
G03*
X1131770Y698709I1140J0D01*
G01*
X1130630Y706493D02*
G03*
X1129490Y707633I-1140J0D01*
G01*
X1128513D02*
G03*
X1127373Y706493I0J-1140D01*
G01*
X1126233Y701862D02*
G03*
X1127373Y703002I0J1140D01*
G01*
X1124116D02*
G03*
X1125256Y701862I1140J0D01*
G01*
X1124116Y706563D02*
G03*
X1122976Y707703I-1140J0D01*
G01*
X1121999D02*
G03*
X1120859Y706563I0J-1140D01*
G01*
X1119719Y700528D02*
G03*
X1120859Y701668I0J1140D01*
G01*
X1117602D02*
G03*
X1118742Y700528I1140J0D01*
G01*
X1117602Y706563D02*
G03*
X1116462Y707703I-1140J0D01*
G01*
X1115485D02*
G03*
X1114345Y706563I0J-1140D01*
G01*
X1113205Y694159D02*
G03*
X1114345Y695299I0J1140D01*
G01*
X1111088D02*
G03*
X1112228Y694159I1140J0D01*
G01*
X1111088Y699022D02*
G03*
X1109949Y700162I-1140J0D01*
G01*
X1108971D02*
G03*
X1107831Y699022I0J-1140D01*
G01*
X1106692Y694159D02*
G03*
X1107831Y695299I0J1140D01*
G01*
X1104575D02*
G03*
X1105714Y694159I1140J0D01*
G01*
X1104575Y697536D02*
G03*
X1103435Y698676I-1140J0D01*
G01*
X1102458D02*
G03*
X1101318Y697536I0J-1140D01*
G01*
X1100178Y694159D02*
G03*
X1101318Y695299I0J1140D01*
G01*
X1098061D02*
G03*
X1099201Y694159I1140J0D01*
G01*
X1098061Y702389D02*
G03*
X1096921Y703529I-1140J0D01*
G01*
X1095944D02*
G03*
X1094804Y702389I0J-1140D01*
G01*
X1093664Y694159D02*
G03*
X1094804Y695299I0J1140D01*
G01*
X1091547D02*
G03*
X1092687Y694159I1140J0D01*
G01*
X1091547Y697197D02*
G03*
X1090068Y698676I-1479J0D01*
G01*
X1075695Y685805D02*
G03*
X1075262Y684760I1046J-1046D01*
G01*
X1074122Y679216D02*
G03*
X1075262Y680356I0J1140D01*
G01*
X1072005D02*
G03*
X1073145Y679216I1140J0D01*
G01*
X1072005Y689577D02*
G03*
X1070865Y690716I-1140J0D01*
G01*
X1069888D02*
G03*
X1068748Y689577I0J-1140D01*
G01*
X1067608Y676356D02*
G03*
X1068748Y677496I0J1140D01*
G01*
X1065491D02*
G03*
X1066631Y676356I1140J0D01*
G01*
X1065491Y682573D02*
G03*
X1064351Y683713I-1140J0D01*
G01*
X1063374D02*
G03*
X1062234Y682573I0J-1140D01*
G01*
X1061094Y676356D02*
G03*
X1062234Y677496I0J1140D01*
G01*
X1058977D02*
G03*
X1060117Y676356I1140J0D01*
G01*
X1058977Y684418D02*
G03*
X1057837Y685558I-1140J0D01*
G01*
X1056860D02*
G03*
X1055720Y684418I0J-1140D01*
G01*
X1054581Y676356D02*
G03*
X1055720Y677496I0J1140D01*
G01*
X1052464D02*
G03*
X1053603Y676356I1140J0D01*
G01*
X1052464Y689577D02*
G03*
X1051324Y690716I-1140J0D01*
G01*
X1050347D02*
G03*
X1049206Y689577I0J-1140D01*
G01*
X1047728Y681990D02*
G03*
X1049206Y683469I0J1479D01*
G01*
X987390Y687999D02*
X991636D01*
X982980Y714502D02*
X983068Y714414D01*
X943102Y714502D02*
X982980D01*
X1192006Y730758D02*
X1202765Y719999D01*
X1209556D02*
X1214600Y725043D01*
X1202765Y719999D02*
X1209556D01*
X1134110Y612140D02*
X1210967Y688997D01*
X1142709Y627089D02*
X1203695Y688075D01*
X1173480Y662940D02*
X1193800Y683260D01*
X1182060Y705541D02*
X1188720Y698881D01*
X1187196Y705612D02*
X1193800Y699008D01*
X1176065Y705541D02*
X1182060D01*
X1188720Y683260D02*
Y698881D01*
X1193800Y683260D02*
Y699008D01*
X1173226Y667766D02*
X1188720Y683260D01*
X1172283Y684457D02*
X1174365D01*
X1174496Y684588D01*
X1176246Y680972D02*
X1179830Y684556D01*
X1155700Y688340D02*
X1163068Y680972D01*
X1155700Y679450D02*
X1157010Y678141D01*
X1163068Y680972D02*
X1176246D01*
X1178206Y678141D02*
X1185104Y685038D01*
X1157010Y678141D02*
X1178206D01*
X1162304Y667766D02*
X1173226D01*
X1156191Y663685D02*
X1156225D01*
X1160780Y650240D02*
Y659130D01*
X1156225Y663685D02*
X1160780Y659130D01*
X1162050Y662940D02*
X1173480D01*
X1157672Y667318D02*
X1162050Y662940D01*
X1149918Y667318D02*
X1157672D01*
X1158240Y671830D02*
X1162304Y667766D01*
X1146556Y671830D02*
X1158240D01*
X1164366Y685994D02*
X1164455D01*
X1159032Y691328D02*
X1164366Y685994D01*
X1203695Y688075D02*
Y705470D01*
X1203766Y705541D01*
X1196629Y720090D02*
X1210967Y705752D01*
Y688997D02*
Y705752D01*
X937260Y612140D02*
X1134110D01*
X956310Y664210D02*
X956522Y663998D01*
X966216D01*
X924160Y625240D02*
X937260Y612140D01*
X950722Y619760D02*
X1135380D01*
X977817Y673525D02*
X981456Y677164D01*
X988822D01*
X972141Y673525D02*
X977817D01*
X992461D02*
X994696D01*
X988822Y677164D02*
X992461Y673525D01*
X984555Y684590D02*
X987663Y681482D01*
X982080Y684590D02*
X984555D01*
X978671Y687999D02*
X982080Y684590D01*
X987663Y681482D02*
X1007933D01*
X1014402Y687951D01*
X971998Y687999D02*
X972422D01*
X973207Y687214D01*
X974090Y681990D02*
Y686348D01*
X973224Y687214D02*
X974090Y686348D01*
X970534Y678434D02*
X974090Y681990D01*
X973207Y687214D02*
X973224D01*
X970534Y675132D02*
Y678434D01*
Y675132D02*
X972141Y673525D01*
X1053860Y652383D02*
X1058672D01*
X1052381Y649606D02*
Y650904D01*
X1050264Y648467D02*
X1051241D01*
X1049124Y649606D02*
Y651239D01*
X1047007Y652379D02*
X1047984D01*
X1045867Y649606D02*
Y651239D01*
X1043750Y648467D02*
X1044727D01*
X1042610Y649606D02*
Y650904D01*
X1037135Y652383D02*
X1041131D01*
X1031795D02*
X1036477D01*
X1030316Y653862D02*
Y659477D01*
X1028199Y660617D02*
X1029176D01*
X1027059Y653862D02*
Y659477D01*
X998363Y652383D02*
X1025581D01*
X991616Y659130D02*
X998363Y652383D01*
X980484Y659130D02*
X991616D01*
X975616Y663998D02*
X980484Y659130D01*
X966216Y663998D02*
X975616D01*
X1091378Y691328D02*
X1094417D01*
X1088542Y688493D02*
X1091378Y691328D01*
X1088109Y672477D02*
Y687447D01*
X1085992Y671337D02*
X1086969D01*
X1084852Y672477D02*
Y686561D01*
X1082735Y687701D02*
X1083712D01*
X1081595Y672477D02*
Y686561D01*
X1079478Y671337D02*
X1080455D01*
X1078338Y672477D02*
Y674718D01*
X1073912Y673862D02*
X1075814Y675764D01*
X1069591Y673862D02*
X1073912D01*
X1069253Y673525D02*
X1069591Y673862D01*
X1047248Y673525D02*
X1069253D01*
X1045769Y675004D02*
Y678019D01*
X1043652Y679158D02*
X1044629D01*
X1042512Y671410D02*
Y678019D01*
X1040395Y670270D02*
X1041372D01*
X1039255Y671410D02*
Y672722D01*
X1037138Y673862D02*
X1038115D01*
X1035998Y667419D02*
Y672722D01*
X1033881Y666280D02*
X1034858D01*
X1032741Y667419D02*
Y673847D01*
X1030624Y674987D02*
X1031601D01*
X1029484Y667419D02*
Y673847D01*
X1027367Y666280D02*
X1028344D01*
X1026227Y667419D02*
Y674186D01*
X1024110Y675326D02*
X1025088D01*
X1022971Y667419D02*
Y674186D01*
X1020854Y666280D02*
X1021831D01*
X1019714Y667419D02*
Y672740D01*
X1017597Y673880D02*
X1018574D01*
X1016457Y667419D02*
Y672740D01*
X1014340Y666280D02*
X1015317D01*
X1013200Y667419D02*
Y672046D01*
X1004908Y673525D02*
X1011721D01*
X1003429Y667419D02*
Y672046D01*
X1001312Y666280D02*
X1002289D01*
X1000172Y667419D02*
Y677511D01*
X998055Y678651D02*
X999032D01*
X996915Y675004D02*
Y677511D01*
X994696Y673525D02*
X995436D01*
X1094417Y691328D02*
X1159032D01*
X987806Y639826D02*
X991362Y636270D01*
X1061720D01*
X952306Y653069D02*
X953865Y651510D01*
X952306Y653069D02*
Y667318D01*
X956310Y656438D02*
X959002Y659130D01*
X974090D01*
X953865Y651510D02*
X957580D01*
X952306Y667318D02*
X955421Y670433D01*
X943610Y676910D02*
X954699Y687999D01*
X963866D01*
X963998Y687867D01*
X924160Y625240D02*
Y705720D01*
X928370Y709930D01*
Y642112D02*
Y695645D01*
X935383Y702657D01*
X928370Y642112D02*
X950722Y619760D01*
X935383Y702657D02*
Y706783D01*
X943102Y714502D01*
X1007134Y684688D02*
X1015994Y693548D01*
X994946Y684688D02*
X1007134D01*
X991636Y687999D02*
X994946Y684688D01*
X1039694Y663448D02*
X1043686Y667440D01*
X982472Y663448D02*
X1039694D01*
X979170Y666750D02*
X982472Y663448D01*
X1036477Y652383D02*
X1037135D01*
X944382Y646238D02*
Y646501D01*
Y646238D02*
X946500Y644119D01*
X946764D01*
X946993Y643890D01*
X943610Y647273D02*
X944382Y646501D01*
X1170238Y686502D02*
Y698361D01*
Y686502D02*
X1172283Y684457D01*
X1179830Y684556D02*
Y695960D01*
X1172210Y703580D02*
X1179830Y695960D01*
X1172210Y703580D02*
Y707390D01*
X1169379Y699221D02*
Y717259D01*
X1172210Y720090D01*
X1169379Y699221D02*
X1170238Y698361D01*
X1172210Y707390D02*
X1180702Y715882D01*
X1172210Y720090D02*
X1196629D01*
X1164578Y719836D02*
X1169853Y725110D01*
X1140371Y719836D02*
X1164578D01*
X1071372Y627089D02*
X1142709D01*
X963491Y696505D02*
X967998Y691999D01*
X1136650Y716115D02*
X1140371Y719836D01*
X1100076Y673704D02*
X1108916Y682545D01*
X1109011D01*
X1114806Y688340D02*
X1155700D01*
X1094971Y668505D02*
X1100076Y673610D01*
Y673704D01*
X1109011Y682545D02*
X1114806Y688340D01*
X1075004Y668505D02*
X1094971D01*
X1072530D02*
X1075004D01*
X1071051Y660074D02*
Y667027D01*
X1068934Y658934D02*
X1069911D01*
X1067794Y660074D02*
Y669553D01*
X1065677Y670693D02*
X1066654D01*
X1064537Y656321D02*
Y669553D01*
X1062420Y655181D02*
X1063397D01*
X1061280Y656321D02*
Y669553D01*
X1059163Y670693D02*
X1060140D01*
X1058023Y656354D02*
Y669553D01*
X1055906Y655214D02*
X1056883D01*
X1054766Y656354D02*
Y669553D01*
X1052649Y670693D02*
X1053626D01*
X1051509Y656350D02*
Y669553D01*
X1049392Y655211D02*
X1050369D01*
X1048252Y656350D02*
Y667027D01*
X1044752Y668505D02*
X1046774D01*
X1043686Y667440D02*
X1044752Y668505D01*
X1180702Y715882D02*
X1184546D01*
X1153160Y700256D02*
X1161564D01*
X1166622Y695198D01*
X1060546Y693548D02*
X1072388D01*
X1059068Y695027D02*
Y700440D01*
X1056951Y701579D02*
X1057928D01*
X1055810Y695027D02*
Y700440D01*
X1053592Y693548D02*
X1054332D01*
X1072388D02*
X1079434D01*
X1015994D02*
X1053592D01*
X1079434D02*
X1081462Y695576D01*
X1133907Y716115D02*
X1136650D01*
X1132428Y711604D02*
Y714636D01*
X1130311Y710464D02*
X1131289D01*
X1129172Y711604D02*
Y726787D01*
X1127055Y727926D02*
X1128032D01*
X1125915Y717593D02*
Y726787D01*
X1123696Y716115D02*
X1124436D01*
X1121525D02*
X1123696D01*
X1116820D02*
X1121525D01*
X1115341Y711674D02*
Y714636D01*
X1113224Y710535D02*
X1114201D01*
X1112084Y711674D02*
Y726787D01*
X1109967Y727926D02*
X1110944D01*
X1108827Y707048D02*
Y726787D01*
X1106710Y705908D02*
X1107687D01*
X1105570Y707048D02*
Y726787D01*
X1103453Y727926D02*
X1104430D01*
X1102313Y711674D02*
Y726787D01*
X1100196Y710535D02*
X1101173D01*
X1099056Y711674D02*
Y723156D01*
X1096939Y724296D02*
X1097916D01*
X1095799Y710526D02*
Y723156D01*
X1088553Y702667D02*
X1095366Y709480D01*
X1086028Y703713D02*
Y705239D01*
X1083911Y706379D02*
X1084888D01*
X1082771Y697692D02*
Y705239D01*
X1081462Y695576D02*
X1082201Y696316D01*
X1169853Y725110D02*
X1174496D01*
X1016802Y718118D02*
X1021239D01*
X1015323Y719597D02*
Y723111D01*
X1013206Y724251D02*
X1014183D01*
X1012066Y711292D02*
Y723111D01*
X1009949Y710153D02*
X1010926D01*
X1008809Y711292D02*
Y733624D01*
X1006692Y734764D02*
X1007669D01*
X1005552Y711292D02*
Y733624D01*
X1003435Y710153D02*
X1004412D01*
X1002295Y711292D02*
Y733624D01*
X1000178Y734764D02*
X1001155D01*
X999038Y719597D02*
Y733624D01*
X996820Y718118D02*
X997560D01*
X1021239D02*
X1085617D01*
X994155D02*
X996820D01*
X972036Y695999D02*
X994155Y718118D01*
X1142404Y639080D02*
X1150187Y646863D01*
X1139961Y639432D02*
X1140313Y639080D01*
X1137658Y638741D02*
X1138349Y639432D01*
X1137658Y637129D02*
X1138010Y636777D01*
X1138010Y636777D02*
X1138010Y636777D01*
X1137487Y634163D02*
X1138010Y634686D01*
X1150187Y646863D02*
X1154246Y650922D01*
X1136763Y633438D02*
X1137487Y634163D01*
X1134618Y633438D02*
X1136763D01*
X1130142D02*
X1134618D01*
X1128663Y634917D02*
Y636306D01*
X1126546Y637446D02*
X1127524D01*
X1125406Y634917D02*
Y636306D01*
X1123188Y633438D02*
X1123928D01*
X1111250D02*
X1123188D01*
X1064768D02*
X1068469D01*
X1069948Y634917D02*
Y635791D01*
X1071088Y636931D02*
X1072065D01*
X1073205Y633891D02*
Y635791D01*
X1074345Y632752D02*
X1075322D01*
X1076462Y633891D02*
Y635791D01*
X1077602Y636931D02*
X1078579D01*
X1079719Y633891D02*
Y635791D01*
X1080859Y632752D02*
X1081836D01*
X1082976Y633891D02*
Y635791D01*
X1084116Y636931D02*
X1085093D01*
X1086233Y633891D02*
Y635791D01*
X1087373Y632752D02*
X1088350D01*
X1089490Y633891D02*
Y635791D01*
X1090630Y636931D02*
X1091607D01*
X1092747Y633891D02*
Y635791D01*
X1093887Y632752D02*
X1094864D01*
X1096004Y633891D02*
Y635808D01*
X1097144Y636948D02*
X1098121D01*
X1099261Y633891D02*
Y635808D01*
X1100401Y632752D02*
X1101378D01*
X1102518Y633891D02*
Y641443D01*
X1103658Y642583D02*
X1104635D01*
X1105775Y634917D02*
Y641443D01*
X1107253Y633438D02*
X1111250D01*
X987336D02*
X1064768D01*
X1132840Y650240D02*
X1136650Y654050D01*
X1129766Y650240D02*
X1132840D01*
X1128287Y641417D02*
Y648761D01*
X1126170Y640277D02*
X1127147D01*
X1125030Y641417D02*
Y657425D01*
X1122913Y658565D02*
X1123890D01*
X1121773Y637410D02*
Y657425D01*
X1119656Y636270D02*
X1120633D01*
X1118516Y637410D02*
Y652596D01*
X1116399Y653736D02*
X1117376D01*
X1115259Y637410D02*
Y652596D01*
X1113142Y636270D02*
X1114119D01*
X1112002Y637410D02*
Y656561D01*
X1109885Y657701D02*
X1110862D01*
X1108745Y651719D02*
Y656561D01*
X1106527Y650240D02*
X1107266D01*
X1106170D02*
X1106527D01*
X1095693Y639762D02*
X1106170Y650240D01*
X1061720Y636270D02*
X1065212Y639762D01*
X1095693D01*
X1090988Y643948D02*
X1118870Y671830D01*
X997965Y643948D02*
X1090988D01*
X976062Y644712D02*
Y649064D01*
Y644712D02*
X987336Y633438D01*
X962642Y677654D02*
X965835Y680847D01*
X962642Y675562D02*
X964585Y673619D01*
X964585Y673619D02*
X964585Y673619D01*
X963894Y671316D02*
X964585Y672007D01*
X962282Y671316D02*
X962282Y671316D01*
X952957Y680640D02*
X962282Y671316D01*
X952957Y680640D02*
X952957Y680640D01*
X950654Y679950D02*
X951345Y680640D01*
X950654Y678337D02*
X950654Y678337D01*
X955944Y673047D01*
X955944Y673047D02*
X955944Y673047D01*
X955421Y670433D02*
X955944Y670956D01*
X965835Y680847D02*
X967998Y683010D01*
Y691999D01*
X1058672Y652383D02*
X1060847D01*
X1066098Y647132D01*
X1085282D01*
X1099327Y661178D02*
X1101344Y663194D01*
X1099327Y659086D02*
X1099919Y658495D01*
X1099919Y658495D02*
X1099919Y658495D01*
X1099228Y656192D02*
X1099919Y656883D01*
X1097616Y656192D02*
X1097616Y656192D01*
X1093627Y660181D02*
X1097616Y656192D01*
X1093627Y660181D02*
X1093627Y660181D01*
X1091324Y659490D02*
X1092015Y660181D01*
X1091324Y657878D02*
X1091324Y657878D01*
X1095312Y653889D01*
X1095312Y653889D02*
X1095312Y653889D01*
X1094622Y651586D02*
X1095312Y652277D01*
X1093009Y651586D02*
X1093009Y651586D01*
X1088894Y655702D02*
X1093009Y651586D01*
X1088894Y655702D02*
X1088894Y655702D01*
X1086591Y655011D02*
X1087282Y655702D01*
X1086591Y653399D02*
X1086591Y653399D01*
X1088024Y651965D01*
X1088024Y651965D02*
X1088024Y651965D01*
X1087501Y649351D02*
X1088024Y649874D01*
X1101344Y663194D02*
X1101598Y663448D01*
X1085282Y647132D02*
X1087501Y649351D01*
X1149984Y679450D02*
X1152906D01*
X1148505Y675801D02*
Y677971D01*
X1146388Y674661D02*
X1147365D01*
X1145248Y675801D02*
Y677971D01*
X1127185Y679450D02*
X1143769D01*
X1125706Y680929D02*
Y684369D01*
X1123589Y685508D02*
X1124566D01*
X1122449Y680465D02*
Y684369D01*
X1120332Y679325D02*
X1121309D01*
X1119192Y680465D02*
Y684369D01*
X1117075Y685508D02*
X1118052D01*
X1115935Y674040D02*
Y684369D01*
X1113818Y672900D02*
X1114795D01*
X1112678Y674040D02*
Y678573D01*
X1110561Y679713D02*
X1111538D01*
X1109421Y667526D02*
Y678573D01*
X1107304Y666386D02*
X1108281D01*
X1106164Y667526D02*
Y672059D01*
X1104047Y673199D02*
X1105025D01*
X1102907Y665564D02*
Y672059D01*
X1101598Y663448D02*
X1102337Y664187D01*
X1152906Y679450D02*
X1155700D01*
X1143633Y671830D02*
X1146556D01*
X1142154Y670351D02*
Y670351D01*
X1140037Y669211D02*
X1141014D01*
X1138897Y670351D02*
Y675260D01*
X1136780Y676400D02*
X1137757D01*
X1135640Y658185D02*
Y675260D01*
X1133523Y657045D02*
X1134500D01*
X1132383Y658185D02*
Y675479D01*
X1130266Y676618D02*
X1131243D01*
X1129126Y662102D02*
Y675479D01*
X1127009Y660962D02*
X1127987D01*
X1125870Y662102D02*
Y675479D01*
X1123753Y676618D02*
X1124730D01*
X1122613Y673309D02*
Y675479D01*
X1120394Y671830D02*
X1121134D01*
X1118870D02*
X1120394D01*
X1136650Y654050D02*
X1149918Y667318D01*
X1098257Y730758D02*
X1192006D01*
X1014402Y687951D02*
X1038363D01*
X989076Y627089D02*
X1012307D01*
X1013785Y625053D02*
Y625610D01*
X1014925Y623913D02*
X1015902D01*
X1017042Y625053D02*
Y625949D01*
X1018182Y627089D02*
X1019159D01*
X1020299Y623731D02*
Y625949D01*
X1021439Y622592D02*
X1022416D01*
X1023556Y623731D02*
Y625949D01*
X1024696Y627089D02*
X1025673D01*
X1026813Y623731D02*
Y625949D01*
X1027953Y622592D02*
X1028930D01*
X1030070Y623731D02*
Y625949D01*
X1031210Y627089D02*
X1032187D01*
X1033327Y623731D02*
Y625949D01*
X1034467Y622592D02*
X1035444D01*
X1036584Y623731D02*
Y625949D01*
X1037724Y627089D02*
X1038701D01*
X1039841Y623731D02*
Y625949D01*
X1040981Y622592D02*
X1041958D01*
X1043098Y623731D02*
Y625949D01*
X1044238Y627089D02*
X1045215D01*
X1046355Y623731D02*
Y625949D01*
X1047495Y622592D02*
X1048472D01*
X1049612Y623731D02*
Y625949D01*
X1050752Y627089D02*
X1051729D01*
X1052869Y623731D02*
Y625949D01*
X1054009Y622592D02*
X1054986D01*
X1056126Y623731D02*
Y625949D01*
X1057266Y627089D02*
X1058243D01*
X1059383Y623731D02*
Y625949D01*
X1060523Y622592D02*
X1061500D01*
X1062640Y623731D02*
Y625949D01*
X1063780Y627089D02*
X1064757D01*
X1065897Y623731D02*
Y625949D01*
X1067036Y622592D02*
X1068014D01*
X1069154Y623731D02*
Y625610D01*
X1070632Y627089D02*
X1071372D01*
X968031D02*
X989076D01*
X943610Y672697D02*
Y676910D01*
Y670458D02*
Y672697D01*
X939995Y668979D02*
X942131D01*
X938855Y666862D02*
Y667839D01*
X939995Y665722D02*
X943242D01*
X944382Y663605D02*
Y664583D01*
X932341Y662466D02*
X943242D01*
X931201Y660349D02*
Y661326D01*
X932341Y659209D02*
X943242D01*
X944382Y657092D02*
Y658069D01*
X932341Y655952D02*
X943242D01*
X931201Y653835D02*
Y654812D01*
X932341Y652695D02*
X942131D01*
X943610Y650476D02*
Y651216D01*
Y647273D02*
Y650476D01*
X946993Y643890D02*
X955006D01*
X1141710Y700256D02*
X1153160D01*
X1140103Y701862D02*
X1141710Y700256D01*
X1135366Y701862D02*
X1140103D01*
X1133887Y699849D02*
Y700383D01*
X1131770Y698709D02*
X1132747D01*
X1130630Y699849D02*
Y706493D01*
X1128513Y707633D02*
X1129490D01*
X1127373Y703002D02*
Y706493D01*
X1125256Y701862D02*
X1126233D01*
X1124116Y703002D02*
Y706563D01*
X1121999Y707703D02*
X1122976D01*
X1120859Y701668D02*
Y706563D01*
X1118742Y700528D02*
X1119719D01*
X1117602Y701668D02*
Y706563D01*
X1115485Y707703D02*
X1116462D01*
X1114345Y695299D02*
Y706563D01*
X1112228Y694159D02*
X1113205D01*
X1111088Y695299D02*
Y699022D01*
X1108971Y700162D02*
X1109949D01*
X1107831Y695299D02*
Y699022D01*
X1105714Y694159D02*
X1106692D01*
X1104575Y695299D02*
Y697536D01*
X1102458Y698676D02*
X1103435D01*
X1101318Y695299D02*
Y697536D01*
X1099201Y694159D02*
X1100178D01*
X1098061Y695299D02*
Y702389D01*
X1095944Y703529D02*
X1096921D01*
X1094804Y695299D02*
Y702389D01*
X1092687Y694159D02*
X1093664D01*
X1091547Y695299D02*
Y697197D01*
X1088566Y698676D02*
X1090068D01*
X1075695Y685805D02*
X1088566Y698676D01*
X1075262Y680356D02*
Y684760D01*
X1073145Y679216D02*
X1074122D01*
X1072005Y680356D02*
Y689577D01*
X1069888Y690716D02*
X1070865D01*
X1068748Y677496D02*
Y689577D01*
X1066631Y676356D02*
X1067608D01*
X1065491Y677496D02*
Y682573D01*
X1063374Y683713D02*
X1064351D01*
X1062234Y677496D02*
Y682573D01*
X1060117Y676356D02*
X1061094D01*
X1058977Y677496D02*
Y684418D01*
X1056860Y685558D02*
X1057837D01*
X1055720Y677496D02*
Y684418D01*
X1053603Y676356D02*
X1054581D01*
X1052464Y677496D02*
Y689577D01*
X1050347Y690716D02*
X1051324D01*
X1049206Y683469D02*
Y689577D01*
X1046988Y681990D02*
X1047728D01*
X1044324D02*
X1046988D01*
X960120Y643666D02*
X963930Y647476D01*
X960120Y635000D02*
Y643666D01*
Y635000D02*
X968031Y627089D01*
X1038363Y687951D02*
X1044324Y681990D01*
X955006Y643890D02*
X962432Y651316D01*
X961390Y655320D02*
X969806D01*
X976062Y649064D01*
X1085617Y718118D02*
X1098257Y730758D01*
X968356Y646543D02*
X984978Y629920D01*
X1140460D01*
X990299Y651615D02*
X997965Y643948D01*
X963930Y647476D02*
Y647700D01*
X965428Y651316D02*
X968356Y648388D01*
X962432Y651316D02*
X965428D01*
X968356Y646543D02*
Y648388D01*
X974090Y659130D02*
X981605Y651615D01*
X990299D01*
X1154246Y650922D02*
Y655136D01*
X1154430Y655320D01*
X1140460Y629920D02*
X1160780Y650240D01*
X957580Y651510D02*
X961390Y655320D01*
D269*
X1258570Y617575D02*
X1279998Y639003D01*
X1258570Y539588D02*
Y617575D01*
X1205184Y486202D02*
X1258570Y539588D01*
X1185418Y437134D02*
X1205184Y456900D01*
Y486202D01*
X1191260Y467360D02*
Y538480D01*
X1238250Y585470D01*
X1185418Y381508D02*
Y437134D01*
X1178689Y374779D02*
X1185418Y381508D01*
X1163699Y374779D02*
X1178689D01*
X1194562Y386334D02*
Y404785D01*
X1144270Y392684D02*
Y460287D01*
Y392684D02*
X1147064Y389890D01*
X1159510D01*
X1295908Y638683D02*
Y652397D01*
X1267569Y610344D02*
X1295908Y638683D01*
Y652397D02*
X1299796Y656285D01*
X1319530Y625954D02*
Y635101D01*
X1323340Y627380D02*
Y662178D01*
X1267569Y477792D02*
Y610344D01*
X1299796Y656285D02*
Y669797D01*
X1294445Y675147D02*
X1299796Y669797D01*
X1194562Y404785D02*
X1267569Y477792D01*
X1209218Y382956D02*
Y415370D01*
X1216525Y422677D01*
X1256813D01*
X1197102Y370840D02*
X1209218Y382956D01*
X1256813Y422677D02*
X1288634Y454498D01*
Y595058D01*
X1319530Y625954D01*
X1273116Y688408D02*
X1290888D01*
X1210310Y574040D02*
Y625602D01*
X1273116Y688408D01*
X1281618Y668782D02*
X1285550Y664850D01*
X1268222Y668782D02*
X1281618D01*
X1216660Y617220D02*
X1268222Y668782D01*
X1290888Y688408D02*
X1294849Y684446D01*
X1221486Y671322D02*
X1247475Y697311D01*
X1221486Y643890D02*
Y671322D01*
X1202690Y625094D02*
X1221486Y643890D01*
X1202690Y580390D02*
Y625094D01*
X1247475Y697311D02*
X1247475D01*
X1257508Y707344D02*
X1297986D01*
X1247475Y697311D02*
X1257508Y707344D01*
X1294130Y593090D02*
X1329998Y628958D01*
X1317648Y688952D02*
X1329998Y676602D01*
Y628958D02*
Y676602D01*
X1289998Y679595D02*
X1305923D01*
X1323340Y662178D01*
X1304123Y688952D02*
X1317648D01*
X1300480Y692595D02*
Y696034D01*
Y692595D02*
X1304123Y688952D01*
X1295908Y700606D02*
X1300480Y696034D01*
X1297986Y707344D02*
X1305550Y699780D01*
Y694850D02*
Y699780D01*
X1163320Y541020D02*
X1202690Y580390D01*
X1163320Y479337D02*
Y541020D01*
X1144270Y460287D02*
X1163320Y479337D01*
X1159510Y389890D02*
X1169670Y379730D01*
X1295908Y700606D02*
Y704596D01*
X1290320Y594360D02*
X1323340Y627380D01*
X1294130Y435610D02*
Y593090D01*
X1290320Y431800D02*
X1294130Y435610D01*
X1290320Y441960D02*
Y594360D01*
X1284849Y674446D02*
X1289998Y679595D01*
X1280084Y674446D02*
X1288298Y666232D01*
Y663077D02*
Y666232D01*
X1238250Y585470D02*
Y613410D01*
X1216660Y575310D02*
Y617220D01*
X1174750Y533400D02*
X1216660Y575310D01*
X1174750Y459483D02*
Y533400D01*
X1223184Y576754D02*
Y608504D01*
X1180858Y534428D02*
X1223184Y576754D01*
X1180858Y467118D02*
Y534428D01*
X1167259Y451991D02*
X1174750Y459483D01*
X1168400Y471170D02*
Y532130D01*
X1149350Y398018D02*
Y452120D01*
X1168400Y471170D01*
X1149350Y398018D02*
X1152652Y394716D01*
X1168400Y532130D02*
X1210310Y574040D01*
X1223184Y608504D02*
X1272946Y658266D01*
X1274849Y674446D02*
X1280084D01*
X1271270Y646430D02*
X1280160D01*
X1284977Y635263D02*
Y641613D01*
X1280160Y646430D02*
X1284977Y641613D01*
X1238250Y613410D02*
X1271270Y646430D01*
X1284977Y635263D02*
X1285240Y635000D01*
X1272946Y658266D02*
X1283487D01*
X1288298Y663077D01*
X1167259Y425579D02*
Y451991D01*
M02*
