G04*
G04 #@! TF.GenerationSoftware,Altium Limited,Altium Designer,23.11.1 (41)*
G04*
G04 Layer_Color=32768*
%FSLAX44Y44*%
%MOMM*%
G71*
G04*
G04 #@! TF.SameCoordinates,2A2BF33C-356B-47B5-B991-195B9626E357*
G04*
G04*
G04 #@! TF.FilePolarity,Positive*
G04*
G01*
G75*
%ADD10C,0.2540*%
%ADD11C,0.1270*%
D10*
X930658Y295910D02*
X938276D01*
Y292101D01*
X937006Y290832D01*
X931928D01*
X930658Y292101D01*
Y295910D01*
X938276Y288293D02*
Y285753D01*
Y287023D01*
X930658D01*
X931928Y288293D01*
X930658Y276866D02*
Y281945D01*
X934467D01*
X933198Y279405D01*
Y278136D01*
X934467Y276866D01*
X937006D01*
X938276Y278136D01*
Y280675D01*
X937006Y281945D01*
X930658Y321310D02*
X938276D01*
Y317501D01*
X937006Y316232D01*
X931928D01*
X930658Y317501D01*
Y321310D01*
X938276Y313692D02*
Y311153D01*
Y312423D01*
X930658D01*
X931928Y313692D01*
X930658Y307344D02*
Y302266D01*
X931928D01*
X937006Y307344D01*
X938276D01*
X906780Y307591D02*
Y299974D01*
X902971D01*
X901702Y301244D01*
Y306322D01*
X902971Y307591D01*
X906780D01*
X899163Y299974D02*
X896623D01*
X897893D01*
Y307591D01*
X899163Y306322D01*
X892814D02*
X891545Y307591D01*
X889006D01*
X887736Y306322D01*
Y305052D01*
X889006Y303783D01*
X890275D01*
X889006D01*
X887736Y302513D01*
Y301244D01*
X889006Y299974D01*
X891545D01*
X892814Y301244D01*
X1028700Y307591D02*
Y299974D01*
X1024891D01*
X1023622Y301244D01*
Y306322D01*
X1024891Y307591D01*
X1028700D01*
X1021083Y299974D02*
X1018543D01*
X1019813D01*
Y307591D01*
X1021083Y306322D01*
X1009656Y299974D02*
X1014734D01*
X1009656Y305052D01*
Y306322D01*
X1010926Y307591D01*
X1013465D01*
X1014734Y306322D01*
X999742Y290830D02*
X992124D01*
Y294639D01*
X993394Y295908D01*
X998472D01*
X999742Y294639D01*
Y290830D01*
X992124Y298447D02*
Y300987D01*
Y299717D01*
X999742D01*
X998472Y298447D01*
X999742Y309874D02*
X998472Y307335D01*
X995933Y304795D01*
X993394D01*
X992124Y306065D01*
Y308604D01*
X993394Y309874D01*
X994663D01*
X995933Y308604D01*
Y304795D01*
X999742Y316230D02*
X992124D01*
Y320039D01*
X993394Y321308D01*
X998472D01*
X999742Y320039D01*
Y316230D01*
X992124Y323848D02*
Y326387D01*
Y325117D01*
X999742D01*
X998472Y323848D01*
X992124Y334004D02*
X999742D01*
X995933Y330196D01*
Y335274D01*
D11*
X1684558Y248246D02*
Y251632D01*
X1685405Y252478D01*
X1687097D01*
X1687944Y251632D01*
Y248246D01*
X1687097Y247400D01*
X1685405D01*
X1686251Y249092D02*
X1684558Y247400D01*
X1685405D02*
X1684558Y248246D01*
X1682865D02*
X1682019Y247400D01*
X1680326D01*
X1679480Y248246D01*
Y251632D01*
X1680326Y252478D01*
X1682019D01*
X1682865Y251632D01*
Y250785D01*
X1682019Y249939D01*
X1679480D01*
X54567Y386418D02*
X57953D01*
X58799Y385571D01*
Y383878D01*
X57953Y383032D01*
X54567D01*
X53721Y383878D01*
Y385571D01*
X55414Y384725D02*
X53721Y386418D01*
Y385571D02*
X54567Y386418D01*
X53721Y388110D02*
Y389803D01*
Y388957D01*
X58799D01*
X57953Y388110D01*
X58799Y395728D02*
Y392342D01*
X56260D01*
X57107Y394035D01*
Y394882D01*
X56260Y395728D01*
X54567D01*
X53721Y394882D01*
Y393189D01*
X54567Y392342D01*
X710862Y673270D02*
X707476D01*
X706630Y674117D01*
Y675810D01*
X707476Y676656D01*
X710862D01*
X711708Y675810D01*
Y674117D01*
X710015Y674963D02*
X711708Y673270D01*
Y674117D02*
X710862Y673270D01*
X711708Y671578D02*
Y669885D01*
Y670731D01*
X706630D01*
X707476Y671578D01*
X711708Y667346D02*
Y665653D01*
Y666499D01*
X706630D01*
X707476Y667346D01*
X1785917Y471340D02*
X1782531D01*
X1781685Y472187D01*
Y473880D01*
X1782531Y474726D01*
X1785917D01*
X1786763Y473880D01*
Y472187D01*
X1785070Y473033D02*
X1786763Y471340D01*
Y472187D02*
X1785917Y471340D01*
X1782531Y469648D02*
X1781685Y468801D01*
Y467108D01*
X1782531Y466262D01*
X1783377D01*
X1784224Y467108D01*
X1785070Y466262D01*
X1785917D01*
X1786763Y467108D01*
Y468801D01*
X1785917Y469648D01*
X1785070D01*
X1784224Y468801D01*
X1783377Y469648D01*
X1782531D01*
X1784224Y468801D02*
Y467108D01*
X1741340Y606763D02*
Y610149D01*
X1742187Y610995D01*
X1743880D01*
X1744726Y610149D01*
Y606763D01*
X1743880Y605917D01*
X1742187D01*
X1743033Y607610D02*
X1741340Y605917D01*
X1742187D02*
X1741340Y606763D01*
X1739648Y610995D02*
X1736262D01*
Y610149D01*
X1739648Y606763D01*
Y605917D01*
X1421300Y368003D02*
Y371389D01*
X1422147Y372235D01*
X1423840D01*
X1424686Y371389D01*
Y368003D01*
X1423840Y367157D01*
X1422147D01*
X1422993Y368850D02*
X1421300Y367157D01*
X1422147D02*
X1421300Y368003D01*
X1419608Y367157D02*
X1417915D01*
X1418761D01*
Y372235D01*
X1419608Y371389D01*
X1411990Y367157D02*
X1415376D01*
X1411990Y370543D01*
Y371389D01*
X1412836Y372235D01*
X1414529D01*
X1415376Y371389D01*
X1086020Y403563D02*
Y406949D01*
X1086867Y407795D01*
X1088560D01*
X1089406Y406949D01*
Y403563D01*
X1088560Y402717D01*
X1086867D01*
X1087713Y404410D02*
X1086020Y402717D01*
X1086867D02*
X1086020Y403563D01*
X1084328Y402717D02*
X1082635D01*
X1083481D01*
Y407795D01*
X1084328Y406949D01*
X1080096D02*
X1079249Y407795D01*
X1077557D01*
X1076710Y406949D01*
Y406103D01*
X1077557Y405256D01*
X1078403D01*
X1077557D01*
X1076710Y404410D01*
Y403563D01*
X1077557Y402717D01*
X1079249D01*
X1080096Y403563D01*
X364914Y905857D02*
Y909243D01*
X365761Y910089D01*
X367454D01*
X368300Y909243D01*
Y905857D01*
X367454Y905011D01*
X365761D01*
X366607Y906704D02*
X364914Y905011D01*
X365761D02*
X364914Y905857D01*
X363222Y905011D02*
X361529D01*
X362375D01*
Y910089D01*
X363222Y909243D01*
X356451Y905011D02*
Y910089D01*
X358990Y907550D01*
X355604D01*
X250020Y627677D02*
Y624291D01*
X249173Y623445D01*
X247480D01*
X246634Y624291D01*
Y627677D01*
X247480Y628523D01*
X249173D01*
X248327Y626830D02*
X250020Y628523D01*
X249173D02*
X250020Y627677D01*
X251712Y628523D02*
X253405D01*
X252559D01*
Y623445D01*
X251712Y624291D01*
X255944D02*
X256791Y623445D01*
X258484D01*
X259330Y624291D01*
Y627677D01*
X258484Y628523D01*
X256791D01*
X255944Y627677D01*
Y624291D01*
X395140Y291803D02*
Y295189D01*
X395987Y296035D01*
X397680D01*
X398526Y295189D01*
Y291803D01*
X397680Y290957D01*
X395987D01*
X396833Y292650D02*
X395140Y290957D01*
X395987D02*
X395140Y291803D01*
X393448Y295189D02*
X392601Y296035D01*
X390909D01*
X390062Y295189D01*
Y294343D01*
X390909Y293496D01*
X391755D01*
X390909D01*
X390062Y292650D01*
Y291803D01*
X390909Y290957D01*
X392601D01*
X393448Y291803D01*
X308780D02*
Y295189D01*
X309627Y296035D01*
X311320D01*
X312166Y295189D01*
Y291803D01*
X311320Y290957D01*
X309627D01*
X310473Y292650D02*
X308780Y290957D01*
X309627D02*
X308780Y291803D01*
X303702Y296035D02*
X307088D01*
Y293496D01*
X305395Y294343D01*
X304548D01*
X303702Y293496D01*
Y291803D01*
X304548Y290957D01*
X306241D01*
X307088Y291803D01*
X395140Y215603D02*
Y218989D01*
X395987Y219835D01*
X397680D01*
X398526Y218989D01*
Y215603D01*
X397680Y214757D01*
X395987D01*
X396833Y216450D02*
X395140Y214757D01*
X395987D02*
X395140Y215603D01*
X390909Y214757D02*
Y219835D01*
X393448Y217296D01*
X390062D01*
X308780Y215603D02*
Y218989D01*
X309627Y219835D01*
X311320D01*
X312166Y218989D01*
Y215603D01*
X311320Y214757D01*
X309627D01*
X310473Y216450D02*
X308780Y214757D01*
X309627D02*
X308780Y215603D01*
X303702Y214757D02*
X307088D01*
X303702Y218143D01*
Y218989D01*
X304548Y219835D01*
X306241D01*
X307088Y218989D01*
M02*
