G04*
G04 #@! TF.GenerationSoftware,Altium Limited,Altium Designer,23.11.1 (41)*
G04*
G04 Layer_Color=8388736*
%FSLAX44Y44*%
%MOMM*%
G71*
G04*
G04 #@! TF.SameCoordinates,2A2BF33C-356B-47B5-B991-195B9626E357*
G04*
G04*
G04 #@! TF.FilePolarity,Positive*
G04*
G01*
G75*
%ADD10C,0.2540*%
%ADD11C,0.1270*%
D10*
X728280Y794339D02*
Y787991D01*
X729550Y786721D01*
X732089D01*
X733358Y787991D01*
Y794339D01*
X735898Y786721D02*
X738437D01*
X737167D01*
Y794339D01*
X735898Y793069D01*
X746054Y786721D02*
Y794339D01*
X742245Y790530D01*
X747324D01*
X1367363Y483030D02*
X1373710D01*
X1374980Y484300D01*
Y486839D01*
X1373710Y488108D01*
X1367363D01*
X1374980Y490648D02*
Y493187D01*
Y491917D01*
X1367363D01*
X1368632Y490648D01*
X1373710Y496996D02*
X1374980Y498265D01*
Y500804D01*
X1373710Y502074D01*
X1368632D01*
X1367363Y500804D01*
Y498265D01*
X1368632Y496996D01*
X1369902D01*
X1371171Y498265D01*
Y502074D01*
X361524Y802642D02*
Y796294D01*
X362793Y795024D01*
X365332D01*
X366602Y796294D01*
Y802642D01*
X374219Y795024D02*
X369141D01*
X374219Y800102D01*
Y801372D01*
X372950Y802642D01*
X370411D01*
X369141Y801372D01*
X376759D02*
X378028Y802642D01*
X380567D01*
X381837Y801372D01*
Y796294D01*
X380567Y795024D01*
X378028D01*
X376759Y796294D01*
Y801372D01*
X129423Y315160D02*
X137040D01*
Y318969D01*
X135770Y320238D01*
X130692D01*
X129423Y318969D01*
Y315160D01*
X137040Y327856D02*
Y322777D01*
X131962Y327856D01*
X130692D01*
X129423Y326586D01*
Y324047D01*
X130692Y322777D01*
Y330395D02*
X129423Y331665D01*
Y334204D01*
X130692Y335473D01*
X131962D01*
X133231Y334204D01*
X134501Y335473D01*
X135770D01*
X137040Y334204D01*
Y331665D01*
X135770Y330395D01*
X134501D01*
X133231Y331665D01*
X131962Y330395D01*
X130692D01*
X133231Y331665D02*
Y334204D01*
X118310Y253642D02*
X123388D01*
X124657Y254911D01*
Y257450D01*
X123388Y258720D01*
X118310D01*
X117040Y257450D01*
Y254911D01*
X119579Y256181D02*
X117040Y253642D01*
Y254911D02*
X118310Y253642D01*
X124657Y246024D02*
X123388Y248563D01*
X120849Y251103D01*
X118310D01*
X117040Y249833D01*
Y247294D01*
X118310Y246024D01*
X119579D01*
X120849Y247294D01*
Y251103D01*
X905470Y458758D02*
Y452410D01*
X906740Y451140D01*
X909279D01*
X910548Y452410D01*
Y458758D01*
X918166Y451140D02*
X913087D01*
X918166Y456218D01*
Y457488D01*
X916896Y458758D01*
X914357D01*
X913087Y457488D01*
X925783Y451140D02*
X920705D01*
X925783Y456218D01*
Y457488D01*
X924514Y458758D01*
X921975D01*
X920705Y457488D01*
X561340Y157483D02*
Y163830D01*
X560070Y165100D01*
X557531D01*
X556262Y163830D01*
Y157483D01*
X548644Y165100D02*
X553722D01*
X548644Y160022D01*
Y158752D01*
X549914Y157483D01*
X552453D01*
X553722Y158752D01*
X711203Y924558D02*
Y922019D01*
Y923289D01*
X717551D01*
X718820Y922019D01*
Y920750D01*
X717551Y919480D01*
X718820Y927097D02*
Y929637D01*
Y928367D01*
X711203D01*
X712473Y927097D01*
X815340Y976378D02*
Y983996D01*
X811531D01*
X810262Y982726D01*
Y977648D01*
X811531Y976378D01*
X815340D01*
X802644Y983996D02*
X807722D01*
X802644Y978918D01*
Y977648D01*
X803914Y976378D01*
X806453D01*
X807722Y977648D01*
X810260Y943861D02*
Y936244D01*
X814069D01*
X815338Y937514D01*
Y942592D01*
X814069Y943861D01*
X810260D01*
X817878Y936244D02*
X820417D01*
X819147D01*
Y943861D01*
X817878Y942592D01*
X810260Y903222D02*
Y895604D01*
X814069D01*
X815338Y896874D01*
Y901952D01*
X814069Y903222D01*
X810260D01*
X817878Y901952D02*
X819147Y903222D01*
X821686D01*
X822956Y901952D01*
Y900682D01*
X821686Y899413D01*
X820417D01*
X821686D01*
X822956Y898143D01*
Y896874D01*
X821686Y895604D01*
X819147D01*
X817878Y896874D01*
X957020Y308490D02*
Y300872D01*
X953211D01*
X951942Y302142D01*
Y304681D01*
X953211Y305951D01*
X957020D01*
X954481D02*
X951942Y308490D01*
X949402D02*
X946863D01*
X948133D01*
Y300872D01*
X949402Y302142D01*
X943055Y308490D02*
X940515D01*
X941785D01*
Y300872D01*
X943055Y302142D01*
X936706D02*
X935437Y300872D01*
X932898D01*
X931628Y302142D01*
Y303412D01*
X932898Y304681D01*
X934167D01*
X932898D01*
X931628Y305951D01*
Y307220D01*
X932898Y308490D01*
X935437D01*
X936706Y307220D01*
X1041399Y308480D02*
Y300863D01*
X1037590D01*
X1036320Y302132D01*
Y304671D01*
X1037590Y305941D01*
X1041399D01*
X1038859D02*
X1036320Y308480D01*
X1033781D02*
X1031242D01*
X1032512D01*
Y300863D01*
X1033781Y302132D01*
X1022355Y308480D02*
X1027433D01*
X1022355Y303402D01*
Y302132D01*
X1023624Y300863D01*
X1026164D01*
X1027433Y302132D01*
X1019816Y308480D02*
X1017277D01*
X1018546D01*
Y300863D01*
X1019816Y302132D01*
X464820Y59942D02*
Y52324D01*
X468629D01*
X469898Y53594D01*
Y58672D01*
X468629Y59942D01*
X464820D01*
X477516Y52324D02*
X472438D01*
X477516Y57402D01*
Y58672D01*
X476246Y59942D01*
X473707D01*
X472438Y58672D01*
X480055Y59942D02*
X485133D01*
Y58672D01*
X480055Y53594D01*
Y52324D01*
X464820Y95501D02*
Y87884D01*
X468629D01*
X469898Y89154D01*
Y94232D01*
X468629Y95501D01*
X464820D01*
X477516Y87884D02*
X472438D01*
X477516Y92962D01*
Y94232D01*
X476246Y95501D01*
X473707D01*
X472438Y94232D01*
X480055D02*
X481325Y95501D01*
X483864D01*
X485133Y94232D01*
Y92962D01*
X483864Y91693D01*
X482594D01*
X483864D01*
X485133Y90423D01*
Y89154D01*
X483864Y87884D01*
X481325D01*
X480055Y89154D01*
X342900Y87379D02*
Y94996D01*
X339091D01*
X337822Y93726D01*
Y88648D01*
X339091Y87379D01*
X342900D01*
X330204Y94996D02*
X335283D01*
X330204Y89918D01*
Y88648D01*
X331474Y87379D01*
X334013D01*
X335283Y88648D01*
X322587Y94996D02*
X327665D01*
X322587Y89918D01*
Y88648D01*
X323856Y87379D01*
X326395D01*
X327665Y88648D01*
X1050830Y963218D02*
Y970836D01*
X1047021D01*
X1045752Y969566D01*
Y964488D01*
X1047021Y963218D01*
X1050830D01*
X1043212D02*
X1038134D01*
Y964488D01*
X1043212Y969566D01*
Y970836D01*
X1066070Y971341D02*
Y963724D01*
X1069879D01*
X1071148Y964994D01*
Y970072D01*
X1069879Y971341D01*
X1066070D01*
X1078766D02*
X1073688D01*
Y967533D01*
X1076227Y968802D01*
X1077496D01*
X1078766Y967533D01*
Y964994D01*
X1077496Y963724D01*
X1074957D01*
X1073688Y964994D01*
X469900Y122938D02*
Y130556D01*
X466091D01*
X464822Y129286D01*
Y124208D01*
X466091Y122938D01*
X469900D01*
X457204Y130556D02*
X462282D01*
X457204Y125478D01*
Y124208D01*
X458474Y122938D01*
X461013D01*
X462282Y124208D01*
X449587Y122938D02*
X454665D01*
Y126747D01*
X452126Y125478D01*
X450856D01*
X449587Y126747D01*
Y129286D01*
X450856Y130556D01*
X453395D01*
X454665Y129286D01*
X342900Y122938D02*
Y130556D01*
X339091D01*
X337822Y129286D01*
Y124208D01*
X339091Y122938D01*
X342900D01*
X330204Y130556D02*
X335283D01*
X330204Y125478D01*
Y124208D01*
X331474Y122938D01*
X334013D01*
X335283Y124208D01*
X323856Y130556D02*
Y122938D01*
X327665Y126747D01*
X322587D01*
X337820Y59942D02*
Y52324D01*
X341629D01*
X342898Y53594D01*
Y58672D01*
X341629Y59942D01*
X337820D01*
X350516Y52324D02*
X345438D01*
X350516Y57402D01*
Y58672D01*
X349246Y59942D01*
X346707D01*
X345438Y58672D01*
X358133Y59942D02*
X355594Y58672D01*
X353055Y56133D01*
Y53594D01*
X354325Y52324D01*
X356864D01*
X358133Y53594D01*
Y54863D01*
X356864Y56133D01*
X353055D01*
X1086390Y971341D02*
Y963724D01*
X1090199D01*
X1091468Y964994D01*
Y970072D01*
X1090199Y971341D01*
X1086390D01*
X1099086D02*
X1096547Y970072D01*
X1094008Y967533D01*
Y964994D01*
X1095277Y963724D01*
X1097816D01*
X1099086Y964994D01*
Y966263D01*
X1097816Y967533D01*
X1094008D01*
X1041398Y934717D02*
X1038859D01*
X1040129D01*
Y928369D01*
X1038859Y927100D01*
X1037590D01*
X1036320Y928369D01*
X1043938Y933448D02*
X1045207Y934717D01*
X1047746D01*
X1049016Y933448D01*
Y932178D01*
X1047746Y930909D01*
X1046477D01*
X1047746D01*
X1049016Y929639D01*
Y928369D01*
X1047746Y927100D01*
X1045207D01*
X1043938Y928369D01*
D11*
X51900Y271483D02*
Y274869D01*
X51053Y275715D01*
X49360D01*
X48514Y274869D01*
Y271483D01*
X49360Y270637D01*
X51053D01*
X50207Y272330D02*
X51900Y270637D01*
X51053D02*
X51900Y271483D01*
X53592Y270637D02*
X55285D01*
X54439D01*
Y275715D01*
X53592Y274869D01*
X61210Y275715D02*
X59517Y274869D01*
X57824Y273176D01*
Y271483D01*
X58671Y270637D01*
X60363D01*
X61210Y271483D01*
Y272330D01*
X60363Y273176D01*
X57824D01*
X647997Y402420D02*
X644611D01*
X643765Y401573D01*
Y399880D01*
X644611Y399034D01*
X647997D01*
X648843Y399880D01*
Y401573D01*
X647150Y400727D02*
X648843Y402420D01*
Y401573D02*
X647997Y402420D01*
X648843Y404112D02*
Y405805D01*
Y404959D01*
X643765D01*
X644611Y404112D01*
M02*
