G04*
G04 #@! TF.GenerationSoftware,Altium Limited,Altium Designer,23.11.1 (41)*
G04*
G04 Layer_Physical_Order=14*
G04 Layer_Color=16711680*
%FSLAX44Y44*%
%MOMM*%
G71*
G04*
G04 #@! TF.SameCoordinates,2A2BF33C-356B-47B5-B991-195B9626E357*
G04*
G04*
G04 #@! TF.FilePolarity,Positive*
G04*
G01*
G75*
%ADD10C,0.2540*%
%ADD22C,0.2286*%
G04:AMPARAMS|DCode=46|XSize=1.8034mm|YSize=1.1938mm|CornerRadius=0.203mm|HoleSize=0mm|Usage=FLASHONLY|Rotation=180.000|XOffset=0mm|YOffset=0mm|HoleType=Round|Shape=RoundedRectangle|*
%AMROUNDEDRECTD46*
21,1,1.8034,0.7879,0,0,180.0*
21,1,1.3975,1.1938,0,0,180.0*
1,1,0.4059,-0.6988,0.3940*
1,1,0.4059,0.6988,0.3940*
1,1,0.4059,0.6988,-0.3940*
1,1,0.4059,-0.6988,-0.3940*
%
%ADD46ROUNDEDRECTD46*%
G04:AMPARAMS|DCode=47|XSize=2.5mm|YSize=1.5mm|CornerRadius=0.3mm|HoleSize=0mm|Usage=FLASHONLY|Rotation=90.000|XOffset=0mm|YOffset=0mm|HoleType=Round|Shape=RoundedRectangle|*
%AMROUNDEDRECTD47*
21,1,2.5000,0.9000,0,0,90.0*
21,1,1.9000,1.5000,0,0,90.0*
1,1,0.6000,0.4500,0.9500*
1,1,0.6000,0.4500,-0.9500*
1,1,0.6000,-0.4500,-0.9500*
1,1,0.6000,-0.4500,0.9500*
%
%ADD47ROUNDEDRECTD47*%
G04:AMPARAMS|DCode=48|XSize=1.397mm|YSize=1.0922mm|CornerRadius=0.2021mm|HoleSize=0mm|Usage=FLASHONLY|Rotation=180.000|XOffset=0mm|YOffset=0mm|HoleType=Round|Shape=RoundedRectangle|*
%AMROUNDEDRECTD48*
21,1,1.3970,0.6881,0,0,180.0*
21,1,0.9929,1.0922,0,0,180.0*
1,1,0.4041,-0.4964,0.3440*
1,1,0.4041,0.4964,0.3440*
1,1,0.4041,0.4964,-0.3440*
1,1,0.4041,-0.4964,-0.3440*
%
%ADD48ROUNDEDRECTD48*%
G04:AMPARAMS|DCode=49|XSize=0.508mm|YSize=0.508mm|CornerRadius=0.1524mm|HoleSize=0mm|Usage=FLASHONLY|Rotation=180.000|XOffset=0mm|YOffset=0mm|HoleType=Round|Shape=RoundedRectangle|*
%AMROUNDEDRECTD49*
21,1,0.5080,0.2032,0,0,180.0*
21,1,0.2032,0.5080,0,0,180.0*
1,1,0.3048,-0.1016,0.1016*
1,1,0.3048,0.1016,0.1016*
1,1,0.3048,0.1016,-0.1016*
1,1,0.3048,-0.1016,-0.1016*
%
%ADD49ROUNDEDRECTD49*%
%ADD50R,0.4572X0.3048*%
G04:AMPARAMS|DCode=52|XSize=1.397mm|YSize=1.0922mm|CornerRadius=0.2021mm|HoleSize=0mm|Usage=FLASHONLY|Rotation=90.000|XOffset=0mm|YOffset=0mm|HoleType=Round|Shape=RoundedRectangle|*
%AMROUNDEDRECTD52*
21,1,1.3970,0.6881,0,0,90.0*
21,1,0.9929,1.0922,0,0,90.0*
1,1,0.4041,0.3440,0.4964*
1,1,0.4041,0.3440,-0.4964*
1,1,0.4041,-0.3440,-0.4964*
1,1,0.4041,-0.3440,0.4964*
%
%ADD52ROUNDEDRECTD52*%
G04:AMPARAMS|DCode=55|XSize=2.5mm|YSize=1.5mm|CornerRadius=0.3mm|HoleSize=0mm|Usage=FLASHONLY|Rotation=180.000|XOffset=0mm|YOffset=0mm|HoleType=Round|Shape=RoundedRectangle|*
%AMROUNDEDRECTD55*
21,1,2.5000,0.9000,0,0,180.0*
21,1,1.9000,1.5000,0,0,180.0*
1,1,0.6000,-0.9500,0.4500*
1,1,0.6000,0.9500,0.4500*
1,1,0.6000,0.9500,-0.4500*
1,1,0.6000,-0.9500,-0.4500*
%
%ADD55ROUNDEDRECTD55*%
%ADD60R,2.8000X2.8000*%
G04:AMPARAMS|DCode=63|XSize=0.508mm|YSize=0.508mm|CornerRadius=0.1524mm|HoleSize=0mm|Usage=FLASHONLY|Rotation=90.000|XOffset=0mm|YOffset=0mm|HoleType=Round|Shape=RoundedRectangle|*
%AMROUNDEDRECTD63*
21,1,0.5080,0.2032,0,0,90.0*
21,1,0.2032,0.5080,0,0,90.0*
1,1,0.3048,0.1016,0.1016*
1,1,0.3048,0.1016,-0.1016*
1,1,0.3048,-0.1016,-0.1016*
1,1,0.3048,-0.1016,0.1016*
%
%ADD63ROUNDEDRECTD63*%
%ADD66R,0.7112X1.0160*%
%ADD69R,2.8000X2.8000*%
%ADD75R,0.3048X0.4572*%
G04:AMPARAMS|DCode=76|XSize=1.8034mm|YSize=1.1938mm|CornerRadius=0.203mm|HoleSize=0mm|Usage=FLASHONLY|Rotation=90.000|XOffset=0mm|YOffset=0mm|HoleType=Round|Shape=RoundedRectangle|*
%AMROUNDEDRECTD76*
21,1,1.8034,0.7879,0,0,90.0*
21,1,1.3975,1.1938,0,0,90.0*
1,1,0.4059,0.3940,0.6988*
1,1,0.4059,0.3940,-0.6988*
1,1,0.4059,-0.3940,-0.6988*
1,1,0.4059,-0.3940,0.6988*
%
%ADD76ROUNDEDRECTD76*%
%ADD84R,1.0160X0.7112*%
G04:AMPARAMS|DCode=85|XSize=2.26mm|YSize=2.16mm|CornerRadius=0.54mm|HoleSize=0mm|Usage=FLASHONLY|Rotation=180.000|XOffset=0mm|YOffset=0mm|HoleType=Round|Shape=RoundedRectangle|*
%AMROUNDEDRECTD85*
21,1,2.2600,1.0800,0,0,180.0*
21,1,1.1800,2.1600,0,0,180.0*
1,1,1.0800,-0.5900,0.5400*
1,1,1.0800,0.5900,0.5400*
1,1,1.0800,0.5900,-0.5400*
1,1,1.0800,-0.5900,-0.5400*
%
%ADD85ROUNDEDRECTD85*%
G04:AMPARAMS|DCode=105|XSize=0.59mm|YSize=0.45mm|CornerRadius=0.1125mm|HoleSize=0mm|Usage=FLASHONLY|Rotation=90.000|XOffset=0mm|YOffset=0mm|HoleType=Round|Shape=RoundedRectangle|*
%AMROUNDEDRECTD105*
21,1,0.5900,0.2250,0,0,90.0*
21,1,0.3650,0.4500,0,0,90.0*
1,1,0.2250,0.1125,0.1825*
1,1,0.2250,0.1125,-0.1825*
1,1,0.2250,-0.1125,-0.1825*
1,1,0.2250,-0.1125,0.1825*
%
%ADD105ROUNDEDRECTD105*%
%ADD106R,0.4500X0.5900*%
%ADD216C,0.2384*%
%ADD223C,1.0000*%
%ADD240C,0.5080*%
%ADD241C,1.0160*%
%ADD242C,1.2700*%
%ADD244C,0.2398*%
%ADD245C,0.7620*%
%ADD246C,0.1616*%
%ADD248C,0.2191*%
%ADD250C,6.2000*%
%ADD251C,3.5000*%
%ADD252C,2.2000*%
%ADD253C,3.0000*%
%ADD254R,3.0000X3.0000*%
%ADD255R,1.9050X1.9050*%
%ADD256C,1.9050*%
%ADD257C,1.6000*%
%ADD258C,0.6000*%
%ADD259C,1.5240*%
G04:AMPARAMS|DCode=260|XSize=1.524mm|YSize=1.524mm|CornerRadius=0mm|HoleSize=0mm|Usage=FLASHONLY|Rotation=0.000|XOffset=0mm|YOffset=0mm|HoleType=Round|Shape=Octagon|*
%AMOCTAGOND260*
4,1,8,0.7620,-0.3810,0.7620,0.3810,0.3810,0.7620,-0.3810,0.7620,-0.7620,0.3810,-0.7620,-0.3810,-0.3810,-0.7620,0.3810,-0.7620,0.7620,-0.3810,0.0*
%
%ADD260OCTAGOND260*%

%ADD261C,3.8100*%
%ADD262C,0.7620*%
%ADD263C,0.5000*%
%ADD264C,0.3048*%
%ADD265C,0.5080*%
%ADD266C,0.7112*%
%ADD267C,0.5588*%
%ADD270C,0.2378*%
%ADD271C,0.1231*%
%ADD272R,0.3000X0.5500*%
%ADD273R,0.4000X0.5500*%
G04:AMPARAMS|DCode=274|XSize=0.59mm|YSize=0.45mm|CornerRadius=0.1125mm|HoleSize=0mm|Usage=FLASHONLY|Rotation=0.000|XOffset=0mm|YOffset=0mm|HoleType=Round|Shape=RoundedRectangle|*
%AMROUNDEDRECTD274*
21,1,0.5900,0.2250,0,0,0.0*
21,1,0.3650,0.4500,0,0,0.0*
1,1,0.2250,0.1825,-0.1125*
1,1,0.2250,-0.1825,-0.1125*
1,1,0.2250,-0.1825,0.1125*
1,1,0.2250,0.1825,0.1125*
%
%ADD274ROUNDEDRECTD274*%
%ADD275R,0.5900X0.4500*%
D10*
X754380Y731520D02*
X761522Y738662D01*
X754380Y723900D02*
Y731520D01*
X761522Y740567D02*
X762635Y741680D01*
X761522Y738662D02*
Y740567D01*
X736600Y728980D02*
X742315Y734695D01*
Y741680D01*
X739140Y850900D02*
X741045Y848995D01*
Y833120D02*
Y848995D01*
X731520Y850900D02*
X739140D01*
D22*
X1166616Y226060D02*
X1180338D01*
X1162050Y222250D02*
X1162806D01*
X1166616Y226060D01*
X1279404Y236220D02*
X1280160D01*
X1278519Y237105D02*
X1279404Y236220D01*
X1262551Y237105D02*
X1278519D01*
X1260697Y235251D02*
X1262551Y237105D01*
X1259840Y232450D02*
X1260697Y233307D01*
Y235251D01*
X1360170Y90932D02*
X1383792D01*
X1259840Y215900D02*
Y224750D01*
X1180338Y226060D02*
X1181100Y226822D01*
D46*
X1484550Y782320D02*
D03*
Y811276D02*
D03*
X1625520Y748538D02*
D03*
Y719582D02*
D03*
X1181100Y255778D02*
D03*
Y226822D02*
D03*
X1360170Y119888D02*
D03*
Y90932D02*
D03*
X1941400Y290322D02*
D03*
Y319278D02*
D03*
X1503680Y322072D02*
D03*
Y351028D02*
D03*
X1524000Y239268D02*
D03*
Y210312D02*
D03*
D47*
X828800Y751840D02*
D03*
X796800D02*
D03*
X1381000Y562610D02*
D03*
X1413000D02*
D03*
X1362200Y431800D02*
D03*
X1330200D02*
D03*
D48*
X1366520Y682371D02*
D03*
Y699389D02*
D03*
X1285240Y702691D02*
D03*
Y719709D02*
D03*
D49*
X1189998Y811108D02*
D03*
Y819998D02*
D03*
X1149350Y680085D02*
D03*
Y671195D02*
D03*
X1703184Y259328D02*
D03*
Y250438D02*
D03*
Y239009D02*
D03*
Y230119D02*
D03*
X81280Y395605D02*
D03*
Y386715D02*
D03*
X1757680Y619125D02*
D03*
Y610235D02*
D03*
Y589915D02*
D03*
Y598805D02*
D03*
X1437640Y351155D02*
D03*
Y360045D02*
D03*
Y380365D02*
D03*
Y371475D02*
D03*
X1102360Y415925D02*
D03*
Y407035D02*
D03*
Y386715D02*
D03*
Y395605D02*
D03*
X380492Y887485D02*
D03*
Y896375D02*
D03*
Y921775D02*
D03*
Y912885D02*
D03*
X233680Y615315D02*
D03*
Y624205D02*
D03*
Y635635D02*
D03*
Y644525D02*
D03*
X72390Y259715D02*
D03*
Y268605D02*
D03*
X62230D02*
D03*
Y259715D02*
D03*
X52070Y268605D02*
D03*
Y259715D02*
D03*
X1249997Y681109D02*
D03*
Y689999D02*
D03*
X1219200Y681355D02*
D03*
Y690245D02*
D03*
X1319997Y781108D02*
D03*
Y789998D02*
D03*
X1359997Y831108D02*
D03*
Y839998D02*
D03*
X1329998Y831109D02*
D03*
Y839999D02*
D03*
X1239997Y751108D02*
D03*
Y759998D02*
D03*
X1279997Y771108D02*
D03*
Y779998D02*
D03*
X1149998Y808889D02*
D03*
Y799999D02*
D03*
X1589960Y702945D02*
D03*
Y694055D02*
D03*
X706120Y772795D02*
D03*
Y781685D02*
D03*
X1422400Y502285D02*
D03*
Y511175D02*
D03*
Y522605D02*
D03*
Y531495D02*
D03*
X411480Y283845D02*
D03*
Y274955D02*
D03*
X325120Y288925D02*
D03*
Y280035D02*
D03*
X411480Y198755D02*
D03*
Y207645D02*
D03*
X325120D02*
D03*
Y198755D02*
D03*
X1211338Y446534D02*
D03*
Y455424D02*
D03*
X1837641Y145005D02*
D03*
Y153895D02*
D03*
X1847801Y145005D02*
D03*
Y153895D02*
D03*
X1857961Y145005D02*
D03*
Y153895D02*
D03*
X1524000Y316865D02*
D03*
Y325755D02*
D03*
X1503680Y244475D02*
D03*
Y235585D02*
D03*
D50*
X1584960Y504698D02*
D03*
Y499110D02*
D03*
X1574800Y504698D02*
D03*
Y499110D02*
D03*
D52*
X1273429Y797560D02*
D03*
X1256411D02*
D03*
X1240409Y722630D02*
D03*
X1223391D02*
D03*
X1364869Y802640D02*
D03*
X1347851D02*
D03*
X1248791Y843280D02*
D03*
X1265809D02*
D03*
X1173507Y849998D02*
D03*
X1156489D02*
D03*
X1198245Y885698D02*
D03*
X1181227D02*
D03*
X1180211Y772160D02*
D03*
X1197229D02*
D03*
X1290193Y745236D02*
D03*
X1307211D02*
D03*
D55*
X706120Y801880D02*
D03*
Y833880D02*
D03*
D60*
X736740Y795181D02*
D03*
X369983Y803484D02*
D03*
X913930Y459600D02*
D03*
D63*
X1231107Y789998D02*
D03*
X1239997D02*
D03*
X1189998Y749998D02*
D03*
X1198888D02*
D03*
X1180465Y699770D02*
D03*
X1189355D02*
D03*
X1171108Y689999D02*
D03*
X1179998D02*
D03*
X1345565Y767080D02*
D03*
X1336675D02*
D03*
X36195Y370840D02*
D03*
X45085D02*
D03*
X65405D02*
D03*
X56515D02*
D03*
Y360680D02*
D03*
X65405D02*
D03*
X696595Y690880D02*
D03*
X705485D02*
D03*
X725805D02*
D03*
X716915D02*
D03*
X1793875Y487680D02*
D03*
X1802765D02*
D03*
X1773555D02*
D03*
X1782445D02*
D03*
X52070Y284480D02*
D03*
X60960D02*
D03*
X1365885Y655320D02*
D03*
X1356995D02*
D03*
X1339215Y689610D02*
D03*
X1330325D02*
D03*
X1371107Y779998D02*
D03*
X1379997D02*
D03*
X1279997Y879998D02*
D03*
X1288887D02*
D03*
X1300480Y869950D02*
D03*
X1309370D02*
D03*
X1311107Y889998D02*
D03*
X1319997D02*
D03*
X1239998Y879999D02*
D03*
X1231108D02*
D03*
X1169998Y739998D02*
D03*
X1178888D02*
D03*
X1306195Y706120D02*
D03*
X1315085D02*
D03*
X1280795Y690118D02*
D03*
X1289685D02*
D03*
X1288923Y660146D02*
D03*
X1280033D02*
D03*
X1250315Y779780D02*
D03*
X1259205D02*
D03*
X1208888Y859998D02*
D03*
X1199998D02*
D03*
X1259205Y868680D02*
D03*
X1250315D02*
D03*
X1239997Y889998D02*
D03*
X1231107D02*
D03*
X741045Y833120D02*
D03*
X732155D02*
D03*
X742315Y741680D02*
D03*
X751205D02*
D03*
X762635D02*
D03*
X771525D02*
D03*
X1387475Y461010D02*
D03*
X1396365D02*
D03*
X398399Y316239D02*
D03*
X389509D02*
D03*
X309245Y320040D02*
D03*
X300355D02*
D03*
X400685Y238760D02*
D03*
X391795D02*
D03*
X309245D02*
D03*
X300355D02*
D03*
X1393825Y113030D02*
D03*
X1384935D02*
D03*
X1394460Y156464D02*
D03*
X1385570D02*
D03*
X1394460Y176784D02*
D03*
X1385570D02*
D03*
X1393825Y133350D02*
D03*
X1384935D02*
D03*
X1185303Y395099D02*
D03*
X1176413D02*
D03*
X1185303Y374779D02*
D03*
X1176413D02*
D03*
X1270635Y401320D02*
D03*
X1279525D02*
D03*
X1855675Y294640D02*
D03*
X1864565D02*
D03*
X1844245D02*
D03*
X1835355D02*
D03*
X1889965Y289560D02*
D03*
X1881075D02*
D03*
X1901395D02*
D03*
X1910285D02*
D03*
X1899236Y134210D02*
D03*
X1908126D02*
D03*
X1899236Y154530D02*
D03*
X1908126D02*
D03*
X1899236Y144370D02*
D03*
X1908126D02*
D03*
X1911555Y299720D02*
D03*
X1920445D02*
D03*
X935355Y334010D02*
D03*
X944245D02*
D03*
X913765D02*
D03*
X904875D02*
D03*
X946150Y243840D02*
D03*
X955040D02*
D03*
X925830D02*
D03*
X934720D02*
D03*
X1178888Y659999D02*
D03*
X1169998D02*
D03*
D66*
X1675498Y257687D02*
D03*
X1684896Y234319D02*
D03*
X1666100D02*
D03*
X1732280Y616204D02*
D03*
X1741678Y592836D02*
D03*
X1722882D02*
D03*
X1412240Y377444D02*
D03*
X1421638Y354076D02*
D03*
X1402842D02*
D03*
X1067562Y389636D02*
D03*
X1076960Y413004D02*
D03*
X1086358Y389636D02*
D03*
X355854Y915298D02*
D03*
X365252Y891930D02*
D03*
X346456D02*
D03*
X259080Y618236D02*
D03*
X249682Y641604D02*
D03*
X268478D02*
D03*
X386080Y301244D02*
D03*
X395478Y277876D02*
D03*
X376682D02*
D03*
X290322D02*
D03*
X299720Y301244D02*
D03*
X309118Y277876D02*
D03*
X376682Y201676D02*
D03*
X386080Y225044D02*
D03*
X395478Y201676D02*
D03*
X290322D02*
D03*
X299720Y225044D02*
D03*
X309118Y201676D02*
D03*
D69*
X1366520Y491490D02*
D03*
D75*
X1910412Y309880D02*
D03*
X1916000D02*
D03*
X1910412Y320040D02*
D03*
X1916000D02*
D03*
X918972Y273050D02*
D03*
X924560D02*
D03*
X949452Y233680D02*
D03*
X955040D02*
D03*
X934720D02*
D03*
X929132D02*
D03*
D76*
X1222006Y349379D02*
D03*
X1193050D02*
D03*
X1843483Y124050D02*
D03*
X1872439D02*
D03*
X1902919Y174850D02*
D03*
X1873963D02*
D03*
D84*
X64008Y395478D02*
D03*
X40640Y386080D02*
D03*
Y404876D02*
D03*
X701421Y664210D02*
D03*
X724789Y673608D02*
D03*
Y654812D02*
D03*
X1776476Y462280D02*
D03*
X1799844Y471678D02*
D03*
Y452882D02*
D03*
D85*
X1026160Y146420D02*
D03*
Y97420D02*
D03*
X975360Y146420D02*
D03*
Y97420D02*
D03*
X924560Y146420D02*
D03*
Y97420D02*
D03*
X873760Y146420D02*
D03*
Y97420D02*
D03*
D105*
X904240Y314030D02*
D03*
X1026160D02*
D03*
D106*
X904240Y293030D02*
D03*
X1026160D02*
D03*
D216*
X692077Y777240D02*
X696522Y772795D01*
X706120D01*
X690880Y777240D02*
X692077D01*
X725805Y702216D02*
X737329Y713740D01*
X741680D01*
X1444625Y351155D02*
X1445260Y350520D01*
X1437640Y351155D02*
X1444625D01*
X725805Y690880D02*
Y702216D01*
X1006180Y270850D02*
Y293370D01*
X1025990Y293200D02*
X1026160Y293030D01*
X1006350Y293200D02*
X1025990D01*
X1006180Y293370D02*
X1006350Y293200D01*
X1067562Y377952D02*
Y389636D01*
X1102741Y416306D02*
Y425323D01*
X1103122Y425704D01*
X1102360Y415925D02*
X1102741Y416306D01*
X1101250Y407035D02*
X1101805Y406480D01*
X1081405Y407035D02*
X1101250D01*
X1076960Y411480D02*
Y413004D01*
Y411480D02*
X1081405Y407035D01*
X1101805Y406480D02*
X1102360Y407035D01*
X1086358Y391160D02*
X1090803Y395605D01*
X1102360D01*
X1086358Y389636D02*
Y391160D01*
X1244600Y675711D02*
X1249997Y681109D01*
X1244600Y675640D02*
Y675711D01*
X1276297Y694436D02*
X1280615Y690118D01*
X1275588Y694563D02*
X1275715Y694436D01*
X1280615Y690118D02*
X1280795D01*
X1275715Y694436D02*
X1276297D01*
X1289699Y690118D02*
X1295132Y695551D01*
X1289685Y690118D02*
X1289699D01*
X1295132Y695551D02*
X1295146D01*
X1281589Y699279D02*
X1285001Y702691D01*
X1280795Y690118D02*
X1281589Y690912D01*
X1274953Y711454D02*
X1283716Y702691D01*
X1274826Y714756D02*
X1274953Y714629D01*
Y711454D02*
Y714629D01*
X1354102Y845820D02*
X1359924Y839998D01*
X1354029Y845820D02*
X1354102D01*
X1359924Y839998D02*
X1359997D01*
X1265809Y843280D02*
X1267676Y845147D01*
X1234849Y844446D02*
X1247625D01*
X1248791Y843280D01*
X1288887Y887354D02*
X1294798Y893264D01*
X1288887Y879998D02*
Y887354D01*
X1294798Y893264D02*
X1294925Y893138D01*
X1296859D02*
X1299998Y889998D01*
X1294925Y893138D02*
X1296859D01*
X1299998Y889998D02*
X1309964D01*
Y888855D02*
X1311107Y889998D01*
X1304572Y865153D02*
X1309370Y869950D01*
X1304445Y863730D02*
X1304572Y863857D01*
Y865153D01*
X1208888Y859998D02*
X1216183Y867293D01*
X1195154Y854870D02*
X1200026Y849998D01*
X1195098Y854870D02*
X1195154D01*
X1273935Y664085D02*
X1276094D01*
X1280033Y660146D02*
X1280033D01*
X1273810Y664210D02*
X1273935Y664085D01*
X1276094D02*
X1280033Y660146D01*
X1371600Y586740D02*
X1381000Y577340D01*
Y562610D02*
Y577340D01*
X1413000Y562610D02*
X1435100D01*
X1422717Y522287D02*
X1430972D01*
X1422400Y522605D02*
X1422717Y522287D01*
X1430972D02*
X1431290Y521970D01*
X1422400Y531495D02*
X1430655D01*
X1422400Y511175D02*
X1431925D01*
X1422400Y502285D02*
X1429385D01*
X1387475Y451485D02*
Y461010D01*
X1486730Y784500D02*
X1503320D01*
X1484550Y782320D02*
X1486730Y784500D01*
X1484550Y827960D02*
X1484630Y828040D01*
X1484550Y811276D02*
Y827960D01*
X1249997Y690178D02*
X1253683Y693864D01*
Y694083D02*
X1253810Y694210D01*
X1249997Y689999D02*
Y690178D01*
X1253683Y693864D02*
Y694083D01*
X1289685Y690118D02*
X1289778Y690211D01*
X1339215Y689610D02*
X1344328Y694723D01*
X1345423D01*
X1345550Y694850D01*
X1335020Y694305D02*
Y695424D01*
X1330325Y689610D02*
X1335020Y694305D01*
Y695424D02*
X1335146Y695551D01*
X1355146Y665371D02*
X1356995Y663523D01*
X1355146Y665371D02*
Y665551D01*
X1356995Y655320D02*
Y663523D01*
X1375020Y664454D02*
Y665424D01*
X1365885Y655320D02*
X1375020Y664454D01*
Y665424D02*
X1375146Y665551D01*
X1374445Y785147D02*
X1374572Y785020D01*
X1374975D02*
X1379997Y779998D01*
X1374572Y785020D02*
X1374975D01*
X1365146Y785551D02*
X1365273Y785424D01*
X1365682D02*
X1371107Y779998D01*
X1365273Y785424D02*
X1365682D01*
X1274976Y766087D02*
X1279997Y771108D01*
X1274976Y764573D02*
Y766087D01*
X1274849Y764446D02*
X1274976Y764573D01*
X1275677Y784499D02*
X1279997Y780178D01*
X1275550Y784850D02*
X1275677Y784723D01*
X1279997Y779998D02*
Y780178D01*
X1275677Y784499D02*
Y784723D01*
X1259525Y794446D02*
X1264849D01*
X1256411Y797560D02*
X1259525Y794446D01*
X1273429Y797560D02*
Y798038D01*
X1277635Y802244D01*
X1282467D01*
X1284669Y804446D01*
X1284849D01*
X1256411Y795671D02*
X1265423Y786659D01*
Y784977D02*
X1265550Y784850D01*
X1256411Y795671D02*
Y797560D01*
X1265423Y784977D02*
Y786659D01*
X1244763Y784929D02*
X1244890Y784802D01*
X1245293D02*
X1250315Y779780D01*
X1244890Y784802D02*
X1245293D01*
X1254572Y784413D02*
Y785021D01*
Y784413D02*
X1259205Y779780D01*
X1254445Y785147D02*
X1254572Y785021D01*
X1234976Y784573D02*
Y784977D01*
X1234849Y784446D02*
X1234976Y784573D01*
Y784977D02*
X1239997Y789998D01*
X1231107Y790178D02*
X1234722Y793792D01*
Y794320D02*
X1234849Y794446D01*
X1231107Y789998D02*
Y790178D01*
X1234722Y793792D02*
Y794320D01*
X1267676Y845147D02*
X1284445D01*
X1265809Y843280D02*
Y844356D01*
X1174572Y894325D02*
Y895021D01*
X1174445Y895147D02*
X1174572Y895021D01*
X1181227Y885698D02*
Y887670D01*
X1174572Y894325D02*
X1181227Y887670D01*
X1195070Y864870D02*
X1195126D01*
X1199998Y859998D01*
X1204539Y755650D02*
X1205230D01*
X1198888Y749998D02*
X1204539Y755650D01*
X1293950Y736629D02*
X1295550Y735030D01*
Y734850D02*
Y735030D01*
X1290193Y745236D02*
X1293950Y741479D01*
Y736629D02*
Y741479D01*
X1315461Y745236D02*
X1325146Y735551D01*
X1307211Y745236D02*
X1315461D01*
X1294787Y723466D02*
X1296490Y725170D01*
X1296670D01*
X1285240Y719709D02*
X1288997Y723466D01*
X1294787D01*
X1285001Y702691D02*
X1285240D01*
X1283716D02*
X1285001D01*
X1305146Y715551D02*
X1305273Y715424D01*
Y707042D02*
X1306195Y706120D01*
X1305273Y707042D02*
Y715424D01*
X1315085Y706120D02*
Y714375D01*
X1381787Y682371D02*
X1384967Y685551D01*
X1366520Y682371D02*
X1381787D01*
X1384967Y685551D02*
X1385146D01*
X1366520Y699389D02*
X1378984D01*
X1385146Y705551D01*
X1345565Y767080D02*
X1353438D01*
X1354967Y765551D02*
X1355146D01*
X1324625Y765147D02*
X1326558Y767080D01*
X1353438D02*
X1354967Y765551D01*
X1326558Y767080D02*
X1336675D01*
X1324445Y765147D02*
X1324625D01*
X1315677Y776609D02*
X1319997Y780929D01*
X1315677Y774977D02*
Y776609D01*
X1315550Y774850D02*
X1315677Y774977D01*
X1319997Y780929D02*
Y781108D01*
X1314976Y784977D02*
X1319997Y789998D01*
X1314976Y784573D02*
Y784977D01*
X1314849Y784446D02*
X1314976Y784573D01*
X1334770Y793750D02*
X1338813Y797793D01*
X1343645D01*
X1347851Y801999D02*
Y802640D01*
X1343645Y797793D02*
X1347851Y801999D01*
X1364869Y802640D02*
X1367376Y805147D01*
X1374445D01*
X1329998Y831109D02*
X1335606Y825500D01*
X1323641Y834746D02*
X1324745D01*
X1329998Y839999D01*
X1323514Y834619D02*
X1323641Y834746D01*
X1295055Y874972D02*
X1295458D01*
X1300480Y869950D01*
X1294928Y875099D02*
X1295055Y874972D01*
X1275676Y884320D02*
X1279997Y879998D01*
X1279997D01*
X1274976Y884320D02*
X1275676D01*
X1274849Y884446D02*
X1274976Y884320D01*
X1254849Y864324D02*
X1259205Y868680D01*
Y868680D01*
X1254849Y854446D02*
Y864324D01*
X1247133Y865678D02*
X1250135Y868680D01*
X1245146Y865551D02*
X1245273Y865678D01*
X1250135Y868680D02*
X1250315D01*
X1245273Y865678D02*
X1247133D01*
X1198245Y887670D02*
X1205020Y894445D01*
Y895424D02*
X1205146Y895551D01*
X1198245Y885698D02*
Y887670D01*
X1205020Y894445D02*
Y895424D01*
X1223107Y867293D02*
X1225550Y864850D01*
X1216183Y867293D02*
X1223107D01*
X1175423Y824977D02*
Y848082D01*
X1173507Y849998D02*
X1175423Y848082D01*
Y824977D02*
X1175550Y824850D01*
X1184849Y814446D02*
X1184976Y814573D01*
Y814977D02*
X1189998Y819998D01*
X1184976Y814573D02*
Y814977D01*
X1155020Y805021D02*
Y805424D01*
X1149998Y799999D02*
X1155020Y805021D01*
Y805424D02*
X1155146Y805551D01*
X1235273Y746384D02*
X1239997Y751108D01*
X1235146Y745551D02*
X1235273Y745678D01*
X1239997Y751108D02*
Y751108D01*
X1235273Y745678D02*
Y746384D01*
X1235020Y745424D02*
X1235146Y745551D01*
X1236086Y755021D02*
X1239997Y751108D01*
X1234445Y755147D02*
X1234572Y755021D01*
X1236086D01*
X1223391Y723706D02*
Y723975D01*
Y722630D02*
Y723706D01*
X1244967Y745551D02*
X1245146D01*
X1223391Y723975D02*
X1244967Y745551D01*
X1254445Y724968D02*
Y725147D01*
X1255146Y715551D02*
Y724267D01*
X1254445Y724968D02*
X1255146Y724267D01*
X1240409Y721106D02*
Y721554D01*
X1244615Y717349D01*
X1245690D01*
X1247488Y715551D02*
X1255146D01*
X1240409Y721554D02*
Y722630D01*
X1245690Y717349D02*
X1247488Y715551D01*
X1289103Y660146D02*
X1293548Y655701D01*
X1294257D02*
X1294384Y655574D01*
X1288923Y660146D02*
X1289103D01*
X1293548Y655701D02*
X1294257D01*
X1193050Y334530D02*
Y349379D01*
X1211338Y455424D02*
Y479818D01*
X1162558Y255778D02*
X1181100D01*
X1166243Y395099D02*
X1176413D01*
Y366407D02*
Y374779D01*
X1225677Y884977D02*
X1226086D01*
X1231107Y889998D01*
X1225550Y884850D02*
X1225677Y884977D01*
X1226383Y884723D02*
X1231108Y879999D01*
X1156489Y849998D02*
X1160038Y846449D01*
X1155273Y851214D02*
X1156489Y849998D01*
X1155146Y865551D02*
X1155273Y865424D01*
Y851214D02*
Y865424D01*
X1160038Y839257D02*
Y846449D01*
Y839257D02*
X1164849Y834446D01*
X1199515Y774446D02*
X1204849D01*
X1197229Y772160D02*
X1199515Y774446D01*
X1204849Y724446D02*
X1210401Y729999D01*
X1217098D01*
X1223391Y723706D01*
X1225677Y706374D02*
X1240409Y721106D01*
X1225550Y704850D02*
X1225677Y704977D01*
Y706374D01*
X1219200Y681355D02*
X1223264Y685419D01*
X1224661D02*
X1224788Y685546D01*
X1219200Y681355D02*
X1219200D01*
X1223264Y685419D02*
X1224661D01*
X1215146Y705551D02*
X1219200Y701497D01*
Y690245D02*
Y701497D01*
X1178888Y659999D02*
X1185164Y653722D01*
Y640588D02*
Y653722D01*
X696595Y681355D02*
X697230Y680720D01*
X696595Y681355D02*
Y690880D01*
X704850Y666574D02*
X705309D01*
Y690704D01*
X705485Y690880D01*
X702486Y664210D02*
X704850Y666574D01*
X701421Y664210D02*
X702486D01*
X712421Y688423D02*
Y689483D01*
X705485Y690880D02*
X711024D01*
X712421Y689483D01*
Y688423D02*
X713769Y687076D01*
X716915Y681482D02*
X720901Y677496D01*
X723265Y673608D02*
X724789D01*
X720901Y675972D02*
X723265Y673608D01*
X720901Y675972D02*
Y677496D01*
X716915Y681482D02*
Y690880D01*
X974598Y714502D02*
Y742188D01*
Y714502D02*
X978671Y710429D01*
X981710Y749300D02*
Y754380D01*
X974598Y742188D02*
X981710Y749300D01*
X978671Y696373D02*
Y710429D01*
D223*
X142240Y929640D02*
D03*
X1117600Y276860D02*
D03*
X645160Y269240D02*
D03*
X1986280Y675640D02*
D03*
D240*
X1330200Y431800D02*
Y452363D01*
X1361440Y408940D02*
X1361820Y409320D01*
Y431420D02*
X1362200Y431800D01*
X1361820Y409320D02*
Y431420D01*
X683260Y787400D02*
X700405D01*
X706120Y781685D01*
X756920Y711200D02*
X764222Y718503D01*
Y734378D01*
X771525Y741680D01*
D241*
X1487678Y322072D02*
X1503680D01*
D242*
X1370330Y990600D02*
X1418590Y942340D01*
X1631950D01*
X1696720Y877570D01*
X152400Y990600D02*
X1370330D01*
X1696720Y706120D02*
Y877570D01*
X106680Y667106D02*
Y944880D01*
Y645160D02*
Y667106D01*
Y944880D02*
X152400Y990600D01*
X1696720Y706120D02*
X1711960D01*
X1727829D01*
X106680Y645160D02*
X121920Y629920D01*
D244*
X228774Y436706D02*
X258407D01*
X228600Y436880D02*
X228774Y436706D01*
X258407D02*
X258581Y436532D01*
X1102360Y378206D02*
X1102614Y377952D01*
X1102360Y378206D02*
Y386715D01*
X1180211Y781431D02*
X1184910Y786130D01*
X1180211Y772160D02*
Y781431D01*
X724789Y654812D02*
X736092D01*
X1184346Y755650D02*
X1189998Y749998D01*
D245*
X732155Y799766D02*
Y833120D01*
X677420Y801880D02*
X706120D01*
X675640Y800100D02*
X677420Y801880D01*
X684699Y831681D02*
X703921D01*
X706120Y833880D01*
X706880Y833120D01*
X732155D01*
Y799766D02*
X736740Y795181D01*
D246*
X1211712Y446534D02*
X1226486Y431760D01*
X1211338Y446534D02*
X1211712D01*
X1226486Y431760D02*
X1226860D01*
X1185303Y374779D02*
X1189241Y370840D01*
X1197102D01*
D248*
X1393825Y113030D02*
X1403350D01*
X1393825Y133350D02*
X1403350D01*
X1402080Y164084D02*
Y177800D01*
X1394460Y156464D02*
X1402080Y164084D01*
X1385075Y194805D02*
X1402080Y177800D01*
X1238745Y194805D02*
X1385075D01*
X1385824Y185420D02*
X1394460Y176784D01*
X1291590Y185420D02*
X1291908Y185737D01*
X1291590Y185420D02*
X1385824D01*
X1385253Y113348D02*
Y176467D01*
X1360170Y119888D02*
X1371473D01*
X1384935Y133350D01*
X1385253Y176467D02*
X1385570Y176784D01*
X1384935Y113030D02*
X1385253Y113348D01*
X1228090Y184150D02*
X1238745Y194805D01*
X1265610Y213923D02*
Y220083D01*
Y213923D02*
X1268920Y210612D01*
X1270354Y214073D02*
X1272169D01*
X1269070Y215356D02*
Y220083D01*
X1279894Y216904D02*
Y224511D01*
X1273602Y210612D02*
X1279894Y216904D01*
X1272169Y214073D02*
X1276433Y218338D01*
X1269070Y215356D02*
X1270354Y214073D01*
X1268920Y210612D02*
X1273602D01*
X1276433Y218338D02*
Y225944D01*
X1265245Y220448D02*
X1265610Y220083D01*
X1269435Y220448D02*
Y224345D01*
X1269070Y220083D02*
X1269435Y220448D01*
X1265245D02*
Y224345D01*
X1264840Y224750D02*
X1265245Y224345D01*
X1269435D02*
X1269840Y224750D01*
X1279894Y224511D02*
X1281443Y226060D01*
X1288576D01*
X1276433Y225944D02*
X1280010Y229521D01*
X1290010D01*
X1288576Y226060D02*
X1289860Y224777D01*
X1293320Y224128D02*
Y226210D01*
X1289860Y222695D02*
Y224777D01*
X1290010Y229521D02*
X1293320Y226210D01*
X1287145Y217170D02*
Y217183D01*
X1293320Y224128D02*
X1293320Y224128D01*
Y219898D02*
Y224128D01*
X1296035Y217170D02*
Y217183D01*
X1293320Y219898D02*
X1296035Y217183D01*
X1289860Y222695D02*
X1289860Y222695D01*
X1287145Y217183D02*
X1289860Y219898D01*
Y222695D01*
X1254070Y215193D02*
Y221812D01*
X1249326Y215343D02*
X1250610Y216626D01*
X1250760Y211882D02*
X1254070Y215193D01*
X1242060Y220794D02*
Y236370D01*
X1238599Y219361D02*
Y234937D01*
X1247512Y215343D02*
X1249326D01*
X1242060Y220794D02*
X1247512Y215343D01*
X1238599Y219361D02*
X1246078Y211882D01*
X1250760D01*
X1250610Y216626D02*
Y221812D01*
X1250245Y222177D02*
X1250610Y221812D01*
X1254070D02*
X1254435Y222177D01*
X1250245D02*
Y224345D01*
X1254435Y222177D02*
Y224345D01*
X1238749Y239681D02*
X1242060Y236370D01*
X1237316Y236220D02*
X1238599Y234937D01*
X1233741Y236220D02*
X1237316D01*
X1232308Y239681D02*
X1238749D01*
X1226360Y221168D02*
Y233732D01*
X1232308Y239681D01*
X1232535Y218440D02*
Y218453D01*
X1229820Y221168D02*
X1232535Y218453D01*
X1223645Y218440D02*
Y218453D01*
X1226360Y221168D01*
X1229820Y232299D02*
X1233741Y236220D01*
X1229820Y221168D02*
Y232299D01*
X1249840Y224750D02*
X1250245Y224345D01*
X1254435D02*
X1254840Y224750D01*
D250*
X1696720Y144780D02*
D03*
X1957465Y931171D02*
D03*
X53340Y949960D02*
D03*
X402580Y380655D02*
D03*
D251*
X1443830Y976167D02*
D03*
X1041830Y573167D02*
D03*
D252*
X1915160Y50720D02*
D03*
X1940560Y76120D02*
D03*
Y25320D02*
D03*
X1889760D02*
D03*
Y76120D02*
D03*
X1772920Y50800D02*
D03*
X1798320Y76200D02*
D03*
Y25400D02*
D03*
X1747520D02*
D03*
Y76200D02*
D03*
X1630680Y50800D02*
D03*
X1656080Y76200D02*
D03*
Y25400D02*
D03*
X1605280D02*
D03*
Y76200D02*
D03*
X1478280Y50800D02*
D03*
X1503680Y76200D02*
D03*
Y25400D02*
D03*
X1452880D02*
D03*
Y76200D02*
D03*
D253*
X54520Y101705D02*
D03*
X96520D02*
D03*
X54520Y156705D02*
D03*
X96520D02*
D03*
X138520D02*
D03*
X524000Y71120D02*
D03*
X644400D02*
D03*
D254*
X138520Y101705D02*
D03*
D255*
X874960Y45720D02*
D03*
D256*
X924960D02*
D03*
X974960D02*
D03*
X1024960D02*
D03*
D257*
X596700Y118120D02*
D03*
X571700D02*
D03*
X596700Y98120D02*
D03*
X571700D02*
D03*
D258*
X1240060Y409560D02*
D03*
Y398860D02*
D03*
Y388160D02*
D03*
X1229360Y409560D02*
D03*
Y398860D02*
D03*
Y388160D02*
D03*
X1218660Y409560D02*
D03*
Y398860D02*
D03*
Y388160D02*
D03*
D259*
X1300480Y157480D02*
D03*
X1209040D02*
D03*
X1323340D02*
D03*
X1219200Y109220D02*
D03*
X1239520D02*
D03*
X1259840D02*
D03*
X1280160D02*
D03*
X1229360Y91440D02*
D03*
X1249680D02*
D03*
X1270000D02*
D03*
X1186180Y157480D02*
D03*
X716280Y970280D02*
D03*
Y944880D02*
D03*
X1087120Y929640D02*
D03*
X1036320D02*
D03*
X1061720D02*
D03*
D260*
X1290320Y91440D02*
D03*
D261*
X1191260Y66040D02*
D03*
X1318260D02*
D03*
D262*
X222250Y311150D02*
D03*
X57150Y425450D02*
D03*
Y450850D02*
D03*
X31750Y425450D02*
D03*
Y450850D02*
D03*
X107950Y381000D02*
D03*
Y355600D02*
D03*
Y406400D02*
D03*
X81779Y451780D02*
D03*
Y426380D02*
D03*
X132579Y451780D02*
D03*
X107179D02*
D03*
X132579Y426380D02*
D03*
X107179D02*
D03*
X158750Y406400D02*
D03*
X133350D02*
D03*
X158750Y355600D02*
D03*
Y381000D02*
D03*
X133350Y355600D02*
D03*
Y381000D02*
D03*
X121920Y629920D02*
D03*
X177800Y444500D02*
D03*
X190500Y508000D02*
D03*
X165100D02*
D03*
Y609600D02*
D03*
Y584200D02*
D03*
Y558800D02*
D03*
X190500Y609600D02*
D03*
Y584200D02*
D03*
Y558800D02*
D03*
X139700D02*
D03*
X190500Y533400D02*
D03*
X165100D02*
D03*
X139700D02*
D03*
Y635000D02*
D03*
X165100D02*
D03*
X190500D02*
D03*
X139700Y660400D02*
D03*
X165100D02*
D03*
X190500D02*
D03*
X1566113Y588967D02*
D03*
X1592580Y553720D02*
D03*
X1595120Y563880D02*
D03*
Y596900D02*
D03*
X1633220Y584200D02*
D03*
X1640840Y601980D02*
D03*
X1651074Y646176D02*
D03*
X1653540Y576580D02*
D03*
X1681480Y579120D02*
D03*
X1658620Y591820D02*
D03*
Y640080D02*
D03*
X1671320Y655320D02*
D03*
X1699260Y652780D02*
D03*
X1691640Y662940D02*
D03*
X1717040Y609600D02*
D03*
X1704340Y637540D02*
D03*
X1887220Y513080D02*
D03*
X1805940Y574040D02*
D03*
X1826260Y566420D02*
D03*
X1856740Y505460D02*
D03*
X1894840Y525780D02*
D03*
X1906778Y537718D02*
D03*
X1894840Y571500D02*
D03*
X1882140Y586740D02*
D03*
X1844921Y579640D02*
D03*
X1846580Y784860D02*
D03*
X1859280Y787400D02*
D03*
X1882140D02*
D03*
X1762760Y767080D02*
D03*
X1765300Y751840D02*
D03*
X1818640Y789940D02*
D03*
X1788160Y792480D02*
D03*
X1869440Y635000D02*
D03*
X1811020Y678180D02*
D03*
X1897380Y665480D02*
D03*
X1892300Y703580D02*
D03*
X1910080Y721360D02*
D03*
X1894840D02*
D03*
X1889760Y736600D02*
D03*
Y751840D02*
D03*
X1892300Y767080D02*
D03*
X1866900Y802640D02*
D03*
X1727200Y502920D02*
D03*
X1704340Y522478D02*
D03*
X1713640Y509680D02*
D03*
X1676400Y495300D02*
D03*
X1757680Y441960D02*
D03*
X1742440Y452120D02*
D03*
X1727200Y431800D02*
D03*
X1658620Y459740D02*
D03*
X1673860Y436880D02*
D03*
X1729740Y419100D02*
D03*
X1664820Y336700D02*
D03*
X1615440Y302260D02*
D03*
X1630680Y261620D02*
D03*
X1646000Y261700D02*
D03*
X1691321Y278414D02*
D03*
X1709420Y299720D02*
D03*
X1705230Y325120D02*
D03*
X1690140Y301220D02*
D03*
X1676400Y325120D02*
D03*
X1628140Y327660D02*
D03*
X853440Y518160D02*
D03*
X878840Y515620D02*
D03*
X871220Y414020D02*
D03*
X726440Y259080D02*
D03*
X728980Y213360D02*
D03*
X812800D02*
D03*
X810260Y269240D02*
D03*
X807540Y480240D02*
D03*
X810260Y396240D02*
D03*
X982980D02*
D03*
X967740D02*
D03*
X996440Y396206D02*
D03*
X1031240Y353060D02*
D03*
Y419100D02*
D03*
X1021080Y431800D02*
D03*
X1008380Y437600D02*
D03*
X1016000Y447040D02*
D03*
X1379220Y406400D02*
D03*
X1447800Y599440D02*
D03*
X1457960D02*
D03*
Y566420D02*
D03*
X1447800Y574040D02*
D03*
X1432560Y551180D02*
D03*
Y467360D02*
D03*
X1330200Y452363D02*
D03*
X1361440Y408940D02*
D03*
X1343520Y449920D02*
D03*
X1361440Y449580D02*
D03*
X683260Y787400D02*
D03*
X693779Y764181D02*
D03*
X845820Y764540D02*
D03*
Y782320D02*
D03*
X837179Y773181D02*
D03*
X756920Y711200D02*
D03*
X678481Y818181D02*
D03*
X690471Y809181D02*
D03*
X675640Y800100D02*
D03*
X684699Y831681D02*
D03*
X783741Y601668D02*
D03*
X393700Y637540D02*
D03*
X284480Y406400D02*
D03*
X304800Y408940D02*
D03*
X349381Y438281D02*
D03*
X350139Y470281D02*
D03*
X323571Y460731D02*
D03*
X243840Y406400D02*
D03*
X258581Y406899D02*
D03*
X330200Y755650D02*
D03*
X283254Y810304D02*
D03*
X330200Y806450D02*
D03*
Y831850D02*
D03*
Y819150D02*
D03*
X508000Y787400D02*
D03*
X1487678Y322072D02*
D03*
X1711960Y706120D02*
D03*
X1727014Y706713D02*
D03*
X1696720Y706120D02*
D03*
X106680Y667106D02*
D03*
Y645160D02*
D03*
X212904Y168397D02*
D03*
Y149347D02*
D03*
X193854D02*
D03*
Y168397D02*
D03*
X139700Y234950D02*
D03*
Y215900D02*
D03*
Y196850D02*
D03*
X114300Y234950D02*
D03*
Y215900D02*
D03*
Y196850D02*
D03*
X133350Y127000D02*
D03*
X158750D02*
D03*
X82550D02*
D03*
X107950D02*
D03*
X31750D02*
D03*
X57150D02*
D03*
Y76200D02*
D03*
X31750D02*
D03*
X63500Y184150D02*
D03*
Y209550D02*
D03*
X82550Y184150D02*
D03*
Y209550D02*
D03*
X57150Y57150D02*
D03*
X31750D02*
D03*
X82550Y38100D02*
D03*
X107950D02*
D03*
X158750Y57150D02*
D03*
X133350D02*
D03*
X107950D02*
D03*
X82550D02*
D03*
Y76200D02*
D03*
X107950D02*
D03*
X133350D02*
D03*
X158750D02*
D03*
X190500Y222250D02*
D03*
X234950Y158750D02*
D03*
Y177800D02*
D03*
X209550Y222250D02*
D03*
X234950Y139700D02*
D03*
X171450Y203200D02*
D03*
X254000Y101600D02*
D03*
X228600D02*
D03*
X254000Y82550D02*
D03*
X228600D02*
D03*
X254000Y63500D02*
D03*
X228600D02*
D03*
X254000Y44450D02*
D03*
X228600D02*
D03*
X203200D02*
D03*
X177800D02*
D03*
Y25400D02*
D03*
X203200D02*
D03*
X228600D02*
D03*
X254000D02*
D03*
X171450Y222250D02*
D03*
Y241300D02*
D03*
X254000Y234950D02*
D03*
X234950D02*
D03*
Y215900D02*
D03*
Y196850D02*
D03*
X254000Y139700D02*
D03*
Y158750D02*
D03*
Y177800D02*
D03*
Y196850D02*
D03*
Y215900D02*
D03*
D263*
X1841640Y675140D02*
D03*
Y682940D02*
D03*
Y690740D02*
D03*
X1824440D02*
D03*
Y682940D02*
D03*
Y675140D02*
D03*
X769741Y573480D02*
D03*
X775491Y582980D02*
D03*
X763991D02*
D03*
X769741Y592480D02*
D03*
X747760Y791531D02*
D03*
Y798831D02*
D03*
Y806181D02*
D03*
X733107Y784177D02*
D03*
X740406D02*
D03*
X747757D02*
D03*
X725740Y791531D02*
D03*
Y784181D02*
D03*
Y798831D02*
D03*
Y806181D02*
D03*
X733110D02*
D03*
X740410D02*
D03*
X1355520Y495160D02*
D03*
Y487860D02*
D03*
Y480490D02*
D03*
X1362870D02*
D03*
X1377520D02*
D03*
X1370170D02*
D03*
X1377524Y502506D02*
D03*
Y495157D02*
D03*
Y487856D02*
D03*
X1355520Y502510D02*
D03*
X1362870D02*
D03*
X1370170D02*
D03*
X381003Y799834D02*
D03*
Y807134D02*
D03*
Y814484D02*
D03*
X366350Y792480D02*
D03*
X373650D02*
D03*
X381000D02*
D03*
X358983Y799834D02*
D03*
Y792484D02*
D03*
Y807134D02*
D03*
Y814484D02*
D03*
X366353D02*
D03*
X373653D02*
D03*
X1581480Y740000D02*
D03*
X1570480D02*
D03*
X1559480D02*
D03*
X1548480D02*
D03*
X1537480D02*
D03*
X1581480Y751000D02*
D03*
X1570480D02*
D03*
X1559480D02*
D03*
X1548480D02*
D03*
X1537480D02*
D03*
X1581480Y762000D02*
D03*
X1570480D02*
D03*
X1559480D02*
D03*
X1548480D02*
D03*
X1537480D02*
D03*
X1581480Y773000D02*
D03*
X1570480D02*
D03*
X1559480D02*
D03*
X1548480D02*
D03*
X1537480D02*
D03*
X1581480Y784000D02*
D03*
X1570480D02*
D03*
X1559480D02*
D03*
X1548480D02*
D03*
X1537480D02*
D03*
X1709754Y462765D02*
D03*
X1699754D02*
D03*
Y482765D02*
D03*
X1689754D02*
D03*
Y462765D02*
D03*
Y472765D02*
D03*
X1699754D02*
D03*
X1709754Y482765D02*
D03*
Y472765D02*
D03*
X1519340Y286170D02*
D03*
Y275170D02*
D03*
X1508340Y286170D02*
D03*
Y275170D02*
D03*
X924950Y455950D02*
D03*
Y463250D02*
D03*
Y470600D02*
D03*
X910296Y448596D02*
D03*
X917597D02*
D03*
X924947D02*
D03*
X902930Y455950D02*
D03*
Y448600D02*
D03*
Y463250D02*
D03*
Y470600D02*
D03*
X910300D02*
D03*
X917600D02*
D03*
X1858440Y387760D02*
D03*
X1869440D02*
D03*
X1880440D02*
D03*
X1891440D02*
D03*
X1902440D02*
D03*
X1858440Y376760D02*
D03*
X1869440D02*
D03*
X1880440D02*
D03*
X1891440D02*
D03*
X1902440D02*
D03*
X1858440Y365760D02*
D03*
X1869440D02*
D03*
X1880440D02*
D03*
X1891440D02*
D03*
X1902440D02*
D03*
X1858440Y354760D02*
D03*
X1869440D02*
D03*
X1880440D02*
D03*
X1891440D02*
D03*
X1902440D02*
D03*
X1858440Y343760D02*
D03*
X1869440D02*
D03*
X1880440D02*
D03*
X1891440D02*
D03*
X1902440D02*
D03*
X1540920Y522830D02*
D03*
X1529920D02*
D03*
X1518920D02*
D03*
X1507920D02*
D03*
X1496920D02*
D03*
X1540920Y533830D02*
D03*
X1529920D02*
D03*
X1518920D02*
D03*
X1507920D02*
D03*
X1496920D02*
D03*
X1540920Y544830D02*
D03*
X1529920D02*
D03*
X1518920D02*
D03*
X1507920D02*
D03*
X1496920D02*
D03*
X1540920Y555830D02*
D03*
X1529920D02*
D03*
X1518920D02*
D03*
X1507920D02*
D03*
X1496920D02*
D03*
X1540920Y566830D02*
D03*
X1529920D02*
D03*
X1518920D02*
D03*
X1507920D02*
D03*
X1496920D02*
D03*
X900880Y197280D02*
D03*
Y208280D02*
D03*
Y219280D02*
D03*
X911880Y197280D02*
D03*
Y208280D02*
D03*
Y219280D02*
D03*
X922880Y197280D02*
D03*
Y208280D02*
D03*
Y219280D02*
D03*
X933880Y197280D02*
D03*
Y208280D02*
D03*
Y219280D02*
D03*
X944880Y197280D02*
D03*
Y208280D02*
D03*
Y219280D02*
D03*
X955880Y197280D02*
D03*
Y208280D02*
D03*
Y219280D02*
D03*
X966880Y197280D02*
D03*
Y208280D02*
D03*
Y219280D02*
D03*
X977880Y197280D02*
D03*
Y208280D02*
D03*
Y219280D02*
D03*
X988880Y197280D02*
D03*
Y208280D02*
D03*
Y219280D02*
D03*
D264*
X1011760Y742110D02*
D03*
X889259Y577850D02*
D03*
Y694436D02*
D03*
X862330Y566420D02*
D03*
X1384935Y365125D02*
D03*
X1445260Y350520D02*
D03*
X350054Y861864D02*
D03*
X388484Y745627D02*
D03*
X410210Y713740D02*
D03*
X403860D02*
D03*
Y736600D02*
D03*
X410210D02*
D03*
X1079754Y805434D02*
D03*
X1079500Y773305D02*
D03*
X1031750Y773940D02*
D03*
X987390Y687999D02*
D03*
X995423Y731520D02*
D03*
X1005141Y704381D02*
D03*
X983068Y714414D02*
D03*
X939148Y724322D02*
D03*
X1019808Y703428D02*
D03*
X913130Y714248D02*
D03*
X930275Y724535D02*
D03*
X898652Y617220D02*
D03*
X902462Y645668D02*
D03*
X896874Y680466D02*
D03*
X895096Y690118D02*
D03*
X1018494Y713532D02*
D03*
X1006475Y741045D02*
D03*
X981075Y737489D02*
D03*
X964565Y726313D02*
D03*
X955262Y726440D02*
D03*
X955548Y749300D02*
D03*
X963393Y704216D02*
D03*
X998728Y747014D02*
D03*
X976122Y751840D02*
D03*
X931164Y743966D02*
D03*
X912368Y720344D02*
D03*
X955262Y704302D02*
D03*
X909320Y619760D02*
D03*
X1003998Y647999D02*
D03*
X1012446Y647999D02*
D03*
X1244600Y675640D02*
D03*
X1194562Y386334D02*
D03*
X1313709Y664113D02*
D03*
X1305146Y665551D02*
D03*
X1310386Y626110D02*
D03*
X1299998Y637413D02*
D03*
X1289998Y640100D02*
D03*
X1319530Y635101D02*
D03*
X1315146Y675551D02*
D03*
X1279998Y639003D02*
D03*
X1245870Y665480D02*
D03*
X1285113Y684097D02*
D03*
X1275588Y694563D02*
D03*
X1233810Y664210D02*
D03*
X1274826Y714756D02*
D03*
X1265118Y695020D02*
D03*
X1264920Y674878D02*
D03*
X1254445Y675147D02*
D03*
Y685147D02*
D03*
X1325146Y675551D02*
D03*
X1304849Y684446D02*
D03*
X1325146Y695551D02*
D03*
Y685551D02*
D03*
X1345146Y675551D02*
D03*
X1355146D02*
D03*
X1344445Y685147D02*
D03*
X1335146Y685551D02*
D03*
Y665551D02*
D03*
X1315550Y694850D02*
D03*
X1335146Y705551D02*
D03*
X1325146Y715551D02*
D03*
X1374902Y854964D02*
D03*
X1354582Y883920D02*
D03*
X1275080Y875030D02*
D03*
X1295146Y854964D02*
D03*
X1325118D02*
D03*
X1354836Y865124D02*
D03*
X1365486Y844913D02*
D03*
X1354029Y845820D02*
D03*
X1364509Y855084D02*
D03*
Y895084D02*
D03*
X1374913Y894510D02*
D03*
X1364509Y875084D02*
D03*
X1365083Y865488D02*
D03*
X1354913Y874510D02*
D03*
X1354509Y895084D02*
D03*
Y905084D02*
D03*
X1365083Y765488D02*
D03*
X1334509Y775084D02*
D03*
X1345486Y754913D02*
D03*
X1334509Y755084D02*
D03*
X1324509D02*
D03*
X1304913Y764510D02*
D03*
Y784510D02*
D03*
X1305083Y795488D02*
D03*
X1275083Y815488D02*
D03*
X1285083D02*
D03*
X1274509Y825084D02*
D03*
X1284913Y824510D02*
D03*
X1295405Y825909D02*
D03*
X1345486Y784913D02*
D03*
X1324509Y795084D02*
D03*
X1314509Y805084D02*
D03*
X1304509D02*
D03*
X1325486Y824913D02*
D03*
X1304913Y824510D02*
D03*
X1314509Y825084D02*
D03*
X1304509Y885084D02*
D03*
X1315720Y885190D02*
D03*
X1294509Y885084D02*
D03*
Y865084D02*
D03*
X1315083Y865488D02*
D03*
X1324509Y845084D02*
D03*
X1335486Y814913D02*
D03*
X1345083Y825488D02*
D03*
X1335083Y835488D02*
D03*
X1315197Y893265D02*
D03*
X1304509Y875084D02*
D03*
X1304445Y863730D02*
D03*
X1294798Y893264D02*
D03*
X1284509Y855084D02*
D03*
X1274509D02*
D03*
X1294509Y845084D02*
D03*
X1304913Y844510D02*
D03*
X1305486Y894913D02*
D03*
X1324913Y874510D02*
D03*
X1314509Y875084D02*
D03*
X1324913Y864510D02*
D03*
X1344509Y885084D02*
D03*
Y875084D02*
D03*
X1335083Y865488D02*
D03*
X1345083D02*
D03*
X1344913Y854510D02*
D03*
X1355083Y855488D02*
D03*
X1345083Y845488D02*
D03*
X1335486Y844913D02*
D03*
X1304913Y834510D02*
D03*
X1314913D02*
D03*
X1314450Y854710D02*
D03*
X1314913Y844510D02*
D03*
X1265047Y855250D02*
D03*
Y865199D02*
D03*
X1265157Y875360D02*
D03*
X1284849Y864446D02*
D03*
X1285146Y875551D02*
D03*
X1254998Y887048D02*
D03*
X1255349Y895350D02*
D03*
X1215286Y854710D02*
D03*
X1195098Y854870D02*
D03*
X1315146Y685551D02*
D03*
X1305550Y694850D02*
D03*
Y674850D02*
D03*
X1285240Y635000D02*
D03*
X1284849Y674446D02*
D03*
X1273810Y664210D02*
D03*
X1274048Y684453D02*
D03*
X1195070Y864870D02*
D03*
X1184910Y786130D02*
D03*
X1175146Y785551D02*
D03*
X1205230Y755650D02*
D03*
X1296670Y725170D02*
D03*
X1315085Y714375D02*
D03*
X1324445Y765147D02*
D03*
X1355146Y765551D02*
D03*
X1355090Y784860D02*
D03*
X1334770Y793750D02*
D03*
X1335606Y825500D02*
D03*
X1323514Y834619D02*
D03*
X1235146Y745551D02*
D03*
X1270000Y637641D02*
D03*
X1295550Y664850D02*
D03*
X1294384Y655574D02*
D03*
X1285550Y664850D02*
D03*
X1274849Y674446D02*
D03*
X1294445Y675147D02*
D03*
X1294849Y684446D02*
D03*
X1295908Y704596D02*
D03*
X1244849Y824446D02*
D03*
X1234849Y774446D02*
D03*
X1384445Y655147D02*
D03*
X1355146Y665551D02*
D03*
X1354445Y685147D02*
D03*
X1385146Y705551D02*
D03*
X1354445Y725147D02*
D03*
X1295146Y695551D02*
D03*
X1325146Y735551D02*
D03*
X1374445Y785147D02*
D03*
X1374445Y825147D02*
D03*
Y865147D02*
D03*
X1384849Y894446D02*
D03*
X1334849Y884446D02*
D03*
X1245146Y865551D02*
D03*
X1265550Y884850D02*
D03*
X1225550D02*
D03*
X1225146Y895551D02*
D03*
X1144445Y785147D02*
D03*
X1204849Y774446D02*
D03*
Y724446D02*
D03*
X1224788Y685546D02*
D03*
X1185164Y640588D02*
D03*
X1253810Y694210D02*
D03*
X1354445Y705147D02*
D03*
X1375146Y665551D02*
D03*
X1203766Y705541D02*
D03*
X1187196Y705612D02*
D03*
X1184148Y694436D02*
D03*
X1193631Y705358D02*
D03*
X1173634Y674525D02*
D03*
X1174496Y684588D02*
D03*
X1156191Y663685D02*
D03*
X1255146Y715551D02*
D03*
X1254445Y725147D02*
D03*
X1305146Y715551D02*
D03*
X1315146Y735551D02*
D03*
X1385146Y685551D02*
D03*
X1305146Y855551D02*
D03*
X1345146Y835551D02*
D03*
Y815551D02*
D03*
X1335146Y805551D02*
D03*
X1365146Y785551D02*
D03*
X1374445Y805147D02*
D03*
X1365146Y835551D02*
D03*
X1374445Y845147D02*
D03*
X1377152Y923856D02*
D03*
X1346131Y923453D02*
D03*
X1374849Y874446D02*
D03*
X1334445Y855147D02*
D03*
Y875147D02*
D03*
X1324610Y885190D02*
D03*
X1164590Y910590D02*
D03*
X1198880Y909320D02*
D03*
X1184910Y744220D02*
D03*
X1205230Y764540D02*
D03*
X1215146Y665551D02*
D03*
X1345550Y694850D02*
D03*
X1335146Y695551D02*
D03*
X1345146Y735551D02*
D03*
X1365550Y734850D02*
D03*
X1374849Y734446D02*
D03*
X1374445Y725147D02*
D03*
X1355146Y755551D02*
D03*
X1374849Y754446D02*
D03*
X1245550Y764850D02*
D03*
X1245146Y745551D02*
D03*
X1255550Y744850D02*
D03*
X1275550Y734850D02*
D03*
X1264849Y754446D02*
D03*
X1265550Y744850D02*
D03*
X1255550Y764850D02*
D03*
X1265146Y765551D02*
D03*
X1285550Y754850D02*
D03*
X1275146Y775551D02*
D03*
X1274849Y764446D02*
D03*
X1275146Y755551D02*
D03*
X1274849Y744446D02*
D03*
X1295550Y734850D02*
D03*
X1295146Y755551D02*
D03*
X1305146D02*
D03*
Y775551D02*
D03*
X1284445Y775147D02*
D03*
Y765147D02*
D03*
X1315550Y774850D02*
D03*
X1314849Y784446D02*
D03*
X1304849Y814446D02*
D03*
X1294849Y804446D02*
D03*
X1284445Y845147D02*
D03*
X1285550Y834850D02*
D03*
X1274445Y865147D02*
D03*
X1294928Y875099D02*
D03*
X1274849Y884446D02*
D03*
X1245550Y884850D02*
D03*
X1254849Y854446D02*
D03*
X1224445Y845147D02*
D03*
X1234849Y844446D02*
D03*
X1195550Y844850D02*
D03*
X1225550Y864850D02*
D03*
X1145550Y894850D02*
D03*
X1205146Y895551D02*
D03*
X1174445Y895147D02*
D03*
X1155550Y874850D02*
D03*
X1164849Y874446D02*
D03*
X1184849Y864446D02*
D03*
X1164445Y865147D02*
D03*
X1155146Y865551D02*
D03*
X1164849Y834446D02*
D03*
X1155146Y805551D02*
D03*
Y825551D02*
D03*
X1155550Y834850D02*
D03*
X1175550Y824850D02*
D03*
X1204849Y834446D02*
D03*
X1194849Y824446D02*
D03*
X1195146Y805551D02*
D03*
X1184849Y814446D02*
D03*
X1225146Y815551D02*
D03*
X1245146D02*
D03*
X1284849Y804446D02*
D03*
X1254445Y815147D02*
D03*
X1265146Y805551D02*
D03*
X1295146Y785551D02*
D03*
X1284849Y784446D02*
D03*
X1295550Y794850D02*
D03*
X1285550D02*
D03*
X1264849Y794446D02*
D03*
X1244849D02*
D03*
X1224849D02*
D03*
X1234849D02*
D03*
X1234849Y784446D02*
D03*
X1244763Y784929D02*
D03*
X1275550Y784850D02*
D03*
X1265550D02*
D03*
X1254445Y785147D02*
D03*
X1264849Y774446D02*
D03*
X1254445Y775147D02*
D03*
X1255550Y754850D02*
D03*
X1224849Y754446D02*
D03*
X1245550Y754850D02*
D03*
X1234445Y755147D02*
D03*
X1215390Y735330D02*
D03*
X1215146Y705551D02*
D03*
X1225550Y704850D02*
D03*
X1103122Y685994D02*
D03*
X1164455D02*
D03*
X1184346Y755650D02*
D03*
X1169998Y638810D02*
D03*
X972130Y703999D02*
D03*
X958850Y754380D02*
D03*
X956310Y664210D02*
D03*
X985901Y616077D02*
D03*
X755136Y616706D02*
D03*
X839470Y662940D02*
D03*
X850265Y668655D02*
D03*
X854075Y724535D02*
D03*
X845185Y723265D02*
D03*
X854075Y700405D02*
D03*
X845185D02*
D03*
X889000Y566420D02*
D03*
X900430Y750570D02*
D03*
X993140Y778510D02*
D03*
X981710D02*
D03*
X863600Y736600D02*
D03*
Y702310D02*
D03*
X864870Y668020D02*
D03*
X862330Y656590D02*
D03*
Y645160D02*
D03*
Y633730D02*
D03*
Y622300D02*
D03*
Y610870D02*
D03*
Y599440D02*
D03*
Y588010D02*
D03*
Y577850D02*
D03*
X1019998Y655999D02*
D03*
X1011998D02*
D03*
X1003998D02*
D03*
X987390Y695932D02*
D03*
X978671Y687999D02*
D03*
X906780Y750570D02*
D03*
X918210Y748030D02*
D03*
X909826Y644396D02*
D03*
X902970Y652780D02*
D03*
X889000Y656590D02*
D03*
X948690Y664210D02*
D03*
X947838Y655867D02*
D03*
X956310Y656438D02*
D03*
X960120Y683260D02*
D03*
X919480Y702310D02*
D03*
X993140Y750690D02*
D03*
X1004826Y695971D02*
D03*
X995730Y695999D02*
D03*
X996444Y688304D02*
D03*
X1035364Y677478D02*
D03*
X989479Y669283D02*
D03*
X1084685Y658219D02*
D03*
X1030343Y682150D02*
D03*
X1089660Y662940D02*
D03*
X982624Y669477D02*
D03*
X901700Y688848D02*
D03*
Y681990D02*
D03*
X900430Y716280D02*
D03*
X928370Y709930D02*
D03*
X938999Y704155D02*
D03*
X947998Y647735D02*
D03*
X924560Y751840D02*
D03*
X947130Y704057D02*
D03*
X981710Y754380D02*
D03*
X970280D02*
D03*
X947420D02*
D03*
X935990D02*
D03*
X1174455Y696066D02*
D03*
X1176065Y705541D02*
D03*
X1135380Y619760D02*
D03*
X963491Y696505D02*
D03*
X955998D02*
D03*
X963998Y687867D02*
D03*
X947998Y696505D02*
D03*
X948373Y688374D02*
D03*
X939800Y648462D02*
D03*
X939690Y640224D02*
D03*
X948946Y639886D02*
D03*
X964185Y639995D02*
D03*
X974598Y630704D02*
D03*
X1008383Y677866D02*
D03*
X1154684Y715010D02*
D03*
X1154998Y704999D02*
D03*
X1018047Y684335D02*
D03*
X1144998Y704999D02*
D03*
X1018553Y677496D02*
D03*
X1154176Y695706D02*
D03*
X1099312Y682754D02*
D03*
X1154166Y725616D02*
D03*
X1104847Y702292D02*
D03*
X1019556Y697230D02*
D03*
X1164082Y725932D02*
D03*
X1166622Y695198D02*
D03*
X1164604Y705090D02*
D03*
X1144287Y655303D02*
D03*
X1184910Y724303D02*
D03*
X1123950Y739473D02*
D03*
X1085736Y724014D02*
D03*
X969747Y640037D02*
D03*
X1062321Y687329D02*
D03*
X1060704Y712978D02*
D03*
X1123691Y698246D02*
D03*
X1007618Y668341D02*
D03*
X1028446Y704342D02*
D03*
X1036320Y703834D02*
D03*
X1028400Y713532D02*
D03*
X1034542Y713994D02*
D03*
X1050290Y714248D02*
D03*
X1042670Y713740D02*
D03*
X1011998Y703998D02*
D03*
X1043201Y703996D02*
D03*
X1051560Y703072D02*
D03*
X1099785Y706918D02*
D03*
X1085088Y709995D02*
D03*
X1174242Y716377D02*
D03*
X1165540Y713932D02*
D03*
X1077722Y650748D02*
D03*
X1019599Y640266D02*
D03*
X1027998D02*
D03*
X1116330Y657352D02*
D03*
X1059089Y648267D02*
D03*
X1035998Y640136D02*
D03*
Y648267D02*
D03*
X1059266Y640086D02*
D03*
X1035998Y656589D02*
D03*
X1044223Y656529D02*
D03*
X979932Y647954D02*
D03*
X987806Y639826D02*
D03*
X1174496Y725110D02*
D03*
X971998Y687999D02*
D03*
X1012446Y640266D02*
D03*
X1043998D02*
D03*
X1051560Y640332D02*
D03*
X1027981Y648464D02*
D03*
X963930Y647700D02*
D03*
X972058Y647954D02*
D03*
X987998Y647999D02*
D03*
X988491Y655514D02*
D03*
X1185104Y685038D02*
D03*
X1144276Y646066D02*
D03*
X1025144Y678942D02*
D03*
X978671Y696373D02*
D03*
X1132840Y764542D02*
D03*
X1130300Y745490D02*
D03*
X1195578Y715518D02*
D03*
X1184546Y715882D02*
D03*
X1144998Y764999D02*
D03*
X1154998Y764999D02*
D03*
X1080770Y730250D02*
D03*
X1164590Y673100D02*
D03*
X979170Y666750D02*
D03*
X972036Y695999D02*
D03*
X1003998Y640266D02*
D03*
X1214600Y725043D02*
D03*
X1154430Y655320D02*
D03*
X1153931Y684456D02*
D03*
X955998Y639999D02*
D03*
X1134529Y684530D02*
D03*
X1019998Y647999D02*
D03*
X1144529Y684530D02*
D03*
X1125220Y769620D02*
D03*
X1175169Y755406D02*
D03*
X1154590Y755170D02*
D03*
X1154998Y744999D02*
D03*
X1144998D02*
D03*
X1195406Y744827D02*
D03*
X1194826Y734591D02*
D03*
X1185169Y735406D02*
D03*
X1175169D02*
D03*
X508000Y949960D02*
D03*
D265*
X853440Y452120D02*
D03*
X1360416Y639999D02*
D03*
X1536030Y932688D02*
D03*
X538480Y716280D02*
D03*
X537210Y753110D02*
D03*
Y787400D02*
D03*
X454660Y712470D02*
D03*
X455930Y728980D02*
D03*
X457200Y741680D02*
D03*
X439420Y740410D02*
D03*
X419100D02*
D03*
X471170Y763270D02*
D03*
X481330Y756920D02*
D03*
X480060Y772160D02*
D03*
X1577340Y259080D02*
D03*
X1573530Y275590D02*
D03*
Y299720D02*
D03*
X1593850D02*
D03*
Y285750D02*
D03*
Y271780D02*
D03*
Y257810D02*
D03*
X1468120Y297180D02*
D03*
X1469390Y266700D02*
D03*
X1479550D02*
D03*
X1487678Y310803D02*
D03*
X1536700Y318770D02*
D03*
X1560830D02*
D03*
X1579880D02*
D03*
X1569720D02*
D03*
X843280Y970280D02*
D03*
X1631950Y424180D02*
D03*
X1659890Y674370D02*
D03*
X1435100Y579120D02*
D03*
X1408430Y292100D02*
D03*
X1394460Y375920D02*
D03*
X741680Y713740D02*
D03*
X721311Y699770D02*
D03*
X332740Y772160D02*
D03*
X316061Y779949D02*
D03*
X378460Y737870D02*
D03*
X1162050Y222250D02*
D03*
X1006180Y270850D02*
D03*
X1045464Y482600D02*
D03*
X1063498Y414782D02*
D03*
X1067562Y377952D02*
D03*
X1102614D02*
D03*
X1103122Y425704D02*
D03*
X1148080Y482346D02*
D03*
X949452Y381762D02*
D03*
X926084Y383921D02*
D03*
X873506Y482600D02*
D03*
X873794Y464600D02*
D03*
X874255Y473600D02*
D03*
X876331Y428600D02*
D03*
X827618Y969940D02*
D03*
X826938Y888660D02*
D03*
X1158240Y421640D02*
D03*
X1226860Y431760D02*
D03*
X1284870Y550420D02*
D03*
Y594360D02*
D03*
X1205230Y639034D02*
D03*
X1169670Y379730D02*
D03*
X1254000Y594360D02*
D03*
X1153160Y608330D02*
D03*
X1178560Y633730D02*
D03*
X1195070Y638695D02*
D03*
X1371600Y586740D02*
D03*
X1435100Y562610D02*
D03*
X1313815Y483235D02*
D03*
X1447800Y513080D02*
D03*
X1457960D02*
D03*
X1447800Y495300D02*
D03*
X1457960D02*
D03*
X1430655Y531495D02*
D03*
X1431290Y521970D02*
D03*
X1431925Y511175D02*
D03*
X1429385Y502285D02*
D03*
X1398270Y450850D02*
D03*
X1387475Y451485D02*
D03*
X1385990Y586740D02*
D03*
X1433830Y604520D02*
D03*
X1466850Y632460D02*
D03*
X1427480D02*
D03*
X1468120Y697230D02*
D03*
X1427480Y695960D02*
D03*
X1502410Y775970D02*
D03*
X1503320Y784500D02*
D03*
X1513840Y806450D02*
D03*
X1461770Y789940D02*
D03*
Y798830D02*
D03*
X1484630Y828040D02*
D03*
X1642110Y845820D02*
D03*
X1660095Y858725D02*
D03*
X1604334Y869626D02*
D03*
X1604010Y909320D02*
D03*
X1521890Y833960D02*
D03*
X1427480Y916940D02*
D03*
X1468120Y915670D02*
D03*
Y848360D02*
D03*
X1427480D02*
D03*
X1230120Y594360D02*
D03*
X1254000Y550670D02*
D03*
X1230120Y551690D02*
D03*
X1178560Y574040D02*
D03*
X1179830Y614680D02*
D03*
X1249680Y127000D02*
D03*
X1160780Y401320D02*
D03*
X1155700Y383540D02*
D03*
X1163699Y374779D02*
D03*
X1193050Y334530D02*
D03*
X1221498Y332982D02*
D03*
X1211580Y332740D02*
D03*
X1201420D02*
D03*
X1180858Y467118D02*
D03*
X1191260Y467360D02*
D03*
X1201420D02*
D03*
X1221740Y474980D02*
D03*
X1211338Y479818D02*
D03*
X1221498Y464578D02*
D03*
X1231658D02*
D03*
X1290320Y381000D02*
D03*
Y391160D02*
D03*
Y401320D02*
D03*
Y411480D02*
D03*
Y421640D02*
D03*
Y431800D02*
D03*
Y441960D02*
D03*
X1403350Y113030D02*
D03*
Y133350D02*
D03*
X1280160Y236220D02*
D03*
X1383792Y90932D02*
D03*
X1228090Y184150D02*
D03*
X1291590Y185420D02*
D03*
X1296035Y217170D02*
D03*
X1287145D02*
D03*
X1223645Y218440D02*
D03*
X1232535D02*
D03*
X1259840Y215900D02*
D03*
X1162558Y255778D02*
D03*
X1190625Y285115D02*
D03*
X1167259Y425579D02*
D03*
Y415419D02*
D03*
X1166751Y405259D02*
D03*
X1152652Y394716D02*
D03*
X1166243Y395099D02*
D03*
X1176413Y366407D02*
D03*
X1279398Y454152D02*
D03*
X1197102Y370840D02*
D03*
X1161108Y621866D02*
D03*
X697230Y680720D02*
D03*
X736092Y654812D02*
D03*
X759460Y655320D02*
D03*
Y666750D02*
D03*
X762000Y600710D02*
D03*
X730250Y585470D02*
D03*
X746760Y582930D02*
D03*
Y596900D02*
D03*
Y566420D02*
D03*
X829200Y586630D02*
D03*
X819040D02*
D03*
X802880Y575550D02*
D03*
X770890Y557530D02*
D03*
X810381Y548761D02*
D03*
X800221D02*
D03*
X828675Y612140D02*
D03*
X830978Y603648D02*
D03*
X818278D02*
D03*
X818890Y642360D02*
D03*
X911860Y779780D02*
D03*
X248421Y571881D02*
D03*
X263661D02*
D03*
X278901D02*
D03*
X294141D02*
D03*
X286521Y564261D02*
D03*
X256041D02*
D03*
X294141Y556641D02*
D03*
X278901D02*
D03*
X263661D02*
D03*
X248421D02*
D03*
X286521Y549021D02*
D03*
X256041D02*
D03*
X294141Y541401D02*
D03*
X278901D02*
D03*
X263661D02*
D03*
X248421D02*
D03*
X286521Y533781D02*
D03*
X256041D02*
D03*
X294141Y526161D02*
D03*
X278901D02*
D03*
X263661D02*
D03*
X248421D02*
D03*
X286521Y518541D02*
D03*
X271281D02*
D03*
X256041D02*
D03*
X294141Y510921D02*
D03*
X278901D02*
D03*
X263661D02*
D03*
X286521Y503301D02*
D03*
X271281D02*
D03*
X294141Y495681D02*
D03*
X278901D02*
D03*
X263661D02*
D03*
X248421D02*
D03*
Y510921D02*
D03*
X256041Y503301D02*
D03*
X271281Y564261D02*
D03*
Y549021D02*
D03*
Y533781D02*
D03*
D266*
X690880Y777240D02*
D03*
X754380Y723900D02*
D03*
X736600Y728980D02*
D03*
X731520Y850900D02*
D03*
X792480Y650240D02*
D03*
X775829Y661811D02*
D03*
X783741Y613561D02*
D03*
X228600Y436880D02*
D03*
X258581Y436532D02*
D03*
X1000760Y782574D02*
D03*
D267*
X1860280Y558640D02*
D03*
Y548640D02*
D03*
Y538640D02*
D03*
X1870280D02*
D03*
Y548640D02*
D03*
Y558640D02*
D03*
X1880280D02*
D03*
Y548640D02*
D03*
Y538640D02*
D03*
X1642500Y291220D02*
D03*
X1652500D02*
D03*
X1662500D02*
D03*
Y301220D02*
D03*
X1652500D02*
D03*
X1642500D02*
D03*
Y311220D02*
D03*
X1652500D02*
D03*
X1662500D02*
D03*
X1691320Y604680D02*
D03*
Y614680D02*
D03*
Y624680D02*
D03*
X1681320D02*
D03*
Y614680D02*
D03*
Y604680D02*
D03*
X1671320D02*
D03*
Y614680D02*
D03*
Y624680D02*
D03*
D270*
X1069375Y766918D02*
G03*
X1071753Y764540I2378J0D01*
G01*
X1069375Y769653D02*
G03*
X1067920Y771107I-1455J0D01*
G01*
X1066673D02*
G03*
X1065219Y769653I0J-1455D01*
G01*
X1063764Y764207D02*
G03*
X1065219Y765662I0J1455D01*
G01*
X1061062D02*
G03*
X1062517Y764207I1455J0D01*
G01*
X1061062Y769653D02*
G03*
X1059607Y771107I-1455J0D01*
G01*
X1058361D02*
G03*
X1056906Y769653I0J-1455D01*
G01*
X1054527Y764540D02*
G03*
X1056906Y766918I0J2378D01*
G01*
X1099213Y776986D02*
G03*
X1096834Y774608I0J-2378D01*
G01*
X1095380Y773153D02*
G03*
X1096834Y774607I0J1455D01*
G01*
X1092678D02*
G03*
X1094133Y773153I1455J0D01*
G01*
X1092678Y779366D02*
G03*
X1091223Y780820I-1455J0D01*
G01*
X1089976D02*
G03*
X1088522Y779366I0J-1455D01*
G01*
X1086143Y776986D02*
G03*
X1088522Y779364I0J2378D01*
G01*
X1026552Y740802D02*
G03*
X1026552Y737439I1682J-1682D01*
G01*
X1027935Y733999D02*
G03*
X1027935Y736056I-1029J1029D01*
G01*
X1024996Y733117D02*
G03*
X1027053Y733117I1029J1029D01*
G01*
X1023613Y734500D02*
G03*
X1020250Y734500I-1682J-1682D01*
G01*
X1008918Y723168D02*
G03*
X1008918Y719805I1682J-1682D01*
G01*
X1010301Y716365D02*
G03*
X1010301Y718422I-1029J1029D01*
G01*
X1007362Y715483D02*
G03*
X1009419Y715483I1029J1029D01*
G01*
X1005979Y716865D02*
G03*
X1002616Y716865I-1682J-1682D01*
G01*
X1052529Y668891D02*
G03*
X1052529Y665527I1682J-1682D01*
G01*
X1053032Y669394D02*
G03*
X1053032Y671451I-1029J1029D01*
G01*
X1052150Y672333D02*
G03*
X1050093Y672333I-1029J-1029D01*
G01*
X1046226Y671830D02*
G03*
X1049590Y671830I1682J1682D01*
G01*
X1102840Y662912D02*
G03*
X1102840Y659549I1682J-1682D01*
G01*
X1104323Y656009D02*
G03*
X1104323Y658066I-1029J1029D01*
G01*
X1101384Y655127D02*
G03*
X1103442Y655127I1029J1029D01*
G01*
X1095558Y660953D02*
G03*
X1093501Y660953I-1029J-1029D01*
G01*
X1092619Y660071D02*
G03*
X1092619Y658014I1029J-1029D01*
G01*
X1093599Y653671D02*
G03*
X1093599Y657034I-1682J1682D01*
G01*
X1088675Y692627D02*
G03*
X1085312Y692627I-1682J-1682D01*
G01*
X1080371Y689743D02*
G03*
X1082428Y689743I1029J1029D01*
G01*
X1079489Y692682D02*
G03*
X1079489Y690625I1029J-1029D01*
G01*
X1085037Y698231D02*
G03*
X1085037Y700288I-1029J1029D01*
G01*
X1084156Y701170D02*
G03*
X1082098Y701170I-1029J-1029D01*
G01*
X1070532Y691661D02*
G03*
X1072589Y691661I1029J1029D01*
G01*
X1069650Y694600D02*
G03*
X1069650Y692542I1029J-1029D01*
G01*
X1077521Y702470D02*
G03*
X1077521Y704528I-1029J1029D01*
G01*
X1076639Y705409D02*
G03*
X1074582Y705409I-1029J-1029D01*
G01*
X1064557Y697442D02*
G03*
X1066615Y697442I1029J1029D01*
G01*
X1063676Y700381D02*
G03*
X1063676Y698324I1029J-1029D01*
G01*
X1070616Y707322D02*
G03*
X1070616Y710686I-1682J1682D01*
G01*
X1020669Y724821D02*
G03*
X1024033Y724821I1682J1682D01*
G01*
X1020376Y725114D02*
G03*
X1018319Y725114I-1029J-1029D01*
G01*
X1017437Y724232D02*
G03*
X1017437Y722175I1029J-1029D01*
G01*
X1017730Y718518D02*
G03*
X1017730Y721882I-1682J1682D01*
G01*
X1142855Y693257D02*
G03*
X1145233Y690878I2378J0D01*
G01*
X1142855Y698388D02*
G03*
X1141400Y699842I-1455J0D01*
G01*
X1140153D02*
G03*
X1138699Y698388I0J-1455D01*
G01*
X1136320Y690878D02*
G03*
X1138699Y693257I0J2378D01*
G01*
X1077989Y636270D02*
G03*
X1075610Y633892I0J-2378D01*
G01*
X1074155Y628499D02*
G03*
X1075610Y629954I0J1455D01*
G01*
X1071454D02*
G03*
X1072908Y628499I1455J0D01*
G01*
X1071454Y639843D02*
G03*
X1069999Y641298I-1455J0D01*
G01*
X1068752D02*
G03*
X1067297Y639843I0J-1455D01*
G01*
X1065843Y626285D02*
G03*
X1067297Y627740I0J1455D01*
G01*
X1063141D02*
G03*
X1064595Y626285I1455J0D01*
G01*
X1063141Y634566D02*
G03*
X1061686Y636021I-1455J0D01*
G01*
X1060439D02*
G03*
X1058984Y634566I0J-1455D01*
G01*
X1057530Y626285D02*
G03*
X1058984Y627740I0J1455D01*
G01*
X1054828D02*
G03*
X1056283Y626285I1455J0D01*
G01*
X1054828Y634812D02*
G03*
X1053373Y636266I-1455J0D01*
G01*
X1052126D02*
G03*
X1050671Y634812I0J-1455D01*
G01*
X1049217Y626285D02*
G03*
X1050671Y627740I0J1455D01*
G01*
X1046515D02*
G03*
X1047970Y626285I1455J0D01*
G01*
X1046515Y634746D02*
G03*
X1045060Y636201I-1455J0D01*
G01*
X1043813D02*
G03*
X1042359Y634746I0J-1455D01*
G01*
X1040904Y626285D02*
G03*
X1042359Y627740I0J1455D01*
G01*
X1038202D02*
G03*
X1039657Y626285I1455J0D01*
G01*
X1038202Y632114D02*
G03*
X1035824Y634492I-2378J0D01*
G01*
X1032106Y624932D02*
G03*
X1034485Y622554I2378J0D01*
G01*
X1032106Y627648D02*
G03*
X1030651Y629103I-1455J0D01*
G01*
X1029405D02*
G03*
X1027950Y627648I0J-1455D01*
G01*
X1025571Y622554D02*
G03*
X1027950Y624932I0J2378D01*
G01*
X1019352Y626060D02*
G03*
X1015988Y626060I-1682J-1682D01*
G01*
X1009373Y621503D02*
G03*
X1011431Y621503I1029J1029D01*
G01*
X1008492Y624442D02*
G03*
X1008492Y622385I1029J-1029D01*
G01*
X1018054Y634004D02*
G03*
X1018054Y636061I-1029J1029D01*
G01*
X1017172Y636943D02*
G03*
X1015115Y636943I-1029J-1029D01*
G01*
X1010110Y635302D02*
G03*
X1013474Y635302I1682J1682D01*
G01*
X1050213Y755573D02*
G03*
X1050213Y752209I1682J-1682D01*
G01*
X1056440Y743925D02*
G03*
X1056440Y745982I-1029J1029D01*
G01*
X1053501Y743043D02*
G03*
X1055558Y743043I1029J1029D01*
G01*
X1047274Y749270D02*
G03*
X1043910Y749270I-1682J-1682D01*
G01*
X1122130Y754380D02*
G03*
X1119751Y752002I0J-2378D01*
G01*
X1118296Y747985D02*
G03*
X1119751Y749440I0J1455D01*
G01*
X1115595D02*
G03*
X1117049Y747985I1455J0D01*
G01*
X1115595Y755290D02*
G03*
X1114140Y756745I-1455J0D01*
G01*
X1112893D02*
G03*
X1111438Y755290I0J-1455D01*
G01*
X1109984Y748322D02*
G03*
X1111438Y749776I0J1455D01*
G01*
X1107282D02*
G03*
X1108737Y748322I1455J0D01*
G01*
X1107282Y755290D02*
G03*
X1105827Y756745I-1455J0D01*
G01*
X1104580D02*
G03*
X1103126Y755290I0J-1455D01*
G01*
X1101671Y748322D02*
G03*
X1103126Y749776I0J1455D01*
G01*
X1098969D02*
G03*
X1100424Y748322I1455J0D01*
G01*
X1098969Y755290D02*
G03*
X1097514Y756745I-1455J0D01*
G01*
X1096267D02*
G03*
X1094813Y755290I0J-1455D01*
G01*
X1093358Y748322D02*
G03*
X1094813Y749776I0J1455D01*
G01*
X1090656D02*
G03*
X1092111Y748322I1455J0D01*
G01*
X1090656Y755290D02*
G03*
X1089201Y756745I-1455J0D01*
G01*
X1087954D02*
G03*
X1086500Y755290I0J-1455D01*
G01*
X1085045Y747985D02*
G03*
X1086500Y749440I0J1455D01*
G01*
X1082343D02*
G03*
X1083798Y747985I1455J0D01*
G01*
X1082343Y755290D02*
G03*
X1080889Y756745I-1455J0D01*
G01*
X1079642D02*
G03*
X1078187Y755290I0J-1455D01*
G01*
X1076732Y747985D02*
G03*
X1078187Y749440I0J1455D01*
G01*
X1074030D02*
G03*
X1075485Y747985I1455J0D01*
G01*
X1074030Y752002D02*
G03*
X1071652Y754380I-2378J0D01*
G01*
X1117624Y739473D02*
G03*
X1115245Y737095I0J-2378D01*
G01*
X1113791Y726125D02*
G03*
X1115245Y727580I0J1455D01*
G01*
X1111089D02*
G03*
X1112544Y726125I1455J0D01*
G01*
X1111089Y743136D02*
G03*
X1109634Y744590I-1455J0D01*
G01*
X1108387D02*
G03*
X1106932Y743136I0J-1455D01*
G01*
X1105478Y725095D02*
G03*
X1106932Y726550I0J1455D01*
G01*
X1102776D02*
G03*
X1104231Y725095I1455J0D01*
G01*
X1102776Y743136D02*
G03*
X1101321Y744590I-1455J0D01*
G01*
X1100074D02*
G03*
X1098620Y743136I0J-1455D01*
G01*
X1097165Y725095D02*
G03*
X1098620Y726550I0J1455D01*
G01*
X1094463D02*
G03*
X1095918Y725095I1455J0D01*
G01*
X1094463Y743136D02*
G03*
X1093008Y744590I-1455J0D01*
G01*
X1091761D02*
G03*
X1090307Y743136I0J-1455D01*
G01*
X1089579Y739059D02*
G03*
X1090307Y740815I-1756J1756D01*
G01*
X1077651Y721115D02*
G03*
X1077651Y724479I-1682J1682D01*
G01*
X1075597Y719062D02*
G03*
X1075597Y717004I1029J-1029D01*
G01*
X1076479Y716123D02*
G03*
X1078536Y716123I1029J1029D01*
G01*
X1083954Y718176D02*
G03*
X1080590Y718176I-1682J-1682D01*
G01*
X889259Y577850D02*
X930910D01*
X889259Y694436D02*
X901862D01*
X983324Y692065D02*
X987390Y687999D01*
X987933Y713529D02*
Y745482D01*
X983324Y708921D02*
X987933Y713529D01*
X983324Y692065D02*
Y708921D01*
X898652Y622586D02*
X911828Y635762D01*
X898652Y617220D02*
Y622586D01*
X905437Y648462D02*
X939800D01*
X902643Y645668D02*
X905437Y648462D01*
X902462Y645668D02*
X902643D01*
X901862Y694436D02*
X904485Y691813D01*
X912705D02*
X925324Y679194D01*
X904485Y691813D02*
X912705D01*
X909736Y695544D02*
X926754D01*
X900430Y704850D02*
X909736Y695544D01*
X900430Y704850D02*
Y716280D01*
X925324Y679194D02*
X973451D01*
X974977Y680720D01*
X988827D01*
X991186Y678361D01*
Y673326D02*
Y678361D01*
X983671Y662249D02*
X988194D01*
X993545Y667599D02*
Y670967D01*
X1007490Y668460D02*
Y672852D01*
X988194Y662249D02*
X993545Y667599D01*
X1001007Y669202D02*
Y674058D01*
X999795Y675270D02*
X1001007Y674058D01*
X1004308Y676034D02*
X1007490Y672852D01*
X999795Y675270D02*
Y685906D01*
X1007490Y668460D02*
X1007609Y668341D01*
X997276Y667657D02*
X1004868Y660064D01*
X1001007Y669202D02*
X1006414Y663795D01*
X995502Y674286D02*
X997276Y672513D01*
X1004308Y676034D02*
Y679695D01*
X991186Y673326D02*
X993545Y670967D01*
X995502Y674286D02*
Y682299D01*
X997276Y667657D02*
Y672513D01*
X979170Y666750D02*
X983671Y662249D01*
X991664Y686138D02*
Y715470D01*
Y686138D02*
X995502Y682299D01*
X926754Y695544D02*
X938530Y683768D01*
X952024D01*
X944965Y692439D02*
X967557D01*
X918210Y711200D02*
X940908Y688502D01*
X933450Y703954D02*
X944965Y692439D01*
X940908Y688502D02*
X948245D01*
X952024Y683768D02*
X956123Y687867D01*
X949803Y717673D02*
Y751997D01*
Y717673D02*
X951196Y716280D01*
X991664Y715470D02*
X1053179Y776986D01*
X1084954D01*
X962660Y741680D02*
Y750570D01*
X959327Y700669D02*
Y738347D01*
X962660Y741680D01*
X958850Y754380D02*
X962660Y750570D01*
X967486Y700548D02*
X972036Y695999D01*
X967486Y718566D02*
X970280Y721360D01*
X967486Y700548D02*
Y718566D01*
X959327Y700669D02*
X963491Y696505D01*
X918210Y711200D02*
Y748030D01*
X900430Y745145D02*
X907355Y738220D01*
Y710280D02*
Y738220D01*
Y710280D02*
X915325Y702310D01*
X909320Y619760D02*
Y625252D01*
X999490Y643491D02*
X1003998Y647999D01*
X1104203Y687256D02*
Y696279D01*
X1103122Y686175D02*
X1104203Y687256D01*
X1103122Y685994D02*
Y686175D01*
X909320Y625252D02*
X913988Y629920D01*
X947420Y754380D02*
X949803Y751997D01*
X951196Y701307D02*
Y716280D01*
X970152Y749426D02*
X970280Y749298D01*
Y721360D02*
Y749298D01*
X952580Y667940D02*
X956310Y664210D01*
X900430Y745145D02*
Y750570D01*
X1076747Y764540D02*
X1132838D01*
X1071753D02*
X1076747D01*
X1069375Y766918D02*
Y769653D01*
X1066673Y771107D02*
X1067920D01*
X1065219Y765662D02*
Y769653D01*
X1062517Y764207D02*
X1063764D01*
X1061062Y765662D02*
Y769653D01*
X1058361Y771107D02*
X1059607D01*
X1056906Y766918D02*
Y769653D01*
X1053338Y764540D02*
X1054527D01*
X1103884Y774446D02*
X1118081D01*
X1101344Y776986D02*
X1103884Y774446D01*
X1099213Y776986D02*
X1101344D01*
X1096834Y774607D02*
Y774608D01*
X1094133Y773153D02*
X1095380D01*
X1092678Y774607D02*
Y779366D01*
X1089976Y780820D02*
X1091223D01*
X1088522Y779364D02*
Y779366D01*
X1084954Y776986D02*
X1086143D01*
X1118081Y774446D02*
X1120394D01*
X1050290Y764540D02*
X1053338D01*
X1031867Y746116D02*
X1050290Y764540D01*
X1120394Y774446D02*
X1125220Y769620D01*
X1003998Y655999D02*
X1008126Y651871D01*
X1026148Y655999D02*
X1026279Y655868D01*
X1030121D01*
X1034548Y656717D02*
X1035870D01*
X1008126Y637286D02*
Y651871D01*
X1035870Y656717D02*
X1035998Y656589D01*
X1004868Y660064D02*
X1031201D01*
X1019998Y655999D02*
X1026148D01*
X1031201Y660064D02*
X1034548Y656717D01*
X915325Y702310D02*
X919480D01*
X967557Y692439D02*
X971998Y687999D01*
X930910Y577850D02*
X987806Y634746D01*
Y639826D01*
X970152Y749426D02*
Y754252D01*
X970280Y754380D01*
X935990Y749300D02*
Y754380D01*
Y749300D02*
X943610Y741680D01*
Y706287D02*
Y741680D01*
X913988Y629920D02*
X953919D01*
X909826Y644396D02*
X941484D01*
X902970Y652780D02*
X935990D01*
X889000Y656590D02*
X900686Y668276D01*
X950374D02*
X950710Y667940D01*
X952580D01*
X900686Y668276D02*
X950374D01*
X939077Y655867D02*
X947838D01*
X956307Y656438D02*
X956310D01*
X951670Y651801D02*
X956307Y656438D01*
X945259Y651801D02*
X951670D01*
X956123Y687867D02*
X963998D01*
X987933Y745482D02*
X993140Y750690D01*
X1000760Y686870D02*
Y707034D01*
X998836Y708958D02*
X1000760Y707034D01*
X999795Y685906D02*
X1000760Y686870D01*
X998836Y708958D02*
Y713085D01*
X1026552Y740802D02*
X1031867Y746116D01*
X1026552Y737439D02*
X1027935Y736056D01*
X1027935Y736056D02*
X1027935Y736056D01*
X1027053Y733117D02*
X1027935Y733999D01*
X1024996Y733117D02*
X1024996Y733117D01*
X1023613Y734500D02*
X1024996Y733117D01*
X1023613Y734500D02*
X1023613Y734500D01*
X1008918Y723168D02*
X1020250Y734500D01*
X1008918Y719805D02*
X1010301Y718422D01*
X1010301Y718422D02*
X1010301Y718422D01*
X1009419Y715483D02*
X1010301Y716365D01*
X1007361Y715483D02*
X1007362Y715483D01*
X1005979Y716865D02*
X1007362Y715483D01*
X1005979Y716865D02*
X1005979Y716865D01*
X998836Y713085D02*
X1002616Y716865D01*
X933450Y703954D02*
Y712470D01*
X1006414Y663795D02*
X1036958D01*
X941484Y644396D02*
X943866Y646778D01*
Y650408D01*
X945259Y651801D01*
X947870Y644961D02*
Y647607D01*
X944880Y638302D02*
Y641971D01*
X947870Y647607D02*
X947998Y647735D01*
X944880Y641971D02*
X947870Y644961D01*
X935990Y652780D02*
X939077Y655867D01*
X924560Y721360D02*
Y751840D01*
Y721360D02*
X933450Y712470D01*
X948245Y688502D02*
X948373Y688374D01*
X943064Y702373D02*
X943610Y701827D01*
X943064Y705741D02*
X943610Y706287D01*
X943064Y702373D02*
Y705741D01*
X943610Y700893D02*
Y701827D01*
Y700893D02*
X947998Y696505D01*
X951196Y701307D02*
X955998Y696505D01*
X911828Y635762D02*
X942340D01*
X944880Y638302D01*
X953919Y629920D02*
X960064Y636064D01*
Y641624D01*
X960120Y641680D01*
Y643890D01*
X963930Y647700D01*
X1008383Y677866D02*
X1018011Y668238D01*
X1013968Y689355D02*
X1018279D01*
X1004308Y679695D02*
X1013968Y689355D01*
X1072124Y684783D02*
X1087121D01*
X1093216Y678688D02*
X1102106D01*
X1087121Y684783D02*
X1093216Y678688D01*
X1099184Y682882D02*
X1099312Y682754D01*
X1093597Y687705D02*
X1098420Y682882D01*
X1099184D01*
X1102106Y678688D02*
X1109139Y685721D01*
Y703509D01*
X1154166Y725616D02*
X1154167D01*
X1163946Y726060D02*
X1163954D01*
X1018279Y689355D02*
X1026153Y697230D01*
X1059485D01*
X1063430Y693284D01*
X1135312Y729682D02*
X1160323D01*
X1163946Y726060D01*
X1109139Y703509D02*
X1135312Y729682D01*
X1063430Y693284D02*
X1063623D01*
X1072124Y684783D01*
X1154167Y725616D02*
X1160709Y719074D01*
X1166148D01*
X1019556Y697230D02*
X1023874Y701548D01*
X1156142Y690878D02*
X1170178Y704915D01*
Y715044D01*
X1155680Y690878D02*
X1156142D01*
X1085850Y724128D02*
Y735330D01*
X1085736Y724014D02*
X1085850Y724128D01*
X977272Y633560D02*
Y636912D01*
X974598Y630886D02*
X977272Y633560D01*
X974598Y630704D02*
Y630886D01*
X977272Y636912D02*
X979932Y639572D01*
X1057003Y661052D02*
X1073167D01*
X1055166Y662890D02*
X1056007Y662049D01*
X1052529Y665527D02*
X1055166Y662890D01*
X1052529Y668891D02*
X1053032Y669394D01*
X1052150Y672333D02*
X1053032Y671451D01*
X1049590Y671830D02*
X1050093Y672333D01*
X1046226Y671830D02*
X1046226Y671830D01*
X1046226Y671830D02*
X1046226Y671830D01*
X1045464Y672592D02*
X1046226Y671830D01*
X1045306Y672592D02*
X1045464D01*
X1056007Y662049D02*
X1057003Y661052D01*
X1031494Y672592D02*
X1045306D01*
X1099181Y645029D02*
X1110996Y656844D01*
Y661924D02*
X1129284Y680212D01*
X1110996Y656844D02*
Y661924D01*
X1082403Y651816D02*
X1091745D01*
X1102840Y662912D02*
X1105939Y666011D01*
X1102840Y659549D02*
X1102840Y659549D01*
X1104323Y658066D01*
X1103442Y655127D02*
X1104323Y656009D01*
X1095558Y660953D02*
X1101384Y655127D01*
X1095558Y660953D02*
X1095558Y660953D01*
X1092619Y660071D02*
X1093501Y660953D01*
X1092619Y658014D02*
X1092619Y658014D01*
X1093599Y657034D01*
X1093599Y657034D02*
X1093599Y657034D01*
X1092758Y652830D02*
X1093599Y653671D01*
X1091745Y651816D02*
X1092758Y652830D01*
X1105939Y666011D02*
X1122934Y683006D01*
Y687070D02*
X1133602Y697738D01*
X1122934Y683006D02*
Y687070D01*
X1129284Y680212D02*
Y686562D01*
X1133600Y690878D01*
X1133602Y697738D02*
Y700532D01*
X1131570Y702564D02*
X1133602Y700532D01*
X1128009Y702564D02*
X1131570D01*
X1123691Y698246D02*
X1128009Y702564D01*
X1130509Y651466D02*
Y670770D01*
X1134401Y674661D02*
Y684402D01*
X1130509Y670770D02*
X1134401Y674661D01*
Y684402D02*
X1134529Y684530D01*
X1092756Y688546D02*
X1093597Y687705D01*
X1088675Y692627D02*
X1092756Y688546D01*
X1088675Y692627D02*
X1088675Y692627D01*
X1082428Y689743D02*
X1085312Y692627D01*
X1080371Y689743D02*
X1080371Y689743D01*
X1079489Y690625D02*
X1080371Y689743D01*
X1079489Y690625D02*
X1079489Y690625D01*
Y692682D02*
X1085037Y698231D01*
X1084156Y701170D02*
X1085037Y700288D01*
X1082098Y701170D02*
Y701170D01*
X1072589Y691661D02*
X1082098Y701170D01*
X1070532Y691661D02*
X1070532Y691661D01*
X1069650Y692542D02*
X1070532Y691661D01*
X1069650Y692542D02*
X1069650Y692542D01*
Y694600D02*
Y694600D01*
X1077521Y702470D01*
X1076639Y705409D02*
X1077521Y704528D01*
X1074582Y705409D02*
Y705409D01*
X1066615Y697442D02*
X1074582Y705409D01*
X1064557Y697442D02*
X1064557Y697442D01*
X1063676Y698324D02*
X1064557Y697442D01*
X1063676Y698324D02*
X1063676Y698324D01*
Y700381D02*
Y700381D01*
X1070616Y707322D01*
X1070616Y710686D02*
X1070616Y710686D01*
X1067677Y713625D02*
X1070616Y710686D01*
X1066836Y714466D02*
X1067677Y713625D01*
X1061974Y719328D02*
X1066836Y714466D01*
X1028446Y719328D02*
X1061974D01*
X1060281Y727044D02*
X1081395Y705929D01*
X1086772D01*
X1040130Y727044D02*
X1060281D01*
X1056132Y708406D02*
X1060704Y712978D01*
X1047611Y708406D02*
X1056132D01*
X1086772Y705929D02*
X1090741Y709898D01*
X1133600Y690878D02*
X1135131D01*
X1024033Y724821D02*
X1030478Y731266D01*
X1020376Y725114D02*
X1020669Y724821D01*
X1017437Y724232D02*
X1018319Y725114D01*
X1017437Y722175D02*
X1017730Y721882D01*
X1017730Y721882D02*
X1017730Y721882D01*
X1016889Y717677D02*
X1017730Y718518D01*
X1011998Y712786D02*
X1016889Y717677D01*
X1035908Y731266D02*
X1040130Y727044D01*
X1030478Y731266D02*
X1035908D01*
X1023874Y701548D02*
Y714756D01*
X1028446Y719328D01*
X1011998Y703998D02*
Y712786D01*
X1043201Y703996D02*
X1047611Y708406D01*
X1038860Y735330D02*
X1043415Y730775D01*
X1038860Y735330D02*
Y744220D01*
X1043415Y730775D02*
X1071355D01*
X1085088Y709995D02*
Y716613D01*
X1095719Y708603D02*
X1103847Y716730D01*
X1095719Y704763D02*
Y708603D01*
X1099313Y721364D02*
X1102083D01*
X1103847Y716730D02*
Y719600D01*
X1095719Y704763D02*
X1104203Y696279D01*
X1090741Y712792D02*
X1099313Y721364D01*
X1071355Y730775D02*
X1073150Y728980D01*
X1090741Y709898D02*
Y712792D01*
X1102083Y721364D02*
X1103847Y719600D01*
X1084580Y717121D02*
X1085088Y716613D01*
X1145233Y690878D02*
X1155680D01*
X1142855Y693257D02*
Y698388D01*
X1140153Y699842D02*
X1141400D01*
X1138699Y693257D02*
Y698388D01*
X1135131Y690878D02*
X1136320D01*
X1166148Y719074D02*
X1170178Y715044D01*
X1064006Y657098D02*
X1070356Y650748D01*
X1052830Y657098D02*
X1064006D01*
X1041690Y668238D02*
X1052830Y657098D01*
X1070356Y650748D02*
X1077722D01*
X1025144Y678942D02*
X1031494Y672592D01*
X1018011Y668238D02*
X1041690D01*
X1073167Y661052D02*
X1082403Y651816D01*
X1036958Y663795D02*
X1044223Y656529D01*
X1077989Y636270D02*
X1083751D01*
X1075610Y629954D02*
Y633892D01*
X1072908Y628499D02*
X1074155D01*
X1071454Y629954D02*
Y639843D01*
X1068752Y641298D02*
X1069999D01*
X1067297Y627740D02*
Y639843D01*
X1064595Y626285D02*
X1065843D01*
X1063141Y627740D02*
Y634566D01*
X1060439Y636021D02*
X1061686D01*
X1058984Y627740D02*
Y634566D01*
X1056283Y626285D02*
X1057530D01*
X1054828Y627740D02*
Y634812D01*
X1052126Y636266D02*
X1053373D01*
X1050671Y627740D02*
Y634812D01*
X1047970Y626285D02*
X1049217D01*
X1046515Y627740D02*
Y634746D01*
X1043813Y636201D02*
X1045060D01*
X1042359Y627740D02*
Y634746D01*
X1039657Y626285D02*
X1040904D01*
X1038202Y627740D02*
Y632114D01*
X1030478Y634492D02*
X1035824D01*
X1083751Y636270D02*
X1100328D01*
X1027176Y634492D02*
X1030478D01*
X1034485Y622554D02*
X1040384D01*
X1032106Y624932D02*
Y627648D01*
X1029405Y629103D02*
X1030651D01*
X1027950Y624932D02*
Y627648D01*
X1024382Y622554D02*
X1025571D01*
X1040384D02*
X1101598D01*
X1022858D02*
X1024382D01*
X1022779Y622633D02*
X1022858Y622554D01*
X1019352Y626060D02*
X1022779Y622633D01*
X1019352Y626060D02*
X1019352Y626060D01*
X1011431Y621503D02*
X1015988Y626060D01*
X1009373Y621503D02*
X1009373Y621503D01*
X1008492Y622385D02*
X1009373Y621503D01*
X1008492Y622385D02*
X1008492Y622385D01*
Y624442D02*
Y624442D01*
X1018054Y634004D01*
X1017172Y636943D02*
X1018054Y636061D01*
X1015115Y636943D02*
Y636943D01*
X1013474Y635302D02*
X1015115Y636943D01*
X1010110Y635302D02*
X1010110Y635302D01*
X1009269Y636143D02*
X1010110Y635302D01*
X1008126Y637286D02*
X1009269Y636143D01*
X1023664Y638004D02*
X1027176Y634492D01*
X1101598Y622554D02*
X1130509Y651466D01*
X1023664Y638004D02*
Y644332D01*
X1015238Y610362D02*
X1114044D01*
X1139998Y636316D01*
X999490Y626110D02*
X1015238Y610362D01*
X999490Y626110D02*
Y643491D01*
X1139998Y636316D02*
Y679999D01*
X1116318Y652260D02*
Y657340D01*
X1116330Y657352D01*
X1100328Y636270D02*
X1116318Y652260D01*
X1069213Y645029D02*
X1099181D01*
X1061843Y652399D02*
X1069213Y645029D01*
X1047395Y652399D02*
X1061843D01*
X1030121Y655868D02*
X1033656Y652333D01*
X1047330D01*
X1047395Y652399D01*
X979932Y639572D02*
Y647954D01*
X1050213Y755573D02*
X1053618Y758978D01*
X1050213Y752209D02*
X1056440Y745982D01*
X1055558Y743043D02*
X1056440Y743925D01*
X1047274Y749270D02*
X1053501Y743043D01*
X1047274Y749270D02*
X1047274Y749270D01*
X1040130Y745490D02*
X1043910Y749270D01*
X1053618Y758978D02*
X1055116Y760476D01*
X1139520D01*
X1062990Y750570D02*
X1066306Y753886D01*
X1122130Y754380D02*
X1127507D01*
X1119751Y749440D02*
Y752002D01*
X1117049Y747985D02*
X1118296D01*
X1115595Y749440D02*
Y755290D01*
X1112893Y756745D02*
X1114140D01*
X1111438Y749776D02*
Y755290D01*
X1108737Y748322D02*
X1109984D01*
X1107282Y749776D02*
Y755290D01*
X1104580Y756745D02*
X1105827D01*
X1103126Y749776D02*
Y755290D01*
X1100424Y748322D02*
X1101671D01*
X1098969Y749776D02*
Y755290D01*
X1096267Y756745D02*
X1097514D01*
X1094813Y749776D02*
Y755290D01*
X1092111Y748322D02*
X1093358D01*
X1090656Y749776D02*
Y755290D01*
X1087954Y756745D02*
X1089201D01*
X1086500Y749440D02*
Y755290D01*
X1083798Y747985D02*
X1085045D01*
X1082343Y749440D02*
Y755290D01*
X1079642Y756745D02*
X1080889D01*
X1078187Y749440D02*
Y755290D01*
X1075485Y747985D02*
X1076732D01*
X1074030Y749440D02*
Y752002D01*
X1066800Y754380D02*
X1071652D01*
X1066306Y753886D02*
X1066800Y754380D01*
X1127507D02*
X1135380D01*
X1019998Y647999D02*
X1023664Y644332D01*
X1132838Y764540D02*
X1132840Y764542D01*
X1139520Y760476D02*
X1154998Y744999D01*
X1117624Y739473D02*
X1122676D01*
X1115245Y727580D02*
Y737095D01*
X1112544Y726125D02*
X1113791D01*
X1111089Y727580D02*
Y743136D01*
X1108387Y744590D02*
X1109634D01*
X1106932Y726550D02*
Y743136D01*
X1104231Y725095D02*
X1105478D01*
X1102776Y726550D02*
Y743136D01*
X1100074Y744590D02*
X1101321D01*
X1098620Y726550D02*
Y743136D01*
X1095918Y725095D02*
X1097165D01*
X1094463Y726550D02*
Y743136D01*
X1091761Y744590D02*
X1093008D01*
X1090307Y740815D02*
Y743136D01*
X1088390Y737870D02*
X1089579Y739059D01*
X1085850Y735330D02*
X1088390Y737870D01*
X1075055Y735965D02*
X1080642Y730378D01*
X1062990Y740410D02*
Y750570D01*
Y740410D02*
X1067435Y735965D01*
X1075055D01*
X1038860Y744220D02*
X1040130Y745490D01*
X1132840Y740410D02*
X1136650D01*
X1139190Y742950D02*
Y750570D01*
X1136650Y740410D02*
X1139190Y742950D01*
X1130300D02*
Y745490D01*
Y742950D02*
X1132840Y740410D01*
X1135380Y754380D02*
X1139190Y750570D01*
X1073150Y728980D02*
X1073991Y728139D01*
X1077651Y724479D01*
X1077651Y724479D02*
X1077651Y724479D01*
X1075597Y719062D02*
X1077651Y721115D01*
X1075597Y719062D02*
Y719062D01*
X1075597Y717004D02*
X1075597Y717004D01*
X1076479Y716123D01*
X1076479Y716123D02*
X1076479Y716123D01*
X1078536D02*
X1080590Y718176D01*
X1083953Y718176D02*
X1083954Y718176D01*
X1083954Y718176D01*
Y718176D02*
X1084580Y717550D01*
Y717121D02*
Y717550D01*
X1139998Y679999D02*
X1144529Y684530D01*
D271*
X1052649Y689559D02*
G03*
X1053748Y686914I3733J0D01*
G01*
X1052649Y690028D02*
G03*
X1051595Y691081I-1053J0D01*
G01*
X1050693D02*
G03*
X1049639Y690028I0J-1053D01*
G01*
X1046085Y683847D02*
G03*
X1049639Y687402I0J3555D01*
G01*
X1041627D02*
G03*
X1045182Y683847I3555J0D01*
G01*
X1041627Y690517D02*
G03*
X1040574Y691571I-1053J0D01*
G01*
X1039671D02*
G03*
X1038617Y690517I0J-1053D01*
G01*
X1034885Y686745D02*
G03*
X1038617Y690478I0J3733D01*
G01*
X1055150Y689559D02*
G03*
X1055511Y688689I1231J0D01*
G01*
X1055150Y690028D02*
G03*
X1051595Y693583I-3555J0D01*
G01*
X1050693D02*
G03*
X1047138Y690028I0J-3555D01*
G01*
X1046085Y686349D02*
G03*
X1047138Y687402I0J1053D01*
G01*
X1044128D02*
G03*
X1045182Y686349I1053J0D01*
G01*
X1044128Y690517D02*
G03*
X1040574Y694072I-3555J0D01*
G01*
X1039671D02*
G03*
X1036116Y690517I0J-3555D01*
G01*
X1034885Y689247D02*
G03*
X1036116Y690478I0J1231D01*
G01*
X1087562Y674222D02*
G03*
X1088794Y672990I1231J0D01*
G01*
X1087562Y676756D02*
G03*
X1084008Y680311I-3555J0D01*
G01*
X1083105D02*
G03*
X1079550Y676756I0J-3555D01*
G01*
X1078319Y672990D02*
G03*
X1079550Y674222I0J1231D01*
G01*
X1140774Y716963D02*
G03*
X1142006Y715731I1231J0D01*
G01*
X1140774Y719837D02*
G03*
X1137219Y723391I-3555J0D01*
G01*
X1136317D02*
G03*
X1132762Y719837I0J-3555D01*
G01*
X1131531Y715731D02*
G03*
X1132762Y716963I0J1231D01*
G01*
X1070940Y679015D02*
G03*
X1070940Y680505I-745J745D01*
G01*
X1070302Y681143D02*
G03*
X1068812Y681143I-745J-745D01*
G01*
X1070593Y678668D02*
G03*
X1070593Y676927I871J-871D01*
G01*
X1066724Y680796D02*
G03*
X1068465Y680796I871J871D01*
G01*
X1085061Y674222D02*
G03*
X1088794Y670489I3733J0D01*
G01*
X1085061Y676756D02*
G03*
X1084008Y677809I-1053J0D01*
G01*
X1083105D02*
G03*
X1082051Y676756I0J-1053D01*
G01*
X1078319Y670489D02*
G03*
X1082051Y674222I0J3733D01*
G01*
X1138273Y716963D02*
G03*
X1142006Y713230I3733J0D01*
G01*
X1138273Y719837D02*
G03*
X1137219Y720890I-1053J0D01*
G01*
X1136317D02*
G03*
X1135263Y719837I0J-1053D01*
G01*
X1131531Y713230D02*
G03*
X1135263Y716963I0J3733D01*
G01*
X1168071Y785463D02*
G03*
X1168942Y785102I871J871D01*
G01*
X1172497Y781547D02*
G03*
X1168942Y785102I-3555J0D01*
G01*
Y777090D02*
G03*
X1172497Y780644I0J3555D01*
G01*
X1165841Y777090D02*
G03*
X1164787Y776036I0J-1053D01*
G01*
Y775134D02*
G03*
X1165841Y774080I1053J0D01*
G01*
X1172625Y770526D02*
G03*
X1169070Y774080I-3555J0D01*
G01*
Y766068D02*
G03*
X1172625Y769623I0J3555D01*
G01*
X1164425Y766068D02*
G03*
X1163372Y765015I0J-1053D01*
G01*
Y764112D02*
G03*
X1164425Y763058I1053J0D01*
G01*
X1172267Y759504D02*
G03*
X1168713Y763058I-3555J0D01*
G01*
Y755046D02*
G03*
X1172267Y758601I0J3555D01*
G01*
X1162415Y755046D02*
G03*
X1161362Y753993I0J-1053D01*
G01*
Y753090D02*
G03*
X1162415Y752037I1053J0D01*
G01*
X1167091Y748304D02*
G03*
X1163359Y752037I-3733J0D01*
G01*
X1166297Y783699D02*
G03*
X1168942Y782600I2645J2634D01*
G01*
X1169996Y781547D02*
G03*
X1168942Y782600I-1053J0D01*
G01*
Y779591D02*
G03*
X1169996Y780644I0J1053D01*
G01*
X1165841Y779591D02*
G03*
X1162286Y776036I0J-3555D01*
G01*
Y775134D02*
G03*
X1165841Y771579I3555J0D01*
G01*
X1170123Y770526D02*
G03*
X1169070Y771579I-1053J0D01*
G01*
Y768569D02*
G03*
X1170123Y769623I0J1053D01*
G01*
X1164425Y768569D02*
G03*
X1160870Y765015I0J-3555D01*
G01*
Y764112D02*
G03*
X1164425Y760557I3555J0D01*
G01*
X1169766Y759504D02*
G03*
X1168713Y760557I-1053J0D01*
G01*
Y757548D02*
G03*
X1169766Y758601I0J1053D01*
G01*
X1162415Y757548D02*
G03*
X1158860Y753993I0J-3555D01*
G01*
Y753090D02*
G03*
X1162415Y749535I3555J0D01*
G01*
X1164590Y748304D02*
G03*
X1163359Y749535I-1231J0D01*
G01*
X1151248Y779096D02*
G03*
X1152480Y777865I1231J0D01*
G01*
X1156176Y776812D02*
G03*
X1155122Y777865I-1053J0D01*
G01*
Y774855D02*
G03*
X1156176Y775909I0J1053D01*
G01*
X1152480Y774855D02*
G03*
X1151248Y773624I0J-1231D01*
G01*
X973346Y674624D02*
X976285Y677562D01*
X981807Y675061D02*
X984801Y672067D01*
X920730Y672123D02*
X974383D01*
X976285Y677562D02*
X982843D01*
X974383Y672123D02*
X977321Y675061D01*
X981807D01*
X982843Y677562D02*
X987302Y673103D01*
X921766Y674624D02*
X973346D01*
X984801Y671047D02*
Y672067D01*
X989066Y669283D02*
X989479D01*
X983115Y669477D02*
X983965Y670326D01*
X984079D01*
X987302Y671047D02*
Y673103D01*
X984079Y670326D02*
X984801Y671047D01*
X987302D02*
X989066Y669283D01*
X982624Y669477D02*
X983115D01*
X908684Y684168D02*
X920730Y672123D01*
X909720Y686670D02*
X921766Y674624D01*
X903878Y684168D02*
X908684D01*
X903878Y686670D02*
X909720D01*
X1084749Y658384D02*
Y661235D01*
X1040350Y680849D02*
X1041847Y679352D01*
X1035658Y680849D02*
X1040350D01*
X1041847Y679352D02*
X1051633D01*
X1034937Y680128D02*
X1035658Y680849D01*
X1034937Y679108D02*
Y680128D01*
X1066737Y664248D02*
X1081735D01*
X1051633Y679352D02*
X1066737Y664248D01*
X1081735D02*
X1084749Y661235D01*
X1084685Y658321D02*
X1084749Y658384D01*
X1041387Y683351D02*
X1042884Y681854D01*
X1034622Y683351D02*
X1041387D01*
X1032993Y681722D02*
X1034622Y683351D01*
X1042884Y681854D02*
X1052669D01*
X1031973Y681722D02*
X1032993D01*
X1089596Y663003D02*
X1089660Y662940D01*
X1086518Y663003D02*
X1089596D01*
X1067773Y666750D02*
X1082771D01*
X1052669Y681854D02*
X1067773Y666750D01*
X1082771D02*
X1086518Y663003D01*
X901700Y688848D02*
X903878Y686670D01*
X901700Y681990D02*
X903878Y684168D01*
X1063770Y680212D02*
X1064260Y679722D01*
X1060450Y680212D02*
X1063770D01*
X1053748Y686914D02*
X1060450Y680212D01*
X1052649Y689559D02*
Y690028D01*
X1050693Y691081D02*
X1051595D01*
X1049639Y687402D02*
Y690028D01*
X1045182Y683847D02*
X1046085D01*
X1041627Y687402D02*
Y690517D01*
X1039671Y691571D02*
X1040574D01*
X1038617Y690478D02*
Y690517D01*
X1033018Y686745D02*
X1034885D01*
X1061486Y682713D02*
X1064260D01*
X1055511Y688689D02*
X1061486Y682713D01*
X1055150Y689559D02*
Y690028D01*
X1050693Y693583D02*
X1051595D01*
X1047138Y687402D02*
Y690028D01*
X1045182Y686349D02*
X1046085D01*
X1044128Y687402D02*
Y690517D01*
X1039671Y694072D02*
X1040574D01*
X1036116Y690478D02*
Y690517D01*
X1033018Y689247D02*
X1034885D01*
X1064260Y679722D02*
X1073493Y670489D01*
X1028008Y686745D02*
X1033018D01*
X1064260Y682713D02*
X1064807D01*
X1026972Y689247D02*
X1033018D01*
X1144502Y715731D02*
X1146574D01*
X1151248Y711057D01*
Y707511D02*
Y711057D01*
X1148747Y705720D02*
Y710021D01*
X1145538Y713230D02*
X1148747Y710021D01*
X1151248Y705720D02*
Y706778D01*
X1154998Y704999D02*
X1154998Y704999D01*
X1151248Y705720D02*
X1151970Y704999D01*
X1154998D01*
X1088794Y672990D02*
X1094994D01*
X1087562Y674222D02*
Y676756D01*
X1083105Y680311D02*
X1084008D01*
X1079550Y674222D02*
Y676756D01*
X1076452Y672990D02*
X1078319D01*
X1094994D02*
X1104301D01*
X1074529D02*
X1076452D01*
X1140774Y716963D02*
Y719837D01*
X1142006Y715731D02*
X1144502D01*
X1136317Y723391D02*
X1137219D01*
X1132762Y716963D02*
Y719837D01*
X1129664Y715731D02*
X1131531D01*
X1128754D02*
X1129664D01*
X1115099Y702076D02*
X1128754Y715731D01*
X1115099Y683788D02*
Y702076D01*
X1104301Y672990D02*
X1115099Y683788D01*
X1072981Y674539D02*
X1074529Y672990D01*
X1021190Y683464D02*
X1026972Y689247D01*
X1018538Y684335D02*
X1019409Y683464D01*
X1021190D01*
X1018047Y684335D02*
X1018538D01*
X1070593Y678668D02*
X1070940Y679015D01*
X1070302Y681143D02*
X1070940Y680505D01*
X1070593Y676927D02*
X1072546Y674974D01*
X1072981Y674539D01*
X1068812Y681143D02*
Y681143D01*
X1066288Y681232D02*
X1066724Y680796D01*
X1064807Y682713D02*
X1066288Y681232D01*
X1068465Y680796D02*
X1068812Y681143D01*
X1066724Y680796D02*
X1066724Y680796D01*
X1144998Y704999D02*
X1148026D01*
X1148747Y705720D01*
X1144998Y704999D02*
X1144998Y704999D01*
X1088794Y670489D02*
X1094994D01*
X1085061Y674222D02*
Y676756D01*
X1083105Y677809D02*
X1084008D01*
X1082051Y674222D02*
Y676756D01*
X1076452Y670489D02*
X1078319D01*
X1073493D02*
X1076452D01*
X1094994D02*
X1105337D01*
X1138273Y716963D02*
Y719837D01*
X1142006Y713230D02*
X1145538D01*
X1136317Y720890D02*
X1137219D01*
X1135263Y716963D02*
Y719837D01*
X1129790Y713230D02*
X1131531D01*
X1129664Y713104D02*
X1129790Y713230D01*
X1117600Y701040D02*
X1129664Y713104D01*
X1117600Y682752D02*
Y701040D01*
X1105337Y670489D02*
X1117600Y682752D01*
X1022226Y680963D02*
X1028008Y686745D01*
X1021221Y680963D02*
X1022226D01*
X1019388Y679129D02*
X1021221Y680963D01*
X1018553Y677987D02*
X1019388Y678822D01*
Y679129D01*
X1018553Y677496D02*
Y677987D01*
X1104847Y702292D02*
Y706068D01*
X1162297Y791237D02*
X1168071Y785463D01*
X1168942Y785102D02*
X1168942D01*
X1172497Y780644D02*
Y781547D01*
X1165841Y777090D02*
X1168942D01*
X1164787Y775134D02*
Y776036D01*
X1165841Y774080D02*
X1169070D01*
X1172625Y769623D02*
Y770526D01*
X1164425Y766068D02*
X1169070D01*
X1163372Y764112D02*
Y765015D01*
X1164425Y763058D02*
X1168713D01*
X1172267Y758601D02*
Y759504D01*
X1162415Y755046D02*
X1168713D01*
X1161362Y753090D02*
Y753993D01*
X1162415Y752037D02*
X1163359D01*
X1167091Y746437D02*
Y748304D01*
X1158244Y789999D02*
X1159998D01*
X1159998D02*
X1166297Y783699D01*
X1168942Y782600D02*
X1168942D01*
X1169996Y780644D02*
Y781547D01*
X1165841Y779591D02*
X1168942D01*
X1162286Y775134D02*
Y776036D01*
X1165841Y771579D02*
X1169070D01*
X1170123Y769623D02*
Y770526D01*
X1164425Y768569D02*
X1169070D01*
X1160870Y764112D02*
Y765015D01*
X1164425Y760557D02*
X1168713D01*
X1169766Y758601D02*
Y759504D01*
X1162415Y757548D02*
X1168713D01*
X1158860Y753090D02*
Y753993D01*
X1162415Y749535D02*
X1163359D01*
X1164590Y746437D02*
Y748304D01*
X1161034Y792500D02*
X1162297Y791237D01*
X1105608Y710365D02*
X1128531Y733289D01*
X1131008Y735765D01*
X1107376Y708596D02*
X1130300Y731520D01*
X1132776Y733997D01*
X1099785Y706918D02*
X1100133Y707266D01*
X1102508D01*
X1104847Y706068D02*
X1107376Y708596D01*
X1102508Y707266D02*
X1105608Y710365D01*
X1133531Y734751D02*
X1156441D01*
X1167091Y745401D02*
Y746437D01*
X1132495Y737253D02*
X1155405D01*
X1132776Y733997D02*
X1133531Y734751D01*
X1156441D02*
X1167091Y745401D01*
X1155405Y737253D02*
X1164590Y746437D01*
X1131008Y735765D02*
X1132495Y737253D01*
X1153219Y789999D02*
X1158244D01*
X1148747Y771238D02*
Y787413D01*
Y789065D01*
X1152183Y792500D01*
X1148747Y768350D02*
Y771238D01*
X1151248Y779096D02*
Y781226D01*
X1152480Y777865D02*
X1155122D01*
X1156176Y775909D02*
Y776812D01*
X1152480Y774855D02*
X1155122D01*
X1151248Y769999D02*
Y773624D01*
Y781226D02*
Y788028D01*
Y768350D02*
Y769999D01*
X1152183Y792500D02*
X1161034D01*
X1151248Y788028D02*
X1153219Y789999D01*
X1144998Y764999D02*
X1145396D01*
X1148747Y768350D01*
X1154600Y764999D02*
X1154998D01*
X1151248Y768350D02*
X1154600Y764999D01*
D272*
X1269840Y224750D02*
D03*
X1264840D02*
D03*
X1254840D02*
D03*
X1249840D02*
D03*
X1269840Y232450D02*
D03*
X1264840D02*
D03*
X1254840D02*
D03*
X1249840D02*
D03*
D273*
X1259840Y224750D02*
D03*
Y232450D02*
D03*
D274*
X924220Y293370D02*
D03*
Y318770D02*
D03*
X1006180Y293370D02*
D03*
Y318770D02*
D03*
D275*
X945220Y293370D02*
D03*
Y318770D02*
D03*
X985180Y293370D02*
D03*
Y318770D02*
D03*
M02*
