%TF.GenerationSoftware,Altium Limited,Altium Designer,23.11.1 (41)*%
G04 Layer_Color=128*
%FSLAX45Y45*%
%MOMM*%
%TF.SameCoordinates,1BD89016-B4D8-4A99-B54A-05B805E6E99A*%
%TF.FilePolarity,Positive*%
%TF.FileFunction,Paste,Bot*%
%TF.Part,Single*%
G01*
G75*
%TA.AperFunction,SMDPad,CuDef*%
G04:AMPARAMS|DCode=16|XSize=2.5mm|YSize=1.5mm|CornerRadius=0.3mm|HoleSize=0mm|Usage=FLASHONLY|Rotation=90.000|XOffset=0mm|YOffset=0mm|HoleType=Round|Shape=RoundedRectangle|*
%AMROUNDEDRECTD16*
21,1,2.50000,0.90000,0,0,90.0*
21,1,1.90000,1.50000,0,0,90.0*
1,1,0.60000,0.45000,0.95000*
1,1,0.60000,0.45000,-0.95000*
1,1,0.60000,-0.45000,-0.95000*
1,1,0.60000,-0.45000,0.95000*
%
%ADD16ROUNDEDRECTD16*%
G04:AMPARAMS|DCode=17|XSize=1.8034mm|YSize=1.1938mm|CornerRadius=0.20295mm|HoleSize=0mm|Usage=FLASHONLY|Rotation=180.000|XOffset=0mm|YOffset=0mm|HoleType=Round|Shape=RoundedRectangle|*
%AMROUNDEDRECTD17*
21,1,1.80340,0.78791,0,0,180.0*
21,1,1.39751,1.19380,0,0,180.0*
1,1,0.40589,-0.69875,0.39395*
1,1,0.40589,0.69875,0.39395*
1,1,0.40589,0.69875,-0.39395*
1,1,0.40589,-0.69875,-0.39395*
%
%ADD17ROUNDEDRECTD17*%
G04:AMPARAMS|DCode=18|XSize=1.397mm|YSize=1.0922mm|CornerRadius=0.20206mm|HoleSize=0mm|Usage=FLASHONLY|Rotation=180.000|XOffset=0mm|YOffset=0mm|HoleType=Round|Shape=RoundedRectangle|*
%AMROUNDEDRECTD18*
21,1,1.39700,0.68809,0,0,180.0*
21,1,0.99289,1.09220,0,0,180.0*
1,1,0.40411,-0.49644,0.34404*
1,1,0.40411,0.49644,0.34404*
1,1,0.40411,0.49644,-0.34404*
1,1,0.40411,-0.49644,-0.34404*
%
%ADD18ROUNDEDRECTD18*%
G04:AMPARAMS|DCode=19|XSize=0.508mm|YSize=0.508mm|CornerRadius=0.1524mm|HoleSize=0mm|Usage=FLASHONLY|Rotation=180.000|XOffset=0mm|YOffset=0mm|HoleType=Round|Shape=RoundedRectangle|*
%AMROUNDEDRECTD19*
21,1,0.50800,0.20320,0,0,180.0*
21,1,0.20320,0.50800,0,0,180.0*
1,1,0.30480,-0.10160,0.10160*
1,1,0.30480,0.10160,0.10160*
1,1,0.30480,0.10160,-0.10160*
1,1,0.30480,-0.10160,-0.10160*
%
%ADD19ROUNDEDRECTD19*%
%ADD20R,0.45720X0.30480*%
G04:AMPARAMS|DCode=22|XSize=1.397mm|YSize=1.0922mm|CornerRadius=0.20206mm|HoleSize=0mm|Usage=FLASHONLY|Rotation=90.000|XOffset=0mm|YOffset=0mm|HoleType=Round|Shape=RoundedRectangle|*
%AMROUNDEDRECTD22*
21,1,1.39700,0.68809,0,0,90.0*
21,1,0.99289,1.09220,0,0,90.0*
1,1,0.40411,0.34404,0.49644*
1,1,0.40411,0.34404,-0.49644*
1,1,0.40411,-0.34404,-0.49644*
1,1,0.40411,-0.34404,0.49644*
%
%ADD22ROUNDEDRECTD22*%
G04:AMPARAMS|DCode=31|XSize=2.5mm|YSize=1.5mm|CornerRadius=0.3mm|HoleSize=0mm|Usage=FLASHONLY|Rotation=180.000|XOffset=0mm|YOffset=0mm|HoleType=Round|Shape=RoundedRectangle|*
%AMROUNDEDRECTD31*
21,1,2.50000,0.90000,0,0,180.0*
21,1,1.90000,1.50000,0,0,180.0*
1,1,0.60000,-0.95000,0.45000*
1,1,0.60000,0.95000,0.45000*
1,1,0.60000,0.95000,-0.45000*
1,1,0.60000,-0.95000,-0.45000*
%
%ADD31ROUNDEDRECTD31*%
%ADD35R,2.80000X2.80000*%
G04:AMPARAMS|DCode=38|XSize=0.508mm|YSize=0.508mm|CornerRadius=0.1524mm|HoleSize=0mm|Usage=FLASHONLY|Rotation=90.000|XOffset=0mm|YOffset=0mm|HoleType=Round|Shape=RoundedRectangle|*
%AMROUNDEDRECTD38*
21,1,0.50800,0.20320,0,0,90.0*
21,1,0.20320,0.50800,0,0,90.0*
1,1,0.30480,0.10160,0.10160*
1,1,0.30480,0.10160,-0.10160*
1,1,0.30480,-0.10160,-0.10160*
1,1,0.30480,-0.10160,0.10160*
%
%ADD38ROUNDEDRECTD38*%
%ADD41R,0.71120X1.01600*%
%ADD46R,2.80000X2.80000*%
%ADD52R,0.30480X0.45720*%
G04:AMPARAMS|DCode=53|XSize=1.8034mm|YSize=1.1938mm|CornerRadius=0.20295mm|HoleSize=0mm|Usage=FLASHONLY|Rotation=90.000|XOffset=0mm|YOffset=0mm|HoleType=Round|Shape=RoundedRectangle|*
%AMROUNDEDRECTD53*
21,1,1.80340,0.78791,0,0,90.0*
21,1,1.39751,1.19380,0,0,90.0*
1,1,0.40589,0.39395,0.69875*
1,1,0.40589,0.39395,-0.69875*
1,1,0.40589,-0.39395,-0.69875*
1,1,0.40589,-0.39395,0.69875*
%
%ADD53ROUNDEDRECTD53*%
%ADD63R,1.01600X0.71120*%
G04:AMPARAMS|DCode=65|XSize=2.26mm|YSize=2.16mm|CornerRadius=0.54mm|HoleSize=0mm|Usage=FLASHONLY|Rotation=180.000|XOffset=0mm|YOffset=0mm|HoleType=Round|Shape=RoundedRectangle|*
%AMROUNDEDRECTD65*
21,1,2.26000,1.08000,0,0,180.0*
21,1,1.18000,2.16000,0,0,180.0*
1,1,1.08000,-0.59000,0.54000*
1,1,1.08000,0.59000,0.54000*
1,1,1.08000,0.59000,-0.54000*
1,1,1.08000,-0.59000,-0.54000*
%
%ADD65ROUNDEDRECTD65*%
G04:AMPARAMS|DCode=86|XSize=0.59mm|YSize=0.45mm|CornerRadius=0.1125mm|HoleSize=0mm|Usage=FLASHONLY|Rotation=90.000|XOffset=0mm|YOffset=0mm|HoleType=Round|Shape=RoundedRectangle|*
%AMROUNDEDRECTD86*
21,1,0.59000,0.22500,0,0,90.0*
21,1,0.36500,0.45000,0,0,90.0*
1,1,0.22500,0.11250,0.18250*
1,1,0.22500,0.11250,-0.18250*
1,1,0.22500,-0.11250,-0.18250*
1,1,0.22500,-0.11250,0.18250*
%
%ADD86ROUNDEDRECTD86*%
%ADD87R,0.45000X0.59000*%
%ADD132R,0.30000X0.55000*%
%ADD133R,0.40000X0.55000*%
G04:AMPARAMS|DCode=134|XSize=0.59mm|YSize=0.45mm|CornerRadius=0.1125mm|HoleSize=0mm|Usage=FLASHONLY|Rotation=0.000|XOffset=0mm|YOffset=0mm|HoleType=Round|Shape=RoundedRectangle|*
%AMROUNDEDRECTD134*
21,1,0.59000,0.22500,0,0,0.0*
21,1,0.36500,0.45000,0,0,0.0*
1,1,0.22500,0.18250,-0.11250*
1,1,0.22500,-0.18250,-0.11250*
1,1,0.22500,-0.18250,0.11250*
1,1,0.22500,0.18250,0.11250*
%
%ADD134ROUNDEDRECTD134*%
%ADD135R,0.59000X0.45000*%
%TA.AperFunction,NonConductor*%
%ADD137C,0.12700*%
G36*
X6501600Y2692400D02*
Y2697325D01*
X6499678Y2706984D01*
X6495909Y2716084D01*
X6490437Y2724273D01*
X6483473Y2731237D01*
X6475284Y2736709D01*
X6466184Y2740478D01*
X6456525Y2742400D01*
X6451600D01*
X6446675D01*
X6437015Y2740478D01*
X6427916Y2736709D01*
X6419727Y2731237D01*
X6412762Y2724273D01*
X6407290Y2716084D01*
X6403521Y2706984D01*
X6401600Y2697325D01*
Y2692400D01*
Y2687475D01*
X6403521Y2677815D01*
X6407290Y2668716D01*
X6412762Y2660527D01*
X6419727Y2653562D01*
X6427916Y2648090D01*
X6437015Y2644321D01*
X6446675Y2642400D01*
X6451600D01*
X6456525D01*
X6466184Y2644321D01*
X6475284Y2648090D01*
X6483473Y2653562D01*
X6490437Y2660527D01*
X6495909Y2668716D01*
X6499678Y2677815D01*
X6501600Y2687475D01*
Y2692400D01*
D01*
D02*
G37*
G36*
X1472400Y9296400D02*
Y9301325D01*
X1470478Y9310984D01*
X1466709Y9320084D01*
X1461237Y9328273D01*
X1454273Y9335237D01*
X1446084Y9340709D01*
X1436984Y9344478D01*
X1427325Y9346400D01*
X1422400D01*
X1417475D01*
X1407815Y9344478D01*
X1398716Y9340709D01*
X1390527Y9335237D01*
X1383562Y9328273D01*
X1378090Y9320084D01*
X1374321Y9310984D01*
X1372400Y9301325D01*
Y9296400D01*
Y9291475D01*
X1374321Y9281815D01*
X1378090Y9272716D01*
X1383562Y9264527D01*
X1390527Y9257562D01*
X1398716Y9252090D01*
X1407815Y9248321D01*
X1417475Y9246400D01*
X1422400D01*
X1427325D01*
X1436984Y9248321D01*
X1446084Y9252090D01*
X1454273Y9257562D01*
X1461237Y9264527D01*
X1466709Y9272716D01*
X1470478Y9281815D01*
X1472400Y9291475D01*
Y9296400D01*
D01*
D02*
G37*
G36*
X11226000Y2768600D02*
Y2773525D01*
X11224078Y2783184D01*
X11220309Y2792284D01*
X11214837Y2800473D01*
X11207873Y2807437D01*
X11199684Y2812909D01*
X11190584Y2816678D01*
X11180925Y2818600D01*
X11176000D01*
X11171075D01*
X11161415Y2816678D01*
X11152316Y2812909D01*
X11144127Y2807437D01*
X11137162Y2800473D01*
X11131690Y2792284D01*
X11127921Y2783184D01*
X11126000Y2773525D01*
Y2768600D01*
Y2763675D01*
X11127921Y2754015D01*
X11131690Y2744916D01*
X11137162Y2736727D01*
X11144127Y2729762D01*
X11152316Y2724290D01*
X11161415Y2720521D01*
X11171075Y2718600D01*
X11176000D01*
X11180925D01*
X11190584Y2720521D01*
X11199684Y2724290D01*
X11207873Y2729762D01*
X11214837Y2736727D01*
X11220309Y2744916D01*
X11224078Y2754015D01*
X11226000Y2763675D01*
Y2768600D01*
D01*
D02*
G37*
G36*
X19912801Y6756400D02*
Y6761325D01*
X19910878Y6770984D01*
X19907109Y6780084D01*
X19901637Y6788273D01*
X19894673Y6795237D01*
X19886484Y6800709D01*
X19877383Y6804478D01*
X19867725Y6806400D01*
X19862801D01*
X19857875D01*
X19848215Y6804478D01*
X19839116Y6800709D01*
X19830927Y6795237D01*
X19823962Y6788273D01*
X19818491Y6780084D01*
X19814722Y6770984D01*
X19812801Y6761325D01*
Y6756400D01*
Y6751475D01*
X19814722Y6741815D01*
X19818491Y6732716D01*
X19823962Y6724527D01*
X19830927Y6717562D01*
X19839116Y6712090D01*
X19848215Y6708321D01*
X19857875Y6706400D01*
X19862801D01*
X19867725D01*
X19877383Y6708321D01*
X19886484Y6712090D01*
X19894673Y6717562D01*
X19901637Y6724527D01*
X19907109Y6732716D01*
X19910878Y6741815D01*
X19912801Y6751475D01*
Y6756400D01*
D01*
D02*
G37*
D16*
X8288000Y7518400D02*
D03*
X7968000D02*
D03*
X13810001Y5626100D02*
D03*
X14130000D02*
D03*
X13622000Y4318000D02*
D03*
X13302000D02*
D03*
D17*
X14845500Y7823200D02*
D03*
Y8112760D02*
D03*
X16255200Y7485380D02*
D03*
Y7195820D02*
D03*
X11811000Y2557780D02*
D03*
Y2268220D02*
D03*
X13601700Y1198880D02*
D03*
Y909320D02*
D03*
X19414000Y2903220D02*
D03*
Y3192780D02*
D03*
X15036800Y3220720D02*
D03*
Y3510280D02*
D03*
X15239999Y2392680D02*
D03*
Y2103120D02*
D03*
D18*
X13665199Y6823710D02*
D03*
Y6993890D02*
D03*
X12852400Y7026910D02*
D03*
Y7197090D02*
D03*
D19*
X11899976Y8111084D02*
D03*
Y8199984D02*
D03*
X11493500Y6800850D02*
D03*
Y6711950D02*
D03*
X17031837Y2593285D02*
D03*
Y2504385D02*
D03*
Y2390085D02*
D03*
Y2301185D02*
D03*
X812800Y3956050D02*
D03*
Y3867150D02*
D03*
X17576801Y6191250D02*
D03*
Y6102350D02*
D03*
Y5899150D02*
D03*
Y5988050D02*
D03*
X14376401Y3511550D02*
D03*
Y3600450D02*
D03*
Y3803650D02*
D03*
Y3714750D02*
D03*
X11023600Y4159250D02*
D03*
Y4070350D02*
D03*
Y3867150D02*
D03*
Y3956050D02*
D03*
X3804920Y8874850D02*
D03*
Y8963750D02*
D03*
Y9217750D02*
D03*
Y9128850D02*
D03*
X2336800Y6153150D02*
D03*
Y6242050D02*
D03*
Y6356350D02*
D03*
Y6445250D02*
D03*
X723900Y2597150D02*
D03*
Y2686050D02*
D03*
X622300D02*
D03*
Y2597150D02*
D03*
X520700Y2686050D02*
D03*
Y2597150D02*
D03*
X12499975Y6811086D02*
D03*
Y6899986D02*
D03*
X12192000Y6813550D02*
D03*
Y6902450D02*
D03*
X13199974Y7811084D02*
D03*
Y7899984D02*
D03*
X13599973Y8311083D02*
D03*
Y8399983D02*
D03*
X13299977Y8311087D02*
D03*
Y8399987D02*
D03*
X12399975Y7511085D02*
D03*
Y7599985D02*
D03*
X12799974Y7711084D02*
D03*
Y7799984D02*
D03*
X11499977Y8088887D02*
D03*
Y7999987D02*
D03*
X15899600Y7029450D02*
D03*
Y6940550D02*
D03*
X7061200Y7727950D02*
D03*
Y7816850D02*
D03*
X14224001Y5022850D02*
D03*
Y5111750D02*
D03*
Y5226050D02*
D03*
Y5314950D02*
D03*
X4114800Y2838450D02*
D03*
Y2749550D02*
D03*
X3251200Y2889250D02*
D03*
Y2800350D02*
D03*
X4114800Y1987550D02*
D03*
Y2076450D02*
D03*
X3251200D02*
D03*
Y1987550D02*
D03*
X12113377Y4465337D02*
D03*
Y4554237D02*
D03*
X18376410Y1450050D02*
D03*
Y1538950D02*
D03*
X18478011Y1450050D02*
D03*
Y1538950D02*
D03*
X18579610Y1450050D02*
D03*
Y1538950D02*
D03*
X15239999Y3168650D02*
D03*
Y3257550D02*
D03*
X15036800Y2444750D02*
D03*
Y2355850D02*
D03*
D20*
X15849600Y5046980D02*
D03*
Y4991100D02*
D03*
X15748000Y5046980D02*
D03*
Y4991100D02*
D03*
D22*
X12734290Y7975600D02*
D03*
X12564110D02*
D03*
X12404090Y7226300D02*
D03*
X12233910D02*
D03*
X13648689Y8026400D02*
D03*
X13478510D02*
D03*
X12487910Y8432800D02*
D03*
X12658090D02*
D03*
X11735067Y8499983D02*
D03*
X11564887D02*
D03*
X11982450Y8856980D02*
D03*
X11812270D02*
D03*
X11802110Y7721600D02*
D03*
X11972290D02*
D03*
X12901930Y7452360D02*
D03*
X13072110D02*
D03*
D31*
X7061200Y8018800D02*
D03*
Y8338800D02*
D03*
D35*
X7367400Y7951810D02*
D03*
X3699835Y8034840D02*
D03*
X9139300Y4596000D02*
D03*
D38*
X12311075Y7899984D02*
D03*
X12399975D02*
D03*
X11899976Y7499985D02*
D03*
X11988876D02*
D03*
X11804650Y6997700D02*
D03*
X11893550D02*
D03*
X11711076Y6899986D02*
D03*
X11799976D02*
D03*
X13455650Y7670800D02*
D03*
X13366750D02*
D03*
X361950Y3708400D02*
D03*
X450850D02*
D03*
X654050D02*
D03*
X565150D02*
D03*
Y3606800D02*
D03*
X654050D02*
D03*
X6965950Y6908800D02*
D03*
X7054850D02*
D03*
X7258050D02*
D03*
X7169150D02*
D03*
X17938750Y4876800D02*
D03*
X18027650D02*
D03*
X17735550D02*
D03*
X17824451D02*
D03*
X520700Y2844800D02*
D03*
X609600D02*
D03*
X13658850Y6553200D02*
D03*
X13569949D02*
D03*
X13392149Y6896100D02*
D03*
X13303250D02*
D03*
X13711072Y7799984D02*
D03*
X13799973D02*
D03*
X12799974Y8799982D02*
D03*
X12888873D02*
D03*
X13004800Y8699500D02*
D03*
X13093700D02*
D03*
X13111073Y8899982D02*
D03*
X13199974D02*
D03*
X12399977Y8799987D02*
D03*
X12311077D02*
D03*
X11699977Y7399985D02*
D03*
X11788877D02*
D03*
X13061951Y7061200D02*
D03*
X13150850D02*
D03*
X12807950Y6901180D02*
D03*
X12896851D02*
D03*
X12889230Y6601460D02*
D03*
X12800330D02*
D03*
X12503150Y7797800D02*
D03*
X12592050D02*
D03*
X12088876Y8599983D02*
D03*
X11999976D02*
D03*
X12592050Y8686800D02*
D03*
X12503150D02*
D03*
X12399975Y8899982D02*
D03*
X12311075D02*
D03*
X7410450Y8331200D02*
D03*
X7321550D02*
D03*
X7423150Y7416800D02*
D03*
X7512050D02*
D03*
X7626350D02*
D03*
X7715250D02*
D03*
X13874750Y4610100D02*
D03*
X13963651D02*
D03*
X3983990Y3162390D02*
D03*
X3895090D02*
D03*
X3092450Y3200400D02*
D03*
X3003550D02*
D03*
X4006850Y2387600D02*
D03*
X3917950D02*
D03*
X3092450D02*
D03*
X3003550D02*
D03*
X13938251Y1130300D02*
D03*
X13849350D02*
D03*
X13944600Y1564640D02*
D03*
X13855701D02*
D03*
X13944600Y1767840D02*
D03*
X13855701D02*
D03*
X13938251Y1333500D02*
D03*
X13849350D02*
D03*
X11853027Y3950987D02*
D03*
X11764127D02*
D03*
X11853027Y3747787D02*
D03*
X11764127D02*
D03*
X12706350Y4013200D02*
D03*
X12795250D02*
D03*
X18556750Y2946400D02*
D03*
X18645650D02*
D03*
X18442450D02*
D03*
X18353551D02*
D03*
X18899651Y2895600D02*
D03*
X18810750D02*
D03*
X19013950D02*
D03*
X19102850D02*
D03*
X18992360Y1342100D02*
D03*
X19081261D02*
D03*
X18992360Y1545300D02*
D03*
X19081261D02*
D03*
X18992360Y1443700D02*
D03*
X19081261D02*
D03*
X19115550Y2997200D02*
D03*
X19204449D02*
D03*
X9353550Y3340100D02*
D03*
X9442450D02*
D03*
X9137650D02*
D03*
X9048750D02*
D03*
X9461500Y2438400D02*
D03*
X9550400D02*
D03*
X9258300D02*
D03*
X9347200D02*
D03*
X11788877Y6599987D02*
D03*
X11699977D02*
D03*
D41*
X16754977Y2576865D02*
D03*
X16848958Y2343185D02*
D03*
X16660999D02*
D03*
X17322800Y6162040D02*
D03*
X17416780Y5928360D02*
D03*
X17228819D02*
D03*
X14122400Y3774440D02*
D03*
X14216380Y3540760D02*
D03*
X14028419D02*
D03*
X10675620Y3896360D02*
D03*
X10769600Y4130040D02*
D03*
X10863580Y3896360D02*
D03*
X3558540Y9152980D02*
D03*
X3652520Y8919300D02*
D03*
X3464560D02*
D03*
X2590800Y6182360D02*
D03*
X2496820Y6416040D02*
D03*
X2684780D02*
D03*
X3860800Y3012440D02*
D03*
X3954780Y2778760D02*
D03*
X3766820D02*
D03*
X2903220D02*
D03*
X2997200Y3012440D02*
D03*
X3091180Y2778760D02*
D03*
X3766820Y2016760D02*
D03*
X3860800Y2250440D02*
D03*
X3954780Y2016760D02*
D03*
X2903220D02*
D03*
X2997200Y2250440D02*
D03*
X3091180Y2016760D02*
D03*
D46*
X13665199Y4914900D02*
D03*
D52*
X19104120Y3098800D02*
D03*
X19160001D02*
D03*
X19104120Y3200400D02*
D03*
X19160001D02*
D03*
X9189720Y2730500D02*
D03*
X9245600D02*
D03*
X9494520Y2336800D02*
D03*
X9550400D02*
D03*
X9347200D02*
D03*
X9291320D02*
D03*
D53*
X12220057Y3493787D02*
D03*
X11930497D02*
D03*
X18434830Y1240500D02*
D03*
X18724390D02*
D03*
X19029190Y1748500D02*
D03*
X18739630D02*
D03*
D63*
X640080Y3954780D02*
D03*
X406400Y3860800D02*
D03*
Y4048760D02*
D03*
X7014210Y6642100D02*
D03*
X7247890Y6736080D02*
D03*
Y6548120D02*
D03*
X17764760Y4622800D02*
D03*
X17998441Y4716780D02*
D03*
Y4528820D02*
D03*
D65*
X10261600Y1464200D02*
D03*
Y974200D02*
D03*
X9753600Y1464200D02*
D03*
Y974200D02*
D03*
X9245600Y1464200D02*
D03*
Y974200D02*
D03*
X8737600Y1464200D02*
D03*
Y974200D02*
D03*
D86*
X9042400Y3140300D02*
D03*
X10261600D02*
D03*
D87*
X9042400Y2930300D02*
D03*
X10261600D02*
D03*
D132*
X12698400Y2247500D02*
D03*
X12648400D02*
D03*
X12548400D02*
D03*
X12498400D02*
D03*
X12698400Y2324500D02*
D03*
X12648400D02*
D03*
X12548400D02*
D03*
X12498400D02*
D03*
D133*
X12598400Y2247500D02*
D03*
Y2324500D02*
D03*
D134*
X9242200Y2933700D02*
D03*
Y3187700D02*
D03*
X10061800Y2933700D02*
D03*
Y3187700D02*
D03*
D135*
X9452200Y2933700D02*
D03*
Y3187700D02*
D03*
X9851800Y2933700D02*
D03*
Y3187700D02*
D03*
D137*
X1394460Y9593580D02*
X1412240Y9377680D01*
X1379220Y9431020D02*
X1412240Y9377680D01*
X1435100Y9433560D01*
X11148060Y3065780D02*
X11165840Y2849880D01*
X11132820Y2903220D02*
X11165840Y2849880D01*
X11188700Y2905760D01*
X6423660Y2989580D02*
X6441440Y2773680D01*
X6408420Y2827020D02*
X6441440Y2773680D01*
X6464300Y2829560D01*
X19834860Y7053580D02*
X19852640Y6837680D01*
X19819620Y6891020D02*
X19852640Y6837680D01*
X19875500Y6893560D01*
%TF.MD5,e50fce990af5bfaf9bae40884353a937*%
M02*
