%TF.GenerationSoftware,Altium Limited,Altium Designer,23.11.1 (41)*%
G04 Layer_Color=8421504*
%FSLAX45Y45*%
%MOMM*%
%TF.SameCoordinates,1BD89016-B4D8-4A99-B54A-05B805E6E99A*%
%TF.FilePolarity,Positive*%
%TF.FileFunction,Paste,Top*%
%TF.Part,Single*%
G01*
G75*
%TA.AperFunction,SMDPad,CuDef*%
G04:AMPARAMS|DCode=12|XSize=4.4mm|YSize=2.5mm|CornerRadius=0.625mm|HoleSize=0mm|Usage=FLASHONLY|Rotation=0.000|XOffset=0mm|YOffset=0mm|HoleType=Round|Shape=RoundedRectangle|*
%AMROUNDEDRECTD12*
21,1,4.40000,1.25000,0,0,0.0*
21,1,3.15000,2.50000,0,0,0.0*
1,1,1.25000,1.57500,-0.62500*
1,1,1.25000,-1.57500,-0.62500*
1,1,1.25000,-1.57500,0.62500*
1,1,1.25000,1.57500,0.62500*
%
%ADD12ROUNDEDRECTD12*%
%ADD13R,0.76200X1.70180*%
G04:AMPARAMS|DCode=14|XSize=1.7018mm|YSize=0.762mm|CornerRadius=0.1905mm|HoleSize=0mm|Usage=FLASHONLY|Rotation=270.000|XOffset=0mm|YOffset=0mm|HoleType=Round|Shape=RoundedRectangle|*
%AMROUNDEDRECTD14*
21,1,1.70180,0.38100,0,0,270.0*
21,1,1.32080,0.76200,0,0,270.0*
1,1,0.38100,-0.19050,-0.66040*
1,1,0.38100,-0.19050,0.66040*
1,1,0.38100,0.19050,0.66040*
1,1,0.38100,0.19050,-0.66040*
%
%ADD14ROUNDEDRECTD14*%
%TA.AperFunction,ConnectorPad*%
G04:AMPARAMS|DCode=15|XSize=1.8034mm|YSize=1.1938mm|CornerRadius=0.20295mm|HoleSize=0mm|Usage=FLASHONLY|Rotation=180.000|XOffset=0mm|YOffset=0mm|HoleType=Round|Shape=RoundedRectangle|*
%AMROUNDEDRECTD15*
21,1,1.80340,0.78791,0,0,180.0*
21,1,1.39751,1.19380,0,0,180.0*
1,1,0.40589,-0.69875,0.39395*
1,1,0.40589,0.69875,0.39395*
1,1,0.40589,0.69875,-0.39395*
1,1,0.40589,-0.69875,-0.39395*
%
%ADD15ROUNDEDRECTD15*%
%TA.AperFunction,SMDPad,CuDef*%
G04:AMPARAMS|DCode=16|XSize=2.5mm|YSize=1.5mm|CornerRadius=0.3mm|HoleSize=0mm|Usage=FLASHONLY|Rotation=90.000|XOffset=0mm|YOffset=0mm|HoleType=Round|Shape=RoundedRectangle|*
%AMROUNDEDRECTD16*
21,1,2.50000,0.90000,0,0,90.0*
21,1,1.90000,1.50000,0,0,90.0*
1,1,0.60000,0.45000,0.95000*
1,1,0.60000,0.45000,-0.95000*
1,1,0.60000,-0.45000,-0.95000*
1,1,0.60000,-0.45000,0.95000*
%
%ADD16ROUNDEDRECTD16*%
G04:AMPARAMS|DCode=17|XSize=1.8034mm|YSize=1.1938mm|CornerRadius=0.20295mm|HoleSize=0mm|Usage=FLASHONLY|Rotation=180.000|XOffset=0mm|YOffset=0mm|HoleType=Round|Shape=RoundedRectangle|*
%AMROUNDEDRECTD17*
21,1,1.80340,0.78791,0,0,180.0*
21,1,1.39751,1.19380,0,0,180.0*
1,1,0.40589,-0.69875,0.39395*
1,1,0.40589,0.69875,0.39395*
1,1,0.40589,0.69875,-0.39395*
1,1,0.40589,-0.69875,-0.39395*
%
%ADD17ROUNDEDRECTD17*%
G04:AMPARAMS|DCode=18|XSize=1.397mm|YSize=1.0922mm|CornerRadius=0.20206mm|HoleSize=0mm|Usage=FLASHONLY|Rotation=180.000|XOffset=0mm|YOffset=0mm|HoleType=Round|Shape=RoundedRectangle|*
%AMROUNDEDRECTD18*
21,1,1.39700,0.68809,0,0,180.0*
21,1,0.99289,1.09220,0,0,180.0*
1,1,0.40411,-0.49644,0.34404*
1,1,0.40411,0.49644,0.34404*
1,1,0.40411,0.49644,-0.34404*
1,1,0.40411,-0.49644,-0.34404*
%
%ADD18ROUNDEDRECTD18*%
G04:AMPARAMS|DCode=19|XSize=0.508mm|YSize=0.508mm|CornerRadius=0.1524mm|HoleSize=0mm|Usage=FLASHONLY|Rotation=180.000|XOffset=0mm|YOffset=0mm|HoleType=Round|Shape=RoundedRectangle|*
%AMROUNDEDRECTD19*
21,1,0.50800,0.20320,0,0,180.0*
21,1,0.20320,0.50800,0,0,180.0*
1,1,0.30480,-0.10160,0.10160*
1,1,0.30480,0.10160,0.10160*
1,1,0.30480,0.10160,-0.10160*
1,1,0.30480,-0.10160,-0.10160*
%
%ADD19ROUNDEDRECTD19*%
%ADD20R,0.45720X0.30480*%
G04:AMPARAMS|DCode=21|XSize=7.8mm|YSize=9.6mm|CornerRadius=1.95mm|HoleSize=0mm|Usage=FLASHONLY|Rotation=0.000|XOffset=0mm|YOffset=0mm|HoleType=Round|Shape=RoundedRectangle|*
%AMROUNDEDRECTD21*
21,1,7.80000,5.70000,0,0,0.0*
21,1,3.90000,9.60000,0,0,0.0*
1,1,3.90000,1.95000,-2.85000*
1,1,3.90000,-1.95000,-2.85000*
1,1,3.90000,-1.95000,2.85000*
1,1,3.90000,1.95000,2.85000*
%
%ADD21ROUNDEDRECTD21*%
G04:AMPARAMS|DCode=22|XSize=1.397mm|YSize=1.0922mm|CornerRadius=0.20206mm|HoleSize=0mm|Usage=FLASHONLY|Rotation=90.000|XOffset=0mm|YOffset=0mm|HoleType=Round|Shape=RoundedRectangle|*
%AMROUNDEDRECTD22*
21,1,1.39700,0.68809,0,0,90.0*
21,1,0.99289,1.09220,0,0,90.0*
1,1,0.40411,0.34404,0.49644*
1,1,0.40411,0.34404,-0.49644*
1,1,0.40411,-0.34404,-0.49644*
1,1,0.40411,-0.34404,0.49644*
%
%ADD22ROUNDEDRECTD22*%
%ADD24R,0.95000X0.60000*%
%ADD26R,0.60000X0.95000*%
G04:AMPARAMS|DCode=31|XSize=2.5mm|YSize=1.5mm|CornerRadius=0.3mm|HoleSize=0mm|Usage=FLASHONLY|Rotation=180.000|XOffset=0mm|YOffset=0mm|HoleType=Round|Shape=RoundedRectangle|*
%AMROUNDEDRECTD31*
21,1,2.50000,0.90000,0,0,180.0*
21,1,1.90000,1.50000,0,0,180.0*
1,1,0.60000,-0.95000,0.45000*
1,1,0.60000,0.95000,0.45000*
1,1,0.60000,0.95000,-0.45000*
1,1,0.60000,-0.95000,-0.45000*
%
%ADD31ROUNDEDRECTD31*%
G04:AMPARAMS|DCode=33|XSize=0.24mm|YSize=0.6mm|CornerRadius=0.0492mm|HoleSize=0mm|Usage=FLASHONLY|Rotation=270.000|XOffset=0mm|YOffset=0mm|HoleType=Round|Shape=RoundedRectangle|*
%AMROUNDEDRECTD33*
21,1,0.24000,0.50160,0,0,270.0*
21,1,0.14160,0.60000,0,0,270.0*
1,1,0.09840,-0.25080,-0.07080*
1,1,0.09840,-0.25080,0.07080*
1,1,0.09840,0.25080,0.07080*
1,1,0.09840,0.25080,-0.07080*
%
%ADD33ROUNDEDRECTD33*%
G04:AMPARAMS|DCode=34|XSize=1.6mm|YSize=1.7mm|CornerRadius=0.4mm|HoleSize=0mm|Usage=FLASHONLY|Rotation=270.000|XOffset=0mm|YOffset=0mm|HoleType=Round|Shape=RoundedRectangle|*
%AMROUNDEDRECTD34*
21,1,1.60000,0.90000,0,0,270.0*
21,1,0.80000,1.70000,0,0,270.0*
1,1,0.80000,-0.45000,-0.40000*
1,1,0.80000,-0.45000,0.40000*
1,1,0.80000,0.45000,0.40000*
1,1,0.80000,0.45000,-0.40000*
%
%ADD34ROUNDEDRECTD34*%
%ADD35R,2.80000X2.80000*%
%ADD36R,1.70000X1.60000*%
%ADD37R,3.10000X2.35000*%
G04:AMPARAMS|DCode=38|XSize=0.508mm|YSize=0.508mm|CornerRadius=0.1524mm|HoleSize=0mm|Usage=FLASHONLY|Rotation=90.000|XOffset=0mm|YOffset=0mm|HoleType=Round|Shape=RoundedRectangle|*
%AMROUNDEDRECTD38*
21,1,0.50800,0.20320,0,0,90.0*
21,1,0.20320,0.50800,0,0,90.0*
1,1,0.30480,0.10160,0.10160*
1,1,0.30480,0.10160,-0.10160*
1,1,0.30480,-0.10160,-0.10160*
1,1,0.30480,-0.10160,0.10160*
%
%ADD38ROUNDEDRECTD38*%
%TA.AperFunction,BGAPad,CuDef*%
%ADD39C,0.45000*%
%TA.AperFunction,SMDPad,CuDef*%
G04:AMPARAMS|DCode=40|XSize=1mm|YSize=0.8mm|CornerRadius=0.2mm|HoleSize=0mm|Usage=FLASHONLY|Rotation=180.000|XOffset=0mm|YOffset=0mm|HoleType=Round|Shape=RoundedRectangle|*
%AMROUNDEDRECTD40*
21,1,1.00000,0.40000,0,0,180.0*
21,1,0.60000,0.80000,0,0,180.0*
1,1,0.40000,-0.30000,0.20000*
1,1,0.40000,0.30000,0.20000*
1,1,0.40000,0.30000,-0.20000*
1,1,0.40000,-0.30000,-0.20000*
%
%ADD40ROUNDEDRECTD40*%
%ADD41R,0.71120X1.01600*%
%ADD44R,2.35000X3.10000*%
%ADD45R,1.60000X1.70000*%
%ADD46R,2.80000X2.80000*%
G04:AMPARAMS|DCode=47|XSize=1.6mm|YSize=1.7mm|CornerRadius=0.4mm|HoleSize=0mm|Usage=FLASHONLY|Rotation=0.000|XOffset=0mm|YOffset=0mm|HoleType=Round|Shape=RoundedRectangle|*
%AMROUNDEDRECTD47*
21,1,1.60000,0.90000,0,0,0.0*
21,1,0.80000,1.70000,0,0,0.0*
1,1,0.80000,0.40000,-0.45000*
1,1,0.80000,-0.40000,-0.45000*
1,1,0.80000,-0.40000,0.45000*
1,1,0.80000,0.40000,0.45000*
%
%ADD47ROUNDEDRECTD47*%
G04:AMPARAMS|DCode=48|XSize=4.4mm|YSize=2.5mm|CornerRadius=0.625mm|HoleSize=0mm|Usage=FLASHONLY|Rotation=270.000|XOffset=0mm|YOffset=0mm|HoleType=Round|Shape=RoundedRectangle|*
%AMROUNDEDRECTD48*
21,1,4.40000,1.25000,0,0,270.0*
21,1,3.15000,2.50000,0,0,270.0*
1,1,1.25000,-0.62500,-1.57500*
1,1,1.25000,-0.62500,1.57500*
1,1,1.25000,0.62500,1.57500*
1,1,1.25000,0.62500,-1.57500*
%
%ADD48ROUNDEDRECTD48*%
%ADD49O,0.23000X0.80000*%
%ADD50O,0.80000X0.23000*%
%ADD51R,7.40000X7.40000*%
%ADD52R,0.30480X0.45720*%
G04:AMPARAMS|DCode=53|XSize=1.8034mm|YSize=1.1938mm|CornerRadius=0.20295mm|HoleSize=0mm|Usage=FLASHONLY|Rotation=90.000|XOffset=0mm|YOffset=0mm|HoleType=Round|Shape=RoundedRectangle|*
%AMROUNDEDRECTD53*
21,1,1.80340,0.78791,0,0,90.0*
21,1,1.39751,1.19380,0,0,90.0*
1,1,0.40589,0.39395,0.69875*
1,1,0.40589,0.39395,-0.69875*
1,1,0.40589,-0.39395,-0.69875*
1,1,0.40589,-0.39395,0.69875*
%
%ADD53ROUNDEDRECTD53*%
%ADD63R,1.01600X0.71120*%
G04:AMPARAMS|DCode=65|XSize=2.26mm|YSize=2.16mm|CornerRadius=0.54mm|HoleSize=0mm|Usage=FLASHONLY|Rotation=180.000|XOffset=0mm|YOffset=0mm|HoleType=Round|Shape=RoundedRectangle|*
%AMROUNDEDRECTD65*
21,1,2.26000,1.08000,0,0,180.0*
21,1,1.18000,2.16000,0,0,180.0*
1,1,1.08000,-0.59000,0.54000*
1,1,1.08000,0.59000,0.54000*
1,1,1.08000,0.59000,-0.54000*
1,1,1.08000,-0.59000,-0.54000*
%
%ADD65ROUNDEDRECTD65*%
%ADD66R,2.50000X1.70000*%
%ADD67R,0.95000X2.00000*%
%ADD68R,5.15000X6.00000*%
%ADD69R,3.81000X4.24180*%
%ADD71R,2.10000X2.10000*%
%ADD72O,0.80000X0.20000*%
%ADD73O,0.20000X0.80000*%
%ADD75R,1.65000X0.60000*%
%ADD78R,0.80000X0.25000*%
%ADD79R,0.25000X0.80000*%
G04:AMPARAMS|DCode=80|XSize=3.4mm|YSize=3.4mm|CornerRadius=0mm|HoleSize=0mm|Usage=FLASHONLY|Rotation=90.000|XOffset=0mm|YOffset=0mm|HoleType=Round|Shape=RoundedRectangle|*
%AMROUNDEDRECTD80*
21,1,3.40000,3.40000,0,0,90.0*
21,1,3.40000,3.40000,0,0,90.0*
1,1,0.00000,1.70000,1.70000*
1,1,0.00000,1.70000,-1.70000*
1,1,0.00000,-1.70000,-1.70000*
1,1,0.00000,-1.70000,1.70000*
%
%ADD80ROUNDEDRECTD80*%
%ADD81O,0.28000X0.85000*%
%ADD82O,0.85000X0.28000*%
%ADD83R,5.60000X5.60000*%
%ADD84R,0.64000X0.61000*%
%ADD85O,1.80000X0.40000*%
G04:AMPARAMS|DCode=86|XSize=0.59mm|YSize=0.45mm|CornerRadius=0.1125mm|HoleSize=0mm|Usage=FLASHONLY|Rotation=90.000|XOffset=0mm|YOffset=0mm|HoleType=Round|Shape=RoundedRectangle|*
%AMROUNDEDRECTD86*
21,1,0.59000,0.22500,0,0,90.0*
21,1,0.36500,0.45000,0,0,90.0*
1,1,0.22500,0.11250,0.18250*
1,1,0.22500,0.11250,-0.18250*
1,1,0.22500,-0.11250,-0.18250*
1,1,0.22500,-0.11250,0.18250*
%
%ADD86ROUNDEDRECTD86*%
%ADD87R,0.45000X0.59000*%
%ADD89O,0.30000X1.60000*%
%ADD90R,1.60000X1.50000*%
G04:AMPARAMS|DCode=91|XSize=1.2mm|YSize=1.2mm|CornerRadius=0.3mm|HoleSize=0mm|Usage=FLASHONLY|Rotation=180.000|XOffset=0mm|YOffset=0mm|HoleType=Round|Shape=RoundedRectangle|*
%AMROUNDEDRECTD91*
21,1,1.20000,0.60000,0,0,180.0*
21,1,0.60000,1.20000,0,0,180.0*
1,1,0.60000,-0.30000,0.30000*
1,1,0.60000,0.30000,0.30000*
1,1,0.60000,0.30000,-0.30000*
1,1,0.60000,-0.30000,-0.30000*
%
%ADD91ROUNDEDRECTD91*%
%ADD92R,1.20000X1.20000*%
G04:AMPARAMS|DCode=94|XSize=1mm|YSize=0.8mm|CornerRadius=0.2mm|HoleSize=0mm|Usage=FLASHONLY|Rotation=90.000|XOffset=0mm|YOffset=0mm|HoleType=Round|Shape=RoundedRectangle|*
%AMROUNDEDRECTD94*
21,1,1.00000,0.40000,0,0,90.0*
21,1,0.60000,0.80000,0,0,90.0*
1,1,0.40000,0.20000,0.30000*
1,1,0.40000,0.20000,-0.30000*
1,1,0.40000,-0.20000,-0.30000*
1,1,0.40000,-0.20000,0.30000*
%
%ADD94ROUNDEDRECTD94*%
%ADD95R,1.39700X0.63500*%
G04:AMPARAMS|DCode=96|XSize=3.06mm|YSize=0.89mm|CornerRadius=0.2225mm|HoleSize=0mm|Usage=FLASHONLY|Rotation=90.000|XOffset=0mm|YOffset=0mm|HoleType=Round|Shape=RoundedRectangle|*
%AMROUNDEDRECTD96*
21,1,3.06000,0.44500,0,0,90.0*
21,1,2.61500,0.89000,0,0,90.0*
1,1,0.44500,0.22250,1.30750*
1,1,0.44500,0.22250,-1.30750*
1,1,0.44500,-0.22250,-1.30750*
1,1,0.44500,-0.22250,1.30750*
%
%ADD96ROUNDEDRECTD96*%
%TA.AperFunction,NonConductor*%
%ADD137C,0.12700*%
%ADD156R,5.16000X3.10000*%
%ADD260R,0.50000X1.04000*%
%ADD261R,0.85000X0.85000*%
%ADD262R,0.73000X1.28000*%
%ADD263R,1.28000X0.80000*%
%ADD264R,1.24000X1.47000*%
%ADD265R,1.90500X2.28600*%
%ADD266R,2.28600X1.90500*%
%ADD267R,1.30000X1.30000*%
%ADD268R,1.30000X1.30000*%
%ADD269R,1.30000X1.30000*%
%ADD270R,1.30000X1.30000*%
%ADD271R,1.30000X1.30000*%
%ADD272R,2.57500X2.71000*%
%TA.AperFunction,SMDPad,CuDef*%
%ADD273R,0.90000X0.55000*%
%ADD274R,0.55000X0.90000*%
%ADD275R,1.90000X1.50000*%
%ADD276R,2.75000X2.25000*%
%ADD277R,2.25000X2.75000*%
G04:AMPARAMS|DCode=278|XSize=0.9mm|YSize=0.25mm|CornerRadius=0.05mm|HoleSize=0mm|Usage=FLASHONLY|Rotation=0.000|XOffset=0mm|YOffset=0mm|HoleType=Round|Shape=RoundedRectangle|*
%AMROUNDEDRECTD278*
21,1,0.90000,0.15000,0,0,0.0*
21,1,0.80000,0.25000,0,0,0.0*
1,1,0.10000,0.40000,-0.07500*
1,1,0.10000,-0.40000,-0.07500*
1,1,0.10000,-0.40000,0.07500*
1,1,0.10000,0.40000,0.07500*
%
%ADD278ROUNDEDRECTD278*%
G04:AMPARAMS|DCode=279|XSize=0.3mm|YSize=0.95mm|CornerRadius=0.0625mm|HoleSize=0mm|Usage=FLASHONLY|Rotation=0.000|XOffset=0mm|YOffset=0mm|HoleType=Round|Shape=RoundedRectangle|*
%AMROUNDEDRECTD279*
21,1,0.30000,0.82500,0,0,0.0*
21,1,0.17500,0.95000,0,0,0.0*
1,1,0.12499,0.08750,-0.41250*
1,1,0.12499,-0.08750,-0.41250*
1,1,0.12499,-0.08750,0.41250*
1,1,0.12499,0.08750,0.41250*
%
%ADD279ROUNDEDRECTD279*%
G04:AMPARAMS|DCode=280|XSize=0.3mm|YSize=0.95mm|CornerRadius=0.0625mm|HoleSize=0mm|Usage=FLASHONLY|Rotation=270.000|XOffset=0mm|YOffset=0mm|HoleType=Round|Shape=RoundedRectangle|*
%AMROUNDEDRECTD280*
21,1,0.30000,0.82500,0,0,270.0*
21,1,0.17500,0.95000,0,0,270.0*
1,1,0.12499,-0.41250,-0.08750*
1,1,0.12499,-0.41250,0.08750*
1,1,0.12499,0.41250,0.08750*
1,1,0.12499,0.41250,-0.08750*
%
%ADD280ROUNDEDRECTD280*%
%ADD281R,1.35000X2.70000*%
G04:AMPARAMS|DCode=282|XSize=0.25mm|YSize=0.4mm|CornerRadius=0.05mm|HoleSize=0mm|Usage=FLASHONLY|Rotation=90.000|XOffset=0mm|YOffset=0mm|HoleType=Round|Shape=RoundedRectangle|*
%AMROUNDEDRECTD282*
21,1,0.25000,0.30000,0,0,90.0*
21,1,0.15000,0.40000,0,0,90.0*
1,1,0.10000,0.15000,0.07500*
1,1,0.10000,0.15000,-0.07500*
1,1,0.10000,-0.15000,-0.07500*
1,1,0.10000,-0.15000,0.07500*
%
%ADD282ROUNDEDRECTD282*%
%ADD283R,0.45900X2.19900*%
G04:AMPARAMS|DCode=284|XSize=0.6mm|YSize=0.8mm|CornerRadius=0.1375mm|HoleSize=0mm|Usage=FLASHONLY|Rotation=180.000|XOffset=0mm|YOffset=0mm|HoleType=Round|Shape=RoundedRectangle|*
%AMROUNDEDRECTD284*
21,1,0.60000,0.52500,0,0,180.0*
21,1,0.32500,0.80000,0,0,180.0*
1,1,0.27500,-0.16250,0.26250*
1,1,0.27500,0.16250,0.26250*
1,1,0.27500,0.16250,-0.26250*
1,1,0.27500,-0.16250,-0.26250*
%
%ADD284ROUNDEDRECTD284*%
%ADD285R,0.95000X0.50000*%
G36*
X1436984Y9344478D02*
X1446084Y9340709D01*
X1454273Y9335237D01*
X1461237Y9328273D01*
X1466709Y9320084D01*
X1470478Y9310984D01*
X1472400Y9301325D01*
Y9296400D01*
Y9291475D01*
X1470478Y9281815D01*
X1466709Y9272716D01*
X1461237Y9264527D01*
X1454273Y9257562D01*
X1446084Y9252090D01*
X1436984Y9248321D01*
X1427325Y9246400D01*
X1417475D01*
X1407815Y9248321D01*
X1398716Y9252090D01*
X1390527Y9257562D01*
X1383562Y9264527D01*
X1378090Y9272716D01*
X1374321Y9281815D01*
X1372400Y9291475D01*
Y9296400D01*
Y9301325D01*
X1374321Y9310984D01*
X1378090Y9320084D01*
X1383562Y9328273D01*
X1390527Y9335237D01*
X1398716Y9340709D01*
X1407815Y9344478D01*
X1417475Y9346400D01*
X1427325D01*
X1436984Y9344478D01*
D02*
G37*
G36*
X19877383Y6804478D02*
X19886484Y6800709D01*
X19894673Y6795237D01*
X19901637Y6788273D01*
X19907109Y6780084D01*
X19910878Y6770984D01*
X19912801Y6761325D01*
Y6756400D01*
Y6751475D01*
X19910878Y6741815D01*
X19907109Y6732716D01*
X19901637Y6724527D01*
X19894673Y6717562D01*
X19886484Y6712090D01*
X19877383Y6708321D01*
X19867725Y6706400D01*
X19857875D01*
X19848215Y6708321D01*
X19839116Y6712090D01*
X19830927Y6717562D01*
X19823962Y6724527D01*
X19818491Y6732716D01*
X19814722Y6741815D01*
X19812801Y6751475D01*
Y6756400D01*
Y6761325D01*
X19814722Y6770984D01*
X19818491Y6780084D01*
X19823962Y6788273D01*
X19830927Y6795237D01*
X19839116Y6800709D01*
X19848215Y6804478D01*
X19857875Y6806400D01*
X19867725D01*
X19877383Y6804478D01*
D02*
G37*
G36*
X18780400Y6581400D02*
X18656400D01*
Y6659400D01*
Y6669400D01*
X18708400Y6728400D01*
X18780400D01*
Y6581400D01*
D02*
G37*
G36*
X7714911Y5999798D02*
X7729906Y5999794D01*
X7729908Y5999794D01*
X7730903Y5999796D01*
X7732742Y5999038D01*
X7734150Y5997633D01*
X7734912Y5995796D01*
Y5994801D01*
X7734918Y5970806D01*
Y5970807D01*
X7734919Y5969809D01*
X7734157Y5967965D01*
X7732746Y5966554D01*
X7730902Y5965792D01*
X7729905Y5965793D01*
X7714904Y5965793D01*
X7714905Y5965794D01*
X7713910Y5965797D01*
X7712073Y5966562D01*
X7710668Y5967971D01*
X7709908Y5969810D01*
X7709908Y5970805D01*
X7709909Y5994797D01*
X7709909Y5994797D01*
X7709909Y5995792D01*
X7710670Y5997631D01*
X7712078Y5999038D01*
X7713916Y5999799D01*
X7714911Y5999798D01*
D02*
G37*
G36*
X7664911D02*
X7679906Y5999794D01*
X7679908Y5999794D01*
X7680902Y5999796D01*
X7682742Y5999038D01*
X7684150Y5997633D01*
X7684912Y5995796D01*
Y5994801D01*
X7684917Y5970806D01*
Y5970807D01*
X7684919Y5969809D01*
X7684157Y5967965D01*
X7682746Y5966554D01*
X7680902Y5965792D01*
X7679905Y5965793D01*
X7664904Y5965793D01*
X7664905Y5965794D01*
X7663910Y5965797D01*
X7662073Y5966562D01*
X7660668Y5967971D01*
X7659907Y5969810D01*
X7659907Y5970805D01*
X7659908Y5994797D01*
X7659909Y5994797D01*
X7659908Y5995792D01*
X7660670Y5997631D01*
X7662077Y5999038D01*
X7663916Y5999799D01*
X7664911Y5999798D01*
D02*
G37*
G36*
X7768062Y5944283D02*
X7770875Y5941472D01*
X7772398Y5937799D01*
X7772399Y5935811D01*
X7772401Y5849790D01*
X7772401D01*
X7772400Y5847803D01*
X7770879Y5844132D01*
X7768069Y5841322D01*
X7764398Y5839800D01*
X7762411Y5839799D01*
X7632406Y5839794D01*
X7632405Y5839794D01*
X7630416Y5839794D01*
X7626741Y5841317D01*
X7623928Y5844130D01*
X7622406Y5847805D01*
X7622405Y5849794D01*
X7622402Y5935790D01*
X7622402Y5935789D01*
X7622400Y5937780D01*
X7623921Y5941461D01*
X7626737Y5944277D01*
X7630417Y5945799D01*
X7632408Y5945797D01*
X7762399Y5945802D01*
X7762398Y5945801D01*
X7764387Y5945802D01*
X7768062Y5944283D01*
D02*
G37*
G36*
X7762412Y5819798D02*
X7764401Y5819798D01*
X7768076Y5818275D01*
X7770889Y5815462D01*
X7772411Y5811787D01*
X7772411Y5809798D01*
X7772415Y5723802D01*
Y5723804D01*
X7772417Y5721812D01*
X7770896Y5718132D01*
X7768080Y5715315D01*
X7764400Y5713793D01*
X7762408Y5713795D01*
X7632418Y5713790D01*
X7632418Y5713791D01*
X7630430Y5713790D01*
X7626755Y5715310D01*
X7623942Y5718120D01*
X7622419Y5721793D01*
X7622418Y5723782D01*
X7622415Y5809802D01*
X7622416Y5809803D01*
X7622417Y5811789D01*
X7623938Y5815461D01*
X7626748Y5818271D01*
X7630419Y5819792D01*
X7632406Y5819793D01*
X7762411Y5819799D01*
X7762412Y5819798D01*
D02*
G37*
G36*
X7714912Y5693799D02*
X7729913Y5693799D01*
X7729912Y5693798D01*
X7730907Y5693795D01*
X7732744Y5693030D01*
X7734149Y5691621D01*
X7734909Y5689783D01*
X7734910Y5688788D01*
X7734908Y5664795D01*
X7734908D01*
X7734908Y5663800D01*
X7734147Y5661962D01*
X7732740Y5660555D01*
X7730901Y5659794D01*
X7729906Y5659794D01*
X7714911Y5659798D01*
X7714909Y5659799D01*
X7713914Y5659796D01*
X7712075Y5660554D01*
X7710667Y5661959D01*
X7709905Y5663796D01*
Y5664791D01*
X7709899Y5688786D01*
X7709899Y5688785D01*
X7709898Y5689783D01*
X7710660Y5691627D01*
X7712071Y5693038D01*
X7713915Y5693800D01*
X7714912Y5693799D01*
D02*
G37*
G36*
X7664912D02*
X7679912Y5693799D01*
X7679912Y5693798D01*
X7680907Y5693795D01*
X7682743Y5693030D01*
X7684148Y5691621D01*
X7684909Y5689783D01*
X7684909Y5688788D01*
X7684908Y5664795D01*
X7684907D01*
X7684908Y5663800D01*
X7684146Y5661962D01*
X7682739Y5660555D01*
X7680901Y5659794D01*
X7679906Y5659794D01*
X7664911Y5659798D01*
X7664909Y5659799D01*
X7663914Y5659796D01*
X7662075Y5660554D01*
X7660667Y5661959D01*
X7659904Y5663796D01*
Y5664791D01*
X7659899Y5688786D01*
X7659899Y5688785D01*
X7659898Y5689783D01*
X7660660Y5691627D01*
X7662071Y5693038D01*
X7663914Y5693800D01*
X7664912Y5693799D01*
D02*
G37*
G36*
X12444100Y4052100D02*
X12357100D01*
Y4139100D01*
X12444100D01*
Y4052100D01*
D02*
G37*
G36*
X12337100D02*
X12250100D01*
Y4139100D01*
X12337100D01*
Y4052100D01*
D02*
G37*
G36*
X12230100D02*
X12143100D01*
Y4139100D01*
X12230100D01*
Y4052100D01*
D02*
G37*
G36*
X12444100Y3945100D02*
X12357100D01*
Y4032100D01*
X12444100D01*
Y3945100D01*
D02*
G37*
G36*
X12337100D02*
X12250100D01*
Y4032100D01*
X12337100D01*
Y3945100D01*
D02*
G37*
G36*
X12230100D02*
X12143100D01*
Y4032100D01*
X12230100D01*
Y3945100D01*
D02*
G37*
G36*
X12444100Y3838100D02*
X12357100D01*
Y3925100D01*
X12444100D01*
Y3838100D01*
D02*
G37*
G36*
X12337100D02*
X12250100D01*
Y3925100D01*
X12337100D01*
Y3838100D01*
D02*
G37*
G36*
X12230100D02*
X12143100D01*
Y3925100D01*
X12230100D01*
Y3838100D01*
D02*
G37*
G36*
X11190584Y2816678D02*
X11199684Y2812909D01*
X11207873Y2807437D01*
X11214837Y2800473D01*
X11220309Y2792284D01*
X11224078Y2783184D01*
X11226000Y2773525D01*
Y2768600D01*
Y2763675D01*
X11224078Y2754015D01*
X11220309Y2744916D01*
X11214837Y2736727D01*
X11207873Y2729762D01*
X11199684Y2724290D01*
X11190584Y2720521D01*
X11180925Y2718600D01*
X11171075D01*
X11161415Y2720521D01*
X11152316Y2724290D01*
X11144127Y2729762D01*
X11137162Y2736727D01*
X11131690Y2744916D01*
X11127921Y2754015D01*
X11126000Y2763675D01*
Y2768600D01*
Y2773525D01*
X11127921Y2783184D01*
X11131690Y2792284D01*
X11137162Y2800473D01*
X11144127Y2807437D01*
X11152316Y2812909D01*
X11161415Y2816678D01*
X11171075Y2818600D01*
X11180925D01*
X11190584Y2816678D01*
D02*
G37*
G36*
X6466184Y2740478D02*
X6475284Y2736709D01*
X6483473Y2731237D01*
X6490437Y2724273D01*
X6495909Y2716084D01*
X6499678Y2706984D01*
X6501600Y2697325D01*
Y2692400D01*
Y2687475D01*
X6499678Y2677815D01*
X6495909Y2668716D01*
X6490437Y2660527D01*
X6483473Y2653562D01*
X6475284Y2648090D01*
X6466184Y2644321D01*
X6456525Y2642400D01*
X6446675D01*
X6437015Y2644321D01*
X6427916Y2648090D01*
X6419727Y2653562D01*
X6412762Y2660527D01*
X6407290Y2668716D01*
X6403521Y2677815D01*
X6401600Y2687475D01*
Y2692400D01*
Y2697325D01*
X6403521Y2706984D01*
X6407290Y2716084D01*
X6412762Y2724273D01*
X6419727Y2731237D01*
X6427916Y2736709D01*
X6437015Y2740478D01*
X6446675Y2742400D01*
X6456525D01*
X6466184Y2740478D01*
D02*
G37*
D12*
X1270000Y4775200D02*
D03*
X430000D02*
D03*
X1270000Y5994400D02*
D03*
X430000D02*
D03*
X38277802Y2844800D02*
D03*
X39117801D02*
D03*
X36753799D02*
D03*
X37593799D02*
D03*
X8104400Y2997200D02*
D03*
X7264400D02*
D03*
X8128000Y1828800D02*
D03*
X7288000D02*
D03*
D13*
X12661900Y2882900D02*
D03*
X12788900D02*
D03*
X12915900D02*
D03*
X12153900D02*
D03*
X12280900D02*
D03*
X12407900D02*
D03*
X12534900D02*
D03*
X12661900Y1993900D02*
D03*
X12788900D02*
D03*
X12915900D02*
D03*
X13042900D02*
D03*
X12153900D02*
D03*
X12280900D02*
D03*
X12407900D02*
D03*
X12534900D02*
D03*
D14*
X13042900Y2882900D02*
D03*
D15*
X60604401Y3030220D02*
D03*
Y3319780D02*
D03*
D16*
X59834802Y3225800D02*
D03*
X60154797D02*
D03*
X9644400Y3759200D02*
D03*
X9964400D02*
D03*
X14180800Y6045200D02*
D03*
X13860800D02*
D03*
X18803600Y6096000D02*
D03*
X18483600D02*
D03*
X16328198Y3548598D02*
D03*
X16648198D02*
D03*
X16812138Y3965652D02*
D03*
X17132138D02*
D03*
X18026401Y8026400D02*
D03*
X18346400D02*
D03*
X16671001Y5562600D02*
D03*
X16991000D02*
D03*
X12860001Y6146800D02*
D03*
Y5740400D02*
D03*
X12286000Y9347200D02*
D03*
X13215601D02*
D03*
X13556000Y9550400D02*
D03*
X11907500D02*
D03*
X11981200Y6146800D02*
D03*
Y5740400D02*
D03*
X12540000Y6146800D02*
D03*
Y5740400D02*
D03*
X12606000Y9347200D02*
D03*
X12895599D02*
D03*
X13875999Y9550400D02*
D03*
X11587500D02*
D03*
X12301200Y6146800D02*
D03*
Y5740400D02*
D03*
D17*
X59131201Y3030220D02*
D03*
Y3319780D02*
D03*
X58445398Y3030220D02*
D03*
Y3319780D02*
D03*
X42621201D02*
D03*
Y3030220D02*
D03*
X16712399Y7500620D02*
D03*
Y7790180D02*
D03*
X17250198Y3083778D02*
D03*
Y2794218D02*
D03*
X19201601Y5087620D02*
D03*
Y5377180D02*
D03*
X17475200Y4970780D02*
D03*
Y4681220D02*
D03*
X16154401Y4970780D02*
D03*
Y4681220D02*
D03*
X19820399Y3243580D02*
D03*
Y2954020D02*
D03*
X16154401Y5557520D02*
D03*
Y5847080D02*
D03*
X10109200Y2278380D02*
D03*
Y1988820D02*
D03*
X8788400D02*
D03*
Y2278380D02*
D03*
X16330600Y6172200D02*
D03*
X1983106Y4943870D02*
D03*
X1696806D02*
D03*
X16330600Y6461760D02*
D03*
X1983106Y4654310D02*
D03*
X1696806D02*
D03*
D18*
X57683398Y3140710D02*
D03*
Y3310890D02*
D03*
X41910001Y3315970D02*
D03*
Y3135630D02*
D03*
X8435205Y6036484D02*
D03*
Y5866304D02*
D03*
X16306000Y8729490D02*
D03*
Y8559310D02*
D03*
X8028805Y5866304D02*
D03*
Y6036484D02*
D03*
X13665199Y3387090D02*
D03*
Y3216910D02*
D03*
D19*
X56896002Y3282950D02*
D03*
Y3371850D02*
D03*
X56159399Y3282950D02*
D03*
Y3371850D02*
D03*
X55422803Y3282950D02*
D03*
Y3371850D02*
D03*
X54686200Y3282950D02*
D03*
Y3371850D02*
D03*
X53949597Y3282950D02*
D03*
Y3371850D02*
D03*
X53213000Y3282950D02*
D03*
Y3371850D02*
D03*
X51028601Y3282950D02*
D03*
Y3371850D02*
D03*
X50317401Y3282950D02*
D03*
Y3371850D02*
D03*
X49606201Y3282950D02*
D03*
Y3371850D02*
D03*
X48895001Y3282950D02*
D03*
Y3371850D02*
D03*
X48183801Y3282950D02*
D03*
Y3371850D02*
D03*
X47472601Y3282950D02*
D03*
Y3371850D02*
D03*
X46761401Y3282950D02*
D03*
Y3371850D02*
D03*
X46101001Y3282950D02*
D03*
Y3371850D02*
D03*
X45389801Y3282950D02*
D03*
Y3371850D02*
D03*
X44678601Y3282950D02*
D03*
Y3371850D02*
D03*
X43967401Y3282950D02*
D03*
Y3371850D02*
D03*
X43256201Y3282950D02*
D03*
Y3371850D02*
D03*
X35839401Y3282950D02*
D03*
Y3371850D02*
D03*
X35128201Y3282950D02*
D03*
Y3371850D02*
D03*
X34417001Y3282950D02*
D03*
Y3371850D02*
D03*
X33705801Y3282950D02*
D03*
Y3371850D02*
D03*
X32994601Y3282950D02*
D03*
Y3371850D02*
D03*
X32283401Y3282950D02*
D03*
Y3371850D02*
D03*
X31572198Y3282950D02*
D03*
Y3371850D02*
D03*
X30860999Y3282950D02*
D03*
Y3371850D02*
D03*
X30200601Y3282950D02*
D03*
Y3371850D02*
D03*
X29489401Y3282950D02*
D03*
Y3371850D02*
D03*
X28778201Y3282950D02*
D03*
Y3371850D02*
D03*
X28117801Y3282950D02*
D03*
Y3371850D02*
D03*
X27406601Y3282950D02*
D03*
Y3371850D02*
D03*
X26695401Y3282950D02*
D03*
Y3371850D02*
D03*
X25984201Y3282950D02*
D03*
Y3371850D02*
D03*
X25273000Y3282950D02*
D03*
Y3371850D02*
D03*
X24561800Y3282950D02*
D03*
Y3371850D02*
D03*
X23850600Y3282950D02*
D03*
Y3371850D02*
D03*
X23139400Y3282950D02*
D03*
Y3371850D02*
D03*
X22428200Y3282950D02*
D03*
Y3371850D02*
D03*
X21717000Y3282950D02*
D03*
Y3371850D02*
D03*
X20980400Y3282950D02*
D03*
Y3371850D02*
D03*
X9118600Y7613650D02*
D03*
Y7702550D02*
D03*
X9194800Y8096250D02*
D03*
Y8185150D02*
D03*
X9867900Y8096250D02*
D03*
Y8185150D02*
D03*
X8572500Y6686550D02*
D03*
Y6775450D02*
D03*
X3234635Y7799490D02*
D03*
Y7710590D02*
D03*
X3082235D02*
D03*
Y7799490D02*
D03*
X15137601Y8599950D02*
D03*
Y8688850D02*
D03*
X16144936Y8954999D02*
D03*
Y9043899D02*
D03*
X15594800Y7029450D02*
D03*
Y6940550D02*
D03*
X16144936Y8847049D02*
D03*
Y8758149D02*
D03*
X16509200Y8498350D02*
D03*
Y8587250D02*
D03*
X17373599Y6953250D02*
D03*
Y6864350D02*
D03*
X17475200Y6953250D02*
D03*
Y6864350D02*
D03*
X17576801Y6953250D02*
D03*
Y6864350D02*
D03*
X17678400Y6559550D02*
D03*
Y6648450D02*
D03*
Y6953250D02*
D03*
Y6864350D02*
D03*
X6959600Y5175250D02*
D03*
Y5086350D02*
D03*
X16996198Y3085048D02*
D03*
Y2996148D02*
D03*
X15951199Y5022850D02*
D03*
Y4933950D02*
D03*
X16814799Y6553200D02*
D03*
Y6642100D02*
D03*
X13055600Y4921250D02*
D03*
Y4832350D02*
D03*
X8686800Y4375150D02*
D03*
Y4464050D02*
D03*
X8002208Y5671046D02*
D03*
Y5582146D02*
D03*
X8103808Y5671046D02*
D03*
Y5582146D02*
D03*
X7392608Y5734546D02*
D03*
Y5823446D02*
D03*
X5130800Y1682750D02*
D03*
Y1771650D02*
D03*
X5740400Y2635250D02*
D03*
Y2546350D02*
D03*
X5588000Y2635250D02*
D03*
Y2546350D02*
D03*
X5892800Y2635250D02*
D03*
Y2546350D02*
D03*
X13766800Y3562350D02*
D03*
Y3651250D02*
D03*
X13665199Y3562350D02*
D03*
Y3651250D02*
D03*
X13563600Y3562350D02*
D03*
Y3651250D02*
D03*
X12113377Y3538237D02*
D03*
Y3449337D02*
D03*
X12011777Y3538237D02*
D03*
Y3449337D02*
D03*
X12214977Y3538237D02*
D03*
Y3449337D02*
D03*
X11910177Y4465337D02*
D03*
Y4554237D02*
D03*
X11808577Y4465337D02*
D03*
Y4554237D02*
D03*
X12214977Y4465337D02*
D03*
Y4554237D02*
D03*
X12113377Y4465337D02*
D03*
Y4554237D02*
D03*
X12316577Y4465337D02*
D03*
Y4554237D02*
D03*
X12011777Y4465337D02*
D03*
Y4554237D02*
D03*
X5842000Y4108450D02*
D03*
Y4019550D02*
D03*
X5740400Y4108450D02*
D03*
Y4019550D02*
D03*
X18804401Y4527550D02*
D03*
Y4616450D02*
D03*
X18906000Y4527550D02*
D03*
Y4616450D02*
D03*
X18347200Y2076450D02*
D03*
Y1987550D02*
D03*
X18448801Y2076450D02*
D03*
Y1987550D02*
D03*
X18906000Y2073150D02*
D03*
Y1984250D02*
D03*
X19007600Y2073150D02*
D03*
Y1984250D02*
D03*
X19617200Y3302000D02*
D03*
Y3213100D02*
D03*
X18601199Y4527550D02*
D03*
Y4616450D02*
D03*
X18499600Y4527550D02*
D03*
Y4616450D02*
D03*
X19972800Y3803650D02*
D03*
Y3714750D02*
D03*
Y4108450D02*
D03*
Y4019550D02*
D03*
X19515601Y4527550D02*
D03*
Y4616450D02*
D03*
X19414000Y4527550D02*
D03*
Y4616450D02*
D03*
X19217149Y4527550D02*
D03*
Y4616450D02*
D03*
X19115550Y4527550D02*
D03*
Y4616450D02*
D03*
X18296400Y4527550D02*
D03*
Y4616450D02*
D03*
X18194800Y4527550D02*
D03*
Y4616450D02*
D03*
X17585201Y4222750D02*
D03*
Y4311650D02*
D03*
Y3968750D02*
D03*
Y4057650D02*
D03*
Y3714750D02*
D03*
Y3803650D02*
D03*
X3149600Y4171950D02*
D03*
Y4260850D02*
D03*
X2844800D02*
D03*
Y4171950D02*
D03*
X2585806Y4260850D02*
D03*
Y4171950D02*
D03*
X2286000D02*
D03*
Y4260850D02*
D03*
X2438400D02*
D03*
Y4171950D02*
D03*
X15951199Y5765800D02*
D03*
Y5854700D02*
D03*
X15189200Y4743450D02*
D03*
Y4832350D02*
D03*
X15290800Y4743450D02*
D03*
Y4832350D02*
D03*
X15646400Y4222750D02*
D03*
Y4311650D02*
D03*
X15443201Y4241800D02*
D03*
Y4330700D02*
D03*
X14681200Y4235450D02*
D03*
Y4324350D02*
D03*
X14884399Y4235450D02*
D03*
Y4324350D02*
D03*
X15239999Y3168650D02*
D03*
Y3257550D02*
D03*
X15138400Y3168650D02*
D03*
Y3257550D02*
D03*
X15087601Y2432050D02*
D03*
Y2343150D02*
D03*
X15189200Y2432050D02*
D03*
Y2343150D02*
D03*
X15036800Y3168650D02*
D03*
Y3257550D02*
D03*
X15595599Y2597150D02*
D03*
Y2508250D02*
D03*
X15290800Y2432050D02*
D03*
Y2343150D02*
D03*
X15494000Y2508250D02*
D03*
Y2597150D02*
D03*
X15392400Y2343150D02*
D03*
Y2432050D02*
D03*
X15697200Y2508250D02*
D03*
Y2597150D02*
D03*
X13716000Y9201150D02*
D03*
Y9290050D02*
D03*
X13512801Y9201150D02*
D03*
Y9290050D02*
D03*
X8432800Y9036050D02*
D03*
Y8947150D02*
D03*
X9804400Y9759950D02*
D03*
Y9848850D02*
D03*
X9448800Y1479550D02*
D03*
Y1568450D02*
D03*
X9652000D02*
D03*
Y1479550D02*
D03*
X9550400Y1568450D02*
D03*
Y1479550D02*
D03*
X9347200Y1568450D02*
D03*
Y1479550D02*
D03*
X10058400Y1733550D02*
D03*
Y1822450D02*
D03*
X8839200Y1733550D02*
D03*
Y1822450D02*
D03*
X9753600Y3092450D02*
D03*
Y3181350D02*
D03*
X10414000D02*
D03*
Y3092450D02*
D03*
X5540500Y9254350D02*
D03*
Y9343250D02*
D03*
X17651277Y8772597D02*
D03*
Y8861497D02*
D03*
X9817100Y7702550D02*
D03*
X9499600Y8185150D02*
D03*
X2997200Y4171950D02*
D03*
X9804400Y8985250D02*
D03*
X10127300Y9361650D02*
D03*
X9804400Y8896350D02*
D03*
X10127300Y9272750D02*
D03*
X9817100Y7613650D02*
D03*
X9245600Y7702550D02*
D03*
Y7613650D02*
D03*
X9702800Y7702550D02*
D03*
Y7613650D02*
D03*
X9931400Y7702550D02*
D03*
Y7613650D02*
D03*
X9499600Y8096250D02*
D03*
X9474200Y7702550D02*
D03*
Y7613650D02*
D03*
X9359900Y7702550D02*
D03*
Y7613650D02*
D03*
X9004300Y7702550D02*
D03*
Y7613650D02*
D03*
X9588500Y7702550D02*
D03*
Y7613650D02*
D03*
X2997200Y4260850D02*
D03*
D20*
X52476398Y3324860D02*
D03*
Y3380740D02*
D03*
X51739801Y3324860D02*
D03*
Y3380740D02*
D03*
X4724400Y7874000D02*
D03*
Y7929880D02*
D03*
X4826000Y7868920D02*
D03*
Y7924800D02*
D03*
X4927600Y7868920D02*
D03*
Y7924800D02*
D03*
X16043336Y8948649D02*
D03*
Y9004529D02*
D03*
X15239200Y6985000D02*
D03*
Y6929120D02*
D03*
X15137601Y6985000D02*
D03*
Y6929120D02*
D03*
X15696400Y7035800D02*
D03*
Y6979920D02*
D03*
X16043336Y8824189D02*
D03*
Y8768309D02*
D03*
X4707835Y7501040D02*
D03*
Y7445160D02*
D03*
X4826000Y7467600D02*
D03*
Y7411720D02*
D03*
X19109200Y3200400D02*
D03*
Y3144520D02*
D03*
X19210800Y3200400D02*
D03*
Y3144520D02*
D03*
X18347200Y3200400D02*
D03*
Y3144520D02*
D03*
X18448801Y3200400D02*
D03*
Y3144520D02*
D03*
X18194800Y3708400D02*
D03*
Y3764280D02*
D03*
X19312399Y3731260D02*
D03*
Y3787140D02*
D03*
X18296400Y3708400D02*
D03*
Y3764280D02*
D03*
X19515601Y3307080D02*
D03*
Y3251200D02*
D03*
X19414000Y3307080D02*
D03*
Y3251200D02*
D03*
Y3731260D02*
D03*
Y3787140D02*
D03*
X19312399Y3307080D02*
D03*
Y3251200D02*
D03*
X14478000Y5069840D02*
D03*
Y5013960D02*
D03*
X15748000Y5046980D02*
D03*
Y4991100D02*
D03*
X15849600Y5046980D02*
D03*
Y4991100D02*
D03*
X14579601Y5069840D02*
D03*
Y5013960D02*
D03*
Y5826760D02*
D03*
Y5882640D02*
D03*
X15748000Y5826760D02*
D03*
Y5882640D02*
D03*
X15849600Y5318760D02*
D03*
Y5374640D02*
D03*
X14478000Y5826760D02*
D03*
Y5882640D02*
D03*
X15849600Y5826760D02*
D03*
Y5882640D02*
D03*
X15748000Y5318760D02*
D03*
Y5374640D02*
D03*
X10414000Y2905760D02*
D03*
Y2961640D02*
D03*
D21*
X39979599Y2514600D02*
D03*
X41229599D02*
D03*
D22*
X20565109Y3302000D02*
D03*
X20735291D02*
D03*
X8018718Y6286996D02*
D03*
X8188898D02*
D03*
X7758295Y6814994D02*
D03*
X7588115D02*
D03*
X7758295Y6408594D02*
D03*
X7588115D02*
D03*
D24*
X7099900Y7911810D02*
D03*
Y7821810D02*
D03*
Y8091810D02*
D03*
Y8001810D02*
D03*
Y7731810D02*
D03*
Y8181810D02*
D03*
Y7641810D02*
D03*
X8184900Y8091810D02*
D03*
Y8001810D02*
D03*
Y7911810D02*
D03*
Y7821810D02*
D03*
Y7731810D02*
D03*
Y8181810D02*
D03*
Y7641810D02*
D03*
X14152699Y5549900D02*
D03*
Y4829900D02*
D03*
Y4919900D02*
D03*
Y5009900D02*
D03*
Y5189900D02*
D03*
Y5369900D02*
D03*
Y5459900D02*
D03*
X13267700Y4829900D02*
D03*
Y5549900D02*
D03*
Y5459900D02*
D03*
Y5369900D02*
D03*
Y5279900D02*
D03*
Y5189900D02*
D03*
Y5099900D02*
D03*
Y5009900D02*
D03*
Y4919900D02*
D03*
X14152699Y5099900D02*
D03*
Y5279900D02*
D03*
X3432335Y8174840D02*
D03*
Y8084840D02*
D03*
Y7814840D02*
D03*
Y8264840D02*
D03*
X4517335Y8174840D02*
D03*
Y8084840D02*
D03*
Y7994840D02*
D03*
Y8264840D02*
D03*
X3432335Y7724840D02*
D03*
X4517335Y7904840D02*
D03*
Y7814840D02*
D03*
Y7724840D02*
D03*
X3432335Y7994840D02*
D03*
Y7904840D02*
D03*
X8871800Y4736000D02*
D03*
Y4646000D02*
D03*
Y4376000D02*
D03*
Y4826000D02*
D03*
Y4286000D02*
D03*
X9956800Y4736000D02*
D03*
Y4646000D02*
D03*
Y4556000D02*
D03*
Y4466000D02*
D03*
Y4376000D02*
D03*
Y4826000D02*
D03*
Y4286000D02*
D03*
X8871800Y4556000D02*
D03*
Y4466000D02*
D03*
D26*
X7732400Y7464310D02*
D03*
X7552400D02*
D03*
X7372400Y8349310D02*
D03*
X7462400D02*
D03*
X7552400D02*
D03*
X7642400D02*
D03*
X7732400D02*
D03*
X7822400D02*
D03*
X7912400D02*
D03*
X8002400D02*
D03*
X7282400D02*
D03*
X7912400Y7464310D02*
D03*
X7822400D02*
D03*
X7642400D02*
D03*
X7462400D02*
D03*
X7372400D02*
D03*
X7282400D02*
D03*
X8002400D02*
D03*
X13975200Y5732400D02*
D03*
X13435201D02*
D03*
X13885201D02*
D03*
X13795200D02*
D03*
X13705200D02*
D03*
X13615199D02*
D03*
X13525200D02*
D03*
X13975200Y4647400D02*
D03*
X13435201D02*
D03*
X13885201D02*
D03*
X13615199D02*
D03*
X13525200D02*
D03*
X13795200D02*
D03*
X13705200D02*
D03*
X3704835Y8432339D02*
D03*
X3794835D02*
D03*
X3884835D02*
D03*
X3974835D02*
D03*
X4064835D02*
D03*
X4154835D02*
D03*
X4244835D02*
D03*
X4334835D02*
D03*
X3614835D02*
D03*
X3974835Y7547339D02*
D03*
X3794835D02*
D03*
X3704835D02*
D03*
X3614835D02*
D03*
X4244835D02*
D03*
X4154835D02*
D03*
X4334835D02*
D03*
X4064835D02*
D03*
X3884835D02*
D03*
X9144300Y4993500D02*
D03*
X9234300D02*
D03*
X9324300D02*
D03*
X9414300D02*
D03*
X9504300D02*
D03*
X9594300D02*
D03*
X9684300D02*
D03*
X9774300D02*
D03*
X9054300D02*
D03*
X9684300Y4108500D02*
D03*
X9594300D02*
D03*
X9414300D02*
D03*
X9234300D02*
D03*
X9144300D02*
D03*
X9054300D02*
D03*
X9774300D02*
D03*
X9504300D02*
D03*
X9324300D02*
D03*
D31*
X10312400Y3700800D02*
D03*
Y4020800D02*
D03*
X11023600Y8046700D02*
D03*
Y7726700D02*
D03*
X10566400Y7739400D02*
D03*
Y8059400D02*
D03*
Y8526800D02*
D03*
Y8846800D02*
D03*
X11023600Y8526800D02*
D03*
Y8846800D02*
D03*
X3082235Y8103040D02*
D03*
Y8423040D02*
D03*
X5080000Y7670800D02*
D03*
Y7350800D02*
D03*
X19100800Y7358400D02*
D03*
Y7678400D02*
D03*
X14274800Y8999200D02*
D03*
X14681200D02*
D03*
Y6494800D02*
D03*
X14274800D02*
D03*
X8534400Y5036800D02*
D03*
X4109806Y4382810D02*
D03*
X3728806D02*
D03*
X14274800Y8679200D02*
D03*
X14681200D02*
D03*
Y6814800D02*
D03*
X14274800D02*
D03*
X8534400Y4716800D02*
D03*
X4109806Y4702810D02*
D03*
X3728806D02*
D03*
D33*
X7557408Y5829796D02*
D03*
X7837408Y5879796D02*
D03*
X7557408D02*
D03*
Y5729796D02*
D03*
Y5929796D02*
D03*
Y5779796D02*
D03*
X7837408Y5929796D02*
D03*
Y5829796D02*
D03*
Y5779796D02*
D03*
Y5729796D02*
D03*
D34*
X7137400Y7496810D02*
D03*
X3469835Y7579840D02*
D03*
X8909300Y4141000D02*
D03*
D35*
X7367400Y7951810D02*
D03*
X3699835Y8034840D02*
D03*
X9139300Y4596000D02*
D03*
D36*
X7137400Y8316810D02*
D03*
X8147400D02*
D03*
Y7496810D02*
D03*
X4479835Y8399839D02*
D03*
Y7579840D02*
D03*
X3469835Y8399839D02*
D03*
X9919300Y4961000D02*
D03*
Y4141000D02*
D03*
X8909300Y4961000D02*
D03*
D37*
X7867400Y7722810D02*
D03*
Y8089810D02*
D03*
X4199835Y8172840D02*
D03*
Y7805840D02*
D03*
X9639300Y4367000D02*
D03*
Y4734000D02*
D03*
D38*
X8807450Y5880100D02*
D03*
X8718550D02*
D03*
X8807450Y5994400D02*
D03*
X8718550D02*
D03*
X8807450Y5778500D02*
D03*
X8718550D02*
D03*
X8807450Y6108700D02*
D03*
X8718550D02*
D03*
X8807450Y6223000D02*
D03*
X8718550D02*
D03*
X8807450Y6565900D02*
D03*
X8718550D02*
D03*
X8807450Y6451600D02*
D03*
X8718550D02*
D03*
X8807450Y6337300D02*
D03*
X8718550D02*
D03*
X9859010Y6230173D02*
D03*
X9770110D02*
D03*
X8718550Y5664200D02*
D03*
X8807450D02*
D03*
X9302750Y7315200D02*
D03*
X9391650D02*
D03*
X9556750D02*
D03*
X9645650D02*
D03*
X9810750D02*
D03*
X9899650D02*
D03*
X8718550Y6908800D02*
D03*
X8807450D02*
D03*
X8718550Y6794500D02*
D03*
X8807450D02*
D03*
X3679135Y8618640D02*
D03*
X3590235D02*
D03*
X16210750Y7747000D02*
D03*
X16299651D02*
D03*
X16165030Y8085600D02*
D03*
X16253931D02*
D03*
X14941550Y7899400D02*
D03*
X14852650D02*
D03*
X14941550Y8001000D02*
D03*
X14852650D02*
D03*
X11699977Y6299987D02*
D03*
X11611077D02*
D03*
X18747250Y5080000D02*
D03*
X18658350D02*
D03*
X3194050Y1524000D02*
D03*
X3105150D02*
D03*
X1784350Y2844800D02*
D03*
X1873250D02*
D03*
X18605499Y6451600D02*
D03*
X18694400D02*
D03*
X17672050Y6756400D02*
D03*
X17583150D02*
D03*
X18027650Y6451600D02*
D03*
X17938750D02*
D03*
X6546850Y3860800D02*
D03*
X6457950D02*
D03*
Y4368800D02*
D03*
X6546850D02*
D03*
X17080087Y4321252D02*
D03*
X17168988D02*
D03*
X16876888D02*
D03*
X16965788D02*
D03*
X16922749Y5130800D02*
D03*
X17011650D02*
D03*
X12706350Y3810000D02*
D03*
X12795250D02*
D03*
X3596585Y7297840D02*
D03*
X3685485D02*
D03*
X3799785D02*
D03*
X3888685D02*
D03*
X9137650Y5181600D02*
D03*
X9048750D02*
D03*
X9099550Y3911600D02*
D03*
X9188450D02*
D03*
X9353550D02*
D03*
X9442450D02*
D03*
X7551358Y6083796D02*
D03*
X7640258D02*
D03*
X7386258Y5931396D02*
D03*
X7297358D02*
D03*
X7791450Y5575300D02*
D03*
X7880350D02*
D03*
X6242050Y1828800D02*
D03*
X6153150D02*
D03*
X5022850Y2641600D02*
D03*
X4933950D02*
D03*
X5340350D02*
D03*
X5429250D02*
D03*
Y2489200D02*
D03*
X5340350D02*
D03*
X13455650Y3149600D02*
D03*
X13366750D02*
D03*
X13404849Y3911600D02*
D03*
X13315950D02*
D03*
X12468977Y4357387D02*
D03*
X12557877D02*
D03*
X13252451Y2946400D02*
D03*
X13341350D02*
D03*
X11995150Y2933700D02*
D03*
X11906250D02*
D03*
X11853027Y3849387D02*
D03*
X11764127D02*
D03*
X11853027Y3950987D02*
D03*
X11764127D02*
D03*
X11853027Y4052587D02*
D03*
X11764127D02*
D03*
X11853027Y4154187D02*
D03*
X11764127D02*
D03*
X12706350Y3911600D02*
D03*
X12795250D02*
D03*
X11853027Y3747787D02*
D03*
X11764127D02*
D03*
X12706350Y4114800D02*
D03*
X12795250D02*
D03*
X12706350Y4216400D02*
D03*
X12795250D02*
D03*
X12706350Y4318000D02*
D03*
X12795250D02*
D03*
X12706350Y4419600D02*
D03*
X12795250D02*
D03*
X12706350Y4013200D02*
D03*
X12795250D02*
D03*
X11853027Y4255787D02*
D03*
X11764127D02*
D03*
X5429250Y3962400D02*
D03*
X5340350D02*
D03*
X5543550D02*
D03*
X5632450D02*
D03*
X18810750Y4724400D02*
D03*
X18899651D02*
D03*
X18340849Y1828800D02*
D03*
X18251950D02*
D03*
X18505949D02*
D03*
X18594850D02*
D03*
X18347200Y2184400D02*
D03*
X18436099D02*
D03*
X19001250D02*
D03*
X18912350D02*
D03*
X19318750Y3556000D02*
D03*
X19407651D02*
D03*
X19318750Y3454400D02*
D03*
X19407651D02*
D03*
X18798050Y3048000D02*
D03*
X18709151D02*
D03*
X18798050Y3149600D02*
D03*
X18709151D02*
D03*
X19013950Y1828800D02*
D03*
X19102850D02*
D03*
X18899651D02*
D03*
X18810750D02*
D03*
X19204449Y1117600D02*
D03*
X19115550D02*
D03*
X18150349Y1168400D02*
D03*
X18239250D02*
D03*
X18505949Y4724400D02*
D03*
X18594850D02*
D03*
X19775951Y3708400D02*
D03*
X19864850D02*
D03*
X19775951Y3810000D02*
D03*
X19864850D02*
D03*
Y4013200D02*
D03*
X19775951D02*
D03*
Y4114800D02*
D03*
X19864850D02*
D03*
X19115550Y4724400D02*
D03*
X19204449D02*
D03*
X19509250D02*
D03*
X19420351D02*
D03*
X18201151D02*
D03*
X18290050D02*
D03*
X17782050Y4318000D02*
D03*
X17693150D02*
D03*
X17782050Y4216400D02*
D03*
X17693150D02*
D03*
X17782050Y4064000D02*
D03*
X17693150D02*
D03*
X17782050Y3962400D02*
D03*
X17693150D02*
D03*
Y3810000D02*
D03*
X17782050D02*
D03*
X17693150Y3708400D02*
D03*
X17782050D02*
D03*
X15297150Y4584700D02*
D03*
X15386050D02*
D03*
X15182851D02*
D03*
X15093950D02*
D03*
X15500349Y4432300D02*
D03*
X15589250D02*
D03*
X14738350D02*
D03*
X14827251D02*
D03*
X14776450Y2857500D02*
D03*
X14687550D02*
D03*
X14776450Y2755900D02*
D03*
X14687550D02*
D03*
X15589250Y2705100D02*
D03*
X15500349D02*
D03*
X15589250Y2806700D02*
D03*
X15500349D02*
D03*
Y2908300D02*
D03*
X15589250D02*
D03*
X16046449Y1066800D02*
D03*
X15957550D02*
D03*
X14839951Y2146300D02*
D03*
X14928850D02*
D03*
Y2044700D02*
D03*
X14839951D02*
D03*
X14827251Y1066800D02*
D03*
X14738350D02*
D03*
X14839951Y2451100D02*
D03*
X14928850D02*
D03*
Y2247900D02*
D03*
X14839951D02*
D03*
X14928850Y2349500D02*
D03*
X14839951D02*
D03*
X7880350Y8686800D02*
D03*
X7969250D02*
D03*
X11893550Y9194800D02*
D03*
X11982450D02*
D03*
X11728450D02*
D03*
X11639550D02*
D03*
X13658850Y6299200D02*
D03*
X13569949D02*
D03*
X8680450Y8686800D02*
D03*
X8591550D02*
D03*
X9912350Y2628900D02*
D03*
X10001250D02*
D03*
X10064750Y2438400D02*
D03*
X10153650D02*
D03*
X8832850D02*
D03*
X8743950D02*
D03*
X4413250Y1524000D02*
D03*
X4324350D02*
D03*
X4375150Y304800D02*
D03*
X4464050D02*
D03*
X5804150Y9095600D02*
D03*
X5893050D02*
D03*
X5804150Y9603600D02*
D03*
X5893050D02*
D03*
X17911627Y8613847D02*
D03*
X18000526D02*
D03*
X17911627Y9121847D02*
D03*
X18000526D02*
D03*
X10214610Y6230173D02*
D03*
X8388350Y6223000D02*
D03*
Y6553200D02*
D03*
X8451850Y7073900D02*
D03*
Y7315200D02*
D03*
X10494010Y6230173D02*
D03*
X10153650Y7315200D02*
D03*
X9086850D02*
D03*
X9389110Y6230173D02*
D03*
X9681210D02*
D03*
X4730750Y3810000D02*
D03*
Y3708400D02*
D03*
X3105150Y304800D02*
D03*
X4819650Y3810000D02*
D03*
Y3708400D02*
D03*
X3194050Y304800D02*
D03*
X10303510Y6230173D02*
D03*
X8477250Y6223000D02*
D03*
Y6553200D02*
D03*
X8540750Y7073900D02*
D03*
Y7315200D02*
D03*
X8718550Y6680200D02*
D03*
X8807450D02*
D03*
X10405110Y6230173D02*
D03*
X10064750Y7315200D02*
D03*
X9175750D02*
D03*
X9478010Y6230173D02*
D03*
X9592310D02*
D03*
X8718550Y7023100D02*
D03*
X8807450D02*
D03*
X8718550Y7366000D02*
D03*
X8807450D02*
D03*
X8718550Y7251700D02*
D03*
X8807450D02*
D03*
X8718550Y7137400D02*
D03*
X8807450D02*
D03*
D39*
X9359981Y6439986D02*
D03*
Y7079986D02*
D03*
X9519981Y6439986D02*
D03*
Y7079986D02*
D03*
X9679981Y6439986D02*
D03*
Y7079986D02*
D03*
X9919981Y6519986D02*
D03*
Y6999986D02*
D03*
X10079981Y6439986D02*
D03*
Y6519986D02*
D03*
Y7079986D02*
D03*
X10159981Y6439986D02*
D03*
X10239981Y6519986D02*
D03*
Y6999986D02*
D03*
Y7079986D02*
D03*
X10319981Y6519986D02*
D03*
Y7079986D02*
D03*
X10479981Y6439986D02*
D03*
Y6919986D02*
D03*
Y7079986D02*
D03*
X10559981Y6439986D02*
D03*
X9359981Y6519986D02*
D03*
Y6599986D02*
D03*
Y6919986D02*
D03*
Y6999986D02*
D03*
X9439981Y6439986D02*
D03*
Y6519986D02*
D03*
Y6599986D02*
D03*
Y6919986D02*
D03*
Y6999986D02*
D03*
Y7079986D02*
D03*
X9519981Y6519986D02*
D03*
Y6599986D02*
D03*
Y6919986D02*
D03*
Y6999986D02*
D03*
X9599981Y6439986D02*
D03*
Y6519986D02*
D03*
Y6599986D02*
D03*
Y6919986D02*
D03*
Y6999986D02*
D03*
Y7079986D02*
D03*
X9679981Y6519986D02*
D03*
Y6599986D02*
D03*
Y6919986D02*
D03*
Y6999986D02*
D03*
X9759981Y6439986D02*
D03*
Y6519986D02*
D03*
Y6599986D02*
D03*
Y6919986D02*
D03*
Y6999986D02*
D03*
Y7079986D02*
D03*
X9839981Y6439986D02*
D03*
Y6519986D02*
D03*
Y6599986D02*
D03*
Y6919986D02*
D03*
Y6999986D02*
D03*
Y7079986D02*
D03*
X9919981Y6439986D02*
D03*
Y6599986D02*
D03*
Y6919986D02*
D03*
Y7079986D02*
D03*
X9999981Y6439986D02*
D03*
Y6519986D02*
D03*
Y6599986D02*
D03*
Y6919986D02*
D03*
Y6999986D02*
D03*
Y7079986D02*
D03*
X10079981Y6599986D02*
D03*
Y6919986D02*
D03*
Y6999986D02*
D03*
X10159981Y6519986D02*
D03*
Y6599986D02*
D03*
Y6919986D02*
D03*
Y6999986D02*
D03*
Y7079986D02*
D03*
X10239981Y6439986D02*
D03*
Y6599986D02*
D03*
Y6919986D02*
D03*
X10319981Y6439986D02*
D03*
Y6599986D02*
D03*
Y6919986D02*
D03*
Y6999986D02*
D03*
X10399981Y6439986D02*
D03*
Y6519986D02*
D03*
Y6599986D02*
D03*
Y6919986D02*
D03*
Y6999986D02*
D03*
Y7079986D02*
D03*
X10479981Y6519986D02*
D03*
Y6599986D02*
D03*
Y6999986D02*
D03*
X10559981Y6519986D02*
D03*
Y6599986D02*
D03*
Y6919986D02*
D03*
Y6999986D02*
D03*
Y7079986D02*
D03*
X13899977Y6499987D02*
D03*
Y8999987D02*
D03*
X13799977Y6999987D02*
D03*
Y7399987D02*
D03*
Y7799987D02*
D03*
Y8199987D02*
D03*
Y8599987D02*
D03*
X13599977Y6799987D02*
D03*
Y7199987D02*
D03*
Y8399987D02*
D03*
X13499977Y6599987D02*
D03*
Y7599987D02*
D03*
Y7999987D02*
D03*
X13399977Y8899987D02*
D03*
X13299977Y6899987D02*
D03*
Y8399987D02*
D03*
X13199977Y7299987D02*
D03*
Y7899987D02*
D03*
Y8699987D02*
D03*
X13099977Y6599987D02*
D03*
X12999977Y8899987D02*
D03*
X12899977Y6899987D02*
D03*
Y7199987D02*
D03*
Y7499987D02*
D03*
Y7699987D02*
D03*
Y7899987D02*
D03*
Y8099987D02*
D03*
Y8399987D02*
D03*
X12799977Y7599987D02*
D03*
Y7799987D02*
D03*
Y7999987D02*
D03*
Y8599987D02*
D03*
X12699977Y6599987D02*
D03*
Y7499987D02*
D03*
Y7699987D02*
D03*
Y7899987D02*
D03*
X12599977Y7599987D02*
D03*
Y7799987D02*
D03*
Y7999987D02*
D03*
Y8899987D02*
D03*
X12499977Y6899987D02*
D03*
Y7499987D02*
D03*
Y7699987D02*
D03*
Y7899987D02*
D03*
Y8299987D02*
D03*
X12399977Y7399987D02*
D03*
Y7599987D02*
D03*
Y7799987D02*
D03*
Y7999987D02*
D03*
Y8599987D02*
D03*
X12299977Y6599987D02*
D03*
X12199977Y8899987D02*
D03*
X12099977Y6999987D02*
D03*
Y7299987D02*
D03*
Y7799987D02*
D03*
X11999977Y8299987D02*
D03*
Y8599987D02*
D03*
X11899977Y6599987D02*
D03*
Y7999987D02*
D03*
X11799977Y6899987D02*
D03*
Y7599987D02*
D03*
Y8899987D02*
D03*
X11699977Y7199987D02*
D03*
Y8399987D02*
D03*
Y8799987D02*
D03*
X11499977Y6999987D02*
D03*
Y7399987D02*
D03*
Y7799987D02*
D03*
Y8199987D02*
D03*
Y8599987D02*
D03*
X11399977Y6499987D02*
D03*
Y8999987D02*
D03*
X13399977Y7699987D02*
D03*
X13799977Y6799987D02*
D03*
Y7199987D02*
D03*
Y7599987D02*
D03*
Y7999987D02*
D03*
Y8399987D02*
D03*
Y8799987D02*
D03*
X13699977Y6599987D02*
D03*
X13599977Y6999987D02*
D03*
Y7399987D02*
D03*
Y7799987D02*
D03*
Y8299987D02*
D03*
X13499977Y7499987D02*
D03*
X13399977Y6999987D02*
D03*
Y7299987D02*
D03*
Y8099987D02*
D03*
Y8299987D02*
D03*
Y8499987D02*
D03*
Y8699987D02*
D03*
X13299977Y6599987D02*
D03*
Y7599987D02*
D03*
Y7999987D02*
D03*
X13199977Y8899987D02*
D03*
X13099977Y6799987D02*
D03*
Y7299987D02*
D03*
Y7799987D02*
D03*
Y8199987D02*
D03*
X12999977Y7099987D02*
D03*
Y7699987D02*
D03*
Y8499987D02*
D03*
Y8699987D02*
D03*
X12899977Y6599987D02*
D03*
X12799977Y7099987D02*
D03*
Y8399987D02*
D03*
Y8899987D02*
D03*
X12699977Y6899987D02*
D03*
Y7399987D02*
D03*
X12599977Y7199987D02*
D03*
Y8099987D02*
D03*
Y8599987D02*
D03*
X12499977Y6599987D02*
D03*
Y7099987D02*
D03*
X12399977Y8499987D02*
D03*
Y8899987D02*
D03*
X12299977Y6799987D02*
D03*
Y7599987D02*
D03*
Y8399987D02*
D03*
X12199977Y7099987D02*
D03*
Y7299987D02*
D03*
Y8099987D02*
D03*
Y8699987D02*
D03*
X12099977Y6599987D02*
D03*
Y8399987D02*
D03*
X11999977Y7599987D02*
D03*
Y8899987D02*
D03*
X11899977Y6999987D02*
D03*
Y8199987D02*
D03*
Y8499987D02*
D03*
Y8699987D02*
D03*
X11799977Y6699987D02*
D03*
Y7499987D02*
D03*
X11699977Y7799987D02*
D03*
Y8299987D02*
D03*
Y8599987D02*
D03*
X11499977Y7999987D02*
D03*
Y8399987D02*
D03*
Y8799987D02*
D03*
X13899977Y6599987D02*
D03*
Y6799987D02*
D03*
Y6699987D02*
D03*
Y6899987D02*
D03*
Y6999987D02*
D03*
Y7199987D02*
D03*
Y7299987D02*
D03*
Y7399987D02*
D03*
Y7599987D02*
D03*
Y7499987D02*
D03*
Y7099987D02*
D03*
Y7699987D02*
D03*
Y7799987D02*
D03*
Y7899987D02*
D03*
Y7999987D02*
D03*
Y8199987D02*
D03*
Y8099987D02*
D03*
Y8299987D02*
D03*
Y8699987D02*
D03*
Y8799987D02*
D03*
Y8599987D02*
D03*
Y8499987D02*
D03*
Y8399987D02*
D03*
Y8899987D02*
D03*
X13799977Y6499987D02*
D03*
Y6599987D02*
D03*
Y6699987D02*
D03*
Y6899987D02*
D03*
Y7099987D02*
D03*
Y7299987D02*
D03*
Y7499987D02*
D03*
Y7699987D02*
D03*
Y7899987D02*
D03*
Y8099987D02*
D03*
Y8299987D02*
D03*
Y8499987D02*
D03*
Y8699987D02*
D03*
Y8899987D02*
D03*
Y8999987D02*
D03*
X13699977Y6499987D02*
D03*
Y6699987D02*
D03*
Y6799987D02*
D03*
Y6899987D02*
D03*
Y6999987D02*
D03*
Y7099987D02*
D03*
Y7199987D02*
D03*
Y7299987D02*
D03*
Y7399987D02*
D03*
Y7499987D02*
D03*
Y7599987D02*
D03*
Y7699987D02*
D03*
Y7799987D02*
D03*
Y7899987D02*
D03*
Y7999987D02*
D03*
Y8099987D02*
D03*
Y8199987D02*
D03*
Y8299987D02*
D03*
Y8399987D02*
D03*
Y8499987D02*
D03*
Y8599987D02*
D03*
Y8699987D02*
D03*
Y8799987D02*
D03*
Y8899987D02*
D03*
Y8999987D02*
D03*
X13599977Y6499987D02*
D03*
Y6599987D02*
D03*
Y6699987D02*
D03*
Y6899987D02*
D03*
Y7099987D02*
D03*
Y7299987D02*
D03*
Y7499987D02*
D03*
Y7599987D02*
D03*
Y7699987D02*
D03*
Y7899987D02*
D03*
Y7999987D02*
D03*
Y8099987D02*
D03*
Y8199987D02*
D03*
Y8499987D02*
D03*
Y8599987D02*
D03*
Y8699987D02*
D03*
Y8799987D02*
D03*
Y8899987D02*
D03*
Y8999987D02*
D03*
X13499977Y6499987D02*
D03*
Y6699987D02*
D03*
Y6799987D02*
D03*
Y6899987D02*
D03*
Y6999987D02*
D03*
Y7099987D02*
D03*
Y7199987D02*
D03*
Y7299987D02*
D03*
Y7399987D02*
D03*
Y7699987D02*
D03*
Y7799987D02*
D03*
Y7899987D02*
D03*
Y8099987D02*
D03*
Y8199987D02*
D03*
Y8299987D02*
D03*
Y8399987D02*
D03*
Y8499987D02*
D03*
Y8599987D02*
D03*
Y8699987D02*
D03*
Y8799987D02*
D03*
Y8899987D02*
D03*
Y8999987D02*
D03*
X13399977Y6499987D02*
D03*
Y6599987D02*
D03*
Y6699987D02*
D03*
Y6799987D02*
D03*
Y6899987D02*
D03*
Y7099987D02*
D03*
Y7199987D02*
D03*
Y7399987D02*
D03*
Y7499987D02*
D03*
Y7599987D02*
D03*
Y7799987D02*
D03*
Y7899987D02*
D03*
Y7999987D02*
D03*
Y8199987D02*
D03*
Y8399987D02*
D03*
Y8599987D02*
D03*
Y8799987D02*
D03*
Y8999987D02*
D03*
X13299977Y6499987D02*
D03*
Y6699987D02*
D03*
Y6799987D02*
D03*
Y6999987D02*
D03*
Y7099987D02*
D03*
Y7199987D02*
D03*
Y7299987D02*
D03*
Y7399987D02*
D03*
Y7499987D02*
D03*
Y7699987D02*
D03*
Y7799987D02*
D03*
Y7899987D02*
D03*
Y8099987D02*
D03*
Y8199987D02*
D03*
Y8299987D02*
D03*
Y8499987D02*
D03*
Y8599987D02*
D03*
Y8699987D02*
D03*
Y8799987D02*
D03*
Y8899987D02*
D03*
Y8999987D02*
D03*
X13199977Y6499987D02*
D03*
Y6599987D02*
D03*
Y6699987D02*
D03*
Y6799987D02*
D03*
Y6899987D02*
D03*
Y6999987D02*
D03*
Y7099987D02*
D03*
Y7199987D02*
D03*
Y7399987D02*
D03*
Y7499987D02*
D03*
Y7599987D02*
D03*
Y7699987D02*
D03*
Y7799987D02*
D03*
Y7999987D02*
D03*
Y8099987D02*
D03*
Y8199987D02*
D03*
Y8299987D02*
D03*
Y8399987D02*
D03*
Y8499987D02*
D03*
Y8599987D02*
D03*
Y8799987D02*
D03*
Y8999987D02*
D03*
X13099977Y6499987D02*
D03*
Y6699987D02*
D03*
Y6899987D02*
D03*
Y6999987D02*
D03*
Y7099987D02*
D03*
Y7199987D02*
D03*
Y7399987D02*
D03*
Y7499987D02*
D03*
Y7599987D02*
D03*
Y7699987D02*
D03*
Y7899987D02*
D03*
Y7999987D02*
D03*
Y8099987D02*
D03*
Y8299987D02*
D03*
Y8399987D02*
D03*
Y8499987D02*
D03*
Y8599987D02*
D03*
Y8699987D02*
D03*
Y8799987D02*
D03*
Y8899987D02*
D03*
Y8999987D02*
D03*
X12999977Y6499987D02*
D03*
Y6599987D02*
D03*
Y6699987D02*
D03*
Y6799987D02*
D03*
Y6899987D02*
D03*
Y6999987D02*
D03*
Y7199987D02*
D03*
Y7299987D02*
D03*
Y7399987D02*
D03*
Y7499987D02*
D03*
Y7599987D02*
D03*
Y7799987D02*
D03*
Y7899987D02*
D03*
Y7999987D02*
D03*
Y8099987D02*
D03*
Y8199987D02*
D03*
Y8299987D02*
D03*
Y8399987D02*
D03*
Y8599987D02*
D03*
Y8799987D02*
D03*
Y8999987D02*
D03*
X12899977Y6499987D02*
D03*
Y6699987D02*
D03*
Y6799987D02*
D03*
Y6999987D02*
D03*
Y7099987D02*
D03*
Y7299987D02*
D03*
Y7399987D02*
D03*
Y7599987D02*
D03*
Y7799987D02*
D03*
Y7999987D02*
D03*
Y8199987D02*
D03*
Y8299987D02*
D03*
Y8499987D02*
D03*
Y8599987D02*
D03*
Y8699987D02*
D03*
Y8799987D02*
D03*
Y8899987D02*
D03*
Y8999987D02*
D03*
X12799977Y6499987D02*
D03*
Y6599987D02*
D03*
Y6699987D02*
D03*
Y6799987D02*
D03*
Y6899987D02*
D03*
Y6999987D02*
D03*
Y7199987D02*
D03*
Y7299987D02*
D03*
Y7399987D02*
D03*
Y7499987D02*
D03*
Y7699987D02*
D03*
Y7899987D02*
D03*
Y8099987D02*
D03*
Y8199987D02*
D03*
Y8299987D02*
D03*
Y8499987D02*
D03*
Y8699987D02*
D03*
Y8799987D02*
D03*
Y8999987D02*
D03*
X12699977Y6499987D02*
D03*
Y6699987D02*
D03*
Y6799987D02*
D03*
Y6999987D02*
D03*
Y7099987D02*
D03*
Y7199987D02*
D03*
Y7299987D02*
D03*
Y7599987D02*
D03*
Y7799987D02*
D03*
Y7999987D02*
D03*
Y8099987D02*
D03*
Y8199987D02*
D03*
Y8299987D02*
D03*
Y8399987D02*
D03*
Y8499987D02*
D03*
Y8599987D02*
D03*
Y8699987D02*
D03*
Y8799987D02*
D03*
Y8899987D02*
D03*
Y8999987D02*
D03*
X12599977Y6499987D02*
D03*
Y6599987D02*
D03*
Y6699987D02*
D03*
Y6799987D02*
D03*
Y6899987D02*
D03*
Y6999987D02*
D03*
Y7099987D02*
D03*
Y7299987D02*
D03*
Y7399987D02*
D03*
Y7499987D02*
D03*
Y7699987D02*
D03*
Y7899987D02*
D03*
Y8199987D02*
D03*
Y8299987D02*
D03*
Y8399987D02*
D03*
Y8499987D02*
D03*
Y8699987D02*
D03*
Y8799987D02*
D03*
Y8999987D02*
D03*
X12499977Y6499987D02*
D03*
Y6699987D02*
D03*
Y6799987D02*
D03*
Y6999987D02*
D03*
Y7199987D02*
D03*
Y7299987D02*
D03*
Y7399987D02*
D03*
Y7599987D02*
D03*
Y7799987D02*
D03*
Y7999987D02*
D03*
Y8099987D02*
D03*
Y8199987D02*
D03*
Y8399987D02*
D03*
Y8499987D02*
D03*
Y8599987D02*
D03*
Y8699987D02*
D03*
Y8799987D02*
D03*
Y8899987D02*
D03*
Y8999987D02*
D03*
X12399977Y6499987D02*
D03*
Y6599987D02*
D03*
Y6699987D02*
D03*
Y6799987D02*
D03*
Y6899987D02*
D03*
Y6999987D02*
D03*
Y7099987D02*
D03*
Y7199987D02*
D03*
Y7299987D02*
D03*
Y7499987D02*
D03*
Y7699987D02*
D03*
Y7899987D02*
D03*
Y8099987D02*
D03*
Y8199987D02*
D03*
Y8299987D02*
D03*
Y8399987D02*
D03*
Y8699987D02*
D03*
Y8799987D02*
D03*
Y8999987D02*
D03*
X12299977Y6499987D02*
D03*
Y6699987D02*
D03*
Y6899987D02*
D03*
Y6999987D02*
D03*
Y7099987D02*
D03*
Y7199987D02*
D03*
Y7299987D02*
D03*
Y7399987D02*
D03*
Y7499987D02*
D03*
Y7699987D02*
D03*
Y7799987D02*
D03*
Y7899987D02*
D03*
Y7999987D02*
D03*
Y8099987D02*
D03*
Y8199987D02*
D03*
Y8299987D02*
D03*
Y8499987D02*
D03*
Y8599987D02*
D03*
Y8699987D02*
D03*
Y8799987D02*
D03*
Y8899987D02*
D03*
Y8999987D02*
D03*
X12199977Y6499987D02*
D03*
Y6599987D02*
D03*
Y6699987D02*
D03*
Y6799987D02*
D03*
Y6899987D02*
D03*
Y6999987D02*
D03*
Y7199987D02*
D03*
Y7399987D02*
D03*
Y7499987D02*
D03*
Y7599987D02*
D03*
Y7699987D02*
D03*
Y7799987D02*
D03*
Y7899987D02*
D03*
Y7999987D02*
D03*
Y8199987D02*
D03*
Y8299987D02*
D03*
Y8399987D02*
D03*
Y8499987D02*
D03*
Y8599987D02*
D03*
Y8799987D02*
D03*
Y8999987D02*
D03*
X12099977Y6499987D02*
D03*
Y6699987D02*
D03*
Y6799987D02*
D03*
Y6899987D02*
D03*
Y7099987D02*
D03*
Y7199987D02*
D03*
Y7399987D02*
D03*
Y7499987D02*
D03*
Y7599987D02*
D03*
Y7699987D02*
D03*
Y7899987D02*
D03*
Y7999987D02*
D03*
Y8099987D02*
D03*
Y8199987D02*
D03*
Y8299987D02*
D03*
Y8499987D02*
D03*
Y8599987D02*
D03*
Y8699987D02*
D03*
Y8799987D02*
D03*
Y8899987D02*
D03*
Y8999987D02*
D03*
X11999977Y6499987D02*
D03*
Y6599987D02*
D03*
Y6699987D02*
D03*
Y6799987D02*
D03*
Y6899987D02*
D03*
Y6999987D02*
D03*
Y7099987D02*
D03*
Y7199987D02*
D03*
Y7299987D02*
D03*
Y7399987D02*
D03*
Y7499987D02*
D03*
Y7699987D02*
D03*
Y7799987D02*
D03*
Y7899987D02*
D03*
Y7999987D02*
D03*
Y8099987D02*
D03*
Y8199987D02*
D03*
Y8399987D02*
D03*
Y8499987D02*
D03*
Y8699987D02*
D03*
Y8799987D02*
D03*
Y8999987D02*
D03*
X11899977Y6499987D02*
D03*
Y6699987D02*
D03*
Y6799987D02*
D03*
Y6899987D02*
D03*
Y7099987D02*
D03*
Y7199987D02*
D03*
Y7299987D02*
D03*
Y7399987D02*
D03*
Y7499987D02*
D03*
Y7599987D02*
D03*
Y7699987D02*
D03*
Y7799987D02*
D03*
Y7899987D02*
D03*
Y8099987D02*
D03*
Y8299987D02*
D03*
Y8399987D02*
D03*
Y8599987D02*
D03*
Y8799987D02*
D03*
Y8899987D02*
D03*
Y8999987D02*
D03*
X11799977Y6499987D02*
D03*
Y6599987D02*
D03*
Y6799987D02*
D03*
Y6999987D02*
D03*
Y7099987D02*
D03*
Y7199987D02*
D03*
Y7299987D02*
D03*
Y7399987D02*
D03*
Y7699987D02*
D03*
Y7799987D02*
D03*
Y7899987D02*
D03*
Y7999987D02*
D03*
Y8099987D02*
D03*
Y8199987D02*
D03*
Y8299987D02*
D03*
Y8399987D02*
D03*
Y8499987D02*
D03*
Y8599987D02*
D03*
Y8699987D02*
D03*
Y8799987D02*
D03*
Y8999987D02*
D03*
X11699977Y6499987D02*
D03*
Y6599987D02*
D03*
Y6699987D02*
D03*
Y6799987D02*
D03*
Y6899987D02*
D03*
Y6999987D02*
D03*
Y7099987D02*
D03*
Y7299987D02*
D03*
Y7399987D02*
D03*
Y7499987D02*
D03*
Y7599987D02*
D03*
Y7699987D02*
D03*
Y7899987D02*
D03*
Y7999987D02*
D03*
Y8099987D02*
D03*
Y8199987D02*
D03*
Y8499987D02*
D03*
Y8699987D02*
D03*
Y8899987D02*
D03*
Y8999987D02*
D03*
X11599977Y6499987D02*
D03*
Y6599987D02*
D03*
Y6699987D02*
D03*
Y6799987D02*
D03*
Y6899987D02*
D03*
Y6999987D02*
D03*
Y7099987D02*
D03*
Y7199987D02*
D03*
Y7299987D02*
D03*
Y7399987D02*
D03*
Y7499987D02*
D03*
Y7599987D02*
D03*
Y7699987D02*
D03*
Y7799987D02*
D03*
Y7899987D02*
D03*
Y7999987D02*
D03*
Y8099987D02*
D03*
Y8199987D02*
D03*
Y8299987D02*
D03*
Y8399987D02*
D03*
Y8499987D02*
D03*
Y8599987D02*
D03*
Y8699987D02*
D03*
Y8799987D02*
D03*
Y8899987D02*
D03*
Y8999987D02*
D03*
X11499977Y6499987D02*
D03*
Y6599987D02*
D03*
Y6699987D02*
D03*
Y6799987D02*
D03*
Y6899987D02*
D03*
Y7099987D02*
D03*
Y7199987D02*
D03*
Y7299987D02*
D03*
Y7499987D02*
D03*
Y7599987D02*
D03*
Y7699987D02*
D03*
Y7899987D02*
D03*
Y8099987D02*
D03*
Y8299987D02*
D03*
Y8499987D02*
D03*
Y8699987D02*
D03*
Y8899987D02*
D03*
Y8999987D02*
D03*
X11399977Y6599987D02*
D03*
Y6699987D02*
D03*
Y6799987D02*
D03*
Y6899987D02*
D03*
Y6999987D02*
D03*
Y7099987D02*
D03*
Y7199987D02*
D03*
Y7299987D02*
D03*
Y7399987D02*
D03*
Y7499987D02*
D03*
Y7599987D02*
D03*
Y7699987D02*
D03*
Y7799987D02*
D03*
Y7899987D02*
D03*
Y7999987D02*
D03*
Y8099987D02*
D03*
Y8199987D02*
D03*
Y8299987D02*
D03*
Y8399987D02*
D03*
Y8499987D02*
D03*
Y8599987D02*
D03*
Y8699987D02*
D03*
Y8799987D02*
D03*
Y8899987D02*
D03*
D40*
X17538699Y6146750D02*
D03*
Y5981750D02*
D03*
X4165600Y3181300D02*
D03*
Y3016300D02*
D03*
X3302000Y3067100D02*
D03*
Y3232100D02*
D03*
X16993738Y2548785D02*
D03*
Y2383785D02*
D03*
X3302000Y2419300D02*
D03*
Y2254300D02*
D03*
X4165600Y2419300D02*
D03*
Y2254300D02*
D03*
X317500Y2660700D02*
D03*
X3860800Y8909100D02*
D03*
X2374900Y6362650D02*
D03*
X317500Y2825700D02*
D03*
X3860800Y9074100D02*
D03*
X2374900Y6197650D02*
D03*
D41*
X609600Y2809240D02*
D03*
X515620Y2575560D02*
D03*
X703580D02*
D03*
D44*
X13527200Y5414900D02*
D03*
X13894200D02*
D03*
D45*
X14120200Y5694900D02*
D03*
X13300200D02*
D03*
Y4684900D02*
D03*
D46*
X13665199Y4914900D02*
D03*
D47*
X14120200Y4684900D02*
D03*
D48*
X2320235Y7602640D02*
D03*
Y8442640D02*
D03*
X5892800Y7518400D02*
D03*
Y8358400D02*
D03*
X7721600Y3962400D02*
D03*
Y4802400D02*
D03*
X3932006Y5959370D02*
D03*
Y5119370D02*
D03*
D49*
X15219800Y8067500D02*
D03*
X15269800D02*
D03*
X15319800D02*
D03*
X15369800D02*
D03*
X15419800D02*
D03*
X15469800D02*
D03*
X15519800D02*
D03*
X15569800D02*
D03*
X15619800D02*
D03*
X15669800D02*
D03*
X15719800D02*
D03*
X15769800D02*
D03*
X15819800D02*
D03*
X15869800D02*
D03*
X15919800D02*
D03*
X15969800D02*
D03*
X15919800Y7172500D02*
D03*
X15869800D02*
D03*
X15769800D02*
D03*
X15719800D02*
D03*
X15619800D02*
D03*
X15569800D02*
D03*
X15519800D02*
D03*
X15469800D02*
D03*
X15369800D02*
D03*
X15319800D02*
D03*
X15219800D02*
D03*
X15969800D02*
D03*
X15819800D02*
D03*
X15669800D02*
D03*
X15419800D02*
D03*
X15269800D02*
D03*
X14814200Y5895800D02*
D03*
X14864200D02*
D03*
X14914200D02*
D03*
X14964200D02*
D03*
X15014200D02*
D03*
X15064200D02*
D03*
X15114200D02*
D03*
X15164200D02*
D03*
X15214200D02*
D03*
X15264200D02*
D03*
X15314200D02*
D03*
X15364200D02*
D03*
X15414200D02*
D03*
X15464200D02*
D03*
X15514200D02*
D03*
X15564200D02*
D03*
Y5000800D02*
D03*
X15514200D02*
D03*
X15464200D02*
D03*
X15414200D02*
D03*
X15364200D02*
D03*
X15314200D02*
D03*
X15264200D02*
D03*
X15214200D02*
D03*
X15164200D02*
D03*
X15114200D02*
D03*
X15064200D02*
D03*
X15014200D02*
D03*
X14964200D02*
D03*
X14914200D02*
D03*
X14864200D02*
D03*
X14814200D02*
D03*
D50*
X16042300Y7995000D02*
D03*
Y7895000D02*
D03*
Y7845000D02*
D03*
Y7745000D02*
D03*
Y7645000D02*
D03*
Y7595000D02*
D03*
Y7495000D02*
D03*
Y7445000D02*
D03*
Y7245000D02*
D03*
X15147301D02*
D03*
Y7345000D02*
D03*
Y7395000D02*
D03*
Y7445000D02*
D03*
Y7545000D02*
D03*
Y7595000D02*
D03*
Y7695000D02*
D03*
Y7745000D02*
D03*
Y7845000D02*
D03*
Y7895000D02*
D03*
Y7945000D02*
D03*
X16042300D02*
D03*
Y7795000D02*
D03*
Y7695000D02*
D03*
Y7545000D02*
D03*
Y7345000D02*
D03*
Y7295000D02*
D03*
X15147301D02*
D03*
Y7495000D02*
D03*
Y7645000D02*
D03*
Y7795000D02*
D03*
Y7995000D02*
D03*
X16042300Y7395000D02*
D03*
X15636700Y5823300D02*
D03*
Y5773300D02*
D03*
Y5723300D02*
D03*
Y5673300D02*
D03*
Y5623300D02*
D03*
Y5573300D02*
D03*
Y5523300D02*
D03*
Y5473300D02*
D03*
Y5423300D02*
D03*
Y5373300D02*
D03*
Y5323300D02*
D03*
Y5273300D02*
D03*
Y5223300D02*
D03*
Y5173300D02*
D03*
Y5123300D02*
D03*
Y5073300D02*
D03*
X14741701D02*
D03*
Y5123300D02*
D03*
Y5173300D02*
D03*
Y5223300D02*
D03*
Y5273300D02*
D03*
Y5323300D02*
D03*
Y5373300D02*
D03*
Y5423300D02*
D03*
Y5473300D02*
D03*
Y5523300D02*
D03*
Y5573300D02*
D03*
Y5623300D02*
D03*
Y5673300D02*
D03*
Y5723300D02*
D03*
Y5773300D02*
D03*
Y5823300D02*
D03*
D51*
X15594800Y7620000D02*
D03*
X15189200Y5448300D02*
D03*
D52*
X16204401Y7391400D02*
D03*
X16260280D02*
D03*
X14947099Y7772400D02*
D03*
X14891220D02*
D03*
X15041080Y7323600D02*
D03*
X14985201D02*
D03*
X16153600Y7984000D02*
D03*
X16209480D02*
D03*
X4047435Y7297840D02*
D03*
X4103315D02*
D03*
X4047435Y7196240D02*
D03*
X4103315D02*
D03*
X18347200Y3302000D02*
D03*
X18291319D02*
D03*
X18347200Y3403600D02*
D03*
X18291319D02*
D03*
X15115540Y6108700D02*
D03*
X15059660D02*
D03*
X15115540Y6007100D02*
D03*
X15059660D02*
D03*
D53*
X15781715Y9202649D02*
D03*
X15492155D02*
D03*
X13454379Y3352800D02*
D03*
X13164819D02*
D03*
X12504420Y4724400D02*
D03*
X12793980D02*
D03*
D63*
X6619240Y4020820D02*
D03*
Y4208780D02*
D03*
X6385560Y4114800D02*
D03*
D65*
X2032000Y1990200D02*
D03*
Y2480200D02*
D03*
D66*
X1520800Y3251200D02*
D03*
X1120800D02*
D03*
D67*
X1498000Y2842600D02*
D03*
X1042000D02*
D03*
D68*
X1270000Y2132600D02*
D03*
D69*
X2032000Y951500D02*
D03*
Y1588500D02*
D03*
D71*
X15138400Y2806700D02*
D03*
D72*
X14933400Y2681700D02*
D03*
Y2731700D02*
D03*
Y2781700D02*
D03*
Y2831700D02*
D03*
Y2881700D02*
D03*
Y2931700D02*
D03*
X15343401D02*
D03*
Y2881700D02*
D03*
Y2831700D02*
D03*
Y2781700D02*
D03*
Y2731700D02*
D03*
Y2681700D02*
D03*
D73*
X15013400Y3011700D02*
D03*
X15063400D02*
D03*
X15113400D02*
D03*
X15163400D02*
D03*
X15213400D02*
D03*
X15263400D02*
D03*
Y2601700D02*
D03*
X15213400D02*
D03*
X15163400D02*
D03*
X15113400D02*
D03*
X15063400D02*
D03*
X15013400D02*
D03*
D75*
X5316300Y1676400D02*
D03*
X5961300Y1803400D02*
D03*
Y1549400D02*
D03*
X5316300D02*
D03*
Y1803400D02*
D03*
D78*
X12048600Y3813600D02*
D03*
Y3863600D02*
D03*
Y3913600D02*
D03*
Y3963600D02*
D03*
Y4013600D02*
D03*
Y4063600D02*
D03*
Y4113600D02*
D03*
Y4163600D02*
D03*
X12538600D02*
D03*
Y4113600D02*
D03*
Y4063600D02*
D03*
Y4013600D02*
D03*
Y3963600D02*
D03*
Y3913600D02*
D03*
Y3863600D02*
D03*
Y3813600D02*
D03*
D79*
X12118600Y4233600D02*
D03*
X12168600D02*
D03*
X12218600D02*
D03*
X12268600D02*
D03*
X12318600D02*
D03*
X12368600D02*
D03*
X12418600D02*
D03*
X12468600Y3743600D02*
D03*
X12418600D02*
D03*
X12368600D02*
D03*
X12318600D02*
D03*
X12268600D02*
D03*
X12168600D02*
D03*
X12468600Y4233600D02*
D03*
X12218600Y3743600D02*
D03*
X12118600D02*
D03*
D80*
X12293600Y3988600D02*
D03*
D81*
X19079401Y3310100D02*
D03*
X19029401D02*
D03*
X18979401D02*
D03*
X18929401D02*
D03*
X18829401D02*
D03*
X18779401D02*
D03*
X18679401D02*
D03*
X18629401D02*
D03*
X18579401D02*
D03*
X18529401D02*
D03*
Y4005100D02*
D03*
X18579401D02*
D03*
X18629401D02*
D03*
X18679401D02*
D03*
X18729401D02*
D03*
X18779401D02*
D03*
X18829401D02*
D03*
X18879401D02*
D03*
X18929401D02*
D03*
X18979401D02*
D03*
X19029401D02*
D03*
X19079401D02*
D03*
X18879401Y3310100D02*
D03*
X18729401D02*
D03*
D82*
X18456900Y3382600D02*
D03*
Y3432600D02*
D03*
Y3482600D02*
D03*
Y3532600D02*
D03*
Y3582600D02*
D03*
Y3632600D02*
D03*
Y3682600D02*
D03*
Y3732600D02*
D03*
Y3782600D02*
D03*
Y3832600D02*
D03*
Y3882600D02*
D03*
Y3932600D02*
D03*
X19151900D02*
D03*
Y3882600D02*
D03*
Y3832600D02*
D03*
Y3782600D02*
D03*
Y3732600D02*
D03*
Y3682600D02*
D03*
Y3632600D02*
D03*
Y3532600D02*
D03*
Y3482600D02*
D03*
Y3432600D02*
D03*
Y3382600D02*
D03*
Y3582600D02*
D03*
D83*
X18804401Y3657600D02*
D03*
D84*
X18347200Y2435100D02*
D03*
Y2340100D02*
D03*
X18499600Y2435100D02*
D03*
Y2340100D02*
D03*
X18906000Y2431800D02*
D03*
Y2336800D02*
D03*
X19058400Y2431800D02*
D03*
Y2336800D02*
D03*
X14681200Y3826000D02*
D03*
Y3921000D02*
D03*
X15646400Y3826000D02*
D03*
Y3921000D02*
D03*
X15443201Y3826000D02*
D03*
Y3921000D02*
D03*
X14884399Y3826000D02*
D03*
Y3921000D02*
D03*
D85*
X18961099Y1371600D02*
D03*
Y1436600D02*
D03*
Y1501600D02*
D03*
Y1566600D02*
D03*
X18546100Y1371600D02*
D03*
Y1436600D02*
D03*
Y1501600D02*
D03*
Y1566600D02*
D03*
D86*
X8128000Y9699400D02*
D03*
Y9503000D02*
D03*
Y9096600D02*
D03*
X4673600Y663800D02*
D03*
Y1019400D02*
D03*
X3403600Y809400D02*
D03*
X10482900Y9567800D02*
D03*
X10686100Y9777800D02*
D03*
X4673600Y1165000D02*
D03*
X3403600D02*
D03*
Y663800D02*
D03*
X10889300Y9777800D02*
D03*
D87*
X8128000Y9909400D02*
D03*
Y9293000D02*
D03*
Y8886600D02*
D03*
X4673600Y453800D02*
D03*
Y809400D02*
D03*
X3403600Y1019400D02*
D03*
X10482900Y9777800D02*
D03*
X10686100Y9567800D02*
D03*
X4673600Y1375000D02*
D03*
X3403600D02*
D03*
Y453800D02*
D03*
X10889300Y9567800D02*
D03*
D89*
X9026300Y1802800D02*
D03*
X9091300D02*
D03*
X9156300D02*
D03*
X9221300D02*
D03*
X9286300D02*
D03*
X9351300D02*
D03*
X9416300D02*
D03*
X9481300D02*
D03*
X9546300D02*
D03*
X9611300D02*
D03*
X9676300D02*
D03*
X9741300D02*
D03*
X9806300D02*
D03*
X9871300D02*
D03*
X9026300Y2362800D02*
D03*
X9091300D02*
D03*
X9156300D02*
D03*
X9221300D02*
D03*
X9286300D02*
D03*
X9351300D02*
D03*
X9416300D02*
D03*
X9481300D02*
D03*
X9546300D02*
D03*
X9611300D02*
D03*
X9676300D02*
D03*
X9741300D02*
D03*
X9806300D02*
D03*
X9871300D02*
D03*
D90*
X9245600Y2870300D02*
D03*
X10089386Y2870201D02*
D03*
D91*
X9385600Y3195300D02*
D03*
X10229386Y3195201D02*
D03*
D92*
X9105600Y3195300D02*
D03*
X9949387Y3195201D02*
D03*
D94*
X11004500Y4114800D02*
D03*
X10839500D02*
D03*
X14141499Y3759200D02*
D03*
X7213550Y6870700D02*
D03*
X17964101Y4927600D02*
D03*
X527100Y3670300D02*
D03*
X692100D02*
D03*
X14306500Y3759200D02*
D03*
X7048550Y6870700D02*
D03*
X17799100Y4927600D02*
D03*
D95*
X9601200Y9027160D02*
D03*
X8636000Y9789160D02*
D03*
Y9662160D02*
D03*
X9601200Y8900160D02*
D03*
X8636000D02*
D03*
Y9027160D02*
D03*
Y9154160D02*
D03*
Y9535160D02*
D03*
Y9408160D02*
D03*
Y9281160D02*
D03*
X9601200Y9154160D02*
D03*
Y9789160D02*
D03*
Y9662160D02*
D03*
Y9535160D02*
D03*
Y9408160D02*
D03*
Y9281160D02*
D03*
D96*
X2712806Y4607306D02*
D03*
X2331806D02*
D03*
X2458806D02*
D03*
X2585806D02*
D03*
X2839806D02*
D03*
X2966806D02*
D03*
X3093806D02*
D03*
D137*
X1394460Y9593580D02*
X1412240Y9377680D01*
X1379220Y9431020D02*
X1412240Y9377680D01*
X1435100Y9433560D01*
X11148060Y3065780D02*
X11165840Y2849880D01*
X11132820Y2903220D02*
X11165840Y2849880D01*
X11188700Y2905760D01*
X6423660Y2989580D02*
X6441440Y2773680D01*
X6408420Y2827020D02*
X6441440Y2773680D01*
X6464300Y2829560D01*
X19834860Y7053580D02*
X19852640Y6837680D01*
X19819620Y6891020D02*
X19852640Y6837680D01*
X19875500Y6893560D01*
D156*
X9448800Y2082800D02*
D03*
D260*
X18035403Y7565397D02*
D03*
X18115404D02*
D03*
D261*
X18330464Y6771467D02*
D03*
Y6886467D02*
D03*
D262*
X17991904Y7370397D02*
D03*
X18094904D02*
D03*
X17991904Y7212400D02*
D03*
X18094904D02*
D03*
D263*
X18359464Y7462967D02*
D03*
X18359833Y7573462D02*
D03*
X18517461Y7462967D02*
D03*
X18517828Y7573462D02*
D03*
Y7225462D02*
D03*
X18517461Y7114967D02*
D03*
X18359833Y7225462D02*
D03*
X18359464Y7114967D02*
D03*
D264*
X17898836Y6654469D02*
D03*
Y7664462D02*
D03*
X18718829D02*
D03*
D265*
X11512553Y1955799D02*
D03*
X11271253Y1955800D02*
D03*
X14001749Y4064000D02*
D03*
X14243048D02*
D03*
X16338547Y2235200D02*
D03*
X16579848D02*
D03*
X16236948Y3962400D02*
D03*
X16478247D02*
D03*
X7829545Y7137400D02*
D03*
X8070845D02*
D03*
X5111748Y2235200D02*
D03*
X5353048D02*
D03*
X17964146Y5384800D02*
D03*
X18205447D02*
D03*
X10839192Y3403600D02*
D03*
X10597892D02*
D03*
X17718550Y1930400D02*
D03*
X17959850D02*
D03*
X4438647Y8991600D02*
D03*
X4197347D02*
D03*
X2673350Y6299200D02*
D03*
X2914650D02*
D03*
X14204945Y3124199D02*
D03*
X13963646Y3124201D02*
D03*
D266*
X6807200Y996947D02*
D03*
Y1238247D02*
D03*
X406400Y2305052D02*
D03*
Y2063752D02*
D03*
Y3130548D02*
D03*
Y3371848D02*
D03*
X15341600Y1543050D02*
D03*
Y1301750D02*
D03*
X8737600Y3155692D02*
D03*
Y2914392D02*
D03*
X17322800Y5657850D02*
D03*
Y5416550D02*
D03*
X10718800Y4705352D02*
D03*
Y4946652D02*
D03*
X16408400Y9175753D02*
D03*
Y9417053D02*
D03*
X11176000Y4705353D02*
D03*
Y4946653D02*
D03*
X17373599Y7550153D02*
D03*
Y7791453D02*
D03*
X2540000Y2825753D02*
D03*
Y3067053D02*
D03*
X6553200Y1606553D02*
D03*
Y1847853D02*
D03*
D267*
X16912540Y4812650D02*
D03*
Y4642654D02*
D03*
X17082536D02*
D03*
Y4812650D02*
D03*
X16445000Y3092196D02*
D03*
Y2932200D02*
D03*
X16604996D02*
D03*
Y3092196D02*
D03*
D268*
X18782797Y5566398D02*
D03*
X16733202Y6066802D02*
D03*
D269*
X18622803Y5566398D02*
D03*
X16893198Y6066802D02*
D03*
D270*
X18622803Y5406402D02*
D03*
X16893198Y6226798D02*
D03*
D271*
X18782797Y5406402D02*
D03*
X16733202Y6226798D02*
D03*
D272*
X2851604Y5337810D02*
D03*
Y5046814D02*
D03*
Y5628807D02*
D03*
X2574010D02*
D03*
Y5046814D02*
D03*
Y5337810D02*
D03*
D273*
X18750900Y7519400D02*
D03*
Y7159400D02*
D03*
Y7069400D02*
D03*
Y6979400D02*
D03*
Y6889400D02*
D03*
Y6799400D02*
D03*
Y7249400D02*
D03*
Y7339400D02*
D03*
Y7429400D02*
D03*
X17865900Y7519400D02*
D03*
Y7429400D02*
D03*
Y7339400D02*
D03*
Y7249400D02*
D03*
Y6799400D02*
D03*
Y6889400D02*
D03*
Y6979400D02*
D03*
Y7069400D02*
D03*
Y7159400D02*
D03*
D274*
X18308400Y7701900D02*
D03*
X18398399D02*
D03*
X18488400D02*
D03*
X18578400D02*
D03*
X18218401D02*
D03*
X18128400D02*
D03*
X18038400D02*
D03*
Y6616900D02*
D03*
X18128400D02*
D03*
X18218401D02*
D03*
X18578400D02*
D03*
X18488400D02*
D03*
X18398399D02*
D03*
X18308400D02*
D03*
D275*
X15804800Y8847600D02*
D03*
Y8339600D02*
D03*
Y8593600D02*
D03*
X15384801D02*
D03*
Y8847600D02*
D03*
Y8339600D02*
D03*
D276*
X6702800Y5709300D02*
D03*
Y6109300D02*
D03*
Y6509300D02*
D03*
X4682800D02*
D03*
Y6109300D02*
D03*
Y5709300D02*
D03*
Y5309300D02*
D03*
X6702800D02*
D03*
Y4909300D02*
D03*
X4682800D02*
D03*
D277*
X5492800Y4636800D02*
D03*
X5892800D02*
D03*
X6292800D02*
D03*
Y6781800D02*
D03*
X5092800D02*
D03*
Y4636800D02*
D03*
X5492800Y6781800D02*
D03*
X5892800D02*
D03*
D278*
X17237531Y4597652D02*
D03*
X16757530D02*
D03*
Y4662652D02*
D03*
X17237531Y4857652D02*
D03*
X16757530D02*
D03*
X17237531Y4792652D02*
D03*
X16757530D02*
D03*
Y4727652D02*
D03*
X17237531D02*
D03*
Y4662652D02*
D03*
D279*
X16867538Y4967644D02*
D03*
X16932538D02*
D03*
X16997539D02*
D03*
X17062538D02*
D03*
X17127538D02*
D03*
Y4487644D02*
D03*
X17062538D02*
D03*
X16997539D02*
D03*
X16932538D02*
D03*
X16867538D02*
D03*
X18702800Y5246400D02*
D03*
X18832800D02*
D03*
X18767799D02*
D03*
X18572800Y5726400D02*
D03*
X18637801D02*
D03*
X18702800D02*
D03*
X18767799D02*
D03*
X18832800D02*
D03*
X18637801Y5246400D02*
D03*
X18572800D02*
D03*
X16459998Y3252198D02*
D03*
X16524998D02*
D03*
X16589998D02*
D03*
X16654997D02*
D03*
X16589998Y2772198D02*
D03*
X16524998D02*
D03*
X16394998Y3252198D02*
D03*
X16654997Y2772198D02*
D03*
X16459998D02*
D03*
X16394998D02*
D03*
X16878200Y6386800D02*
D03*
X16943201D02*
D03*
X16813200D02*
D03*
X16683200D02*
D03*
X16748199D02*
D03*
X16943201Y5906800D02*
D03*
X16878200D02*
D03*
X16813200D02*
D03*
X16748199D02*
D03*
X16683200D02*
D03*
D280*
X18942799Y5551400D02*
D03*
Y5486400D02*
D03*
Y5421400D02*
D03*
Y5356400D02*
D03*
X18462801D02*
D03*
Y5421400D02*
D03*
Y5616400D02*
D03*
X18942799D02*
D03*
X18462801Y5486400D02*
D03*
Y5551400D02*
D03*
X16764998Y3012198D02*
D03*
Y2947198D02*
D03*
Y2882198D02*
D03*
Y3142198D02*
D03*
Y3077198D02*
D03*
X16284998Y2882198D02*
D03*
Y2947198D02*
D03*
Y3012198D02*
D03*
Y3077198D02*
D03*
Y3142198D02*
D03*
X17053200Y6146800D02*
D03*
Y6081800D02*
D03*
X16573199D02*
D03*
Y6146800D02*
D03*
Y6211800D02*
D03*
Y6276800D02*
D03*
X17053200D02*
D03*
Y6211800D02*
D03*
Y6016800D02*
D03*
X16573199D02*
D03*
D281*
X4016400Y1251900D02*
D03*
X4416400Y576900D02*
D03*
Y1251900D02*
D03*
X4016400Y576900D02*
D03*
X3146400D02*
D03*
X2746400Y1251900D02*
D03*
Y576900D02*
D03*
X3146400Y1251900D02*
D03*
X7870800Y8958900D02*
D03*
X7470800Y9633900D02*
D03*
Y8958900D02*
D03*
X7870800Y9633900D02*
D03*
D282*
X6265100Y1675600D02*
D03*
Y1575600D02*
D03*
X6130100D02*
D03*
Y1625600D02*
D03*
Y1675600D02*
D03*
D283*
X5444490Y3754750D02*
D03*
X5571490D02*
D03*
X5698490D02*
D03*
X5825490D02*
D03*
X5952490Y2849250D02*
D03*
X5825490D02*
D03*
X5698490D02*
D03*
X5571490D02*
D03*
X5063490D02*
D03*
X5190490D02*
D03*
X5317490D02*
D03*
X5444490D02*
D03*
X5317490Y3754750D02*
D03*
X5063490D02*
D03*
X5190490D02*
D03*
X5952490D02*
D03*
D284*
X13392101Y3580100D02*
D03*
X13227100D02*
D03*
X13392101Y3735100D02*
D03*
X13227100D02*
D03*
D285*
X17807027Y8962847D02*
D03*
Y8867847D02*
D03*
Y8772847D02*
D03*
X18067027D02*
D03*
Y8962847D02*
D03*
X5715300Y9444600D02*
D03*
Y9349600D02*
D03*
Y9254600D02*
D03*
X5975300D02*
D03*
Y9444600D02*
D03*
%TF.MD5,b35d074c6872c35ed32ac28b583d543b*%
M02*
