%TF.GenerationSoftware,Altium Limited,Altium Designer,23.11.1 (41)*%
G04 Layer_Physical_Order=12*
G04 Layer_Color=16711935*
%FSLAX45Y45*%
%MOMM*%
%TF.SameCoordinates,5B37CA9A-06B1-4671-AC7C-9F047A950D05*%
%TF.FilePolarity,Positive*%
%TF.FileFunction,Copper,L12,Inr,Signal*%
%TF.Part,Single*%
G01*
G75*
%TA.AperFunction,Conductor*%
%ADD103C,0.23978*%
%TA.AperFunction,ComponentPad*%
%ADD110C,6.20000*%
%ADD111C,3.50000*%
%ADD112C,2.20000*%
%ADD113C,3.00000*%
%ADD114R,3.00000X3.00000*%
%ADD115R,1.90500X1.90500*%
%ADD116C,1.90500*%
%ADD117C,1.60000*%
%ADD118C,0.60000*%
%ADD119C,1.52400*%
G04:AMPARAMS|DCode=120|XSize=1.524mm|YSize=1.524mm|CornerRadius=0mm|HoleSize=0mm|Usage=FLASHONLY|Rotation=0.000|XOffset=0mm|YOffset=0mm|HoleType=Round|Shape=Octagon|*
%AMOCTAGOND120*
4,1,8,0.76200,-0.38100,0.76200,0.38100,0.38100,0.76200,-0.38100,0.76200,-0.76200,0.38100,-0.76200,-0.38100,-0.38100,-0.76200,0.38100,-0.76200,0.76200,-0.38100,0.0*
%
%ADD120OCTAGOND120*%

%ADD121C,3.81000*%
%TA.AperFunction,ViaPad*%
%ADD122C,0.76200*%
%ADD123C,0.50000*%
%ADD124C,0.30480*%
%ADD125C,0.50800*%
%ADD126C,0.71120*%
%ADD127C,0.55880*%
%TA.AperFunction,Conductor*%
%ADD128C,0.14789*%
%ADD129C,0.09238*%
D103*
X9508973Y7218673D02*
Y7220755D01*
X9552618Y7264400D01*
X9478499Y7188200D02*
X9508973Y7218673D01*
X9271000Y7188200D02*
X9478499D01*
X9154046Y6301854D02*
Y7071246D01*
X7686154Y6301854D02*
X9154046D01*
X7551358Y6167058D02*
X7686154Y6301854D01*
X9154046Y7071246D02*
X9271000Y7188200D01*
X9162739Y6688893D02*
X9573942D01*
X9720580Y6542255D01*
X11950700Y7556500D02*
X12090400Y7416800D01*
Y6778523D02*
Y7416800D01*
X11699977Y6388100D02*
X12090400Y6778523D01*
X11382477Y6070600D02*
X11699977Y6388100D01*
X11843461Y7556500D02*
X11950700D01*
X9154046Y6301854D02*
X9385300Y6070600D01*
X11382477D01*
X9720580Y6479540D02*
Y6542255D01*
D110*
X16967200Y1447800D02*
D03*
X19574646Y9311709D02*
D03*
X533400Y9499600D02*
D03*
X4025798Y3806550D02*
D03*
D111*
X14438298Y9761666D02*
D03*
X10418298Y5731666D02*
D03*
D112*
X19151601Y507200D02*
D03*
X19405600Y761200D02*
D03*
Y253200D02*
D03*
X18897600D02*
D03*
Y761200D02*
D03*
X17729201Y508000D02*
D03*
X17983200Y762000D02*
D03*
Y254000D02*
D03*
X17475200D02*
D03*
Y762000D02*
D03*
X16306799Y508000D02*
D03*
X16560800Y762000D02*
D03*
Y254000D02*
D03*
X16052800D02*
D03*
Y762000D02*
D03*
X14782800Y508000D02*
D03*
X15036800Y762000D02*
D03*
Y254000D02*
D03*
X14528799D02*
D03*
Y762000D02*
D03*
D113*
X545200Y1017050D02*
D03*
X965200D02*
D03*
X545200Y1567050D02*
D03*
X965200D02*
D03*
X1385200D02*
D03*
X5240000Y711200D02*
D03*
X6444000D02*
D03*
D114*
X1385200Y1017050D02*
D03*
D115*
X8749600Y457200D02*
D03*
D116*
X9249600D02*
D03*
X9749600D02*
D03*
X10249600D02*
D03*
D117*
X5967000Y1181200D02*
D03*
X5717000D02*
D03*
X5967000Y981200D02*
D03*
X5717000D02*
D03*
D118*
X12400600Y4095600D02*
D03*
Y3988600D02*
D03*
Y3881600D02*
D03*
X12293600Y4095600D02*
D03*
Y3988600D02*
D03*
Y3881600D02*
D03*
X12186600Y4095600D02*
D03*
Y3988600D02*
D03*
Y3881600D02*
D03*
D119*
X13004800Y1574800D02*
D03*
X12090400D02*
D03*
X13233400D02*
D03*
X12192000Y1092200D02*
D03*
X12395200D02*
D03*
X12598400D02*
D03*
X12801601D02*
D03*
X12293600Y914400D02*
D03*
X12496800D02*
D03*
X12700000D02*
D03*
X11861800Y1574800D02*
D03*
X7162800Y9702800D02*
D03*
Y9448800D02*
D03*
X10871200Y9296400D02*
D03*
X10363200D02*
D03*
X10617200D02*
D03*
D120*
X12903200Y914400D02*
D03*
D121*
X11912600Y660400D02*
D03*
X13182600D02*
D03*
D122*
X2222500Y3111500D02*
D03*
X571500Y4254500D02*
D03*
Y4508500D02*
D03*
X317500Y4254500D02*
D03*
Y4508500D02*
D03*
X1079500Y3810000D02*
D03*
Y3556000D02*
D03*
Y4064000D02*
D03*
X817791Y4517800D02*
D03*
Y4263800D02*
D03*
X1325791Y4517800D02*
D03*
X1071791D02*
D03*
X1325791Y4263800D02*
D03*
X1071791D02*
D03*
X1587500Y4064000D02*
D03*
X1333500D02*
D03*
X1587500Y3556000D02*
D03*
Y3810000D02*
D03*
X1333500Y3556000D02*
D03*
Y3810000D02*
D03*
X1219200Y6299200D02*
D03*
X1778000Y4445000D02*
D03*
X1905000Y5080000D02*
D03*
X1651000D02*
D03*
Y6096000D02*
D03*
Y5842000D02*
D03*
Y5588000D02*
D03*
X1905000Y6096000D02*
D03*
Y5842000D02*
D03*
Y5588000D02*
D03*
X1397000D02*
D03*
X1905000Y5334000D02*
D03*
X1651000D02*
D03*
X1397000D02*
D03*
Y6350000D02*
D03*
X1651000D02*
D03*
X1905000D02*
D03*
X1397000Y6604000D02*
D03*
X1651000D02*
D03*
X1905000D02*
D03*
X15661127Y5889671D02*
D03*
X15925800Y5537200D02*
D03*
X15951199Y5638800D02*
D03*
Y5969000D02*
D03*
X16332201Y5842000D02*
D03*
X16408400Y6019800D02*
D03*
X16510736Y6461760D02*
D03*
X16535400Y5765800D02*
D03*
X16814799Y5791200D02*
D03*
X16586200Y5918200D02*
D03*
Y6400800D02*
D03*
X16713200Y6553200D02*
D03*
X16992599Y6527800D02*
D03*
X16916400Y6629400D02*
D03*
X17170399Y6096000D02*
D03*
X17043401Y6375400D02*
D03*
X18872200Y5130800D02*
D03*
X18059399Y5740400D02*
D03*
X18262601Y5664200D02*
D03*
X18567400Y5054600D02*
D03*
X18948399Y5257800D02*
D03*
X19067780Y5377180D02*
D03*
X18948399Y5715000D02*
D03*
X18821400Y5867400D02*
D03*
X18449211Y5796400D02*
D03*
X18465800Y7848600D02*
D03*
X18592799Y7874000D02*
D03*
X18821400D02*
D03*
X17627600Y7670800D02*
D03*
X17653000Y7518400D02*
D03*
X18186400Y7899400D02*
D03*
X17881599Y7924800D02*
D03*
X18694400Y6350000D02*
D03*
X18110201Y6781800D02*
D03*
X18973801Y6654800D02*
D03*
X18923000Y7035800D02*
D03*
X19100800Y7213600D02*
D03*
X18948399D02*
D03*
X18897600Y7366000D02*
D03*
Y7518400D02*
D03*
X18923000Y7670800D02*
D03*
X18669000Y8026400D02*
D03*
X17272000Y5029200D02*
D03*
X17043401Y5224780D02*
D03*
X17136404Y5096805D02*
D03*
X16764000Y4953000D02*
D03*
X17576801Y4419600D02*
D03*
X17424400Y4521200D02*
D03*
X17272000Y4318000D02*
D03*
X16586200Y4597400D02*
D03*
X16738600Y4368800D02*
D03*
X17297400Y4191000D02*
D03*
X16648198Y3367002D02*
D03*
X16154401Y3022600D02*
D03*
X16306799Y2616200D02*
D03*
X16459998Y2616998D02*
D03*
X16913206Y2784135D02*
D03*
X17094200Y2997200D02*
D03*
X17052296Y3251200D02*
D03*
X16901402Y3012198D02*
D03*
X16764000Y3251200D02*
D03*
X16281400Y3276600D02*
D03*
X8534400Y5181600D02*
D03*
X8788400Y5156200D02*
D03*
X8712200Y4140200D02*
D03*
X7264400Y2590800D02*
D03*
X7289800Y2133600D02*
D03*
X8128000D02*
D03*
X8102600Y2692400D02*
D03*
X8075400Y4802400D02*
D03*
X8102600Y3962400D02*
D03*
X9829800D02*
D03*
X9677400D02*
D03*
X9964400Y3962059D02*
D03*
X10312400Y3530600D02*
D03*
Y4191000D02*
D03*
X10210800Y4318000D02*
D03*
X10083800Y4376000D02*
D03*
X10160000Y4470400D02*
D03*
X13792200Y4064000D02*
D03*
X14478000Y5994400D02*
D03*
X14579601D02*
D03*
Y5664200D02*
D03*
X14478000Y5740400D02*
D03*
X14325600Y5511800D02*
D03*
Y4673600D02*
D03*
X13302000Y4523627D02*
D03*
X13614400Y4089400D02*
D03*
X13435201Y4499200D02*
D03*
X13614400Y4495800D02*
D03*
X6832600Y7874000D02*
D03*
X6937790Y7641810D02*
D03*
X8458200Y7645400D02*
D03*
Y7823200D02*
D03*
X8371790Y7731810D02*
D03*
X7569200Y7112000D02*
D03*
X6784810Y8181810D02*
D03*
X6904707Y8091810D02*
D03*
X6756400Y8001000D02*
D03*
X6846990Y8316810D02*
D03*
X7837408Y6016679D02*
D03*
X3937000Y6375400D02*
D03*
X2844800Y4064000D02*
D03*
X3048000Y4089400D02*
D03*
X3493810Y4382810D02*
D03*
X3501390Y4702810D02*
D03*
X3235706Y4607306D02*
D03*
X2438400Y4064000D02*
D03*
X2585806Y4068994D02*
D03*
X3302000Y7556500D02*
D03*
X2832540Y8103040D02*
D03*
X3302000Y8064500D02*
D03*
Y8318500D02*
D03*
Y8191500D02*
D03*
X5080000Y7874000D02*
D03*
X14876781Y3220720D02*
D03*
X17119600Y7061200D02*
D03*
X17270139Y7067129D02*
D03*
X16967200Y7061200D02*
D03*
X1066800Y6671060D02*
D03*
Y6451600D02*
D03*
X2129040Y1683967D02*
D03*
Y1493467D02*
D03*
X1938540D02*
D03*
Y1683967D02*
D03*
X1397000Y2349500D02*
D03*
Y2159000D02*
D03*
Y1968500D02*
D03*
X1143000Y2349500D02*
D03*
Y2159000D02*
D03*
Y1968500D02*
D03*
X1333500Y1270000D02*
D03*
X1587500D02*
D03*
X825500D02*
D03*
X1079500D02*
D03*
X317500D02*
D03*
X571500D02*
D03*
Y762000D02*
D03*
X317500D02*
D03*
X635000Y1841500D02*
D03*
Y2095500D02*
D03*
X825500Y1841500D02*
D03*
Y2095500D02*
D03*
X571500Y571500D02*
D03*
X317500D02*
D03*
X825500Y381000D02*
D03*
X1079500D02*
D03*
X1587500Y571500D02*
D03*
X1333500D02*
D03*
X1079500D02*
D03*
X825500D02*
D03*
Y762000D02*
D03*
X1079500D02*
D03*
X1333500D02*
D03*
X1587500D02*
D03*
X1905000Y2222500D02*
D03*
X2349500Y1587500D02*
D03*
Y1778000D02*
D03*
X2095500Y2222500D02*
D03*
X2349500Y1397000D02*
D03*
X1714500Y2032000D02*
D03*
X2540000Y1016000D02*
D03*
X2286000D02*
D03*
X2540000Y825500D02*
D03*
X2286000D02*
D03*
X2540000Y635000D02*
D03*
X2286000D02*
D03*
X2540000Y444500D02*
D03*
X2286000D02*
D03*
X2032000D02*
D03*
X1778000D02*
D03*
Y254000D02*
D03*
X2032000D02*
D03*
X2286000D02*
D03*
X2540000D02*
D03*
X1714500Y2222500D02*
D03*
Y2413000D02*
D03*
X2540000Y2349500D02*
D03*
X2349500D02*
D03*
Y2159000D02*
D03*
Y1968500D02*
D03*
X2540000Y1397000D02*
D03*
Y1587500D02*
D03*
Y1778000D02*
D03*
Y1968500D02*
D03*
Y2159000D02*
D03*
D123*
X18416400Y6751400D02*
D03*
Y6829400D02*
D03*
Y6907400D02*
D03*
X18244400D02*
D03*
Y6829400D02*
D03*
Y6751400D02*
D03*
X7697408Y5734796D02*
D03*
X7754908Y5829796D02*
D03*
X7639908D02*
D03*
X7697408Y5924796D02*
D03*
X7477600Y7915310D02*
D03*
Y7988310D02*
D03*
Y8061810D02*
D03*
X7331065Y7841770D02*
D03*
X7404065D02*
D03*
X7477565D02*
D03*
X7257400Y7915310D02*
D03*
Y7841810D02*
D03*
Y7988310D02*
D03*
Y8061810D02*
D03*
X7331100D02*
D03*
X7404100D02*
D03*
X13555200Y4951600D02*
D03*
Y4878600D02*
D03*
Y4804900D02*
D03*
X13628700D02*
D03*
X13775200D02*
D03*
X13701700D02*
D03*
X13775240Y5025065D02*
D03*
Y4951565D02*
D03*
Y4878565D02*
D03*
X13555200Y5025100D02*
D03*
X13628700D02*
D03*
X13701700D02*
D03*
X3810035Y7998340D02*
D03*
Y8071339D02*
D03*
Y8144839D02*
D03*
X3663500Y7924800D02*
D03*
X3736500D02*
D03*
X3810000D02*
D03*
X3589835Y7998340D02*
D03*
Y7924840D02*
D03*
Y8071339D02*
D03*
Y8144839D02*
D03*
X3663535D02*
D03*
X3736535D02*
D03*
X15814799Y7400000D02*
D03*
X15704800D02*
D03*
X15594800D02*
D03*
X15484801D02*
D03*
X15374800D02*
D03*
X15814799Y7510000D02*
D03*
X15704800D02*
D03*
X15594800D02*
D03*
X15484801D02*
D03*
X15374800D02*
D03*
X15814799Y7620000D02*
D03*
X15704800D02*
D03*
X15594800D02*
D03*
X15484801D02*
D03*
X15374800D02*
D03*
X15814799Y7730000D02*
D03*
X15704800D02*
D03*
X15594800D02*
D03*
X15484801D02*
D03*
X15374800D02*
D03*
X15814799Y7840000D02*
D03*
X15704800D02*
D03*
X15594800D02*
D03*
X15484801D02*
D03*
X15374800D02*
D03*
X17097539Y4627652D02*
D03*
X16997539D02*
D03*
Y4827652D02*
D03*
X16897539D02*
D03*
Y4627652D02*
D03*
Y4727652D02*
D03*
X16997539D02*
D03*
X17097539Y4827652D02*
D03*
Y4727652D02*
D03*
X15193401Y2861700D02*
D03*
Y2751700D02*
D03*
X15083400Y2861700D02*
D03*
Y2751700D02*
D03*
X9249500Y4559500D02*
D03*
Y4632500D02*
D03*
Y4706000D02*
D03*
X9102965Y4485960D02*
D03*
X9175965D02*
D03*
X9249465D02*
D03*
X9029300Y4559500D02*
D03*
Y4486000D02*
D03*
Y4632500D02*
D03*
Y4706000D02*
D03*
X9103000D02*
D03*
X9176000D02*
D03*
X18584399Y3877600D02*
D03*
X18694400D02*
D03*
X18804401D02*
D03*
X18914400D02*
D03*
X19024400D02*
D03*
X18584399Y3767600D02*
D03*
X18694400D02*
D03*
X18804401D02*
D03*
X18914400D02*
D03*
X19024400D02*
D03*
X18584399Y3657600D02*
D03*
X18694400D02*
D03*
X18804401D02*
D03*
X18914400D02*
D03*
X19024400D02*
D03*
X18584399Y3547600D02*
D03*
X18694400D02*
D03*
X18804401D02*
D03*
X18914400D02*
D03*
X19024400D02*
D03*
X18584399Y3437600D02*
D03*
X18694400D02*
D03*
X18804401D02*
D03*
X18914400D02*
D03*
X19024400D02*
D03*
X15409200Y5228300D02*
D03*
X15299200D02*
D03*
X15189200D02*
D03*
X15079201D02*
D03*
X14969200D02*
D03*
X15409200Y5338300D02*
D03*
X15299200D02*
D03*
X15189200D02*
D03*
X15079201D02*
D03*
X14969200D02*
D03*
X15409200Y5448300D02*
D03*
X15299200D02*
D03*
X15189200D02*
D03*
X15079201D02*
D03*
X14969200D02*
D03*
X15409200Y5558300D02*
D03*
X15299200D02*
D03*
X15189200D02*
D03*
X15079201D02*
D03*
X14969200D02*
D03*
X15409200Y5668300D02*
D03*
X15299200D02*
D03*
X15189200D02*
D03*
X15079201D02*
D03*
X14969200D02*
D03*
X9008800Y1972800D02*
D03*
Y2082800D02*
D03*
Y2192800D02*
D03*
X9118800Y1972800D02*
D03*
Y2082800D02*
D03*
Y2192800D02*
D03*
X9228800Y1972800D02*
D03*
Y2082800D02*
D03*
Y2192800D02*
D03*
X9338800Y1972800D02*
D03*
Y2082800D02*
D03*
Y2192800D02*
D03*
X9448800Y1972800D02*
D03*
Y2082800D02*
D03*
Y2192800D02*
D03*
X9558800Y1972800D02*
D03*
Y2082800D02*
D03*
Y2192800D02*
D03*
X9668800Y1972800D02*
D03*
Y2082800D02*
D03*
Y2192800D02*
D03*
X9778800Y1972800D02*
D03*
Y2082800D02*
D03*
Y2192800D02*
D03*
X9888800Y1972800D02*
D03*
Y2082800D02*
D03*
Y2192800D02*
D03*
D124*
X10117598Y7421102D02*
D03*
X8892588Y5778500D02*
D03*
Y6944360D02*
D03*
X8623300Y5664200D02*
D03*
X13849350Y3651250D02*
D03*
X14452600Y3505200D02*
D03*
X3500540Y8618640D02*
D03*
X3884835Y7456265D02*
D03*
X4102100Y7137400D02*
D03*
X4038600D02*
D03*
Y7366000D02*
D03*
X4102100D02*
D03*
X10797540Y8054340D02*
D03*
X10795000Y7733050D02*
D03*
X10317500Y7739400D02*
D03*
X9873902Y6879987D02*
D03*
X9954225Y7315200D02*
D03*
X10051413Y7043810D02*
D03*
X9830678Y7144142D02*
D03*
X9391480Y7243216D02*
D03*
X10198082Y7034285D02*
D03*
X9131300Y7142480D02*
D03*
X9302750Y7245350D02*
D03*
X8986520Y6172200D02*
D03*
X9024620Y6456680D02*
D03*
X8968740Y6804660D02*
D03*
X8950960Y6901180D02*
D03*
X10184939Y7135321D02*
D03*
X10064750Y7410450D02*
D03*
X9810750Y7374890D02*
D03*
X9645650Y7263130D02*
D03*
X9552618Y7264400D02*
D03*
X9555480Y7493000D02*
D03*
X9633933Y7042163D02*
D03*
X9987280Y7470140D02*
D03*
X9761220Y7518400D02*
D03*
X9311640Y7439660D02*
D03*
X9123680Y7203440D02*
D03*
X9552618Y7043020D02*
D03*
X9093200Y6197600D02*
D03*
X10039980Y6479987D02*
D03*
X10124458Y6479987D02*
D03*
X12446000Y6756400D02*
D03*
X11945620Y3863340D02*
D03*
X13137086Y6641132D02*
D03*
X13051463Y6655510D02*
D03*
X13103860Y6261100D02*
D03*
X12999977Y6374126D02*
D03*
X12899977Y6400996D02*
D03*
X13195300Y6351009D02*
D03*
X13151463Y6755510D02*
D03*
X12799977Y6390026D02*
D03*
X12458700Y6654800D02*
D03*
X12851129Y6840967D02*
D03*
X12755880Y6945630D02*
D03*
X12338100Y6642100D02*
D03*
X12748260Y7147560D02*
D03*
X12651184Y6950202D02*
D03*
X12649200Y6748780D02*
D03*
X12544454Y6751474D02*
D03*
Y6851474D02*
D03*
X13251463Y6755510D02*
D03*
X13048489Y6844464D02*
D03*
X13251463Y6955510D02*
D03*
Y6855510D02*
D03*
X13451463Y6755510D02*
D03*
X13551463D02*
D03*
X13444453Y6851474D02*
D03*
X13351463Y6855510D02*
D03*
Y6655510D02*
D03*
X13155499Y6948500D02*
D03*
X13351463Y7055510D02*
D03*
X13251463Y7155510D02*
D03*
X13749020Y8549640D02*
D03*
X13545821Y8839200D02*
D03*
X12750800Y8750300D02*
D03*
X12951460Y8549640D02*
D03*
X13251180D02*
D03*
X13548360Y8651240D02*
D03*
X13654865Y8449135D02*
D03*
X13540286Y8458200D02*
D03*
X13645090Y8550839D02*
D03*
Y8950839D02*
D03*
X13749126Y8945099D02*
D03*
X13645090Y8750839D02*
D03*
X13650829Y8654875D02*
D03*
X13549126Y8745099D02*
D03*
X13545090Y8950839D02*
D03*
Y9050839D02*
D03*
X13650829Y7654875D02*
D03*
X13345090Y7750839D02*
D03*
X13454865Y7549135D02*
D03*
X13345090Y7550839D02*
D03*
X13245090D02*
D03*
X13049126Y7645099D02*
D03*
Y7845099D02*
D03*
X13050830Y7954875D02*
D03*
X12750829Y8154875D02*
D03*
X12850830D02*
D03*
X12745089Y8250839D02*
D03*
X12849126Y8245099D02*
D03*
X12954053Y8259088D02*
D03*
X13454865Y7849135D02*
D03*
X13245090Y7950839D02*
D03*
X13145090Y8050839D02*
D03*
X13045090D02*
D03*
X13254865Y8249135D02*
D03*
X13049126Y8245099D02*
D03*
X13145090Y8250839D02*
D03*
X13045090Y8850839D02*
D03*
X13157201Y8851900D02*
D03*
X12945090Y8850839D02*
D03*
Y8650839D02*
D03*
X13150830Y8654875D02*
D03*
X13245090Y8450839D02*
D03*
X13354865Y8149135D02*
D03*
X13450830Y8254875D02*
D03*
X13350830Y8354875D02*
D03*
X13151974Y8932649D02*
D03*
X13045090Y8750839D02*
D03*
X13044455Y8637305D02*
D03*
X12947981Y8932645D02*
D03*
X12845090Y8550839D02*
D03*
X12745089D02*
D03*
X12945090Y8450839D02*
D03*
X13049126Y8445099D02*
D03*
X13054865Y8949135D02*
D03*
X13249126Y8745099D02*
D03*
X13145090Y8750839D02*
D03*
X13249126Y8645099D02*
D03*
X13445090Y8850839D02*
D03*
Y8750839D02*
D03*
X13350830Y8654875D02*
D03*
X13450830D02*
D03*
X13449126Y8545099D02*
D03*
X13550830Y8554875D02*
D03*
X13450830Y8454875D02*
D03*
X13354865Y8449135D02*
D03*
X13049126Y8345099D02*
D03*
X13149126D02*
D03*
X13144501Y8547100D02*
D03*
X13149126Y8445099D02*
D03*
X12650469Y8552497D02*
D03*
Y8651987D02*
D03*
X12651572Y8753600D02*
D03*
X12848489Y8644464D02*
D03*
X12851463Y8755510D02*
D03*
X12549977Y8870475D02*
D03*
X12553490Y8953500D02*
D03*
X12152864Y8547100D02*
D03*
X11950982Y8548700D02*
D03*
X13151463Y6855510D02*
D03*
X13055499Y6948500D02*
D03*
Y6748500D02*
D03*
X12852400Y6350000D02*
D03*
X12848489Y6744464D02*
D03*
X12738100Y6642100D02*
D03*
X12740482Y6844528D02*
D03*
X11950700Y8648700D02*
D03*
X11849100Y7861300D02*
D03*
X11751464Y7855510D02*
D03*
X12052300Y7556500D02*
D03*
X12966701Y7251700D02*
D03*
X13150850Y7143750D02*
D03*
X13244453Y7651474D02*
D03*
X13551463Y7655510D02*
D03*
X13550900Y7848600D02*
D03*
X13347701Y7937500D02*
D03*
X13356064Y8255000D02*
D03*
X13235141Y8346187D02*
D03*
X12351464Y7455510D02*
D03*
X12700000Y6376409D02*
D03*
X12955499Y6648500D02*
D03*
X12943840Y6555740D02*
D03*
X12855499Y6648500D02*
D03*
X12748490Y6744464D02*
D03*
X12944453Y6751474D02*
D03*
X12948489Y6844464D02*
D03*
X12959081Y7045960D02*
D03*
X12448490Y8244464D02*
D03*
X12348490Y7744464D02*
D03*
X13844453Y6551474D02*
D03*
X13551463Y6655510D02*
D03*
X13544453Y6851474D02*
D03*
X13851463Y7055510D02*
D03*
X13544453Y7251474D02*
D03*
X12951463Y6955510D02*
D03*
X13251463Y7355510D02*
D03*
X13744450Y7851471D02*
D03*
X13744453Y8251474D02*
D03*
Y8651474D02*
D03*
X13848489Y8944464D02*
D03*
X13348489Y8844464D02*
D03*
X12451464Y8655510D02*
D03*
X12655500Y8848500D02*
D03*
X12255500D02*
D03*
X12251464Y8955510D02*
D03*
X11444454Y7851474D02*
D03*
X12048490Y7744464D02*
D03*
Y7244464D02*
D03*
X12247880Y6855460D02*
D03*
X11851640Y6405880D02*
D03*
X12538098Y6942099D02*
D03*
X13544453Y7051474D02*
D03*
X13751463Y6655510D02*
D03*
X12037660Y7055410D02*
D03*
X11871960Y7056120D02*
D03*
X11841480Y6944360D02*
D03*
X11936310Y7053580D02*
D03*
X11736345Y6745245D02*
D03*
X11744960Y6845881D02*
D03*
X11561911Y6636851D02*
D03*
X12551464Y7155510D02*
D03*
X12544454Y7251474D02*
D03*
X13051463Y7155510D02*
D03*
X13151463Y7355510D02*
D03*
X13851463Y6855510D02*
D03*
X13051463Y8555510D02*
D03*
X13451463Y8355510D02*
D03*
Y8155510D02*
D03*
X13351463Y8055510D02*
D03*
X13651463Y7855510D02*
D03*
X13744453Y8051474D02*
D03*
X13651463Y8355510D02*
D03*
X13744453Y8451474D02*
D03*
X13771523Y9238563D02*
D03*
X13461313Y9234527D02*
D03*
X13748489Y8744464D02*
D03*
X13344453Y8551474D02*
D03*
Y8751474D02*
D03*
X13246100Y8851900D02*
D03*
X11645900Y9105900D02*
D03*
X11988800Y9093200D02*
D03*
X11849100Y7442200D02*
D03*
X12052300Y7645400D02*
D03*
X12151464Y6655510D02*
D03*
X13455499Y6948500D02*
D03*
X13351463Y6955510D02*
D03*
X13451463Y7355510D02*
D03*
X13655499Y7348500D02*
D03*
X13748489Y7344464D02*
D03*
X13744453Y7251474D02*
D03*
X13551463Y7555510D02*
D03*
X13748489Y7544464D02*
D03*
X12455500Y7648500D02*
D03*
X12451464Y7455510D02*
D03*
X12555500Y7448500D02*
D03*
X12755500Y7348500D02*
D03*
X12648490Y7544464D02*
D03*
X12655500Y7448500D02*
D03*
X12555500Y7648500D02*
D03*
X12651464Y7655510D02*
D03*
X12855499Y7548500D02*
D03*
X12751464Y7755510D02*
D03*
X12748490Y7644464D02*
D03*
X12751464Y7555510D02*
D03*
X12748490Y7444464D02*
D03*
X12955499Y7348500D02*
D03*
X12951463Y7555510D02*
D03*
X13051463D02*
D03*
Y7755510D02*
D03*
X12844453Y7751474D02*
D03*
Y7651474D02*
D03*
X13155499Y7748500D02*
D03*
X13148486Y7844461D02*
D03*
X13048489Y8144464D02*
D03*
X12948489Y8044464D02*
D03*
X12844453Y8451474D02*
D03*
X12855499Y8348500D02*
D03*
X12744454Y8651474D02*
D03*
X12949277Y8750987D02*
D03*
X12748490Y8844464D02*
D03*
X12455500Y8848500D02*
D03*
X12548490Y8544464D02*
D03*
X12244454Y8451474D02*
D03*
X12348490Y8444464D02*
D03*
X11955500Y8448500D02*
D03*
X12255500Y8648500D02*
D03*
X11455500Y8948500D02*
D03*
X12051464Y8955510D02*
D03*
X11744454Y8951474D02*
D03*
X11555500Y8748500D02*
D03*
X11648490Y8744464D02*
D03*
X11848490Y8644464D02*
D03*
X11644454Y8651474D02*
D03*
X11551464Y8655510D02*
D03*
X11648490Y8344464D02*
D03*
X11551464Y8055510D02*
D03*
Y8255510D02*
D03*
X11555500Y8348500D02*
D03*
X11755500Y8248500D02*
D03*
X12048490Y8344464D02*
D03*
X11948490Y8244464D02*
D03*
X11951464Y8055510D02*
D03*
X11848489Y8144461D02*
D03*
X12251464Y8155510D02*
D03*
X12451464D02*
D03*
X12848489Y8044464D02*
D03*
X12544454Y8151474D02*
D03*
X12651464Y8055510D02*
D03*
X12951463Y7855510D02*
D03*
X12848489Y7844464D02*
D03*
X12955499Y7948500D02*
D03*
X12855499D02*
D03*
X12648490Y7944464D02*
D03*
X12448490D02*
D03*
X12248490D02*
D03*
X12348490D02*
D03*
X12348488Y7844461D02*
D03*
X12447627Y7849287D02*
D03*
X12755500Y7848500D02*
D03*
X12655500D02*
D03*
X12544454Y7851474D02*
D03*
X12648490Y7744464D02*
D03*
X12544454Y7751474D02*
D03*
X12555500Y7548500D02*
D03*
X12248490Y7544464D02*
D03*
X12455500Y7548500D02*
D03*
X12344454Y7551474D02*
D03*
X12153900Y7353300D02*
D03*
X12151464Y7055510D02*
D03*
X12255500Y7048500D02*
D03*
X11031220Y6859940D02*
D03*
X11644555D02*
D03*
X11843461Y7556500D02*
D03*
X11699977Y6388100D02*
D03*
X9721295Y7039987D02*
D03*
X9588500Y7543800D02*
D03*
X9563100Y6642100D02*
D03*
X9859010Y6160770D02*
D03*
X7551358Y6167058D02*
D03*
X8394700Y6629400D02*
D03*
X8502650Y6686550D02*
D03*
X8540750Y7245350D02*
D03*
X8451850Y7232650D02*
D03*
X8540750Y7004050D02*
D03*
X8451850D02*
D03*
X8890000Y5664200D02*
D03*
X9004300Y7505700D02*
D03*
X9931400Y7785100D02*
D03*
X9817100D02*
D03*
X8636000Y7366000D02*
D03*
Y7023100D02*
D03*
X8648700Y6680200D02*
D03*
X8623300Y6565900D02*
D03*
Y6451600D02*
D03*
Y6337300D02*
D03*
Y6223000D02*
D03*
Y6108700D02*
D03*
Y5994400D02*
D03*
Y5880100D02*
D03*
Y5778500D02*
D03*
X10199980Y6559987D02*
D03*
X10119980D02*
D03*
X10039980D02*
D03*
X9873902Y6959324D02*
D03*
X9786714Y6879987D02*
D03*
X9067800Y7505700D02*
D03*
X9182100Y7480300D02*
D03*
X9098262Y6443962D02*
D03*
X9029700Y6527800D02*
D03*
X8890000Y6565900D02*
D03*
X9486900Y6642100D02*
D03*
X9478377Y6558669D02*
D03*
X9563100Y6564378D02*
D03*
X9601200Y6832600D02*
D03*
X9194800Y7023100D02*
D03*
X9931400Y7506896D02*
D03*
X10048258Y6959714D02*
D03*
X9957296Y6959987D02*
D03*
X9964438Y6883042D02*
D03*
X10353642Y6774780D02*
D03*
X9894792Y6692834D02*
D03*
X10846853Y6582193D02*
D03*
X10303434Y6821496D02*
D03*
X10896600Y6629400D02*
D03*
X9826239Y6694767D02*
D03*
X9017000Y6888480D02*
D03*
Y6819900D02*
D03*
X9004300Y7162801D02*
D03*
X9283700Y7099300D02*
D03*
X9389987Y7041553D02*
D03*
X9479979Y6477354D02*
D03*
X9245600Y7518400D02*
D03*
X9471302Y7040571D02*
D03*
X9817100Y7543800D02*
D03*
X9702800D02*
D03*
X9474200D02*
D03*
X9359900D02*
D03*
X11744555Y6960656D02*
D03*
X11760646Y7055410D02*
D03*
X11353800Y6197600D02*
D03*
X9634914Y6965052D02*
D03*
X9559980D02*
D03*
X9639979Y6878671D02*
D03*
X9479980Y6965052D02*
D03*
X9483729Y6883737D02*
D03*
X9398000Y6484620D02*
D03*
X9396899Y6402239D02*
D03*
X9489459Y6398860D02*
D03*
X9641849Y6399948D02*
D03*
X9745980Y6307045D02*
D03*
X10083833Y6778660D02*
D03*
X11546840Y7150100D02*
D03*
X11549978Y7049986D02*
D03*
X10180466Y6843350D02*
D03*
X11449977Y7049986D02*
D03*
X10185530Y6774957D02*
D03*
X11541760Y6957060D02*
D03*
X10993120Y6827538D02*
D03*
X11541660Y7256163D02*
D03*
X11048475Y7022920D02*
D03*
X10195560Y6972300D02*
D03*
X11640820Y7259320D02*
D03*
X11666220Y6951980D02*
D03*
X11646037Y7050903D02*
D03*
X11442869Y6553031D02*
D03*
X11849100Y7243025D02*
D03*
X11239500Y7394734D02*
D03*
X10857359Y7240140D02*
D03*
X9697474Y6400370D02*
D03*
X10623207Y6873288D02*
D03*
X10607040Y7129780D02*
D03*
X11236912Y6982460D02*
D03*
X10076180Y6683412D02*
D03*
X10284460Y7043420D02*
D03*
X10363200Y7038340D02*
D03*
X10283999Y7135321D02*
D03*
X10345420Y7139940D02*
D03*
X10502900Y7142480D02*
D03*
X10426700Y7137400D02*
D03*
X10119980Y7039985D02*
D03*
X10432010Y7039957D02*
D03*
X10515600Y7030720D02*
D03*
X10997852Y7069185D02*
D03*
X10850880Y7099950D02*
D03*
X11742420Y7163775D02*
D03*
X11655400Y7139318D02*
D03*
X10777220Y6507480D02*
D03*
X10195987Y6402664D02*
D03*
X10279980D02*
D03*
X11163300Y6573520D02*
D03*
X10590887Y6482671D02*
D03*
X10359980Y6401356D02*
D03*
Y6482671D02*
D03*
X10592658Y6400863D02*
D03*
X10359982Y6565892D02*
D03*
X10442235Y6565295D02*
D03*
X9799320Y6479540D02*
D03*
X9878060Y6398260D02*
D03*
X11744960Y7251100D02*
D03*
X9719979Y6879987D02*
D03*
X10124458Y6402664D02*
D03*
X10439980D02*
D03*
X10515600Y6403322D02*
D03*
X10279811Y6484638D02*
D03*
X9639300Y6477000D02*
D03*
X9720580Y6479540D02*
D03*
X9879983Y6479987D02*
D03*
X9884912Y6555140D02*
D03*
X11851040Y6850380D02*
D03*
X11442759Y6460656D02*
D03*
X10251440Y6789420D02*
D03*
X9786714Y6963729D02*
D03*
X11328400Y7645418D02*
D03*
X11303000Y7454900D02*
D03*
X11955780Y7155180D02*
D03*
X11845459Y7158821D02*
D03*
X11449977Y7649986D02*
D03*
X11549978Y7649986D02*
D03*
X10807700Y7302500D02*
D03*
X11645900Y6731000D02*
D03*
X9791700Y6667500D02*
D03*
X9720355Y6959987D02*
D03*
X10039979Y6402664D02*
D03*
X12146002Y7250431D02*
D03*
X11544300Y6553200D02*
D03*
X11539308Y6844564D02*
D03*
X9559980Y6399987D02*
D03*
X11345290Y6845300D02*
D03*
X10199980Y6479987D02*
D03*
X11445290Y6845300D02*
D03*
X11252200Y7696200D02*
D03*
X11751690Y7554064D02*
D03*
X11545900Y7551700D02*
D03*
X11549978Y7449986D02*
D03*
X11449978D02*
D03*
X11954055Y7448274D02*
D03*
X11948264Y7345910D02*
D03*
X11851690Y7354064D02*
D03*
X11751690D02*
D03*
X5080000Y9499600D02*
D03*
D125*
X8534400Y4521200D02*
D03*
X13604160Y6399987D02*
D03*
X15360304Y9326880D02*
D03*
X5384800Y7162800D02*
D03*
X5372100Y7531100D02*
D03*
Y7874000D02*
D03*
X4546600Y7124700D02*
D03*
X4559300Y7289800D02*
D03*
X4572000Y7416800D02*
D03*
X4394200Y7404100D02*
D03*
X4191000D02*
D03*
X4711700Y7632700D02*
D03*
X4813300Y7569200D02*
D03*
X4800600Y7721600D02*
D03*
X15773399Y2590800D02*
D03*
X15735300Y2755900D02*
D03*
Y2997200D02*
D03*
X15938499D02*
D03*
Y2857500D02*
D03*
Y2717800D02*
D03*
Y2578100D02*
D03*
X14681200Y2971800D02*
D03*
X14693900Y2667000D02*
D03*
X14795500D02*
D03*
X14876781Y3108029D02*
D03*
X15367000Y3187700D02*
D03*
X15608299D02*
D03*
X15798801D02*
D03*
X15697200D02*
D03*
X8432800Y9702800D02*
D03*
X16319501Y4241800D02*
D03*
X16598900Y6743700D02*
D03*
X14350999Y5791200D02*
D03*
X14084300Y2921000D02*
D03*
X13944600Y3759200D02*
D03*
X7416800Y7137400D02*
D03*
X7213108Y6997700D02*
D03*
X3327400Y7721600D02*
D03*
X3160610Y7799490D02*
D03*
X3784600Y7378700D02*
D03*
X11620500Y2222500D02*
D03*
X10061800Y2708500D02*
D03*
X10454640Y4826000D02*
D03*
X10634980Y4147820D02*
D03*
X10675620Y3779520D02*
D03*
X11026140D02*
D03*
X11031220Y4257040D02*
D03*
X11480800Y4823460D02*
D03*
X9494520Y3817620D02*
D03*
X9260840Y3839210D02*
D03*
X8735060Y4826000D02*
D03*
X8737940Y4646000D02*
D03*
X8742546Y4736000D02*
D03*
X8763315Y4286000D02*
D03*
X8276180Y9699400D02*
D03*
X8269380Y8886600D02*
D03*
X11582400Y4216400D02*
D03*
X12268600Y4317600D02*
D03*
X12848703Y5504200D02*
D03*
Y5943600D02*
D03*
X12052300Y6390339D02*
D03*
X11696700Y3797300D02*
D03*
X12540000Y5943600D02*
D03*
X11531600Y6083300D02*
D03*
X11785600Y6337300D02*
D03*
X11950700Y6386950D02*
D03*
X13716000Y5867400D02*
D03*
X14350999Y5626100D02*
D03*
X13138150Y4832350D02*
D03*
X14478000Y5130800D02*
D03*
X14579601D02*
D03*
X14478000Y4953000D02*
D03*
X14579601D02*
D03*
X14306551Y5314950D02*
D03*
X14312900Y5219700D02*
D03*
X14319250Y5111750D02*
D03*
X14293851Y5022850D02*
D03*
X13982700Y4508500D02*
D03*
X13874750Y4514850D02*
D03*
X13859898Y5867400D02*
D03*
X14338300Y6045200D02*
D03*
X14668500Y6324600D02*
D03*
X14274800D02*
D03*
X14681200Y6972300D02*
D03*
X14274800Y6959600D02*
D03*
X15024100Y7759700D02*
D03*
X15033200Y7845000D02*
D03*
X15138400Y8064500D02*
D03*
X14617700Y7899400D02*
D03*
Y7988300D02*
D03*
X14846300Y8280400D02*
D03*
X16421100Y8458200D02*
D03*
X16600951Y8587250D02*
D03*
X16043336Y8696264D02*
D03*
X16040100Y9093200D02*
D03*
X15218900Y8339600D02*
D03*
X14274800Y9169400D02*
D03*
X14681200Y9156700D02*
D03*
Y8483600D02*
D03*
X14274800D02*
D03*
X12301200Y5943600D02*
D03*
X12540000Y5506700D02*
D03*
X12301200Y5516900D02*
D03*
X11785600Y5740400D02*
D03*
X11798300Y6146800D02*
D03*
X12496800Y1270000D02*
D03*
X11607800Y4013200D02*
D03*
X11557000Y3835400D02*
D03*
X11636993Y3747787D02*
D03*
X11930497Y3345297D02*
D03*
X12214977Y3329823D02*
D03*
X12115800Y3327400D02*
D03*
X12014200D02*
D03*
X11808577Y4671177D02*
D03*
X11912600Y4673600D02*
D03*
X12014200D02*
D03*
X12217400Y4749800D02*
D03*
X12113377Y4798177D02*
D03*
X12214977Y4645777D02*
D03*
X12316577D02*
D03*
X12903200Y3810000D02*
D03*
Y3911600D02*
D03*
Y4013200D02*
D03*
Y4114800D02*
D03*
Y4216400D02*
D03*
Y4318000D02*
D03*
Y4419600D02*
D03*
X14033501Y1130300D02*
D03*
Y1333500D02*
D03*
X12801601Y2362200D02*
D03*
X13837920Y909320D02*
D03*
X12280900Y1841500D02*
D03*
X12915900Y1854200D02*
D03*
X12960350Y2171700D02*
D03*
X12871449D02*
D03*
X12236450Y2184400D02*
D03*
X12325350D02*
D03*
X12598400Y2159000D02*
D03*
X11625580Y2557780D02*
D03*
X11906250Y2851150D02*
D03*
X11672587Y4255787D02*
D03*
Y4154187D02*
D03*
X11667507Y4052587D02*
D03*
X11526520Y3947160D02*
D03*
X11662427Y3950987D02*
D03*
X11764127Y3664067D02*
D03*
X12793980Y4541520D02*
D03*
X11971020Y3708400D02*
D03*
X11611077Y6218657D02*
D03*
X6972300Y6807200D02*
D03*
X7360920Y6548120D02*
D03*
X7594600Y6553200D02*
D03*
Y6667500D02*
D03*
X7620000Y6007100D02*
D03*
X7302500Y5854700D02*
D03*
X7467600Y5829300D02*
D03*
Y5969000D02*
D03*
Y5664200D02*
D03*
X8292004Y5866304D02*
D03*
X8190404D02*
D03*
X8028805Y5755505D02*
D03*
X7708900Y5575300D02*
D03*
X8103808Y5487608D02*
D03*
X8002208D02*
D03*
X8286750Y6121400D02*
D03*
X8309784Y6036484D02*
D03*
X8182784D02*
D03*
X8188898Y6423598D02*
D03*
X9118600Y7797800D02*
D03*
X2484206Y5718810D02*
D03*
X2636606D02*
D03*
X2789006D02*
D03*
X2941406D02*
D03*
X2865206Y5642610D02*
D03*
X2560406D02*
D03*
X2941406Y5566410D02*
D03*
X2789006D02*
D03*
X2636606D02*
D03*
X2484206D02*
D03*
X2865206Y5490210D02*
D03*
X2560406D02*
D03*
X2941406Y5414010D02*
D03*
X2789006D02*
D03*
X2636606D02*
D03*
X2484206D02*
D03*
X2865206Y5337810D02*
D03*
X2560406D02*
D03*
X2941406Y5261610D02*
D03*
X2789006D02*
D03*
X2636606D02*
D03*
X2484206D02*
D03*
X2865206Y5185410D02*
D03*
X2712806D02*
D03*
X2560406D02*
D03*
X2941406Y5109210D02*
D03*
X2789006D02*
D03*
X2636606D02*
D03*
X2865206Y5033010D02*
D03*
X2712806D02*
D03*
X2941406Y4956810D02*
D03*
X2789006D02*
D03*
X2636606D02*
D03*
X2484206D02*
D03*
Y5109210D02*
D03*
X2560406Y5033010D02*
D03*
X2712806Y5642610D02*
D03*
Y5490210D02*
D03*
Y5337810D02*
D03*
D126*
X6908800Y7772400D02*
D03*
X7543800Y7239000D02*
D03*
X7366000Y7289800D02*
D03*
X7315200Y8509000D02*
D03*
X7924800Y6502400D02*
D03*
X7758295Y6618105D02*
D03*
X7837408Y6135608D02*
D03*
X2286000Y4368800D02*
D03*
X2585806Y4365317D02*
D03*
X10007600Y7825740D02*
D03*
D127*
X18602800Y5586400D02*
D03*
Y5486400D02*
D03*
Y5386400D02*
D03*
X18702800D02*
D03*
Y5486400D02*
D03*
Y5586400D02*
D03*
X18802800D02*
D03*
Y5486400D02*
D03*
Y5386400D02*
D03*
X16424998Y2912198D02*
D03*
X16524998D02*
D03*
X16624998D02*
D03*
Y3012198D02*
D03*
X16524998D02*
D03*
X16424998D02*
D03*
Y3112198D02*
D03*
X16524998D02*
D03*
X16624998D02*
D03*
X16913200Y6046800D02*
D03*
Y6146800D02*
D03*
Y6246800D02*
D03*
X16813200D02*
D03*
Y6146800D02*
D03*
Y6046800D02*
D03*
X16713200D02*
D03*
Y6146800D02*
D03*
Y6246800D02*
D03*
D128*
X11218792Y7141210D02*
G03*
X11204003Y7126421I0J-14789D01*
G01*
X11192604Y7084384D02*
G03*
X11204003Y7095783I0J11399D01*
G01*
X11171434D02*
G03*
X11182833Y7084384I11399J0D01*
G01*
X11171434Y7255766D02*
G03*
X11160034Y7267165I-11399J0D01*
G01*
X11150263D02*
G03*
X11138864Y7255766I0J-11399D01*
G01*
X11127465Y6938010D02*
G03*
X11138864Y6949409I0J11399D01*
G01*
X11106295D02*
G03*
X11117694Y6938010I11399J0D01*
G01*
X11106295Y7255766D02*
G03*
X11094896Y7267165I-11399J0D01*
G01*
X11085125D02*
G03*
X11073725Y7255766I0J-11399D01*
G01*
X11058936Y7141210D02*
G03*
X11073725Y7155999I0J14789D01*
G01*
X9469508Y6217924D02*
G03*
X9454718Y6232713I-14789J0D01*
G01*
X9469508Y6177867D02*
G03*
X9480907Y6166468I11399J0D01*
G01*
X9490678D02*
G03*
X9502077Y6177867I0J11399D01*
G01*
X9513476Y6294986D02*
G03*
X9502077Y6283587I0J-11399D01*
G01*
X9534646D02*
G03*
X9523247Y6294986I-11399J0D01*
G01*
X9534646Y6172159D02*
G03*
X9546046Y6160760I11399J0D01*
G01*
X9555817D02*
G03*
X9567216Y6172159I0J11399D01*
G01*
X9578615Y6294986D02*
G03*
X9567216Y6283587I0J-11399D01*
G01*
X9599785D02*
G03*
X9588386Y6294986I-11399J0D01*
G01*
X9599785Y6172159D02*
G03*
X9611184Y6160760I11399J0D01*
G01*
X9620955D02*
G03*
X9632355Y6172159I0J11399D01*
G01*
X9647144Y6232713D02*
G03*
X9632355Y6217924I0J-14789D01*
G01*
X9969112Y7241089D02*
G03*
X9983902Y7226300I14789J0D01*
G01*
X9969112Y7241092D02*
G03*
X9957713Y7252491I-11399J0D01*
G01*
X9947942D02*
G03*
X9936543Y7241092I0J-11399D01*
G01*
X9925144Y7214898D02*
G03*
X9936543Y7226297I0J11399D01*
G01*
X9903974D02*
G03*
X9915373Y7214898I11399J0D01*
G01*
X9903974Y7244922D02*
G03*
X9892574Y7256322I-11399J0D01*
G01*
X9882803D02*
G03*
X9871404Y7244922I0J-11399D01*
G01*
X9860005Y7209495D02*
G03*
X9871404Y7220894I0J11399D01*
G01*
X9838835D02*
G03*
X9850234Y7209495I11399J0D01*
G01*
X9838835Y7258081D02*
G03*
X9827436Y7269480I-11399J0D01*
G01*
X9817665D02*
G03*
X9806265Y7258081I0J-11399D01*
G01*
X9791476Y7226300D02*
G03*
X9806265Y7241089I0J14789D01*
G01*
X10772183Y7094263D02*
G03*
X10767851Y7083805I10458J-10458D01*
G01*
X10756452Y6985195D02*
G03*
X10767851Y6996594I0J11399D01*
G01*
X10735282D02*
G03*
X10746681Y6985195I11399J0D01*
G01*
X10735282Y7141466D02*
G03*
X10723883Y7152865I-11399J0D01*
G01*
X10714112D02*
G03*
X10702713Y7141466I0J-11399D01*
G01*
X10691313Y6957435D02*
G03*
X10702713Y6968834I0J11399D01*
G01*
X10670143D02*
G03*
X10681543Y6957435I11399J0D01*
G01*
X10670143Y7097777D02*
G03*
X10658744Y7109176I-11399J0D01*
G01*
X10648973D02*
G03*
X10637574Y7097777I0J-11399D01*
G01*
X10626175Y6957435D02*
G03*
X10637574Y6968834I0J11399D01*
G01*
X10605004D02*
G03*
X10616404Y6957435I11399J0D01*
G01*
X10605004Y7076891D02*
G03*
X10590215Y7091680I-14789J0D01*
G01*
X10877569Y6428215D02*
G03*
X10862779Y6443005I-14789J0D01*
G01*
X10877569Y6384712D02*
G03*
X10888968Y6373313I11399J0D01*
G01*
X10898739D02*
G03*
X10910138Y6384712I0J11399D01*
G01*
X10921537Y6443005D02*
G03*
X10910138Y6431606I0J-11399D01*
G01*
X10942708D02*
G03*
X10931308Y6443005I-11399J0D01*
G01*
X10942708Y6373499D02*
G03*
X10954107Y6362100I11399J0D01*
G01*
X10963878D02*
G03*
X10975277Y6373499I0J11399D01*
G01*
X10986676Y6477534D02*
G03*
X10975277Y6466134I0J-11399D01*
G01*
X11007846D02*
G03*
X10996447Y6477534I-11399J0D01*
G01*
X11007846Y6373499D02*
G03*
X11019246Y6362100I11399J0D01*
G01*
X11029017D02*
G03*
X11040416Y6373499I0J11399D01*
G01*
X11051815Y6542672D02*
G03*
X11040416Y6531273I0J-11399D01*
G01*
X11072985D02*
G03*
X11061586Y6542672I-11399J0D01*
G01*
X11072985Y6373499D02*
G03*
X11084384Y6362100I11399J0D01*
G01*
X11094155D02*
G03*
X11105555Y6373499I0J11399D01*
G01*
X11120344Y6443005D02*
G03*
X11105555Y6428215I0J-14789D01*
G01*
X10994710Y6557925D02*
G03*
X11015625Y6557925I10458J10458D01*
G01*
X10964239Y6588395D02*
G03*
X10948118Y6588395I-8060J-8060D01*
G01*
X10941209Y6581486D02*
G03*
X10941209Y6565365I8060J-8060D01*
G01*
X10971679Y6513979D02*
G03*
X10971679Y6534895I-10458J10458D01*
G01*
X11322932Y7350535D02*
G03*
X11337722Y7335745I14789J0D01*
G01*
X11322932Y7350537D02*
G03*
X11311533Y7361937I-11399J0D01*
G01*
X11301762D02*
G03*
X11290363Y7350537I0J-11399D01*
G01*
X11278964Y7324343D02*
G03*
X11290363Y7335743I0J11399D01*
G01*
X11257794D02*
G03*
X11269193Y7324343I11399J0D01*
G01*
X11257794Y7335748D02*
G03*
X11246394Y7347147I-11399J0D01*
G01*
X11236623D02*
G03*
X11225224Y7335748I0J-11399D01*
G01*
X11213825Y7324343D02*
G03*
X11225224Y7335743I0J11399D01*
G01*
X11192655D02*
G03*
X11204054Y7324343I11399J0D01*
G01*
X11192655Y7376365D02*
G03*
X11181256Y7387764I-11399J0D01*
G01*
X11171485D02*
G03*
X11160085Y7376365I0J-11399D01*
G01*
X11145296Y7335745D02*
G03*
X11160085Y7350535I0J14789D01*
G01*
X11143494Y7451909D02*
G03*
X11158283Y7437120I14789J0D01*
G01*
X11143494Y7451912D02*
G03*
X11132094Y7463311I-11399J0D01*
G01*
X11122323D02*
G03*
X11110924Y7451912I0J-11399D01*
G01*
X11099525Y7372524D02*
G03*
X11110924Y7383923I0J11399D01*
G01*
X11078355D02*
G03*
X11089754Y7372524I11399J0D01*
G01*
X11078355Y7455150D02*
G03*
X11066956Y7466549I-11399J0D01*
G01*
X11057185D02*
G03*
X11045785Y7455150I0J-11399D01*
G01*
X11030996Y7437120D02*
G03*
X11045785Y7451909I0J14789D01*
G01*
X10987265Y7309345D02*
G03*
X10987265Y7288430I10458J-10458D01*
G01*
X10988095Y7271478D02*
G03*
X10988095Y7287599I-8061J8060D01*
G01*
X10965065Y7264569D02*
G03*
X10981186Y7264569I8060J8060D01*
G01*
X10924906Y7304728D02*
G03*
X10908785Y7304728I-8060J-8060D01*
G01*
X10901876Y7297819D02*
G03*
X10901876Y7281698I8060J-8060D01*
G01*
X10942035Y7225418D02*
G03*
X10942035Y7241539I-8061J8060D01*
G01*
X10919005Y7218509D02*
G03*
X10935126Y7218509I8060J8060D01*
G01*
X10910996Y7226518D02*
G03*
X10894875Y7226518I-8060J-8060D01*
G01*
X10887966Y7219609D02*
G03*
X10887966Y7203488I8060J-8060D01*
G01*
X10896763Y7178570D02*
G03*
X10896763Y7194691I-8061J8060D01*
G01*
X10873733Y7171661D02*
G03*
X10889854Y7171661I8060J8060D01*
G01*
X10832786Y7212608D02*
G03*
X10816665Y7212608I-8060J-8060D01*
G01*
X10809756Y7205699D02*
G03*
X10809756Y7189578I8060J-8060D01*
G01*
X10828169Y7150249D02*
G03*
X10828169Y7171165I-10458J10458D01*
G01*
X11467199Y7295480D02*
G03*
X11452409Y7280691I0J-14789D01*
G01*
X11441010Y7207765D02*
G03*
X11452409Y7219164I0J11399D01*
G01*
X11419840D02*
G03*
X11431239Y7207765I11399J0D01*
G01*
X11419840Y7296031D02*
G03*
X11408441Y7307430I-11399J0D01*
G01*
X11398670D02*
G03*
X11387271Y7296031I0J-11399D01*
G01*
X11375871Y7201518D02*
G03*
X11387271Y7212917I0J11399D01*
G01*
X11354701D02*
G03*
X11366100Y7201518I11399J0D01*
G01*
X11354701Y7296031D02*
G03*
X11343302Y7307430I-11399J0D01*
G01*
X11333531D02*
G03*
X11322132Y7296031I0J-11399D01*
G01*
X11310733Y7201518D02*
G03*
X11322132Y7212917I0J11399D01*
G01*
X11289562D02*
G03*
X11300962Y7201518I11399J0D01*
G01*
X11289562Y7280691D02*
G03*
X11274773Y7295480I-14789J0D01*
G01*
X9613900Y7226300D02*
X9784080D01*
X9464331Y7076731D02*
X9613900Y7226300D01*
X9456324Y7076731D02*
X9464331D01*
X9435142Y7055549D02*
X9456324Y7076731D01*
X9435142Y7025593D02*
Y7055549D01*
X11931979Y6976439D02*
Y7038233D01*
X11851640Y6896100D02*
X11931979Y6976439D01*
X10901386Y6896100D02*
X11851640D01*
X11933308Y7050578D02*
X11936310Y7053580D01*
X11933308Y7039563D02*
Y7050578D01*
X11849100Y7101840D02*
X11887200Y7139940D01*
X11655400Y7139318D02*
X11692878Y7101840D01*
X11849100D01*
X11919620Y7140202D02*
X11972471Y7087351D01*
X11955780Y7155180D02*
X12001500Y7109460D01*
Y6819900D02*
Y7109460D01*
X11972471Y6905171D02*
Y7087351D01*
X11859260Y6677660D02*
X12001500Y6819900D01*
X11931979Y7038233D02*
X11933308Y7039563D01*
X11874500Y6807200D02*
X11972471Y6905171D01*
X11919620Y7140202D02*
Y7286135D01*
X11121799Y6333785D02*
X11465674Y6677660D01*
X11859260D01*
X10618837Y6613551D02*
X10901386Y6896100D01*
X9194800Y6981551D02*
X9419951Y6756400D01*
X9563100D02*
X9696752Y6622749D01*
X9419951Y6756400D02*
X9563100D01*
X9696752Y6622749D02*
X9867508D01*
X9194800Y6981551D02*
Y7023100D01*
X10557979Y6613551D02*
X10618837D01*
X10548781Y6622749D02*
X10557979Y6613551D01*
X9753600Y6842760D02*
X9849037D01*
X10043160D01*
X9706068D02*
X9753600D01*
X9521067Y6438900D02*
X10439400D01*
X10521298Y6520798D01*
X10712764D01*
X10762242Y6471320D01*
X10134600Y6622749D02*
X10548781D01*
X9867508D02*
X10134600D01*
X9484342Y6644658D02*
X9486900Y6642100D01*
X9404653Y6644658D02*
X9484342D01*
X9478377Y6558384D02*
Y6558669D01*
X9436100Y6516107D02*
X9478377Y6558384D01*
X9436100Y6401081D02*
Y6516107D01*
X9603325Y6832600D02*
X9628725Y6807200D01*
X9601200Y6832600D02*
X9603325D01*
X9628725Y6807200D02*
X10053325D01*
X10204339Y7091680D02*
X10550250D01*
X10156140Y7016458D02*
Y7043481D01*
X10022724Y6883042D02*
X10156140Y7016458D01*
X9964438Y6883042D02*
X10022724D01*
X9309100Y6549105D02*
X9404653Y6644658D01*
X9679980Y6868849D02*
X9706068Y6842760D01*
X10043160D02*
X10129520Y6929120D01*
X9482614Y6477354D02*
X9521067Y6438900D01*
X9479979Y6477354D02*
X9482614D01*
X9436700Y6870100D02*
Y7024035D01*
Y6870100D02*
X9469120Y6837680D01*
X9435142Y7025593D02*
X9436700Y7024035D01*
X9519978Y6979978D02*
X9541213Y7001213D01*
X9559980Y6877423D02*
Y6965052D01*
X9649892Y7001213D02*
X9679980Y6971125D01*
X9541213Y7001213D02*
X9649892D01*
X9482982Y6968054D02*
Y6991852D01*
X9479980Y6965052D02*
X9482982Y6968054D01*
X9483729Y6883737D02*
X9519978Y6919986D01*
X9482982Y6991852D02*
X9516140Y7025010D01*
X9359900Y6446520D02*
X9398000Y6484620D01*
X9359900Y6388100D02*
Y6446520D01*
X9413615Y6334385D02*
X9722182D01*
X9359900Y6388100D02*
X9413615Y6334385D01*
X9436100Y6401081D02*
X9474481Y6362700D01*
X9710454D01*
X11506588Y7295480D02*
X11792620D01*
X11845075Y7243025D01*
X11256654Y7141210D02*
X11276330D01*
X11218792D02*
X11256654D01*
X11204003Y7095783D02*
Y7126421D01*
X11182833Y7084384D02*
X11192604D01*
X11171434Y7095783D02*
Y7255766D01*
X11150263Y7267165D02*
X11160034D01*
X11138864Y6949409D02*
Y7255766D01*
X11117694Y6938010D02*
X11127465D01*
X11106295Y6949409D02*
Y7255766D01*
X11085125Y7267165D02*
X11094896D01*
X11073725Y7155999D02*
Y7255766D01*
X11051540Y7141210D02*
X11058936D01*
X11276330D02*
X11412220Y7005320D01*
X11558407D01*
X11603990Y7050903D02*
X11646037D01*
X11558407Y7005320D02*
X11603990Y7050903D01*
X9420397Y6232713D02*
X9454718D01*
X9469508Y6177867D02*
Y6217924D01*
X9480907Y6166468D02*
X9490678D01*
X9502077Y6177867D02*
Y6283587D01*
X9513476Y6294986D02*
X9523247D01*
X9534646Y6172159D02*
Y6283587D01*
X9546046Y6160760D02*
X9555817D01*
X9567216Y6172159D02*
Y6283587D01*
X9578615Y6294986D02*
X9588386D01*
X9599785Y6172159D02*
Y6283587D01*
X9611184Y6160760D02*
X9620955D01*
X9632355Y6172159D02*
Y6217924D01*
X9647144Y6232713D02*
X9654540D01*
X9388287D02*
X9420397D01*
X9654540D02*
X11122213D01*
X9469120Y6837680D02*
X9520238D01*
X9559980Y6877423D01*
X9983902Y7226300D02*
X10467340D01*
X9969112Y7241089D02*
Y7241092D01*
X9947942Y7252491D02*
X9957713D01*
X9936543Y7226297D02*
Y7241092D01*
X9915373Y7214898D02*
X9925144D01*
X9903974Y7226297D02*
Y7244922D01*
X9882803Y7256322D02*
X9892574D01*
X9871404Y7220894D02*
Y7244922D01*
X9850234Y7209495D02*
X9860005D01*
X9838835Y7220894D02*
Y7258081D01*
X9817665Y7269480D02*
X9827436D01*
X9806265Y7241089D02*
Y7258081D01*
X9784080Y7226300D02*
X9791476D01*
X10467340D02*
X10668000D01*
X11122213Y6232713D02*
X11442531Y6553031D01*
X11442869D01*
X10231120Y6929120D02*
X10401300D01*
X10751820D01*
X10129520D02*
X10231120D01*
X10751820D02*
X10929620Y7106920D01*
X10772183Y7094263D02*
X10817860Y7139940D01*
X10767851Y6996594D02*
Y7083805D01*
X10746681Y6985195D02*
X10756452D01*
X10735282Y6996594D02*
Y7141466D01*
X10714112Y7152865D02*
X10723883D01*
X10702713Y6968834D02*
Y7141466D01*
X10681543Y6957435D02*
X10691313D01*
X10670143Y6968834D02*
Y7097777D01*
X10648973Y7109176D02*
X10658744D01*
X10637574Y6968834D02*
Y7097777D01*
X10616404Y6957435D02*
X10626175D01*
X10605004Y6968834D02*
Y7076891D01*
X10550250Y7091680D02*
X10590215D01*
X11845075Y7243025D02*
X11849100D01*
X10664860Y6362100D02*
X10745765Y6443005D01*
X10780760D02*
X10862779D01*
X10877569Y6384712D02*
Y6428215D01*
X10888968Y6373313D02*
X10898739D01*
X10910138Y6384712D02*
Y6431606D01*
X10921537Y6443005D02*
X10931308D01*
X10942708Y6373499D02*
Y6431606D01*
X10954107Y6362100D02*
X10963878D01*
X10975277Y6373499D02*
Y6466134D01*
X10986676Y6477534D02*
X10996447D01*
X11007846Y6373499D02*
Y6466134D01*
X11019246Y6362100D02*
X11029017D01*
X11040416Y6373499D02*
Y6531273D01*
X11051815Y6542672D02*
X11061586D01*
X11072985Y6373499D02*
Y6531273D01*
X11084384Y6362100D02*
X11094155D01*
X11105555Y6373499D02*
Y6428215D01*
X11120344Y6443005D02*
X11127740D01*
X10745765D02*
X10780760D01*
X11430000Y6718300D02*
X11629391D01*
X11154705Y6443005D02*
X11430000Y6718300D01*
X11127740Y6443005D02*
X11154705D01*
X9863082Y6362100D02*
X10664860D01*
X11015625Y6557925D02*
X11252200Y6794500D01*
X10964239Y6588395D02*
X10994710Y6557925D01*
X10941209Y6581486D02*
X10948118Y6588395D01*
X10941209Y6565365D02*
X10971679Y6534895D01*
X10966450Y6508750D02*
X10971679Y6513979D01*
X11252200Y6794500D02*
X11264900Y6807200D01*
X10929020Y6471320D02*
X10966450Y6508750D01*
X10762242Y6471320D02*
X10929020D01*
X11264900Y6807200D02*
X11874500D01*
X11337722Y7335745D02*
X11512711D01*
X11322932Y7350535D02*
Y7350537D01*
X11301762Y7361937D02*
X11311533D01*
X11290363Y7335743D02*
Y7350537D01*
X11269193Y7324343D02*
X11278964D01*
X11257794Y7335743D02*
Y7335748D01*
X11236623Y7347147D02*
X11246394D01*
X11225224Y7335743D02*
Y7335748D01*
X11204054Y7324343D02*
X11213825D01*
X11192655Y7335743D02*
Y7376365D01*
X11171485Y7387764D02*
X11181256D01*
X11160085Y7350535D02*
Y7376365D01*
X11137900Y7335745D02*
X11145296D01*
X11512711D02*
X11564845D01*
X11001133Y7437120D02*
X11023600D01*
X11158283D02*
X11211560D01*
X11143494Y7451909D02*
Y7451912D01*
X11122323Y7463311D02*
X11132094D01*
X11110924Y7383923D02*
Y7451912D01*
X11089754Y7372524D02*
X11099525D01*
X11078355Y7383923D02*
Y7455150D01*
X11057185Y7466549D02*
X11066956D01*
X11045785Y7451909D02*
Y7455150D01*
X11023600Y7437120D02*
X11030996D01*
X11211560D02*
X11254740D01*
X11287760Y7404100D01*
X11557000D02*
X11595100Y7442200D01*
X11287760Y7404100D02*
X11557000D01*
X10745194Y7181180D02*
X11001133Y7437120D01*
X11013665Y7335745D02*
X11137900D01*
X10987265Y7309345D02*
X11004550Y7326630D01*
X10987265Y7288430D02*
X10988095Y7287599D01*
X10988095Y7287599D02*
X10988095Y7287599D01*
X10981186Y7264569D02*
X10988095Y7271478D01*
X10965065Y7264569D02*
X10965065Y7264569D01*
X10924906Y7304728D02*
X10965065Y7264569D01*
X10924906Y7304728D02*
X10924906Y7304728D01*
X10901876Y7297819D02*
X10908785Y7304728D01*
X10901876Y7281698D02*
X10901876Y7281698D01*
X10942035Y7241539D01*
X10942035Y7241539D02*
X10942035Y7241539D01*
X10935126Y7218509D02*
X10942035Y7225418D01*
X10919005Y7218509D02*
X10919005Y7218509D01*
X10910996Y7226518D02*
X10919005Y7218509D01*
X10910996Y7226518D02*
X10910996Y7226518D01*
X10887966Y7219609D02*
X10894875Y7226518D01*
X10887966Y7203488D02*
X10887966Y7203488D01*
X10896763Y7194691D01*
X10896763Y7194691D02*
X10896763Y7194691D01*
X10889854Y7171661D02*
X10896763Y7178570D01*
X10873733Y7171661D02*
X10873733Y7171661D01*
X10832786Y7212608D02*
X10873733Y7171661D01*
X10832786Y7212608D02*
X10832786Y7212608D01*
X10809756Y7205699D02*
X10816665Y7212608D01*
X10809756Y7189578D02*
X10809756Y7189578D01*
X10828169Y7171165D01*
X10828169Y7171164D02*
X10828169Y7171165D01*
X10822940Y7145020D02*
X10828169Y7150249D01*
X11004550Y7326630D02*
X11013665Y7335745D01*
X10817860Y7139940D02*
X10822940Y7145020D01*
X11007090Y7141210D02*
X11051540D01*
X11467199Y7295480D02*
X11506588D01*
X11452409Y7219164D02*
Y7280691D01*
X11431239Y7207765D02*
X11441010D01*
X11419840Y7219164D02*
Y7296031D01*
X11398670Y7307430D02*
X11408441D01*
X11387271Y7212917D02*
Y7296031D01*
X11366100Y7201518D02*
X11375871D01*
X11354701Y7212917D02*
Y7296031D01*
X11333531Y7307430D02*
X11343302D01*
X11322132Y7212917D02*
Y7296031D01*
X11300962Y7201518D02*
X11310733D01*
X11289562Y7212917D02*
Y7280691D01*
X11234808Y7295480D02*
X11274773D01*
X11052140D02*
X11234808D01*
X10929620Y7172960D02*
X11052140Y7295480D01*
X10929620Y7106920D02*
Y7172960D01*
X10703008Y6837128D02*
X11007090Y7141210D01*
X10156140Y7043481D02*
X10204339Y7091680D01*
X10397389Y6837128D02*
X10703008D01*
X9722182Y6334385D02*
X9731002Y6343205D01*
X9841933D01*
X9719274Y6371520D02*
X9853662D01*
X9841933Y6343205D02*
X9851354Y6333785D01*
X11121799D01*
X9710454Y6362700D02*
X9719274Y6371520D01*
X9853662D02*
X9863082Y6362100D01*
X10353056Y6881460D02*
X10397389Y6837128D01*
X11887200Y7139940D02*
Y7264400D01*
X10053325Y6807200D02*
X10127585Y6881460D01*
X10353056D01*
X9679980Y6868849D02*
Y6971125D01*
X9516140Y7025010D02*
Y7077349D01*
X9619971Y7181180D01*
X10745194D01*
X11851690Y7354064D02*
X11919620Y7286135D01*
X10668000Y7226300D02*
X10936564Y7494864D01*
X11907464D01*
X11954054Y7448274D01*
X11564845Y7335745D02*
X11629085Y7399985D01*
X11629391Y6718300D02*
X11642091Y6731000D01*
X11645900D01*
X11798300Y7353300D02*
Y7404100D01*
X11760200Y7442200D02*
X11798300Y7404100D01*
Y7353300D02*
X11887200Y7264400D01*
X11629085Y7399985D02*
X11705769D01*
X11751690Y7354064D01*
X11595100Y7442200D02*
X11760200D01*
X9519978Y6919986D02*
Y6979978D01*
X9309100Y6311900D02*
Y6549105D01*
Y6311900D02*
X9388287Y6232713D01*
D129*
X12166600Y6162040D02*
X12700000Y6695440D01*
Y6804046D02*
X12740482Y6844528D01*
X12700000Y6695440D02*
Y6804046D01*
X12397740Y6659880D02*
Y6761480D01*
X12586462Y6950202D02*
X12651184D01*
X12397740Y6761480D02*
X12586462Y6950202D01*
X12166600Y4551680D02*
Y6162040D01*
X12014200Y6113780D02*
X12649200Y6748780D01*
X11906200Y6168340D02*
X12397740Y6659880D01*
X11906200Y5104825D02*
Y6168340D01*
X11667507Y4052587D02*
X12166600Y4551680D01*
X12014200Y4673600D02*
Y6113780D01*
X11749077Y4947702D02*
X11906200Y5104825D01*
X11749077Y4230677D02*
Y4947702D01*
X11672587Y4154187D02*
X11749077Y4230677D01*
X12916360Y6670501D02*
X12994360Y6748500D01*
X12916360Y6544358D02*
Y6670501D01*
X12994360Y6748500D02*
X13055499D01*
X13208000Y6630510D02*
Y6698974D01*
X13151463Y6755510D02*
X13208000Y6698974D01*
X13141960Y6564470D02*
X13208000Y6630510D01*
X13141960Y5046980D02*
Y6564470D01*
X13084067Y6312427D02*
Y6661768D01*
X13044125Y6272485D02*
X13084067Y6312427D01*
X13044125Y5321221D02*
Y6272485D01*
X13062846Y6682989D02*
X13084067Y6661768D01*
X12955499Y6648500D02*
X12989989Y6682989D01*
X13062846D01*
X12717780Y4994875D02*
X13044125Y5321221D01*
X13051463Y6353484D02*
Y6655510D01*
X13004800Y5095240D02*
X13103860Y5194300D01*
Y6261100D01*
X12697460Y5999480D02*
X13051463Y6353484D01*
X13027457Y6359956D02*
Y6433263D01*
X12841223Y6532880D02*
X12999977Y6374126D01*
X12654178Y5986678D02*
X13027457Y6359956D01*
X12916360Y6544358D02*
X13027457Y6433263D01*
X12697460Y5026660D02*
Y5999480D01*
X13032739Y4937760D02*
X13141960Y5046980D01*
X12654178Y5036718D02*
Y5986678D01*
X12717780Y4401820D02*
Y4994875D01*
Y4401820D02*
X12903200Y4216400D01*
X12268600Y4317600D02*
Y4651140D01*
X12654178Y5036718D01*
X12214977Y4645777D02*
X12423140Y4853940D01*
Y6099549D01*
X12700000Y6376409D01*
X12316577Y4645777D02*
X12697460Y5026660D01*
X12646258Y6532880D02*
X12841223D01*
X12217400Y6104022D02*
X12646258Y6532880D01*
X13032739Y4041140D02*
Y4937760D01*
X12903200Y3911600D02*
X13032739Y4041140D01*
X12903200Y4013200D02*
X13004800Y4114800D01*
Y5095240D01*
X12217400Y4749800D02*
Y6104022D01*
%TF.MD5,f0a147d743d0738ccb1de2ce1b5637cd*%
M02*
