G04*
G04 #@! TF.GenerationSoftware,Altium Limited,Altium Designer,22.11.1 (43)*
G04*
G04 Layer_Color=32896*
%FSLAX44Y44*%
%MOMM*%
G71*
G04*
G04 #@! TF.SameCoordinates,685F9FB9-B41E-4883-9AF5-229453B53175*
G04*
G04*
G04 #@! TF.FilePolarity,Positive*
G04*
G01*
G75*
%ADD89C,0.1270*%
%ADD125C,0.1999*%
D89*
X647883Y1181931D02*
X653271Y1176543D01*
X641597Y1164869D02*
X653271Y1176543D01*
X636209Y1170257D02*
X641597Y1164869D01*
X636209Y1170257D02*
X647883Y1181931D01*
X682939Y1158335D02*
X690559D01*
X682939D02*
Y1174845D01*
X690559D01*
Y1158335D02*
Y1174845D01*
X681255Y1163635D02*
Y1171255D01*
X664745Y1163635D02*
X681255D01*
X664745D02*
Y1171255D01*
X681255D01*
X682555Y1297445D02*
Y1305065D01*
X699065D01*
Y1297445D02*
Y1305065D01*
X682555Y1297445D02*
X699065D01*
X674300Y1333190D02*
Y1340810D01*
X690810D01*
Y1333190D02*
Y1340810D01*
X674300Y1333190D02*
X690810D01*
X697254Y1313047D02*
Y1320667D01*
X680744Y1313047D02*
X697254D01*
X680744D02*
Y1320667D01*
X697254D01*
X626743Y1328531D02*
X632131Y1323143D01*
X620457Y1311469D02*
X632131Y1323143D01*
X615069Y1316857D02*
X620457Y1311469D01*
X615069Y1316857D02*
X626743Y1328531D01*
X642300Y1273190D02*
Y1280810D01*
X625790Y1273190D02*
X642300D01*
X625790D02*
Y1280810D01*
X642300D01*
X662655Y1243745D02*
Y1251365D01*
X646145Y1243745D02*
X662655D01*
X646145D02*
Y1251365D01*
X662655D01*
X651700Y1213590D02*
Y1221210D01*
X635190Y1213590D02*
X651700D01*
X635190D02*
Y1221210D01*
X651700D01*
X595190Y1154745D02*
X602810D01*
X595190D02*
Y1171255D01*
X602810D01*
Y1154745D02*
Y1171255D01*
X635190Y1133145D02*
X642810D01*
X635190D02*
Y1149655D01*
X642810D01*
Y1133145D02*
Y1149655D01*
X506300Y1124110D02*
Y1131730D01*
X522810D01*
Y1124110D02*
Y1131730D01*
X506300Y1124110D02*
X522810D01*
X454190Y1124745D02*
X461810D01*
X454190D02*
Y1141255D01*
X461810D01*
Y1124745D02*
Y1141255D01*
X473190Y1178190D02*
X480810D01*
X473190D02*
Y1194700D01*
X480810D01*
Y1178190D02*
Y1194700D01*
X452190Y1164745D02*
X459810D01*
X452190D02*
Y1181255D01*
X459810D01*
Y1164745D02*
Y1181255D01*
X454190Y1205190D02*
X461810D01*
X454190D02*
Y1221700D01*
X461810D01*
Y1205190D02*
Y1221700D01*
X456145Y1243745D02*
X463765D01*
X456145D02*
Y1260255D01*
X463765D01*
Y1243745D02*
Y1260255D01*
X484469Y1266857D02*
X489857Y1261469D01*
X484469Y1266857D02*
X496143Y1278531D01*
X501531Y1273143D01*
X489857Y1261469D02*
X501531Y1273143D01*
X473190Y1300255D02*
X480810D01*
Y1283745D02*
Y1300255D01*
X473190Y1283745D02*
X480810D01*
X473190D02*
Y1300255D01*
X454190Y1284745D02*
X461810D01*
X454190D02*
Y1301255D01*
X461810D01*
Y1284745D02*
Y1301255D01*
X615190Y1254683D02*
X622810D01*
X615190D02*
Y1271193D01*
X622810D01*
Y1254683D02*
Y1271193D01*
X603041Y1250238D02*
X610661D01*
X603041D02*
Y1266748D01*
X610661D01*
Y1250238D02*
Y1266748D01*
X603190Y1236762D02*
X610810D01*
Y1220252D02*
Y1236762D01*
X603190Y1220252D02*
X610810D01*
X603190D02*
Y1236762D01*
X631700Y1233590D02*
Y1241210D01*
X615190Y1233590D02*
X631700D01*
X615190D02*
Y1241210D01*
X631700D01*
X456145Y1354190D02*
Y1361810D01*
X472655D01*
Y1354190D02*
Y1361810D01*
X456145Y1354190D02*
X472655D01*
X455284Y1325665D02*
X462904D01*
X455284D02*
Y1342175D01*
X462904D01*
Y1325665D02*
Y1342175D01*
X462745Y1325665D02*
Y1333285D01*
X479255D01*
Y1325665D02*
Y1333285D01*
X462745Y1325665D02*
X479255D01*
X1930908Y1573022D02*
X1963928D01*
X1930908Y1606042D02*
X1963928D01*
Y1573022D02*
Y1606042D01*
X1930908Y1573022D02*
Y1606042D01*
X1965198Y211328D02*
X1998218D01*
X1965198Y244348D02*
X1998218D01*
Y211328D02*
Y244348D01*
X1965198Y211328D02*
Y244348D01*
X-10160Y101092D02*
X22860D01*
X-10160Y134112D02*
X22860D01*
Y101092D02*
Y134112D01*
X-10160Y101092D02*
Y134112D01*
X3048Y1670304D02*
X36068D01*
X3048Y1703324D02*
X36068D01*
Y1670304D02*
Y1703324D01*
X3048Y1670304D02*
Y1703324D01*
D125*
X540351Y1223380D02*
Y1238620D01*
X511649Y1223380D02*
X540351D01*
X511649D02*
Y1238620D01*
X540351D01*
X587436Y1190402D02*
X602676D01*
X587436D02*
Y1219103D01*
X602676D01*
Y1190402D02*
Y1219103D01*
M02*
