G04*
G04 #@! TF.GenerationSoftware,Altium Limited,Altium Designer,22.11.1 (43)*
G04*
G04 Layer_Physical_Order=5*
G04 Layer_Color=16440176*
%FSLAX44Y44*%
%MOMM*%
G71*
G04*
G04 #@! TF.SameCoordinates,685F9FB9-B41E-4883-9AF5-229453B53175*
G04*
G04*
G04 #@! TF.FilePolarity,Positive*
G04*
G01*
G75*
%ADD98C,3.3020*%
%ADD99C,0.6000*%
%ADD100C,3.8100*%
G04:AMPARAMS|DCode=101|XSize=1.524mm|YSize=1.524mm|CornerRadius=0mm|HoleSize=0mm|Usage=FLASHONLY|Rotation=270.000|XOffset=0mm|YOffset=0mm|HoleType=Round|Shape=Octagon|*
%AMOCTAGOND101*
4,1,8,-0.3810,-0.7620,0.3810,-0.7620,0.7620,-0.3810,0.7620,0.3810,0.3810,0.7620,-0.3810,0.7620,-0.7620,0.3810,-0.7620,-0.3810,-0.3810,-0.7620,0.0*
%
%ADD101OCTAGOND101*%

%ADD102C,1.5240*%
%ADD103C,1.9050*%
%ADD104R,1.9050X1.9050*%
%ADD105C,3.5000*%
%ADD106C,3.0000*%
%ADD107C,1.6000*%
%ADD108C,2.2000*%
%ADD109R,3.0000X3.0000*%
%ADD110C,0.2700*%
%ADD111C,0.3302*%
%ADD112C,0.2032*%
%ADD113C,0.2400*%
%ADD114C,0.2540*%
%ADD115C,0.5000*%
%ADD116C,0.5080*%
%ADD117C,0.5588*%
D98*
X-69850Y71628D02*
D03*
X2121154Y65024D02*
D03*
X2116836Y1688592D02*
D03*
X-62213Y1689432D02*
D03*
D99*
X445687Y1462339D02*
D03*
X445687Y1451639D02*
D03*
Y1440939D02*
D03*
X434987Y1462339D02*
D03*
Y1451639D02*
D03*
Y1440939D02*
D03*
X424287Y1462339D02*
D03*
X424287Y1451639D02*
D03*
X424287Y1440939D02*
D03*
D100*
X-69850Y1286002D02*
D03*
Y1413002D02*
D03*
D101*
X-44450Y1313942D02*
D03*
D102*
Y1334262D02*
D03*
Y1354582D02*
D03*
Y1374902D02*
D03*
X-26670Y1324102D02*
D03*
Y1344422D02*
D03*
Y1364742D02*
D03*
Y1385062D02*
D03*
X21590Y1280922D02*
D03*
Y1395222D02*
D03*
Y1418082D02*
D03*
Y1303782D02*
D03*
X1751400Y2339760D02*
D03*
Y2314360D02*
D03*
X-995000Y597200D02*
D03*
Y622600D02*
D03*
Y648000D02*
D03*
D103*
X2100000Y1225000D02*
D03*
Y1175000D02*
D03*
Y1125000D02*
D03*
D104*
Y1075000D02*
D03*
D105*
X4457580Y2473300D02*
D03*
X3957580Y2973300D02*
D03*
D106*
X996640Y1634754D02*
D03*
X1117040Y1634754D02*
D03*
X13208Y1567942D02*
D03*
Y1609942D02*
D03*
X68208Y1525942D02*
D03*
Y1567942D02*
D03*
Y1609942D02*
D03*
D107*
X1069340Y1607754D02*
D03*
X1044340D02*
D03*
X1069340Y1587754D02*
D03*
X1044340D02*
D03*
D108*
X902800Y73280D02*
D03*
Y22480D02*
D03*
X953600D02*
D03*
Y73280D02*
D03*
X928200Y47880D02*
D03*
X1103600Y73280D02*
D03*
Y22480D02*
D03*
X1154400D02*
D03*
Y73280D02*
D03*
X1129000Y47880D02*
D03*
X492220Y77090D02*
D03*
Y26290D02*
D03*
X543020D02*
D03*
Y77090D02*
D03*
X517620Y51690D02*
D03*
X277800Y73280D02*
D03*
Y22480D02*
D03*
X328600D02*
D03*
Y73280D02*
D03*
X303200Y47880D02*
D03*
D109*
X13208Y1525942D02*
D03*
D110*
X1096330Y1496251D02*
D03*
Y1457135D02*
D03*
X77271Y1366528D02*
D03*
X442487Y1494458D02*
D03*
X410487Y1421739D02*
D03*
X324862Y1388072D02*
D03*
X324773Y1400963D02*
D03*
X324862Y1415713D02*
D03*
X324736Y1428442D02*
D03*
X324696Y1440923D02*
D03*
X324682Y1455603D02*
D03*
X324696Y1469758D02*
D03*
X559055Y1398029D02*
D03*
X558752Y1409711D02*
D03*
X558877Y1423931D02*
D03*
X559000Y1437973D02*
D03*
Y1451773D02*
D03*
Y1464973D02*
D03*
Y1477579D02*
D03*
X459487Y1481539D02*
D03*
D111*
X294513Y1348166D02*
D03*
X294640Y1411903D02*
D03*
X703395Y1301775D02*
D03*
X683330Y1301730D02*
D03*
X703187Y1321400D02*
D03*
X683000D02*
D03*
X634397Y1173127D02*
D03*
X644740Y1183140D02*
D03*
X514740Y1173140D02*
D03*
X524740Y1143140D02*
D03*
X564740Y1153140D02*
D03*
X554799Y1172538D02*
D03*
X554740Y1203140D02*
D03*
X663128Y1361570D02*
D03*
X643260Y1362260D02*
D03*
X623260D02*
D03*
X603260Y1331660D02*
D03*
Y1311660D02*
D03*
Y1271660D02*
D03*
X613260Y1281660D02*
D03*
X683260Y1232740D02*
D03*
X703260D02*
D03*
Y1213140D02*
D03*
Y1192740D02*
D03*
X683260Y1132740D02*
D03*
X703260D02*
D03*
X713260Y1112740D02*
D03*
X673260Y1123140D02*
D03*
X653260D02*
D03*
X613260D02*
D03*
X584740Y1122740D02*
D03*
X564740D02*
D03*
X544740Y1123740D02*
D03*
Y1143140D02*
D03*
X504740D02*
D03*
X515080Y1261920D02*
D03*
X574740Y1281660D02*
D03*
X575080Y1271920D02*
D03*
X564740Y1261660D02*
D03*
X543958Y1252460D02*
D03*
X554740Y1251660D02*
D03*
Y1271660D02*
D03*
X504740Y1291660D02*
D03*
X524740D02*
D03*
X534740D02*
D03*
X584740Y1301660D02*
D03*
X575080Y1331660D02*
D03*
X554740D02*
D03*
X564740Y1311660D02*
D03*
X554740Y1301660D02*
D03*
X544740Y1311660D02*
D03*
X504740Y1321660D02*
D03*
X514740Y1331660D02*
D03*
X484740Y1341660D02*
D03*
X534740D02*
D03*
X494740Y1361660D02*
D03*
X514740D02*
D03*
X574740D02*
D03*
X694670Y1161730D02*
D03*
Y1173070D02*
D03*
X663300Y1171700D02*
D03*
X675000Y1173400D02*
D03*
X695000Y1341400D02*
D03*
X625400Y1311000D02*
D03*
X634740Y1321660D02*
D03*
X623600Y1282000D02*
D03*
X634740Y1283140D02*
D03*
X664000Y1251903D02*
D03*
X644000Y1252903D02*
D03*
X633600Y1211700D02*
D03*
X654400Y1222000D02*
D03*
X604700Y1171700D02*
D03*
Y1153100D02*
D03*
X601787Y1260187D02*
D03*
X602000Y1250000D02*
D03*
X633600Y1132000D02*
D03*
Y1152000D02*
D03*
X514000Y1122400D02*
D03*
X524500Y1122900D02*
D03*
X465000Y1141400D02*
D03*
X455400Y1121000D02*
D03*
X484400Y1192000D02*
D03*
Y1182000D02*
D03*
X463400Y1163000D02*
D03*
X464400Y1182000D02*
D03*
X464000Y1203000D02*
D03*
X464400Y1222400D02*
D03*
Y1261873D02*
D03*
Y1242200D02*
D03*
X503340Y1271740D02*
D03*
X495000Y1261400D02*
D03*
X484660Y1281740D02*
D03*
X484340Y1292740D02*
D03*
X464437Y1281740D02*
D03*
X464740Y1301660D02*
D03*
X474000Y1363000D02*
D03*
X484340Y1322000D02*
D03*
X603600Y1192000D02*
D03*
X604700Y1211700D02*
D03*
X634740Y1241660D02*
D03*
X614200Y1242200D02*
D03*
X614137Y1253000D02*
D03*
X464400Y1322000D02*
D03*
X464740Y1341660D02*
D03*
X453000Y1361000D02*
D03*
X614000Y1222400D02*
D03*
X602870Y1243870D02*
D03*
X614000Y1273000D02*
D03*
D112*
X850775Y1346743D02*
D03*
X826498Y1290466D02*
D03*
X794447D02*
D03*
X802447D02*
D03*
X842775Y1290415D02*
D03*
X850775D02*
D03*
X842826Y1346743D02*
D03*
X794498Y1346743D02*
D03*
X802498Y1346743D02*
D03*
X818151Y1347091D02*
D03*
X867123Y1282119D02*
D03*
X770151Y1347091D02*
D03*
X867123Y1355091D02*
D03*
X802151Y1282119D02*
D03*
X810151D02*
D03*
X818151D02*
D03*
X875123Y1355091D02*
D03*
X883123Y1355091D02*
D03*
X891123D02*
D03*
X899123D02*
D03*
X826151Y1355091D02*
D03*
X818151Y1355091D02*
D03*
X810151D02*
D03*
X802151D02*
D03*
X794151Y1355091D02*
D03*
X786151Y1355091D02*
D03*
X794151Y1282119D02*
D03*
X786151Y1282119D02*
D03*
X778151D02*
D03*
X770151D02*
D03*
X899123D02*
D03*
X891123D02*
D03*
X883123D02*
D03*
X875123Y1282119D02*
D03*
D113*
X778151Y1355091D02*
D03*
D114*
X770151D02*
D03*
X534740Y1361660D02*
D03*
X554740D02*
D03*
X673000Y1331400D02*
D03*
D115*
X3964580Y3329540D02*
D03*
X3953580D02*
D03*
X3942580D02*
D03*
X3964580Y3340540D02*
D03*
X3953580D02*
D03*
X3942580D02*
D03*
X3964580Y3351540D02*
D03*
X3953580D02*
D03*
X3942580D02*
D03*
X3964580Y3362540D02*
D03*
X3953580D02*
D03*
X3942580D02*
D03*
X3964580Y3373540D02*
D03*
X3953580D02*
D03*
X3942580D02*
D03*
X3964580Y3384540D02*
D03*
X3953580D02*
D03*
X3942580D02*
D03*
X3964580Y3395540D02*
D03*
X3953580D02*
D03*
X3942580D02*
D03*
X3964580Y3406540D02*
D03*
X3953580D02*
D03*
X3942580D02*
D03*
X3964580Y3417540D02*
D03*
X3953580D02*
D03*
X3942580D02*
D03*
X2196760Y1848680D02*
D03*
X2207760D02*
D03*
X2218760D02*
D03*
X2229760D02*
D03*
X2240760D02*
D03*
X2196760Y1837680D02*
D03*
X2207760D02*
D03*
X2218760D02*
D03*
X2229760D02*
D03*
X2240760D02*
D03*
X2196760Y1826680D02*
D03*
X2207760D02*
D03*
X2218760D02*
D03*
X2229760D02*
D03*
X2240760D02*
D03*
X2196760Y1815680D02*
D03*
X2207760D02*
D03*
X2218760D02*
D03*
X2229760D02*
D03*
X2240760D02*
D03*
X2196760Y1804680D02*
D03*
X2207760D02*
D03*
X2218760D02*
D03*
X2229760D02*
D03*
X2240760D02*
D03*
X7492660Y1239080D02*
D03*
X7503660D02*
D03*
X7514660D02*
D03*
X7525660D02*
D03*
X7536660D02*
D03*
X7492660Y1228080D02*
D03*
X7503660D02*
D03*
X7514660D02*
D03*
X7525660D02*
D03*
X7536660D02*
D03*
X7492660Y1217080D02*
D03*
X7503660D02*
D03*
X7514660D02*
D03*
X7525660D02*
D03*
X7536660D02*
D03*
X7492660Y1206080D02*
D03*
X7503660D02*
D03*
X7514660D02*
D03*
X7525660D02*
D03*
X7536660D02*
D03*
X7492660Y1195080D02*
D03*
X7503660D02*
D03*
X7514660D02*
D03*
X7525660D02*
D03*
X7536660D02*
D03*
X7569860Y911800D02*
D03*
X7558860D02*
D03*
X7547860D02*
D03*
X7536860D02*
D03*
X7525860D02*
D03*
X7569860Y922800D02*
D03*
X7558860D02*
D03*
X7547860D02*
D03*
X7536860D02*
D03*
X7525860D02*
D03*
X7569860Y933800D02*
D03*
X7558860D02*
D03*
X7547860D02*
D03*
X7536860D02*
D03*
X7525860D02*
D03*
X7569860Y944800D02*
D03*
X7558860D02*
D03*
X7547860D02*
D03*
X7536860D02*
D03*
X7525860D02*
D03*
X7569860Y955800D02*
D03*
X7558860D02*
D03*
X7547860D02*
D03*
X7536860D02*
D03*
X7525860D02*
D03*
X7443300Y962160D02*
D03*
X7454300D02*
D03*
X7443300Y951160D02*
D03*
X7454300D02*
D03*
X5402560Y554010D02*
D03*
Y561310D02*
D03*
Y568660D02*
D03*
X5387906Y546656D02*
D03*
X5395206D02*
D03*
X5402557D02*
D03*
X5380540Y554010D02*
D03*
Y546660D02*
D03*
Y561310D02*
D03*
Y568660D02*
D03*
X5387910D02*
D03*
X5395210D02*
D03*
X-638000Y-1143500D02*
D03*
X-643750Y-1153000D02*
D03*
X-632250D02*
D03*
X-638000Y-1162500D02*
D03*
X4028420Y554010D02*
D03*
Y561310D02*
D03*
Y568660D02*
D03*
X4013766Y546656D02*
D03*
X4021067D02*
D03*
X4028416D02*
D03*
X4006400Y554010D02*
D03*
Y546660D02*
D03*
Y561310D02*
D03*
Y568660D02*
D03*
X4013770D02*
D03*
X4021070D02*
D03*
X3662660Y554010D02*
D03*
Y561310D02*
D03*
Y568660D02*
D03*
X3648007Y546656D02*
D03*
X3655306D02*
D03*
X3662657D02*
D03*
X3640640Y554010D02*
D03*
Y546660D02*
D03*
Y561310D02*
D03*
Y568660D02*
D03*
X3648010D02*
D03*
X3655310D02*
D03*
X3346540Y547080D02*
D03*
X3354340D02*
D03*
X3362140D02*
D03*
Y564280D02*
D03*
X3354340D02*
D03*
X3346540D02*
D03*
X3157200Y554010D02*
D03*
Y561310D02*
D03*
Y568660D02*
D03*
X3142546Y546656D02*
D03*
X3149846D02*
D03*
X3157196D02*
D03*
X3135180Y554010D02*
D03*
Y546660D02*
D03*
Y561310D02*
D03*
Y568660D02*
D03*
X3142550D02*
D03*
X3149850D02*
D03*
X2993481Y578201D02*
D03*
Y588201D02*
D03*
X2983481Y578201D02*
D03*
X2973481D02*
D03*
Y568201D02*
D03*
Y588201D02*
D03*
X2983481D02*
D03*
Y568201D02*
D03*
X2993481D02*
D03*
D116*
X5686040Y593440D02*
D03*
X5701280D02*
D03*
X5716520D02*
D03*
X5731760D02*
D03*
X5724140Y585820D02*
D03*
X5693660D02*
D03*
X5731760Y578200D02*
D03*
X5716520D02*
D03*
X5701280D02*
D03*
X5686040D02*
D03*
X5724140Y570580D02*
D03*
X5693660D02*
D03*
X5731760Y562960D02*
D03*
X5716520D02*
D03*
X5701280D02*
D03*
X5686040D02*
D03*
X5724140Y555340D02*
D03*
X5693660D02*
D03*
X5731760Y547720D02*
D03*
X5716520D02*
D03*
X5701280D02*
D03*
X5686040D02*
D03*
X5724140Y540100D02*
D03*
X5708900D02*
D03*
X5693660D02*
D03*
X5731760Y532480D02*
D03*
X5716520D02*
D03*
X5701280D02*
D03*
X5724140Y524860D02*
D03*
X5708900D02*
D03*
X5731760Y517240D02*
D03*
X5716520D02*
D03*
X5701280D02*
D03*
X5686040D02*
D03*
Y532480D02*
D03*
X5693660Y524860D02*
D03*
X5708900Y585820D02*
D03*
Y570580D02*
D03*
Y555340D02*
D03*
D117*
X4334600Y588200D02*
D03*
X4324600D02*
D03*
X4314600D02*
D03*
Y578200D02*
D03*
X4324600D02*
D03*
X4334600D02*
D03*
Y568200D02*
D03*
X4324600D02*
D03*
X4314600D02*
D03*
X4253320Y588200D02*
D03*
X4243320D02*
D03*
X4233320D02*
D03*
Y578200D02*
D03*
X4243320D02*
D03*
X4253320D02*
D03*
Y568200D02*
D03*
X4243320D02*
D03*
X4233320D02*
D03*
X4172040Y588200D02*
D03*
X4162040D02*
D03*
X4152040D02*
D03*
Y578200D02*
D03*
X4162040D02*
D03*
X4172040D02*
D03*
Y568200D02*
D03*
X4162040D02*
D03*
X4152040D02*
D03*
M02*
