G04*
G04 #@! TF.GenerationSoftware,Altium Limited,Altium Designer,22.11.1 (43)*
G04*
G04 Layer_Physical_Order=3*
G04 Layer_Color=6736896*
%FSLAX44Y44*%
%MOMM*%
G71*
G04*
G04 #@! TF.SameCoordinates,685F9FB9-B41E-4883-9AF5-229453B53175*
G04*
G04*
G04 #@! TF.FilePolarity,Positive*
G04*
G01*
G75*
%ADD89C,0.1270*%
%ADD98C,3.3020*%
%ADD99C,0.6000*%
%ADD100C,3.8100*%
G04:AMPARAMS|DCode=101|XSize=1.524mm|YSize=1.524mm|CornerRadius=0mm|HoleSize=0mm|Usage=FLASHONLY|Rotation=270.000|XOffset=0mm|YOffset=0mm|HoleType=Round|Shape=Octagon|*
%AMOCTAGOND101*
4,1,8,-0.3810,-0.7620,0.3810,-0.7620,0.7620,-0.3810,0.7620,0.3810,0.3810,0.7620,-0.3810,0.7620,-0.7620,0.3810,-0.7620,-0.3810,-0.3810,-0.7620,0.0*
%
%ADD101OCTAGOND101*%

%ADD102C,1.5240*%
%ADD103C,1.9050*%
%ADD104R,1.9050X1.9050*%
%ADD105C,3.5000*%
%ADD106C,3.0000*%
%ADD107C,1.6000*%
%ADD108C,2.2000*%
%ADD109R,3.0000X3.0000*%
%ADD110C,0.2700*%
%ADD111C,0.3302*%
%ADD112C,0.2032*%
%ADD113C,0.2400*%
%ADD114C,0.2540*%
%ADD115C,0.5000*%
%ADD116C,0.5080*%
%ADD117C,0.5588*%
D89*
X504497Y1411903D02*
X549000Y1367400D01*
X324696Y1469758D02*
X379408Y1415046D01*
X506317D01*
X553963Y1367400D01*
X324682Y1455603D02*
X371176Y1409109D01*
X331391Y1459112D02*
X378600Y1411903D01*
X504497D01*
X501132Y1409109D02*
X537095Y1373147D01*
X371176Y1409109D02*
X501132D01*
X681612Y1317400D02*
X848897D01*
X276787Y1406972D02*
X334951Y1348808D01*
X276787Y1414788D02*
X302923Y1440923D01*
X324696D01*
X276787Y1406972D02*
Y1414788D01*
X531520Y1343828D02*
Y1344880D01*
X530930Y1343238D02*
X531520Y1343828D01*
X537960Y1338440D02*
X545993Y1330407D01*
X536318Y1337850D02*
X536908Y1338440D01*
X533162Y1337850D02*
X536318D01*
X536908Y1338440D02*
X537960D01*
X530930Y1340082D02*
X533162Y1337850D01*
X545993Y1329355D02*
Y1330407D01*
X530930Y1340082D02*
Y1343238D01*
X545491Y1328853D02*
X545993Y1329355D01*
X527592Y1348808D02*
X531520Y1344880D01*
X550453Y1323891D02*
X550955Y1324393D01*
X545491Y1325947D02*
X547547Y1323891D01*
X334951Y1348808D02*
X527592D01*
X545491Y1325947D02*
Y1328853D01*
X547547Y1323891D02*
X550453D01*
X552007Y1324393D02*
X559000Y1317400D01*
X550955Y1324393D02*
X552007D01*
X280739Y1413634D02*
X295546Y1428442D01*
X324736D01*
X280739Y1406972D02*
X336109Y1351602D01*
X280739Y1406972D02*
Y1413634D01*
X545993Y1349355D02*
Y1350407D01*
X545491Y1348853D02*
X545993Y1349355D01*
X545491Y1345947D02*
X550340Y1341097D01*
X545491Y1345947D02*
Y1348853D01*
X550340Y1341097D02*
X555303D01*
X559000Y1337400D01*
X336109Y1351602D02*
X544798D01*
X544798D02*
X545993Y1350407D01*
X555528Y1343891D02*
X560528D01*
X283533Y1408129D02*
X337266Y1354396D01*
X555528Y1343891D02*
Y1345834D01*
X546966Y1354396D02*
X555528Y1345834D01*
X337266Y1354396D02*
X546966D01*
X573662Y1355194D02*
X579000Y1360532D01*
X560528Y1343891D02*
X571832Y1355194D01*
X573662D01*
X283533Y1408129D02*
Y1411496D01*
X291258Y1419222D01*
X326315D02*
X328371Y1417166D01*
Y1411057D02*
Y1417166D01*
X324773Y1407459D02*
X328371Y1411057D01*
X291258Y1419222D02*
X326315D01*
X324773Y1400963D02*
Y1407459D01*
X579000Y1360532D02*
Y1367400D01*
X324862Y1388072D02*
X345723Y1408934D01*
X321173Y1449409D02*
X345723Y1424858D01*
Y1408934D02*
Y1424858D01*
X321173Y1449409D02*
Y1457057D01*
X323228Y1459112D01*
X331391D01*
X286327Y1409287D02*
X338423Y1357190D01*
X548790D01*
X549000Y1357400D01*
X286327Y1409287D02*
Y1410339D01*
X291701Y1415713D01*
X324862D01*
X537095Y1373147D02*
X537879Y1372363D01*
X539000D01*
X559000Y1352362D01*
Y1347400D02*
Y1352362D01*
X553963Y1367400D02*
X559000D01*
X569000D02*
X577547Y1375947D01*
Y1459032D01*
X559000Y1477579D02*
X577547Y1459032D01*
X563876Y1362524D02*
X569000Y1357400D01*
X563876Y1362524D02*
Y1398171D01*
X558752Y1403295D02*
X563876Y1398171D01*
X558752Y1403295D02*
Y1409711D01*
X532662Y1481313D02*
X550439Y1499091D01*
X567897D02*
X607070Y1459918D01*
Y1330082D02*
Y1459918D01*
X550439Y1499091D02*
X567897D01*
X588085Y1311097D02*
X607070Y1330082D01*
X576389Y1311097D02*
X588085D01*
X565491Y1321995D02*
X576389Y1311097D01*
X565491Y1321995D02*
Y1338853D01*
X574038Y1347400D01*
X579000D01*
X532662Y1424423D02*
Y1481313D01*
Y1424423D02*
X559055Y1398029D01*
X569000Y1347400D02*
X574000Y1352400D01*
X581457D01*
X582509Y1353452D01*
Y1459032D01*
X560003Y1481539D02*
X582509Y1459032D01*
X553449Y1481539D02*
X560003D01*
X552705Y1480795D02*
X553449Y1481539D01*
X552705Y1476230D02*
Y1480795D01*
Y1476230D02*
X564740Y1464195D01*
Y1438717D02*
Y1464195D01*
X563996Y1437973D02*
X564740Y1438717D01*
X559000Y1437973D02*
X563996D01*
X566740Y1496297D02*
X602725Y1460312D01*
X536206Y1478924D02*
X553579Y1496297D01*
X565583Y1493503D02*
X599931Y1459155D01*
X554736Y1493503D02*
X565583D01*
X542385Y1477200D02*
X555894Y1490709D01*
X539000Y1477767D02*
X554736Y1493503D01*
X563639Y1490709D02*
X597137Y1457211D01*
X553579Y1496297D02*
X566740D01*
X555894Y1490709D02*
X563639D01*
X539000Y1471773D02*
Y1477767D01*
X536206Y1446602D02*
Y1478924D01*
X539000Y1471773D02*
X559000Y1451773D01*
X542385Y1475293D02*
X552705Y1464973D01*
X542385Y1475293D02*
Y1477200D01*
X552705Y1464973D02*
X559000D01*
X536206Y1446602D02*
X558877Y1423931D01*
X602725Y1337173D02*
Y1460312D01*
X599931Y1338331D02*
Y1459155D01*
X597137Y1340892D02*
Y1457211D01*
X599450Y1333899D02*
X602725Y1337173D01*
X569000Y1322437D02*
Y1337400D01*
Y1322437D02*
X577547Y1313891D01*
X580453D01*
X599450Y1332888D01*
Y1333899D01*
X579000Y1317400D02*
X599931Y1338331D01*
X579387Y1337400D02*
X581457Y1339470D01*
X595715D01*
X579000Y1337400D02*
X579387D01*
X595715Y1339470D02*
X597137Y1340892D01*
X626235Y1301151D02*
X642751D01*
X649000Y1307400D01*
X625491Y1300407D02*
X626235Y1301151D01*
X625491Y1295947D02*
Y1300407D01*
X629000Y1260187D02*
Y1292437D01*
X625491Y1295947D02*
X629000Y1292437D01*
X914072Y1251903D02*
Y1290412D01*
X629000Y1260187D02*
X632474Y1256713D01*
X664578D01*
X669388Y1251903D01*
X914072D01*
X894637Y1302605D02*
X901879D01*
X914072Y1290412D01*
X878637Y1265458D02*
Y1294605D01*
X649000Y1265458D02*
Y1277400D01*
X877893Y1264714D02*
X878637Y1265458D01*
X649000D02*
X649744Y1264714D01*
X877893D01*
X687546Y1360909D02*
Y1387474D01*
Y1353816D02*
X689000Y1352362D01*
X687546Y1387474D02*
X692854Y1392782D01*
X687546Y1353816D02*
Y1353891D01*
X685491Y1358853D02*
X687546Y1360909D01*
X685491Y1355947D02*
Y1358853D01*
Y1355947D02*
X687546Y1353891D01*
X689000Y1347400D02*
Y1352362D01*
X652568Y1360398D02*
X690540Y1398370D01*
X883128Y1331400D02*
X884879D01*
X888090Y1331096D02*
X908188Y1351194D01*
Y1367861D01*
X884879Y1331400D02*
X885183Y1331096D01*
X888090D01*
X877679Y1398370D02*
X908188Y1367861D01*
X690540Y1398370D02*
X877679D01*
X886637Y1302605D02*
X886854Y1302822D01*
X876481Y1365245D02*
Y1374041D01*
X870637Y1359401D02*
X876481Y1365245D01*
X870637Y1350605D02*
Y1359401D01*
X874581Y1375941D02*
X876481Y1374041D01*
X707623Y1375941D02*
X874581D01*
X714747Y1373147D02*
X858107D01*
X699000Y1357400D02*
X714747Y1373147D01*
X891128Y1301151D02*
X893183Y1299096D01*
X901437D01*
X905428Y1295105D01*
X891128Y1301151D02*
Y1301861D01*
X905428Y1268614D02*
Y1295105D01*
X890384Y1302605D02*
X891128Y1301861D01*
X652568Y1306005D02*
Y1360398D01*
X657639Y1290466D02*
X659000Y1289106D01*
Y1277400D02*
Y1289106D01*
X650971Y1290466D02*
X657639D01*
X645491Y1295947D02*
X650971Y1290466D01*
X645491Y1295947D02*
Y1298929D01*
X652568Y1306005D01*
X883128Y1331400D02*
Y1336058D01*
X657639Y1302605D02*
Y1361518D01*
X649000Y1297400D02*
X652434D01*
X657639Y1302605D01*
Y1361518D02*
X691697Y1395576D01*
X664531Y1311660D02*
X673260D01*
Y1326622D02*
X677546Y1330909D01*
X680528D01*
X673260Y1311660D02*
Y1326622D01*
X680528Y1330909D02*
X687546Y1323891D01*
X695981D02*
X697300Y1325210D01*
X687546Y1323891D02*
X695981D01*
X705734Y1325210D02*
X706909Y1324035D01*
X697300Y1325210D02*
X705734D01*
X689000Y1327400D02*
X692169Y1330569D01*
X751552D02*
X756832Y1335849D01*
X751861Y1334829D02*
X755675Y1338643D01*
X692169Y1330569D02*
X751552D01*
X671580Y1334829D02*
X751861D01*
X669000Y1332249D02*
X671580Y1334829D01*
X755675Y1338643D02*
X843484D01*
X669000Y1317400D02*
Y1332249D01*
X846213Y1324035D02*
X858146Y1312102D01*
X706909Y1324035D02*
X846213D01*
X858146Y1301151D02*
Y1312102D01*
X853091Y1296096D02*
X858146Y1301151D01*
X851966Y1296096D02*
X853091D01*
X846637Y1290767D02*
X851966Y1296096D01*
X846637Y1286605D02*
Y1290767D01*
X692854Y1392782D02*
X875364D01*
X691697Y1395576D02*
X876522D01*
X905395Y1366703D01*
X875364Y1392782D02*
X895948Y1372198D01*
X879948Y1353776D02*
Y1378545D01*
Y1353776D02*
X883128Y1350596D01*
X878150Y1380343D02*
X879948Y1378545D01*
X891128Y1346359D02*
X896720Y1351952D01*
X895948Y1353776D02*
X896720Y1353004D01*
X895948Y1353776D02*
Y1372198D01*
X896720Y1351952D02*
Y1353004D01*
X905395Y1356626D02*
Y1366703D01*
X894637Y1345869D02*
X905395Y1356626D01*
X670080Y1287800D02*
X703703D01*
X722017Y1306114D01*
X843382Y1302822D02*
X846419D01*
X840090Y1306114D02*
X843382Y1302822D01*
X722017Y1306114D02*
X840090D01*
X846419Y1302822D02*
X846637Y1302605D01*
X818025Y1277503D02*
X838637Y1298115D01*
X669103Y1277503D02*
X818025D01*
X838637Y1298115D02*
Y1302605D01*
X663787Y1342187D02*
X679000Y1357400D01*
X663787Y1312404D02*
Y1342187D01*
X901528Y1264714D02*
X905428Y1268614D01*
X887803Y1264714D02*
X901528D01*
X885714Y1262625D02*
X887803Y1264714D01*
X883128Y1336058D02*
X886419Y1339350D01*
Y1342387D01*
X886637Y1342605D01*
X844600Y1338579D02*
X846637Y1340615D01*
X843484Y1338643D02*
X843548Y1338579D01*
X844600D01*
X756832Y1335849D02*
X842326D01*
X846637Y1340615D02*
Y1350605D01*
X679000Y1320012D02*
X681612Y1317400D01*
X848897D02*
X854637Y1311660D01*
X679000Y1320012D02*
Y1327400D01*
X663787Y1312404D02*
X664531Y1311660D01*
X842326Y1335849D02*
X862637Y1315538D01*
Y1302605D02*
Y1315538D01*
X703260Y1371578D02*
X707623Y1375941D01*
X703260Y1366698D02*
Y1371578D01*
X693962Y1357400D02*
X703260Y1366698D01*
X689000Y1357400D02*
X693962D01*
X854637Y1302605D02*
Y1311660D01*
X873842Y1307400D02*
X878637Y1302605D01*
X894637Y1342605D02*
Y1345869D01*
X891128Y1339096D02*
Y1346359D01*
X886637Y1334605D02*
X891128Y1339096D01*
X699000Y1367400D02*
Y1374041D01*
X705303Y1380343D01*
X878150D01*
X883128Y1342133D02*
Y1350596D01*
X878854Y1337860D02*
X883128Y1342133D01*
X878854Y1334822D02*
Y1337860D01*
X878637Y1334605D02*
X878854Y1334822D01*
D98*
X-69850Y71628D02*
D03*
X2121154Y65024D02*
D03*
X2116836Y1688592D02*
D03*
X-62213Y1689432D02*
D03*
D99*
X445687Y1462339D02*
D03*
X445687Y1451639D02*
D03*
Y1440939D02*
D03*
X434987Y1462339D02*
D03*
Y1451639D02*
D03*
Y1440939D02*
D03*
X424287Y1462339D02*
D03*
X424287Y1451639D02*
D03*
X424287Y1440939D02*
D03*
D100*
X-69850Y1286002D02*
D03*
Y1413002D02*
D03*
D101*
X-44450Y1313942D02*
D03*
D102*
Y1334262D02*
D03*
Y1354582D02*
D03*
Y1374902D02*
D03*
X-26670Y1324102D02*
D03*
Y1344422D02*
D03*
Y1364742D02*
D03*
Y1385062D02*
D03*
X21590Y1280922D02*
D03*
Y1395222D02*
D03*
Y1418082D02*
D03*
Y1303782D02*
D03*
X1751400Y2339760D02*
D03*
Y2314360D02*
D03*
X-995000Y597200D02*
D03*
Y622600D02*
D03*
Y648000D02*
D03*
D103*
X2100000Y1225000D02*
D03*
Y1175000D02*
D03*
Y1125000D02*
D03*
D104*
Y1075000D02*
D03*
D105*
X4457580Y2473300D02*
D03*
X3957580Y2973300D02*
D03*
D106*
X996640Y1634754D02*
D03*
X1117040Y1634754D02*
D03*
X13208Y1567942D02*
D03*
Y1609942D02*
D03*
X68208Y1525942D02*
D03*
Y1567942D02*
D03*
Y1609942D02*
D03*
D107*
X1069340Y1607754D02*
D03*
X1044340D02*
D03*
X1069340Y1587754D02*
D03*
X1044340D02*
D03*
D108*
X902800Y73280D02*
D03*
Y22480D02*
D03*
X953600D02*
D03*
Y73280D02*
D03*
X928200Y47880D02*
D03*
X1103600Y73280D02*
D03*
Y22480D02*
D03*
X1154400D02*
D03*
Y73280D02*
D03*
X1129000Y47880D02*
D03*
X492220Y77090D02*
D03*
Y26290D02*
D03*
X543020D02*
D03*
Y77090D02*
D03*
X517620Y51690D02*
D03*
X277800Y73280D02*
D03*
Y22480D02*
D03*
X328600D02*
D03*
Y73280D02*
D03*
X303200Y47880D02*
D03*
D109*
X13208Y1525942D02*
D03*
D110*
X1096330Y1496251D02*
D03*
Y1457135D02*
D03*
X77271Y1366528D02*
D03*
X442487Y1494458D02*
D03*
X410487Y1421739D02*
D03*
X579000Y1367400D02*
D03*
X569000D02*
D03*
X324862Y1388072D02*
D03*
X324773Y1400963D02*
D03*
X324862Y1415713D02*
D03*
X324736Y1428442D02*
D03*
X324696Y1440923D02*
D03*
X324682Y1455603D02*
D03*
X324696Y1469758D02*
D03*
X559055Y1398029D02*
D03*
X558752Y1409711D02*
D03*
X558877Y1423931D02*
D03*
X559000Y1437973D02*
D03*
Y1451773D02*
D03*
Y1464973D02*
D03*
Y1477579D02*
D03*
X459487Y1481539D02*
D03*
X549000Y1317400D02*
D03*
X559000D02*
D03*
X579000D02*
D03*
X549000Y1327400D02*
D03*
Y1337400D02*
D03*
X559000D02*
D03*
X569000D02*
D03*
X579000D02*
D03*
X539000Y1347400D02*
D03*
X549000D02*
D03*
X559000D02*
D03*
X569000D02*
D03*
X579000D02*
D03*
X569000Y1357400D02*
D03*
X549000D02*
D03*
Y1367400D02*
D03*
X559000D02*
D03*
X539000D02*
D03*
X529000D02*
D03*
X870637Y1294605D02*
D03*
X670080Y1287800D02*
D03*
X846637Y1286605D02*
D03*
X862637Y1294605D02*
D03*
X878637D02*
D03*
X886637Y1294605D02*
D03*
X838637Y1302605D02*
D03*
X846637Y1302605D02*
D03*
X854637D02*
D03*
X862637D02*
D03*
X870637D02*
D03*
X878637D02*
D03*
X886637D02*
D03*
X894637Y1302605D02*
D03*
X846637Y1350605D02*
D03*
X854637Y1334605D02*
D03*
X870637Y1334605D02*
D03*
Y1342605D02*
D03*
X878637D02*
D03*
X886637D02*
D03*
X894637D02*
D03*
X886637Y1334605D02*
D03*
X878637D02*
D03*
X629000Y1297400D02*
D03*
X649000D02*
D03*
X659000D02*
D03*
X669000D02*
D03*
X649000Y1277400D02*
D03*
X639000Y1307400D02*
D03*
X649000D02*
D03*
X669000D02*
D03*
X679000D02*
D03*
X689000D02*
D03*
X669000Y1317400D02*
D03*
Y1337400D02*
D03*
X679000Y1327400D02*
D03*
X689000D02*
D03*
Y1347400D02*
D03*
X679000Y1357400D02*
D03*
X689000D02*
D03*
X699000D02*
D03*
X709000D02*
D03*
X699000Y1367400D02*
D03*
X659000Y1277400D02*
D03*
X669103Y1277503D02*
D03*
D111*
X294513Y1348166D02*
D03*
X294640Y1411903D02*
D03*
X703395Y1301775D02*
D03*
X683330Y1301730D02*
D03*
X703187Y1321400D02*
D03*
X683000D02*
D03*
X634397Y1173127D02*
D03*
X644740Y1183140D02*
D03*
X514740Y1173140D02*
D03*
X524740Y1143140D02*
D03*
X564740Y1153140D02*
D03*
X554799Y1172538D02*
D03*
X554740Y1203140D02*
D03*
X663128Y1361570D02*
D03*
X643260Y1362260D02*
D03*
X623260D02*
D03*
X603260Y1331660D02*
D03*
Y1311660D02*
D03*
Y1271660D02*
D03*
X613260Y1281660D02*
D03*
X683260Y1232740D02*
D03*
X703260D02*
D03*
Y1213140D02*
D03*
Y1192740D02*
D03*
X683260Y1132740D02*
D03*
X703260D02*
D03*
X713260Y1112740D02*
D03*
X673260Y1123140D02*
D03*
X653260D02*
D03*
X613260D02*
D03*
X584740Y1122740D02*
D03*
X564740D02*
D03*
X544740Y1123740D02*
D03*
Y1143140D02*
D03*
X504740D02*
D03*
X515080Y1261920D02*
D03*
X574740Y1281660D02*
D03*
X575080Y1271920D02*
D03*
X564740Y1261660D02*
D03*
X543958Y1252460D02*
D03*
X554740Y1251660D02*
D03*
Y1271660D02*
D03*
X504740Y1291660D02*
D03*
X524740D02*
D03*
X534740D02*
D03*
X584740Y1301660D02*
D03*
X575080Y1331660D02*
D03*
X554740D02*
D03*
X564740Y1311660D02*
D03*
X554740Y1301660D02*
D03*
X544740Y1311660D02*
D03*
X504740Y1321660D02*
D03*
X514740Y1331660D02*
D03*
X484740Y1341660D02*
D03*
X534740D02*
D03*
X494740Y1361660D02*
D03*
X514740D02*
D03*
X574740D02*
D03*
X694670Y1161730D02*
D03*
Y1173070D02*
D03*
X663300Y1171700D02*
D03*
X675000Y1173400D02*
D03*
X695000Y1341400D02*
D03*
X625400Y1311000D02*
D03*
X634740Y1321660D02*
D03*
X623600Y1282000D02*
D03*
X634740Y1283140D02*
D03*
X664000Y1251903D02*
D03*
X644000Y1252903D02*
D03*
X633600Y1211700D02*
D03*
X654400Y1222000D02*
D03*
X604700Y1171700D02*
D03*
Y1153100D02*
D03*
X601787Y1260187D02*
D03*
X602000Y1250000D02*
D03*
X633600Y1132000D02*
D03*
Y1152000D02*
D03*
X514000Y1122400D02*
D03*
X524500Y1122900D02*
D03*
X465000Y1141400D02*
D03*
X455400Y1121000D02*
D03*
X484400Y1192000D02*
D03*
Y1182000D02*
D03*
X463400Y1163000D02*
D03*
X464400Y1182000D02*
D03*
X464000Y1203000D02*
D03*
X464400Y1222400D02*
D03*
Y1261873D02*
D03*
Y1242200D02*
D03*
X503340Y1271740D02*
D03*
X495000Y1261400D02*
D03*
X484660Y1281740D02*
D03*
X484340Y1292740D02*
D03*
X464437Y1281740D02*
D03*
X464740Y1301660D02*
D03*
X474000Y1363000D02*
D03*
X484340Y1322000D02*
D03*
X603600Y1192000D02*
D03*
X604700Y1211700D02*
D03*
X634740Y1241660D02*
D03*
X614200Y1242200D02*
D03*
X614137Y1253000D02*
D03*
X464400Y1322000D02*
D03*
X464740Y1341660D02*
D03*
X453000Y1361000D02*
D03*
X614000Y1222400D02*
D03*
X602870Y1243870D02*
D03*
X614000Y1273000D02*
D03*
D112*
X850775Y1346743D02*
D03*
X826498Y1290466D02*
D03*
X794447D02*
D03*
X802447D02*
D03*
X842775Y1290415D02*
D03*
X850775D02*
D03*
X842826Y1346743D02*
D03*
X794498Y1346743D02*
D03*
X802498Y1346743D02*
D03*
X818151Y1347091D02*
D03*
X867123Y1282119D02*
D03*
X770151Y1347091D02*
D03*
X867123Y1355091D02*
D03*
X802151Y1282119D02*
D03*
X810151D02*
D03*
X818151D02*
D03*
X875123Y1355091D02*
D03*
X883123Y1355091D02*
D03*
X891123D02*
D03*
X899123D02*
D03*
X826151Y1355091D02*
D03*
X818151Y1355091D02*
D03*
X810151D02*
D03*
X802151D02*
D03*
X794151Y1355091D02*
D03*
X786151Y1355091D02*
D03*
X794151Y1282119D02*
D03*
X786151Y1282119D02*
D03*
X778151D02*
D03*
X770151D02*
D03*
X899123D02*
D03*
X891123D02*
D03*
X883123D02*
D03*
X875123Y1282119D02*
D03*
D113*
X778151Y1355091D02*
D03*
D114*
X770151D02*
D03*
X534740Y1361660D02*
D03*
X554740D02*
D03*
X673000Y1331400D02*
D03*
D115*
X3964580Y3329540D02*
D03*
X3953580D02*
D03*
X3942580D02*
D03*
X3964580Y3340540D02*
D03*
X3953580D02*
D03*
X3942580D02*
D03*
X3964580Y3351540D02*
D03*
X3953580D02*
D03*
X3942580D02*
D03*
X3964580Y3362540D02*
D03*
X3953580D02*
D03*
X3942580D02*
D03*
X3964580Y3373540D02*
D03*
X3953580D02*
D03*
X3942580D02*
D03*
X3964580Y3384540D02*
D03*
X3953580D02*
D03*
X3942580D02*
D03*
X3964580Y3395540D02*
D03*
X3953580D02*
D03*
X3942580D02*
D03*
X3964580Y3406540D02*
D03*
X3953580D02*
D03*
X3942580D02*
D03*
X3964580Y3417540D02*
D03*
X3953580D02*
D03*
X3942580D02*
D03*
X2196760Y1848680D02*
D03*
X2207760D02*
D03*
X2218760D02*
D03*
X2229760D02*
D03*
X2240760D02*
D03*
X2196760Y1837680D02*
D03*
X2207760D02*
D03*
X2218760D02*
D03*
X2229760D02*
D03*
X2240760D02*
D03*
X2196760Y1826680D02*
D03*
X2207760D02*
D03*
X2218760D02*
D03*
X2229760D02*
D03*
X2240760D02*
D03*
X2196760Y1815680D02*
D03*
X2207760D02*
D03*
X2218760D02*
D03*
X2229760D02*
D03*
X2240760D02*
D03*
X2196760Y1804680D02*
D03*
X2207760D02*
D03*
X2218760D02*
D03*
X2229760D02*
D03*
X2240760D02*
D03*
X7492660Y1239080D02*
D03*
X7503660D02*
D03*
X7514660D02*
D03*
X7525660D02*
D03*
X7536660D02*
D03*
X7492660Y1228080D02*
D03*
X7503660D02*
D03*
X7514660D02*
D03*
X7525660D02*
D03*
X7536660D02*
D03*
X7492660Y1217080D02*
D03*
X7503660D02*
D03*
X7514660D02*
D03*
X7525660D02*
D03*
X7536660D02*
D03*
X7492660Y1206080D02*
D03*
X7503660D02*
D03*
X7514660D02*
D03*
X7525660D02*
D03*
X7536660D02*
D03*
X7492660Y1195080D02*
D03*
X7503660D02*
D03*
X7514660D02*
D03*
X7525660D02*
D03*
X7536660D02*
D03*
X7569860Y911800D02*
D03*
X7558860D02*
D03*
X7547860D02*
D03*
X7536860D02*
D03*
X7525860D02*
D03*
X7569860Y922800D02*
D03*
X7558860D02*
D03*
X7547860D02*
D03*
X7536860D02*
D03*
X7525860D02*
D03*
X7569860Y933800D02*
D03*
X7558860D02*
D03*
X7547860D02*
D03*
X7536860D02*
D03*
X7525860D02*
D03*
X7569860Y944800D02*
D03*
X7558860D02*
D03*
X7547860D02*
D03*
X7536860D02*
D03*
X7525860D02*
D03*
X7569860Y955800D02*
D03*
X7558860D02*
D03*
X7547860D02*
D03*
X7536860D02*
D03*
X7525860D02*
D03*
X7443300Y962160D02*
D03*
X7454300D02*
D03*
X7443300Y951160D02*
D03*
X7454300D02*
D03*
X5402560Y554010D02*
D03*
Y561310D02*
D03*
Y568660D02*
D03*
X5387906Y546656D02*
D03*
X5395206D02*
D03*
X5402557D02*
D03*
X5380540Y554010D02*
D03*
Y546660D02*
D03*
Y561310D02*
D03*
Y568660D02*
D03*
X5387910D02*
D03*
X5395210D02*
D03*
X-638000Y-1143500D02*
D03*
X-643750Y-1153000D02*
D03*
X-632250D02*
D03*
X-638000Y-1162500D02*
D03*
X4028420Y554010D02*
D03*
Y561310D02*
D03*
Y568660D02*
D03*
X4013766Y546656D02*
D03*
X4021067D02*
D03*
X4028416D02*
D03*
X4006400Y554010D02*
D03*
Y546660D02*
D03*
Y561310D02*
D03*
Y568660D02*
D03*
X4013770D02*
D03*
X4021070D02*
D03*
X3662660Y554010D02*
D03*
Y561310D02*
D03*
Y568660D02*
D03*
X3648007Y546656D02*
D03*
X3655306D02*
D03*
X3662657D02*
D03*
X3640640Y554010D02*
D03*
Y546660D02*
D03*
Y561310D02*
D03*
Y568660D02*
D03*
X3648010D02*
D03*
X3655310D02*
D03*
X3346540Y547080D02*
D03*
X3354340D02*
D03*
X3362140D02*
D03*
Y564280D02*
D03*
X3354340D02*
D03*
X3346540D02*
D03*
X3157200Y554010D02*
D03*
Y561310D02*
D03*
Y568660D02*
D03*
X3142546Y546656D02*
D03*
X3149846D02*
D03*
X3157196D02*
D03*
X3135180Y554010D02*
D03*
Y546660D02*
D03*
Y561310D02*
D03*
Y568660D02*
D03*
X3142550D02*
D03*
X3149850D02*
D03*
X2993481Y578201D02*
D03*
Y588201D02*
D03*
X2983481Y578201D02*
D03*
X2973481D02*
D03*
Y568201D02*
D03*
Y588201D02*
D03*
X2983481D02*
D03*
Y568201D02*
D03*
X2993481D02*
D03*
D116*
X5686040Y593440D02*
D03*
X5701280D02*
D03*
X5716520D02*
D03*
X5731760D02*
D03*
X5724140Y585820D02*
D03*
X5693660D02*
D03*
X5731760Y578200D02*
D03*
X5716520D02*
D03*
X5701280D02*
D03*
X5686040D02*
D03*
X5724140Y570580D02*
D03*
X5693660D02*
D03*
X5731760Y562960D02*
D03*
X5716520D02*
D03*
X5701280D02*
D03*
X5686040D02*
D03*
X5724140Y555340D02*
D03*
X5693660D02*
D03*
X5731760Y547720D02*
D03*
X5716520D02*
D03*
X5701280D02*
D03*
X5686040D02*
D03*
X5724140Y540100D02*
D03*
X5708900D02*
D03*
X5693660D02*
D03*
X5731760Y532480D02*
D03*
X5716520D02*
D03*
X5701280D02*
D03*
X5724140Y524860D02*
D03*
X5708900D02*
D03*
X5731760Y517240D02*
D03*
X5716520D02*
D03*
X5701280D02*
D03*
X5686040D02*
D03*
Y532480D02*
D03*
X5693660Y524860D02*
D03*
X5708900Y585820D02*
D03*
Y570580D02*
D03*
Y555340D02*
D03*
D117*
X4334600Y588200D02*
D03*
X4324600D02*
D03*
X4314600D02*
D03*
Y578200D02*
D03*
X4324600D02*
D03*
X4334600D02*
D03*
Y568200D02*
D03*
X4324600D02*
D03*
X4314600D02*
D03*
X4253320Y588200D02*
D03*
X4243320D02*
D03*
X4233320D02*
D03*
Y578200D02*
D03*
X4243320D02*
D03*
X4253320D02*
D03*
Y568200D02*
D03*
X4243320D02*
D03*
X4233320D02*
D03*
X4172040Y588200D02*
D03*
X4162040D02*
D03*
X4152040D02*
D03*
Y578200D02*
D03*
X4162040D02*
D03*
X4172040D02*
D03*
Y568200D02*
D03*
X4162040D02*
D03*
X4152040D02*
D03*
M02*
