G04*
G04 #@! TF.GenerationSoftware,Altium Limited,Altium Designer,22.11.1 (43)*
G04*
G04 Layer_Color=16711935*
%FSLAX44Y44*%
%MOMM*%
G71*
G04*
G04 #@! TF.SameCoordinates,685F9FB9-B41E-4883-9AF5-229453B53175*
G04*
G04*
G04 #@! TF.FilePolarity,Negative*
G04*
G01*
G75*
G04:AMPARAMS|DCode=163|XSize=0.6096mm|YSize=0.6096mm|CornerRadius=0.2032mm|HoleSize=0mm|Usage=FLASHONLY|Rotation=180.000|XOffset=0mm|YOffset=0mm|HoleType=Round|Shape=RoundedRectangle|*
%AMROUNDEDRECTD163*
21,1,0.6096,0.2032,0,0,180.0*
21,1,0.2032,0.6096,0,0,180.0*
1,1,0.4064,-0.1016,0.1016*
1,1,0.4064,0.1016,0.1016*
1,1,0.4064,0.1016,-0.1016*
1,1,0.4064,-0.1016,-0.1016*
%
%ADD163ROUNDEDRECTD163*%
G04:AMPARAMS|DCode=166|XSize=0.9906mm|YSize=0.9652mm|CornerRadius=0.2019mm|HoleSize=0mm|Usage=FLASHONLY|Rotation=180.000|XOffset=0mm|YOffset=0mm|HoleType=Round|Shape=RoundedRectangle|*
%AMROUNDEDRECTD166*
21,1,0.9906,0.5613,0,0,180.0*
21,1,0.5867,0.9652,0,0,180.0*
1,1,0.4039,-0.2934,0.2807*
1,1,0.4039,0.2934,0.2807*
1,1,0.4039,0.2934,-0.2807*
1,1,0.4039,-0.2934,-0.2807*
%
%ADD166ROUNDEDRECTD166*%
G04:AMPARAMS|DCode=178|XSize=0.9906mm|YSize=0.9652mm|CornerRadius=0.2019mm|HoleSize=0mm|Usage=FLASHONLY|Rotation=90.000|XOffset=0mm|YOffset=0mm|HoleType=Round|Shape=RoundedRectangle|*
%AMROUNDEDRECTD178*
21,1,0.9906,0.5613,0,0,90.0*
21,1,0.5867,0.9652,0,0,90.0*
1,1,0.4039,0.2807,0.2934*
1,1,0.4039,0.2807,-0.2934*
1,1,0.4039,-0.2807,-0.2934*
1,1,0.4039,-0.2807,0.2934*
%
%ADD178ROUNDEDRECTD178*%
%ADD189C,3.0000*%
%ADD226R,2.9400X2.9400*%
%ADD239C,3.4420*%
%ADD240C,0.7016*%
%ADD241C,3.9116*%
G04:AMPARAMS|DCode=242|XSize=1.6256mm|YSize=1.6256mm|CornerRadius=0mm|HoleSize=0mm|Usage=FLASHONLY|Rotation=270.000|XOffset=0mm|YOffset=0mm|HoleType=Round|Shape=Octagon|*
%AMOCTAGOND242*
4,1,8,-0.4064,-0.8128,0.4064,-0.8128,0.8128,-0.4064,0.8128,0.4064,0.4064,0.8128,-0.4064,0.8128,-0.8128,0.4064,-0.8128,-0.4064,-0.4064,-0.8128,0.0*
%
%ADD242OCTAGOND242*%

%ADD243C,1.6256*%
%ADD244C,2.1450*%
%ADD245R,2.1450X2.1450*%
%ADD246C,3.6016*%
%ADD247C,1.6764*%
%ADD248C,3.1400*%
%ADD249C,1.7400*%
%ADD250C,2.3016*%
%ADD251R,3.1400X3.1400*%
%ADD252C,3.1372*%
%ADD253C,0.6016*%
%ADD254C,0.6096*%
%ADD255C,0.6604*%
%ADD256C,0.3000*%
G04:AMPARAMS|DCode=257|XSize=0.6096mm|YSize=0.6096mm|CornerRadius=0.2032mm|HoleSize=0mm|Usage=FLASHONLY|Rotation=135.000|XOffset=0mm|YOffset=0mm|HoleType=Round|Shape=RoundedRectangle|*
%AMROUNDEDRECTD257*
21,1,0.6096,0.2032,0,0,135.0*
21,1,0.2032,0.6096,0,0,135.0*
1,1,0.4064,0.0000,0.1437*
1,1,0.4064,0.1437,0.0000*
1,1,0.4064,0.0000,-0.1437*
1,1,0.4064,-0.1437,0.0000*
%
%ADD257ROUNDEDRECTD257*%
G04:AMPARAMS|DCode=258|XSize=0.6096mm|YSize=0.6096mm|CornerRadius=0.2032mm|HoleSize=0mm|Usage=FLASHONLY|Rotation=90.000|XOffset=0mm|YOffset=0mm|HoleType=Round|Shape=RoundedRectangle|*
%AMROUNDEDRECTD258*
21,1,0.6096,0.2032,0,0,90.0*
21,1,0.2032,0.6096,0,0,90.0*
1,1,0.4064,0.1016,0.1016*
1,1,0.4064,0.1016,-0.1016*
1,1,0.4064,-0.1016,-0.1016*
1,1,0.4064,-0.1016,0.1016*
%
%ADD258ROUNDEDRECTD258*%
D163*
X686749Y1162145D02*
D03*
Y1171035D02*
D03*
X599000Y1158555D02*
D03*
Y1167445D02*
D03*
X639000Y1136955D02*
D03*
Y1145845D02*
D03*
X458000Y1128555D02*
D03*
Y1137445D02*
D03*
X477000Y1182000D02*
D03*
Y1190890D02*
D03*
X456000Y1168555D02*
D03*
Y1177445D02*
D03*
X458000Y1209000D02*
D03*
Y1217890D02*
D03*
X459955Y1247555D02*
D03*
Y1256445D02*
D03*
X477000Y1296445D02*
D03*
Y1287555D02*
D03*
X458000Y1288555D02*
D03*
Y1297445D02*
D03*
X619000Y1258493D02*
D03*
Y1267383D02*
D03*
X606851Y1254048D02*
D03*
Y1262938D02*
D03*
X607000Y1232952D02*
D03*
Y1224062D02*
D03*
X459094Y1329475D02*
D03*
Y1338365D02*
D03*
D166*
X518507Y1231000D02*
D03*
X533493D02*
D03*
D178*
X595056Y1212245D02*
D03*
Y1197260D02*
D03*
D189*
X1947418Y1589532D02*
D03*
X1981708Y227838D02*
D03*
X6350Y117602D02*
D03*
X19558Y1686814D02*
D03*
D226*
X5391540Y557660D02*
D03*
X4017400D02*
D03*
X3651640D02*
D03*
X3146180D02*
D03*
D239*
X-69850Y71628D02*
D03*
X2121154Y65024D02*
D03*
X2116836Y1688592D02*
D03*
X-62213Y1689432D02*
D03*
D240*
X445687Y1462339D02*
D03*
X445687Y1451639D02*
D03*
Y1440939D02*
D03*
X434987Y1462339D02*
D03*
Y1451639D02*
D03*
Y1440939D02*
D03*
X424287Y1462339D02*
D03*
X424287Y1451639D02*
D03*
X424287Y1440939D02*
D03*
D241*
X-69850Y1286002D02*
D03*
Y1413002D02*
D03*
D242*
X-44450Y1313942D02*
D03*
D243*
Y1334262D02*
D03*
Y1354582D02*
D03*
Y1374902D02*
D03*
X-26670Y1324102D02*
D03*
Y1344422D02*
D03*
Y1364742D02*
D03*
Y1385062D02*
D03*
X21590Y1280922D02*
D03*
Y1395222D02*
D03*
Y1418082D02*
D03*
Y1303782D02*
D03*
D244*
X2100000Y1225000D02*
D03*
Y1175000D02*
D03*
Y1125000D02*
D03*
D245*
Y1075000D02*
D03*
D246*
X4457580Y2473300D02*
D03*
X3957580Y2973300D02*
D03*
D247*
X1751400Y2339760D02*
D03*
Y2314360D02*
D03*
X-995000Y597200D02*
D03*
Y622600D02*
D03*
Y648000D02*
D03*
D248*
X996640Y1634754D02*
D03*
X1117040Y1634754D02*
D03*
X13208Y1567942D02*
D03*
Y1609942D02*
D03*
X68208Y1525942D02*
D03*
Y1567942D02*
D03*
Y1609942D02*
D03*
D249*
X1069340Y1607754D02*
D03*
X1044340D02*
D03*
X1069340Y1587754D02*
D03*
X1044340D02*
D03*
D250*
X902800Y73280D02*
D03*
Y22480D02*
D03*
X953600D02*
D03*
Y73280D02*
D03*
X928200Y47880D02*
D03*
X1103600Y73280D02*
D03*
Y22480D02*
D03*
X1154400D02*
D03*
Y73280D02*
D03*
X1129000Y47880D02*
D03*
X492220Y77090D02*
D03*
Y26290D02*
D03*
X543020D02*
D03*
Y77090D02*
D03*
X517620Y51690D02*
D03*
X277800Y73280D02*
D03*
Y22480D02*
D03*
X328600D02*
D03*
Y73280D02*
D03*
X303200Y47880D02*
D03*
D251*
X13208Y1525942D02*
D03*
D252*
X-59792Y1609942D02*
D03*
Y1525942D02*
D03*
D253*
X3964580Y3329540D02*
D03*
X3953580D02*
D03*
X3942580D02*
D03*
X3964580Y3340540D02*
D03*
X3953580D02*
D03*
X3942580D02*
D03*
X3964580Y3351540D02*
D03*
X3953580D02*
D03*
X3942580D02*
D03*
X3964580Y3362540D02*
D03*
X3953580D02*
D03*
X3942580D02*
D03*
X3964580Y3373540D02*
D03*
X3953580D02*
D03*
X3942580D02*
D03*
X3964580Y3384540D02*
D03*
X3953580D02*
D03*
X3942580D02*
D03*
X3964580Y3395540D02*
D03*
X3953580D02*
D03*
X3942580D02*
D03*
X3964580Y3406540D02*
D03*
X3953580D02*
D03*
X3942580D02*
D03*
X3964580Y3417540D02*
D03*
X3953580D02*
D03*
X3942580D02*
D03*
X2196760Y1848680D02*
D03*
X2207760D02*
D03*
X2218760D02*
D03*
X2229760D02*
D03*
X2240760D02*
D03*
X2196760Y1837680D02*
D03*
X2207760D02*
D03*
X2218760D02*
D03*
X2229760D02*
D03*
X2240760D02*
D03*
X2196760Y1826680D02*
D03*
X2207760D02*
D03*
X2218760D02*
D03*
X2229760D02*
D03*
X2240760D02*
D03*
X2196760Y1815680D02*
D03*
X2207760D02*
D03*
X2218760D02*
D03*
X2229760D02*
D03*
X2240760D02*
D03*
X2196760Y1804680D02*
D03*
X2207760D02*
D03*
X2218760D02*
D03*
X2229760D02*
D03*
X2240760D02*
D03*
X7492660Y1239080D02*
D03*
X7503660D02*
D03*
X7514660D02*
D03*
X7525660D02*
D03*
X7536660D02*
D03*
X7492660Y1228080D02*
D03*
X7503660D02*
D03*
X7514660D02*
D03*
X7525660D02*
D03*
X7536660D02*
D03*
X7492660Y1217080D02*
D03*
X7503660D02*
D03*
X7514660D02*
D03*
X7525660D02*
D03*
X7536660D02*
D03*
X7492660Y1206080D02*
D03*
X7503660D02*
D03*
X7514660D02*
D03*
X7525660D02*
D03*
X7536660D02*
D03*
X7492660Y1195080D02*
D03*
X7503660D02*
D03*
X7514660D02*
D03*
X7525660D02*
D03*
X7536660D02*
D03*
X7569860Y911800D02*
D03*
X7558860D02*
D03*
X7547860D02*
D03*
X7536860D02*
D03*
X7525860D02*
D03*
X7569860Y922800D02*
D03*
X7558860D02*
D03*
X7547860D02*
D03*
X7536860D02*
D03*
X7525860D02*
D03*
X7569860Y933800D02*
D03*
X7558860D02*
D03*
X7547860D02*
D03*
X7536860D02*
D03*
X7525860D02*
D03*
X7569860Y944800D02*
D03*
X7558860D02*
D03*
X7547860D02*
D03*
X7536860D02*
D03*
X7525860D02*
D03*
X7569860Y955800D02*
D03*
X7558860D02*
D03*
X7547860D02*
D03*
X7536860D02*
D03*
X7525860D02*
D03*
X7443300Y962160D02*
D03*
X7454300D02*
D03*
X7443300Y951160D02*
D03*
X7454300D02*
D03*
X5402560Y554010D02*
D03*
Y561310D02*
D03*
Y568660D02*
D03*
X5387906Y546656D02*
D03*
X5395206D02*
D03*
X5402557D02*
D03*
X5380540Y554010D02*
D03*
Y546660D02*
D03*
Y561310D02*
D03*
Y568660D02*
D03*
X5387910D02*
D03*
X5395210D02*
D03*
X4028420Y554010D02*
D03*
Y561310D02*
D03*
Y568660D02*
D03*
X4013766Y546656D02*
D03*
X4021067D02*
D03*
X4028416D02*
D03*
X4006400Y554010D02*
D03*
Y546660D02*
D03*
Y561310D02*
D03*
Y568660D02*
D03*
X4013770D02*
D03*
X4021070D02*
D03*
X3662660Y554010D02*
D03*
Y561310D02*
D03*
Y568660D02*
D03*
X3648007Y546656D02*
D03*
X3655306D02*
D03*
X3662657D02*
D03*
X3640640Y554010D02*
D03*
Y546660D02*
D03*
Y561310D02*
D03*
Y568660D02*
D03*
X3648010D02*
D03*
X3655310D02*
D03*
X3157200Y554010D02*
D03*
Y561310D02*
D03*
Y568660D02*
D03*
X3142546Y546656D02*
D03*
X3149846D02*
D03*
X3157196D02*
D03*
X3135180Y554010D02*
D03*
Y546660D02*
D03*
Y561310D02*
D03*
Y568660D02*
D03*
X3142550D02*
D03*
X3149850D02*
D03*
D254*
X5686040Y593440D02*
D03*
X5701280D02*
D03*
X5716520D02*
D03*
X5731760D02*
D03*
X5724140Y585820D02*
D03*
X5693660D02*
D03*
X5731760Y578200D02*
D03*
X5716520D02*
D03*
X5701280D02*
D03*
X5686040D02*
D03*
X5724140Y570580D02*
D03*
X5693660D02*
D03*
X5731760Y562960D02*
D03*
X5716520D02*
D03*
X5701280D02*
D03*
X5686040D02*
D03*
X5724140Y555340D02*
D03*
X5693660D02*
D03*
X5731760Y547720D02*
D03*
X5716520D02*
D03*
X5701280D02*
D03*
X5686040D02*
D03*
X5724140Y540100D02*
D03*
X5708900D02*
D03*
X5693660D02*
D03*
X5731760Y532480D02*
D03*
X5716520D02*
D03*
X5701280D02*
D03*
X5724140Y524860D02*
D03*
X5708900D02*
D03*
X5731760Y517240D02*
D03*
X5716520D02*
D03*
X5701280D02*
D03*
X5686040D02*
D03*
Y532480D02*
D03*
X5693660Y524860D02*
D03*
X5708900Y585820D02*
D03*
Y570580D02*
D03*
Y555340D02*
D03*
D255*
X4334600Y588200D02*
D03*
X4324600D02*
D03*
X4314600D02*
D03*
Y578200D02*
D03*
X4324600D02*
D03*
X4334600D02*
D03*
Y568200D02*
D03*
X4324600D02*
D03*
X4314600D02*
D03*
X4253320Y588200D02*
D03*
X4243320D02*
D03*
X4233320D02*
D03*
Y578200D02*
D03*
X4243320D02*
D03*
X4253320D02*
D03*
Y568200D02*
D03*
X4243320D02*
D03*
X4233320D02*
D03*
X4172040Y588200D02*
D03*
X4162040D02*
D03*
X4152040D02*
D03*
Y578200D02*
D03*
X4162040D02*
D03*
X4172040D02*
D03*
Y568200D02*
D03*
X4162040D02*
D03*
X4152040D02*
D03*
D256*
X3346540Y547080D02*
D03*
X3354340D02*
D03*
X3362140D02*
D03*
Y564280D02*
D03*
X3354340D02*
D03*
X3346540D02*
D03*
X2993481Y578201D02*
D03*
Y588201D02*
D03*
X2983481Y578201D02*
D03*
X2973481D02*
D03*
Y568201D02*
D03*
Y588201D02*
D03*
X2983481D02*
D03*
Y568201D02*
D03*
X2993481D02*
D03*
D257*
X647883Y1176543D02*
D03*
X641597Y1170257D02*
D03*
X626743Y1323143D02*
D03*
X620457Y1316857D02*
D03*
X489857Y1266857D02*
D03*
X496143Y1273143D02*
D03*
D258*
X677445Y1167445D02*
D03*
X668555D02*
D03*
X686365Y1301255D02*
D03*
X695255D02*
D03*
X678110Y1337000D02*
D03*
X687000D02*
D03*
X693444Y1316857D02*
D03*
X684554D02*
D03*
X638490Y1277000D02*
D03*
X629600D02*
D03*
X658845Y1247555D02*
D03*
X649955D02*
D03*
X647890Y1217400D02*
D03*
X639000D02*
D03*
X510110Y1127920D02*
D03*
X519000D02*
D03*
X627890Y1237400D02*
D03*
X619000D02*
D03*
X459955Y1358000D02*
D03*
X468845D02*
D03*
X466555Y1329475D02*
D03*
X475445D02*
D03*
M02*
