G04*
G04 #@! TF.GenerationSoftware,Altium Limited,Altium Designer,22.11.1 (43)*
G04*
G04 Layer_Color=8421504*
%FSLAX44Y44*%
%MOMM*%
G71*
G04*
G04 #@! TF.SameCoordinates,685F9FB9-B41E-4883-9AF5-229453B53175*
G04*
G04*
G04 #@! TF.FilePolarity,Positive*
G04*
G01*
G75*
%ADD11R,1.0160X0.7112*%
G04:AMPARAMS|DCode=12|XSize=0.508mm|YSize=0.508mm|CornerRadius=0.1524mm|HoleSize=0mm|Usage=FLASHONLY|Rotation=180.000|XOffset=0mm|YOffset=0mm|HoleType=Round|Shape=RoundedRectangle|*
%AMROUNDEDRECTD12*
21,1,0.5080,0.2032,0,0,180.0*
21,1,0.2032,0.5080,0,0,180.0*
1,1,0.3048,-0.1016,0.1016*
1,1,0.3048,0.1016,0.1016*
1,1,0.3048,0.1016,-0.1016*
1,1,0.3048,-0.1016,-0.1016*
%
%ADD12ROUNDEDRECTD12*%
%ADD13R,0.5500X0.3000*%
%ADD14R,0.5500X0.4000*%
G04:AMPARAMS|DCode=15|XSize=0.889mm|YSize=0.8636mm|CornerRadius=0.1511mm|HoleSize=0mm|Usage=FLASHONLY|Rotation=180.000|XOffset=0mm|YOffset=0mm|HoleType=Round|Shape=RoundedRectangle|*
%AMROUNDEDRECTD15*
21,1,0.8890,0.5613,0,0,180.0*
21,1,0.5867,0.8636,0,0,180.0*
1,1,0.3023,-0.2934,0.2807*
1,1,0.3023,0.2934,0.2807*
1,1,0.3023,0.2934,-0.2807*
1,1,0.3023,-0.2934,-0.2807*
%
%ADD15ROUNDEDRECTD15*%
G04:AMPARAMS|DCode=16|XSize=0.889mm|YSize=0.7874mm|CornerRadius=0.1535mm|HoleSize=0mm|Usage=FLASHONLY|Rotation=270.000|XOffset=0mm|YOffset=0mm|HoleType=Round|Shape=RoundedRectangle|*
%AMROUNDEDRECTD16*
21,1,0.8890,0.4803,0,0,270.0*
21,1,0.5819,0.7874,0,0,270.0*
1,1,0.3071,-0.2402,-0.2910*
1,1,0.3071,-0.2402,0.2910*
1,1,0.3071,0.2402,0.2910*
1,1,0.3071,0.2402,-0.2910*
%
%ADD16ROUNDEDRECTD16*%
G04:AMPARAMS|DCode=17|XSize=0.889mm|YSize=0.7874mm|CornerRadius=0.1535mm|HoleSize=0mm|Usage=FLASHONLY|Rotation=180.000|XOffset=0mm|YOffset=0mm|HoleType=Round|Shape=RoundedRectangle|*
%AMROUNDEDRECTD17*
21,1,0.8890,0.4803,0,0,180.0*
21,1,0.5819,0.7874,0,0,180.0*
1,1,0.3071,-0.2910,0.2402*
1,1,0.3071,0.2910,0.2402*
1,1,0.3071,0.2910,-0.2402*
1,1,0.3071,-0.2910,-0.2402*
%
%ADD17ROUNDEDRECTD17*%
%ADD18R,0.2500X0.8000*%
%ADD19R,0.8000X0.2500*%
G04:AMPARAMS|DCode=20|XSize=3.4mm|YSize=3.4mm|CornerRadius=0mm|HoleSize=0mm|Usage=FLASHONLY|Rotation=270.000|XOffset=0mm|YOffset=0mm|HoleType=Round|Shape=RoundedRectangle|*
%AMROUNDEDRECTD20*
21,1,3.4000,3.4000,0,0,270.0*
21,1,3.4000,3.4000,0,0,270.0*
1,1,0.0000,-1.7000,-1.7000*
1,1,0.0000,-1.7000,1.7000*
1,1,0.0000,1.7000,1.7000*
1,1,0.0000,1.7000,-1.7000*
%
%ADD20ROUNDEDRECTD20*%
%ADD21C,0.4500*%
G04:AMPARAMS|DCode=22|XSize=2.5mm|YSize=1.5mm|CornerRadius=0.3mm|HoleSize=0mm|Usage=FLASHONLY|Rotation=90.000|XOffset=0mm|YOffset=0mm|HoleType=Round|Shape=RoundedRectangle|*
%AMROUNDEDRECTD22*
21,1,2.5000,0.9000,0,0,90.0*
21,1,1.9000,1.5000,0,0,90.0*
1,1,0.6000,0.4500,0.9500*
1,1,0.6000,0.4500,-0.9500*
1,1,0.6000,-0.4500,-0.9500*
1,1,0.6000,-0.4500,0.9500*
%
%ADD22ROUNDEDRECTD22*%
%ADD23R,1.7018X0.7620*%
G04:AMPARAMS|DCode=24|XSize=1.7018mm|YSize=0.762mm|CornerRadius=0.1905mm|HoleSize=0mm|Usage=FLASHONLY|Rotation=180.000|XOffset=0mm|YOffset=0mm|HoleType=Round|Shape=RoundedRectangle|*
%AMROUNDEDRECTD24*
21,1,1.7018,0.3810,0,0,180.0*
21,1,1.3208,0.7620,0,0,180.0*
1,1,0.3810,-0.6604,0.1905*
1,1,0.3810,0.6604,0.1905*
1,1,0.3810,0.6604,-0.1905*
1,1,0.3810,-0.6604,-0.1905*
%
%ADD24ROUNDEDRECTD24*%
G04:AMPARAMS|DCode=26|XSize=0.889mm|YSize=0.8636mm|CornerRadius=0.1511mm|HoleSize=0mm|Usage=FLASHONLY|Rotation=90.000|XOffset=0mm|YOffset=0mm|HoleType=Round|Shape=RoundedRectangle|*
%AMROUNDEDRECTD26*
21,1,0.8890,0.5613,0,0,90.0*
21,1,0.5867,0.8636,0,0,90.0*
1,1,0.3023,0.2807,0.2934*
1,1,0.3023,0.2807,-0.2934*
1,1,0.3023,-0.2807,-0.2934*
1,1,0.3023,-0.2807,0.2934*
%
%ADD26ROUNDEDRECTD26*%
G04:AMPARAMS|DCode=27|XSize=1.8034mm|YSize=1.1938mm|CornerRadius=0.203mm|HoleSize=0mm|Usage=FLASHONLY|Rotation=180.000|XOffset=0mm|YOffset=0mm|HoleType=Round|Shape=RoundedRectangle|*
%AMROUNDEDRECTD27*
21,1,1.8034,0.7879,0,0,180.0*
21,1,1.3975,1.1938,0,0,180.0*
1,1,0.4059,-0.6988,0.3940*
1,1,0.4059,0.6988,0.3940*
1,1,0.4059,0.6988,-0.3940*
1,1,0.4059,-0.6988,-0.3940*
%
%ADD27ROUNDEDRECTD27*%
%ADD30O,1.6000X0.3000*%
%ADD31R,1.2000X1.2000*%
G04:AMPARAMS|DCode=32|XSize=1.2mm|YSize=1.2mm|CornerRadius=0.3mm|HoleSize=0mm|Usage=FLASHONLY|Rotation=0.000|XOffset=0mm|YOffset=0mm|HoleType=Round|Shape=RoundedRectangle|*
%AMROUNDEDRECTD32*
21,1,1.2000,0.6000,0,0,0.0*
21,1,0.6000,1.2000,0,0,0.0*
1,1,0.6000,0.3000,-0.3000*
1,1,0.6000,-0.3000,-0.3000*
1,1,0.6000,-0.3000,0.3000*
1,1,0.6000,0.3000,0.3000*
%
%ADD32ROUNDEDRECTD32*%
%ADD33R,1.6000X1.5000*%
%ADD34R,0.4572X0.3048*%
G04:AMPARAMS|DCode=35|XSize=2.26mm|YSize=2.16mm|CornerRadius=0.54mm|HoleSize=0mm|Usage=FLASHONLY|Rotation=180.000|XOffset=0mm|YOffset=0mm|HoleType=Round|Shape=RoundedRectangle|*
%AMROUNDEDRECTD35*
21,1,2.2600,1.0800,0,0,180.0*
21,1,1.1800,2.1600,0,0,180.0*
1,1,1.0800,-0.5900,0.5400*
1,1,1.0800,0.5900,0.5400*
1,1,1.0800,0.5900,-0.5400*
1,1,1.0800,-0.5900,-0.5400*
%
%ADD35ROUNDEDRECTD35*%
G04:AMPARAMS|DCode=36|XSize=4.4mm|YSize=2.5mm|CornerRadius=0.625mm|HoleSize=0mm|Usage=FLASHONLY|Rotation=0.000|XOffset=0mm|YOffset=0mm|HoleType=Round|Shape=RoundedRectangle|*
%AMROUNDEDRECTD36*
21,1,4.4000,1.2500,0,0,0.0*
21,1,3.1500,2.5000,0,0,0.0*
1,1,1.2500,1.5750,-0.6250*
1,1,1.2500,-1.5750,-0.6250*
1,1,1.2500,-1.5750,0.6250*
1,1,1.2500,1.5750,0.6250*
%
%ADD36ROUNDEDRECTD36*%
G04:AMPARAMS|DCode=41|XSize=1mm|YSize=0.8mm|CornerRadius=0.2mm|HoleSize=0mm|Usage=FLASHONLY|Rotation=180.000|XOffset=0mm|YOffset=0mm|HoleType=Round|Shape=RoundedRectangle|*
%AMROUNDEDRECTD41*
21,1,1.0000,0.4000,0,0,180.0*
21,1,0.6000,0.8000,0,0,180.0*
1,1,0.4000,-0.3000,0.2000*
1,1,0.4000,0.3000,0.2000*
1,1,0.4000,0.3000,-0.2000*
1,1,0.4000,-0.3000,-0.2000*
%
%ADD41ROUNDEDRECTD41*%
%ADD42R,0.7112X1.0160*%
G04:AMPARAMS|DCode=44|XSize=1mm|YSize=0.8mm|CornerRadius=0.2mm|HoleSize=0mm|Usage=FLASHONLY|Rotation=90.000|XOffset=0mm|YOffset=0mm|HoleType=Round|Shape=RoundedRectangle|*
%AMROUNDEDRECTD44*
21,1,1.0000,0.4000,0,0,90.0*
21,1,0.6000,0.8000,0,0,90.0*
1,1,0.4000,0.2000,0.3000*
1,1,0.4000,0.2000,-0.3000*
1,1,0.4000,-0.2000,-0.3000*
1,1,0.4000,-0.2000,0.3000*
%
%ADD44ROUNDEDRECTD44*%
%ADD45O,0.8000X0.2300*%
%ADD46O,0.2300X0.8000*%
%ADD47R,7.4000X7.4000*%
G04:AMPARAMS|DCode=49|XSize=1.8034mm|YSize=1.1938mm|CornerRadius=0.203mm|HoleSize=0mm|Usage=FLASHONLY|Rotation=90.000|XOffset=0mm|YOffset=0mm|HoleType=Round|Shape=RoundedRectangle|*
%AMROUNDEDRECTD49*
21,1,1.8034,0.7879,0,0,90.0*
21,1,1.3975,1.1938,0,0,90.0*
1,1,0.4059,0.3940,0.6988*
1,1,0.4059,0.3940,-0.6988*
1,1,0.4059,-0.3940,-0.6988*
1,1,0.4059,-0.3940,0.6988*
%
%ADD49ROUNDEDRECTD49*%
%ADD50R,1.3970X0.6350*%
%ADD52R,0.8000X1.2000*%
%ADD56O,0.8500X0.2800*%
%ADD57O,0.2800X0.8500*%
%ADD58R,5.6000X5.6000*%
%ADD59R,0.4200X0.5000*%
%ADD60O,0.4000X1.8000*%
%ADD61O,0.8000X0.2000*%
%ADD62O,0.2000X0.8000*%
%ADD63R,2.1000X2.1000*%
G04:AMPARAMS|DCode=64|XSize=1.397mm|YSize=1.0922mm|CornerRadius=0.2021mm|HoleSize=0mm|Usage=FLASHONLY|Rotation=180.000|XOffset=0mm|YOffset=0mm|HoleType=Round|Shape=RoundedRectangle|*
%AMROUNDEDRECTD64*
21,1,1.3970,0.6881,0,0,180.0*
21,1,0.9929,1.0922,0,0,180.0*
1,1,0.4041,-0.4964,0.3440*
1,1,0.4041,0.4964,0.3440*
1,1,0.4041,0.4964,-0.3440*
1,1,0.4041,-0.4964,-0.3440*
%
%ADD64ROUNDEDRECTD64*%
G04:AMPARAMS|DCode=65|XSize=3.06mm|YSize=0.89mm|CornerRadius=0.2225mm|HoleSize=0mm|Usage=FLASHONLY|Rotation=90.000|XOffset=0mm|YOffset=0mm|HoleType=Round|Shape=RoundedRectangle|*
%AMROUNDEDRECTD65*
21,1,3.0600,0.4450,0,0,90.0*
21,1,2.6150,0.8900,0,0,90.0*
1,1,0.4450,0.2225,1.3075*
1,1,0.4450,0.2225,-1.3075*
1,1,0.4450,-0.2225,-1.3075*
1,1,0.4450,-0.2225,1.3075*
%
%ADD65ROUNDEDRECTD65*%
%ADD67R,3.8100X4.2418*%
%ADD68R,0.9500X2.0000*%
%ADD69R,5.1500X6.0000*%
%ADD70R,0.9500X0.6000*%
%ADD71R,0.6000X0.9500*%
%ADD72R,1.7000X1.6000*%
G04:AMPARAMS|DCode=73|XSize=1.6mm|YSize=1.7mm|CornerRadius=0.4mm|HoleSize=0mm|Usage=FLASHONLY|Rotation=270.000|XOffset=0mm|YOffset=0mm|HoleType=Round|Shape=RoundedRectangle|*
%AMROUNDEDRECTD73*
21,1,1.6000,0.9000,0,0,270.0*
21,1,0.8000,1.7000,0,0,270.0*
1,1,0.8000,-0.4500,-0.4000*
1,1,0.8000,-0.4500,0.4000*
1,1,0.8000,0.4500,0.4000*
1,1,0.8000,0.4500,-0.4000*
%
%ADD73ROUNDEDRECTD73*%
%ADD74R,3.1000X2.3500*%
%ADD75R,2.8000X2.8000*%
%ADD76R,1.7000X2.5000*%
G04:AMPARAMS|DCode=78|XSize=0.24mm|YSize=0.6mm|CornerRadius=0.0492mm|HoleSize=0mm|Usage=FLASHONLY|Rotation=90.000|XOffset=0mm|YOffset=0mm|HoleType=Round|Shape=RoundedRectangle|*
%AMROUNDEDRECTD78*
21,1,0.2400,0.5016,0,0,90.0*
21,1,0.1416,0.6000,0,0,90.0*
1,1,0.0984,0.2508,0.0708*
1,1,0.0984,0.2508,-0.0708*
1,1,0.0984,-0.2508,-0.0708*
1,1,0.0984,-0.2508,0.0708*
%
%ADD78ROUNDEDRECTD78*%
%ADD89C,0.1270*%
%ADD138R,2.2860X1.9050*%
%ADD139R,3.1000X5.1600*%
%ADD140R,1.9050X2.2860*%
%ADD141R,2.5750X2.7100*%
%ADD142R,1.3000X1.3000*%
%ADD143R,1.0400X0.5000*%
%ADD144R,0.8500X0.8500*%
%ADD145R,1.2800X0.7300*%
%ADD146R,0.8000X1.2800*%
%ADD147R,1.4700X1.2400*%
G04:AMPARAMS|DCode=148|XSize=0.6mm|YSize=0.8mm|CornerRadius=0.1375mm|HoleSize=0mm|Usage=FLASHONLY|Rotation=0.000|XOffset=0mm|YOffset=0mm|HoleType=Round|Shape=RoundedRectangle|*
%AMROUNDEDRECTD148*
21,1,0.6000,0.5250,0,0,0.0*
21,1,0.3250,0.8000,0,0,0.0*
1,1,0.2750,0.1625,-0.2625*
1,1,0.2750,-0.1625,-0.2625*
1,1,0.2750,-0.1625,0.2625*
1,1,0.2750,0.1625,0.2625*
%
%ADD148ROUNDEDRECTD148*%
G04:AMPARAMS|DCode=149|XSize=2.13mm|YSize=1.57mm|CornerRadius=0.38mm|HoleSize=0mm|Usage=FLASHONLY|Rotation=90.000|XOffset=0mm|YOffset=0mm|HoleType=Round|Shape=RoundedRectangle|*
%AMROUNDEDRECTD149*
21,1,2.1300,0.8100,0,0,90.0*
21,1,1.3700,1.5700,0,0,90.0*
1,1,0.7600,0.4050,0.6850*
1,1,0.7600,0.4050,-0.6850*
1,1,0.7600,-0.4050,-0.6850*
1,1,0.7600,-0.4050,0.6850*
%
%ADD149ROUNDEDRECTD149*%
%ADD150R,0.9500X0.5000*%
%ADD151R,1.3500X2.7000*%
%ADD152R,1.9000X1.5000*%
%ADD153R,0.4590X2.1990*%
G04:AMPARAMS|DCode=154|XSize=0.25mm|YSize=0.4mm|CornerRadius=0.05mm|HoleSize=0mm|Usage=FLASHONLY|Rotation=90.000|XOffset=0mm|YOffset=0mm|HoleType=Round|Shape=RoundedRectangle|*
%AMROUNDEDRECTD154*
21,1,0.2500,0.3000,0,0,90.0*
21,1,0.1500,0.4000,0,0,90.0*
1,1,0.1000,0.1500,0.0750*
1,1,0.1000,0.1500,-0.0750*
1,1,0.1000,-0.1500,-0.0750*
1,1,0.1000,-0.1500,0.0750*
%
%ADD154ROUNDEDRECTD154*%
%ADD155R,2.7500X2.2500*%
%ADD156R,2.2500X2.7500*%
G04:AMPARAMS|DCode=157|XSize=0.3mm|YSize=0.95mm|CornerRadius=0.0625mm|HoleSize=0mm|Usage=FLASHONLY|Rotation=90.000|XOffset=0mm|YOffset=0mm|HoleType=Round|Shape=RoundedRectangle|*
%AMROUNDEDRECTD157*
21,1,0.3000,0.8250,0,0,90.0*
21,1,0.1750,0.9500,0,0,90.0*
1,1,0.1250,0.4125,0.0875*
1,1,0.1250,0.4125,-0.0875*
1,1,0.1250,-0.4125,-0.0875*
1,1,0.1250,-0.4125,0.0875*
%
%ADD157ROUNDEDRECTD157*%
G04:AMPARAMS|DCode=158|XSize=0.3mm|YSize=0.95mm|CornerRadius=0.0625mm|HoleSize=0mm|Usage=FLASHONLY|Rotation=0.000|XOffset=0mm|YOffset=0mm|HoleType=Round|Shape=RoundedRectangle|*
%AMROUNDEDRECTD158*
21,1,0.3000,0.8250,0,0,0.0*
21,1,0.1750,0.9500,0,0,0.0*
1,1,0.1250,0.0875,-0.4125*
1,1,0.1250,-0.0875,-0.4125*
1,1,0.1250,-0.0875,0.4125*
1,1,0.1250,0.0875,0.4125*
%
%ADD158ROUNDEDRECTD158*%
%ADD159R,0.5500X0.9000*%
%ADD160R,0.9000X0.5500*%
G04:AMPARAMS|DCode=161|XSize=0.9mm|YSize=0.25mm|CornerRadius=0.05mm|HoleSize=0mm|Usage=FLASHONLY|Rotation=0.000|XOffset=0mm|YOffset=0mm|HoleType=Round|Shape=RoundedRectangle|*
%AMROUNDEDRECTD161*
21,1,0.9000,0.1500,0,0,0.0*
21,1,0.8000,0.2500,0,0,0.0*
1,1,0.1000,0.4000,-0.0750*
1,1,0.1000,-0.4000,-0.0750*
1,1,0.1000,-0.4000,0.0750*
1,1,0.1000,0.4000,0.0750*
%
%ADD161ROUNDEDRECTD161*%
G36*
X21016Y1691622D02*
X21926Y1691245D01*
X22745Y1690698D01*
X23442Y1690001D01*
X23989Y1689182D01*
X24366Y1688272D01*
X24558Y1687307D01*
Y1686814D01*
Y1686322D01*
X24366Y1685356D01*
X23989Y1684446D01*
X23442Y1683627D01*
X22745Y1682930D01*
X21926Y1682383D01*
X21016Y1682006D01*
X20050Y1681814D01*
X19066D01*
X18099Y1682006D01*
X17190Y1682383D01*
X16371Y1682930D01*
X15674Y1683627D01*
X15127Y1684446D01*
X14750Y1685356D01*
X14558Y1686322D01*
Y1686814D01*
Y1687307D01*
X14750Y1688272D01*
X15127Y1689182D01*
X15674Y1690001D01*
X16371Y1690698D01*
X17190Y1691245D01*
X18099Y1691622D01*
X19066Y1691814D01*
X20050D01*
X21016Y1691622D01*
D02*
G37*
G36*
X1948876Y1594340D02*
X1949786Y1593963D01*
X1950605Y1593416D01*
X1951302Y1592719D01*
X1951849Y1591900D01*
X1952226Y1590990D01*
X1952418Y1590025D01*
Y1589532D01*
Y1589039D01*
X1952226Y1588073D01*
X1951849Y1587164D01*
X1951302Y1586345D01*
X1950605Y1585648D01*
X1949786Y1585101D01*
X1948876Y1584724D01*
X1947910Y1584532D01*
X1946926D01*
X1945959Y1584724D01*
X1945050Y1585101D01*
X1944231Y1585648D01*
X1943534Y1586345D01*
X1942987Y1587164D01*
X1942610Y1588073D01*
X1942418Y1589039D01*
Y1589532D01*
Y1590025D01*
X1942610Y1590990D01*
X1942987Y1591900D01*
X1943534Y1592719D01*
X1944231Y1593416D01*
X1945050Y1593963D01*
X1945959Y1594340D01*
X1946926Y1594532D01*
X1947910D01*
X1948876Y1594340D01*
D02*
G37*
G36*
X439337Y1466689D02*
X439337Y1457989D01*
X430637D01*
X430637Y1466689D01*
X439337Y1466689D01*
D02*
G37*
G36*
X450037Y1457989D02*
X441337D01*
X441337Y1466689D01*
X450037D01*
X450037Y1457989D01*
D02*
G37*
G36*
X428637D02*
X419937D01*
X419937Y1466689D01*
X428637D01*
X428637Y1457989D01*
D02*
G37*
G36*
X450037Y1447289D02*
X441337Y1447289D01*
Y1455989D01*
X450037D01*
Y1447289D01*
D02*
G37*
G36*
X439337Y1447289D02*
X430637Y1447289D01*
Y1455989D01*
X439337Y1455989D01*
Y1447289D01*
D02*
G37*
G36*
X428637D02*
X419937D01*
X419937Y1455989D01*
X428637D01*
X428637Y1447289D01*
D02*
G37*
G36*
X450037Y1445289D02*
Y1436589D01*
X441337D01*
Y1445289D01*
X450037Y1445289D01*
D02*
G37*
G36*
X428637Y1436589D02*
X419937D01*
X419937Y1445289D01*
X428637Y1445289D01*
Y1436589D01*
D02*
G37*
G36*
X439337Y1436589D02*
X430637Y1436589D01*
Y1445289D01*
X439337D01*
X439337Y1436589D01*
D02*
G37*
G36*
X3344240Y517880D02*
Y510680D01*
X3329540D01*
Y523080D01*
X3338340D01*
X3344240Y517880D01*
D02*
G37*
G36*
X1983166Y232646D02*
X1984076Y232269D01*
X1984895Y231722D01*
X1985592Y231025D01*
X1986139Y230206D01*
X1986516Y229296D01*
X1986708Y228330D01*
Y227838D01*
Y227346D01*
X1986516Y226380D01*
X1986139Y225470D01*
X1985592Y224651D01*
X1984895Y223954D01*
X1984076Y223407D01*
X1983166Y223030D01*
X1982200Y222838D01*
X1981216D01*
X1980249Y223030D01*
X1979340Y223407D01*
X1978521Y223954D01*
X1977824Y224651D01*
X1977277Y225470D01*
X1976900Y226380D01*
X1976708Y227346D01*
Y227838D01*
Y228330D01*
X1976900Y229296D01*
X1977277Y230206D01*
X1977824Y231025D01*
X1978521Y231722D01*
X1979340Y232269D01*
X1980249Y232646D01*
X1981216Y232838D01*
X1982200D01*
X1983166Y232646D01*
D02*
G37*
G36*
X7808Y122410D02*
X8718Y122033D01*
X9537Y121486D01*
X10234Y120789D01*
X10781Y119970D01*
X11158Y119060D01*
X11350Y118095D01*
Y117602D01*
Y117109D01*
X11158Y116144D01*
X10781Y115234D01*
X10234Y114415D01*
X9537Y113718D01*
X8718Y113171D01*
X7808Y112794D01*
X6842Y112602D01*
X5857D01*
X4891Y112794D01*
X3982Y113171D01*
X3163Y113718D01*
X2466Y114415D01*
X1919Y115234D01*
X1542Y116144D01*
X1350Y117109D01*
Y117602D01*
Y118095D01*
X1542Y119060D01*
X1919Y119970D01*
X2466Y120789D01*
X3163Y121486D01*
X3982Y122033D01*
X4891Y122410D01*
X5857Y122602D01*
X6842D01*
X7808Y122410D01*
D02*
G37*
G36*
X-636250Y-1136000D02*
X-634750Y-1136000D01*
X-634750Y-1136000D01*
X-634651Y-1136000D01*
X-634467Y-1136076D01*
X-634326Y-1136216D01*
X-634250Y-1136400D01*
Y-1136499D01*
X-634249Y-1138899D01*
X-634249Y-1138899D01*
X-634249Y-1138999D01*
X-634325Y-1139183D01*
X-634466Y-1139324D01*
X-634651Y-1139400D01*
X-634750Y-1139400D01*
X-636250Y-1139400D01*
X-636250Y-1139400D01*
X-636350Y-1139400D01*
X-636534Y-1139323D01*
X-636674Y-1139183D01*
X-636750Y-1138999D01*
X-636750Y-1138899D01*
X-636750Y-1136500D01*
X-636750D01*
X-636750Y-1136400D01*
X-636674Y-1136217D01*
X-636533Y-1136076D01*
X-636349Y-1136000D01*
X-636250Y-1136000D01*
D02*
G37*
G36*
X-641250D02*
X-639750Y-1136000D01*
X-639750Y-1136000D01*
X-639651Y-1136000D01*
X-639467Y-1136076D01*
X-639326Y-1136216D01*
X-639250Y-1136400D01*
Y-1136499D01*
X-639249Y-1138899D01*
X-639249Y-1138899D01*
X-639249Y-1138999D01*
X-639325Y-1139183D01*
X-639466Y-1139324D01*
X-639651Y-1139400D01*
X-639750Y-1139400D01*
X-641250Y-1139400D01*
X-641250Y-1139400D01*
X-641350Y-1139400D01*
X-641534Y-1139323D01*
X-641674Y-1139183D01*
X-641750Y-1138999D01*
X-641750Y-1138899D01*
X-641750Y-1136500D01*
X-641750D01*
X-641750Y-1136400D01*
X-641674Y-1136217D01*
X-641533Y-1136076D01*
X-641349Y-1136000D01*
X-641250Y-1136000D01*
D02*
G37*
G36*
X-631501Y-1141400D02*
X-631302Y-1141399D01*
X-630935Y-1141551D01*
X-630653Y-1141832D01*
X-630501Y-1142200D01*
X-630501Y-1142399D01*
X-630501Y-1151001D01*
X-630501Y-1151001D01*
X-630501Y-1151199D01*
X-630653Y-1151566D01*
X-630934Y-1151848D01*
X-631301Y-1152000D01*
X-631500Y-1152000D01*
X-644500Y-1152000D01*
X-644500Y-1152000D01*
X-644699Y-1152000D01*
X-645067Y-1151848D01*
X-645348Y-1151567D01*
X-645500Y-1151199D01*
X-645500Y-1151000D01*
X-645501Y-1142401D01*
Y-1142401D01*
X-645501Y-1142202D01*
X-645349Y-1141834D01*
X-645067Y-1141552D01*
X-644699Y-1141400D01*
X-644500Y-1141400D01*
X-631501Y-1141399D01*
X-631501Y-1141400D01*
D02*
G37*
G36*
X-631500Y-1154000D02*
X-631301Y-1154000D01*
X-630933Y-1154152D01*
X-630652Y-1154433D01*
X-630500Y-1154801D01*
X-630500Y-1155000D01*
X-630499Y-1163599D01*
X-630499Y-1163599D01*
X-630499Y-1163798D01*
X-630651Y-1164166D01*
X-630933Y-1164448D01*
X-631301Y-1164600D01*
X-631500Y-1164600D01*
X-644499Y-1164601D01*
X-644499Y-1164601D01*
X-644698Y-1164601D01*
X-645065Y-1164449D01*
X-645347Y-1164168D01*
X-645499Y-1163800D01*
X-645499Y-1163602D01*
X-645499Y-1154999D01*
X-645499D01*
X-645499Y-1154801D01*
X-645347Y-1154434D01*
X-645066Y-1154153D01*
X-644699Y-1154000D01*
X-644500Y-1154000D01*
X-631500Y-1154000D01*
X-631500Y-1154000D01*
D02*
G37*
G36*
X-636250Y-1166600D02*
X-634750Y-1166600D01*
X-634750Y-1166600D01*
X-634650Y-1166600D01*
X-634467Y-1166677D01*
X-634326Y-1166817D01*
X-634250Y-1167001D01*
X-634250Y-1167101D01*
X-634250Y-1169500D01*
X-634250Y-1169500D01*
X-634250Y-1169600D01*
X-634326Y-1169783D01*
X-634467Y-1169924D01*
X-634651Y-1170000D01*
X-634750Y-1170000D01*
X-636250Y-1170000D01*
X-636250Y-1170000D01*
X-636349Y-1170000D01*
X-636533Y-1169924D01*
X-636674Y-1169784D01*
X-636750Y-1169600D01*
Y-1169501D01*
X-636751Y-1167101D01*
Y-1167101D01*
X-636751Y-1167001D01*
X-636675Y-1166817D01*
X-636534Y-1166676D01*
X-636349Y-1166600D01*
X-636250Y-1166600D01*
D02*
G37*
G36*
X-641250D02*
X-639750Y-1166600D01*
X-639750Y-1166600D01*
X-639650Y-1166600D01*
X-639467Y-1166677D01*
X-639326Y-1166817D01*
X-639250Y-1167001D01*
X-639250Y-1167101D01*
X-639250Y-1169500D01*
X-639250Y-1169500D01*
X-639250Y-1169600D01*
X-639326Y-1169783D01*
X-639467Y-1169924D01*
X-639651Y-1170000D01*
X-639750Y-1170000D01*
X-641250Y-1170000D01*
X-641250Y-1170000D01*
X-641349Y-1170000D01*
X-641533Y-1169924D01*
X-641674Y-1169784D01*
X-641750Y-1169600D01*
Y-1169501D01*
X-641751Y-1167101D01*
Y-1167101D01*
X-641751Y-1167001D01*
X-641675Y-1166817D01*
X-641534Y-1166676D01*
X-641349Y-1166600D01*
X-641250Y-1166600D01*
D02*
G37*
D11*
X945642Y1605534D02*
D03*
X969010Y1596136D02*
D03*
X945642Y1586738D02*
D03*
D12*
X1058926Y1557655D02*
D03*
X1058926Y1548765D02*
D03*
X1046480Y1557655D02*
D03*
X1046480Y1548765D02*
D03*
X2192000Y-1150870D02*
D03*
Y-1141980D02*
D03*
X1056786Y1408430D02*
D03*
Y1417320D02*
D03*
X1044340Y1408684D02*
D03*
Y1417574D02*
D03*
X-459000Y739555D02*
D03*
Y748445D02*
D03*
X3097780Y1170655D02*
D03*
Y1179545D02*
D03*
X3026660Y1170655D02*
D03*
Y1179545D02*
D03*
X2955540Y1170655D02*
D03*
Y1179545D02*
D03*
X2374940Y1245655D02*
D03*
Y1254545D02*
D03*
X2303820Y1245655D02*
D03*
Y1254545D02*
D03*
X2237780Y1245655D02*
D03*
Y1254545D02*
D03*
X5190740Y972535D02*
D03*
Y981425D02*
D03*
X5119620Y972535D02*
D03*
Y981425D02*
D03*
X5053580Y972535D02*
D03*
Y981425D02*
D03*
X4215380Y972535D02*
D03*
Y981425D02*
D03*
X4149340Y972535D02*
D03*
Y981425D02*
D03*
X4078220Y972535D02*
D03*
Y981425D02*
D03*
X3262880Y774415D02*
D03*
Y783305D02*
D03*
X3189220Y774415D02*
D03*
Y783305D02*
D03*
X2527340Y849415D02*
D03*
Y858305D02*
D03*
X2453680Y849415D02*
D03*
Y858305D02*
D03*
X2237780Y849415D02*
D03*
Y858305D02*
D03*
X4652260Y596615D02*
D03*
Y605505D02*
D03*
X3537200Y596615D02*
D03*
Y605505D02*
D03*
X3466080Y596615D02*
D03*
Y605505D02*
D03*
X3031740Y596615D02*
D03*
Y605505D02*
D03*
X2306360Y671615D02*
D03*
Y680505D02*
D03*
D13*
X84851Y1371528D02*
D03*
Y1366528D02*
D03*
X84851Y1356528D02*
D03*
X84851Y1351528D02*
D03*
X92551Y1371528D02*
D03*
Y1366528D02*
D03*
X92551Y1356528D02*
D03*
X92551Y1351528D02*
D03*
D14*
X84851Y1361528D02*
D03*
X92551D02*
D03*
D15*
X61051Y1363946D02*
D03*
X46065D02*
D03*
X-2221507Y-882000D02*
D03*
X-2236493D02*
D03*
X896986Y-541000D02*
D03*
X882000D02*
D03*
X921986Y-694000D02*
D03*
X907000D02*
D03*
X903986Y-634000D02*
D03*
X889000D02*
D03*
X1001493Y-587000D02*
D03*
X986507D02*
D03*
X1074493Y-687000D02*
D03*
X1059507D02*
D03*
X998493Y-702000D02*
D03*
X983507D02*
D03*
X1211213Y-607400D02*
D03*
X1196227D02*
D03*
X1155333D02*
D03*
X1140347D02*
D03*
X1099453D02*
D03*
X1084467D02*
D03*
X267843Y1348232D02*
D03*
X282829D02*
D03*
X267970Y1411969D02*
D03*
X282956D02*
D03*
X1642053Y2344840D02*
D03*
X1627067D02*
D03*
X1558233Y2187360D02*
D03*
X1543247D02*
D03*
X1515053D02*
D03*
X1500067D02*
D03*
X-1358365Y287380D02*
D03*
X-1373351D02*
D03*
X-1401545D02*
D03*
X-1416531D02*
D03*
X-1447265D02*
D03*
X-1462251D02*
D03*
X-1490445D02*
D03*
X-1505431D02*
D03*
X-1533625D02*
D03*
X-1548611D02*
D03*
X-343507Y807000D02*
D03*
X-358493D02*
D03*
X-1008627Y-834887D02*
D03*
X-1023613D02*
D03*
X827987Y1264040D02*
D03*
X813001D02*
D03*
X883744Y1372345D02*
D03*
X898730D02*
D03*
X854637Y1372605D02*
D03*
X869623D02*
D03*
X821623D02*
D03*
X806637D02*
D03*
X785637Y1372345D02*
D03*
X770651Y1372345D02*
D03*
X772144Y1265005D02*
D03*
X787130D02*
D03*
X887144Y1265005D02*
D03*
X902130D02*
D03*
X872623D02*
D03*
X857637D02*
D03*
D16*
X45932Y1348310D02*
D03*
X61934D02*
D03*
X45573Y1381681D02*
D03*
X61575D02*
D03*
X526384Y1477563D02*
D03*
X542386D02*
D03*
X526136Y1409695D02*
D03*
X542138D02*
D03*
X526440Y1398013D02*
D03*
X542442D02*
D03*
X526384Y1464957D02*
D03*
X542386D02*
D03*
X526384Y1437957D02*
D03*
X542386D02*
D03*
X526384Y1451757D02*
D03*
X542386D02*
D03*
X526261Y1423915D02*
D03*
X542263D02*
D03*
X1083183Y1546352D02*
D03*
X1099185Y1546352D02*
D03*
X1082487Y1560259D02*
D03*
X1098489Y1560259D02*
D03*
X341476Y1415729D02*
D03*
X357478D02*
D03*
X341476Y1388088D02*
D03*
X357478D02*
D03*
X341350Y1428458D02*
D03*
X357352D02*
D03*
X341310Y1440939D02*
D03*
X357312D02*
D03*
X341295Y1455619D02*
D03*
X357297D02*
D03*
X341310Y1469774D02*
D03*
X357312D02*
D03*
X341387Y1400979D02*
D03*
X357389D02*
D03*
X1961839Y2344840D02*
D03*
X1977841D02*
D03*
X1916119D02*
D03*
X1932121D02*
D03*
X1872939D02*
D03*
X1888941D02*
D03*
X1367479D02*
D03*
X1383481D02*
D03*
X1456379Y2187360D02*
D03*
X1472381D02*
D03*
X1410659D02*
D03*
X1426661D02*
D03*
X1367479D02*
D03*
X1383481D02*
D03*
X-737683Y-624447D02*
D03*
X-721681D02*
D03*
X-1069661Y-731127D02*
D03*
X-1053659D02*
D03*
X7725279Y1175100D02*
D03*
X7741281D02*
D03*
X7021699D02*
D03*
X7037701D02*
D03*
X5825359D02*
D03*
X5841361D02*
D03*
D17*
X191262Y1283844D02*
D03*
Y1299846D02*
D03*
X174752Y1283843D02*
D03*
Y1299845D02*
D03*
X1069994Y1399413D02*
D03*
Y1415415D02*
D03*
X1086106Y1399286D02*
D03*
Y1415288D02*
D03*
X-1224000Y505999D02*
D03*
Y522001D02*
D03*
X-1294000Y511999D02*
D03*
Y528001D02*
D03*
X2196986Y22990D02*
D03*
Y38992D02*
D03*
X-432000Y584999D02*
D03*
Y601001D02*
D03*
X2163000Y-897001D02*
D03*
Y-880999D02*
D03*
X2833000Y-1058002D02*
D03*
Y-1042000D02*
D03*
X1641245Y388681D02*
D03*
Y404683D02*
D03*
X1567585Y388681D02*
D03*
Y404683D02*
D03*
X1496465Y388681D02*
D03*
Y404683D02*
D03*
X1430425Y388681D02*
D03*
Y404683D02*
D03*
X2918000Y-1063001D02*
D03*
Y-1046999D02*
D03*
X4085660Y3401099D02*
D03*
Y3417101D02*
D03*
X3707200Y3401099D02*
D03*
Y3417101D02*
D03*
X1949520Y3401099D02*
D03*
Y3417101D02*
D03*
X1807280Y3401099D02*
D03*
Y3417101D02*
D03*
X1665040Y3401099D02*
D03*
Y3417101D02*
D03*
X1367860Y3401099D02*
D03*
Y3417101D02*
D03*
X3577660Y2486699D02*
D03*
Y2502701D02*
D03*
X3506540Y2486699D02*
D03*
Y2502701D02*
D03*
X3379540Y2486699D02*
D03*
Y2502701D02*
D03*
X3308420Y2486699D02*
D03*
Y2502701D02*
D03*
X3067120Y2486699D02*
D03*
Y2502701D02*
D03*
X2996000Y2486699D02*
D03*
Y2502701D02*
D03*
X2924880Y2486699D02*
D03*
Y2502701D02*
D03*
X2853760Y2486699D02*
D03*
Y2502701D02*
D03*
X2533720Y2486699D02*
D03*
Y2502701D02*
D03*
X2467680Y2486699D02*
D03*
Y2502701D02*
D03*
X1977460Y2486699D02*
D03*
Y2502701D02*
D03*
X1906340Y2486699D02*
D03*
Y2502701D02*
D03*
X1438980Y2486699D02*
D03*
Y2502701D02*
D03*
X1367860Y2486699D02*
D03*
Y2502701D02*
D03*
X1418660Y2329219D02*
D03*
Y2345221D02*
D03*
X-1604618Y271759D02*
D03*
Y287761D02*
D03*
X-1057094Y-599428D02*
D03*
Y-583426D02*
D03*
X-962600Y-619748D02*
D03*
Y-603746D02*
D03*
X-835600Y-612128D02*
D03*
Y-596126D02*
D03*
X-647640Y-634988D02*
D03*
Y-618986D02*
D03*
X-573980Y-652768D02*
D03*
Y-636766D02*
D03*
X-563820Y-721348D02*
D03*
Y-705346D02*
D03*
X-645100Y-723888D02*
D03*
Y-707886D02*
D03*
X-723840Y-723888D02*
D03*
Y-707886D02*
D03*
X-802580Y-723888D02*
D03*
Y-707886D02*
D03*
X-861000Y-723126D02*
D03*
Y-707124D02*
D03*
X-921960Y-731508D02*
D03*
Y-715506D02*
D03*
X-1000700Y-731508D02*
D03*
Y-715506D02*
D03*
X-1056000Y-676001D02*
D03*
Y-659999D02*
D03*
X-1105680Y-674365D02*
D03*
Y-658363D02*
D03*
X-1160280Y-665348D02*
D03*
Y-649346D02*
D03*
X-1216160Y-660268D02*
D03*
Y-644266D02*
D03*
X-1277120Y-659760D02*
D03*
Y-643758D02*
D03*
X-1327000Y-660268D02*
D03*
Y-644266D02*
D03*
X-1378000Y-659001D02*
D03*
Y-642999D02*
D03*
X-2147200Y-885161D02*
D03*
Y-869159D02*
D03*
X2988560Y1344899D02*
D03*
Y1360901D02*
D03*
X7578160Y1234479D02*
D03*
Y1250481D02*
D03*
X8236200Y1159479D02*
D03*
Y1175481D02*
D03*
X8126980Y1159479D02*
D03*
Y1175481D02*
D03*
X8010140Y1159479D02*
D03*
Y1175481D02*
D03*
X7893300Y1159479D02*
D03*
Y1175481D02*
D03*
X7834880Y1159479D02*
D03*
Y1175481D02*
D03*
X7616440Y1159479D02*
D03*
Y1175481D02*
D03*
X7558020Y1159479D02*
D03*
Y1175481D02*
D03*
X7499600Y1159479D02*
D03*
Y1175481D02*
D03*
X7382760Y1159479D02*
D03*
Y1175481D02*
D03*
X7324340Y1159479D02*
D03*
Y1175481D02*
D03*
X7207500Y1159479D02*
D03*
Y1175481D02*
D03*
X6963660Y1159479D02*
D03*
Y1175481D02*
D03*
X6834120Y1159479D02*
D03*
Y1175481D02*
D03*
X6775700Y1159479D02*
D03*
Y1175481D02*
D03*
X6651240Y1159479D02*
D03*
Y1175481D02*
D03*
X6529320Y1159479D02*
D03*
Y1175481D02*
D03*
X6310880Y1159479D02*
D03*
Y1175481D02*
D03*
X6196580Y1159479D02*
D03*
Y1175481D02*
D03*
X6138160Y1159479D02*
D03*
Y1175481D02*
D03*
X6079740Y1159479D02*
D03*
Y1175481D02*
D03*
X5879080Y1159479D02*
D03*
Y1175481D02*
D03*
X5711440Y1159479D02*
D03*
Y1175481D02*
D03*
X5653020Y1159479D02*
D03*
Y1175481D02*
D03*
X5523480Y1159479D02*
D03*
Y1175481D02*
D03*
X5465060Y1159479D02*
D03*
Y1175481D02*
D03*
X5406640Y1159479D02*
D03*
Y1175481D02*
D03*
X5348220Y1159479D02*
D03*
Y1175481D02*
D03*
X5218680Y1159479D02*
D03*
Y1175481D02*
D03*
X5160260Y1159479D02*
D03*
Y1175481D02*
D03*
X5030720Y1159479D02*
D03*
Y1175481D02*
D03*
X3511800Y1159479D02*
D03*
Y1175481D02*
D03*
X3453380Y1159479D02*
D03*
Y1175481D02*
D03*
X7296400Y961359D02*
D03*
Y977361D02*
D03*
X7085580Y961359D02*
D03*
Y977361D02*
D03*
X7027160Y961359D02*
D03*
Y977361D02*
D03*
X6841740Y961359D02*
D03*
Y977361D02*
D03*
X6783320Y961359D02*
D03*
Y977361D02*
D03*
X6658860Y961359D02*
D03*
Y977361D02*
D03*
X6534400Y961359D02*
D03*
Y977361D02*
D03*
X6468360Y961359D02*
D03*
Y977361D02*
D03*
X6122920Y961359D02*
D03*
Y977361D02*
D03*
X5962900Y961359D02*
D03*
Y977361D02*
D03*
X5891780Y961359D02*
D03*
Y977361D02*
D03*
X5693660Y961359D02*
D03*
Y977361D02*
D03*
X5622540Y961359D02*
D03*
Y977361D02*
D03*
X4931660Y961359D02*
D03*
Y977361D02*
D03*
X4860540Y961359D02*
D03*
Y977361D02*
D03*
X4789420Y961359D02*
D03*
Y977361D02*
D03*
X3948680Y961359D02*
D03*
Y977361D02*
D03*
X3880100Y961359D02*
D03*
Y977361D02*
D03*
X5310120Y763239D02*
D03*
Y779241D02*
D03*
X5236460Y763239D02*
D03*
Y779241D02*
D03*
X5162800Y763239D02*
D03*
Y779241D02*
D03*
X5089140Y763239D02*
D03*
Y779241D02*
D03*
X5015480Y763239D02*
D03*
Y779241D02*
D03*
X4941820Y763239D02*
D03*
Y779241D02*
D03*
X4873240Y763239D02*
D03*
Y779241D02*
D03*
X4802120Y763239D02*
D03*
Y779241D02*
D03*
X4301740Y763239D02*
D03*
Y779241D02*
D03*
X4228080Y763239D02*
D03*
Y779241D02*
D03*
X4154420Y763239D02*
D03*
Y779241D02*
D03*
X4080760Y763239D02*
D03*
Y779241D02*
D03*
X4012180Y763239D02*
D03*
Y779241D02*
D03*
X3938520Y763239D02*
D03*
Y779241D02*
D03*
X3864860Y763239D02*
D03*
Y779241D02*
D03*
X3791200Y763239D02*
D03*
Y779241D02*
D03*
X3600700Y763239D02*
D03*
Y779241D02*
D03*
X3527040Y763239D02*
D03*
Y779241D02*
D03*
X3397500Y763239D02*
D03*
Y779241D02*
D03*
X2316520Y838239D02*
D03*
Y854241D02*
D03*
X5000240Y585439D02*
D03*
Y601441D02*
D03*
X-1000000Y-1165000D02*
D03*
Y-1148998D02*
D03*
X4802120Y585439D02*
D03*
Y601441D02*
D03*
X-926000Y-1163000D02*
D03*
Y-1146998D02*
D03*
X-808000Y-1161001D02*
D03*
Y-1144999D02*
D03*
X3260340Y585439D02*
D03*
Y601441D02*
D03*
X2889500Y585439D02*
D03*
Y601441D02*
D03*
X2818380Y585439D02*
D03*
Y601441D02*
D03*
X2522260Y660439D02*
D03*
Y676441D02*
D03*
X2385100Y660439D02*
D03*
Y676441D02*
D03*
D18*
X452487Y1476139D02*
D03*
X447487D02*
D03*
X442487Y1476139D02*
D03*
X437487Y1476139D02*
D03*
X432487D02*
D03*
X427487Y1476139D02*
D03*
X422487Y1476139D02*
D03*
X417487D02*
D03*
X417487Y1427139D02*
D03*
X422487D02*
D03*
X427487D02*
D03*
X432487D02*
D03*
X437487D02*
D03*
X442487D02*
D03*
X447487D02*
D03*
X452487Y1427139D02*
D03*
D19*
X410487Y1469139D02*
D03*
Y1464139D02*
D03*
Y1459139D02*
D03*
X410487Y1454139D02*
D03*
Y1449139D02*
D03*
X410487Y1444139D02*
D03*
X410487Y1439139D02*
D03*
Y1434139D02*
D03*
X459487D02*
D03*
Y1439139D02*
D03*
Y1444139D02*
D03*
Y1449139D02*
D03*
Y1454139D02*
D03*
X459487Y1459139D02*
D03*
Y1464139D02*
D03*
Y1469139D02*
D03*
D20*
X434987Y1451639D02*
D03*
D21*
X774637Y1286605D02*
D03*
Y1294605D02*
D03*
Y1302605D02*
D03*
Y1334605D02*
D03*
Y1342605D02*
D03*
Y1350605D02*
D03*
X782637Y1286605D02*
D03*
Y1294605D02*
D03*
Y1302605D02*
D03*
Y1334605D02*
D03*
Y1342605D02*
D03*
Y1350605D02*
D03*
X790637Y1286605D02*
D03*
Y1294605D02*
D03*
Y1302605D02*
D03*
Y1334605D02*
D03*
Y1342605D02*
D03*
Y1350605D02*
D03*
X798637Y1286605D02*
D03*
Y1294605D02*
D03*
Y1302605D02*
D03*
Y1334605D02*
D03*
Y1342605D02*
D03*
Y1350605D02*
D03*
X806637Y1286605D02*
D03*
Y1294605D02*
D03*
Y1302605D02*
D03*
X806637Y1334605D02*
D03*
X806637Y1342605D02*
D03*
Y1350605D02*
D03*
X814637Y1286605D02*
D03*
Y1294605D02*
D03*
Y1302605D02*
D03*
Y1334605D02*
D03*
Y1342605D02*
D03*
Y1350605D02*
D03*
X822637Y1286605D02*
D03*
Y1294605D02*
D03*
Y1302605D02*
D03*
Y1334605D02*
D03*
Y1342605D02*
D03*
Y1350605D02*
D03*
X830637Y1286605D02*
D03*
Y1294605D02*
D03*
Y1302605D02*
D03*
Y1334605D02*
D03*
Y1342605D02*
D03*
Y1350605D02*
D03*
X838637Y1286605D02*
D03*
Y1294605D02*
D03*
Y1302605D02*
D03*
Y1334605D02*
D03*
Y1342605D02*
D03*
Y1350605D02*
D03*
X846637Y1286605D02*
D03*
Y1294605D02*
D03*
X846637Y1302605D02*
D03*
Y1334605D02*
D03*
X846637Y1342605D02*
D03*
Y1350605D02*
D03*
X854637Y1286605D02*
D03*
Y1294605D02*
D03*
Y1302605D02*
D03*
Y1334605D02*
D03*
Y1342605D02*
D03*
Y1350605D02*
D03*
X862637Y1286605D02*
D03*
Y1294605D02*
D03*
Y1302605D02*
D03*
Y1334605D02*
D03*
Y1342605D02*
D03*
Y1350605D02*
D03*
X870637Y1286605D02*
D03*
Y1294605D02*
D03*
Y1302605D02*
D03*
Y1334605D02*
D03*
Y1342605D02*
D03*
Y1350605D02*
D03*
X878637Y1286605D02*
D03*
X878637Y1294605D02*
D03*
Y1302605D02*
D03*
X878637Y1334605D02*
D03*
Y1342605D02*
D03*
X878637Y1350605D02*
D03*
X886637Y1286605D02*
D03*
Y1294605D02*
D03*
X886637Y1302605D02*
D03*
X886637Y1334605D02*
D03*
Y1342605D02*
D03*
Y1350605D02*
D03*
X894637Y1286605D02*
D03*
Y1294605D02*
D03*
Y1302605D02*
D03*
Y1334605D02*
D03*
Y1342605D02*
D03*
Y1350605D02*
D03*
X459000Y1367400D02*
D03*
Y1357400D02*
D03*
Y1337400D02*
D03*
Y1347400D02*
D03*
Y1327400D02*
D03*
Y1317400D02*
D03*
Y1297400D02*
D03*
Y1287400D02*
D03*
Y1277400D02*
D03*
Y1257400D02*
D03*
Y1267400D02*
D03*
Y1307400D02*
D03*
Y1247400D02*
D03*
Y1237400D02*
D03*
Y1227400D02*
D03*
Y1217400D02*
D03*
Y1197400D02*
D03*
Y1207400D02*
D03*
Y1187400D02*
D03*
Y1147400D02*
D03*
Y1137400D02*
D03*
Y1157400D02*
D03*
Y1167400D02*
D03*
Y1177400D02*
D03*
Y1127400D02*
D03*
Y1117400D02*
D03*
X469000Y1367400D02*
D03*
Y1357400D02*
D03*
Y1347400D02*
D03*
Y1337400D02*
D03*
Y1327400D02*
D03*
Y1317400D02*
D03*
Y1307400D02*
D03*
Y1297400D02*
D03*
Y1287400D02*
D03*
Y1277400D02*
D03*
Y1267400D02*
D03*
Y1257400D02*
D03*
Y1247400D02*
D03*
Y1237400D02*
D03*
Y1227400D02*
D03*
Y1217400D02*
D03*
Y1207400D02*
D03*
Y1197400D02*
D03*
Y1187400D02*
D03*
Y1177400D02*
D03*
Y1167400D02*
D03*
Y1157400D02*
D03*
Y1147400D02*
D03*
Y1137400D02*
D03*
Y1127400D02*
D03*
Y1117400D02*
D03*
X479000Y1367400D02*
D03*
Y1357400D02*
D03*
Y1347400D02*
D03*
Y1337400D02*
D03*
Y1327400D02*
D03*
Y1317400D02*
D03*
Y1307400D02*
D03*
Y1297400D02*
D03*
Y1287400D02*
D03*
Y1277400D02*
D03*
Y1267400D02*
D03*
Y1257400D02*
D03*
Y1247400D02*
D03*
Y1237400D02*
D03*
Y1227400D02*
D03*
Y1217400D02*
D03*
Y1207400D02*
D03*
Y1197400D02*
D03*
Y1187400D02*
D03*
Y1177400D02*
D03*
Y1167400D02*
D03*
Y1157400D02*
D03*
Y1147400D02*
D03*
Y1137400D02*
D03*
Y1127400D02*
D03*
Y1117400D02*
D03*
X489000Y1367400D02*
D03*
Y1357400D02*
D03*
Y1347400D02*
D03*
Y1337400D02*
D03*
Y1327400D02*
D03*
Y1317400D02*
D03*
Y1307400D02*
D03*
Y1297400D02*
D03*
Y1287400D02*
D03*
Y1277400D02*
D03*
Y1267400D02*
D03*
Y1257400D02*
D03*
Y1247400D02*
D03*
Y1237400D02*
D03*
Y1227400D02*
D03*
Y1217400D02*
D03*
Y1207400D02*
D03*
Y1197400D02*
D03*
Y1187400D02*
D03*
Y1177400D02*
D03*
Y1167400D02*
D03*
Y1157400D02*
D03*
Y1147400D02*
D03*
Y1137400D02*
D03*
Y1127400D02*
D03*
Y1117400D02*
D03*
X499000Y1367400D02*
D03*
Y1357400D02*
D03*
Y1347400D02*
D03*
Y1337400D02*
D03*
Y1327400D02*
D03*
Y1317400D02*
D03*
Y1307400D02*
D03*
Y1297400D02*
D03*
Y1287400D02*
D03*
Y1277400D02*
D03*
Y1267400D02*
D03*
Y1257400D02*
D03*
Y1247400D02*
D03*
Y1237400D02*
D03*
Y1227400D02*
D03*
Y1217400D02*
D03*
Y1207400D02*
D03*
Y1197400D02*
D03*
Y1187400D02*
D03*
Y1177400D02*
D03*
Y1167400D02*
D03*
Y1157400D02*
D03*
Y1147400D02*
D03*
Y1137400D02*
D03*
Y1127400D02*
D03*
Y1117400D02*
D03*
X509000Y1367400D02*
D03*
Y1357400D02*
D03*
Y1347400D02*
D03*
Y1337400D02*
D03*
Y1327400D02*
D03*
Y1317400D02*
D03*
Y1307400D02*
D03*
Y1297400D02*
D03*
Y1287400D02*
D03*
Y1277400D02*
D03*
Y1267400D02*
D03*
Y1257400D02*
D03*
Y1247400D02*
D03*
Y1237400D02*
D03*
Y1227400D02*
D03*
Y1217400D02*
D03*
Y1207400D02*
D03*
Y1197400D02*
D03*
Y1187400D02*
D03*
Y1177400D02*
D03*
Y1167400D02*
D03*
Y1157400D02*
D03*
Y1147400D02*
D03*
Y1137400D02*
D03*
Y1127400D02*
D03*
Y1117400D02*
D03*
X519000Y1367400D02*
D03*
Y1357400D02*
D03*
Y1347400D02*
D03*
Y1337400D02*
D03*
Y1327400D02*
D03*
Y1317400D02*
D03*
Y1307400D02*
D03*
Y1297400D02*
D03*
Y1287400D02*
D03*
Y1277400D02*
D03*
Y1267400D02*
D03*
Y1257400D02*
D03*
Y1247400D02*
D03*
Y1237400D02*
D03*
Y1227400D02*
D03*
Y1217400D02*
D03*
Y1207400D02*
D03*
Y1197400D02*
D03*
Y1187400D02*
D03*
Y1177400D02*
D03*
Y1167400D02*
D03*
Y1157400D02*
D03*
Y1147400D02*
D03*
Y1137400D02*
D03*
Y1127400D02*
D03*
Y1117400D02*
D03*
X529000Y1367400D02*
D03*
Y1357400D02*
D03*
Y1347400D02*
D03*
Y1337400D02*
D03*
Y1327400D02*
D03*
Y1317400D02*
D03*
Y1307400D02*
D03*
Y1297400D02*
D03*
Y1287400D02*
D03*
Y1277400D02*
D03*
Y1267400D02*
D03*
Y1257400D02*
D03*
Y1247400D02*
D03*
Y1237400D02*
D03*
Y1227400D02*
D03*
Y1217400D02*
D03*
Y1207400D02*
D03*
Y1197400D02*
D03*
Y1187400D02*
D03*
Y1177400D02*
D03*
Y1167400D02*
D03*
Y1157400D02*
D03*
Y1147400D02*
D03*
Y1137400D02*
D03*
Y1127400D02*
D03*
Y1117400D02*
D03*
X539000Y1367400D02*
D03*
Y1357400D02*
D03*
Y1347400D02*
D03*
Y1337400D02*
D03*
Y1327400D02*
D03*
Y1317400D02*
D03*
Y1307400D02*
D03*
Y1297400D02*
D03*
Y1287400D02*
D03*
Y1277400D02*
D03*
Y1267400D02*
D03*
Y1257400D02*
D03*
Y1247400D02*
D03*
Y1237400D02*
D03*
Y1227400D02*
D03*
Y1217400D02*
D03*
Y1207400D02*
D03*
Y1197400D02*
D03*
Y1187400D02*
D03*
Y1177400D02*
D03*
Y1167400D02*
D03*
Y1157400D02*
D03*
Y1147400D02*
D03*
Y1137400D02*
D03*
Y1127400D02*
D03*
Y1117400D02*
D03*
X549000Y1367400D02*
D03*
Y1357400D02*
D03*
Y1347400D02*
D03*
Y1337400D02*
D03*
Y1327400D02*
D03*
Y1317400D02*
D03*
Y1307400D02*
D03*
Y1297400D02*
D03*
Y1287400D02*
D03*
Y1277400D02*
D03*
Y1267400D02*
D03*
Y1257400D02*
D03*
Y1247400D02*
D03*
Y1237400D02*
D03*
Y1227400D02*
D03*
Y1217400D02*
D03*
Y1207400D02*
D03*
Y1197400D02*
D03*
Y1187400D02*
D03*
Y1177400D02*
D03*
Y1167400D02*
D03*
Y1157400D02*
D03*
Y1147400D02*
D03*
Y1137400D02*
D03*
Y1127400D02*
D03*
Y1117400D02*
D03*
X559000Y1367400D02*
D03*
Y1357400D02*
D03*
Y1347400D02*
D03*
Y1337400D02*
D03*
Y1327400D02*
D03*
Y1317400D02*
D03*
Y1307400D02*
D03*
Y1297400D02*
D03*
Y1287400D02*
D03*
Y1277400D02*
D03*
Y1267400D02*
D03*
Y1257400D02*
D03*
Y1247400D02*
D03*
Y1237400D02*
D03*
Y1227400D02*
D03*
Y1217400D02*
D03*
Y1207400D02*
D03*
Y1197400D02*
D03*
Y1187400D02*
D03*
Y1177400D02*
D03*
Y1167400D02*
D03*
Y1157400D02*
D03*
Y1147400D02*
D03*
Y1137400D02*
D03*
Y1127400D02*
D03*
Y1117400D02*
D03*
X569000Y1367400D02*
D03*
Y1357400D02*
D03*
Y1347400D02*
D03*
Y1337400D02*
D03*
Y1327400D02*
D03*
Y1317400D02*
D03*
Y1307400D02*
D03*
Y1297400D02*
D03*
Y1287400D02*
D03*
Y1277400D02*
D03*
Y1267400D02*
D03*
Y1257400D02*
D03*
Y1247400D02*
D03*
Y1237400D02*
D03*
Y1227400D02*
D03*
Y1217400D02*
D03*
Y1207400D02*
D03*
Y1197400D02*
D03*
Y1187400D02*
D03*
Y1177400D02*
D03*
Y1167400D02*
D03*
Y1157400D02*
D03*
Y1147400D02*
D03*
Y1137400D02*
D03*
Y1127400D02*
D03*
Y1117400D02*
D03*
X579000Y1367400D02*
D03*
Y1357400D02*
D03*
Y1347400D02*
D03*
Y1337400D02*
D03*
Y1327400D02*
D03*
Y1317400D02*
D03*
Y1307400D02*
D03*
Y1297400D02*
D03*
Y1287400D02*
D03*
Y1277400D02*
D03*
Y1267400D02*
D03*
Y1257400D02*
D03*
Y1247400D02*
D03*
Y1237400D02*
D03*
Y1227400D02*
D03*
Y1217400D02*
D03*
Y1207400D02*
D03*
Y1197400D02*
D03*
Y1187400D02*
D03*
Y1177400D02*
D03*
Y1167400D02*
D03*
Y1157400D02*
D03*
Y1147400D02*
D03*
Y1137400D02*
D03*
Y1127400D02*
D03*
Y1117400D02*
D03*
X589000Y1367400D02*
D03*
Y1357400D02*
D03*
Y1347400D02*
D03*
Y1337400D02*
D03*
Y1327400D02*
D03*
Y1317400D02*
D03*
Y1307400D02*
D03*
Y1297400D02*
D03*
Y1287400D02*
D03*
Y1277400D02*
D03*
Y1267400D02*
D03*
Y1257400D02*
D03*
Y1247400D02*
D03*
Y1237400D02*
D03*
Y1227400D02*
D03*
Y1217400D02*
D03*
Y1207400D02*
D03*
Y1197400D02*
D03*
Y1187400D02*
D03*
Y1177400D02*
D03*
Y1167400D02*
D03*
Y1157400D02*
D03*
Y1147400D02*
D03*
Y1137400D02*
D03*
Y1127400D02*
D03*
Y1117400D02*
D03*
X599000Y1367400D02*
D03*
Y1357400D02*
D03*
Y1347400D02*
D03*
Y1337400D02*
D03*
Y1327400D02*
D03*
Y1317400D02*
D03*
Y1307400D02*
D03*
Y1297400D02*
D03*
Y1287400D02*
D03*
Y1277400D02*
D03*
Y1267400D02*
D03*
Y1257400D02*
D03*
Y1247400D02*
D03*
Y1237400D02*
D03*
Y1227400D02*
D03*
Y1217400D02*
D03*
Y1207400D02*
D03*
Y1197400D02*
D03*
Y1187400D02*
D03*
Y1177400D02*
D03*
Y1167400D02*
D03*
Y1157400D02*
D03*
Y1147400D02*
D03*
Y1137400D02*
D03*
Y1127400D02*
D03*
Y1117400D02*
D03*
X609000Y1367400D02*
D03*
Y1357400D02*
D03*
Y1347400D02*
D03*
Y1337400D02*
D03*
Y1327400D02*
D03*
Y1317400D02*
D03*
Y1307400D02*
D03*
Y1297400D02*
D03*
Y1287400D02*
D03*
Y1277400D02*
D03*
Y1267400D02*
D03*
Y1257400D02*
D03*
Y1247400D02*
D03*
Y1237400D02*
D03*
Y1227400D02*
D03*
Y1217400D02*
D03*
Y1207400D02*
D03*
Y1197400D02*
D03*
Y1187400D02*
D03*
Y1177400D02*
D03*
Y1167400D02*
D03*
Y1157400D02*
D03*
Y1147400D02*
D03*
Y1137400D02*
D03*
Y1127400D02*
D03*
Y1117400D02*
D03*
X619000Y1367400D02*
D03*
Y1357400D02*
D03*
Y1347400D02*
D03*
Y1337400D02*
D03*
Y1327400D02*
D03*
Y1317400D02*
D03*
Y1307400D02*
D03*
Y1297400D02*
D03*
Y1287400D02*
D03*
Y1277400D02*
D03*
Y1267400D02*
D03*
Y1257400D02*
D03*
Y1247400D02*
D03*
Y1237400D02*
D03*
Y1227400D02*
D03*
Y1217400D02*
D03*
Y1207400D02*
D03*
Y1197400D02*
D03*
Y1187400D02*
D03*
Y1177400D02*
D03*
Y1167400D02*
D03*
Y1157400D02*
D03*
Y1147400D02*
D03*
Y1137400D02*
D03*
Y1127400D02*
D03*
Y1117400D02*
D03*
X629000Y1367400D02*
D03*
Y1357400D02*
D03*
Y1347400D02*
D03*
Y1337400D02*
D03*
Y1327400D02*
D03*
Y1317400D02*
D03*
Y1307400D02*
D03*
Y1297400D02*
D03*
Y1287400D02*
D03*
Y1277400D02*
D03*
Y1267400D02*
D03*
Y1257400D02*
D03*
Y1247400D02*
D03*
Y1237400D02*
D03*
Y1227400D02*
D03*
Y1217400D02*
D03*
Y1207400D02*
D03*
Y1197400D02*
D03*
Y1187400D02*
D03*
Y1177400D02*
D03*
Y1167400D02*
D03*
Y1157400D02*
D03*
Y1147400D02*
D03*
Y1137400D02*
D03*
Y1127400D02*
D03*
Y1117400D02*
D03*
X639000Y1367400D02*
D03*
Y1357400D02*
D03*
Y1347400D02*
D03*
Y1337400D02*
D03*
Y1327400D02*
D03*
Y1317400D02*
D03*
Y1307400D02*
D03*
Y1297400D02*
D03*
Y1287400D02*
D03*
Y1277400D02*
D03*
Y1267400D02*
D03*
Y1257400D02*
D03*
Y1247400D02*
D03*
Y1237400D02*
D03*
Y1227400D02*
D03*
Y1217400D02*
D03*
Y1207400D02*
D03*
Y1197400D02*
D03*
Y1187400D02*
D03*
Y1177400D02*
D03*
Y1167400D02*
D03*
Y1157400D02*
D03*
Y1147400D02*
D03*
Y1137400D02*
D03*
Y1127400D02*
D03*
Y1117400D02*
D03*
X649000Y1367400D02*
D03*
Y1357400D02*
D03*
Y1347400D02*
D03*
Y1337400D02*
D03*
Y1327400D02*
D03*
Y1317400D02*
D03*
Y1307400D02*
D03*
Y1297400D02*
D03*
Y1287400D02*
D03*
Y1277400D02*
D03*
Y1267400D02*
D03*
Y1257400D02*
D03*
Y1247400D02*
D03*
Y1237400D02*
D03*
Y1227400D02*
D03*
Y1217400D02*
D03*
Y1207400D02*
D03*
Y1197400D02*
D03*
Y1187400D02*
D03*
Y1177400D02*
D03*
Y1167400D02*
D03*
Y1157400D02*
D03*
Y1147400D02*
D03*
Y1137400D02*
D03*
Y1127400D02*
D03*
Y1117400D02*
D03*
X659000Y1367400D02*
D03*
Y1357400D02*
D03*
Y1347400D02*
D03*
Y1337400D02*
D03*
Y1327400D02*
D03*
Y1317400D02*
D03*
Y1307400D02*
D03*
Y1297400D02*
D03*
Y1287400D02*
D03*
Y1277400D02*
D03*
Y1267400D02*
D03*
Y1257400D02*
D03*
Y1247400D02*
D03*
Y1237400D02*
D03*
Y1227400D02*
D03*
Y1217400D02*
D03*
Y1207400D02*
D03*
Y1197400D02*
D03*
Y1187400D02*
D03*
Y1177400D02*
D03*
Y1167400D02*
D03*
Y1157400D02*
D03*
Y1147400D02*
D03*
Y1137400D02*
D03*
Y1127400D02*
D03*
Y1117400D02*
D03*
X669000Y1367400D02*
D03*
Y1357400D02*
D03*
Y1347400D02*
D03*
Y1337400D02*
D03*
Y1327400D02*
D03*
Y1317400D02*
D03*
Y1307400D02*
D03*
Y1297400D02*
D03*
Y1287400D02*
D03*
Y1277400D02*
D03*
Y1267400D02*
D03*
Y1257400D02*
D03*
Y1247400D02*
D03*
Y1237400D02*
D03*
Y1227400D02*
D03*
Y1217400D02*
D03*
Y1207400D02*
D03*
Y1197400D02*
D03*
Y1187400D02*
D03*
Y1177400D02*
D03*
Y1167400D02*
D03*
Y1157400D02*
D03*
Y1147400D02*
D03*
Y1137400D02*
D03*
Y1127400D02*
D03*
Y1117400D02*
D03*
X679000Y1367400D02*
D03*
Y1357400D02*
D03*
Y1347400D02*
D03*
Y1337400D02*
D03*
Y1327400D02*
D03*
Y1317400D02*
D03*
Y1307400D02*
D03*
Y1297400D02*
D03*
Y1287400D02*
D03*
Y1277400D02*
D03*
Y1267400D02*
D03*
Y1257400D02*
D03*
Y1247400D02*
D03*
Y1237400D02*
D03*
Y1227400D02*
D03*
Y1217400D02*
D03*
Y1207400D02*
D03*
Y1197400D02*
D03*
Y1187400D02*
D03*
Y1177400D02*
D03*
Y1167400D02*
D03*
Y1157400D02*
D03*
Y1147400D02*
D03*
Y1137400D02*
D03*
Y1127400D02*
D03*
Y1117400D02*
D03*
X689000Y1367400D02*
D03*
Y1357400D02*
D03*
Y1347400D02*
D03*
Y1337400D02*
D03*
Y1327400D02*
D03*
Y1317400D02*
D03*
Y1307400D02*
D03*
Y1297400D02*
D03*
Y1287400D02*
D03*
Y1277400D02*
D03*
Y1267400D02*
D03*
Y1257400D02*
D03*
Y1247400D02*
D03*
Y1237400D02*
D03*
Y1227400D02*
D03*
Y1217400D02*
D03*
Y1207400D02*
D03*
Y1197400D02*
D03*
Y1187400D02*
D03*
Y1177400D02*
D03*
Y1167400D02*
D03*
Y1157400D02*
D03*
Y1147400D02*
D03*
Y1137400D02*
D03*
Y1127400D02*
D03*
Y1117400D02*
D03*
X699000Y1367400D02*
D03*
Y1357400D02*
D03*
Y1347400D02*
D03*
Y1337400D02*
D03*
Y1327400D02*
D03*
Y1317400D02*
D03*
Y1307400D02*
D03*
Y1297400D02*
D03*
Y1287400D02*
D03*
Y1277400D02*
D03*
Y1267400D02*
D03*
Y1257400D02*
D03*
Y1247400D02*
D03*
Y1237400D02*
D03*
Y1227400D02*
D03*
Y1217400D02*
D03*
Y1207400D02*
D03*
Y1197400D02*
D03*
Y1187400D02*
D03*
Y1177400D02*
D03*
Y1167400D02*
D03*
Y1157400D02*
D03*
Y1147400D02*
D03*
Y1137400D02*
D03*
Y1127400D02*
D03*
Y1117400D02*
D03*
X709000Y1367400D02*
D03*
Y1357400D02*
D03*
Y1347400D02*
D03*
Y1337400D02*
D03*
Y1327400D02*
D03*
Y1317400D02*
D03*
Y1307400D02*
D03*
Y1297400D02*
D03*
Y1287400D02*
D03*
Y1277400D02*
D03*
Y1267400D02*
D03*
Y1257400D02*
D03*
Y1247400D02*
D03*
Y1237400D02*
D03*
Y1227400D02*
D03*
Y1217400D02*
D03*
Y1207400D02*
D03*
Y1197400D02*
D03*
Y1187400D02*
D03*
Y1177400D02*
D03*
Y1167400D02*
D03*
Y1157400D02*
D03*
Y1147400D02*
D03*
Y1137400D02*
D03*
Y1127400D02*
D03*
Y1117400D02*
D03*
D22*
X655610Y1396592D02*
D03*
X623610D02*
D03*
X744000Y1158400D02*
D03*
X776000D02*
D03*
Y1197400D02*
D03*
X744000D02*
D03*
X680540Y-598020D02*
D03*
X712540D02*
D03*
X617040D02*
D03*
X649040D02*
D03*
X551000D02*
D03*
X583000D02*
D03*
X609000Y-854000D02*
D03*
X641000D02*
D03*
X754000Y-863000D02*
D03*
X786000D02*
D03*
X972000Y-965000D02*
D03*
X1004000D02*
D03*
X888000Y-970000D02*
D03*
X920000D02*
D03*
X463000Y-989000D02*
D03*
X495000D02*
D03*
X375000Y-991000D02*
D03*
X407000D02*
D03*
X241580Y-683020D02*
D03*
X273580D02*
D03*
X175540D02*
D03*
X207540D02*
D03*
X657000Y-1112000D02*
D03*
X689000D02*
D03*
X555000Y-1109000D02*
D03*
X587000D02*
D03*
X1118000Y-1231000D02*
D03*
X1150000D02*
D03*
X1002000Y-1223000D02*
D03*
X1034000D02*
D03*
X8456240Y843700D02*
D03*
X8488240D02*
D03*
X8232720D02*
D03*
X8264720D02*
D03*
X8006660D02*
D03*
X8038660D02*
D03*
X7783140D02*
D03*
X7815140D02*
D03*
X7557080D02*
D03*
X7589080D02*
D03*
X7483420D02*
D03*
X7515420D02*
D03*
X8509760Y768700D02*
D03*
X8541760D02*
D03*
X7981440D02*
D03*
X8013440D02*
D03*
X7757920D02*
D03*
X7789920D02*
D03*
X7021320D02*
D03*
X7053320D02*
D03*
X6797800D02*
D03*
X6829800D02*
D03*
X6724140D02*
D03*
X6756140D02*
D03*
X6503160D02*
D03*
X6535160D02*
D03*
X6434580D02*
D03*
X6466580D02*
D03*
X6358380D02*
D03*
X6390380D02*
D03*
X6284720D02*
D03*
X6316720D02*
D03*
D23*
X238252Y1373886D02*
D03*
Y1361186D02*
D03*
Y1348486D02*
D03*
Y1424686D02*
D03*
Y1411986D02*
D03*
Y1399286D02*
D03*
Y1386586D02*
D03*
X149352Y1373886D02*
D03*
X149352Y1361186D02*
D03*
X149352Y1348486D02*
D03*
Y1335786D02*
D03*
X149352Y1424686D02*
D03*
X149352Y1411986D02*
D03*
Y1399286D02*
D03*
X149352Y1386586D02*
D03*
D24*
X238252Y1335786D02*
D03*
D26*
X3158000Y-818507D02*
D03*
Y-833493D02*
D03*
X2976000Y-814507D02*
D03*
Y-829493D02*
D03*
X2809000Y-808507D02*
D03*
Y-823493D02*
D03*
X2503000Y-792507D02*
D03*
Y-807493D02*
D03*
X3636080Y3416593D02*
D03*
Y3401607D02*
D03*
X3564960Y3416593D02*
D03*
Y3401607D02*
D03*
X3257620Y3416593D02*
D03*
Y3401607D02*
D03*
X3186500Y3416593D02*
D03*
Y3401607D02*
D03*
X2813120Y3416593D02*
D03*
Y3401607D02*
D03*
X2742000Y3416593D02*
D03*
Y3401607D02*
D03*
X2228920Y3416593D02*
D03*
Y3401607D02*
D03*
X2086680Y3416593D02*
D03*
Y3401607D02*
D03*
X3722440Y2502193D02*
D03*
Y2487207D02*
D03*
X3648780Y2502193D02*
D03*
Y2487207D02*
D03*
X2780100Y2502193D02*
D03*
Y2487207D02*
D03*
X2706440Y2502193D02*
D03*
Y2487207D02*
D03*
X2023180Y1869733D02*
D03*
Y1854747D02*
D03*
X1367860Y1869733D02*
D03*
Y1854747D02*
D03*
X-609720Y-840094D02*
D03*
Y-855080D02*
D03*
X-718940Y-837554D02*
D03*
Y-852540D02*
D03*
X-818000Y-835014D02*
D03*
Y-850000D02*
D03*
X-905122Y-827394D02*
D03*
Y-842380D02*
D03*
X-1094860Y-835014D02*
D03*
Y-850000D02*
D03*
X-1186300Y-827394D02*
D03*
Y-842380D02*
D03*
X-1259960Y-835014D02*
D03*
Y-850000D02*
D03*
X755637Y1341512D02*
D03*
Y1356498D02*
D03*
X8068560Y1174973D02*
D03*
Y1159987D02*
D03*
X7951720Y1174973D02*
D03*
Y1159987D02*
D03*
X7441180Y1174973D02*
D03*
Y1159987D02*
D03*
X7265920Y1174973D02*
D03*
Y1159987D02*
D03*
X6892540Y1174973D02*
D03*
Y1159987D02*
D03*
X6709660Y1174973D02*
D03*
Y1159987D02*
D03*
X6369300Y1174973D02*
D03*
Y1159987D02*
D03*
X6008620Y1174973D02*
D03*
Y1159987D02*
D03*
X5937500Y1174973D02*
D03*
Y1159987D02*
D03*
X5581900Y1174973D02*
D03*
Y1159987D02*
D03*
X5277100Y1174973D02*
D03*
Y1159987D02*
D03*
X5089140Y1174973D02*
D03*
Y1159987D02*
D03*
X4959600Y1174973D02*
D03*
Y1159987D02*
D03*
X4258560Y1174973D02*
D03*
Y1159987D02*
D03*
X3570220Y1174973D02*
D03*
Y1159987D02*
D03*
X3382260Y1174973D02*
D03*
Y1159987D02*
D03*
X3311140Y1174973D02*
D03*
Y1159987D02*
D03*
X3240020Y1174973D02*
D03*
Y1159987D02*
D03*
X3168900Y1174973D02*
D03*
Y1159987D02*
D03*
X2889500Y1174973D02*
D03*
Y1159987D02*
D03*
X2818380Y1174973D02*
D03*
Y1159987D02*
D03*
X2522260Y1249973D02*
D03*
Y1234987D02*
D03*
X2451140Y1249973D02*
D03*
Y1234987D02*
D03*
X7354820Y976853D02*
D03*
Y961867D02*
D03*
X6900160Y976853D02*
D03*
Y961867D02*
D03*
X6260080Y976853D02*
D03*
Y961867D02*
D03*
X5820660Y976853D02*
D03*
Y961867D02*
D03*
X5480300Y976853D02*
D03*
Y961867D02*
D03*
X5409180Y976853D02*
D03*
Y961867D02*
D03*
X5338060Y976853D02*
D03*
Y961867D02*
D03*
X5266940Y976853D02*
D03*
Y961867D02*
D03*
X4576060Y976853D02*
D03*
Y961867D02*
D03*
X4504940Y976853D02*
D03*
Y961867D02*
D03*
X4433820Y976853D02*
D03*
Y961867D02*
D03*
X4362700Y976853D02*
D03*
Y961867D02*
D03*
X4291580Y976853D02*
D03*
Y961867D02*
D03*
X4012180Y976853D02*
D03*
Y961867D02*
D03*
X3808980Y976853D02*
D03*
Y961867D02*
D03*
X3102860Y976853D02*
D03*
Y961867D02*
D03*
X6648700Y778733D02*
D03*
Y763747D02*
D03*
X6575040Y778733D02*
D03*
Y763747D02*
D03*
X5383780Y778733D02*
D03*
Y763747D02*
D03*
X3125720Y778733D02*
D03*
Y763747D02*
D03*
X2978400Y778733D02*
D03*
Y763747D02*
D03*
X4728460Y600933D02*
D03*
Y585947D02*
D03*
X-741000Y-1143507D02*
D03*
Y-1158493D02*
D03*
X-863000Y-1145507D02*
D03*
Y-1160493D02*
D03*
X3908040Y600933D02*
D03*
Y585947D02*
D03*
X3836920Y600933D02*
D03*
Y585947D02*
D03*
X3765800Y600933D02*
D03*
Y585947D02*
D03*
X2451140Y675933D02*
D03*
Y660947D02*
D03*
X2242860Y675933D02*
D03*
Y660947D02*
D03*
D27*
X2677000Y-833478D02*
D03*
Y-804522D02*
D03*
X2359000Y-811478D02*
D03*
Y-782522D02*
D03*
X2162880Y3415958D02*
D03*
Y3387002D02*
D03*
X2020640Y3415958D02*
D03*
Y3387002D02*
D03*
X3057140Y749142D02*
D03*
Y778098D02*
D03*
X2387640Y824142D02*
D03*
Y853098D02*
D03*
D30*
X3981580Y3331290D02*
D03*
Y3337790D02*
D03*
Y3344290D02*
D03*
Y3350790D02*
D03*
Y3357290D02*
D03*
Y3363790D02*
D03*
Y3370290D02*
D03*
Y3376790D02*
D03*
Y3383290D02*
D03*
Y3389790D02*
D03*
Y3396290D02*
D03*
Y3402790D02*
D03*
Y3409290D02*
D03*
Y3415790D02*
D03*
X3925580Y3331290D02*
D03*
Y3337790D02*
D03*
Y3344290D02*
D03*
Y3350790D02*
D03*
Y3357290D02*
D03*
Y3363790D02*
D03*
Y3370290D02*
D03*
Y3376790D02*
D03*
Y3383290D02*
D03*
Y3389790D02*
D03*
Y3396290D02*
D03*
Y3402790D02*
D03*
Y3409290D02*
D03*
Y3415790D02*
D03*
D31*
X3883760Y3377860D02*
D03*
X1554580D02*
D03*
D32*
X3855760D02*
D03*
X1526580D02*
D03*
D33*
X3869760Y3410360D02*
D03*
X1540580D02*
D03*
D34*
X3770700Y3416466D02*
D03*
Y3422054D02*
D03*
X1728540Y3416466D02*
D03*
Y3422054D02*
D03*
X1586300Y3416466D02*
D03*
Y3422054D02*
D03*
X1433900Y3416466D02*
D03*
Y3422054D02*
D03*
X1959680Y1869606D02*
D03*
Y1875194D02*
D03*
X1906340Y1869606D02*
D03*
Y1875194D02*
D03*
X1847920Y1869606D02*
D03*
Y1875194D02*
D03*
X1789500Y1869606D02*
D03*
Y1875194D02*
D03*
X1731080Y1869606D02*
D03*
Y1875194D02*
D03*
X1672660Y1869606D02*
D03*
Y1875194D02*
D03*
X1614240Y1869606D02*
D03*
Y1875194D02*
D03*
X4883400Y1174846D02*
D03*
Y1180434D02*
D03*
X4812280Y1174846D02*
D03*
Y1180434D02*
D03*
X4741160Y1174846D02*
D03*
Y1180434D02*
D03*
X4670040Y1174846D02*
D03*
Y1180434D02*
D03*
X4598920Y1174846D02*
D03*
Y1180434D02*
D03*
X4527800Y1174846D02*
D03*
Y1180434D02*
D03*
X4461760Y1174846D02*
D03*
Y1180434D02*
D03*
X4390640Y1174846D02*
D03*
Y1180434D02*
D03*
X4322060Y1174846D02*
D03*
Y1180434D02*
D03*
X4184900Y1174846D02*
D03*
Y1180434D02*
D03*
X4116320Y1174846D02*
D03*
Y1180434D02*
D03*
X4047740Y1174846D02*
D03*
Y1180434D02*
D03*
X3979160Y1174846D02*
D03*
Y1180434D02*
D03*
X3910580Y1174846D02*
D03*
Y1180434D02*
D03*
X3847080Y1174846D02*
D03*
Y1180434D02*
D03*
X3778500Y1174846D02*
D03*
Y1180434D02*
D03*
X3707380Y1174846D02*
D03*
Y1180434D02*
D03*
X3636260Y1174846D02*
D03*
Y1180434D02*
D03*
X3732780Y976726D02*
D03*
Y982314D02*
D03*
X3661660Y976726D02*
D03*
Y982314D02*
D03*
X3590540Y976726D02*
D03*
Y982314D02*
D03*
X3519420Y976726D02*
D03*
Y982314D02*
D03*
X3448300Y976726D02*
D03*
Y982314D02*
D03*
X3377180Y976726D02*
D03*
Y982314D02*
D03*
X3306060Y976726D02*
D03*
Y982314D02*
D03*
X3240020Y976726D02*
D03*
Y982314D02*
D03*
X3168900Y976726D02*
D03*
Y982314D02*
D03*
X3026660Y976726D02*
D03*
Y982314D02*
D03*
X2955540Y976726D02*
D03*
Y982314D02*
D03*
X2884420Y976726D02*
D03*
Y982314D02*
D03*
X2813300Y976726D02*
D03*
Y982314D02*
D03*
X2517180Y1051726D02*
D03*
Y1057314D02*
D03*
X2446060Y1051726D02*
D03*
Y1057314D02*
D03*
X2380020Y1051726D02*
D03*
Y1057314D02*
D03*
X2308900Y1051726D02*
D03*
Y1057314D02*
D03*
X2237780Y1051726D02*
D03*
Y1057314D02*
D03*
X7525000Y778606D02*
D03*
Y784194D02*
D03*
X7451340Y778606D02*
D03*
Y784194D02*
D03*
X7377680Y778606D02*
D03*
Y784194D02*
D03*
X7304020Y778606D02*
D03*
Y784194D02*
D03*
X7235440Y778606D02*
D03*
Y784194D02*
D03*
X7161780Y778606D02*
D03*
Y784194D02*
D03*
X7088120Y778606D02*
D03*
Y784194D02*
D03*
X2899660Y778606D02*
D03*
Y784194D02*
D03*
X2826000Y778606D02*
D03*
Y784194D02*
D03*
D35*
X3519240Y3364280D02*
D03*
Y3413280D02*
D03*
X3460820Y3364280D02*
D03*
Y3413280D02*
D03*
X3402400Y3364280D02*
D03*
Y3413280D02*
D03*
X3343980Y3364280D02*
D03*
Y3413280D02*
D03*
X5081520Y548620D02*
D03*
Y597620D02*
D03*
D36*
X3051880Y3368460D02*
D03*
X3135880D02*
D03*
X2899480D02*
D03*
X2983480D02*
D03*
X8319840Y805600D02*
D03*
X8403840D02*
D03*
X8096320D02*
D03*
X8180320D02*
D03*
X7870260D02*
D03*
X7954260D02*
D03*
X7646740D02*
D03*
X7730740D02*
D03*
X8373360Y730600D02*
D03*
X8457360D02*
D03*
X8223500D02*
D03*
X8307500D02*
D03*
X8071100D02*
D03*
X8155100D02*
D03*
X7845040D02*
D03*
X7929040D02*
D03*
X7621520D02*
D03*
X7705520D02*
D03*
X6884920D02*
D03*
X6968920D02*
D03*
D41*
X3194120Y2488990D02*
D03*
Y2505490D02*
D03*
X3138240Y2488990D02*
D03*
Y2505490D02*
D03*
X2195900Y2488990D02*
D03*
Y2505490D02*
D03*
X6224520Y765530D02*
D03*
Y782030D02*
D03*
X6166100Y765530D02*
D03*
Y782030D02*
D03*
X6107680Y765530D02*
D03*
Y782030D02*
D03*
X6049260Y765530D02*
D03*
Y782030D02*
D03*
X5990840Y765530D02*
D03*
Y782030D02*
D03*
X5932420Y765530D02*
D03*
Y782030D02*
D03*
X5874000Y765530D02*
D03*
Y782030D02*
D03*
X3732780Y765530D02*
D03*
Y782030D02*
D03*
X3674360Y765530D02*
D03*
Y782030D02*
D03*
D42*
X2677738Y2477936D02*
D03*
X2668340Y2501304D02*
D03*
X2658942Y2477936D02*
D03*
X2626938D02*
D03*
X2617540Y2501304D02*
D03*
X2608142Y2477936D02*
D03*
X1877638D02*
D03*
X1868240Y2501304D02*
D03*
X1858842Y2477936D02*
D03*
X1826838D02*
D03*
X1817440Y2501304D02*
D03*
X1808042Y2477936D02*
D03*
X4765798Y754476D02*
D03*
X4756400Y777844D02*
D03*
X4747002Y754476D02*
D03*
X4709918D02*
D03*
X4700520Y777844D02*
D03*
X4691122Y754476D02*
D03*
X4654038D02*
D03*
X4644640Y777844D02*
D03*
X4635242Y754476D02*
D03*
X4603238D02*
D03*
X4593840Y777844D02*
D03*
X4584442Y754476D02*
D03*
X4547358D02*
D03*
X4537960Y777844D02*
D03*
X4528562Y754476D02*
D03*
X4496558D02*
D03*
X4487160Y777844D02*
D03*
X4477762Y754476D02*
D03*
X4445758D02*
D03*
X4436360Y777844D02*
D03*
X4426962Y754476D02*
D03*
X4394958D02*
D03*
X4385560Y777844D02*
D03*
X4376162Y754476D02*
D03*
X3490718D02*
D03*
X3481320Y777844D02*
D03*
X3471922Y754476D02*
D03*
X3361178D02*
D03*
X3351780Y777844D02*
D03*
X3342382Y754476D02*
D03*
D44*
X2253690Y2502320D02*
D03*
X2270190D02*
D03*
X5820030Y778860D02*
D03*
X5836530D02*
D03*
D45*
X2174010Y1864180D02*
D03*
Y1859180D02*
D03*
Y1854180D02*
D03*
Y1849180D02*
D03*
Y1844180D02*
D03*
Y1839180D02*
D03*
Y1834180D02*
D03*
Y1829180D02*
D03*
Y1824180D02*
D03*
Y1819180D02*
D03*
Y1814180D02*
D03*
Y1809180D02*
D03*
Y1804180D02*
D03*
Y1799180D02*
D03*
Y1794180D02*
D03*
Y1789180D02*
D03*
X2263510D02*
D03*
Y1794180D02*
D03*
Y1799180D02*
D03*
Y1804180D02*
D03*
Y1809180D02*
D03*
Y1814180D02*
D03*
Y1819180D02*
D03*
Y1824180D02*
D03*
Y1829180D02*
D03*
Y1834180D02*
D03*
Y1839180D02*
D03*
Y1844180D02*
D03*
Y1849180D02*
D03*
Y1854180D02*
D03*
Y1859180D02*
D03*
Y1864180D02*
D03*
X7592610Y971300D02*
D03*
Y966300D02*
D03*
Y961300D02*
D03*
Y956300D02*
D03*
Y951300D02*
D03*
Y946300D02*
D03*
Y941300D02*
D03*
Y936300D02*
D03*
Y931300D02*
D03*
Y926300D02*
D03*
Y921300D02*
D03*
Y916300D02*
D03*
Y911300D02*
D03*
Y906300D02*
D03*
Y901300D02*
D03*
Y896300D02*
D03*
X7503110D02*
D03*
Y901300D02*
D03*
Y906300D02*
D03*
Y911300D02*
D03*
Y916300D02*
D03*
Y921300D02*
D03*
Y926300D02*
D03*
Y931300D02*
D03*
Y936300D02*
D03*
Y941300D02*
D03*
Y946300D02*
D03*
Y951300D02*
D03*
Y956300D02*
D03*
Y961300D02*
D03*
Y966300D02*
D03*
Y971300D02*
D03*
D46*
X2181260Y1781930D02*
D03*
X2186260D02*
D03*
X2191260D02*
D03*
X2196260D02*
D03*
X2201260D02*
D03*
X2206260D02*
D03*
X2211260D02*
D03*
X2216260D02*
D03*
X2221260D02*
D03*
X2226260D02*
D03*
X2231260D02*
D03*
X2236260D02*
D03*
X2241260D02*
D03*
X2246260D02*
D03*
X2251260D02*
D03*
X2256260D02*
D03*
Y1871430D02*
D03*
X2251260D02*
D03*
X2246260D02*
D03*
X2241260D02*
D03*
X2236260D02*
D03*
X2231260D02*
D03*
X2226260D02*
D03*
X2221260D02*
D03*
X2216260D02*
D03*
X2211260D02*
D03*
X2206260D02*
D03*
X2201260D02*
D03*
X2196260D02*
D03*
X2191260D02*
D03*
X2186260D02*
D03*
X2181260D02*
D03*
X7510360Y978550D02*
D03*
X7515360D02*
D03*
X7520360D02*
D03*
X7525360D02*
D03*
X7530360D02*
D03*
X7535360D02*
D03*
X7540360D02*
D03*
X7545360D02*
D03*
X7550360D02*
D03*
X7555360D02*
D03*
X7560360D02*
D03*
X7565360D02*
D03*
X7570360D02*
D03*
X7575360D02*
D03*
X7580360D02*
D03*
X7585360D02*
D03*
Y889050D02*
D03*
X7580360D02*
D03*
X7575360D02*
D03*
X7570360D02*
D03*
X7565360D02*
D03*
X7560360D02*
D03*
X7555360D02*
D03*
X7550360D02*
D03*
X7545360D02*
D03*
X7540360D02*
D03*
X7535360D02*
D03*
X7530360D02*
D03*
X7525360D02*
D03*
X7520360D02*
D03*
X7515360D02*
D03*
X7510360D02*
D03*
D47*
X2218760Y1826680D02*
D03*
X7547860Y933800D02*
D03*
D49*
X1559122Y1864780D02*
D03*
X1588078D02*
D03*
D50*
X1525340Y1815250D02*
D03*
Y1827950D02*
D03*
Y1840650D02*
D03*
Y1853350D02*
D03*
Y1866050D02*
D03*
Y1802550D02*
D03*
Y1789850D02*
D03*
Y1777150D02*
D03*
X1428820Y1815250D02*
D03*
Y1827950D02*
D03*
Y1840650D02*
D03*
Y1853350D02*
D03*
Y1866050D02*
D03*
Y1802550D02*
D03*
Y1789850D02*
D03*
Y1777150D02*
D03*
D52*
X1014222Y1494790D02*
D03*
X1001522Y1494790D02*
D03*
X988822Y1494790D02*
D03*
X1014222Y1557782D02*
D03*
X988822D02*
D03*
D56*
X7479910Y1244580D02*
D03*
Y1239580D02*
D03*
Y1234580D02*
D03*
Y1229580D02*
D03*
Y1224580D02*
D03*
Y1219580D02*
D03*
Y1214580D02*
D03*
Y1209580D02*
D03*
Y1204580D02*
D03*
Y1199580D02*
D03*
Y1194580D02*
D03*
Y1189580D02*
D03*
X7549410D02*
D03*
Y1194580D02*
D03*
Y1199580D02*
D03*
Y1204580D02*
D03*
Y1209580D02*
D03*
Y1214580D02*
D03*
Y1219580D02*
D03*
Y1224580D02*
D03*
Y1229580D02*
D03*
Y1234580D02*
D03*
Y1239580D02*
D03*
Y1244580D02*
D03*
D57*
X7487160Y1182330D02*
D03*
X7492160D02*
D03*
X7497160D02*
D03*
X7502160D02*
D03*
X7507160D02*
D03*
X7512160D02*
D03*
X7517160D02*
D03*
X7522160D02*
D03*
X7527160D02*
D03*
X7532160D02*
D03*
X7537160D02*
D03*
X7542160D02*
D03*
Y1251830D02*
D03*
X7537160D02*
D03*
X7532160D02*
D03*
X7527160D02*
D03*
X7522160D02*
D03*
X7517160D02*
D03*
X7512160D02*
D03*
X7507160D02*
D03*
X7502160D02*
D03*
X7497160D02*
D03*
X7492160D02*
D03*
X7487160D02*
D03*
D58*
X7514660Y1217080D02*
D03*
D59*
X8195560Y1178200D02*
D03*
Y1172000D02*
D03*
X7789160Y1178200D02*
D03*
Y1172000D02*
D03*
X6265160Y1178200D02*
D03*
Y1172000D02*
D03*
X5780020Y1178200D02*
D03*
Y1172000D02*
D03*
X6981440Y980080D02*
D03*
Y973880D02*
D03*
X6613140Y980080D02*
D03*
Y973880D02*
D03*
X5774940Y980080D02*
D03*
Y973880D02*
D03*
X5012940Y980080D02*
D03*
Y973880D02*
D03*
D60*
X7694770Y1172990D02*
D03*
X7688270D02*
D03*
X7681770D02*
D03*
X7675270D02*
D03*
X7694770Y1131490D02*
D03*
X7688270D02*
D03*
X7681770D02*
D03*
X7675270D02*
D03*
D61*
X7428300Y969160D02*
D03*
Y964160D02*
D03*
Y959160D02*
D03*
Y954160D02*
D03*
Y949160D02*
D03*
Y944160D02*
D03*
X7469300D02*
D03*
Y949160D02*
D03*
Y954160D02*
D03*
Y959160D02*
D03*
Y964160D02*
D03*
Y969160D02*
D03*
D62*
X7436300Y936160D02*
D03*
X7441300D02*
D03*
X7446300D02*
D03*
X7451300D02*
D03*
X7456300D02*
D03*
X7461300D02*
D03*
Y977160D02*
D03*
X7456300D02*
D03*
X7451300D02*
D03*
X7446300D02*
D03*
X7441300D02*
D03*
X7436300D02*
D03*
D63*
X7448800Y956660D02*
D03*
D64*
X5749540Y777209D02*
D03*
Y760191D02*
D03*
X5675880Y777209D02*
D03*
Y760191D02*
D03*
X5607300Y777209D02*
D03*
Y760191D02*
D03*
X5533640Y777209D02*
D03*
Y760191D02*
D03*
X5459980Y777209D02*
D03*
Y760191D02*
D03*
D65*
X5670800Y482290D02*
D03*
X5683500D02*
D03*
X5696200D02*
D03*
X5708900D02*
D03*
X5721600D02*
D03*
X5734300D02*
D03*
X5747000D02*
D03*
D67*
X5612380Y582110D02*
D03*
Y518410D02*
D03*
D68*
X5510840Y507300D02*
D03*
X5556440D02*
D03*
D69*
X5533640Y578300D02*
D03*
D70*
X5364790Y571660D02*
D03*
Y562660D02*
D03*
Y553660D02*
D03*
Y544660D02*
D03*
Y535660D02*
D03*
Y580660D02*
D03*
Y526660D02*
D03*
X5473290Y571660D02*
D03*
Y562660D02*
D03*
Y553660D02*
D03*
Y544660D02*
D03*
Y535660D02*
D03*
Y580660D02*
D03*
Y526660D02*
D03*
X3990650Y571660D02*
D03*
Y562660D02*
D03*
Y553660D02*
D03*
Y544660D02*
D03*
Y535660D02*
D03*
Y580660D02*
D03*
Y526660D02*
D03*
X4099150Y571660D02*
D03*
Y562660D02*
D03*
Y553660D02*
D03*
Y544660D02*
D03*
Y535660D02*
D03*
Y580660D02*
D03*
Y526660D02*
D03*
X3624890Y571660D02*
D03*
Y562660D02*
D03*
Y553660D02*
D03*
Y544660D02*
D03*
Y535660D02*
D03*
Y580660D02*
D03*
Y526660D02*
D03*
X3733390Y571660D02*
D03*
Y562660D02*
D03*
Y553660D02*
D03*
Y544660D02*
D03*
Y535660D02*
D03*
Y580660D02*
D03*
Y526660D02*
D03*
X3119430Y571660D02*
D03*
Y562660D02*
D03*
Y553660D02*
D03*
Y544660D02*
D03*
Y535660D02*
D03*
Y580660D02*
D03*
Y526660D02*
D03*
X3227930Y571660D02*
D03*
Y562660D02*
D03*
Y553660D02*
D03*
Y544660D02*
D03*
Y535660D02*
D03*
Y580660D02*
D03*
Y526660D02*
D03*
D71*
X5392040Y597410D02*
D03*
X5401040D02*
D03*
X5410040D02*
D03*
X5419040D02*
D03*
X5428040D02*
D03*
X5437040D02*
D03*
X5446040D02*
D03*
X5455040D02*
D03*
X5383040D02*
D03*
X5446040Y508910D02*
D03*
X5437040D02*
D03*
X5428040D02*
D03*
X5419040D02*
D03*
X5410040D02*
D03*
X5401040D02*
D03*
X5392040D02*
D03*
X5383040D02*
D03*
X5455040D02*
D03*
X4017900Y597410D02*
D03*
X4026900D02*
D03*
X4035900D02*
D03*
X4044900D02*
D03*
X4053900D02*
D03*
X4062900D02*
D03*
X4071900D02*
D03*
X4080900D02*
D03*
X4008900D02*
D03*
X4071900Y508910D02*
D03*
X4062900D02*
D03*
X4053900D02*
D03*
X4044900D02*
D03*
X4035900D02*
D03*
X4026900D02*
D03*
X4017900D02*
D03*
X4008900D02*
D03*
X4080900D02*
D03*
X3652140Y597410D02*
D03*
X3661140D02*
D03*
X3670140D02*
D03*
X3679140D02*
D03*
X3688140D02*
D03*
X3697140D02*
D03*
X3706140D02*
D03*
X3715140D02*
D03*
X3643140D02*
D03*
X3706140Y508910D02*
D03*
X3697140D02*
D03*
X3688140D02*
D03*
X3679140D02*
D03*
X3670140D02*
D03*
X3661140D02*
D03*
X3652140D02*
D03*
X3643140D02*
D03*
X3715140D02*
D03*
X3146680Y597410D02*
D03*
X3155680D02*
D03*
X3164680D02*
D03*
X3173680D02*
D03*
X3182680D02*
D03*
X3191680D02*
D03*
X3200680D02*
D03*
X3209680D02*
D03*
X3137680D02*
D03*
X3200680Y508910D02*
D03*
X3191680D02*
D03*
X3182680D02*
D03*
X3173680D02*
D03*
X3164680D02*
D03*
X3155680D02*
D03*
X3146680D02*
D03*
X3137680D02*
D03*
X3209680D02*
D03*
D72*
X5469540Y594160D02*
D03*
Y512160D02*
D03*
X5368540Y594160D02*
D03*
X4095400D02*
D03*
Y512160D02*
D03*
X3994400Y594160D02*
D03*
X3729640D02*
D03*
Y512160D02*
D03*
X3628640Y594160D02*
D03*
X3224180D02*
D03*
Y512160D02*
D03*
X3123180Y594160D02*
D03*
D73*
X5368540Y512160D02*
D03*
X3994400D02*
D03*
X3628640D02*
D03*
X3123180D02*
D03*
D74*
X5441540Y534760D02*
D03*
Y571460D02*
D03*
X4067400Y534760D02*
D03*
Y571460D02*
D03*
X3701640Y534760D02*
D03*
Y571460D02*
D03*
X3196180Y534760D02*
D03*
Y571460D02*
D03*
D75*
X5391540Y557660D02*
D03*
X4017400D02*
D03*
X3651640D02*
D03*
X3146180D02*
D03*
D76*
X5145020Y550580D02*
D03*
Y590580D02*
D03*
D78*
X-624000Y-1163000D02*
D03*
Y-1158000D02*
D03*
Y-1153000D02*
D03*
Y-1148000D02*
D03*
Y-1143000D02*
D03*
X-652000Y-1163000D02*
D03*
Y-1158000D02*
D03*
Y-1153000D02*
D03*
Y-1148000D02*
D03*
Y-1143000D02*
D03*
D89*
X1946402Y1597660D02*
X1948688Y1603248D01*
X1943100Y1602994D02*
X1946402Y1597660D01*
X1944624Y1619250D02*
X1946402Y1597660D01*
X1980692Y235966D02*
X1982978Y241554D01*
X1977390Y241300D02*
X1980692Y235966D01*
X1978914Y257556D02*
X1980692Y235966D01*
X5334Y125730D02*
X7620Y131318D01*
X2032Y131064D02*
X5334Y125730D01*
X3556Y147320D02*
X5334Y125730D01*
X18542Y1694942D02*
X20828Y1700530D01*
X15240Y1700276D02*
X18542Y1694942D01*
X16764Y1716532D02*
X18542Y1694942D01*
X-9140Y161677D02*
X-10410Y160408D01*
Y157869D01*
X-9140Y156599D01*
X-7871D01*
X-6601Y157869D01*
Y160408D01*
X-5332Y161677D01*
X-4062D01*
X-2792Y160408D01*
Y157869D01*
X-4062Y156599D01*
X-10410Y164217D02*
Y169295D01*
Y166756D01*
X-2792D01*
X-10410Y176912D02*
Y171834D01*
X-2792D01*
Y176912D01*
X-6601Y171834D02*
Y174373D01*
X-2792Y179452D02*
X-10410D01*
X-2792Y184530D01*
X-10410D01*
X-9140Y192148D02*
X-10410Y190878D01*
Y188339D01*
X-9140Y187069D01*
X-4062D01*
X-2792Y188339D01*
Y190878D01*
X-4062Y192148D01*
X-10410Y194687D02*
Y197226D01*
Y195956D01*
X-2792D01*
Y194687D01*
Y197226D01*
X-10410Y201035D02*
X-2792D01*
Y206113D01*
X1779Y158503D02*
Y153425D01*
X5588D01*
Y155964D01*
Y153425D01*
X9397D01*
X1779Y161043D02*
Y163582D01*
Y162312D01*
X9397D01*
Y161043D01*
Y163582D01*
X1779Y167390D02*
X9397D01*
Y171199D01*
X8127Y172469D01*
X3049D01*
X1779Y171199D01*
Y167390D01*
Y175008D02*
X8127D01*
X9397Y176278D01*
Y178817D01*
X8127Y180086D01*
X1779D01*
X3049Y187704D02*
X1779Y186434D01*
Y183895D01*
X3049Y182626D01*
X8127D01*
X9397Y183895D01*
Y186434D01*
X8127Y187704D01*
X1779Y190243D02*
Y192782D01*
Y191513D01*
X9397D01*
Y190243D01*
Y192782D01*
Y196591D02*
X4318D01*
X1779Y199130D01*
X4318Y201669D01*
X9397D01*
X5588D01*
Y196591D01*
X1779Y204209D02*
X9397D01*
Y209287D01*
X13968Y140729D02*
X21586D01*
X17777D01*
Y145808D01*
X13968D01*
X21586D01*
Y148347D02*
X16508D01*
X13968Y150886D01*
X16508Y153425D01*
X21586D01*
X17777D01*
Y148347D01*
X13968Y155964D02*
X21586D01*
Y161043D01*
X13968Y168660D02*
Y163582D01*
X17777D01*
Y166121D01*
Y163582D01*
X21586D01*
X17777Y171199D02*
Y176278D01*
X13968Y183895D02*
Y178817D01*
X21586D01*
Y183895D01*
X17777Y178817D02*
Y181356D01*
X13968Y186434D02*
Y191513D01*
Y188974D01*
X21586D01*
X15238Y199130D02*
X13968Y197861D01*
Y195322D01*
X15238Y194052D01*
X20316D01*
X21586Y195322D01*
Y197861D01*
X20316Y199130D01*
X13968Y201669D02*
X21586D01*
X17777D01*
Y206748D01*
X13968D01*
X21586D01*
X13968Y214365D02*
Y209287D01*
X21586D01*
Y214365D01*
X17777Y209287D02*
Y211826D01*
X13968Y216905D02*
X21586D01*
Y220713D01*
X20316Y221983D01*
X15238D01*
X13968Y220713D01*
Y216905D01*
X1966218Y271913D02*
X1964948Y270644D01*
Y268105D01*
X1966218Y266835D01*
X1967487D01*
X1968757Y268105D01*
Y270644D01*
X1970027Y271913D01*
X1971296D01*
X1972566Y270644D01*
Y268105D01*
X1971296Y266835D01*
X1964948Y274453D02*
Y279531D01*
Y276992D01*
X1972566D01*
X1964948Y287148D02*
Y282070D01*
X1972566D01*
Y287148D01*
X1968757Y282070D02*
Y284609D01*
X1972566Y289688D02*
X1964948D01*
X1972566Y294766D01*
X1964948D01*
X1966218Y302383D02*
X1964948Y301114D01*
Y298575D01*
X1966218Y297305D01*
X1971296D01*
X1972566Y298575D01*
Y301114D01*
X1971296Y302383D01*
X1964948Y304923D02*
Y307462D01*
Y306192D01*
X1972566D01*
Y304923D01*
Y307462D01*
X1964948Y311271D02*
X1972566D01*
Y316349D01*
X1977137Y268739D02*
Y263661D01*
X1980946D01*
Y266200D01*
Y263661D01*
X1984755D01*
X1977137Y271279D02*
Y273818D01*
Y272548D01*
X1984755D01*
Y271279D01*
Y273818D01*
X1977137Y277626D02*
X1984755D01*
Y281435D01*
X1983485Y282705D01*
X1978407D01*
X1977137Y281435D01*
Y277626D01*
Y285244D02*
X1983485D01*
X1984755Y286514D01*
Y289053D01*
X1983485Y290322D01*
X1977137D01*
X1978407Y297940D02*
X1977137Y296670D01*
Y294131D01*
X1978407Y292862D01*
X1983485D01*
X1984755Y294131D01*
Y296670D01*
X1983485Y297940D01*
X1977137Y300479D02*
Y303018D01*
Y301749D01*
X1984755D01*
Y300479D01*
Y303018D01*
Y306827D02*
X1979676D01*
X1977137Y309366D01*
X1979676Y311905D01*
X1984755D01*
X1980946D01*
Y306827D01*
X1977137Y314445D02*
X1984755D01*
Y319523D01*
X1989326Y250965D02*
X1996944D01*
X1993135D01*
Y256043D01*
X1989326D01*
X1996944D01*
Y258583D02*
X1991866D01*
X1989326Y261122D01*
X1991866Y263661D01*
X1996944D01*
X1993135D01*
Y258583D01*
X1989326Y266200D02*
X1996944D01*
Y271279D01*
X1989326Y278896D02*
Y273818D01*
X1993135D01*
Y276357D01*
Y273818D01*
X1996944D01*
X1993135Y281435D02*
Y286514D01*
X1989326Y294131D02*
Y289053D01*
X1996944D01*
Y294131D01*
X1993135Y289053D02*
Y291592D01*
X1989326Y296670D02*
Y301749D01*
Y299210D01*
X1996944D01*
X1990596Y309366D02*
X1989326Y308097D01*
Y305557D01*
X1990596Y304288D01*
X1995674D01*
X1996944Y305557D01*
Y308097D01*
X1995674Y309366D01*
X1989326Y311905D02*
X1996944D01*
X1993135D01*
Y316984D01*
X1989326D01*
X1996944D01*
X1989326Y324601D02*
Y319523D01*
X1996944D01*
Y324601D01*
X1993135Y319523D02*
Y322062D01*
X1989326Y327141D02*
X1996944D01*
Y330949D01*
X1995674Y332219D01*
X1990596D01*
X1989326Y330949D01*
Y327141D01*
X1931928Y1633607D02*
X1930658Y1632338D01*
Y1629799D01*
X1931928Y1628529D01*
X1933197D01*
X1934467Y1629799D01*
Y1632338D01*
X1935737Y1633607D01*
X1937006D01*
X1938276Y1632338D01*
Y1629799D01*
X1937006Y1628529D01*
X1930658Y1636147D02*
Y1641225D01*
Y1638686D01*
X1938276D01*
X1930658Y1648842D02*
Y1643764D01*
X1938276D01*
Y1648842D01*
X1934467Y1643764D02*
Y1646303D01*
X1938276Y1651382D02*
X1930658D01*
X1938276Y1656460D01*
X1930658D01*
X1931928Y1664077D02*
X1930658Y1662808D01*
Y1660269D01*
X1931928Y1658999D01*
X1937006D01*
X1938276Y1660269D01*
Y1662808D01*
X1937006Y1664077D01*
X1930658Y1666617D02*
Y1669156D01*
Y1667886D01*
X1938276D01*
Y1666617D01*
Y1669156D01*
X1930658Y1672965D02*
X1938276D01*
Y1678043D01*
X1942847Y1630433D02*
Y1625355D01*
X1946656D01*
Y1627894D01*
Y1625355D01*
X1950465D01*
X1942847Y1632973D02*
Y1635512D01*
Y1634242D01*
X1950465D01*
Y1632973D01*
Y1635512D01*
X1942847Y1639321D02*
X1950465D01*
Y1643129D01*
X1949195Y1644399D01*
X1944117D01*
X1942847Y1643129D01*
Y1639321D01*
Y1646938D02*
X1949195D01*
X1950465Y1648208D01*
Y1650747D01*
X1949195Y1652016D01*
X1942847D01*
X1944117Y1659634D02*
X1942847Y1658364D01*
Y1655825D01*
X1944117Y1654556D01*
X1949195D01*
X1950465Y1655825D01*
Y1658364D01*
X1949195Y1659634D01*
X1942847Y1662173D02*
Y1664712D01*
Y1663443D01*
X1950465D01*
Y1662173D01*
Y1664712D01*
Y1668521D02*
X1945386D01*
X1942847Y1671060D01*
X1945386Y1673599D01*
X1950465D01*
X1946656D01*
Y1668521D01*
X1942847Y1676139D02*
X1950465D01*
Y1681217D01*
X1955036Y1612659D02*
X1962654D01*
X1958845D01*
Y1617737D01*
X1955036D01*
X1962654D01*
Y1620277D02*
X1957576D01*
X1955036Y1622816D01*
X1957576Y1625355D01*
X1962654D01*
X1958845D01*
Y1620277D01*
X1955036Y1627894D02*
X1962654D01*
Y1632973D01*
X1955036Y1640590D02*
Y1635512D01*
X1958845D01*
Y1638051D01*
Y1635512D01*
X1962654D01*
X1958845Y1643129D02*
Y1648208D01*
X1955036Y1655825D02*
Y1650747D01*
X1962654D01*
Y1655825D01*
X1958845Y1650747D02*
Y1653286D01*
X1955036Y1658364D02*
Y1663443D01*
Y1660904D01*
X1962654D01*
X1956306Y1671060D02*
X1955036Y1669791D01*
Y1667251D01*
X1956306Y1665982D01*
X1961384D01*
X1962654Y1667251D01*
Y1669791D01*
X1961384Y1671060D01*
X1955036Y1673599D02*
X1962654D01*
X1958845D01*
Y1678678D01*
X1955036D01*
X1962654D01*
X1955036Y1686295D02*
Y1681217D01*
X1962654D01*
Y1686295D01*
X1958845Y1681217D02*
Y1683756D01*
X1955036Y1688835D02*
X1962654D01*
Y1692643D01*
X1961384Y1693913D01*
X1956306D01*
X1955036Y1692643D01*
Y1688835D01*
X4068Y1730889D02*
X2798Y1729620D01*
Y1727081D01*
X4068Y1725811D01*
X5337D01*
X6607Y1727081D01*
Y1729620D01*
X7876Y1730889D01*
X9146D01*
X10416Y1729620D01*
Y1727081D01*
X9146Y1725811D01*
X2798Y1733429D02*
Y1738507D01*
Y1735968D01*
X10416D01*
X2798Y1746124D02*
Y1741046D01*
X10416D01*
Y1746124D01*
X6607Y1741046D02*
Y1743585D01*
X10416Y1748664D02*
X2798D01*
X10416Y1753742D01*
X2798D01*
X4068Y1761360D02*
X2798Y1760090D01*
Y1757551D01*
X4068Y1756281D01*
X9146D01*
X10416Y1757551D01*
Y1760090D01*
X9146Y1761360D01*
X2798Y1763899D02*
Y1766438D01*
Y1765168D01*
X10416D01*
Y1763899D01*
Y1766438D01*
X2798Y1770247D02*
X10416D01*
Y1775325D01*
X14987Y1727715D02*
Y1722637D01*
X18796D01*
Y1725176D01*
Y1722637D01*
X22605D01*
X14987Y1730255D02*
Y1732794D01*
Y1731524D01*
X22605D01*
Y1730255D01*
Y1732794D01*
X14987Y1736602D02*
X22605D01*
Y1740411D01*
X21335Y1741681D01*
X16257D01*
X14987Y1740411D01*
Y1736602D01*
Y1744220D02*
X21335D01*
X22605Y1745490D01*
Y1748029D01*
X21335Y1749298D01*
X14987D01*
X16257Y1756916D02*
X14987Y1755646D01*
Y1753107D01*
X16257Y1751838D01*
X21335D01*
X22605Y1753107D01*
Y1755646D01*
X21335Y1756916D01*
X14987Y1759455D02*
Y1761994D01*
Y1760725D01*
X22605D01*
Y1759455D01*
Y1761994D01*
Y1765803D02*
X17526D01*
X14987Y1768342D01*
X17526Y1770881D01*
X22605D01*
X18796D01*
Y1765803D01*
X14987Y1773421D02*
X22605D01*
Y1778499D01*
X27176Y1709941D02*
X34794D01*
X30985D01*
Y1715020D01*
X27176D01*
X34794D01*
Y1717559D02*
X29715D01*
X27176Y1720098D01*
X29715Y1722637D01*
X34794D01*
X30985D01*
Y1717559D01*
X27176Y1725176D02*
X34794D01*
Y1730255D01*
X27176Y1737872D02*
Y1732794D01*
X30985D01*
Y1735333D01*
Y1732794D01*
X34794D01*
X30985Y1740411D02*
Y1745490D01*
X27176Y1753107D02*
Y1748029D01*
X34794D01*
Y1753107D01*
X30985Y1748029D02*
Y1750568D01*
X27176Y1755646D02*
Y1760725D01*
Y1758186D01*
X34794D01*
X28446Y1768342D02*
X27176Y1767073D01*
Y1764534D01*
X28446Y1763264D01*
X33524D01*
X34794Y1764534D01*
Y1767073D01*
X33524Y1768342D01*
X27176Y1770881D02*
X34794D01*
X30985D01*
Y1775960D01*
X27176D01*
X34794D01*
X27176Y1783577D02*
Y1778499D01*
X34794D01*
Y1783577D01*
X30985Y1778499D02*
Y1781038D01*
X27176Y1786116D02*
X34794D01*
Y1789925D01*
X33524Y1791195D01*
X28446D01*
X27176Y1789925D01*
Y1786116D01*
D138*
X4019620Y3386875D02*
D03*
Y3411005D02*
D03*
X1886020Y3386875D02*
D03*
Y3411005D02*
D03*
X2691200Y3115095D02*
D03*
Y3139225D02*
D03*
X2620080Y3115095D02*
D03*
Y3139225D02*
D03*
X2546420Y3115095D02*
D03*
Y3139225D02*
D03*
X2475300Y3115095D02*
D03*
Y3139225D02*
D03*
X2401640Y3115095D02*
D03*
Y3139225D02*
D03*
X2327980Y3115095D02*
D03*
Y3139225D02*
D03*
X2254320Y3115095D02*
D03*
Y3139225D02*
D03*
X2180660Y3115095D02*
D03*
Y3139225D02*
D03*
X2107000Y3115095D02*
D03*
Y3139225D02*
D03*
X2033340Y3115095D02*
D03*
Y3139225D02*
D03*
X1891100Y3115095D02*
D03*
Y3139225D02*
D03*
X1817440Y3115095D02*
D03*
Y3139225D02*
D03*
X1743780Y3115095D02*
D03*
Y3139225D02*
D03*
X1670120Y3115095D02*
D03*
Y3139225D02*
D03*
X1596460Y3115095D02*
D03*
Y3139225D02*
D03*
X1449140Y3115095D02*
D03*
Y3139225D02*
D03*
X1375480Y3115095D02*
D03*
Y3139225D02*
D03*
X6402320Y947136D02*
D03*
Y971266D02*
D03*
X5559040Y947136D02*
D03*
Y971266D02*
D03*
X4725920Y947136D02*
D03*
Y971266D02*
D03*
X4654800Y947136D02*
D03*
Y971266D02*
D03*
D139*
X3953580Y3373540D02*
D03*
D140*
X2762955Y3137320D02*
D03*
X2787085D02*
D03*
X1962855D02*
D03*
X1986985D02*
D03*
X89346Y1417166D02*
D03*
X65216Y1417166D02*
D03*
X8518775Y1167480D02*
D03*
X8542905D02*
D03*
X8452735D02*
D03*
X8476865D02*
D03*
X8386695D02*
D03*
X8410825D02*
D03*
X7147175D02*
D03*
X7171305D02*
D03*
X7081135D02*
D03*
X7105265D02*
D03*
X6593455D02*
D03*
X6617585D02*
D03*
X7238615Y969360D02*
D03*
X7262745D02*
D03*
X6722995D02*
D03*
X6747125D02*
D03*
X6336915D02*
D03*
X6361045D02*
D03*
X6199755D02*
D03*
X6223885D02*
D03*
D141*
X5722780Y555340D02*
D03*
Y526240D02*
D03*
Y584440D02*
D03*
X5695020D02*
D03*
Y526240D02*
D03*
Y555340D02*
D03*
D142*
X4332600Y586200D02*
D03*
Y570200D02*
D03*
X4316600D02*
D03*
Y586200D02*
D03*
X4251320D02*
D03*
Y570200D02*
D03*
X4235320D02*
D03*
Y586200D02*
D03*
X4170040D02*
D03*
Y570200D02*
D03*
X4154040D02*
D03*
Y586200D02*
D03*
X2991981Y586701D02*
D03*
Y569701D02*
D03*
X2974981D02*
D03*
Y586701D02*
D03*
D143*
X3427940Y585180D02*
D03*
Y577180D02*
D03*
D144*
X3348590Y555680D02*
D03*
X3360090D02*
D03*
D145*
X3408440Y589530D02*
D03*
Y579230D02*
D03*
X3392640Y589530D02*
D03*
Y579230D02*
D03*
D146*
X3417740Y552780D02*
D03*
X3428740D02*
D03*
X3417740Y536980D02*
D03*
X3428740D02*
D03*
X3393940D02*
D03*
X3382940D02*
D03*
X3393940Y552780D02*
D03*
X3382940D02*
D03*
D147*
X3336841Y598880D02*
D03*
X3437840D02*
D03*
Y516880D02*
D03*
D148*
X2125110Y-895855D02*
D03*
X2141610D02*
D03*
Y-880355D02*
D03*
X2125110D02*
D03*
D149*
X2667560Y3401480D02*
D03*
X2709760D02*
D03*
X2593900D02*
D03*
X2636100D02*
D03*
X2520240D02*
D03*
X2562440D02*
D03*
X2446580D02*
D03*
X2488780D02*
D03*
X2372920D02*
D03*
X2415120D02*
D03*
X2299260D02*
D03*
X2341460D02*
D03*
X2124000Y2487080D02*
D03*
X2166200D02*
D03*
X2050340D02*
D03*
X2092540D02*
D03*
X1732840D02*
D03*
X1775040D02*
D03*
X1659180D02*
D03*
X1701380D02*
D03*
X1585520D02*
D03*
X1627720D02*
D03*
X1511860D02*
D03*
X1554060D02*
D03*
X1801420Y2329600D02*
D03*
X1843620D02*
D03*
X1671880D02*
D03*
X1714080D02*
D03*
X1555040D02*
D03*
X1597240D02*
D03*
X-1332700Y131140D02*
D03*
X-1290500D02*
D03*
X-1459700D02*
D03*
X-1417500D02*
D03*
X-1533360D02*
D03*
X-1491160D02*
D03*
D150*
X3481440Y2504200D02*
D03*
Y2485200D02*
D03*
X3455440D02*
D03*
Y2494700D02*
D03*
Y2504200D02*
D03*
X3280780D02*
D03*
Y2485200D02*
D03*
X3254780D02*
D03*
Y2494700D02*
D03*
Y2504200D02*
D03*
D151*
X2394340Y2490350D02*
D03*
X2434340Y2422850D02*
D03*
Y2490350D02*
D03*
X2394340Y2422850D02*
D03*
X2313060Y2490350D02*
D03*
X2353060Y2422850D02*
D03*
Y2490350D02*
D03*
X2313060Y2422850D02*
D03*
X1479940Y2332870D02*
D03*
X1519940Y2265370D02*
D03*
Y2332870D02*
D03*
X1479940Y2265370D02*
D03*
D152*
X2088540Y1859700D02*
D03*
Y1808900D02*
D03*
Y1834300D02*
D03*
X2130540D02*
D03*
Y1808900D02*
D03*
Y1859700D02*
D03*
D153*
X1084326Y1526286D02*
D03*
X1097026D02*
D03*
X1109726D02*
D03*
X1122426D02*
D03*
X1071626D02*
D03*
X1058926D02*
D03*
X1046226D02*
D03*
X1033526Y1526286D02*
D03*
X1033526Y1435736D02*
D03*
X1046226Y1435736D02*
D03*
X1058926Y1435736D02*
D03*
X1071626Y1435736D02*
D03*
X1122426Y1435736D02*
D03*
X1109726D02*
D03*
X1097026D02*
D03*
X1084326Y1435736D02*
D03*
D154*
X-1059250Y203000D02*
D03*
Y193000D02*
D03*
X-1072750D02*
D03*
Y198000D02*
D03*
Y203000D02*
D03*
D155*
X700978Y1458666D02*
D03*
Y1498666D02*
D03*
Y1538666D02*
D03*
Y1578666D02*
D03*
X915478Y1578666D02*
D03*
X915478Y1538666D02*
D03*
Y1498666D02*
D03*
Y1458666D02*
D03*
D156*
X888228Y1417666D02*
D03*
X848228D02*
D03*
X808228D02*
D03*
X768228D02*
D03*
X728228D02*
D03*
Y1619666D02*
D03*
X768228D02*
D03*
X808228D02*
D03*
X848228D02*
D03*
X888228D02*
D03*
D157*
X4300600Y591200D02*
D03*
Y584700D02*
D03*
Y578200D02*
D03*
Y571700D02*
D03*
Y565200D02*
D03*
X4348600Y584700D02*
D03*
Y591200D02*
D03*
Y565200D02*
D03*
Y571700D02*
D03*
Y578200D02*
D03*
X4219320Y591200D02*
D03*
Y584700D02*
D03*
Y578200D02*
D03*
Y571700D02*
D03*
Y565200D02*
D03*
X4267320Y584700D02*
D03*
Y591200D02*
D03*
Y565200D02*
D03*
Y571700D02*
D03*
Y578200D02*
D03*
X4138040Y591200D02*
D03*
Y584700D02*
D03*
Y578200D02*
D03*
Y571700D02*
D03*
Y565200D02*
D03*
X4186040Y584700D02*
D03*
Y591200D02*
D03*
Y565200D02*
D03*
Y571700D02*
D03*
Y578200D02*
D03*
D158*
X4311600Y602200D02*
D03*
Y554200D02*
D03*
X4318100D02*
D03*
X4324600D02*
D03*
X4331100D02*
D03*
X4337600D02*
D03*
Y602200D02*
D03*
X4331100D02*
D03*
X4324600D02*
D03*
X4318100D02*
D03*
X4230320D02*
D03*
Y554200D02*
D03*
X4236820D02*
D03*
X4243320D02*
D03*
X4249820D02*
D03*
X4256320D02*
D03*
Y602200D02*
D03*
X4249820D02*
D03*
X4243320D02*
D03*
X4236820D02*
D03*
X4149040D02*
D03*
Y554200D02*
D03*
X4155540D02*
D03*
X4162040D02*
D03*
X4168540D02*
D03*
X4175040D02*
D03*
Y602200D02*
D03*
X4168540D02*
D03*
X4162040D02*
D03*
X4155540D02*
D03*
X2970481Y554200D02*
D03*
X2976981D02*
D03*
X2983481D02*
D03*
X2989981D02*
D03*
X2996481D02*
D03*
Y602200D02*
D03*
X2989981D02*
D03*
X2983481D02*
D03*
X2976981D02*
D03*
X2970481D02*
D03*
D159*
X3387340Y513630D02*
D03*
X3378340D02*
D03*
X3369340D02*
D03*
X3360340D02*
D03*
X3351340D02*
D03*
X3396340D02*
D03*
X3405340D02*
D03*
X3414340D02*
D03*
X3423340D02*
D03*
Y602130D02*
D03*
X3414340D02*
D03*
X3405340D02*
D03*
X3396340D02*
D03*
X3351340D02*
D03*
X3360340D02*
D03*
X3369340D02*
D03*
X3378340D02*
D03*
X3387340D02*
D03*
D160*
X3441590Y557880D02*
D03*
Y548880D02*
D03*
Y539880D02*
D03*
Y530880D02*
D03*
Y566880D02*
D03*
Y575880D02*
D03*
Y584880D02*
D03*
X3333090D02*
D03*
Y575880D02*
D03*
Y566880D02*
D03*
Y530880D02*
D03*
Y539880D02*
D03*
Y548880D02*
D03*
Y557880D02*
D03*
D161*
X3007480Y578201D02*
D03*
X2959480D02*
D03*
Y584701D02*
D03*
X3007480D02*
D03*
X2959480Y591201D02*
D03*
X3007480D02*
D03*
X2959480Y571701D02*
D03*
X3007480D02*
D03*
X2959480Y565201D02*
D03*
X3007480D02*
D03*
M02*
