G04*
G04 #@! TF.GenerationSoftware,Altium Limited,Altium Designer,22.11.1 (43)*
G04*
G04 Layer_Physical_Order=1*
G04 Layer_Color=255*
%FSLAX44Y44*%
%MOMM*%
G71*
G04*
G04 #@! TF.SameCoordinates,685F9FB9-B41E-4883-9AF5-229453B53175*
G04*
G04*
G04 #@! TF.FilePolarity,Positive*
G04*
G01*
G75*
%ADD10C,0.2540*%
%ADD11R,1.0160X0.7112*%
G04:AMPARAMS|DCode=12|XSize=0.508mm|YSize=0.508mm|CornerRadius=0.1524mm|HoleSize=0mm|Usage=FLASHONLY|Rotation=180.000|XOffset=0mm|YOffset=0mm|HoleType=Round|Shape=RoundedRectangle|*
%AMROUNDEDRECTD12*
21,1,0.5080,0.2032,0,0,180.0*
21,1,0.2032,0.5080,0,0,180.0*
1,1,0.3048,-0.1016,0.1016*
1,1,0.3048,0.1016,0.1016*
1,1,0.3048,0.1016,-0.1016*
1,1,0.3048,-0.1016,-0.1016*
%
%ADD12ROUNDEDRECTD12*%
%ADD13R,0.5500X0.3000*%
%ADD14R,0.5500X0.4000*%
G04:AMPARAMS|DCode=15|XSize=0.889mm|YSize=0.8636mm|CornerRadius=0.1511mm|HoleSize=0mm|Usage=FLASHONLY|Rotation=180.000|XOffset=0mm|YOffset=0mm|HoleType=Round|Shape=RoundedRectangle|*
%AMROUNDEDRECTD15*
21,1,0.8890,0.5613,0,0,180.0*
21,1,0.5867,0.8636,0,0,180.0*
1,1,0.3023,-0.2934,0.2807*
1,1,0.3023,0.2934,0.2807*
1,1,0.3023,0.2934,-0.2807*
1,1,0.3023,-0.2934,-0.2807*
%
%ADD15ROUNDEDRECTD15*%
G04:AMPARAMS|DCode=16|XSize=0.889mm|YSize=0.7874mm|CornerRadius=0.1535mm|HoleSize=0mm|Usage=FLASHONLY|Rotation=270.000|XOffset=0mm|YOffset=0mm|HoleType=Round|Shape=RoundedRectangle|*
%AMROUNDEDRECTD16*
21,1,0.8890,0.4803,0,0,270.0*
21,1,0.5819,0.7874,0,0,270.0*
1,1,0.3071,-0.2402,-0.2910*
1,1,0.3071,-0.2402,0.2910*
1,1,0.3071,0.2402,0.2910*
1,1,0.3071,0.2402,-0.2910*
%
%ADD16ROUNDEDRECTD16*%
G04:AMPARAMS|DCode=17|XSize=0.889mm|YSize=0.7874mm|CornerRadius=0.1535mm|HoleSize=0mm|Usage=FLASHONLY|Rotation=180.000|XOffset=0mm|YOffset=0mm|HoleType=Round|Shape=RoundedRectangle|*
%AMROUNDEDRECTD17*
21,1,0.8890,0.4803,0,0,180.0*
21,1,0.5819,0.7874,0,0,180.0*
1,1,0.3071,-0.2910,0.2402*
1,1,0.3071,0.2910,0.2402*
1,1,0.3071,0.2910,-0.2402*
1,1,0.3071,-0.2910,-0.2402*
%
%ADD17ROUNDEDRECTD17*%
%ADD18R,0.2500X0.8000*%
%ADD19R,0.8000X0.2500*%
G04:AMPARAMS|DCode=20|XSize=3.4mm|YSize=3.4mm|CornerRadius=0mm|HoleSize=0mm|Usage=FLASHONLY|Rotation=270.000|XOffset=0mm|YOffset=0mm|HoleType=Round|Shape=RoundedRectangle|*
%AMROUNDEDRECTD20*
21,1,3.4000,3.4000,0,0,270.0*
21,1,3.4000,3.4000,0,0,270.0*
1,1,0.0000,-1.7000,-1.7000*
1,1,0.0000,-1.7000,1.7000*
1,1,0.0000,1.7000,1.7000*
1,1,0.0000,1.7000,-1.7000*
%
%ADD20ROUNDEDRECTD20*%
%ADD21C,0.4500*%
G04:AMPARAMS|DCode=22|XSize=2.5mm|YSize=1.5mm|CornerRadius=0.3mm|HoleSize=0mm|Usage=FLASHONLY|Rotation=90.000|XOffset=0mm|YOffset=0mm|HoleType=Round|Shape=RoundedRectangle|*
%AMROUNDEDRECTD22*
21,1,2.5000,0.9000,0,0,90.0*
21,1,1.9000,1.5000,0,0,90.0*
1,1,0.6000,0.4500,0.9500*
1,1,0.6000,0.4500,-0.9500*
1,1,0.6000,-0.4500,-0.9500*
1,1,0.6000,-0.4500,0.9500*
%
%ADD22ROUNDEDRECTD22*%
%ADD23R,1.7018X0.7620*%
G04:AMPARAMS|DCode=24|XSize=1.7018mm|YSize=0.762mm|CornerRadius=0.1905mm|HoleSize=0mm|Usage=FLASHONLY|Rotation=180.000|XOffset=0mm|YOffset=0mm|HoleType=Round|Shape=RoundedRectangle|*
%AMROUNDEDRECTD24*
21,1,1.7018,0.3810,0,0,180.0*
21,1,1.3208,0.7620,0,0,180.0*
1,1,0.3810,-0.6604,0.1905*
1,1,0.3810,0.6604,0.1905*
1,1,0.3810,0.6604,-0.1905*
1,1,0.3810,-0.6604,-0.1905*
%
%ADD24ROUNDEDRECTD24*%
G04:AMPARAMS|DCode=25|XSize=0.65mm|YSize=0.85mm|CornerRadius=0.1625mm|HoleSize=0mm|Usage=FLASHONLY|Rotation=0.000|XOffset=0mm|YOffset=0mm|HoleType=Round|Shape=RoundedRectangle|*
%AMROUNDEDRECTD25*
21,1,0.6500,0.5250,0,0,0.0*
21,1,0.3250,0.8500,0,0,0.0*
1,1,0.3250,0.1625,-0.2625*
1,1,0.3250,-0.1625,-0.2625*
1,1,0.3250,-0.1625,0.2625*
1,1,0.3250,0.1625,0.2625*
%
%ADD25ROUNDEDRECTD25*%
G04:AMPARAMS|DCode=26|XSize=0.889mm|YSize=0.8636mm|CornerRadius=0.1511mm|HoleSize=0mm|Usage=FLASHONLY|Rotation=90.000|XOffset=0mm|YOffset=0mm|HoleType=Round|Shape=RoundedRectangle|*
%AMROUNDEDRECTD26*
21,1,0.8890,0.5613,0,0,90.0*
21,1,0.5867,0.8636,0,0,90.0*
1,1,0.3023,0.2807,0.2934*
1,1,0.3023,0.2807,-0.2934*
1,1,0.3023,-0.2807,-0.2934*
1,1,0.3023,-0.2807,0.2934*
%
%ADD26ROUNDEDRECTD26*%
G04:AMPARAMS|DCode=27|XSize=1.8034mm|YSize=1.1938mm|CornerRadius=0.203mm|HoleSize=0mm|Usage=FLASHONLY|Rotation=180.000|XOffset=0mm|YOffset=0mm|HoleType=Round|Shape=RoundedRectangle|*
%AMROUNDEDRECTD27*
21,1,1.8034,0.7879,0,0,180.0*
21,1,1.3975,1.1938,0,0,180.0*
1,1,0.4059,-0.6988,0.3940*
1,1,0.4059,0.6988,0.3940*
1,1,0.4059,0.6988,-0.3940*
1,1,0.4059,-0.6988,-0.3940*
%
%ADD27ROUNDEDRECTD27*%
%ADD28R,2.5300X4.5000*%
%ADD29R,3.4000X9.7000*%
%ADD30O,1.6000X0.3000*%
%ADD31R,1.2000X1.2000*%
G04:AMPARAMS|DCode=32|XSize=1.2mm|YSize=1.2mm|CornerRadius=0.3mm|HoleSize=0mm|Usage=FLASHONLY|Rotation=0.000|XOffset=0mm|YOffset=0mm|HoleType=Round|Shape=RoundedRectangle|*
%AMROUNDEDRECTD32*
21,1,1.2000,0.6000,0,0,0.0*
21,1,0.6000,1.2000,0,0,0.0*
1,1,0.6000,0.3000,-0.3000*
1,1,0.6000,-0.3000,-0.3000*
1,1,0.6000,-0.3000,0.3000*
1,1,0.6000,0.3000,0.3000*
%
%ADD32ROUNDEDRECTD32*%
%ADD33R,1.6000X1.5000*%
%ADD34R,0.4572X0.3048*%
G04:AMPARAMS|DCode=35|XSize=2.26mm|YSize=2.16mm|CornerRadius=0.54mm|HoleSize=0mm|Usage=FLASHONLY|Rotation=180.000|XOffset=0mm|YOffset=0mm|HoleType=Round|Shape=RoundedRectangle|*
%AMROUNDEDRECTD35*
21,1,2.2600,1.0800,0,0,180.0*
21,1,1.1800,2.1600,0,0,180.0*
1,1,1.0800,-0.5900,0.5400*
1,1,1.0800,0.5900,0.5400*
1,1,1.0800,0.5900,-0.5400*
1,1,1.0800,-0.5900,-0.5400*
%
%ADD35ROUNDEDRECTD35*%
G04:AMPARAMS|DCode=36|XSize=4.4mm|YSize=2.5mm|CornerRadius=0.625mm|HoleSize=0mm|Usage=FLASHONLY|Rotation=0.000|XOffset=0mm|YOffset=0mm|HoleType=Round|Shape=RoundedRectangle|*
%AMROUNDEDRECTD36*
21,1,4.4000,1.2500,0,0,0.0*
21,1,3.1500,2.5000,0,0,0.0*
1,1,1.2500,1.5750,-0.6250*
1,1,1.2500,-1.5750,-0.6250*
1,1,1.2500,-1.5750,0.6250*
1,1,1.2500,1.5750,0.6250*
%
%ADD36ROUNDEDRECTD36*%
G04:AMPARAMS|DCode=37|XSize=2.18mm|YSize=1.62mm|CornerRadius=0.405mm|HoleSize=0mm|Usage=FLASHONLY|Rotation=90.000|XOffset=0mm|YOffset=0mm|HoleType=Round|Shape=RoundedRectangle|*
%AMROUNDEDRECTD37*
21,1,2.1800,0.8100,0,0,90.0*
21,1,1.3700,1.6200,0,0,90.0*
1,1,0.8100,0.4050,0.6850*
1,1,0.8100,0.4050,-0.6850*
1,1,0.8100,-0.4050,-0.6850*
1,1,0.8100,-0.4050,0.6850*
%
%ADD37ROUNDEDRECTD37*%
%ADD38C,1.0000*%
%ADD39R,4.5000X2.5300*%
%ADD40R,1.0500X0.6000*%
G04:AMPARAMS|DCode=41|XSize=1mm|YSize=0.8mm|CornerRadius=0.2mm|HoleSize=0mm|Usage=FLASHONLY|Rotation=180.000|XOffset=0mm|YOffset=0mm|HoleType=Round|Shape=RoundedRectangle|*
%AMROUNDEDRECTD41*
21,1,1.0000,0.4000,0,0,180.0*
21,1,0.6000,0.8000,0,0,180.0*
1,1,0.4000,-0.3000,0.2000*
1,1,0.4000,0.3000,0.2000*
1,1,0.4000,0.3000,-0.2000*
1,1,0.4000,-0.3000,-0.2000*
%
%ADD41ROUNDEDRECTD41*%
%ADD42R,0.7112X1.0160*%
%ADD43R,1.4000X2.7500*%
G04:AMPARAMS|DCode=44|XSize=1mm|YSize=0.8mm|CornerRadius=0.2mm|HoleSize=0mm|Usage=FLASHONLY|Rotation=90.000|XOffset=0mm|YOffset=0mm|HoleType=Round|Shape=RoundedRectangle|*
%AMROUNDEDRECTD44*
21,1,1.0000,0.4000,0,0,90.0*
21,1,0.6000,0.8000,0,0,90.0*
1,1,0.4000,0.2000,0.3000*
1,1,0.4000,0.2000,-0.3000*
1,1,0.4000,-0.2000,-0.3000*
1,1,0.4000,-0.2000,0.3000*
%
%ADD44ROUNDEDRECTD44*%
%ADD45O,0.8000X0.2300*%
%ADD46O,0.2300X0.8000*%
%ADD47R,7.4000X7.4000*%
%ADD48R,1.9500X1.5500*%
G04:AMPARAMS|DCode=49|XSize=1.8034mm|YSize=1.1938mm|CornerRadius=0.203mm|HoleSize=0mm|Usage=FLASHONLY|Rotation=90.000|XOffset=0mm|YOffset=0mm|HoleType=Round|Shape=RoundedRectangle|*
%AMROUNDEDRECTD49*
21,1,1.8034,0.7879,0,0,90.0*
21,1,1.3975,1.1938,0,0,90.0*
1,1,0.4059,0.3940,0.6988*
1,1,0.4059,0.3940,-0.6988*
1,1,0.4059,-0.3940,-0.6988*
1,1,0.4059,-0.3940,0.6988*
%
%ADD49ROUNDEDRECTD49*%
%ADD50R,1.3970X0.6350*%
%ADD51R,0.5590X2.2990*%
%ADD52R,0.8000X1.2000*%
G04:AMPARAMS|DCode=53|XSize=0.3mm|YSize=0.45mm|CornerRadius=0.075mm|HoleSize=0mm|Usage=FLASHONLY|Rotation=90.000|XOffset=0mm|YOffset=0mm|HoleType=Round|Shape=RoundedRectangle|*
%AMROUNDEDRECTD53*
21,1,0.3000,0.3000,0,0,90.0*
21,1,0.1500,0.4500,0,0,90.0*
1,1,0.1500,0.1500,0.0750*
1,1,0.1500,0.1500,-0.0750*
1,1,0.1500,-0.1500,-0.0750*
1,1,0.1500,-0.1500,0.0750*
%
%ADD53ROUNDEDRECTD53*%
%ADD54R,2.8000X2.3000*%
%ADD55R,2.3000X2.8000*%
%ADD56O,0.8500X0.2800*%
%ADD57O,0.2800X0.8500*%
%ADD58R,5.6000X5.6000*%
%ADD59R,0.4200X0.5000*%
%ADD60O,0.4000X1.8000*%
%ADD61O,0.8000X0.2000*%
%ADD62O,0.2000X0.8000*%
%ADD63R,2.1000X2.1000*%
G04:AMPARAMS|DCode=64|XSize=1.397mm|YSize=1.0922mm|CornerRadius=0.2021mm|HoleSize=0mm|Usage=FLASHONLY|Rotation=180.000|XOffset=0mm|YOffset=0mm|HoleType=Round|Shape=RoundedRectangle|*
%AMROUNDEDRECTD64*
21,1,1.3970,0.6881,0,0,180.0*
21,1,0.9929,1.0922,0,0,180.0*
1,1,0.4041,-0.4964,0.3440*
1,1,0.4041,0.4964,0.3440*
1,1,0.4041,0.4964,-0.3440*
1,1,0.4041,-0.4964,-0.3440*
%
%ADD64ROUNDEDRECTD64*%
G04:AMPARAMS|DCode=65|XSize=3.06mm|YSize=0.89mm|CornerRadius=0.2225mm|HoleSize=0mm|Usage=FLASHONLY|Rotation=90.000|XOffset=0mm|YOffset=0mm|HoleType=Round|Shape=RoundedRectangle|*
%AMROUNDEDRECTD65*
21,1,3.0600,0.4450,0,0,90.0*
21,1,2.6150,0.8900,0,0,90.0*
1,1,0.4450,0.2225,1.3075*
1,1,0.4450,0.2225,-1.3075*
1,1,0.4450,-0.2225,-1.3075*
1,1,0.4450,-0.2225,1.3075*
%
%ADD65ROUNDEDRECTD65*%
%ADD66R,5.3500X8.5400*%
%ADD67R,3.8100X4.2418*%
%ADD68R,0.9500X2.0000*%
%ADD69R,5.1500X6.0000*%
%ADD70R,0.9500X0.6000*%
%ADD71R,0.6000X0.9500*%
%ADD72R,1.7000X1.6000*%
G04:AMPARAMS|DCode=73|XSize=1.6mm|YSize=1.7mm|CornerRadius=0.4mm|HoleSize=0mm|Usage=FLASHONLY|Rotation=270.000|XOffset=0mm|YOffset=0mm|HoleType=Round|Shape=RoundedRectangle|*
%AMROUNDEDRECTD73*
21,1,1.6000,0.9000,0,0,270.0*
21,1,0.8000,1.7000,0,0,270.0*
1,1,0.8000,-0.4500,-0.4000*
1,1,0.8000,-0.4500,0.4000*
1,1,0.8000,0.4500,0.4000*
1,1,0.8000,0.4500,-0.4000*
%
%ADD73ROUNDEDRECTD73*%
%ADD74R,3.1000X2.3500*%
%ADD75R,2.8000X2.8000*%
%ADD76R,1.7000X2.5000*%
G04:AMPARAMS|DCode=77|XSize=2.4mm|YSize=1.65mm|CornerRadius=0.0413mm|HoleSize=0mm|Usage=FLASHONLY|Rotation=90.000|XOffset=0mm|YOffset=0mm|HoleType=Round|Shape=RoundedRectangle|*
%AMROUNDEDRECTD77*
21,1,2.4000,1.5675,0,0,90.0*
21,1,2.3175,1.6500,0,0,90.0*
1,1,0.0825,0.7838,1.1588*
1,1,0.0825,0.7838,-1.1588*
1,1,0.0825,-0.7838,-1.1588*
1,1,0.0825,-0.7838,1.1588*
%
%ADD77ROUNDEDRECTD77*%
G04:AMPARAMS|DCode=78|XSize=0.24mm|YSize=0.6mm|CornerRadius=0.0492mm|HoleSize=0mm|Usage=FLASHONLY|Rotation=90.000|XOffset=0mm|YOffset=0mm|HoleType=Round|Shape=RoundedRectangle|*
%AMROUNDEDRECTD78*
21,1,0.2400,0.5016,0,0,90.0*
21,1,0.1416,0.6000,0,0,90.0*
1,1,0.0984,0.2508,0.0708*
1,1,0.0984,0.2508,-0.0708*
1,1,0.0984,-0.2508,-0.0708*
1,1,0.0984,-0.2508,0.0708*
%
%ADD78ROUNDEDRECTD78*%
G04:AMPARAMS|DCode=79|XSize=3.15mm|YSize=3.15mm|CornerRadius=0.1575mm|HoleSize=0mm|Usage=FLASHONLY|Rotation=0.000|XOffset=0mm|YOffset=0mm|HoleType=Round|Shape=RoundedRectangle|*
%AMROUNDEDRECTD79*
21,1,3.1500,2.8350,0,0,0.0*
21,1,2.8350,3.1500,0,0,0.0*
1,1,0.3150,1.4175,-1.4175*
1,1,0.3150,-1.4175,-1.4175*
1,1,0.3150,-1.4175,1.4175*
1,1,0.3150,1.4175,1.4175*
%
%ADD79ROUNDEDRECTD79*%
G04:AMPARAMS|DCode=80|XSize=0.35mm|YSize=1mm|CornerRadius=0.0875mm|HoleSize=0mm|Usage=FLASHONLY|Rotation=90.000|XOffset=0mm|YOffset=0mm|HoleType=Round|Shape=RoundedRectangle|*
%AMROUNDEDRECTD80*
21,1,0.3500,0.8250,0,0,90.0*
21,1,0.1750,1.0000,0,0,90.0*
1,1,0.1750,0.4125,0.0875*
1,1,0.1750,0.4125,-0.0875*
1,1,0.1750,-0.4125,-0.0875*
1,1,0.1750,-0.4125,0.0875*
%
%ADD80ROUNDEDRECTD80*%
G04:AMPARAMS|DCode=81|XSize=0.35mm|YSize=1mm|CornerRadius=0.0875mm|HoleSize=0mm|Usage=FLASHONLY|Rotation=0.000|XOffset=0mm|YOffset=0mm|HoleType=Round|Shape=RoundedRectangle|*
%AMROUNDEDRECTD81*
21,1,0.3500,0.8250,0,0,0.0*
21,1,0.1750,1.0000,0,0,0.0*
1,1,0.1750,0.0875,-0.4125*
1,1,0.1750,-0.0875,-0.4125*
1,1,0.1750,-0.0875,0.4125*
1,1,0.1750,0.0875,0.4125*
%
%ADD81ROUNDEDRECTD81*%
%ADD82R,2.2500X1.1000*%
%ADD83R,1.2400X1.4000*%
%ADD84R,3.0500X2.0400*%
%ADD85R,2.2000X3.1000*%
%ADD86R,1.7000X1.6000*%
%ADD87R,3.1500X3.1500*%
G04:AMPARAMS|DCode=88|XSize=0.95mm|YSize=0.3mm|CornerRadius=0.075mm|HoleSize=0mm|Usage=FLASHONLY|Rotation=0.000|XOffset=0mm|YOffset=0mm|HoleType=Round|Shape=RoundedRectangle|*
%AMROUNDEDRECTD88*
21,1,0.9500,0.1500,0,0,0.0*
21,1,0.8000,0.3000,0,0,0.0*
1,1,0.1500,0.4000,-0.0750*
1,1,0.1500,-0.4000,-0.0750*
1,1,0.1500,-0.4000,0.0750*
1,1,0.1500,0.4000,0.0750*
%
%ADD88ROUNDEDRECTD88*%
%ADD89C,0.1270*%
%ADD90C,0.3810*%
%ADD91C,0.3302*%
%ADD92C,0.0895*%
%ADD93C,0.1218*%
%ADD94C,0.1778*%
%ADD95C,0.2794*%
%ADD96C,0.7620*%
%ADD97R,2.2500X2.3000*%
%ADD98C,3.3020*%
%ADD99C,0.6000*%
%ADD100C,3.8100*%
G04:AMPARAMS|DCode=101|XSize=1.524mm|YSize=1.524mm|CornerRadius=0mm|HoleSize=0mm|Usage=FLASHONLY|Rotation=270.000|XOffset=0mm|YOffset=0mm|HoleType=Round|Shape=Octagon|*
%AMOCTAGOND101*
4,1,8,-0.3810,-0.7620,0.3810,-0.7620,0.7620,-0.3810,0.7620,0.3810,0.3810,0.7620,-0.3810,0.7620,-0.7620,0.3810,-0.7620,-0.3810,-0.3810,-0.7620,0.0*
%
%ADD101OCTAGOND101*%

%ADD102C,1.5240*%
%ADD103C,1.9050*%
%ADD104R,1.9050X1.9050*%
%ADD105C,3.5000*%
%ADD106C,3.0000*%
%ADD107C,1.6000*%
%ADD108C,2.2000*%
%ADD109R,3.0000X3.0000*%
%ADD110C,0.2700*%
%ADD111C,0.3302*%
%ADD112C,0.2032*%
%ADD113C,0.2400*%
%ADD114C,0.2540*%
%ADD115C,0.5000*%
%ADD116C,0.5080*%
%ADD117C,0.5588*%
G36*
X-795833Y1666667D02*
X-797917D01*
Y1668750D01*
X-795833D01*
Y1666667D01*
D02*
G37*
G36*
X-797917Y1662500D02*
X-802083D01*
Y1664583D01*
X-800000D01*
Y1666667D01*
X-797917D01*
Y1662500D01*
D02*
G37*
G36*
X-802083Y1658333D02*
X-800000D01*
Y1656250D01*
X-802083D01*
Y1658333D01*
X-804167D01*
Y1660417D01*
X-806250D01*
Y1662500D01*
X-802083D01*
Y1658333D01*
D02*
G37*
G36*
X-672917Y1679167D02*
X-670833D01*
Y1672917D01*
X-677083D01*
Y1670833D01*
X-679167D01*
Y1666667D01*
X-681250D01*
Y1662500D01*
X-679167D01*
Y1658333D01*
X-677083D01*
Y1656250D01*
X-675000D01*
Y1652083D01*
X-672917D01*
Y1645833D01*
X-670833D01*
Y1633333D01*
X-668750D01*
Y1627083D01*
X-666667D01*
Y1622917D01*
X-664583D01*
Y1618750D01*
X-662500D01*
Y1616667D01*
X-660417D01*
Y1614583D01*
X-658333D01*
Y1612500D01*
X-656250D01*
Y1610417D01*
X-654167D01*
Y1608333D01*
X-652083D01*
Y1606250D01*
X-647917D01*
Y1604167D01*
X-645833D01*
Y1602083D01*
X-643750D01*
Y1600000D01*
X-639583D01*
Y1602083D01*
X-635417D01*
Y1604167D01*
X-629167D01*
Y1606250D01*
X-627083D01*
Y1608333D01*
X-625000D01*
Y1610417D01*
X-622917D01*
Y1612500D01*
X-618750D01*
Y1614583D01*
X-616667D01*
Y1616667D01*
X-614583D01*
Y1618750D01*
X-612500D01*
Y1620833D01*
X-608333D01*
Y1622917D01*
X-606250D01*
Y1625000D01*
X-604167D01*
Y1627083D01*
X-602083D01*
Y1631250D01*
X-600000D01*
Y1633333D01*
X-597917D01*
Y1635417D01*
X-595833D01*
Y1637500D01*
X-593750D01*
Y1641667D01*
X-591667D01*
Y1643750D01*
X-593750D01*
Y1647917D01*
X-595833D01*
Y1650000D01*
X-597917D01*
Y1652083D01*
X-604167D01*
Y1664583D01*
X-602083D01*
Y1660417D01*
X-600000D01*
Y1658333D01*
X-602083D01*
Y1654167D01*
X-595833D01*
Y1652083D01*
X-591667D01*
Y1654167D01*
X-589583D01*
Y1656250D01*
X-591667D01*
Y1658333D01*
X-589583D01*
Y1662500D01*
X-591667D01*
Y1664583D01*
X-593750D01*
Y1668750D01*
X-591667D01*
Y1666667D01*
X-589583D01*
Y1664583D01*
X-587500D01*
Y1662500D01*
X-585417D01*
Y1660417D01*
X-587500D01*
Y1650000D01*
X-591667D01*
Y1645833D01*
X-589583D01*
Y1647917D01*
X-585417D01*
Y1645833D01*
X-583333D01*
Y1643750D01*
X-579167D01*
Y1641667D01*
X-577083D01*
Y1637500D01*
X-575000D01*
Y1631250D01*
X-577083D01*
Y1629167D01*
X-579167D01*
Y1627083D01*
X-583333D01*
Y1625000D01*
X-585417D01*
Y1622917D01*
X-587500D01*
Y1620833D01*
X-589583D01*
Y1618750D01*
X-595833D01*
Y1616667D01*
X-597917D01*
Y1614583D01*
X-600000D01*
Y1610417D01*
X-602083D01*
Y1608333D01*
X-604167D01*
Y1606250D01*
X-606250D01*
Y1604167D01*
X-608333D01*
Y1602083D01*
X-610417D01*
Y1600000D01*
X-612500D01*
Y1597917D01*
X-614583D01*
Y1595833D01*
X-616667D01*
Y1593750D01*
X-618750D01*
Y1589583D01*
X-620833D01*
Y1583333D01*
X-622917D01*
Y1579167D01*
X-625000D01*
Y1577083D01*
X-627083D01*
Y1575000D01*
X-629167D01*
Y1570833D01*
X-631250D01*
Y1568750D01*
X-633333D01*
Y1566667D01*
X-635417D01*
Y1564583D01*
X-639583D01*
Y1562500D01*
X-650000D01*
Y1564583D01*
X-654167D01*
Y1566667D01*
X-656250D01*
Y1568750D01*
X-658333D01*
Y1570833D01*
X-660417D01*
Y1577083D01*
X-662500D01*
Y1587500D01*
X-664583D01*
Y1589583D01*
X-666667D01*
Y1591667D01*
X-668750D01*
Y1593750D01*
X-670833D01*
Y1595833D01*
X-672917D01*
Y1597917D01*
X-675000D01*
Y1602083D01*
X-677083D01*
Y1604167D01*
X-679167D01*
Y1606250D01*
X-681250D01*
Y1608333D01*
X-683333D01*
Y1610417D01*
X-685417D01*
Y1612500D01*
X-687500D01*
Y1614583D01*
X-691667D01*
Y1616667D01*
X-693750D01*
Y1618750D01*
X-697917D01*
Y1616667D01*
X-700000D01*
Y1614583D01*
X-704167D01*
Y1612500D01*
X-706250D01*
Y1610417D01*
X-708333D01*
Y1608333D01*
X-710417D01*
Y1606250D01*
X-712500D01*
Y1604167D01*
X-714583D01*
Y1602083D01*
X-716667D01*
Y1597917D01*
X-718750D01*
Y1595833D01*
X-720833D01*
Y1593750D01*
X-722917D01*
Y1591667D01*
X-725000D01*
Y1589583D01*
X-727083D01*
Y1587500D01*
X-729167D01*
Y1577083D01*
X-731250D01*
Y1570833D01*
X-733333D01*
Y1568750D01*
X-735417D01*
Y1566667D01*
X-737500D01*
Y1564583D01*
X-741667D01*
Y1562500D01*
X-752083D01*
Y1564583D01*
X-756250D01*
Y1566667D01*
X-758333D01*
Y1568750D01*
X-760417D01*
Y1570833D01*
X-762500D01*
Y1575000D01*
X-764583D01*
Y1577083D01*
X-766667D01*
Y1581250D01*
X-768750D01*
Y1585417D01*
X-770833D01*
Y1589583D01*
X-772917D01*
Y1593750D01*
X-775000D01*
Y1595833D01*
X-777083D01*
Y1597917D01*
X-779167D01*
Y1600000D01*
X-781250D01*
Y1602083D01*
X-783333D01*
Y1604167D01*
X-785417D01*
Y1606250D01*
X-787500D01*
Y1608333D01*
X-789583D01*
Y1612500D01*
X-791667D01*
Y1614583D01*
X-793750D01*
Y1616667D01*
X-795833D01*
Y1618750D01*
X-802083D01*
Y1620833D01*
X-804167D01*
Y1622917D01*
X-806250D01*
Y1625000D01*
X-808333D01*
Y1627083D01*
X-812500D01*
Y1629167D01*
X-814583D01*
Y1641667D01*
X-812500D01*
Y1643750D01*
X-808333D01*
Y1645833D01*
X-806250D01*
Y1647917D01*
X-802083D01*
Y1645833D01*
X-800000D01*
Y1650000D01*
X-802083D01*
Y1652083D01*
X-804167D01*
Y1654167D01*
X-800000D01*
Y1652083D01*
X-795833D01*
Y1654167D01*
X-789583D01*
Y1662500D01*
X-787500D01*
Y1656250D01*
Y1654167D01*
Y1652083D01*
X-793750D01*
Y1647917D01*
X-797917D01*
Y1637500D01*
X-795833D01*
Y1635417D01*
X-793750D01*
Y1633333D01*
X-791667D01*
Y1631250D01*
X-789583D01*
Y1627083D01*
X-787500D01*
Y1625000D01*
X-785417D01*
Y1622917D01*
X-781250D01*
Y1620833D01*
X-779167D01*
Y1618750D01*
X-777083D01*
Y1616667D01*
X-775000D01*
Y1614583D01*
X-772917D01*
Y1612500D01*
X-768750D01*
Y1610417D01*
X-766667D01*
Y1608333D01*
X-764583D01*
Y1606250D01*
X-762500D01*
Y1604167D01*
X-756250D01*
Y1602083D01*
X-752083D01*
Y1600000D01*
X-747917D01*
Y1602083D01*
X-745833D01*
Y1604167D01*
X-743750D01*
Y1606250D01*
X-739583D01*
Y1608333D01*
X-737500D01*
Y1610417D01*
X-735417D01*
Y1612500D01*
X-733333D01*
Y1614583D01*
X-731250D01*
Y1616667D01*
X-729167D01*
Y1618750D01*
X-727083D01*
Y1622917D01*
X-725000D01*
Y1627083D01*
X-722917D01*
Y1633333D01*
X-720833D01*
Y1645833D01*
X-718750D01*
Y1652083D01*
X-716667D01*
Y1656250D01*
X-714583D01*
Y1658333D01*
X-712500D01*
Y1662500D01*
X-710417D01*
Y1668750D01*
X-712500D01*
Y1670833D01*
X-714583D01*
Y1672917D01*
X-720833D01*
Y1679167D01*
X-718750D01*
Y1681250D01*
X-672917D01*
Y1679167D01*
D02*
G37*
G36*
X-729167Y1547917D02*
X-731250D01*
Y1541667D01*
X-733333D01*
Y1535417D01*
X-735417D01*
Y1529167D01*
X-737500D01*
Y1522917D01*
X-739583D01*
Y1516667D01*
X-741667D01*
Y1510417D01*
X-743750D01*
Y1508333D01*
X-754167D01*
Y1516667D01*
X-756250D01*
Y1522917D01*
X-758333D01*
Y1531250D01*
X-760417D01*
Y1539583D01*
X-764583D01*
Y1531250D01*
X-766667D01*
Y1525000D01*
X-768750D01*
Y1516667D01*
X-770833D01*
Y1508333D01*
X-781250D01*
Y1510417D01*
X-783333D01*
Y1516667D01*
X-785417D01*
Y1522917D01*
X-787500D01*
Y1529167D01*
X-789583D01*
Y1535417D01*
X-791667D01*
Y1541667D01*
X-793750D01*
Y1545833D01*
X-795833D01*
Y1552083D01*
X-797917D01*
Y1554167D01*
X-785417D01*
Y1550000D01*
X-783333D01*
Y1541667D01*
X-781250D01*
Y1533333D01*
X-779167D01*
Y1525000D01*
X-777083D01*
Y1522917D01*
X-775000D01*
Y1531250D01*
X-772917D01*
Y1539583D01*
X-770833D01*
Y1547917D01*
X-768750D01*
Y1554167D01*
X-756250D01*
Y1547917D01*
X-754167D01*
Y1539583D01*
X-752083D01*
Y1531250D01*
X-750000D01*
Y1522917D01*
X-747917D01*
Y1525000D01*
X-745833D01*
Y1533333D01*
X-743750D01*
Y1543750D01*
X-741667D01*
Y1552083D01*
X-739583D01*
Y1554167D01*
X-729167D01*
Y1547917D01*
D02*
G37*
G36*
X-714583Y1508333D02*
X-725000D01*
Y1545833D01*
Y1547917D01*
Y1554167D01*
X-714583D01*
Y1508333D01*
D02*
G37*
G36*
X-602083Y1541667D02*
X-595833D01*
Y1535417D01*
X-602083D01*
Y1531250D01*
Y1529167D01*
Y1516667D01*
X-600000D01*
Y1514583D01*
X-595833D01*
Y1508333D01*
X-600000D01*
Y1506250D01*
X-604167D01*
Y1508333D01*
X-608333D01*
Y1510417D01*
X-610417D01*
Y1512500D01*
X-612500D01*
Y1535417D01*
X-616667D01*
Y1541667D01*
X-612500D01*
Y1550000D01*
X-610417D01*
Y1552083D01*
X-602083D01*
Y1541667D01*
D02*
G37*
G36*
X-633333D02*
X-629167D01*
Y1539583D01*
X-625000D01*
Y1537500D01*
X-622917D01*
Y1533333D01*
X-620833D01*
Y1527083D01*
X-618750D01*
Y1522917D01*
X-620833D01*
Y1516667D01*
X-622917D01*
Y1514583D01*
X-625000D01*
Y1512500D01*
X-627083D01*
Y1510417D01*
X-629167D01*
Y1508333D01*
X-637500D01*
Y1506250D01*
X-641667D01*
Y1508333D01*
X-650000D01*
Y1510417D01*
X-654167D01*
Y1512500D01*
X-656250D01*
Y1514583D01*
X-658333D01*
Y1518750D01*
X-660417D01*
Y1531250D01*
X-658333D01*
Y1535417D01*
X-656250D01*
Y1537500D01*
X-654167D01*
Y1539583D01*
X-652083D01*
Y1541667D01*
X-645833D01*
Y1543750D01*
X-633333D01*
Y1541667D01*
D02*
G37*
G36*
X-693750Y1539583D02*
X-691667D01*
Y1541667D01*
X-687500D01*
Y1543750D01*
X-677083D01*
Y1541667D01*
X-672917D01*
Y1539583D01*
X-670833D01*
Y1537500D01*
X-668750D01*
Y1535417D01*
X-666667D01*
Y1529167D01*
X-664583D01*
Y1520833D01*
X-666667D01*
Y1516667D01*
X-668750D01*
Y1512500D01*
X-670833D01*
Y1510417D01*
X-675000D01*
Y1508333D01*
X-681250D01*
Y1506250D01*
X-683333D01*
Y1508333D01*
X-691667D01*
Y1510417D01*
X-693750D01*
Y1508333D01*
X-704167D01*
Y1554167D01*
X-693750D01*
Y1539583D01*
D02*
G37*
G36*
X3337840Y524880D02*
X3345340Y518380D01*
X3345340Y508880D01*
X3328340D01*
Y524880D01*
X3337840Y524880D01*
D02*
G37*
G36*
X-634467Y-1136076D02*
X-634326Y-1136217D01*
X-634250Y-1136401D01*
Y-1136500D01*
Y-1169500D01*
Y-1169600D01*
X-634326Y-1169783D01*
X-634467Y-1169924D01*
X-634650Y-1170000D01*
X-636349D01*
X-636533Y-1169924D01*
X-636674Y-1169783D01*
X-636750Y-1169600D01*
Y-1169500D01*
Y-1136500D01*
Y-1136401D01*
X-636674Y-1136217D01*
X-636533Y-1136076D01*
X-636349Y-1136000D01*
X-634650D01*
X-634467Y-1136076D01*
D02*
G37*
G36*
X-639467D02*
X-639326Y-1136217D01*
X-639250Y-1136401D01*
Y-1136500D01*
Y-1169500D01*
Y-1169600D01*
X-639326Y-1169783D01*
X-639467Y-1169924D01*
X-639651Y-1170000D01*
X-641349D01*
X-641533Y-1169924D01*
X-641674Y-1169783D01*
X-641750Y-1169600D01*
Y-1169500D01*
Y-1136500D01*
Y-1136401D01*
X-641674Y-1136217D01*
X-641533Y-1136076D01*
X-641349Y-1136000D01*
X-639651D01*
X-639467Y-1136076D01*
D02*
G37*
%LPC*%
G36*
X-635417Y1535417D02*
X-645833D01*
Y1533333D01*
X-647917D01*
Y1529167D01*
X-650000D01*
Y1520833D01*
X-647917D01*
Y1516667D01*
X-643750D01*
Y1514583D01*
X-635417D01*
Y1516667D01*
X-633333D01*
Y1518750D01*
X-631250D01*
Y1531250D01*
X-633333D01*
Y1533333D01*
X-635417D01*
Y1535417D01*
D02*
G37*
G36*
X-679167D02*
X-689583D01*
Y1533333D01*
X-691667D01*
Y1531250D01*
X-693750D01*
Y1520833D01*
X-691667D01*
Y1516667D01*
X-687500D01*
Y1514583D01*
X-681250D01*
Y1516667D01*
X-679167D01*
Y1518750D01*
X-677083D01*
Y1533333D01*
X-679167D01*
Y1535417D01*
D02*
G37*
%LPD*%
D10*
X-486000Y-421540D02*
G03*
X-488540Y-419000I-2540J0D01*
G01*
Y-1593000D02*
G03*
X-486000Y-1590460I0J2540D01*
G01*
X-2503460Y-419000D02*
G03*
X-2506000Y-421540I0J-2540D01*
G01*
Y-1590460D02*
G03*
X-2503460Y-1593000I2540J0D01*
G01*
X-488540D01*
X-2503460Y-419000D02*
X-488540D01*
X-486000Y-1590460D02*
Y-421540D01*
X-2506000Y-1590460D02*
Y-421540D01*
X1096330Y1430402D02*
Y1443639D01*
Y1507715D02*
Y1520952D01*
X442487Y1476139D02*
Y1489376D01*
X417487Y1422859D02*
Y1427139D01*
X413527Y1421739D02*
X413895Y1421371D01*
X415999D01*
X417487Y1422859D01*
X452487Y1480419D02*
X453975Y1481907D01*
X456079D01*
X456447Y1481539D01*
X452487Y1476139D02*
Y1480419D01*
X846637Y1342605D02*
X850775Y1346743D01*
X846637Y1342605D02*
Y1342605D01*
X782450Y1350605D02*
X782637Y1350605D01*
X826498Y1290466D02*
X830637Y1294605D01*
X794498Y1290466D02*
X798637Y1294605D01*
X802498Y1290466D02*
X806637Y1294605D01*
X838637Y1294605D02*
X842775Y1290466D01*
X846637Y1294605D02*
X850775Y1290466D01*
X838637Y1342605D02*
X842775Y1346743D01*
X838637Y1342605D02*
X838637D01*
X842775Y1346743D02*
X842826D01*
X794498Y1346743D02*
X798637Y1342605D01*
X802498Y1346743D02*
X806637Y1342605D01*
X818151Y1347091D02*
X822637Y1342605D01*
X818151Y1347091D02*
Y1347205D01*
X822637Y1342605D02*
Y1342605D01*
X862637Y1286605D02*
X867123Y1282119D01*
Y1282005D02*
Y1282119D01*
X862637Y1286605D02*
Y1286605D01*
X770151Y1347091D02*
X774637Y1342605D01*
X770151Y1347091D02*
Y1347205D01*
X774637Y1342605D02*
Y1342605D01*
X862637Y1350605D02*
X867123Y1355091D01*
X867237D01*
X862637Y1350605D02*
X862637D01*
X802151Y1282119D02*
X806637Y1286605D01*
X810151Y1282119D02*
X814637Y1286605D01*
X818151Y1282119D02*
X822637Y1286605D01*
X814450D02*
X814637D01*
X886637Y1350605D02*
X886824D01*
X870637D02*
Y1350605D01*
X875123Y1355091D02*
Y1355205D01*
X870637Y1350605D02*
X875123Y1355091D01*
X878637Y1350605D02*
X883123Y1355091D01*
X886637Y1350605D02*
X891123Y1355091D01*
X894637Y1350605D02*
X899123Y1355091D01*
X814450Y1350605D02*
X814637Y1350605D01*
X830637Y1350605D02*
Y1350605D01*
X826151Y1355091D02*
Y1355205D01*
Y1355091D02*
X830637Y1350605D01*
X818151Y1355091D02*
X822637Y1350605D01*
X810151Y1355091D02*
X814637Y1350605D01*
X802151Y1355091D02*
X806637Y1350605D01*
X798637Y1350605D02*
X798637Y1350605D01*
X794151Y1355091D02*
Y1355205D01*
Y1355091D02*
X798637Y1350605D01*
X786151Y1355091D02*
X790637Y1350605D01*
X782450Y1286605D02*
X782637D01*
X798637Y1286605D02*
Y1286605D01*
X794151Y1282005D02*
Y1282119D01*
X798637Y1286605D01*
X786151Y1282119D02*
X790637Y1286605D01*
X778151Y1282119D02*
X782637Y1286605D01*
X770151Y1282119D02*
X774637Y1286605D01*
X894637D02*
X899123Y1282119D01*
X886637Y1286605D02*
X891123Y1282119D01*
X878637Y1286605D02*
X883123Y1282119D01*
X870637Y1286605D02*
X875123Y1282119D01*
Y1282005D02*
Y1282119D01*
X870637Y1286605D02*
Y1286605D01*
X-1060000Y-1344000D02*
X-486000D01*
X-1125000Y-1279000D02*
X-1060000Y-1344000D01*
X-1125000Y-1279000D02*
Y-1041000D01*
X-1457000D02*
X-487000D01*
X-1533000Y-965000D02*
X-1457000Y-1041000D01*
X-1533000Y-965000D02*
Y-417000D01*
X-2499000Y-1808000D02*
X-2469000Y-1838000D01*
X-2499000Y-481000D02*
X-2491000Y-489000D01*
X-159000Y-150000D02*
Y930000D01*
Y-150000D02*
X-150000Y-159000D01*
X-1584000D02*
X-150000D01*
X-1660000Y-83000D02*
X-1584000Y-159000D01*
X-1660000Y-83000D02*
Y890000D01*
X-1681000Y911000D02*
X-1660000Y890000D01*
X-1681000Y911000D02*
X-181000D01*
X-156000Y936000D01*
Y933000D02*
Y936000D01*
X3953000Y-247000D02*
X4190000D01*
X4259000Y-316000D01*
Y-1589000D02*
Y-316000D01*
X4211000Y-1637000D02*
X4259000Y-1589000D01*
X1942000Y-1637000D02*
X4211000D01*
X1874000Y-1569000D02*
X1942000Y-1637000D01*
X1874000Y-1569000D02*
Y-261000D01*
X1860000Y-247000D02*
X1874000Y-261000D01*
X1860000Y-247000D02*
X3953000D01*
X886637Y1286605D02*
X886824D01*
X894637Y1294605D02*
X898730Y1290512D01*
X-1015460Y-32676D02*
Y-74996D01*
X-1006996Y-83460D01*
X-990068D01*
X-981604Y-74996D01*
Y-32676D01*
X-930821Y-41140D02*
X-939285Y-32676D01*
X-956212D01*
X-964676Y-41140D01*
Y-49604D01*
X-956212Y-58068D01*
X-939285D01*
X-930821Y-66532D01*
Y-74996D01*
X-939285Y-83460D01*
X-956212D01*
X-964676Y-74996D01*
X-913893Y-32676D02*
Y-83460D01*
X-888501D01*
X-880037Y-74996D01*
Y-66532D01*
X-888501Y-58068D01*
X-913893D01*
X-888501D01*
X-880037Y-49604D01*
Y-41140D01*
X-888501Y-32676D01*
X-913893D01*
D11*
X945642Y1605534D02*
D03*
X969010Y1596136D02*
D03*
X945642Y1586738D02*
D03*
D12*
X1058926Y1557655D02*
D03*
X1058926Y1548765D02*
D03*
X1046480Y1557655D02*
D03*
X1046480Y1548765D02*
D03*
X2192000Y-1150870D02*
D03*
Y-1141980D02*
D03*
X1056786Y1408430D02*
D03*
Y1417320D02*
D03*
X1044340Y1408684D02*
D03*
Y1417574D02*
D03*
X-459000Y739555D02*
D03*
Y748445D02*
D03*
X3097780Y1170655D02*
D03*
Y1179545D02*
D03*
X3026660Y1170655D02*
D03*
Y1179545D02*
D03*
X2955540Y1170655D02*
D03*
Y1179545D02*
D03*
X2374940Y1245655D02*
D03*
Y1254545D02*
D03*
X2303820Y1245655D02*
D03*
Y1254545D02*
D03*
X2237780Y1245655D02*
D03*
Y1254545D02*
D03*
X5190740Y972535D02*
D03*
Y981425D02*
D03*
X5119620Y972535D02*
D03*
Y981425D02*
D03*
X5053580Y972535D02*
D03*
Y981425D02*
D03*
X4215380Y972535D02*
D03*
Y981425D02*
D03*
X4149340Y972535D02*
D03*
Y981425D02*
D03*
X4078220Y972535D02*
D03*
Y981425D02*
D03*
X3262880Y774415D02*
D03*
Y783305D02*
D03*
X3189220Y774415D02*
D03*
Y783305D02*
D03*
X2527340Y849415D02*
D03*
Y858305D02*
D03*
X2453680Y849415D02*
D03*
Y858305D02*
D03*
X2237780Y849415D02*
D03*
Y858305D02*
D03*
X4652260Y596615D02*
D03*
Y605505D02*
D03*
X3537200Y596615D02*
D03*
Y605505D02*
D03*
X3466080Y596615D02*
D03*
Y605505D02*
D03*
X3031740Y596615D02*
D03*
Y605505D02*
D03*
X2306360Y671615D02*
D03*
Y680505D02*
D03*
D13*
X84851Y1371528D02*
D03*
Y1366528D02*
D03*
X84851Y1356528D02*
D03*
X84851Y1351528D02*
D03*
X92551Y1371528D02*
D03*
Y1366528D02*
D03*
X92551Y1356528D02*
D03*
X92551Y1351528D02*
D03*
D14*
X84851Y1361528D02*
D03*
X92551D02*
D03*
D15*
X61051Y1363946D02*
D03*
X46065D02*
D03*
X-2221507Y-882000D02*
D03*
X-2236493D02*
D03*
X896986Y-541000D02*
D03*
X882000D02*
D03*
X921986Y-694000D02*
D03*
X907000D02*
D03*
X903986Y-634000D02*
D03*
X889000D02*
D03*
X1001493Y-587000D02*
D03*
X986507D02*
D03*
X1074493Y-687000D02*
D03*
X1059507D02*
D03*
X998493Y-702000D02*
D03*
X983507D02*
D03*
X1211213Y-607400D02*
D03*
X1196227D02*
D03*
X1155333D02*
D03*
X1140347D02*
D03*
X1099453D02*
D03*
X1084467D02*
D03*
X267843Y1348232D02*
D03*
X282829D02*
D03*
X267970Y1411969D02*
D03*
X282956D02*
D03*
X1642053Y2344840D02*
D03*
X1627067D02*
D03*
X1558233Y2187360D02*
D03*
X1543247D02*
D03*
X1515053D02*
D03*
X1500067D02*
D03*
X-1358365Y287380D02*
D03*
X-1373351D02*
D03*
X-1401545D02*
D03*
X-1416531D02*
D03*
X-1447265D02*
D03*
X-1462251D02*
D03*
X-1490445D02*
D03*
X-1505431D02*
D03*
X-1533625D02*
D03*
X-1548611D02*
D03*
X-343507Y807000D02*
D03*
X-358493D02*
D03*
X-1008627Y-834887D02*
D03*
X-1023613D02*
D03*
X827987Y1264040D02*
D03*
X813001D02*
D03*
X883744Y1372345D02*
D03*
X898730D02*
D03*
X854637Y1372605D02*
D03*
X869623D02*
D03*
X821623D02*
D03*
X806637D02*
D03*
X785637Y1372345D02*
D03*
X770651Y1372345D02*
D03*
X772144Y1265005D02*
D03*
X787130D02*
D03*
X887144Y1265005D02*
D03*
X902130D02*
D03*
X872623D02*
D03*
X857637D02*
D03*
D16*
X45932Y1348310D02*
D03*
X61934D02*
D03*
X45573Y1381681D02*
D03*
X61575D02*
D03*
X526384Y1477563D02*
D03*
X542386D02*
D03*
X526136Y1409695D02*
D03*
X542138D02*
D03*
X526440Y1398013D02*
D03*
X542442D02*
D03*
X526384Y1464957D02*
D03*
X542386D02*
D03*
X526384Y1437957D02*
D03*
X542386D02*
D03*
X526384Y1451757D02*
D03*
X542386D02*
D03*
X526261Y1423915D02*
D03*
X542263D02*
D03*
X1083183Y1546352D02*
D03*
X1099185Y1546352D02*
D03*
X1082487Y1560259D02*
D03*
X1098489Y1560259D02*
D03*
X341476Y1415729D02*
D03*
X357478D02*
D03*
X341476Y1388088D02*
D03*
X357478D02*
D03*
X341350Y1428458D02*
D03*
X357352D02*
D03*
X341310Y1440939D02*
D03*
X357312D02*
D03*
X341295Y1455619D02*
D03*
X357297D02*
D03*
X341310Y1469774D02*
D03*
X357312D02*
D03*
X341387Y1400979D02*
D03*
X357389D02*
D03*
X1961839Y2344840D02*
D03*
X1977841D02*
D03*
X1916119D02*
D03*
X1932121D02*
D03*
X1872939D02*
D03*
X1888941D02*
D03*
X1367479D02*
D03*
X1383481D02*
D03*
X1456379Y2187360D02*
D03*
X1472381D02*
D03*
X1410659D02*
D03*
X1426661D02*
D03*
X1367479D02*
D03*
X1383481D02*
D03*
X-737683Y-624447D02*
D03*
X-721681D02*
D03*
X-1069661Y-731127D02*
D03*
X-1053659D02*
D03*
X7725279Y1175100D02*
D03*
X7741281D02*
D03*
X7021699D02*
D03*
X7037701D02*
D03*
X5825359D02*
D03*
X5841361D02*
D03*
D17*
X191262Y1283844D02*
D03*
Y1299846D02*
D03*
X174752Y1283843D02*
D03*
Y1299845D02*
D03*
X1069994Y1399413D02*
D03*
Y1415415D02*
D03*
X1086106Y1399286D02*
D03*
Y1415288D02*
D03*
X-1224000Y505999D02*
D03*
Y522001D02*
D03*
X-1294000Y511999D02*
D03*
Y528001D02*
D03*
X2196986Y22990D02*
D03*
Y38992D02*
D03*
X-432000Y584999D02*
D03*
Y601001D02*
D03*
X2163000Y-897001D02*
D03*
Y-880999D02*
D03*
X2833000Y-1058002D02*
D03*
Y-1042000D02*
D03*
X1641245Y388681D02*
D03*
Y404683D02*
D03*
X1567585Y388681D02*
D03*
Y404683D02*
D03*
X1496465Y388681D02*
D03*
Y404683D02*
D03*
X1430425Y388681D02*
D03*
Y404683D02*
D03*
X2918000Y-1063001D02*
D03*
Y-1046999D02*
D03*
X4085660Y3401099D02*
D03*
Y3417101D02*
D03*
X3707200Y3401099D02*
D03*
Y3417101D02*
D03*
X1949520Y3401099D02*
D03*
Y3417101D02*
D03*
X1807280Y3401099D02*
D03*
Y3417101D02*
D03*
X1665040Y3401099D02*
D03*
Y3417101D02*
D03*
X1367860Y3401099D02*
D03*
Y3417101D02*
D03*
X3577660Y2486699D02*
D03*
Y2502701D02*
D03*
X3506540Y2486699D02*
D03*
Y2502701D02*
D03*
X3379540Y2486699D02*
D03*
Y2502701D02*
D03*
X3308420Y2486699D02*
D03*
Y2502701D02*
D03*
X3067120Y2486699D02*
D03*
Y2502701D02*
D03*
X2996000Y2486699D02*
D03*
Y2502701D02*
D03*
X2924880Y2486699D02*
D03*
Y2502701D02*
D03*
X2853760Y2486699D02*
D03*
Y2502701D02*
D03*
X2533720Y2486699D02*
D03*
Y2502701D02*
D03*
X2467680Y2486699D02*
D03*
Y2502701D02*
D03*
X1977460Y2486699D02*
D03*
Y2502701D02*
D03*
X1906340Y2486699D02*
D03*
Y2502701D02*
D03*
X1438980Y2486699D02*
D03*
Y2502701D02*
D03*
X1367860Y2486699D02*
D03*
Y2502701D02*
D03*
X1418660Y2329219D02*
D03*
Y2345221D02*
D03*
X-1604618Y271759D02*
D03*
Y287761D02*
D03*
X-1057094Y-599428D02*
D03*
Y-583426D02*
D03*
X-962600Y-619748D02*
D03*
Y-603746D02*
D03*
X-835600Y-612128D02*
D03*
Y-596126D02*
D03*
X-647640Y-634988D02*
D03*
Y-618986D02*
D03*
X-573980Y-652768D02*
D03*
Y-636766D02*
D03*
X-563820Y-721348D02*
D03*
Y-705346D02*
D03*
X-645100Y-723888D02*
D03*
Y-707886D02*
D03*
X-723840Y-723888D02*
D03*
Y-707886D02*
D03*
X-802580Y-723888D02*
D03*
Y-707886D02*
D03*
X-861000Y-723126D02*
D03*
Y-707124D02*
D03*
X-921960Y-731508D02*
D03*
Y-715506D02*
D03*
X-1000700Y-731508D02*
D03*
Y-715506D02*
D03*
X-1056000Y-676001D02*
D03*
Y-659999D02*
D03*
X-1105680Y-674365D02*
D03*
Y-658363D02*
D03*
X-1160280Y-665348D02*
D03*
Y-649346D02*
D03*
X-1216160Y-660268D02*
D03*
Y-644266D02*
D03*
X-1277120Y-659760D02*
D03*
Y-643758D02*
D03*
X-1327000Y-660268D02*
D03*
Y-644266D02*
D03*
X-1378000Y-659001D02*
D03*
Y-642999D02*
D03*
X-2147200Y-885161D02*
D03*
Y-869159D02*
D03*
X2988560Y1344899D02*
D03*
Y1360901D02*
D03*
X7578160Y1234479D02*
D03*
Y1250481D02*
D03*
X8236200Y1159479D02*
D03*
Y1175481D02*
D03*
X8126980Y1159479D02*
D03*
Y1175481D02*
D03*
X8010140Y1159479D02*
D03*
Y1175481D02*
D03*
X7893300Y1159479D02*
D03*
Y1175481D02*
D03*
X7834880Y1159479D02*
D03*
Y1175481D02*
D03*
X7616440Y1159479D02*
D03*
Y1175481D02*
D03*
X7558020Y1159479D02*
D03*
Y1175481D02*
D03*
X7499600Y1159479D02*
D03*
Y1175481D02*
D03*
X7382760Y1159479D02*
D03*
Y1175481D02*
D03*
X7324340Y1159479D02*
D03*
Y1175481D02*
D03*
X7207500Y1159479D02*
D03*
Y1175481D02*
D03*
X6963660Y1159479D02*
D03*
Y1175481D02*
D03*
X6834120Y1159479D02*
D03*
Y1175481D02*
D03*
X6775700Y1159479D02*
D03*
Y1175481D02*
D03*
X6651240Y1159479D02*
D03*
Y1175481D02*
D03*
X6529320Y1159479D02*
D03*
Y1175481D02*
D03*
X6310880Y1159479D02*
D03*
Y1175481D02*
D03*
X6196580Y1159479D02*
D03*
Y1175481D02*
D03*
X6138160Y1159479D02*
D03*
Y1175481D02*
D03*
X6079740Y1159479D02*
D03*
Y1175481D02*
D03*
X5879080Y1159479D02*
D03*
Y1175481D02*
D03*
X5711440Y1159479D02*
D03*
Y1175481D02*
D03*
X5653020Y1159479D02*
D03*
Y1175481D02*
D03*
X5523480Y1159479D02*
D03*
Y1175481D02*
D03*
X5465060Y1159479D02*
D03*
Y1175481D02*
D03*
X5406640Y1159479D02*
D03*
Y1175481D02*
D03*
X5348220Y1159479D02*
D03*
Y1175481D02*
D03*
X5218680Y1159479D02*
D03*
Y1175481D02*
D03*
X5160260Y1159479D02*
D03*
Y1175481D02*
D03*
X5030720Y1159479D02*
D03*
Y1175481D02*
D03*
X3511800Y1159479D02*
D03*
Y1175481D02*
D03*
X3453380Y1159479D02*
D03*
Y1175481D02*
D03*
X7296400Y961359D02*
D03*
Y977361D02*
D03*
X7085580Y961359D02*
D03*
Y977361D02*
D03*
X7027160Y961359D02*
D03*
Y977361D02*
D03*
X6841740Y961359D02*
D03*
Y977361D02*
D03*
X6783320Y961359D02*
D03*
Y977361D02*
D03*
X6658860Y961359D02*
D03*
Y977361D02*
D03*
X6534400Y961359D02*
D03*
Y977361D02*
D03*
X6468360Y961359D02*
D03*
Y977361D02*
D03*
X6122920Y961359D02*
D03*
Y977361D02*
D03*
X5962900Y961359D02*
D03*
Y977361D02*
D03*
X5891780Y961359D02*
D03*
Y977361D02*
D03*
X5693660Y961359D02*
D03*
Y977361D02*
D03*
X5622540Y961359D02*
D03*
Y977361D02*
D03*
X4931660Y961359D02*
D03*
Y977361D02*
D03*
X4860540Y961359D02*
D03*
Y977361D02*
D03*
X4789420Y961359D02*
D03*
Y977361D02*
D03*
X3948680Y961359D02*
D03*
Y977361D02*
D03*
X3880100Y961359D02*
D03*
Y977361D02*
D03*
X5310120Y763239D02*
D03*
Y779241D02*
D03*
X5236460Y763239D02*
D03*
Y779241D02*
D03*
X5162800Y763239D02*
D03*
Y779241D02*
D03*
X5089140Y763239D02*
D03*
Y779241D02*
D03*
X5015480Y763239D02*
D03*
Y779241D02*
D03*
X4941820Y763239D02*
D03*
Y779241D02*
D03*
X4873240Y763239D02*
D03*
Y779241D02*
D03*
X4802120Y763239D02*
D03*
Y779241D02*
D03*
X4301740Y763239D02*
D03*
Y779241D02*
D03*
X4228080Y763239D02*
D03*
Y779241D02*
D03*
X4154420Y763239D02*
D03*
Y779241D02*
D03*
X4080760Y763239D02*
D03*
Y779241D02*
D03*
X4012180Y763239D02*
D03*
Y779241D02*
D03*
X3938520Y763239D02*
D03*
Y779241D02*
D03*
X3864860Y763239D02*
D03*
Y779241D02*
D03*
X3791200Y763239D02*
D03*
Y779241D02*
D03*
X3600700Y763239D02*
D03*
Y779241D02*
D03*
X3527040Y763239D02*
D03*
Y779241D02*
D03*
X3397500Y763239D02*
D03*
Y779241D02*
D03*
X2316520Y838239D02*
D03*
Y854241D02*
D03*
X5000240Y585439D02*
D03*
Y601441D02*
D03*
X-1000000Y-1165000D02*
D03*
Y-1148998D02*
D03*
X4802120Y585439D02*
D03*
Y601441D02*
D03*
X-926000Y-1163000D02*
D03*
Y-1146998D02*
D03*
X-808000Y-1161001D02*
D03*
Y-1144999D02*
D03*
X3260340Y585439D02*
D03*
Y601441D02*
D03*
X2889500Y585439D02*
D03*
Y601441D02*
D03*
X2818380Y585439D02*
D03*
Y601441D02*
D03*
X2522260Y660439D02*
D03*
Y676441D02*
D03*
X2385100Y660439D02*
D03*
Y676441D02*
D03*
D18*
X452487Y1476139D02*
D03*
X447487D02*
D03*
X442487Y1476139D02*
D03*
X437487Y1476139D02*
D03*
X432487D02*
D03*
X427487Y1476139D02*
D03*
X422487Y1476139D02*
D03*
X417487D02*
D03*
X417487Y1427139D02*
D03*
X422487D02*
D03*
X427487D02*
D03*
X432487D02*
D03*
X437487D02*
D03*
X442487D02*
D03*
X447487D02*
D03*
X452487Y1427139D02*
D03*
D19*
X410487Y1469139D02*
D03*
Y1464139D02*
D03*
Y1459139D02*
D03*
X410487Y1454139D02*
D03*
Y1449139D02*
D03*
X410487Y1444139D02*
D03*
X410487Y1439139D02*
D03*
Y1434139D02*
D03*
X459487D02*
D03*
Y1439139D02*
D03*
Y1444139D02*
D03*
Y1449139D02*
D03*
Y1454139D02*
D03*
X459487Y1459139D02*
D03*
Y1464139D02*
D03*
Y1469139D02*
D03*
D20*
X434987Y1451639D02*
D03*
D21*
X774637Y1286605D02*
D03*
Y1294605D02*
D03*
Y1302605D02*
D03*
Y1334605D02*
D03*
Y1342605D02*
D03*
Y1350605D02*
D03*
X782637Y1286605D02*
D03*
Y1294605D02*
D03*
Y1302605D02*
D03*
Y1334605D02*
D03*
Y1342605D02*
D03*
Y1350605D02*
D03*
X790637Y1286605D02*
D03*
Y1294605D02*
D03*
Y1302605D02*
D03*
Y1334605D02*
D03*
Y1342605D02*
D03*
Y1350605D02*
D03*
X798637Y1286605D02*
D03*
Y1294605D02*
D03*
Y1302605D02*
D03*
Y1334605D02*
D03*
Y1342605D02*
D03*
Y1350605D02*
D03*
X806637Y1286605D02*
D03*
Y1294605D02*
D03*
Y1302605D02*
D03*
X806637Y1334605D02*
D03*
X806637Y1342605D02*
D03*
Y1350605D02*
D03*
X814637Y1286605D02*
D03*
Y1294605D02*
D03*
Y1302605D02*
D03*
Y1334605D02*
D03*
Y1342605D02*
D03*
Y1350605D02*
D03*
X822637Y1286605D02*
D03*
Y1294605D02*
D03*
Y1302605D02*
D03*
Y1334605D02*
D03*
Y1342605D02*
D03*
Y1350605D02*
D03*
X830637Y1286605D02*
D03*
Y1294605D02*
D03*
Y1302605D02*
D03*
Y1334605D02*
D03*
Y1342605D02*
D03*
Y1350605D02*
D03*
X838637Y1286605D02*
D03*
Y1294605D02*
D03*
Y1302605D02*
D03*
Y1334605D02*
D03*
Y1342605D02*
D03*
Y1350605D02*
D03*
X846637Y1286605D02*
D03*
Y1294605D02*
D03*
X846637Y1302605D02*
D03*
Y1334605D02*
D03*
X846637Y1342605D02*
D03*
Y1350605D02*
D03*
X854637Y1286605D02*
D03*
Y1294605D02*
D03*
Y1302605D02*
D03*
Y1334605D02*
D03*
Y1342605D02*
D03*
Y1350605D02*
D03*
X862637Y1286605D02*
D03*
Y1294605D02*
D03*
Y1302605D02*
D03*
Y1334605D02*
D03*
Y1342605D02*
D03*
Y1350605D02*
D03*
X870637Y1286605D02*
D03*
Y1294605D02*
D03*
Y1302605D02*
D03*
Y1334605D02*
D03*
Y1342605D02*
D03*
Y1350605D02*
D03*
X878637Y1286605D02*
D03*
X878637Y1294605D02*
D03*
Y1302605D02*
D03*
X878637Y1334605D02*
D03*
Y1342605D02*
D03*
X878637Y1350605D02*
D03*
X886637Y1286605D02*
D03*
Y1294605D02*
D03*
X886637Y1302605D02*
D03*
X886637Y1334605D02*
D03*
Y1342605D02*
D03*
Y1350605D02*
D03*
X894637Y1286605D02*
D03*
Y1294605D02*
D03*
Y1302605D02*
D03*
Y1334605D02*
D03*
Y1342605D02*
D03*
Y1350605D02*
D03*
X459000Y1367400D02*
D03*
Y1357400D02*
D03*
Y1337400D02*
D03*
Y1347400D02*
D03*
Y1327400D02*
D03*
Y1317400D02*
D03*
Y1297400D02*
D03*
Y1287400D02*
D03*
Y1277400D02*
D03*
Y1257400D02*
D03*
Y1267400D02*
D03*
Y1307400D02*
D03*
Y1247400D02*
D03*
Y1237400D02*
D03*
Y1227400D02*
D03*
Y1217400D02*
D03*
Y1197400D02*
D03*
Y1207400D02*
D03*
Y1187400D02*
D03*
Y1147400D02*
D03*
Y1137400D02*
D03*
Y1157400D02*
D03*
Y1167400D02*
D03*
Y1177400D02*
D03*
Y1127400D02*
D03*
Y1117400D02*
D03*
X469000Y1367400D02*
D03*
Y1357400D02*
D03*
Y1347400D02*
D03*
Y1337400D02*
D03*
Y1327400D02*
D03*
Y1317400D02*
D03*
Y1307400D02*
D03*
Y1297400D02*
D03*
Y1287400D02*
D03*
Y1277400D02*
D03*
Y1267400D02*
D03*
Y1257400D02*
D03*
Y1247400D02*
D03*
Y1237400D02*
D03*
Y1227400D02*
D03*
Y1217400D02*
D03*
Y1207400D02*
D03*
Y1197400D02*
D03*
Y1187400D02*
D03*
Y1177400D02*
D03*
Y1167400D02*
D03*
Y1157400D02*
D03*
Y1147400D02*
D03*
Y1137400D02*
D03*
Y1127400D02*
D03*
Y1117400D02*
D03*
X479000Y1367400D02*
D03*
Y1357400D02*
D03*
Y1347400D02*
D03*
Y1337400D02*
D03*
Y1327400D02*
D03*
Y1317400D02*
D03*
Y1307400D02*
D03*
Y1297400D02*
D03*
Y1287400D02*
D03*
Y1277400D02*
D03*
Y1267400D02*
D03*
Y1257400D02*
D03*
Y1247400D02*
D03*
Y1237400D02*
D03*
Y1227400D02*
D03*
Y1217400D02*
D03*
Y1207400D02*
D03*
Y1197400D02*
D03*
Y1187400D02*
D03*
Y1177400D02*
D03*
Y1167400D02*
D03*
Y1157400D02*
D03*
Y1147400D02*
D03*
Y1137400D02*
D03*
Y1127400D02*
D03*
Y1117400D02*
D03*
X489000Y1367400D02*
D03*
Y1357400D02*
D03*
Y1347400D02*
D03*
Y1337400D02*
D03*
Y1327400D02*
D03*
Y1317400D02*
D03*
Y1307400D02*
D03*
Y1297400D02*
D03*
Y1287400D02*
D03*
Y1277400D02*
D03*
Y1267400D02*
D03*
Y1257400D02*
D03*
Y1247400D02*
D03*
Y1237400D02*
D03*
Y1227400D02*
D03*
Y1217400D02*
D03*
Y1207400D02*
D03*
Y1197400D02*
D03*
Y1187400D02*
D03*
Y1177400D02*
D03*
Y1167400D02*
D03*
Y1157400D02*
D03*
Y1147400D02*
D03*
Y1137400D02*
D03*
Y1127400D02*
D03*
Y1117400D02*
D03*
X499000Y1367400D02*
D03*
Y1357400D02*
D03*
Y1347400D02*
D03*
Y1337400D02*
D03*
Y1327400D02*
D03*
Y1317400D02*
D03*
Y1307400D02*
D03*
Y1297400D02*
D03*
Y1287400D02*
D03*
Y1277400D02*
D03*
Y1267400D02*
D03*
Y1257400D02*
D03*
Y1247400D02*
D03*
Y1237400D02*
D03*
Y1227400D02*
D03*
Y1217400D02*
D03*
Y1207400D02*
D03*
Y1197400D02*
D03*
Y1187400D02*
D03*
Y1177400D02*
D03*
Y1167400D02*
D03*
Y1157400D02*
D03*
Y1147400D02*
D03*
Y1137400D02*
D03*
Y1127400D02*
D03*
Y1117400D02*
D03*
X509000Y1367400D02*
D03*
Y1357400D02*
D03*
Y1347400D02*
D03*
Y1337400D02*
D03*
Y1327400D02*
D03*
Y1317400D02*
D03*
Y1307400D02*
D03*
Y1297400D02*
D03*
Y1287400D02*
D03*
Y1277400D02*
D03*
Y1267400D02*
D03*
Y1257400D02*
D03*
Y1247400D02*
D03*
Y1237400D02*
D03*
Y1227400D02*
D03*
Y1217400D02*
D03*
Y1207400D02*
D03*
Y1197400D02*
D03*
Y1187400D02*
D03*
Y1177400D02*
D03*
Y1167400D02*
D03*
Y1157400D02*
D03*
Y1147400D02*
D03*
Y1137400D02*
D03*
Y1127400D02*
D03*
Y1117400D02*
D03*
X519000Y1367400D02*
D03*
Y1357400D02*
D03*
Y1347400D02*
D03*
Y1337400D02*
D03*
Y1327400D02*
D03*
Y1317400D02*
D03*
Y1307400D02*
D03*
Y1297400D02*
D03*
Y1287400D02*
D03*
Y1277400D02*
D03*
Y1267400D02*
D03*
Y1257400D02*
D03*
Y1247400D02*
D03*
Y1237400D02*
D03*
Y1227400D02*
D03*
Y1217400D02*
D03*
Y1207400D02*
D03*
Y1197400D02*
D03*
Y1187400D02*
D03*
Y1177400D02*
D03*
Y1167400D02*
D03*
Y1157400D02*
D03*
Y1147400D02*
D03*
Y1137400D02*
D03*
Y1127400D02*
D03*
Y1117400D02*
D03*
X529000Y1367400D02*
D03*
Y1357400D02*
D03*
Y1347400D02*
D03*
Y1337400D02*
D03*
Y1327400D02*
D03*
Y1317400D02*
D03*
Y1307400D02*
D03*
Y1297400D02*
D03*
Y1287400D02*
D03*
Y1277400D02*
D03*
Y1267400D02*
D03*
Y1257400D02*
D03*
Y1247400D02*
D03*
Y1237400D02*
D03*
Y1227400D02*
D03*
Y1217400D02*
D03*
Y1207400D02*
D03*
Y1197400D02*
D03*
Y1187400D02*
D03*
Y1177400D02*
D03*
Y1167400D02*
D03*
Y1157400D02*
D03*
Y1147400D02*
D03*
Y1137400D02*
D03*
Y1127400D02*
D03*
Y1117400D02*
D03*
X539000Y1367400D02*
D03*
Y1357400D02*
D03*
Y1347400D02*
D03*
Y1337400D02*
D03*
Y1327400D02*
D03*
Y1317400D02*
D03*
Y1307400D02*
D03*
Y1297400D02*
D03*
Y1287400D02*
D03*
Y1277400D02*
D03*
Y1267400D02*
D03*
Y1257400D02*
D03*
Y1247400D02*
D03*
Y1237400D02*
D03*
Y1227400D02*
D03*
Y1217400D02*
D03*
Y1207400D02*
D03*
Y1197400D02*
D03*
Y1187400D02*
D03*
Y1177400D02*
D03*
Y1167400D02*
D03*
Y1157400D02*
D03*
Y1147400D02*
D03*
Y1137400D02*
D03*
Y1127400D02*
D03*
Y1117400D02*
D03*
X549000Y1367400D02*
D03*
Y1357400D02*
D03*
Y1347400D02*
D03*
Y1337400D02*
D03*
Y1327400D02*
D03*
Y1317400D02*
D03*
Y1307400D02*
D03*
Y1297400D02*
D03*
Y1287400D02*
D03*
Y1277400D02*
D03*
Y1267400D02*
D03*
Y1257400D02*
D03*
Y1247400D02*
D03*
Y1237400D02*
D03*
Y1227400D02*
D03*
Y1217400D02*
D03*
Y1207400D02*
D03*
Y1197400D02*
D03*
Y1187400D02*
D03*
Y1177400D02*
D03*
Y1167400D02*
D03*
Y1157400D02*
D03*
Y1147400D02*
D03*
Y1137400D02*
D03*
Y1127400D02*
D03*
Y1117400D02*
D03*
X559000Y1367400D02*
D03*
Y1357400D02*
D03*
Y1347400D02*
D03*
Y1337400D02*
D03*
Y1327400D02*
D03*
Y1317400D02*
D03*
Y1307400D02*
D03*
Y1297400D02*
D03*
Y1287400D02*
D03*
Y1277400D02*
D03*
Y1267400D02*
D03*
Y1257400D02*
D03*
Y1247400D02*
D03*
Y1237400D02*
D03*
Y1227400D02*
D03*
Y1217400D02*
D03*
Y1207400D02*
D03*
Y1197400D02*
D03*
Y1187400D02*
D03*
Y1177400D02*
D03*
Y1167400D02*
D03*
Y1157400D02*
D03*
Y1147400D02*
D03*
Y1137400D02*
D03*
Y1127400D02*
D03*
Y1117400D02*
D03*
X569000Y1367400D02*
D03*
Y1357400D02*
D03*
Y1347400D02*
D03*
Y1337400D02*
D03*
Y1327400D02*
D03*
Y1317400D02*
D03*
Y1307400D02*
D03*
Y1297400D02*
D03*
Y1287400D02*
D03*
Y1277400D02*
D03*
Y1267400D02*
D03*
Y1257400D02*
D03*
Y1247400D02*
D03*
Y1237400D02*
D03*
Y1227400D02*
D03*
Y1217400D02*
D03*
Y1207400D02*
D03*
Y1197400D02*
D03*
Y1187400D02*
D03*
Y1177400D02*
D03*
Y1167400D02*
D03*
Y1157400D02*
D03*
Y1147400D02*
D03*
Y1137400D02*
D03*
Y1127400D02*
D03*
Y1117400D02*
D03*
X579000Y1367400D02*
D03*
Y1357400D02*
D03*
Y1347400D02*
D03*
Y1337400D02*
D03*
Y1327400D02*
D03*
Y1317400D02*
D03*
Y1307400D02*
D03*
Y1297400D02*
D03*
Y1287400D02*
D03*
Y1277400D02*
D03*
Y1267400D02*
D03*
Y1257400D02*
D03*
Y1247400D02*
D03*
Y1237400D02*
D03*
Y1227400D02*
D03*
Y1217400D02*
D03*
Y1207400D02*
D03*
Y1197400D02*
D03*
Y1187400D02*
D03*
Y1177400D02*
D03*
Y1167400D02*
D03*
Y1157400D02*
D03*
Y1147400D02*
D03*
Y1137400D02*
D03*
Y1127400D02*
D03*
Y1117400D02*
D03*
X589000Y1367400D02*
D03*
Y1357400D02*
D03*
Y1347400D02*
D03*
Y1337400D02*
D03*
Y1327400D02*
D03*
Y1317400D02*
D03*
Y1307400D02*
D03*
Y1297400D02*
D03*
Y1287400D02*
D03*
Y1277400D02*
D03*
Y1267400D02*
D03*
Y1257400D02*
D03*
Y1247400D02*
D03*
Y1237400D02*
D03*
Y1227400D02*
D03*
Y1217400D02*
D03*
Y1207400D02*
D03*
Y1197400D02*
D03*
Y1187400D02*
D03*
Y1177400D02*
D03*
Y1167400D02*
D03*
Y1157400D02*
D03*
Y1147400D02*
D03*
Y1137400D02*
D03*
Y1127400D02*
D03*
Y1117400D02*
D03*
X599000Y1367400D02*
D03*
Y1357400D02*
D03*
Y1347400D02*
D03*
Y1337400D02*
D03*
Y1327400D02*
D03*
Y1317400D02*
D03*
Y1307400D02*
D03*
Y1297400D02*
D03*
Y1287400D02*
D03*
Y1277400D02*
D03*
Y1267400D02*
D03*
Y1257400D02*
D03*
Y1247400D02*
D03*
Y1237400D02*
D03*
Y1227400D02*
D03*
Y1217400D02*
D03*
Y1207400D02*
D03*
Y1197400D02*
D03*
Y1187400D02*
D03*
Y1177400D02*
D03*
Y1167400D02*
D03*
Y1157400D02*
D03*
Y1147400D02*
D03*
Y1137400D02*
D03*
Y1127400D02*
D03*
Y1117400D02*
D03*
X609000Y1367400D02*
D03*
Y1357400D02*
D03*
Y1347400D02*
D03*
Y1337400D02*
D03*
Y1327400D02*
D03*
Y1317400D02*
D03*
Y1307400D02*
D03*
Y1297400D02*
D03*
Y1287400D02*
D03*
Y1277400D02*
D03*
Y1267400D02*
D03*
Y1257400D02*
D03*
Y1247400D02*
D03*
Y1237400D02*
D03*
Y1227400D02*
D03*
Y1217400D02*
D03*
Y1207400D02*
D03*
Y1197400D02*
D03*
Y1187400D02*
D03*
Y1177400D02*
D03*
Y1167400D02*
D03*
Y1157400D02*
D03*
Y1147400D02*
D03*
Y1137400D02*
D03*
Y1127400D02*
D03*
Y1117400D02*
D03*
X619000Y1367400D02*
D03*
Y1357400D02*
D03*
Y1347400D02*
D03*
Y1337400D02*
D03*
Y1327400D02*
D03*
Y1317400D02*
D03*
Y1307400D02*
D03*
Y1297400D02*
D03*
Y1287400D02*
D03*
Y1277400D02*
D03*
Y1267400D02*
D03*
Y1257400D02*
D03*
Y1247400D02*
D03*
Y1237400D02*
D03*
Y1227400D02*
D03*
Y1217400D02*
D03*
Y1207400D02*
D03*
Y1197400D02*
D03*
Y1187400D02*
D03*
Y1177400D02*
D03*
Y1167400D02*
D03*
Y1157400D02*
D03*
Y1147400D02*
D03*
Y1137400D02*
D03*
Y1127400D02*
D03*
Y1117400D02*
D03*
X629000Y1367400D02*
D03*
Y1357400D02*
D03*
Y1347400D02*
D03*
Y1337400D02*
D03*
Y1327400D02*
D03*
Y1317400D02*
D03*
Y1307400D02*
D03*
Y1297400D02*
D03*
Y1287400D02*
D03*
Y1277400D02*
D03*
Y1267400D02*
D03*
Y1257400D02*
D03*
Y1247400D02*
D03*
Y1237400D02*
D03*
Y1227400D02*
D03*
Y1217400D02*
D03*
Y1207400D02*
D03*
Y1197400D02*
D03*
Y1187400D02*
D03*
Y1177400D02*
D03*
Y1167400D02*
D03*
Y1157400D02*
D03*
Y1147400D02*
D03*
Y1137400D02*
D03*
Y1127400D02*
D03*
Y1117400D02*
D03*
X639000Y1367400D02*
D03*
Y1357400D02*
D03*
Y1347400D02*
D03*
Y1337400D02*
D03*
Y1327400D02*
D03*
Y1317400D02*
D03*
Y1307400D02*
D03*
Y1297400D02*
D03*
Y1287400D02*
D03*
Y1277400D02*
D03*
Y1267400D02*
D03*
Y1257400D02*
D03*
Y1247400D02*
D03*
Y1237400D02*
D03*
Y1227400D02*
D03*
Y1217400D02*
D03*
Y1207400D02*
D03*
Y1197400D02*
D03*
Y1187400D02*
D03*
Y1177400D02*
D03*
Y1167400D02*
D03*
Y1157400D02*
D03*
Y1147400D02*
D03*
Y1137400D02*
D03*
Y1127400D02*
D03*
Y1117400D02*
D03*
X649000Y1367400D02*
D03*
Y1357400D02*
D03*
Y1347400D02*
D03*
Y1337400D02*
D03*
Y1327400D02*
D03*
Y1317400D02*
D03*
Y1307400D02*
D03*
Y1297400D02*
D03*
Y1287400D02*
D03*
Y1277400D02*
D03*
Y1267400D02*
D03*
Y1257400D02*
D03*
Y1247400D02*
D03*
Y1237400D02*
D03*
Y1227400D02*
D03*
Y1217400D02*
D03*
Y1207400D02*
D03*
Y1197400D02*
D03*
Y1187400D02*
D03*
Y1177400D02*
D03*
Y1167400D02*
D03*
Y1157400D02*
D03*
Y1147400D02*
D03*
Y1137400D02*
D03*
Y1127400D02*
D03*
Y1117400D02*
D03*
X659000Y1367400D02*
D03*
Y1357400D02*
D03*
Y1347400D02*
D03*
Y1337400D02*
D03*
Y1327400D02*
D03*
Y1317400D02*
D03*
Y1307400D02*
D03*
Y1297400D02*
D03*
Y1287400D02*
D03*
Y1277400D02*
D03*
Y1267400D02*
D03*
Y1257400D02*
D03*
Y1247400D02*
D03*
Y1237400D02*
D03*
Y1227400D02*
D03*
Y1217400D02*
D03*
Y1207400D02*
D03*
Y1197400D02*
D03*
Y1187400D02*
D03*
Y1177400D02*
D03*
Y1167400D02*
D03*
Y1157400D02*
D03*
Y1147400D02*
D03*
Y1137400D02*
D03*
Y1127400D02*
D03*
Y1117400D02*
D03*
X669000Y1367400D02*
D03*
Y1357400D02*
D03*
Y1347400D02*
D03*
Y1337400D02*
D03*
Y1327400D02*
D03*
Y1317400D02*
D03*
Y1307400D02*
D03*
Y1297400D02*
D03*
Y1287400D02*
D03*
Y1277400D02*
D03*
Y1267400D02*
D03*
Y1257400D02*
D03*
Y1247400D02*
D03*
Y1237400D02*
D03*
Y1227400D02*
D03*
Y1217400D02*
D03*
Y1207400D02*
D03*
Y1197400D02*
D03*
Y1187400D02*
D03*
Y1177400D02*
D03*
Y1167400D02*
D03*
Y1157400D02*
D03*
Y1147400D02*
D03*
Y1137400D02*
D03*
Y1127400D02*
D03*
Y1117400D02*
D03*
X679000Y1367400D02*
D03*
Y1357400D02*
D03*
Y1347400D02*
D03*
Y1337400D02*
D03*
Y1327400D02*
D03*
Y1317400D02*
D03*
Y1307400D02*
D03*
Y1297400D02*
D03*
Y1287400D02*
D03*
Y1277400D02*
D03*
Y1267400D02*
D03*
Y1257400D02*
D03*
Y1247400D02*
D03*
Y1237400D02*
D03*
Y1227400D02*
D03*
Y1217400D02*
D03*
Y1207400D02*
D03*
Y1197400D02*
D03*
Y1187400D02*
D03*
Y1177400D02*
D03*
Y1167400D02*
D03*
Y1157400D02*
D03*
Y1147400D02*
D03*
Y1137400D02*
D03*
Y1127400D02*
D03*
Y1117400D02*
D03*
X689000Y1367400D02*
D03*
Y1357400D02*
D03*
Y1347400D02*
D03*
Y1337400D02*
D03*
Y1327400D02*
D03*
Y1317400D02*
D03*
Y1307400D02*
D03*
Y1297400D02*
D03*
Y1287400D02*
D03*
Y1277400D02*
D03*
Y1267400D02*
D03*
Y1257400D02*
D03*
Y1247400D02*
D03*
Y1237400D02*
D03*
Y1227400D02*
D03*
Y1217400D02*
D03*
Y1207400D02*
D03*
Y1197400D02*
D03*
Y1187400D02*
D03*
Y1177400D02*
D03*
Y1167400D02*
D03*
Y1157400D02*
D03*
Y1147400D02*
D03*
Y1137400D02*
D03*
Y1127400D02*
D03*
Y1117400D02*
D03*
X699000Y1367400D02*
D03*
Y1357400D02*
D03*
Y1347400D02*
D03*
Y1337400D02*
D03*
Y1327400D02*
D03*
Y1317400D02*
D03*
Y1307400D02*
D03*
Y1297400D02*
D03*
Y1287400D02*
D03*
Y1277400D02*
D03*
Y1267400D02*
D03*
Y1257400D02*
D03*
Y1247400D02*
D03*
Y1237400D02*
D03*
Y1227400D02*
D03*
Y1217400D02*
D03*
Y1207400D02*
D03*
Y1197400D02*
D03*
Y1187400D02*
D03*
Y1177400D02*
D03*
Y1167400D02*
D03*
Y1157400D02*
D03*
Y1147400D02*
D03*
Y1137400D02*
D03*
Y1127400D02*
D03*
Y1117400D02*
D03*
X709000Y1367400D02*
D03*
Y1357400D02*
D03*
Y1347400D02*
D03*
Y1337400D02*
D03*
Y1327400D02*
D03*
Y1317400D02*
D03*
Y1307400D02*
D03*
Y1297400D02*
D03*
Y1287400D02*
D03*
Y1277400D02*
D03*
Y1267400D02*
D03*
Y1257400D02*
D03*
Y1247400D02*
D03*
Y1237400D02*
D03*
Y1227400D02*
D03*
Y1217400D02*
D03*
Y1207400D02*
D03*
Y1197400D02*
D03*
Y1187400D02*
D03*
Y1177400D02*
D03*
Y1167400D02*
D03*
Y1157400D02*
D03*
Y1147400D02*
D03*
Y1137400D02*
D03*
Y1127400D02*
D03*
Y1117400D02*
D03*
D22*
X655610Y1396592D02*
D03*
X623610D02*
D03*
X744000Y1158400D02*
D03*
X776000D02*
D03*
Y1197400D02*
D03*
X744000D02*
D03*
X680540Y-598020D02*
D03*
X712540D02*
D03*
X617040D02*
D03*
X649040D02*
D03*
X551000D02*
D03*
X583000D02*
D03*
X609000Y-854000D02*
D03*
X641000D02*
D03*
X754000Y-863000D02*
D03*
X786000D02*
D03*
X972000Y-965000D02*
D03*
X1004000D02*
D03*
X888000Y-970000D02*
D03*
X920000D02*
D03*
X463000Y-989000D02*
D03*
X495000D02*
D03*
X375000Y-991000D02*
D03*
X407000D02*
D03*
X241580Y-683020D02*
D03*
X273580D02*
D03*
X175540D02*
D03*
X207540D02*
D03*
X657000Y-1112000D02*
D03*
X689000D02*
D03*
X555000Y-1109000D02*
D03*
X587000D02*
D03*
X1118000Y-1231000D02*
D03*
X1150000D02*
D03*
X1002000Y-1223000D02*
D03*
X1034000D02*
D03*
X8456240Y843700D02*
D03*
X8488240D02*
D03*
X8232720D02*
D03*
X8264720D02*
D03*
X8006660D02*
D03*
X8038660D02*
D03*
X7783140D02*
D03*
X7815140D02*
D03*
X7557080D02*
D03*
X7589080D02*
D03*
X7483420D02*
D03*
X7515420D02*
D03*
X8509760Y768700D02*
D03*
X8541760D02*
D03*
X7981440D02*
D03*
X8013440D02*
D03*
X7757920D02*
D03*
X7789920D02*
D03*
X7021320D02*
D03*
X7053320D02*
D03*
X6797800D02*
D03*
X6829800D02*
D03*
X6724140D02*
D03*
X6756140D02*
D03*
X6503160D02*
D03*
X6535160D02*
D03*
X6434580D02*
D03*
X6466580D02*
D03*
X6358380D02*
D03*
X6390380D02*
D03*
X6284720D02*
D03*
X6316720D02*
D03*
D23*
X238252Y1373886D02*
D03*
Y1361186D02*
D03*
Y1348486D02*
D03*
Y1424686D02*
D03*
Y1411986D02*
D03*
Y1399286D02*
D03*
Y1386586D02*
D03*
X149352Y1373886D02*
D03*
X149352Y1361186D02*
D03*
X149352Y1348486D02*
D03*
Y1335786D02*
D03*
X149352Y1424686D02*
D03*
X149352Y1411986D02*
D03*
Y1399286D02*
D03*
X149352Y1386586D02*
D03*
D24*
X238252Y1335786D02*
D03*
D25*
X2125110Y-895855D02*
D03*
X2141610D02*
D03*
Y-880355D02*
D03*
X2125110D02*
D03*
D26*
X3158000Y-818507D02*
D03*
Y-833493D02*
D03*
X2976000Y-814507D02*
D03*
Y-829493D02*
D03*
X2809000Y-808507D02*
D03*
Y-823493D02*
D03*
X2503000Y-792507D02*
D03*
Y-807493D02*
D03*
X3636080Y3416593D02*
D03*
Y3401607D02*
D03*
X3564960Y3416593D02*
D03*
Y3401607D02*
D03*
X3257620Y3416593D02*
D03*
Y3401607D02*
D03*
X3186500Y3416593D02*
D03*
Y3401607D02*
D03*
X2813120Y3416593D02*
D03*
Y3401607D02*
D03*
X2742000Y3416593D02*
D03*
Y3401607D02*
D03*
X2228920Y3416593D02*
D03*
Y3401607D02*
D03*
X2086680Y3416593D02*
D03*
Y3401607D02*
D03*
X3722440Y2502193D02*
D03*
Y2487207D02*
D03*
X3648780Y2502193D02*
D03*
Y2487207D02*
D03*
X2780100Y2502193D02*
D03*
Y2487207D02*
D03*
X2706440Y2502193D02*
D03*
Y2487207D02*
D03*
X2023180Y1869733D02*
D03*
Y1854747D02*
D03*
X1367860Y1869733D02*
D03*
Y1854747D02*
D03*
X-609720Y-840094D02*
D03*
Y-855080D02*
D03*
X-718940Y-837554D02*
D03*
Y-852540D02*
D03*
X-818000Y-835014D02*
D03*
Y-850000D02*
D03*
X-905122Y-827394D02*
D03*
Y-842380D02*
D03*
X-1094860Y-835014D02*
D03*
Y-850000D02*
D03*
X-1186300Y-827394D02*
D03*
Y-842380D02*
D03*
X-1259960Y-835014D02*
D03*
Y-850000D02*
D03*
X755637Y1341512D02*
D03*
Y1356498D02*
D03*
X8068560Y1174973D02*
D03*
Y1159987D02*
D03*
X7951720Y1174973D02*
D03*
Y1159987D02*
D03*
X7441180Y1174973D02*
D03*
Y1159987D02*
D03*
X7265920Y1174973D02*
D03*
Y1159987D02*
D03*
X6892540Y1174973D02*
D03*
Y1159987D02*
D03*
X6709660Y1174973D02*
D03*
Y1159987D02*
D03*
X6369300Y1174973D02*
D03*
Y1159987D02*
D03*
X6008620Y1174973D02*
D03*
Y1159987D02*
D03*
X5937500Y1174973D02*
D03*
Y1159987D02*
D03*
X5581900Y1174973D02*
D03*
Y1159987D02*
D03*
X5277100Y1174973D02*
D03*
Y1159987D02*
D03*
X5089140Y1174973D02*
D03*
Y1159987D02*
D03*
X4959600Y1174973D02*
D03*
Y1159987D02*
D03*
X4258560Y1174973D02*
D03*
Y1159987D02*
D03*
X3570220Y1174973D02*
D03*
Y1159987D02*
D03*
X3382260Y1174973D02*
D03*
Y1159987D02*
D03*
X3311140Y1174973D02*
D03*
Y1159987D02*
D03*
X3240020Y1174973D02*
D03*
Y1159987D02*
D03*
X3168900Y1174973D02*
D03*
Y1159987D02*
D03*
X2889500Y1174973D02*
D03*
Y1159987D02*
D03*
X2818380Y1174973D02*
D03*
Y1159987D02*
D03*
X2522260Y1249973D02*
D03*
Y1234987D02*
D03*
X2451140Y1249973D02*
D03*
Y1234987D02*
D03*
X7354820Y976853D02*
D03*
Y961867D02*
D03*
X6900160Y976853D02*
D03*
Y961867D02*
D03*
X6260080Y976853D02*
D03*
Y961867D02*
D03*
X5820660Y976853D02*
D03*
Y961867D02*
D03*
X5480300Y976853D02*
D03*
Y961867D02*
D03*
X5409180Y976853D02*
D03*
Y961867D02*
D03*
X5338060Y976853D02*
D03*
Y961867D02*
D03*
X5266940Y976853D02*
D03*
Y961867D02*
D03*
X4576060Y976853D02*
D03*
Y961867D02*
D03*
X4504940Y976853D02*
D03*
Y961867D02*
D03*
X4433820Y976853D02*
D03*
Y961867D02*
D03*
X4362700Y976853D02*
D03*
Y961867D02*
D03*
X4291580Y976853D02*
D03*
Y961867D02*
D03*
X4012180Y976853D02*
D03*
Y961867D02*
D03*
X3808980Y976853D02*
D03*
Y961867D02*
D03*
X3102860Y976853D02*
D03*
Y961867D02*
D03*
X6648700Y778733D02*
D03*
Y763747D02*
D03*
X6575040Y778733D02*
D03*
Y763747D02*
D03*
X5383780Y778733D02*
D03*
Y763747D02*
D03*
X3125720Y778733D02*
D03*
Y763747D02*
D03*
X2978400Y778733D02*
D03*
Y763747D02*
D03*
X4728460Y600933D02*
D03*
Y585947D02*
D03*
X-741000Y-1143507D02*
D03*
Y-1158493D02*
D03*
X-863000Y-1145507D02*
D03*
Y-1160493D02*
D03*
X3908040Y600933D02*
D03*
Y585947D02*
D03*
X3836920Y600933D02*
D03*
Y585947D02*
D03*
X3765800Y600933D02*
D03*
Y585947D02*
D03*
X2451140Y675933D02*
D03*
Y660947D02*
D03*
X2242860Y675933D02*
D03*
Y660947D02*
D03*
D27*
X2677000Y-833478D02*
D03*
Y-804522D02*
D03*
X2359000Y-811478D02*
D03*
Y-782522D02*
D03*
X2162880Y3415958D02*
D03*
Y3387002D02*
D03*
X2020640Y3415958D02*
D03*
Y3387002D02*
D03*
X3057140Y749142D02*
D03*
Y778098D02*
D03*
X2387640Y824142D02*
D03*
Y853098D02*
D03*
D28*
X4019620Y3398940D02*
D03*
X1886020D02*
D03*
X2691200Y3127160D02*
D03*
X2620080D02*
D03*
X2546420D02*
D03*
X2475300D02*
D03*
X2401640D02*
D03*
X2327980D02*
D03*
X2254320D02*
D03*
X2180660D02*
D03*
X2107000D02*
D03*
X2033340D02*
D03*
X1891100D02*
D03*
X1817440D02*
D03*
X1743780D02*
D03*
X1670120D02*
D03*
X1596460D02*
D03*
X1449140D02*
D03*
X1375480D02*
D03*
X6402320Y959200D02*
D03*
X5559040D02*
D03*
X4725920D02*
D03*
X4654800D02*
D03*
D29*
X3953580Y3373540D02*
D03*
D30*
X3981580Y3331290D02*
D03*
Y3337790D02*
D03*
Y3344290D02*
D03*
Y3350790D02*
D03*
Y3357290D02*
D03*
Y3363790D02*
D03*
Y3370290D02*
D03*
Y3376790D02*
D03*
Y3383290D02*
D03*
Y3389790D02*
D03*
Y3396290D02*
D03*
Y3402790D02*
D03*
Y3409290D02*
D03*
Y3415790D02*
D03*
X3925580Y3331290D02*
D03*
Y3337790D02*
D03*
Y3344290D02*
D03*
Y3350790D02*
D03*
Y3357290D02*
D03*
Y3363790D02*
D03*
Y3370290D02*
D03*
Y3376790D02*
D03*
Y3383290D02*
D03*
Y3389790D02*
D03*
Y3396290D02*
D03*
Y3402790D02*
D03*
Y3409290D02*
D03*
Y3415790D02*
D03*
D31*
X3883760Y3377860D02*
D03*
X1554580D02*
D03*
D32*
X3855760D02*
D03*
X1526580D02*
D03*
D33*
X3869760Y3410360D02*
D03*
X1540580D02*
D03*
D34*
X3770700Y3416466D02*
D03*
Y3422054D02*
D03*
X1728540Y3416466D02*
D03*
Y3422054D02*
D03*
X1586300Y3416466D02*
D03*
Y3422054D02*
D03*
X1433900Y3416466D02*
D03*
Y3422054D02*
D03*
X1959680Y1869606D02*
D03*
Y1875194D02*
D03*
X1906340Y1869606D02*
D03*
Y1875194D02*
D03*
X1847920Y1869606D02*
D03*
Y1875194D02*
D03*
X1789500Y1869606D02*
D03*
Y1875194D02*
D03*
X1731080Y1869606D02*
D03*
Y1875194D02*
D03*
X1672660Y1869606D02*
D03*
Y1875194D02*
D03*
X1614240Y1869606D02*
D03*
Y1875194D02*
D03*
X4883400Y1174846D02*
D03*
Y1180434D02*
D03*
X4812280Y1174846D02*
D03*
Y1180434D02*
D03*
X4741160Y1174846D02*
D03*
Y1180434D02*
D03*
X4670040Y1174846D02*
D03*
Y1180434D02*
D03*
X4598920Y1174846D02*
D03*
Y1180434D02*
D03*
X4527800Y1174846D02*
D03*
Y1180434D02*
D03*
X4461760Y1174846D02*
D03*
Y1180434D02*
D03*
X4390640Y1174846D02*
D03*
Y1180434D02*
D03*
X4322060Y1174846D02*
D03*
Y1180434D02*
D03*
X4184900Y1174846D02*
D03*
Y1180434D02*
D03*
X4116320Y1174846D02*
D03*
Y1180434D02*
D03*
X4047740Y1174846D02*
D03*
Y1180434D02*
D03*
X3979160Y1174846D02*
D03*
Y1180434D02*
D03*
X3910580Y1174846D02*
D03*
Y1180434D02*
D03*
X3847080Y1174846D02*
D03*
Y1180434D02*
D03*
X3778500Y1174846D02*
D03*
Y1180434D02*
D03*
X3707380Y1174846D02*
D03*
Y1180434D02*
D03*
X3636260Y1174846D02*
D03*
Y1180434D02*
D03*
X3732780Y976726D02*
D03*
Y982314D02*
D03*
X3661660Y976726D02*
D03*
Y982314D02*
D03*
X3590540Y976726D02*
D03*
Y982314D02*
D03*
X3519420Y976726D02*
D03*
Y982314D02*
D03*
X3448300Y976726D02*
D03*
Y982314D02*
D03*
X3377180Y976726D02*
D03*
Y982314D02*
D03*
X3306060Y976726D02*
D03*
Y982314D02*
D03*
X3240020Y976726D02*
D03*
Y982314D02*
D03*
X3168900Y976726D02*
D03*
Y982314D02*
D03*
X3026660Y976726D02*
D03*
Y982314D02*
D03*
X2955540Y976726D02*
D03*
Y982314D02*
D03*
X2884420Y976726D02*
D03*
Y982314D02*
D03*
X2813300Y976726D02*
D03*
Y982314D02*
D03*
X2517180Y1051726D02*
D03*
Y1057314D02*
D03*
X2446060Y1051726D02*
D03*
Y1057314D02*
D03*
X2380020Y1051726D02*
D03*
Y1057314D02*
D03*
X2308900Y1051726D02*
D03*
Y1057314D02*
D03*
X2237780Y1051726D02*
D03*
Y1057314D02*
D03*
X7525000Y778606D02*
D03*
Y784194D02*
D03*
X7451340Y778606D02*
D03*
Y784194D02*
D03*
X7377680Y778606D02*
D03*
Y784194D02*
D03*
X7304020Y778606D02*
D03*
Y784194D02*
D03*
X7235440Y778606D02*
D03*
Y784194D02*
D03*
X7161780Y778606D02*
D03*
Y784194D02*
D03*
X7088120Y778606D02*
D03*
Y784194D02*
D03*
X2899660Y778606D02*
D03*
Y784194D02*
D03*
X2826000Y778606D02*
D03*
Y784194D02*
D03*
D35*
X3519240Y3364280D02*
D03*
Y3413280D02*
D03*
X3460820Y3364280D02*
D03*
Y3413280D02*
D03*
X3402400Y3364280D02*
D03*
Y3413280D02*
D03*
X3343980Y3364280D02*
D03*
Y3413280D02*
D03*
X5081520Y548620D02*
D03*
Y597620D02*
D03*
D36*
X3051880Y3368460D02*
D03*
X3135880D02*
D03*
X2899480D02*
D03*
X2983480D02*
D03*
X8319840Y805600D02*
D03*
X8403840D02*
D03*
X8096320D02*
D03*
X8180320D02*
D03*
X7870260D02*
D03*
X7954260D02*
D03*
X7646740D02*
D03*
X7730740D02*
D03*
X8373360Y730600D02*
D03*
X8457360D02*
D03*
X8223500D02*
D03*
X8307500D02*
D03*
X8071100D02*
D03*
X8155100D02*
D03*
X7845040D02*
D03*
X7929040D02*
D03*
X7621520D02*
D03*
X7705520D02*
D03*
X6884920D02*
D03*
X6968920D02*
D03*
D37*
X2667560Y3401480D02*
D03*
X2709760D02*
D03*
X2593900D02*
D03*
X2636100D02*
D03*
X2520240D02*
D03*
X2562440D02*
D03*
X2446580D02*
D03*
X2488780D02*
D03*
X2372920D02*
D03*
X2415120D02*
D03*
X2299260D02*
D03*
X2341460D02*
D03*
X2124000Y2487080D02*
D03*
X2166200D02*
D03*
X2050340D02*
D03*
X2092540D02*
D03*
X1732840D02*
D03*
X1775040D02*
D03*
X1659180D02*
D03*
X1701380D02*
D03*
X1585520D02*
D03*
X1627720D02*
D03*
X1511860D02*
D03*
X1554060D02*
D03*
X1801420Y2329600D02*
D03*
X1843620D02*
D03*
X1671880D02*
D03*
X1714080D02*
D03*
X1555040D02*
D03*
X1597240D02*
D03*
X-1332700Y131140D02*
D03*
X-1290500D02*
D03*
X-1459700D02*
D03*
X-1417500D02*
D03*
X-1533360D02*
D03*
X-1491160D02*
D03*
D38*
X1947418Y1589532D02*
D03*
X1981708Y227838D02*
D03*
X6350Y117602D02*
D03*
X19558Y1686814D02*
D03*
X3336840Y516880D02*
D03*
D39*
X2775020Y3137320D02*
D03*
X1974920D02*
D03*
X77263Y1417166D02*
D03*
X8530840Y1167480D02*
D03*
X8464800D02*
D03*
X8398760D02*
D03*
X7159240D02*
D03*
X7093200D02*
D03*
X6605520D02*
D03*
X7250680Y969360D02*
D03*
X6735060D02*
D03*
X6348980D02*
D03*
X6211820D02*
D03*
D40*
X3481440Y2504200D02*
D03*
Y2485200D02*
D03*
X3455440D02*
D03*
Y2494700D02*
D03*
Y2504200D02*
D03*
X3280780D02*
D03*
Y2485200D02*
D03*
X3254780D02*
D03*
Y2494700D02*
D03*
Y2504200D02*
D03*
D41*
X3194120Y2488990D02*
D03*
Y2505490D02*
D03*
X3138240Y2488990D02*
D03*
Y2505490D02*
D03*
X2195900Y2488990D02*
D03*
Y2505490D02*
D03*
X6224520Y765530D02*
D03*
Y782030D02*
D03*
X6166100Y765530D02*
D03*
Y782030D02*
D03*
X6107680Y765530D02*
D03*
Y782030D02*
D03*
X6049260Y765530D02*
D03*
Y782030D02*
D03*
X5990840Y765530D02*
D03*
Y782030D02*
D03*
X5932420Y765530D02*
D03*
Y782030D02*
D03*
X5874000Y765530D02*
D03*
Y782030D02*
D03*
X3732780Y765530D02*
D03*
Y782030D02*
D03*
X3674360Y765530D02*
D03*
Y782030D02*
D03*
D42*
X2677738Y2477936D02*
D03*
X2668340Y2501304D02*
D03*
X2658942Y2477936D02*
D03*
X2626938D02*
D03*
X2617540Y2501304D02*
D03*
X2608142Y2477936D02*
D03*
X1877638D02*
D03*
X1868240Y2501304D02*
D03*
X1858842Y2477936D02*
D03*
X1826838D02*
D03*
X1817440Y2501304D02*
D03*
X1808042Y2477936D02*
D03*
X4765798Y754476D02*
D03*
X4756400Y777844D02*
D03*
X4747002Y754476D02*
D03*
X4709918D02*
D03*
X4700520Y777844D02*
D03*
X4691122Y754476D02*
D03*
X4654038D02*
D03*
X4644640Y777844D02*
D03*
X4635242Y754476D02*
D03*
X4603238D02*
D03*
X4593840Y777844D02*
D03*
X4584442Y754476D02*
D03*
X4547358D02*
D03*
X4537960Y777844D02*
D03*
X4528562Y754476D02*
D03*
X4496558D02*
D03*
X4487160Y777844D02*
D03*
X4477762Y754476D02*
D03*
X4445758D02*
D03*
X4436360Y777844D02*
D03*
X4426962Y754476D02*
D03*
X4394958D02*
D03*
X4385560Y777844D02*
D03*
X4376162Y754476D02*
D03*
X3490718D02*
D03*
X3481320Y777844D02*
D03*
X3471922Y754476D02*
D03*
X3361178D02*
D03*
X3351780Y777844D02*
D03*
X3342382Y754476D02*
D03*
D43*
X2394340Y2490350D02*
D03*
X2434340Y2422850D02*
D03*
Y2490350D02*
D03*
X2394340Y2422850D02*
D03*
X2313060Y2490350D02*
D03*
X2353060Y2422850D02*
D03*
Y2490350D02*
D03*
X2313060Y2422850D02*
D03*
X1479940Y2332870D02*
D03*
X1519940Y2265370D02*
D03*
Y2332870D02*
D03*
X1479940Y2265370D02*
D03*
D44*
X2253690Y2502320D02*
D03*
X2270190D02*
D03*
X5820030Y778860D02*
D03*
X5836530D02*
D03*
D45*
X2174010Y1864180D02*
D03*
Y1859180D02*
D03*
Y1854180D02*
D03*
Y1849180D02*
D03*
Y1844180D02*
D03*
Y1839180D02*
D03*
Y1834180D02*
D03*
Y1829180D02*
D03*
Y1824180D02*
D03*
Y1819180D02*
D03*
Y1814180D02*
D03*
Y1809180D02*
D03*
Y1804180D02*
D03*
Y1799180D02*
D03*
Y1794180D02*
D03*
Y1789180D02*
D03*
X2263510D02*
D03*
Y1794180D02*
D03*
Y1799180D02*
D03*
Y1804180D02*
D03*
Y1809180D02*
D03*
Y1814180D02*
D03*
Y1819180D02*
D03*
Y1824180D02*
D03*
Y1829180D02*
D03*
Y1834180D02*
D03*
Y1839180D02*
D03*
Y1844180D02*
D03*
Y1849180D02*
D03*
Y1854180D02*
D03*
Y1859180D02*
D03*
Y1864180D02*
D03*
X7592610Y971300D02*
D03*
Y966300D02*
D03*
Y961300D02*
D03*
Y956300D02*
D03*
Y951300D02*
D03*
Y946300D02*
D03*
Y941300D02*
D03*
Y936300D02*
D03*
Y931300D02*
D03*
Y926300D02*
D03*
Y921300D02*
D03*
Y916300D02*
D03*
Y911300D02*
D03*
Y906300D02*
D03*
Y901300D02*
D03*
Y896300D02*
D03*
X7503110D02*
D03*
Y901300D02*
D03*
Y906300D02*
D03*
Y911300D02*
D03*
Y916300D02*
D03*
Y921300D02*
D03*
Y926300D02*
D03*
Y931300D02*
D03*
Y936300D02*
D03*
Y941300D02*
D03*
Y946300D02*
D03*
Y951300D02*
D03*
Y956300D02*
D03*
Y961300D02*
D03*
Y966300D02*
D03*
Y971300D02*
D03*
D46*
X2181260Y1781930D02*
D03*
X2186260D02*
D03*
X2191260D02*
D03*
X2196260D02*
D03*
X2201260D02*
D03*
X2206260D02*
D03*
X2211260D02*
D03*
X2216260D02*
D03*
X2221260D02*
D03*
X2226260D02*
D03*
X2231260D02*
D03*
X2236260D02*
D03*
X2241260D02*
D03*
X2246260D02*
D03*
X2251260D02*
D03*
X2256260D02*
D03*
Y1871430D02*
D03*
X2251260D02*
D03*
X2246260D02*
D03*
X2241260D02*
D03*
X2236260D02*
D03*
X2231260D02*
D03*
X2226260D02*
D03*
X2221260D02*
D03*
X2216260D02*
D03*
X2211260D02*
D03*
X2206260D02*
D03*
X2201260D02*
D03*
X2196260D02*
D03*
X2191260D02*
D03*
X2186260D02*
D03*
X2181260D02*
D03*
X7510360Y978550D02*
D03*
X7515360D02*
D03*
X7520360D02*
D03*
X7525360D02*
D03*
X7530360D02*
D03*
X7535360D02*
D03*
X7540360D02*
D03*
X7545360D02*
D03*
X7550360D02*
D03*
X7555360D02*
D03*
X7560360D02*
D03*
X7565360D02*
D03*
X7570360D02*
D03*
X7575360D02*
D03*
X7580360D02*
D03*
X7585360D02*
D03*
Y889050D02*
D03*
X7580360D02*
D03*
X7575360D02*
D03*
X7570360D02*
D03*
X7565360D02*
D03*
X7560360D02*
D03*
X7555360D02*
D03*
X7550360D02*
D03*
X7545360D02*
D03*
X7540360D02*
D03*
X7535360D02*
D03*
X7530360D02*
D03*
X7525360D02*
D03*
X7520360D02*
D03*
X7515360D02*
D03*
X7510360D02*
D03*
D47*
X2218760Y1826680D02*
D03*
X7547860Y933800D02*
D03*
D48*
X2088540Y1859700D02*
D03*
Y1808900D02*
D03*
Y1834300D02*
D03*
X2130540D02*
D03*
Y1808900D02*
D03*
Y1859700D02*
D03*
D49*
X1559122Y1864780D02*
D03*
X1588078D02*
D03*
D50*
X1525340Y1815250D02*
D03*
Y1827950D02*
D03*
Y1840650D02*
D03*
Y1853350D02*
D03*
Y1866050D02*
D03*
Y1802550D02*
D03*
Y1789850D02*
D03*
Y1777150D02*
D03*
X1428820Y1815250D02*
D03*
Y1827950D02*
D03*
Y1840650D02*
D03*
Y1853350D02*
D03*
Y1866050D02*
D03*
Y1802550D02*
D03*
Y1789850D02*
D03*
Y1777150D02*
D03*
D51*
X1084326Y1526286D02*
D03*
X1097026D02*
D03*
X1109726D02*
D03*
X1122426D02*
D03*
X1071626D02*
D03*
X1058926D02*
D03*
X1046226D02*
D03*
X1033526Y1526286D02*
D03*
X1033526Y1435736D02*
D03*
X1046226Y1435736D02*
D03*
X1058926Y1435736D02*
D03*
X1071626Y1435736D02*
D03*
X1122426Y1435736D02*
D03*
X1109726D02*
D03*
X1097026D02*
D03*
X1084326Y1435736D02*
D03*
D52*
X1014222Y1494790D02*
D03*
X1001522Y1494790D02*
D03*
X988822Y1494790D02*
D03*
X1014222Y1557782D02*
D03*
X988822D02*
D03*
D53*
X-1059250Y203000D02*
D03*
Y193000D02*
D03*
X-1072750D02*
D03*
Y198000D02*
D03*
Y203000D02*
D03*
D54*
X700978Y1458666D02*
D03*
Y1498666D02*
D03*
Y1538666D02*
D03*
Y1578666D02*
D03*
X915478Y1578666D02*
D03*
X915478Y1538666D02*
D03*
Y1498666D02*
D03*
Y1458666D02*
D03*
D55*
X888228Y1417666D02*
D03*
X848228D02*
D03*
X808228D02*
D03*
X768228D02*
D03*
X728228D02*
D03*
Y1619666D02*
D03*
X768228D02*
D03*
X808228D02*
D03*
X848228D02*
D03*
X888228D02*
D03*
D56*
X7479910Y1244580D02*
D03*
Y1239580D02*
D03*
Y1234580D02*
D03*
Y1229580D02*
D03*
Y1224580D02*
D03*
Y1219580D02*
D03*
Y1214580D02*
D03*
Y1209580D02*
D03*
Y1204580D02*
D03*
Y1199580D02*
D03*
Y1194580D02*
D03*
Y1189580D02*
D03*
X7549410D02*
D03*
Y1194580D02*
D03*
Y1199580D02*
D03*
Y1204580D02*
D03*
Y1209580D02*
D03*
Y1214580D02*
D03*
Y1219580D02*
D03*
Y1224580D02*
D03*
Y1229580D02*
D03*
Y1234580D02*
D03*
Y1239580D02*
D03*
Y1244580D02*
D03*
D57*
X7487160Y1182330D02*
D03*
X7492160D02*
D03*
X7497160D02*
D03*
X7502160D02*
D03*
X7507160D02*
D03*
X7512160D02*
D03*
X7517160D02*
D03*
X7522160D02*
D03*
X7527160D02*
D03*
X7532160D02*
D03*
X7537160D02*
D03*
X7542160D02*
D03*
Y1251830D02*
D03*
X7537160D02*
D03*
X7532160D02*
D03*
X7527160D02*
D03*
X7522160D02*
D03*
X7517160D02*
D03*
X7512160D02*
D03*
X7507160D02*
D03*
X7502160D02*
D03*
X7497160D02*
D03*
X7492160D02*
D03*
X7487160D02*
D03*
D58*
X7514660Y1217080D02*
D03*
D59*
X8195560Y1178200D02*
D03*
Y1172000D02*
D03*
X7789160Y1178200D02*
D03*
Y1172000D02*
D03*
X6265160Y1178200D02*
D03*
Y1172000D02*
D03*
X5780020Y1178200D02*
D03*
Y1172000D02*
D03*
X6981440Y980080D02*
D03*
Y973880D02*
D03*
X6613140Y980080D02*
D03*
Y973880D02*
D03*
X5774940Y980080D02*
D03*
Y973880D02*
D03*
X5012940Y980080D02*
D03*
Y973880D02*
D03*
D60*
X7694770Y1172990D02*
D03*
X7688270D02*
D03*
X7681770D02*
D03*
X7675270D02*
D03*
X7694770Y1131490D02*
D03*
X7688270D02*
D03*
X7681770D02*
D03*
X7675270D02*
D03*
D61*
X7428300Y969160D02*
D03*
Y964160D02*
D03*
Y959160D02*
D03*
Y954160D02*
D03*
Y949160D02*
D03*
Y944160D02*
D03*
X7469300D02*
D03*
Y949160D02*
D03*
Y954160D02*
D03*
Y959160D02*
D03*
Y964160D02*
D03*
Y969160D02*
D03*
D62*
X7436300Y936160D02*
D03*
X7441300D02*
D03*
X7446300D02*
D03*
X7451300D02*
D03*
X7456300D02*
D03*
X7461300D02*
D03*
Y977160D02*
D03*
X7456300D02*
D03*
X7451300D02*
D03*
X7446300D02*
D03*
X7441300D02*
D03*
X7436300D02*
D03*
D63*
X7448800Y956660D02*
D03*
D64*
X5749540Y777209D02*
D03*
Y760191D02*
D03*
X5675880Y777209D02*
D03*
Y760191D02*
D03*
X5607300Y777209D02*
D03*
Y760191D02*
D03*
X5533640Y777209D02*
D03*
Y760191D02*
D03*
X5459980Y777209D02*
D03*
Y760191D02*
D03*
D65*
X5670800Y482290D02*
D03*
X5683500D02*
D03*
X5696200D02*
D03*
X5708900D02*
D03*
X5721600D02*
D03*
X5734300D02*
D03*
X5747000D02*
D03*
D66*
X5708900Y555340D02*
D03*
D67*
X5612380Y582110D02*
D03*
Y518410D02*
D03*
D68*
X5510840Y507300D02*
D03*
X5556440D02*
D03*
D69*
X5533640Y578300D02*
D03*
D70*
X5364790Y571660D02*
D03*
Y562660D02*
D03*
Y553660D02*
D03*
Y544660D02*
D03*
Y535660D02*
D03*
Y580660D02*
D03*
Y526660D02*
D03*
X5473290Y571660D02*
D03*
Y562660D02*
D03*
Y553660D02*
D03*
Y544660D02*
D03*
Y535660D02*
D03*
Y580660D02*
D03*
Y526660D02*
D03*
X3990650Y571660D02*
D03*
Y562660D02*
D03*
Y553660D02*
D03*
Y544660D02*
D03*
Y535660D02*
D03*
Y580660D02*
D03*
Y526660D02*
D03*
X4099150Y571660D02*
D03*
Y562660D02*
D03*
Y553660D02*
D03*
Y544660D02*
D03*
Y535660D02*
D03*
Y580660D02*
D03*
Y526660D02*
D03*
X3624890Y571660D02*
D03*
Y562660D02*
D03*
Y553660D02*
D03*
Y544660D02*
D03*
Y535660D02*
D03*
Y580660D02*
D03*
Y526660D02*
D03*
X3733390Y571660D02*
D03*
Y562660D02*
D03*
Y553660D02*
D03*
Y544660D02*
D03*
Y535660D02*
D03*
Y580660D02*
D03*
Y526660D02*
D03*
X3441590Y557880D02*
D03*
Y548880D02*
D03*
Y539880D02*
D03*
Y530880D02*
D03*
Y566880D02*
D03*
Y575880D02*
D03*
Y584880D02*
D03*
X3333090D02*
D03*
Y575880D02*
D03*
Y566880D02*
D03*
Y530880D02*
D03*
Y539880D02*
D03*
Y548880D02*
D03*
Y557880D02*
D03*
X3119430Y571660D02*
D03*
Y562660D02*
D03*
Y553660D02*
D03*
Y544660D02*
D03*
Y535660D02*
D03*
Y580660D02*
D03*
Y526660D02*
D03*
X3227930Y571660D02*
D03*
Y562660D02*
D03*
Y553660D02*
D03*
Y544660D02*
D03*
Y535660D02*
D03*
Y580660D02*
D03*
Y526660D02*
D03*
D71*
X5392040Y597410D02*
D03*
X5401040D02*
D03*
X5410040D02*
D03*
X5419040D02*
D03*
X5428040D02*
D03*
X5437040D02*
D03*
X5446040D02*
D03*
X5455040D02*
D03*
X5383040D02*
D03*
X5446040Y508910D02*
D03*
X5437040D02*
D03*
X5428040D02*
D03*
X5419040D02*
D03*
X5410040D02*
D03*
X5401040D02*
D03*
X5392040D02*
D03*
X5383040D02*
D03*
X5455040D02*
D03*
X4017900Y597410D02*
D03*
X4026900D02*
D03*
X4035900D02*
D03*
X4044900D02*
D03*
X4053900D02*
D03*
X4062900D02*
D03*
X4071900D02*
D03*
X4080900D02*
D03*
X4008900D02*
D03*
X4071900Y508910D02*
D03*
X4062900D02*
D03*
X4053900D02*
D03*
X4044900D02*
D03*
X4035900D02*
D03*
X4026900D02*
D03*
X4017900D02*
D03*
X4008900D02*
D03*
X4080900D02*
D03*
X3652140Y597410D02*
D03*
X3661140D02*
D03*
X3670140D02*
D03*
X3679140D02*
D03*
X3688140D02*
D03*
X3697140D02*
D03*
X3706140D02*
D03*
X3715140D02*
D03*
X3643140D02*
D03*
X3706140Y508910D02*
D03*
X3697140D02*
D03*
X3688140D02*
D03*
X3679140D02*
D03*
X3670140D02*
D03*
X3661140D02*
D03*
X3652140D02*
D03*
X3643140D02*
D03*
X3715140D02*
D03*
X3387340Y513630D02*
D03*
X3378340D02*
D03*
X3369340D02*
D03*
X3360340D02*
D03*
X3351340D02*
D03*
X3396340D02*
D03*
X3405340D02*
D03*
X3414340D02*
D03*
X3423340D02*
D03*
Y602130D02*
D03*
X3414340D02*
D03*
X3405340D02*
D03*
X3396340D02*
D03*
X3351340D02*
D03*
X3360340D02*
D03*
X3369340D02*
D03*
X3378340D02*
D03*
X3387340D02*
D03*
X3146680Y597410D02*
D03*
X3155680D02*
D03*
X3164680D02*
D03*
X3173680D02*
D03*
X3182680D02*
D03*
X3191680D02*
D03*
X3200680D02*
D03*
X3209680D02*
D03*
X3137680D02*
D03*
X3200680Y508910D02*
D03*
X3191680D02*
D03*
X3182680D02*
D03*
X3173680D02*
D03*
X3164680D02*
D03*
X3155680D02*
D03*
X3146680D02*
D03*
X3137680D02*
D03*
X3209680D02*
D03*
D72*
X5469540Y594160D02*
D03*
Y512160D02*
D03*
X5368540Y594160D02*
D03*
X4095400D02*
D03*
Y512160D02*
D03*
X3994400Y594160D02*
D03*
X3729640D02*
D03*
Y512160D02*
D03*
X3628640Y594160D02*
D03*
X3224180D02*
D03*
Y512160D02*
D03*
X3123180Y594160D02*
D03*
D73*
X5368540Y512160D02*
D03*
X3994400D02*
D03*
X3628640D02*
D03*
X3123180D02*
D03*
D74*
X5441540Y534760D02*
D03*
Y571460D02*
D03*
X4067400Y534760D02*
D03*
Y571460D02*
D03*
X3701640Y534760D02*
D03*
Y571460D02*
D03*
X3196180Y534760D02*
D03*
Y571460D02*
D03*
D75*
X5391540Y557660D02*
D03*
X4017400D02*
D03*
X3651640D02*
D03*
X3146180D02*
D03*
D76*
X5145020Y550580D02*
D03*
Y590580D02*
D03*
D77*
X-638000Y-1153000D02*
D03*
D78*
X-624000Y-1163000D02*
D03*
Y-1158000D02*
D03*
Y-1153000D02*
D03*
Y-1148000D02*
D03*
Y-1143000D02*
D03*
X-652000Y-1163000D02*
D03*
Y-1158000D02*
D03*
Y-1153000D02*
D03*
Y-1148000D02*
D03*
Y-1143000D02*
D03*
D79*
X4324600Y578200D02*
D03*
X4243320D02*
D03*
X4162040D02*
D03*
D80*
X4300600Y591200D02*
D03*
Y584700D02*
D03*
Y578200D02*
D03*
Y571700D02*
D03*
Y565200D02*
D03*
X4348600Y584700D02*
D03*
Y591200D02*
D03*
Y565200D02*
D03*
Y571700D02*
D03*
Y578200D02*
D03*
X4219320Y591200D02*
D03*
Y584700D02*
D03*
Y578200D02*
D03*
Y571700D02*
D03*
Y565200D02*
D03*
X4267320Y584700D02*
D03*
Y591200D02*
D03*
Y565200D02*
D03*
Y571700D02*
D03*
Y578200D02*
D03*
X4138040Y591200D02*
D03*
Y584700D02*
D03*
Y578200D02*
D03*
Y571700D02*
D03*
Y565200D02*
D03*
X4186040Y584700D02*
D03*
Y591200D02*
D03*
Y565200D02*
D03*
Y571700D02*
D03*
Y578200D02*
D03*
D81*
X4311600Y602200D02*
D03*
Y554200D02*
D03*
X4318100D02*
D03*
X4324600D02*
D03*
X4331100D02*
D03*
X4337600D02*
D03*
Y602200D02*
D03*
X4331100D02*
D03*
X4324600D02*
D03*
X4318100D02*
D03*
X4230320D02*
D03*
Y554200D02*
D03*
X4236820D02*
D03*
X4243320D02*
D03*
X4249820D02*
D03*
X4256320D02*
D03*
Y602200D02*
D03*
X4249820D02*
D03*
X4243320D02*
D03*
X4236820D02*
D03*
X4149040D02*
D03*
Y554200D02*
D03*
X4155540D02*
D03*
X4162040D02*
D03*
X4168540D02*
D03*
X4175040D02*
D03*
Y602200D02*
D03*
X4168540D02*
D03*
X4162040D02*
D03*
X4155540D02*
D03*
X2970481Y554200D02*
D03*
X2976981D02*
D03*
X2983481D02*
D03*
X2989981D02*
D03*
X2996481D02*
D03*
Y602200D02*
D03*
X2989981D02*
D03*
X2983481D02*
D03*
X2976981D02*
D03*
X2970481D02*
D03*
D82*
X3354340Y555680D02*
D03*
D83*
X3427940Y581180D02*
D03*
D84*
X3400540Y584380D02*
D03*
D85*
X3423240Y544680D02*
D03*
X3388440Y544880D02*
D03*
D86*
X3437840Y516880D02*
D03*
Y598880D02*
D03*
X3336840D02*
D03*
D87*
X2983481Y578201D02*
D03*
D88*
X3007480D02*
D03*
X2959480D02*
D03*
Y584701D02*
D03*
X3007480D02*
D03*
X2959480Y591201D02*
D03*
X3007480D02*
D03*
X2959480Y571701D02*
D03*
X3007480D02*
D03*
X2959480Y565201D02*
D03*
X3007480D02*
D03*
D89*
X1046881Y1403985D02*
X1051327Y1408430D01*
X1012659Y1403985D02*
X1046881D01*
X917978Y1498666D02*
X1012659Y1403985D01*
X915478Y1498666D02*
X917978D01*
X1042984Y1410040D02*
X1044340Y1408684D01*
X1041879Y1410040D02*
X1042984D01*
X928843Y1523076D02*
X1041879Y1410040D01*
X928843Y1523076D02*
Y1527801D01*
X1051327Y1408430D02*
X1056786D01*
X917978Y1538666D02*
X928843Y1527801D01*
X915478Y1538666D02*
X917978D01*
X1046480Y1634754D02*
X1117040D01*
X996640D02*
X1046480D01*
X1044340Y1607754D02*
Y1632614D01*
X1046480Y1634754D01*
X1117040D02*
X1117040Y1634754D01*
X1042194Y1587754D02*
X1044340D01*
X1014222Y1557782D02*
Y1559782D01*
X1042194Y1587754D01*
X1004316Y1497584D02*
Y1522730D01*
X1001522Y1494790D02*
X1004316Y1497584D01*
X974979Y1552067D02*
X1004316Y1522730D01*
X945642Y1598427D02*
X974979Y1569090D01*
Y1552067D02*
Y1569090D01*
X945642Y1598427D02*
Y1605534D01*
X915478Y1578666D02*
X936046D01*
X944118Y1586738D01*
X945642D01*
X1045696Y1421806D02*
X1046226Y1422336D01*
X1044340Y1417574D02*
X1045696Y1418930D01*
Y1421806D01*
X1046226Y1422336D02*
Y1435736D01*
X1056786Y1417320D02*
Y1433596D01*
X1058926Y1435736D01*
X1069994Y1415415D02*
Y1434104D01*
X1071626Y1435736D01*
X1083630Y1417764D02*
X1086106Y1415288D01*
X1083630Y1417764D02*
Y1421702D01*
X1069340Y1568069D02*
Y1587754D01*
X1058926Y1557655D02*
X1069340Y1568069D01*
X1057299Y1568474D02*
Y1595713D01*
X1046480Y1557655D02*
X1057299Y1568474D01*
Y1595713D02*
X1069340Y1607754D01*
X1083630Y1520952D02*
Y1545905D01*
X1083183Y1546352D02*
X1083630Y1545905D01*
X708105Y1292740D02*
X726803D01*
X703155Y1287790D02*
X708105Y1292740D01*
X699000Y1287400D02*
X699390Y1287790D01*
X703155D01*
X726803Y1292740D02*
X731883Y1287660D01*
X1032830Y1282214D02*
X1046226Y1295610D01*
X1032830Y1279714D02*
Y1282214D01*
X1058672Y1296372D02*
X1072830Y1282214D01*
Y1279714D02*
Y1282214D01*
X1045276Y1430148D02*
X1045530Y1430402D01*
X1057722Y1429894D02*
X1058230Y1430402D01*
X1098616Y1543622D02*
X1098616Y1560132D01*
X1098616Y1543622D02*
X1098743Y1543495D01*
X1098489Y1560259D02*
X1098616Y1560132D01*
X1096330Y1520952D02*
X1098490Y1523112D01*
X1098490Y1543242D01*
X1098743Y1543495D01*
X1070930Y1548194D02*
X1082487Y1559751D01*
Y1560259D01*
X1070930Y1520952D02*
Y1548194D01*
X1083630Y1421702D02*
X1083630Y1430402D01*
X1046480Y1522285D02*
Y1548765D01*
X1045276Y1521206D02*
X1045530Y1520952D01*
X1058926Y1548765D02*
X1058926Y1522539D01*
X1057722Y1521460D02*
X1058230Y1520952D01*
X45932Y1348290D02*
Y1348310D01*
X-26670Y1344422D02*
X42064D01*
X45932Y1348290D01*
X72524Y1361528D02*
X84851D01*
X92551D02*
X93892Y1360187D01*
X84851Y1361528D02*
X92551D01*
X61051Y1363946D02*
X61886Y1363112D01*
X-44450Y1354582D02*
X-36195Y1346327D01*
X-28575D02*
X-26670Y1344422D01*
X-36195Y1346327D02*
X-28575D01*
X238252Y1411986D02*
X238269Y1411969D01*
X267970D01*
X238252Y1348486D02*
X238506Y1348232D01*
X267843D01*
X422487Y1417027D02*
Y1427139D01*
X357478Y1415729D02*
X357771Y1415436D01*
X420896D01*
X422487Y1417027D01*
X427487Y1417027D02*
Y1427139D01*
X411438Y1400979D02*
X427487Y1417027D01*
X357389Y1400979D02*
X411438D01*
X432487Y1414711D02*
Y1427139D01*
X405864Y1388088D02*
X432487Y1414711D01*
X357478Y1388088D02*
X405864D01*
X324878D02*
X341476D01*
X324862Y1388072D02*
X324878Y1388088D01*
X324789Y1400979D02*
X341387D01*
X324773Y1400963D02*
X324789Y1400979D01*
X324878Y1415729D02*
X341476D01*
X324862Y1415713D02*
X324878Y1415729D01*
X324752Y1428458D02*
X341350D01*
X324736Y1428442D02*
X324752Y1428458D01*
X324712Y1440939D02*
X341310D01*
X324696Y1440923D02*
X324712Y1440939D01*
X324697Y1455619D02*
X341295D01*
X324682Y1455603D02*
X324697Y1455619D01*
X324712Y1469774D02*
X341310D01*
X324696Y1469758D02*
X324712Y1469774D01*
X542442Y1398013D02*
X559040D01*
X559055Y1398029D01*
X542138Y1409695D02*
X558736D01*
X558752Y1409711D01*
X542263Y1423915D02*
X558861D01*
X558877Y1423931D01*
X542386Y1437957D02*
X558984D01*
X559000Y1437973D01*
X542386Y1451757D02*
X558984D01*
X559000Y1451773D01*
X542386Y1464957D02*
X558984D01*
X559000Y1464973D01*
X558984Y1477563D02*
X559000Y1477579D01*
X542386Y1477563D02*
X558984D01*
X358670Y1427139D02*
X374580D01*
X357352Y1428458D02*
X358670Y1427139D01*
X374580D02*
X381580Y1434139D01*
X410487D01*
X370331Y1441031D02*
X385024D01*
X370239Y1440939D02*
X370331Y1441031D01*
X357312Y1440939D02*
X370239D01*
X386915Y1439139D02*
X410487D01*
X385024Y1441031D02*
X386915Y1439139D01*
X357459Y1455458D02*
X378475D01*
X357297Y1455619D02*
X357459Y1455458D01*
X378475D02*
X389794Y1444139D01*
X410487D01*
X357312Y1469774D02*
X357552Y1469533D01*
X374580D01*
X394974Y1449139D01*
X410487D01*
X524165Y1400288D02*
X526440Y1398013D01*
X466035Y1400288D02*
X524165D01*
X444078Y1422245D02*
X466035Y1400288D01*
X442487Y1424389D02*
X444078Y1422798D01*
Y1422245D02*
Y1422798D01*
X442487Y1424389D02*
Y1427139D01*
X447487Y1424389D02*
X449078Y1422798D01*
Y1422245D02*
Y1422798D01*
Y1422245D02*
X459353Y1411969D01*
X523862D01*
X447487Y1424389D02*
Y1427139D01*
X523862Y1411969D02*
X526136Y1409695D01*
X452487Y1424530D02*
X453102Y1423915D01*
X452487Y1424530D02*
Y1427139D01*
X453102Y1423915D02*
X526261D01*
X509000Y1438465D02*
X525876D01*
X526384Y1437957D01*
X504674Y1434139D02*
X509000Y1438465D01*
X459487Y1434139D02*
X504674D01*
X509000Y1451757D02*
X526384D01*
X459487Y1439139D02*
X496382D01*
X509000Y1451757D01*
X459487Y1444139D02*
X490456D01*
X509000Y1462682D01*
X477337Y1466745D02*
Y1475716D01*
X479184Y1477563D01*
X526384D01*
X509000Y1462682D02*
X524110D01*
X526384Y1464957D01*
X524584Y1449957D02*
X526384Y1451757D01*
Y1437957D02*
Y1438465D01*
X474731Y1464139D02*
X477337Y1466745D01*
X459487Y1464139D02*
X474731D01*
X544826Y1321574D02*
X549000Y1317400D01*
X554826Y1321574D02*
X559000Y1317400D01*
X574826Y1321574D02*
X579000Y1317400D01*
X544826Y1331574D02*
X549000Y1327400D01*
X544826Y1341574D02*
X549000Y1337400D01*
X554826Y1341574D02*
X559000Y1337400D01*
X564826Y1341574D02*
X569000Y1337400D01*
X574826Y1341574D02*
X579000Y1337400D01*
X534826Y1351574D02*
X539000Y1347400D01*
X544826Y1351574D02*
X549000Y1347400D01*
X554826Y1351574D02*
X559000Y1347400D01*
X564826Y1351574D02*
X569000Y1347400D01*
X574826Y1351574D02*
X579000Y1347400D01*
X564826Y1361574D02*
X569000Y1357400D01*
X544826Y1361574D02*
X549000Y1357400D01*
X524826Y1371574D02*
X529000Y1367400D01*
X534826Y1371574D02*
X539000Y1367400D01*
X544826Y1371574D02*
X549000Y1367400D01*
X554826Y1371574D02*
X559000Y1367400D01*
X564826Y1371574D02*
X569000Y1367400D01*
X574826Y1371574D02*
X579000Y1367400D01*
X699000Y1357400D02*
X703174Y1361574D01*
X698897Y1357297D02*
X699000Y1357400D01*
X886534Y1342502D02*
X886637Y1342605D01*
X669000Y1287400D02*
X673174Y1291574D01*
X668897Y1287297D02*
X669000Y1287400D01*
X846637Y1302605D02*
X850811Y1298431D01*
X846534Y1302708D02*
X846637Y1302605D01*
X838637Y1302605D02*
X842811Y1298431D01*
X838534Y1302708D02*
X838637Y1302605D01*
X659000Y1297400D02*
X663174Y1301574D01*
X886637Y1302605D02*
X890811Y1298431D01*
X659000Y1277400D02*
X663174Y1281574D01*
X658897Y1277297D02*
X659000Y1277400D01*
X886637Y1342605D02*
X890811Y1346779D01*
X846637Y1350605D02*
X850811Y1354779D01*
X846534Y1350502D02*
X846637Y1350605D01*
X669000Y1317400D02*
X673174Y1321574D01*
X668897Y1317297D02*
X669000Y1317400D01*
X679000Y1357400D02*
X683174Y1361574D01*
X846637Y1286605D02*
X850811Y1282431D01*
X689000Y1357400D02*
X693174Y1361574D01*
X688897Y1357297D02*
X689000Y1357400D01*
X854637Y1302605D02*
X858811Y1298431D01*
X854534Y1302708D02*
X854637Y1302605D01*
X679000Y1327400D02*
X683174Y1331574D01*
X678897Y1327297D02*
X679000Y1327400D01*
X862637Y1302605D02*
X866811Y1298431D01*
X862534Y1302708D02*
X862637Y1302605D01*
X689000Y1327400D02*
X693174Y1331574D01*
X688897Y1327297D02*
X689000Y1327400D01*
X878637Y1302605D02*
X882811Y1298431D01*
X878534Y1302708D02*
X878637Y1302605D01*
X689000Y1307400D02*
X693174Y1311574D01*
X688897Y1307297D02*
X689000Y1307400D01*
X649000Y1297400D02*
X653174Y1301574D01*
X648897Y1297297D02*
X649000Y1297400D01*
X894637Y1342605D02*
X898811Y1346779D01*
X894534Y1342502D02*
X894637Y1342605D01*
X649000Y1277400D02*
X653174Y1281574D01*
X648897Y1277297D02*
X649000Y1277400D01*
X878637Y1294605D02*
X882811Y1290431D01*
X878534Y1294708D02*
X878637Y1294605D01*
X649000Y1307400D02*
X653174Y1311574D01*
X894637Y1302605D02*
X898811Y1298431D01*
X886637Y1334605D02*
X890811Y1338779D01*
X886534Y1334502D02*
X886637Y1334605D01*
X689000Y1347400D02*
X693174Y1351574D01*
X688897Y1347297D02*
X689000Y1347400D01*
X699000Y1367400D02*
X703174Y1371574D01*
X698897Y1367297D02*
X699000Y1367400D01*
X878637Y1334605D02*
X882811Y1338779D01*
X878534Y1334502D02*
X878637Y1334605D01*
X862534Y1294708D02*
X866811Y1290431D01*
X870534Y1294708D02*
X874811Y1290431D01*
X886534Y1294708D02*
X890811Y1290431D01*
X870534Y1302708D02*
X874811Y1298431D01*
X854534Y1334502D02*
X858811Y1338779D01*
X870534Y1334502D02*
X874811Y1338779D01*
X870534Y1342502D02*
X874811Y1346779D01*
X878534Y1342502D02*
X882811Y1346779D01*
X628897Y1297297D02*
X633174Y1301574D01*
X668897Y1297297D02*
X673174Y1301574D01*
X638897Y1307297D02*
X643174Y1311574D01*
X668897Y1307297D02*
X673174Y1311574D01*
X678897Y1307297D02*
X683174Y1311574D01*
X668897Y1337297D02*
X673174Y1341574D01*
X708897Y1357297D02*
X713174Y1361574D01*
X669000Y1277400D02*
X673277Y1281677D01*
X723169Y1287400D02*
X723250Y1287319D01*
X709000Y1287400D02*
X723169D01*
D90*
X1096330Y1496251D02*
Y1507715D01*
Y1443639D02*
Y1457135D01*
X282829Y1348232D02*
X294447D01*
X282956Y1411969D02*
X294574D01*
X294640Y1411903D01*
X442487Y1489376D02*
Y1494458D01*
X410487Y1421739D02*
X413527D01*
X456447Y1481539D02*
X459487D01*
X699065Y1297445D02*
X703395Y1301775D01*
X679000Y1297400D02*
X683330Y1301730D01*
X699187Y1317400D02*
X703187Y1321400D01*
X703260D01*
X699000Y1317400D02*
X699187D01*
X679000D02*
X683000Y1321400D01*
X634397Y1173127D02*
X638657Y1177387D01*
X644740Y1183140D02*
X649000Y1187400D01*
X514740Y1173140D02*
X519000Y1177400D01*
X524740Y1143140D02*
X529000Y1147400D01*
X564740Y1153140D02*
X569000Y1157400D01*
X554799Y1172538D02*
X559059Y1176798D01*
X554740Y1203140D02*
X559000Y1207400D01*
X658868Y1357310D02*
X663128Y1361570D01*
X639000Y1358000D02*
X643260Y1362260D01*
X619000Y1358000D02*
X623260Y1362260D01*
X599000Y1327400D02*
X603260Y1331660D01*
X599000Y1307400D02*
X603260Y1311660D01*
X599000Y1267400D02*
X603260Y1271660D01*
X609000Y1277400D02*
X613260Y1281660D01*
X679000Y1237000D02*
X683260Y1232740D01*
X699000Y1237000D02*
X703260Y1232740D01*
X699000Y1217400D02*
X703260Y1213140D01*
X699000Y1197000D02*
X703260Y1192740D01*
X679000Y1137000D02*
X683260Y1132740D01*
X699000Y1137000D02*
X703260Y1132740D01*
X709000Y1117000D02*
X713260Y1112740D01*
X669000Y1127400D02*
X673260Y1123140D01*
X649000Y1127400D02*
X653260Y1123140D01*
X609000Y1127400D02*
X613260Y1123140D01*
X584740Y1122740D02*
X589000Y1127000D01*
X564740Y1122740D02*
X569000Y1127000D01*
X544740Y1123740D02*
X549000Y1128000D01*
X544740Y1143140D02*
X549000Y1147400D01*
X504740Y1143140D02*
X509000Y1147400D01*
X515080Y1261920D02*
X519340Y1257660D01*
X574740Y1281660D02*
X579000Y1277400D01*
X575080Y1271920D02*
X579340Y1267660D01*
X564740Y1261660D02*
X569000Y1257400D01*
X543958Y1252460D02*
X548218Y1248201D01*
X554740Y1251660D02*
X559000Y1247400D01*
X554740Y1271660D02*
X559000Y1267400D01*
X504740Y1291660D02*
X509000Y1287400D01*
X524740Y1291660D02*
X529000Y1287400D01*
X534740Y1291660D02*
X539000Y1287400D01*
X584740Y1301660D02*
X589000Y1297400D01*
X575080Y1331660D02*
X579340Y1327400D01*
X554740Y1331660D02*
X559000Y1327400D01*
X564740Y1311660D02*
X569000Y1307400D01*
X554740Y1301660D02*
X559000Y1297400D01*
X544740Y1311660D02*
X549000Y1307400D01*
X504740Y1321660D02*
X509000Y1317400D01*
X514740Y1331660D02*
X519000Y1327400D01*
X484740Y1341660D02*
X489000Y1337400D01*
X534740Y1341660D02*
X539000Y1337400D01*
X494740Y1361660D02*
X499000Y1357400D01*
X514740Y1361660D02*
X519000Y1357400D01*
X534740Y1361660D02*
X539000Y1357400D01*
X554740Y1361660D02*
X559000Y1357400D01*
X574740Y1361660D02*
X579000Y1357400D01*
X709000Y1367400D02*
X713600Y1372000D01*
X694670Y1161730D02*
X699000Y1157400D01*
X694670Y1173070D02*
X699000Y1177400D01*
X675000Y1173400D02*
X679000Y1177400D01*
X659000Y1167400D02*
X663300Y1171700D01*
X695000Y1341400D02*
X699000Y1337400D01*
X669000Y1327400D02*
X673000Y1331400D01*
X625400Y1311000D02*
X629000Y1307400D01*
X634740Y1321660D02*
X639000Y1317400D01*
X634740Y1283140D02*
X639000Y1287400D01*
X623600Y1282000D02*
X629000Y1287400D01*
X664000Y1252213D02*
X669000Y1257213D01*
Y1257400D01*
X664000Y1251903D02*
Y1252213D01*
X644316Y1252903D02*
X648813Y1257400D01*
X649000D01*
X644000Y1252903D02*
X644316D01*
X654400Y1222000D02*
X659000Y1217400D01*
X629187Y1207400D02*
X633487Y1211700D01*
X633600D01*
X629000Y1207400D02*
X629187D01*
X604700Y1171700D02*
X609000Y1167400D01*
X604700Y1153100D02*
X609000Y1157400D01*
X599000Y1257400D02*
X601787Y1260187D01*
Y1250000D02*
X602000D01*
X599000Y1247400D02*
X599187D01*
X601787Y1250000D01*
X629000Y1127400D02*
X633600Y1132000D01*
X629000Y1147400D02*
X633600Y1152000D01*
X509000Y1127400D02*
X514000Y1122400D01*
X524500Y1122900D02*
X529000Y1127400D01*
X455400Y1121000D02*
X459000Y1117400D01*
X465000Y1141400D02*
X469000Y1137400D01*
X484400Y1182000D02*
X489000Y1177400D01*
X484400Y1192000D02*
X489000Y1187400D01*
X463400Y1163000D02*
X469000Y1157400D01*
X464400Y1182000D02*
X469000Y1177400D01*
X463400Y1203000D02*
X469000Y1197400D01*
X464400Y1222000D02*
X469000Y1217400D01*
X464400Y1262000D02*
X469000Y1257400D01*
X464740Y1241660D02*
X469000Y1237400D01*
X495000Y1261400D02*
X499000Y1257400D01*
Y1267400D02*
X503340Y1271740D01*
X484660Y1281740D02*
X489000Y1277400D01*
X484340Y1292740D02*
X489000Y1297400D01*
X464437Y1281740D02*
X464473D01*
X464400D02*
X464437D01*
X464740Y1301660D02*
X469000Y1297400D01*
X468813Y1277400D02*
X469000D01*
X464473Y1281740D02*
X468813Y1277400D01*
X474000Y1362587D02*
Y1363000D01*
X479000Y1357400D02*
Y1357587D01*
X474000Y1362587D02*
X479000Y1357587D01*
X484340Y1322000D02*
X484400D01*
X489000Y1317400D01*
X489000D01*
X599000Y1187400D02*
X603600Y1192000D01*
X604700Y1211700D02*
X609000Y1207400D01*
X634740Y1241660D02*
X639000Y1237400D01*
X609000Y1247400D02*
X614200Y1242200D01*
X464400Y1322000D02*
X469000Y1317400D01*
X464740Y1341660D02*
X469000Y1337400D01*
X453340Y1361740D02*
X459000Y1367400D01*
D91*
X1086042Y1399349D02*
X1086106Y1399286D01*
X1069994Y1399413D02*
X1070058Y1399349D01*
X1086042Y1399349D01*
X442452Y1494493D02*
X442487Y1494458D01*
D92*
X239195Y1360243D02*
X255878D01*
X300482Y1404846D02*
Y1458691D01*
X255878Y1360243D02*
X300482Y1404846D01*
X263340Y1354267D02*
X307086Y1398013D01*
Y1456845D01*
X228926Y1354267D02*
X263340D01*
X300482Y1458691D02*
X329876Y1488086D01*
X307086Y1456845D02*
X332351Y1482110D01*
X77271Y1366528D02*
X84851D01*
X27938Y1374528D02*
X30229D01*
X81851D01*
X18153Y1364742D02*
X27938Y1374528D01*
X81851D02*
X84851Y1371528D01*
X-26670Y1364742D02*
X18153D01*
X84175Y1355852D02*
X84851Y1356528D01*
X77271Y1355328D02*
X77795Y1355852D01*
X77271Y1335786D02*
Y1355328D01*
X77795Y1355852D02*
X84175D01*
X71683Y1330198D02*
X77271Y1335786D01*
X-26670Y1324102D02*
X80667D01*
X84851Y1351528D02*
X85710D01*
X86763Y1350476D01*
Y1330198D02*
Y1350476D01*
X80667Y1324102D02*
X86763Y1330198D01*
X-36261Y1322130D02*
Y1328075D01*
X-30643Y1333694D01*
X-22697D01*
X-44450Y1313942D02*
Y1313942D01*
X-36261Y1322130D01*
X-22697Y1333694D02*
X-19202Y1330198D01*
X71683D01*
X-11924Y1322009D02*
X105142D01*
X144653Y1361186D02*
X149352D01*
X105142Y1322009D02*
X134606Y1351474D01*
X138347D01*
X-25243Y1308691D02*
X-11924Y1322009D01*
X138871Y1351998D02*
Y1355404D01*
X144653Y1361186D01*
X138347Y1351474D02*
X138871Y1351998D01*
X-32182Y1308691D02*
X-25243D01*
X-32182D02*
Y1317680D01*
X-26670Y1323192D01*
X-9449Y1316035D02*
X145094D01*
X149352Y1320292D02*
Y1335786D01*
X145094Y1316035D02*
X149352Y1320292D01*
X-22768Y1302715D02*
X-9449Y1316035D01*
X159832Y1407359D02*
Y1409767D01*
X156271Y1406205D02*
X158678D01*
X159832Y1407359D01*
Y1409767D02*
X167640Y1417574D01*
X156458Y1432687D02*
X167640Y1421505D01*
Y1417574D02*
Y1421505D01*
X149352Y1399286D02*
X156271Y1406205D01*
X147373Y1424686D02*
X149352D01*
X136447Y1436878D02*
X144011Y1429314D01*
X13716Y1436878D02*
X136447D01*
X149088Y1432687D02*
X156458D01*
X11241Y1442853D02*
X138922D01*
X149088Y1432687D01*
X144011Y1428048D02*
X147373Y1424686D01*
X-19873Y1411739D02*
X11241Y1442853D01*
X-17398Y1405764D02*
X13716Y1436878D01*
X144011Y1428048D02*
Y1429314D01*
X-54042Y1378875D02*
X-27153Y1405764D01*
X-17398D01*
X-54042Y1364482D02*
X-51449Y1361889D01*
X-54042Y1364482D02*
Y1378875D01*
X-51449Y1361889D02*
X-50707D01*
X-47854Y1364742D01*
X-60017Y1362007D02*
X-54042Y1356032D01*
X-60017Y1362007D02*
Y1381350D01*
X-29627Y1411739D01*
X-54042Y1343853D02*
Y1356032D01*
Y1343853D02*
X-44450Y1334262D01*
X-29627Y1411739D02*
X-19873D01*
X-47854Y1364742D02*
X-26670D01*
X-38157Y1306216D02*
X-34657Y1302715D01*
X-38157Y1306216D02*
Y1307648D01*
X-34657Y1302715D02*
X-22768D01*
X-44450Y1313941D02*
X-38157Y1307648D01*
X-44450Y1313941D02*
Y1313942D01*
X-26670Y1323192D02*
Y1324102D01*
X709000Y1347400D02*
X728436Y1327964D01*
X839996D02*
X846637Y1334605D01*
X707542Y1342146D02*
Y1342887D01*
X704778Y1345651D02*
X707542Y1342887D01*
X704778Y1345651D02*
Y1349149D01*
X707018Y1341622D02*
X707542Y1342146D01*
X734861Y1351622D02*
X756099Y1330383D01*
X704778Y1349149D02*
X707251Y1351622D01*
X756099Y1330383D02*
X834415D01*
X838637Y1334605D01*
X704778Y1341622D02*
X707018D01*
X707251Y1351622D02*
X734861D01*
X728436Y1327964D02*
X839996D01*
X699000Y1347400D02*
X704778Y1341622D01*
X412496Y1515872D02*
X432231Y1496136D01*
X328676Y1515872D02*
X412496D01*
X432231Y1476394D02*
Y1496136D01*
X438207Y1476859D02*
Y1498734D01*
X415093Y1521847D02*
X438207Y1498734D01*
X326201Y1521847D02*
X415093D01*
X238252Y1361186D02*
X239195Y1360243D01*
X329876Y1488086D02*
X421682D01*
X426683Y1483084D01*
Y1483084D02*
Y1483084D01*
Y1483084D02*
X427487Y1482281D01*
Y1476139D02*
Y1482281D01*
X233553Y1335786D02*
X238252D01*
X227771Y1341568D02*
X233553Y1335786D01*
X332351Y1482110D02*
X419553D01*
X420708Y1480956D01*
Y1480609D02*
Y1480956D01*
X421512Y1477741D02*
Y1479806D01*
Y1477741D02*
X422487Y1476766D01*
Y1476139D02*
Y1476766D01*
X227771Y1353113D02*
X228926Y1354267D01*
X420708Y1480609D02*
X421512Y1479806D01*
X227771Y1341568D02*
Y1353113D01*
X239195Y1423743D02*
X248208D01*
X322595Y1517003D02*
Y1518241D01*
X326201Y1521847D01*
X233553Y1399286D02*
X238252D01*
X248208Y1423743D02*
X248732Y1424267D01*
X227771Y1405067D02*
X233553Y1399286D01*
X227771Y1405067D02*
Y1416613D01*
X248732Y1443141D02*
X322595Y1517003D01*
X227771Y1416613D02*
X228926Y1417767D01*
X250683D02*
X254708Y1421792D01*
Y1440666D01*
X238252Y1424686D02*
X239195Y1423743D01*
X254708Y1440666D02*
X328570Y1514528D01*
X228926Y1417767D02*
X250683D01*
X328570Y1515766D02*
X328676Y1515872D01*
X328570Y1514528D02*
Y1515766D01*
X248732Y1424267D02*
Y1443141D01*
X437487Y1476139D02*
X438207Y1476859D01*
X432231Y1476394D02*
X432487Y1476139D01*
X-35633Y1383719D02*
X-28013D01*
X-44450Y1374902D02*
X-35633Y1383719D01*
X-28013D02*
X-26670Y1385062D01*
X24994D01*
X163140Y1283843D02*
X174752D01*
X191262Y1283843D02*
X191262Y1283844D01*
X174752Y1283843D02*
X174753Y1283843D01*
X149352Y1348486D02*
X154051D01*
X149352Y1411986D02*
X154051D01*
D93*
X712772Y1317400D02*
X816081D01*
X821241Y1312240D01*
Y1304889D02*
X822637Y1303493D01*
Y1302605D02*
Y1303493D01*
X816033Y1304889D02*
Y1310082D01*
X821241Y1304889D02*
Y1312240D01*
X813923Y1312192D02*
X816033Y1310082D01*
X814637Y1302605D02*
Y1303493D01*
X816033Y1304889D01*
X714930Y1312192D02*
X813923D01*
X709000Y1317400D02*
X709409Y1316991D01*
X712364D01*
X712772Y1317400D01*
X689000D02*
X689276Y1317124D01*
X693077D02*
X697185Y1313017D01*
X689276Y1317124D02*
X693077D01*
X701117Y1313017D02*
X702351Y1311783D01*
X697185Y1313017D02*
X701117D01*
X702351Y1311783D02*
X714521D01*
X714930Y1312192D01*
D94*
X778151Y1355091D02*
X782637Y1350605D01*
X770151Y1355091D02*
X774637Y1350605D01*
D95*
X609000Y1257400D02*
X614200Y1252200D01*
X609000Y1267400D02*
X619000Y1277400D01*
X499340Y1257400D02*
Y1257660D01*
X594570Y1241830D02*
X599000Y1237400D01*
X602870Y1243870D02*
X609340Y1237400D01*
X609000Y1227400D02*
X619000Y1217400D01*
X529340Y1287400D02*
Y1287660D01*
X569340Y1257400D02*
Y1257400D01*
X559080Y1247400D02*
X559340D01*
Y1267400D02*
Y1267660D01*
Y1297400D02*
Y1297400D01*
X519340Y1327400D02*
Y1327400D01*
D96*
X2017620Y-1494380D02*
Y-1443596D01*
X2043012D01*
X2051476Y-1452060D01*
Y-1468988D01*
X2043012Y-1477452D01*
X2017620D01*
X2068404Y-1443596D02*
Y-1494380D01*
Y-1468988D01*
X2102259D01*
Y-1443596D01*
Y-1494380D01*
X2119187Y-1443596D02*
Y-1452060D01*
X2136115Y-1468988D01*
X2153043Y-1452060D01*
Y-1443596D01*
X2136115Y-1468988D02*
Y-1494380D01*
X-1038916Y-1327380D02*
X-1047380Y-1318916D01*
Y-1310452D01*
X-1038916Y-1301988D01*
X-1009292Y-1310452D02*
X-1021988D01*
X-1026220Y-1314684D01*
Y-1323148D01*
X-1021988Y-1327380D01*
X-1009292D01*
X-1000828D02*
X-992364D01*
X-996596D01*
Y-1301988D01*
X-1000828D01*
X-975437Y-1327380D02*
X-966973D01*
X-962741Y-1323148D01*
Y-1314684D01*
X-966973Y-1310452D01*
X-975437D01*
X-979669Y-1314684D01*
Y-1323148D01*
X-975437Y-1327380D01*
X-954277D02*
X-941581D01*
X-937349Y-1323148D01*
X-941581Y-1318916D01*
X-950045D01*
X-954277Y-1314684D01*
X-950045Y-1310452D01*
X-937349D01*
X-916189Y-1327380D02*
X-924653D01*
X-928885Y-1323148D01*
Y-1314684D01*
X-924653Y-1310452D01*
X-916189D01*
X-911957Y-1314684D01*
Y-1318916D01*
X-928885D01*
X-873869Y-1306220D02*
Y-1310452D01*
X-878101D01*
X-869637D01*
X-873869D01*
Y-1323148D01*
X-869637Y-1327380D01*
X-852710D02*
X-844246D01*
X-840014Y-1323148D01*
Y-1314684D01*
X-844246Y-1310452D01*
X-852710D01*
X-856942Y-1314684D01*
Y-1323148D01*
X-852710Y-1327380D01*
X-806158Y-1301988D02*
X-797694D01*
X-801926D01*
Y-1327380D01*
X-806158D01*
X-797694D01*
X-768070Y-1306220D02*
X-772302Y-1301988D01*
X-780766D01*
X-784998Y-1306220D01*
Y-1323148D01*
X-780766Y-1327380D01*
X-772302D01*
X-768070Y-1323148D01*
X-759606Y-1327380D02*
X-751142Y-1318916D01*
Y-1310452D01*
X-759606Y-1301988D01*
X-1279916Y-1016916D02*
X-1288380Y-1008452D01*
Y-999988D01*
X-1279916Y-991524D01*
X-1250292Y-999988D02*
X-1262988D01*
X-1267220Y-1004220D01*
Y-1012684D01*
X-1262988Y-1016916D01*
X-1250292D01*
X-1241828D02*
X-1233364D01*
X-1237596D01*
Y-991524D01*
X-1241828D01*
X-1216437Y-1016916D02*
X-1207973D01*
X-1203741Y-1012684D01*
Y-1004220D01*
X-1207973Y-999988D01*
X-1216437D01*
X-1220669Y-1004220D01*
Y-1012684D01*
X-1216437Y-1016916D01*
X-1195277D02*
X-1182581D01*
X-1178349Y-1012684D01*
X-1182581Y-1008452D01*
X-1191045D01*
X-1195277Y-1004220D01*
X-1191045Y-999988D01*
X-1178349D01*
X-1157189Y-1016916D02*
X-1165653D01*
X-1169885Y-1012684D01*
Y-1004220D01*
X-1165653Y-999988D01*
X-1157189D01*
X-1152957Y-1004220D01*
Y-1008452D01*
X-1169885D01*
X-1114869Y-995756D02*
Y-999988D01*
X-1119101D01*
X-1110637D01*
X-1114869D01*
Y-1012684D01*
X-1110637Y-1016916D01*
X-1093710D02*
X-1085246D01*
X-1081014Y-1012684D01*
Y-1004220D01*
X-1085246Y-999988D01*
X-1093710D01*
X-1097942Y-1004220D01*
Y-1012684D01*
X-1093710Y-1016916D01*
X-1047158Y-1025380D02*
Y-999988D01*
X-1034462D01*
X-1030230Y-1004220D01*
Y-1012684D01*
X-1034462Y-1016916D01*
X-1047158D01*
X-1021766D02*
X-1013302D01*
X-1017534D01*
Y-999988D01*
X-1021766D01*
X-1000606Y-1016916D02*
Y-999988D01*
X-987910D01*
X-983679Y-1004220D01*
Y-1016916D01*
X-975214D02*
X-966751Y-1008452D01*
Y-999988D01*
X-975214Y-991524D01*
X-1012380Y-1278380D02*
Y-1244524D01*
X-995452Y-1227596D01*
X-978524Y-1244524D01*
Y-1278380D01*
Y-1252988D01*
X-1012380D01*
X-961596Y-1227596D02*
Y-1278380D01*
X-927741D01*
X-910813Y-1227596D02*
X-893885D01*
X-902349D01*
Y-1278380D01*
X-910813D01*
X-893885D01*
X-868493D02*
Y-1227596D01*
X-851565Y-1244524D01*
X-834637Y-1227596D01*
Y-1278380D01*
X-1373380Y-913596D02*
X-1339524D01*
X-1356452D01*
Y-964380D01*
X-1288741Y-913596D02*
X-1322596D01*
Y-964380D01*
X-1288741D01*
X-1322596Y-938988D02*
X-1305669D01*
X-1271813Y-964380D02*
Y-913596D01*
X-1246421D01*
X-1237957Y-922060D01*
Y-938988D01*
X-1246421Y-947452D01*
X-1271813D01*
X-1254885D02*
X-1237957Y-964380D01*
X-1221029D02*
Y-913596D01*
X-1204101Y-930524D01*
X-1187173Y-913596D01*
Y-964380D01*
X-1170246Y-913596D02*
X-1153318D01*
X-1161782D01*
Y-964380D01*
X-1170246D01*
X-1153318D01*
X-1127926D02*
Y-913596D01*
X-1094070Y-964380D01*
Y-913596D01*
X-1077142Y-964380D02*
Y-930524D01*
X-1060214Y-913596D01*
X-1043287Y-930524D01*
Y-964380D01*
Y-938988D01*
X-1077142D01*
X-1026359Y-913596D02*
X-992503D01*
X-1009431D01*
Y-964380D01*
X-975575Y-913596D02*
X-958647D01*
X-967111D01*
Y-964380D01*
X-975575D01*
X-958647D01*
X-907864Y-913596D02*
X-924792D01*
X-933256Y-922060D01*
Y-955916D01*
X-924792Y-964380D01*
X-907864D01*
X-899400Y-955916D01*
Y-922060D01*
X-907864Y-913596D01*
X-882472Y-964380D02*
Y-913596D01*
X-848616Y-964380D01*
Y-913596D01*
X-2394380Y-1443380D02*
Y-1392596D01*
X-2368988D01*
X-2360524Y-1401060D01*
Y-1417988D01*
X-2368988Y-1426452D01*
X-2394380D01*
X-2377452D02*
X-2360524Y-1443380D01*
X-2343596D02*
Y-1409524D01*
X-2326669Y-1392596D01*
X-2309741Y-1409524D01*
Y-1443380D01*
Y-1417988D01*
X-2343596D01*
X-2292813Y-1443380D02*
Y-1392596D01*
X-2275885Y-1409524D01*
X-2258957Y-1392596D01*
Y-1443380D01*
D97*
X3354340Y555680D02*
D03*
D98*
X-69850Y71628D02*
D03*
X2121154Y65024D02*
D03*
X2116836Y1688592D02*
D03*
X-62213Y1689432D02*
D03*
D99*
X445687Y1462339D02*
D03*
X445687Y1451639D02*
D03*
Y1440939D02*
D03*
X434987Y1462339D02*
D03*
Y1451639D02*
D03*
Y1440939D02*
D03*
X424287Y1462339D02*
D03*
X424287Y1451639D02*
D03*
X424287Y1440939D02*
D03*
D100*
X-69850Y1286002D02*
D03*
Y1413002D02*
D03*
D101*
X-44450Y1313942D02*
D03*
D102*
Y1334262D02*
D03*
Y1354582D02*
D03*
Y1374902D02*
D03*
X-26670Y1324102D02*
D03*
Y1344422D02*
D03*
Y1364742D02*
D03*
Y1385062D02*
D03*
X21590Y1280922D02*
D03*
Y1395222D02*
D03*
Y1418082D02*
D03*
Y1303782D02*
D03*
X1751400Y2339760D02*
D03*
Y2314360D02*
D03*
X-995000Y597200D02*
D03*
Y622600D02*
D03*
Y648000D02*
D03*
D103*
X2100000Y1225000D02*
D03*
Y1175000D02*
D03*
Y1125000D02*
D03*
D104*
Y1075000D02*
D03*
D105*
X4457580Y2473300D02*
D03*
X3957580Y2973300D02*
D03*
D106*
X996640Y1634754D02*
D03*
X1117040Y1634754D02*
D03*
X13208Y1567942D02*
D03*
Y1609942D02*
D03*
X68208Y1525942D02*
D03*
Y1567942D02*
D03*
Y1609942D02*
D03*
D107*
X1069340Y1607754D02*
D03*
X1044340D02*
D03*
X1069340Y1587754D02*
D03*
X1044340D02*
D03*
D108*
X902800Y73280D02*
D03*
Y22480D02*
D03*
X953600D02*
D03*
Y73280D02*
D03*
X928200Y47880D02*
D03*
X1103600Y73280D02*
D03*
Y22480D02*
D03*
X1154400D02*
D03*
Y73280D02*
D03*
X1129000Y47880D02*
D03*
X492220Y77090D02*
D03*
Y26290D02*
D03*
X543020D02*
D03*
Y77090D02*
D03*
X517620Y51690D02*
D03*
X277800Y73280D02*
D03*
Y22480D02*
D03*
X328600D02*
D03*
Y73280D02*
D03*
X303200Y47880D02*
D03*
D109*
X13208Y1525942D02*
D03*
D110*
X1096330Y1496251D02*
D03*
Y1457135D02*
D03*
X77271Y1366528D02*
D03*
X442487Y1494458D02*
D03*
X410487Y1421739D02*
D03*
X324862Y1388072D02*
D03*
X324773Y1400963D02*
D03*
X324862Y1415713D02*
D03*
X324736Y1428442D02*
D03*
X324696Y1440923D02*
D03*
X324682Y1455603D02*
D03*
X324696Y1469758D02*
D03*
X559055Y1398029D02*
D03*
X558752Y1409711D02*
D03*
X558877Y1423931D02*
D03*
X559000Y1437973D02*
D03*
Y1451773D02*
D03*
Y1464973D02*
D03*
Y1477579D02*
D03*
X459487Y1481539D02*
D03*
X544826Y1321574D02*
D03*
X554826D02*
D03*
X574826D02*
D03*
X544826Y1331574D02*
D03*
Y1341574D02*
D03*
X554826D02*
D03*
X564826D02*
D03*
X574826D02*
D03*
X534826Y1351574D02*
D03*
X544826D02*
D03*
X554826D02*
D03*
X564826D02*
D03*
X574826D02*
D03*
X564826Y1361574D02*
D03*
X544826D02*
D03*
X524826Y1371574D02*
D03*
X534826D02*
D03*
X544826D02*
D03*
X554826D02*
D03*
X564826D02*
D03*
X574826D02*
D03*
X850811Y1282431D02*
D03*
X866811Y1290431D02*
D03*
X874811D02*
D03*
X882811D02*
D03*
X890811Y1290431D02*
D03*
X842811Y1298431D02*
D03*
X850811Y1298431D02*
D03*
X858811D02*
D03*
X866811D02*
D03*
X874811D02*
D03*
X882811D02*
D03*
X890811D02*
D03*
X898811Y1298431D02*
D03*
X850811Y1354779D02*
D03*
X858811Y1338779D02*
D03*
X874811Y1338779D02*
D03*
Y1346779D02*
D03*
X882811D02*
D03*
X890811D02*
D03*
X898811D02*
D03*
X890811Y1338779D02*
D03*
X882811D02*
D03*
X633174Y1301574D02*
D03*
X653174D02*
D03*
X663174D02*
D03*
X673174Y1291574D02*
D03*
Y1301574D02*
D03*
X653174Y1281574D02*
D03*
X643174Y1311574D02*
D03*
X653174D02*
D03*
X673174D02*
D03*
X683174D02*
D03*
X693174D02*
D03*
X673174Y1321574D02*
D03*
Y1341574D02*
D03*
X683174Y1331574D02*
D03*
X693174D02*
D03*
Y1351574D02*
D03*
X683174Y1361574D02*
D03*
X693174D02*
D03*
X703174D02*
D03*
X713174D02*
D03*
X703174Y1371574D02*
D03*
X663174Y1281574D02*
D03*
X673277Y1281677D02*
D03*
D111*
X294513Y1348166D02*
D03*
X294640Y1411903D02*
D03*
X703395Y1301775D02*
D03*
X683330Y1301730D02*
D03*
X703187Y1321400D02*
D03*
X683000D02*
D03*
X634397Y1173127D02*
D03*
X644740Y1183140D02*
D03*
X514740Y1173140D02*
D03*
X524740Y1143140D02*
D03*
X564740Y1153140D02*
D03*
X554799Y1172538D02*
D03*
X554740Y1203140D02*
D03*
X663128Y1361570D02*
D03*
X643260Y1362260D02*
D03*
X623260D02*
D03*
X603260Y1331660D02*
D03*
Y1311660D02*
D03*
Y1271660D02*
D03*
X613260Y1281660D02*
D03*
X683260Y1232740D02*
D03*
X703260D02*
D03*
Y1213140D02*
D03*
Y1192740D02*
D03*
X683260Y1132740D02*
D03*
X703260D02*
D03*
X713260Y1112740D02*
D03*
X673260Y1123140D02*
D03*
X653260D02*
D03*
X613260D02*
D03*
X584740Y1122740D02*
D03*
X564740D02*
D03*
X544740Y1123740D02*
D03*
Y1143140D02*
D03*
X504740D02*
D03*
X515080Y1261920D02*
D03*
X574740Y1281660D02*
D03*
X575080Y1271920D02*
D03*
X564740Y1261660D02*
D03*
X543958Y1252460D02*
D03*
X554740Y1251660D02*
D03*
Y1271660D02*
D03*
X504740Y1291660D02*
D03*
X524740D02*
D03*
X534740D02*
D03*
X584740Y1301660D02*
D03*
X575080Y1331660D02*
D03*
X554740D02*
D03*
X564740Y1311660D02*
D03*
X554740Y1301660D02*
D03*
X544740Y1311660D02*
D03*
X504740Y1321660D02*
D03*
X514740Y1331660D02*
D03*
X484740Y1341660D02*
D03*
X534740D02*
D03*
X494740Y1361660D02*
D03*
X514740D02*
D03*
X574740D02*
D03*
X694670Y1161730D02*
D03*
Y1173070D02*
D03*
X663300Y1171700D02*
D03*
X675000Y1173400D02*
D03*
X695000Y1341400D02*
D03*
X625400Y1311000D02*
D03*
X634740Y1321660D02*
D03*
X623600Y1282000D02*
D03*
X634740Y1283140D02*
D03*
X664000Y1251903D02*
D03*
X644000Y1252903D02*
D03*
X633600Y1211700D02*
D03*
X654400Y1222000D02*
D03*
X604700Y1171700D02*
D03*
Y1153100D02*
D03*
X601787Y1260187D02*
D03*
X602000Y1250000D02*
D03*
X633600Y1132000D02*
D03*
Y1152000D02*
D03*
X514000Y1122400D02*
D03*
X524500Y1122900D02*
D03*
X465000Y1141400D02*
D03*
X455400Y1121000D02*
D03*
X484400Y1192000D02*
D03*
Y1182000D02*
D03*
X463400Y1163000D02*
D03*
X464400Y1182000D02*
D03*
X464000Y1203000D02*
D03*
X464400Y1222400D02*
D03*
Y1261873D02*
D03*
Y1242200D02*
D03*
X503340Y1271740D02*
D03*
X495000Y1261400D02*
D03*
X484660Y1281740D02*
D03*
X484340Y1292740D02*
D03*
X464437Y1281740D02*
D03*
X464740Y1301660D02*
D03*
X474000Y1363000D02*
D03*
X484340Y1322000D02*
D03*
X603600Y1192000D02*
D03*
X604700Y1211700D02*
D03*
X634740Y1241660D02*
D03*
X614200Y1242200D02*
D03*
X614137Y1253000D02*
D03*
X464400Y1322000D02*
D03*
X464740Y1341660D02*
D03*
X453000Y1361000D02*
D03*
X614000Y1222400D02*
D03*
X602870Y1243870D02*
D03*
X614000Y1273000D02*
D03*
D112*
X850775Y1346743D02*
D03*
X826498Y1290466D02*
D03*
X794447D02*
D03*
X802447D02*
D03*
X842775Y1290415D02*
D03*
X850775D02*
D03*
X842826Y1346743D02*
D03*
X794498Y1346743D02*
D03*
X802498Y1346743D02*
D03*
X818151Y1347091D02*
D03*
X867123Y1282119D02*
D03*
X770151Y1347091D02*
D03*
X867123Y1355091D02*
D03*
X802151Y1282119D02*
D03*
X810151D02*
D03*
X818151D02*
D03*
X875123Y1355091D02*
D03*
X883123Y1355091D02*
D03*
X891123D02*
D03*
X899123D02*
D03*
X826151Y1355091D02*
D03*
X818151Y1355091D02*
D03*
X810151D02*
D03*
X802151D02*
D03*
X794151Y1355091D02*
D03*
X786151Y1355091D02*
D03*
X794151Y1282119D02*
D03*
X786151Y1282119D02*
D03*
X778151D02*
D03*
X770151D02*
D03*
X899123D02*
D03*
X891123D02*
D03*
X883123D02*
D03*
X875123Y1282119D02*
D03*
D113*
X778151Y1355091D02*
D03*
D114*
X770151D02*
D03*
X534740Y1361660D02*
D03*
X554740D02*
D03*
X673000Y1331400D02*
D03*
D115*
X3964580Y3329540D02*
D03*
X3953580D02*
D03*
X3942580D02*
D03*
X3964580Y3340540D02*
D03*
X3953580D02*
D03*
X3942580D02*
D03*
X3964580Y3351540D02*
D03*
X3953580D02*
D03*
X3942580D02*
D03*
X3964580Y3362540D02*
D03*
X3953580D02*
D03*
X3942580D02*
D03*
X3964580Y3373540D02*
D03*
X3953580D02*
D03*
X3942580D02*
D03*
X3964580Y3384540D02*
D03*
X3953580D02*
D03*
X3942580D02*
D03*
X3964580Y3395540D02*
D03*
X3953580D02*
D03*
X3942580D02*
D03*
X3964580Y3406540D02*
D03*
X3953580D02*
D03*
X3942580D02*
D03*
X3964580Y3417540D02*
D03*
X3953580D02*
D03*
X3942580D02*
D03*
X2196760Y1848680D02*
D03*
X2207760D02*
D03*
X2218760D02*
D03*
X2229760D02*
D03*
X2240760D02*
D03*
X2196760Y1837680D02*
D03*
X2207760D02*
D03*
X2218760D02*
D03*
X2229760D02*
D03*
X2240760D02*
D03*
X2196760Y1826680D02*
D03*
X2207760D02*
D03*
X2218760D02*
D03*
X2229760D02*
D03*
X2240760D02*
D03*
X2196760Y1815680D02*
D03*
X2207760D02*
D03*
X2218760D02*
D03*
X2229760D02*
D03*
X2240760D02*
D03*
X2196760Y1804680D02*
D03*
X2207760D02*
D03*
X2218760D02*
D03*
X2229760D02*
D03*
X2240760D02*
D03*
X7492660Y1239080D02*
D03*
X7503660D02*
D03*
X7514660D02*
D03*
X7525660D02*
D03*
X7536660D02*
D03*
X7492660Y1228080D02*
D03*
X7503660D02*
D03*
X7514660D02*
D03*
X7525660D02*
D03*
X7536660D02*
D03*
X7492660Y1217080D02*
D03*
X7503660D02*
D03*
X7514660D02*
D03*
X7525660D02*
D03*
X7536660D02*
D03*
X7492660Y1206080D02*
D03*
X7503660D02*
D03*
X7514660D02*
D03*
X7525660D02*
D03*
X7536660D02*
D03*
X7492660Y1195080D02*
D03*
X7503660D02*
D03*
X7514660D02*
D03*
X7525660D02*
D03*
X7536660D02*
D03*
X7569860Y911800D02*
D03*
X7558860D02*
D03*
X7547860D02*
D03*
X7536860D02*
D03*
X7525860D02*
D03*
X7569860Y922800D02*
D03*
X7558860D02*
D03*
X7547860D02*
D03*
X7536860D02*
D03*
X7525860D02*
D03*
X7569860Y933800D02*
D03*
X7558860D02*
D03*
X7547860D02*
D03*
X7536860D02*
D03*
X7525860D02*
D03*
X7569860Y944800D02*
D03*
X7558860D02*
D03*
X7547860D02*
D03*
X7536860D02*
D03*
X7525860D02*
D03*
X7569860Y955800D02*
D03*
X7558860D02*
D03*
X7547860D02*
D03*
X7536860D02*
D03*
X7525860D02*
D03*
X7443300Y962160D02*
D03*
X7454300D02*
D03*
X7443300Y951160D02*
D03*
X7454300D02*
D03*
X5402560Y554010D02*
D03*
Y561310D02*
D03*
Y568660D02*
D03*
X5387906Y546656D02*
D03*
X5395206D02*
D03*
X5402557D02*
D03*
X5380540Y554010D02*
D03*
Y546660D02*
D03*
Y561310D02*
D03*
Y568660D02*
D03*
X5387910D02*
D03*
X5395210D02*
D03*
X-638000Y-1143500D02*
D03*
X-643750Y-1153000D02*
D03*
X-632250D02*
D03*
X-638000Y-1162500D02*
D03*
X4028420Y554010D02*
D03*
Y561310D02*
D03*
Y568660D02*
D03*
X4013766Y546656D02*
D03*
X4021067D02*
D03*
X4028416D02*
D03*
X4006400Y554010D02*
D03*
Y546660D02*
D03*
Y561310D02*
D03*
Y568660D02*
D03*
X4013770D02*
D03*
X4021070D02*
D03*
X3662660Y554010D02*
D03*
Y561310D02*
D03*
Y568660D02*
D03*
X3648007Y546656D02*
D03*
X3655306D02*
D03*
X3662657D02*
D03*
X3640640Y554010D02*
D03*
Y546660D02*
D03*
Y561310D02*
D03*
Y568660D02*
D03*
X3648010D02*
D03*
X3655310D02*
D03*
X3346540Y547080D02*
D03*
X3354340D02*
D03*
X3362140D02*
D03*
Y564280D02*
D03*
X3354340D02*
D03*
X3346540D02*
D03*
X3157200Y554010D02*
D03*
Y561310D02*
D03*
Y568660D02*
D03*
X3142546Y546656D02*
D03*
X3149846D02*
D03*
X3157196D02*
D03*
X3135180Y554010D02*
D03*
Y546660D02*
D03*
Y561310D02*
D03*
Y568660D02*
D03*
X3142550D02*
D03*
X3149850D02*
D03*
X2993481Y578201D02*
D03*
Y588201D02*
D03*
X2983481Y578201D02*
D03*
X2973481D02*
D03*
Y568201D02*
D03*
Y588201D02*
D03*
X2983481D02*
D03*
Y568201D02*
D03*
X2993481D02*
D03*
D116*
X5686040Y593440D02*
D03*
X5701280D02*
D03*
X5716520D02*
D03*
X5731760D02*
D03*
X5724140Y585820D02*
D03*
X5693660D02*
D03*
X5731760Y578200D02*
D03*
X5716520D02*
D03*
X5701280D02*
D03*
X5686040D02*
D03*
X5724140Y570580D02*
D03*
X5693660D02*
D03*
X5731760Y562960D02*
D03*
X5716520D02*
D03*
X5701280D02*
D03*
X5686040D02*
D03*
X5724140Y555340D02*
D03*
X5693660D02*
D03*
X5731760Y547720D02*
D03*
X5716520D02*
D03*
X5701280D02*
D03*
X5686040D02*
D03*
X5724140Y540100D02*
D03*
X5708900D02*
D03*
X5693660D02*
D03*
X5731760Y532480D02*
D03*
X5716520D02*
D03*
X5701280D02*
D03*
X5724140Y524860D02*
D03*
X5708900D02*
D03*
X5731760Y517240D02*
D03*
X5716520D02*
D03*
X5701280D02*
D03*
X5686040D02*
D03*
Y532480D02*
D03*
X5693660Y524860D02*
D03*
X5708900Y585820D02*
D03*
Y570580D02*
D03*
Y555340D02*
D03*
D117*
X4334600Y588200D02*
D03*
X4324600D02*
D03*
X4314600D02*
D03*
Y578200D02*
D03*
X4324600D02*
D03*
X4334600D02*
D03*
Y568200D02*
D03*
X4324600D02*
D03*
X4314600D02*
D03*
X4253320Y588200D02*
D03*
X4243320D02*
D03*
X4233320D02*
D03*
Y578200D02*
D03*
X4243320D02*
D03*
X4253320D02*
D03*
Y568200D02*
D03*
X4243320D02*
D03*
X4233320D02*
D03*
X4172040Y588200D02*
D03*
X4162040D02*
D03*
X4152040D02*
D03*
Y578200D02*
D03*
X4162040D02*
D03*
X4172040D02*
D03*
Y568200D02*
D03*
X4162040D02*
D03*
X4152040D02*
D03*
M02*
