G04*
G04 #@! TF.GenerationSoftware,Altium Limited,Altium Designer,22.11.1 (43)*
G04*
G04 Layer_Color=128*
%FSLAX44Y44*%
%MOMM*%
G71*
G04*
G04 #@! TF.SameCoordinates,685F9FB9-B41E-4883-9AF5-229453B53175*
G04*
G04*
G04 #@! TF.FilePolarity,Positive*
G04*
G01*
G75*
G04:AMPARAMS|DCode=12|XSize=0.508mm|YSize=0.508mm|CornerRadius=0.1524mm|HoleSize=0mm|Usage=FLASHONLY|Rotation=180.000|XOffset=0mm|YOffset=0mm|HoleType=Round|Shape=RoundedRectangle|*
%AMROUNDEDRECTD12*
21,1,0.5080,0.2032,0,0,180.0*
21,1,0.2032,0.5080,0,0,180.0*
1,1,0.3048,-0.1016,0.1016*
1,1,0.3048,0.1016,0.1016*
1,1,0.3048,0.1016,-0.1016*
1,1,0.3048,-0.1016,-0.1016*
%
%ADD12ROUNDEDRECTD12*%
G04:AMPARAMS|DCode=15|XSize=0.889mm|YSize=0.8636mm|CornerRadius=0.1511mm|HoleSize=0mm|Usage=FLASHONLY|Rotation=180.000|XOffset=0mm|YOffset=0mm|HoleType=Round|Shape=RoundedRectangle|*
%AMROUNDEDRECTD15*
21,1,0.8890,0.5613,0,0,180.0*
21,1,0.5867,0.8636,0,0,180.0*
1,1,0.3023,-0.2934,0.2807*
1,1,0.3023,0.2934,0.2807*
1,1,0.3023,0.2934,-0.2807*
1,1,0.3023,-0.2934,-0.2807*
%
%ADD15ROUNDEDRECTD15*%
G04:AMPARAMS|DCode=26|XSize=0.889mm|YSize=0.8636mm|CornerRadius=0.1511mm|HoleSize=0mm|Usage=FLASHONLY|Rotation=90.000|XOffset=0mm|YOffset=0mm|HoleType=Round|Shape=RoundedRectangle|*
%AMROUNDEDRECTD26*
21,1,0.8890,0.5613,0,0,90.0*
21,1,0.5867,0.8636,0,0,90.0*
1,1,0.3023,0.2807,0.2934*
1,1,0.3023,0.2807,-0.2934*
1,1,0.3023,-0.2807,-0.2934*
1,1,0.3023,-0.2807,0.2934*
%
%ADD26ROUNDEDRECTD26*%
%ADD75R,2.8000X2.8000*%
%ADD89C,0.1270*%
G04:AMPARAMS|DCode=118|XSize=0.508mm|YSize=0.508mm|CornerRadius=0.1524mm|HoleSize=0mm|Usage=FLASHONLY|Rotation=135.000|XOffset=0mm|YOffset=0mm|HoleType=Round|Shape=RoundedRectangle|*
%AMROUNDEDRECTD118*
21,1,0.5080,0.2032,0,0,135.0*
21,1,0.2032,0.5080,0,0,135.0*
1,1,0.3048,0.0000,0.1437*
1,1,0.3048,0.1437,0.0000*
1,1,0.3048,0.0000,-0.1437*
1,1,0.3048,-0.1437,0.0000*
%
%ADD118ROUNDEDRECTD118*%
G04:AMPARAMS|DCode=119|XSize=0.508mm|YSize=0.508mm|CornerRadius=0.1524mm|HoleSize=0mm|Usage=FLASHONLY|Rotation=90.000|XOffset=0mm|YOffset=0mm|HoleType=Round|Shape=RoundedRectangle|*
%AMROUNDEDRECTD119*
21,1,0.5080,0.2032,0,0,90.0*
21,1,0.2032,0.5080,0,0,90.0*
1,1,0.3048,0.1016,0.1016*
1,1,0.3048,0.1016,-0.1016*
1,1,0.3048,-0.1016,-0.1016*
1,1,0.3048,-0.1016,0.1016*
%
%ADD119ROUNDEDRECTD119*%
G36*
X11350Y117602D02*
Y118095D01*
X11158Y119060D01*
X10781Y119970D01*
X10234Y120789D01*
X9537Y121486D01*
X8718Y122033D01*
X7808Y122410D01*
X6842Y122602D01*
X6350D01*
X5857D01*
X4891Y122410D01*
X3982Y122033D01*
X3163Y121486D01*
X2466Y120789D01*
X1919Y119970D01*
X1542Y119060D01*
X1350Y118095D01*
Y117602D01*
Y117109D01*
X1542Y116144D01*
X1919Y115234D01*
X2466Y114415D01*
X3163Y113718D01*
X3982Y113171D01*
X4891Y112794D01*
X5857Y112602D01*
X6350D01*
X6842D01*
X7808Y112794D01*
X8718Y113171D01*
X9537Y113718D01*
X10234Y114415D01*
X10781Y115234D01*
X11158Y116144D01*
X11350Y117109D01*
Y117602D01*
D01*
D02*
G37*
G36*
X24558Y1686814D02*
Y1687307D01*
X24366Y1688272D01*
X23989Y1689182D01*
X23442Y1690001D01*
X22745Y1690698D01*
X21926Y1691245D01*
X21016Y1691622D01*
X20050Y1691814D01*
X19558D01*
X19066D01*
X18099Y1691622D01*
X17190Y1691245D01*
X16371Y1690698D01*
X15674Y1690001D01*
X15127Y1689182D01*
X14750Y1688272D01*
X14558Y1687307D01*
Y1686814D01*
Y1686322D01*
X14750Y1685356D01*
X15127Y1684446D01*
X15674Y1683627D01*
X16371Y1682930D01*
X17190Y1682383D01*
X18099Y1682006D01*
X19066Y1681814D01*
X19558D01*
X20050D01*
X21016Y1682006D01*
X21926Y1682383D01*
X22745Y1682930D01*
X23442Y1683627D01*
X23989Y1684446D01*
X24366Y1685356D01*
X24558Y1686322D01*
Y1686814D01*
D01*
D02*
G37*
G36*
X1986708Y227838D02*
Y228330D01*
X1986516Y229296D01*
X1986139Y230206D01*
X1985592Y231025D01*
X1984895Y231722D01*
X1984076Y232269D01*
X1983166Y232646D01*
X1982200Y232838D01*
X1981708D01*
X1981216D01*
X1980249Y232646D01*
X1979340Y232269D01*
X1978521Y231722D01*
X1977824Y231025D01*
X1977277Y230206D01*
X1976900Y229296D01*
X1976708Y228330D01*
Y227838D01*
Y227346D01*
X1976900Y226380D01*
X1977277Y225470D01*
X1977824Y224651D01*
X1978521Y223954D01*
X1979340Y223407D01*
X1980249Y223030D01*
X1981216Y222838D01*
X1981708D01*
X1982200D01*
X1983166Y223030D01*
X1984076Y223407D01*
X1984895Y223954D01*
X1985592Y224651D01*
X1986139Y225470D01*
X1986516Y226380D01*
X1986708Y227346D01*
Y227838D01*
D01*
D02*
G37*
G36*
X1952418Y1589532D02*
Y1590025D01*
X1952226Y1590990D01*
X1951849Y1591900D01*
X1951302Y1592719D01*
X1950605Y1593416D01*
X1949786Y1593963D01*
X1948876Y1594340D01*
X1947910Y1594532D01*
X1947418D01*
X1946926D01*
X1945959Y1594340D01*
X1945050Y1593963D01*
X1944231Y1593416D01*
X1943534Y1592719D01*
X1942987Y1591900D01*
X1942610Y1590990D01*
X1942418Y1590025D01*
Y1589532D01*
Y1589039D01*
X1942610Y1588073D01*
X1942987Y1587164D01*
X1943534Y1586345D01*
X1944231Y1585648D01*
X1945050Y1585101D01*
X1945959Y1584724D01*
X1946926Y1584532D01*
X1947418D01*
X1947910D01*
X1948876Y1584724D01*
X1949786Y1585101D01*
X1950605Y1585648D01*
X1951302Y1586345D01*
X1951849Y1587164D01*
X1952226Y1588073D01*
X1952418Y1589039D01*
Y1589532D01*
D01*
D02*
G37*
D12*
X686749Y1162145D02*
D03*
Y1171035D02*
D03*
X599000Y1158555D02*
D03*
Y1167445D02*
D03*
X639000Y1136955D02*
D03*
Y1145845D02*
D03*
X458000Y1128555D02*
D03*
Y1137445D02*
D03*
X477000Y1182000D02*
D03*
Y1190890D02*
D03*
X456000Y1168555D02*
D03*
Y1177445D02*
D03*
X458000Y1209000D02*
D03*
Y1217890D02*
D03*
X459955Y1247555D02*
D03*
Y1256445D02*
D03*
X477000Y1296445D02*
D03*
Y1287555D02*
D03*
X458000Y1288555D02*
D03*
Y1297445D02*
D03*
X619000Y1258493D02*
D03*
Y1267383D02*
D03*
X606851Y1254048D02*
D03*
Y1262938D02*
D03*
X607000Y1232952D02*
D03*
Y1224062D02*
D03*
X459094Y1329475D02*
D03*
Y1338365D02*
D03*
D15*
X518507Y1231000D02*
D03*
X533493D02*
D03*
D26*
X595056Y1212245D02*
D03*
Y1197260D02*
D03*
D75*
X5391540Y557660D02*
D03*
X4017400D02*
D03*
X3651640D02*
D03*
X3146180D02*
D03*
D89*
X1946402Y1597660D02*
X1948688Y1603248D01*
X1943100Y1602994D02*
X1946402Y1597660D01*
X1944624Y1619250D02*
X1946402Y1597660D01*
X1980692Y235966D02*
X1982978Y241554D01*
X1977390Y241300D02*
X1980692Y235966D01*
X1978914Y257556D02*
X1980692Y235966D01*
X5334Y125730D02*
X7620Y131318D01*
X2032Y131064D02*
X5334Y125730D01*
X3556Y147320D02*
X5334Y125730D01*
X18542Y1694942D02*
X20828Y1700530D01*
X15240Y1700276D02*
X18542Y1694942D01*
X16764Y1716532D02*
X18542Y1694942D01*
X-9140Y201035D02*
X-10410Y202304D01*
Y204843D01*
X-9140Y206113D01*
X-7871D01*
X-6601Y204843D01*
Y202304D01*
X-5332Y201035D01*
X-4062D01*
X-2792Y202304D01*
Y204843D01*
X-4062Y206113D01*
X-10410Y198495D02*
Y193417D01*
Y195956D01*
X-2792D01*
X-10410Y185800D02*
Y190878D01*
X-2792D01*
Y185800D01*
X-6601Y190878D02*
Y188339D01*
X-2792Y183260D02*
X-10410D01*
X-2792Y178182D01*
X-10410D01*
X-9140Y170564D02*
X-10410Y171834D01*
Y174373D01*
X-9140Y175643D01*
X-4062D01*
X-2792Y174373D01*
Y171834D01*
X-4062Y170564D01*
X-10410Y168025D02*
Y165486D01*
Y166756D01*
X-2792D01*
Y168025D01*
Y165486D01*
X-10410Y161677D02*
X-2792D01*
Y156599D01*
X1779Y204209D02*
Y209287D01*
X5588D01*
Y206748D01*
Y209287D01*
X9397D01*
X1779Y201669D02*
Y199130D01*
Y200400D01*
X9397D01*
Y201669D01*
Y199130D01*
X1779Y195322D02*
X9397D01*
Y191513D01*
X8127Y190243D01*
X3049D01*
X1779Y191513D01*
Y195322D01*
Y187704D02*
X8127D01*
X9397Y186434D01*
Y183895D01*
X8127Y182626D01*
X1779D01*
X3049Y175008D02*
X1779Y176278D01*
Y178817D01*
X3049Y180086D01*
X8127D01*
X9397Y178817D01*
Y176278D01*
X8127Y175008D01*
X1779Y172469D02*
Y169930D01*
Y171199D01*
X9397D01*
Y172469D01*
Y169930D01*
Y166121D02*
X4318D01*
X1779Y163582D01*
X4318Y161043D01*
X9397D01*
X5588D01*
Y166121D01*
X1779Y158503D02*
X9397D01*
Y153425D01*
X13968Y221983D02*
X21586D01*
X17777D01*
Y216905D01*
X13968D01*
X21586D01*
Y214365D02*
X16508D01*
X13968Y211826D01*
X16508Y209287D01*
X21586D01*
X17777D01*
Y214365D01*
X13968Y206748D02*
X21586D01*
Y201669D01*
X13968Y194052D02*
Y199130D01*
X17777D01*
Y196591D01*
Y199130D01*
X21586D01*
X17777Y191513D02*
Y186434D01*
X13968Y178817D02*
Y183895D01*
X21586D01*
Y178817D01*
X17777Y183895D02*
Y181356D01*
X13968Y176278D02*
Y171199D01*
Y173738D01*
X21586D01*
X15238Y163582D02*
X13968Y164851D01*
Y167390D01*
X15238Y168660D01*
X20316D01*
X21586Y167390D01*
Y164851D01*
X20316Y163582D01*
X13968Y161043D02*
X21586D01*
X17777D01*
Y155964D01*
X13968D01*
X21586D01*
X13968Y148347D02*
Y153425D01*
X21586D01*
Y148347D01*
X17777Y153425D02*
Y150886D01*
X13968Y145808D02*
X21586D01*
Y141999D01*
X20316Y140729D01*
X15238D01*
X13968Y141999D01*
Y145808D01*
X1931928Y1672965D02*
X1930658Y1674234D01*
Y1676773D01*
X1931928Y1678043D01*
X1933197D01*
X1934467Y1676773D01*
Y1674234D01*
X1935737Y1672965D01*
X1937006D01*
X1938276Y1674234D01*
Y1676773D01*
X1937006Y1678043D01*
X1930658Y1670425D02*
Y1665347D01*
Y1667886D01*
X1938276D01*
X1930658Y1657730D02*
Y1662808D01*
X1938276D01*
Y1657730D01*
X1934467Y1662808D02*
Y1660269D01*
X1938276Y1655190D02*
X1930658D01*
X1938276Y1650112D01*
X1930658D01*
X1931928Y1642495D02*
X1930658Y1643764D01*
Y1646303D01*
X1931928Y1647573D01*
X1937006D01*
X1938276Y1646303D01*
Y1643764D01*
X1937006Y1642495D01*
X1930658Y1639955D02*
Y1637416D01*
Y1638686D01*
X1938276D01*
Y1639955D01*
Y1637416D01*
X1930658Y1633607D02*
X1938276D01*
Y1628529D01*
X1942847Y1676139D02*
Y1681217D01*
X1946656D01*
Y1678678D01*
Y1681217D01*
X1950465D01*
X1942847Y1673599D02*
Y1671060D01*
Y1672330D01*
X1950465D01*
Y1673599D01*
Y1671060D01*
X1942847Y1667251D02*
X1950465D01*
Y1663443D01*
X1949195Y1662173D01*
X1944117D01*
X1942847Y1663443D01*
Y1667251D01*
Y1659634D02*
X1949195D01*
X1950465Y1658364D01*
Y1655825D01*
X1949195Y1654556D01*
X1942847D01*
X1944117Y1646938D02*
X1942847Y1648208D01*
Y1650747D01*
X1944117Y1652016D01*
X1949195D01*
X1950465Y1650747D01*
Y1648208D01*
X1949195Y1646938D01*
X1942847Y1644399D02*
Y1641860D01*
Y1643129D01*
X1950465D01*
Y1644399D01*
Y1641860D01*
Y1638051D02*
X1945386D01*
X1942847Y1635512D01*
X1945386Y1632973D01*
X1950465D01*
X1946656D01*
Y1638051D01*
X1942847Y1630433D02*
X1950465D01*
Y1625355D01*
X1955036Y1693913D02*
X1962654D01*
X1958845D01*
Y1688835D01*
X1955036D01*
X1962654D01*
Y1686295D02*
X1957576D01*
X1955036Y1683756D01*
X1957576Y1681217D01*
X1962654D01*
X1958845D01*
Y1686295D01*
X1955036Y1678678D02*
X1962654D01*
Y1673599D01*
X1955036Y1665982D02*
Y1671060D01*
X1958845D01*
Y1668521D01*
Y1671060D01*
X1962654D01*
X1958845Y1663443D02*
Y1658364D01*
X1955036Y1650747D02*
Y1655825D01*
X1962654D01*
Y1650747D01*
X1958845Y1655825D02*
Y1653286D01*
X1955036Y1648208D02*
Y1643129D01*
Y1645668D01*
X1962654D01*
X1956306Y1635512D02*
X1955036Y1636781D01*
Y1639321D01*
X1956306Y1640590D01*
X1961384D01*
X1962654Y1639321D01*
Y1636781D01*
X1961384Y1635512D01*
X1955036Y1632973D02*
X1962654D01*
X1958845D01*
Y1627894D01*
X1955036D01*
X1962654D01*
X1955036Y1620277D02*
Y1625355D01*
X1962654D01*
Y1620277D01*
X1958845Y1625355D02*
Y1622816D01*
X1955036Y1617737D02*
X1962654D01*
Y1613929D01*
X1961384Y1612659D01*
X1956306D01*
X1955036Y1613929D01*
Y1617737D01*
X1966218Y311271D02*
X1964948Y312540D01*
Y315079D01*
X1966218Y316349D01*
X1967487D01*
X1968757Y315079D01*
Y312540D01*
X1970027Y311271D01*
X1971296D01*
X1972566Y312540D01*
Y315079D01*
X1971296Y316349D01*
X1964948Y308731D02*
Y303653D01*
Y306192D01*
X1972566D01*
X1964948Y296036D02*
Y301114D01*
X1972566D01*
Y296036D01*
X1968757Y301114D02*
Y298575D01*
X1972566Y293496D02*
X1964948D01*
X1972566Y288418D01*
X1964948D01*
X1966218Y280800D02*
X1964948Y282070D01*
Y284609D01*
X1966218Y285879D01*
X1971296D01*
X1972566Y284609D01*
Y282070D01*
X1971296Y280800D01*
X1964948Y278261D02*
Y275722D01*
Y276992D01*
X1972566D01*
Y278261D01*
Y275722D01*
X1964948Y271913D02*
X1972566D01*
Y266835D01*
X1977137Y314445D02*
Y319523D01*
X1980946D01*
Y316984D01*
Y319523D01*
X1984755D01*
X1977137Y311905D02*
Y309366D01*
Y310636D01*
X1984755D01*
Y311905D01*
Y309366D01*
X1977137Y305557D02*
X1984755D01*
Y301749D01*
X1983485Y300479D01*
X1978407D01*
X1977137Y301749D01*
Y305557D01*
Y297940D02*
X1983485D01*
X1984755Y296670D01*
Y294131D01*
X1983485Y292862D01*
X1977137D01*
X1978407Y285244D02*
X1977137Y286514D01*
Y289053D01*
X1978407Y290322D01*
X1983485D01*
X1984755Y289053D01*
Y286514D01*
X1983485Y285244D01*
X1977137Y282705D02*
Y280166D01*
Y281435D01*
X1984755D01*
Y282705D01*
Y280166D01*
Y276357D02*
X1979676D01*
X1977137Y273818D01*
X1979676Y271279D01*
X1984755D01*
X1980946D01*
Y276357D01*
X1977137Y268739D02*
X1984755D01*
Y263661D01*
X1989326Y332219D02*
X1996944D01*
X1993135D01*
Y327141D01*
X1989326D01*
X1996944D01*
Y324601D02*
X1991866D01*
X1989326Y322062D01*
X1991866Y319523D01*
X1996944D01*
X1993135D01*
Y324601D01*
X1989326Y316984D02*
X1996944D01*
Y311905D01*
X1989326Y304288D02*
Y309366D01*
X1993135D01*
Y306827D01*
Y309366D01*
X1996944D01*
X1993135Y301749D02*
Y296670D01*
X1989326Y289053D02*
Y294131D01*
X1996944D01*
Y289053D01*
X1993135Y294131D02*
Y291592D01*
X1989326Y286514D02*
Y281435D01*
Y283974D01*
X1996944D01*
X1990596Y273818D02*
X1989326Y275087D01*
Y277626D01*
X1990596Y278896D01*
X1995674D01*
X1996944Y277626D01*
Y275087D01*
X1995674Y273818D01*
X1989326Y271279D02*
X1996944D01*
X1993135D01*
Y266200D01*
X1989326D01*
X1996944D01*
X1989326Y258583D02*
Y263661D01*
X1996944D01*
Y258583D01*
X1993135Y263661D02*
Y261122D01*
X1989326Y256043D02*
X1996944D01*
Y252235D01*
X1995674Y250965D01*
X1990596D01*
X1989326Y252235D01*
Y256043D01*
X4068Y1770247D02*
X2798Y1771516D01*
Y1774055D01*
X4068Y1775325D01*
X5337D01*
X6607Y1774055D01*
Y1771516D01*
X7876Y1770247D01*
X9146D01*
X10416Y1771516D01*
Y1774055D01*
X9146Y1775325D01*
X2798Y1767707D02*
Y1762629D01*
Y1765168D01*
X10416D01*
X2798Y1755012D02*
Y1760090D01*
X10416D01*
Y1755012D01*
X6607Y1760090D02*
Y1757551D01*
X10416Y1752472D02*
X2798D01*
X10416Y1747394D01*
X2798D01*
X4068Y1739776D02*
X2798Y1741046D01*
Y1743585D01*
X4068Y1744855D01*
X9146D01*
X10416Y1743585D01*
Y1741046D01*
X9146Y1739776D01*
X2798Y1737237D02*
Y1734698D01*
Y1735968D01*
X10416D01*
Y1737237D01*
Y1734698D01*
X2798Y1730889D02*
X10416D01*
Y1725811D01*
X14987Y1773421D02*
Y1778499D01*
X18796D01*
Y1775960D01*
Y1778499D01*
X22605D01*
X14987Y1770881D02*
Y1768342D01*
Y1769612D01*
X22605D01*
Y1770881D01*
Y1768342D01*
X14987Y1764534D02*
X22605D01*
Y1760725D01*
X21335Y1759455D01*
X16257D01*
X14987Y1760725D01*
Y1764534D01*
Y1756916D02*
X21335D01*
X22605Y1755646D01*
Y1753107D01*
X21335Y1751838D01*
X14987D01*
X16257Y1744220D02*
X14987Y1745490D01*
Y1748029D01*
X16257Y1749298D01*
X21335D01*
X22605Y1748029D01*
Y1745490D01*
X21335Y1744220D01*
X14987Y1741681D02*
Y1739142D01*
Y1740411D01*
X22605D01*
Y1741681D01*
Y1739142D01*
Y1735333D02*
X17526D01*
X14987Y1732794D01*
X17526Y1730255D01*
X22605D01*
X18796D01*
Y1735333D01*
X14987Y1727715D02*
X22605D01*
Y1722637D01*
X27176Y1791195D02*
X34794D01*
X30985D01*
Y1786116D01*
X27176D01*
X34794D01*
Y1783577D02*
X29715D01*
X27176Y1781038D01*
X29715Y1778499D01*
X34794D01*
X30985D01*
Y1783577D01*
X27176Y1775960D02*
X34794D01*
Y1770881D01*
X27176Y1763264D02*
Y1768342D01*
X30985D01*
Y1765803D01*
Y1768342D01*
X34794D01*
X30985Y1760725D02*
Y1755646D01*
X27176Y1748029D02*
Y1753107D01*
X34794D01*
Y1748029D01*
X30985Y1753107D02*
Y1750568D01*
X27176Y1745490D02*
Y1740411D01*
Y1742950D01*
X34794D01*
X28446Y1732794D02*
X27176Y1734063D01*
Y1736602D01*
X28446Y1737872D01*
X33524D01*
X34794Y1736602D01*
Y1734063D01*
X33524Y1732794D01*
X27176Y1730255D02*
X34794D01*
X30985D01*
Y1725176D01*
X27176D01*
X34794D01*
X27176Y1717559D02*
Y1722637D01*
X34794D01*
Y1717559D01*
X30985Y1722637D02*
Y1720098D01*
X27176Y1715020D02*
X34794D01*
Y1711211D01*
X33524Y1709941D01*
X28446D01*
X27176Y1711211D01*
Y1715020D01*
D118*
X647883Y1176543D02*
D03*
X641597Y1170257D02*
D03*
X626743Y1323143D02*
D03*
X620457Y1316857D02*
D03*
X489857Y1266857D02*
D03*
X496143Y1273143D02*
D03*
D119*
X677445Y1167445D02*
D03*
X668555D02*
D03*
X686365Y1301255D02*
D03*
X695255D02*
D03*
X678110Y1337000D02*
D03*
X687000D02*
D03*
X693444Y1316857D02*
D03*
X684554D02*
D03*
X638490Y1277000D02*
D03*
X629600D02*
D03*
X658845Y1247555D02*
D03*
X649955D02*
D03*
X647890Y1217400D02*
D03*
X639000D02*
D03*
X510110Y1127920D02*
D03*
X519000D02*
D03*
X627890Y1237400D02*
D03*
X619000D02*
D03*
X459955Y1358000D02*
D03*
X468845D02*
D03*
X466555Y1329475D02*
D03*
X475445D02*
D03*
M02*
