%TF.GenerationSoftware,Altium Limited,Altium Designer,23.11.1 (41)*%
G04 Layer_Color=16711935*
%FSLAX45Y45*%
%MOMM*%
%TF.SameCoordinates,5B37CA9A-06B1-4671-AC7C-9F047A950D05*%
%TF.FilePolarity,Negative*%
%TF.FileFunction,Soldermask,Bot*%
%TF.Part,Single*%
G01*
G75*
%TA.AperFunction,SMDPad,CuDef*%
G04:AMPARAMS|DCode=161|XSize=2.627mm|YSize=1.627mm|CornerRadius=0.3635mm|HoleSize=0mm|Usage=FLASHONLY|Rotation=90.000|XOffset=0mm|YOffset=0mm|HoleType=Round|Shape=RoundedRectangle|*
%AMROUNDEDRECTD161*
21,1,2.62700,0.90000,0,0,90.0*
21,1,1.90000,1.62700,0,0,90.0*
1,1,0.72700,0.45000,0.95000*
1,1,0.72700,0.45000,-0.95000*
1,1,0.72700,-0.45000,-0.95000*
1,1,0.72700,-0.45000,0.95000*
%
%ADD161ROUNDEDRECTD161*%
G04:AMPARAMS|DCode=162|XSize=1.9304mm|YSize=1.3208mm|CornerRadius=0.26645mm|HoleSize=0mm|Usage=FLASHONLY|Rotation=180.000|XOffset=0mm|YOffset=0mm|HoleType=Round|Shape=RoundedRectangle|*
%AMROUNDEDRECTD162*
21,1,1.93040,0.78791,0,0,180.0*
21,1,1.39751,1.32080,0,0,180.0*
1,1,0.53289,-0.69875,0.39395*
1,1,0.53289,0.69875,0.39395*
1,1,0.53289,0.69875,-0.39395*
1,1,0.53289,-0.69875,-0.39395*
%
%ADD162ROUNDEDRECTD162*%
G04:AMPARAMS|DCode=163|XSize=1.524mm|YSize=1.2192mm|CornerRadius=0.26556mm|HoleSize=0mm|Usage=FLASHONLY|Rotation=180.000|XOffset=0mm|YOffset=0mm|HoleType=Round|Shape=RoundedRectangle|*
%AMROUNDEDRECTD163*
21,1,1.52400,0.68809,0,0,180.0*
21,1,0.99289,1.21920,0,0,180.0*
1,1,0.53111,-0.49644,0.34404*
1,1,0.53111,0.49644,0.34404*
1,1,0.53111,0.49644,-0.34404*
1,1,0.53111,-0.49644,-0.34404*
%
%ADD163ROUNDEDRECTD163*%
G04:AMPARAMS|DCode=164|XSize=0.635mm|YSize=0.635mm|CornerRadius=0.2159mm|HoleSize=0mm|Usage=FLASHONLY|Rotation=180.000|XOffset=0mm|YOffset=0mm|HoleType=Round|Shape=RoundedRectangle|*
%AMROUNDEDRECTD164*
21,1,0.63500,0.20320,0,0,180.0*
21,1,0.20320,0.63500,0,0,180.0*
1,1,0.43180,-0.10160,0.10160*
1,1,0.43180,0.10160,0.10160*
1,1,0.43180,0.10160,-0.10160*
1,1,0.43180,-0.10160,-0.10160*
%
%ADD164ROUNDEDRECTD164*%
%ADD165R,0.58420X0.43180*%
G04:AMPARAMS|DCode=167|XSize=1.524mm|YSize=1.2192mm|CornerRadius=0.26556mm|HoleSize=0mm|Usage=FLASHONLY|Rotation=90.000|XOffset=0mm|YOffset=0mm|HoleType=Round|Shape=RoundedRectangle|*
%AMROUNDEDRECTD167*
21,1,1.52400,0.68809,0,0,90.0*
21,1,0.99289,1.21920,0,0,90.0*
1,1,0.53111,0.34404,0.49644*
1,1,0.53111,0.34404,-0.49644*
1,1,0.53111,-0.34404,-0.49644*
1,1,0.53111,-0.34404,0.49644*
%
%ADD167ROUNDEDRECTD167*%
G04:AMPARAMS|DCode=176|XSize=2.627mm|YSize=1.627mm|CornerRadius=0.3635mm|HoleSize=0mm|Usage=FLASHONLY|Rotation=180.000|XOffset=0mm|YOffset=0mm|HoleType=Round|Shape=RoundedRectangle|*
%AMROUNDEDRECTD176*
21,1,2.62700,0.90000,0,0,180.0*
21,1,1.90000,1.62700,0,0,180.0*
1,1,0.72700,-0.95000,0.45000*
1,1,0.72700,0.95000,0.45000*
1,1,0.72700,0.95000,-0.45000*
1,1,0.72700,-0.95000,-0.45000*
%
%ADD176ROUNDEDRECTD176*%
%ADD180R,2.94000X2.94000*%
G04:AMPARAMS|DCode=183|XSize=0.635mm|YSize=0.635mm|CornerRadius=0.2159mm|HoleSize=0mm|Usage=FLASHONLY|Rotation=90.000|XOffset=0mm|YOffset=0mm|HoleType=Round|Shape=RoundedRectangle|*
%AMROUNDEDRECTD183*
21,1,0.63500,0.20320,0,0,90.0*
21,1,0.20320,0.63500,0,0,90.0*
1,1,0.43180,0.10160,0.10160*
1,1,0.43180,0.10160,-0.10160*
1,1,0.43180,-0.10160,-0.10160*
1,1,0.43180,-0.10160,0.10160*
%
%ADD183ROUNDEDRECTD183*%
%ADD186R,0.83820X1.14300*%
%ADD191R,2.94000X2.94000*%
%ADD197R,0.43180X0.58420*%
G04:AMPARAMS|DCode=198|XSize=1.9304mm|YSize=1.3208mm|CornerRadius=0.26645mm|HoleSize=0mm|Usage=FLASHONLY|Rotation=90.000|XOffset=0mm|YOffset=0mm|HoleType=Round|Shape=RoundedRectangle|*
%AMROUNDEDRECTD198*
21,1,1.93040,0.78791,0,0,90.0*
21,1,1.39751,1.32080,0,0,90.0*
1,1,0.53289,0.39395,0.69875*
1,1,0.53289,0.39395,-0.69875*
1,1,0.53289,-0.39395,-0.69875*
1,1,0.53289,-0.39395,0.69875*
%
%ADD198ROUNDEDRECTD198*%
%ADD206R,1.14300X0.83820*%
%ADD207C,3.00000*%
G04:AMPARAMS|DCode=208|XSize=2.4632mm|YSize=2.3632mm|CornerRadius=0.6416mm|HoleSize=0mm|Usage=FLASHONLY|Rotation=180.000|XOffset=0mm|YOffset=0mm|HoleType=Round|Shape=RoundedRectangle|*
%AMROUNDEDRECTD208*
21,1,2.46320,1.08000,0,0,180.0*
21,1,1.18000,2.36320,0,0,180.0*
1,1,1.28320,-0.59000,0.54000*
1,1,1.28320,0.59000,0.54000*
1,1,1.28320,0.59000,-0.54000*
1,1,1.28320,-0.59000,-0.54000*
%
%ADD208ROUNDEDRECTD208*%
G04:AMPARAMS|DCode=229|XSize=0.7424mm|YSize=0.6024mm|CornerRadius=0.1887mm|HoleSize=0mm|Usage=FLASHONLY|Rotation=90.000|XOffset=0mm|YOffset=0mm|HoleType=Round|Shape=RoundedRectangle|*
%AMROUNDEDRECTD229*
21,1,0.74240,0.22500,0,0,90.0*
21,1,0.36500,0.60240,0,0,90.0*
1,1,0.37740,0.11250,0.18250*
1,1,0.37740,0.11250,-0.18250*
1,1,0.37740,-0.11250,-0.18250*
1,1,0.37740,-0.11250,0.18250*
%
%ADD229ROUNDEDRECTD229*%
%ADD230R,0.60240X0.74240*%
%TA.AperFunction,ComponentPad*%
%ADD241C,6.34000*%
%ADD242C,3.62700*%
%ADD243C,2.32700*%
%ADD244C,3.13720*%
%ADD245C,3.14000*%
%ADD246R,3.14000X3.14000*%
%ADD247R,2.14500X2.14500*%
%ADD248C,2.14500*%
%ADD249C,1.74000*%
%ADD250C,0.72700*%
%ADD251C,1.65100*%
G04:AMPARAMS|DCode=252|XSize=1.651mm|YSize=1.651mm|CornerRadius=0mm|HoleSize=0mm|Usage=FLASHONLY|Rotation=0.000|XOffset=0mm|YOffset=0mm|HoleType=Round|Shape=Octagon|*
%AMOCTAGOND252*
4,1,8,0.82550,-0.41275,0.82550,0.41275,0.41275,0.82550,-0.41275,0.82550,-0.82550,0.41275,-0.82550,-0.41275,-0.41275,-0.82550,0.41275,-0.82550,0.82550,-0.41275,0.0*
%
%ADD252OCTAGOND252*%

%ADD253C,3.93700*%
%ADD254C,1.67640*%
%TA.AperFunction,ViaPad*%
%ADD255C,0.30000*%
%TA.AperFunction,SMDPad,CuDef*%
%ADD256R,0.40000X0.65000*%
%ADD257R,0.50000X0.65000*%
G04:AMPARAMS|DCode=258|XSize=0.7424mm|YSize=0.6024mm|CornerRadius=0.1887mm|HoleSize=0mm|Usage=FLASHONLY|Rotation=0.000|XOffset=0mm|YOffset=0mm|HoleType=Round|Shape=RoundedRectangle|*
%AMROUNDEDRECTD258*
21,1,0.74240,0.22500,0,0,0.0*
21,1,0.36500,0.60240,0,0,0.0*
1,1,0.37740,0.18250,-0.11250*
1,1,0.37740,-0.18250,-0.11250*
1,1,0.37740,-0.18250,0.11250*
1,1,0.37740,0.18250,0.11250*
%
%ADD258ROUNDEDRECTD258*%
%ADD259R,0.74240X0.60240*%
D161*
X8288000Y7518400D02*
D03*
X7968000D02*
D03*
X13810001Y5626100D02*
D03*
X14130000D02*
D03*
X13622000Y4318000D02*
D03*
X13302000D02*
D03*
D162*
X14845500Y7823200D02*
D03*
Y8112760D02*
D03*
X16255200Y7485380D02*
D03*
Y7195820D02*
D03*
X11811000Y2557780D02*
D03*
Y2268220D02*
D03*
X13601700Y1198880D02*
D03*
Y909320D02*
D03*
X19414000Y2903220D02*
D03*
Y3192780D02*
D03*
X15036800Y3220720D02*
D03*
Y3510280D02*
D03*
X15239999Y2392680D02*
D03*
Y2103120D02*
D03*
D163*
X13665199Y6823710D02*
D03*
Y6993890D02*
D03*
X12852400Y7026910D02*
D03*
Y7197090D02*
D03*
D164*
X11899976Y8111084D02*
D03*
Y8199984D02*
D03*
X11493500Y6800850D02*
D03*
Y6711950D02*
D03*
X17031837Y2593285D02*
D03*
Y2504385D02*
D03*
Y2390085D02*
D03*
Y2301185D02*
D03*
X812800Y3956050D02*
D03*
Y3867150D02*
D03*
X17576801Y6191250D02*
D03*
Y6102350D02*
D03*
Y5899150D02*
D03*
Y5988050D02*
D03*
X14376401Y3511550D02*
D03*
Y3600450D02*
D03*
Y3803650D02*
D03*
Y3714750D02*
D03*
X11023600Y4159250D02*
D03*
Y4070350D02*
D03*
Y3867150D02*
D03*
Y3956050D02*
D03*
X3804920Y8874850D02*
D03*
Y8963750D02*
D03*
Y9217750D02*
D03*
Y9128850D02*
D03*
X2336800Y6153150D02*
D03*
Y6242050D02*
D03*
Y6356350D02*
D03*
Y6445250D02*
D03*
X723900Y2597150D02*
D03*
Y2686050D02*
D03*
X622300D02*
D03*
Y2597150D02*
D03*
X520700Y2686050D02*
D03*
Y2597150D02*
D03*
X12499975Y6811086D02*
D03*
Y6899986D02*
D03*
X12192000Y6813550D02*
D03*
Y6902450D02*
D03*
X13199974Y7811084D02*
D03*
Y7899984D02*
D03*
X13599973Y8311083D02*
D03*
Y8399983D02*
D03*
X13299977Y8311087D02*
D03*
Y8399987D02*
D03*
X12399975Y7511085D02*
D03*
Y7599985D02*
D03*
X12799974Y7711084D02*
D03*
Y7799984D02*
D03*
X11499977Y8088887D02*
D03*
Y7999987D02*
D03*
X15899600Y7029450D02*
D03*
Y6940550D02*
D03*
X7061200Y7727950D02*
D03*
Y7816850D02*
D03*
X14224001Y5022850D02*
D03*
Y5111750D02*
D03*
Y5226050D02*
D03*
Y5314950D02*
D03*
X4114800Y2838450D02*
D03*
Y2749550D02*
D03*
X3251200Y2889250D02*
D03*
Y2800350D02*
D03*
X4114800Y1987550D02*
D03*
Y2076450D02*
D03*
X3251200D02*
D03*
Y1987550D02*
D03*
X12113377Y4465337D02*
D03*
Y4554237D02*
D03*
X18376410Y1450050D02*
D03*
Y1538950D02*
D03*
X18478011Y1450050D02*
D03*
Y1538950D02*
D03*
X18579610Y1450050D02*
D03*
Y1538950D02*
D03*
X15239999Y3168650D02*
D03*
Y3257550D02*
D03*
X15036800Y2444750D02*
D03*
Y2355850D02*
D03*
D165*
X15849600Y5046980D02*
D03*
Y4991100D02*
D03*
X15748000Y5046980D02*
D03*
Y4991100D02*
D03*
D167*
X12734290Y7975600D02*
D03*
X12564110D02*
D03*
X12404090Y7226300D02*
D03*
X12233910D02*
D03*
X13648689Y8026400D02*
D03*
X13478510D02*
D03*
X12487910Y8432800D02*
D03*
X12658090D02*
D03*
X11735067Y8499983D02*
D03*
X11564887D02*
D03*
X11982450Y8856980D02*
D03*
X11812270D02*
D03*
X11802110Y7721600D02*
D03*
X11972290D02*
D03*
X12901930Y7452360D02*
D03*
X13072110D02*
D03*
D176*
X7061200Y8018800D02*
D03*
Y8338800D02*
D03*
D180*
X7367400Y7951810D02*
D03*
X3699835Y8034840D02*
D03*
X9139300Y4596000D02*
D03*
D183*
X12311075Y7899984D02*
D03*
X12399975D02*
D03*
X11899976Y7499985D02*
D03*
X11988876D02*
D03*
X11804650Y6997700D02*
D03*
X11893550D02*
D03*
X11711076Y6899986D02*
D03*
X11799976D02*
D03*
X13455650Y7670800D02*
D03*
X13366750D02*
D03*
X361950Y3708400D02*
D03*
X450850D02*
D03*
X654050D02*
D03*
X565150D02*
D03*
Y3606800D02*
D03*
X654050D02*
D03*
X6965950Y6908800D02*
D03*
X7054850D02*
D03*
X7258050D02*
D03*
X7169150D02*
D03*
X17938750Y4876800D02*
D03*
X18027650D02*
D03*
X17735550D02*
D03*
X17824451D02*
D03*
X520700Y2844800D02*
D03*
X609600D02*
D03*
X13658850Y6553200D02*
D03*
X13569949D02*
D03*
X13392149Y6896100D02*
D03*
X13303250D02*
D03*
X13711072Y7799984D02*
D03*
X13799973D02*
D03*
X12799974Y8799982D02*
D03*
X12888873D02*
D03*
X13004800Y8699500D02*
D03*
X13093700D02*
D03*
X13111073Y8899982D02*
D03*
X13199974D02*
D03*
X12399977Y8799987D02*
D03*
X12311077D02*
D03*
X11699977Y7399985D02*
D03*
X11788877D02*
D03*
X13061951Y7061200D02*
D03*
X13150850D02*
D03*
X12807950Y6901180D02*
D03*
X12896851D02*
D03*
X12889230Y6601460D02*
D03*
X12800330D02*
D03*
X12503150Y7797800D02*
D03*
X12592050D02*
D03*
X12088876Y8599983D02*
D03*
X11999976D02*
D03*
X12592050Y8686800D02*
D03*
X12503150D02*
D03*
X12399975Y8899982D02*
D03*
X12311075D02*
D03*
X7410450Y8331200D02*
D03*
X7321550D02*
D03*
X7423150Y7416800D02*
D03*
X7512050D02*
D03*
X7626350D02*
D03*
X7715250D02*
D03*
X13874750Y4610100D02*
D03*
X13963651D02*
D03*
X3983990Y3162390D02*
D03*
X3895090D02*
D03*
X3092450Y3200400D02*
D03*
X3003550D02*
D03*
X4006850Y2387600D02*
D03*
X3917950D02*
D03*
X3092450D02*
D03*
X3003550D02*
D03*
X13938251Y1130300D02*
D03*
X13849350D02*
D03*
X13944600Y1564640D02*
D03*
X13855701D02*
D03*
X13944600Y1767840D02*
D03*
X13855701D02*
D03*
X13938251Y1333500D02*
D03*
X13849350D02*
D03*
X11853027Y3950987D02*
D03*
X11764127D02*
D03*
X11853027Y3747787D02*
D03*
X11764127D02*
D03*
X12706350Y4013200D02*
D03*
X12795250D02*
D03*
X18556750Y2946400D02*
D03*
X18645650D02*
D03*
X18442450D02*
D03*
X18353551D02*
D03*
X18899651Y2895600D02*
D03*
X18810750D02*
D03*
X19013950D02*
D03*
X19102850D02*
D03*
X18992360Y1342100D02*
D03*
X19081261D02*
D03*
X18992360Y1545300D02*
D03*
X19081261D02*
D03*
X18992360Y1443700D02*
D03*
X19081261D02*
D03*
X19115550Y2997200D02*
D03*
X19204449D02*
D03*
X9353550Y3340100D02*
D03*
X9442450D02*
D03*
X9137650D02*
D03*
X9048750D02*
D03*
X9461500Y2438400D02*
D03*
X9550400D02*
D03*
X9258300D02*
D03*
X9347200D02*
D03*
X11788877Y6599987D02*
D03*
X11699977D02*
D03*
D186*
X16754977Y2576865D02*
D03*
X16848958Y2343185D02*
D03*
X16660999D02*
D03*
X17322800Y6162040D02*
D03*
X17416780Y5928360D02*
D03*
X17228819D02*
D03*
X14122400Y3774440D02*
D03*
X14216380Y3540760D02*
D03*
X14028419D02*
D03*
X10675620Y3896360D02*
D03*
X10769600Y4130040D02*
D03*
X10863580Y3896360D02*
D03*
X3558540Y9152980D02*
D03*
X3652520Y8919300D02*
D03*
X3464560D02*
D03*
X2590800Y6182360D02*
D03*
X2496820Y6416040D02*
D03*
X2684780D02*
D03*
X3860800Y3012440D02*
D03*
X3954780Y2778760D02*
D03*
X3766820D02*
D03*
X2903220D02*
D03*
X2997200Y3012440D02*
D03*
X3091180Y2778760D02*
D03*
X3766820Y2016760D02*
D03*
X3860800Y2250440D02*
D03*
X3954780Y2016760D02*
D03*
X2903220D02*
D03*
X2997200Y2250440D02*
D03*
X3091180Y2016760D02*
D03*
D191*
X13665199Y4914900D02*
D03*
D197*
X19104120Y3098800D02*
D03*
X19160001D02*
D03*
X19104120Y3200400D02*
D03*
X19160001D02*
D03*
X9189720Y2730500D02*
D03*
X9245600D02*
D03*
X9494520Y2336800D02*
D03*
X9550400D02*
D03*
X9347200D02*
D03*
X9291320D02*
D03*
D198*
X12220057Y3493787D02*
D03*
X11930497D02*
D03*
X18434830Y1240500D02*
D03*
X18724390D02*
D03*
X19029190Y1748500D02*
D03*
X18739630D02*
D03*
D206*
X640080Y3954780D02*
D03*
X406400Y3860800D02*
D03*
Y4048760D02*
D03*
X7014210Y6642100D02*
D03*
X7247890Y6736080D02*
D03*
Y6548120D02*
D03*
X17764760Y4622800D02*
D03*
X17998441Y4716780D02*
D03*
Y4528820D02*
D03*
D207*
X1422400Y9296400D02*
D03*
X11176000Y2768600D02*
D03*
X6451600Y2692400D02*
D03*
X19862801Y6756400D02*
D03*
D208*
X10261600Y1464200D02*
D03*
Y974200D02*
D03*
X9753600Y1464200D02*
D03*
Y974200D02*
D03*
X9245600Y1464200D02*
D03*
Y974200D02*
D03*
X8737600Y1464200D02*
D03*
Y974200D02*
D03*
D229*
X9042400Y3140300D02*
D03*
X10261600D02*
D03*
D230*
X9042400Y2930300D02*
D03*
X10261600D02*
D03*
D241*
X16967200Y1447800D02*
D03*
X19574646Y9311709D02*
D03*
X533400Y9499600D02*
D03*
X4025798Y3806550D02*
D03*
D242*
X14438298Y9761666D02*
D03*
X10418298Y5731666D02*
D03*
D243*
X19151601Y507200D02*
D03*
X19405600Y761200D02*
D03*
Y253200D02*
D03*
X18897600D02*
D03*
Y761200D02*
D03*
X17729201Y508000D02*
D03*
X17983200Y762000D02*
D03*
Y254000D02*
D03*
X17475200D02*
D03*
Y762000D02*
D03*
X16306799Y508000D02*
D03*
X16560800Y762000D02*
D03*
Y254000D02*
D03*
X16052800D02*
D03*
Y762000D02*
D03*
X14782800Y508000D02*
D03*
X15036800Y762000D02*
D03*
Y254000D02*
D03*
X14528799D02*
D03*
Y762000D02*
D03*
D244*
X1385200Y287050D02*
D03*
X545200D02*
D03*
D245*
Y1017050D02*
D03*
X965200D02*
D03*
X545200Y1567050D02*
D03*
X965200D02*
D03*
X1385200D02*
D03*
X5240000Y711200D02*
D03*
X6444000D02*
D03*
D246*
X1385200Y1017050D02*
D03*
D247*
X8749600Y457200D02*
D03*
D248*
X9249600D02*
D03*
X9749600D02*
D03*
X10249600D02*
D03*
D249*
X5967000Y1181200D02*
D03*
X5717000D02*
D03*
X5967000Y981200D02*
D03*
X5717000D02*
D03*
D250*
X12400600Y4095600D02*
D03*
Y3988600D02*
D03*
Y3881600D02*
D03*
X12293600Y4095600D02*
D03*
Y3988600D02*
D03*
Y3881600D02*
D03*
X12186600Y4095600D02*
D03*
Y3988600D02*
D03*
Y3881600D02*
D03*
D251*
X13004800Y1574800D02*
D03*
X12090400D02*
D03*
X13233400D02*
D03*
X12192000Y1092200D02*
D03*
X12395200D02*
D03*
X12598400D02*
D03*
X12801601D02*
D03*
X12293600Y914400D02*
D03*
X12496800D02*
D03*
X12700000D02*
D03*
X11861800Y1574800D02*
D03*
D252*
X12903200Y914400D02*
D03*
D253*
X11912600Y660400D02*
D03*
X13182600D02*
D03*
D254*
X7162800Y9702800D02*
D03*
Y9448800D02*
D03*
X10871200Y9296400D02*
D03*
X10363200D02*
D03*
X10617200D02*
D03*
D255*
X18416400Y6751400D02*
D03*
Y6829400D02*
D03*
Y6907400D02*
D03*
X18244400D02*
D03*
Y6829400D02*
D03*
Y6751400D02*
D03*
X17097539Y4627652D02*
D03*
X16997539D02*
D03*
Y4827652D02*
D03*
X16897539D02*
D03*
Y4627652D02*
D03*
Y4727652D02*
D03*
X16997539D02*
D03*
X17097539Y4827652D02*
D03*
Y4727652D02*
D03*
D256*
X12698400Y2247500D02*
D03*
X12648400D02*
D03*
X12548400D02*
D03*
X12498400D02*
D03*
X12698400Y2324500D02*
D03*
X12648400D02*
D03*
X12548400D02*
D03*
X12498400D02*
D03*
D257*
X12598400Y2247500D02*
D03*
Y2324500D02*
D03*
D258*
X9242200Y2933700D02*
D03*
Y3187700D02*
D03*
X10061800Y2933700D02*
D03*
Y3187700D02*
D03*
D259*
X9452200Y2933700D02*
D03*
Y3187700D02*
D03*
X9851800Y2933700D02*
D03*
Y3187700D02*
D03*
%TF.MD5,96889c33a36eea502c7e5c5752b11415*%
M02*
