%TF.GenerationSoftware,Altium Limited,Altium Designer,23.11.1 (41)*%
G04 Layer_Physical_Order=3*
G04 Layer_Color=36540*
%FSLAX45Y45*%
%MOMM*%
%TF.SameCoordinates,5B37CA9A-06B1-4671-AC7C-9F047A950D05*%
%TF.FilePolarity,Positive*%
%TF.FileFunction,Copper,L3,Inr,Signal*%
%TF.Part,Single*%
G01*
G75*
%TA.AperFunction,Conductor*%
%ADD10C,0.23844*%
%ADD102C,0.25400*%
%ADD108C,0.21907*%
%TA.AperFunction,ComponentPad*%
%ADD110C,6.20000*%
%ADD111C,3.50000*%
%ADD112C,2.20000*%
%ADD113C,3.00000*%
%ADD114R,3.00000X3.00000*%
%ADD115R,1.90500X1.90500*%
%ADD116C,1.90500*%
%ADD117C,1.60000*%
%ADD118C,0.60000*%
%ADD119C,1.52400*%
G04:AMPARAMS|DCode=120|XSize=1.524mm|YSize=1.524mm|CornerRadius=0mm|HoleSize=0mm|Usage=FLASHONLY|Rotation=0.000|XOffset=0mm|YOffset=0mm|HoleType=Round|Shape=Octagon|*
%AMOCTAGOND120*
4,1,8,0.76200,-0.38100,0.76200,0.38100,0.38100,0.76200,-0.38100,0.76200,-0.76200,0.38100,-0.76200,-0.38100,-0.38100,-0.76200,0.38100,-0.76200,0.76200,-0.38100,0.0*
%
%ADD120OCTAGOND120*%

%ADD121C,3.81000*%
%TA.AperFunction,ViaPad*%
%ADD122C,0.76200*%
%ADD123C,0.50000*%
%ADD124C,0.30480*%
%ADD125C,0.50800*%
%ADD126C,0.71120*%
%ADD127C,0.55880*%
%TA.AperFunction,Conductor*%
%ADD128C,0.14789*%
%ADD129C,0.09238*%
D10*
X9954225Y7315200D02*
X9957542Y7311882D01*
D102*
X7837408Y6016679D02*
Y6135608D01*
Y5929796D02*
Y6016679D01*
D108*
X12839484Y1333284D02*
X13830516D01*
X14033501Y1130300D01*
X12852400Y1752600D02*
X13614400D01*
X14033501Y1333500D01*
X12192000Y1092200D02*
X12852400Y1752600D01*
X12192000Y1092200D02*
X12216483Y1067717D01*
Y991517D02*
X12293600Y914400D01*
X12216483Y991517D02*
Y1067717D01*
X12598400Y1092200D02*
X12839484Y1333284D01*
X12521283Y938883D02*
Y1015083D01*
X12496800Y914400D02*
X12521283Y938883D01*
Y1015083D02*
X12598400Y1092200D01*
D110*
X16967200Y1447800D02*
D03*
X19574646Y9311709D02*
D03*
X533400Y9499600D02*
D03*
X4025798Y3806550D02*
D03*
D111*
X14438298Y9761666D02*
D03*
X10418298Y5731666D02*
D03*
D112*
X19151601Y507200D02*
D03*
X19405600Y761200D02*
D03*
Y253200D02*
D03*
X18897600D02*
D03*
Y761200D02*
D03*
X17729201Y508000D02*
D03*
X17983200Y762000D02*
D03*
Y254000D02*
D03*
X17475200D02*
D03*
Y762000D02*
D03*
X16306799Y508000D02*
D03*
X16560800Y762000D02*
D03*
Y254000D02*
D03*
X16052800D02*
D03*
Y762000D02*
D03*
X14782800Y508000D02*
D03*
X15036800Y762000D02*
D03*
Y254000D02*
D03*
X14528799D02*
D03*
Y762000D02*
D03*
D113*
X545200Y1017050D02*
D03*
X965200D02*
D03*
X545200Y1567050D02*
D03*
X965200D02*
D03*
X1385200D02*
D03*
X5240000Y711200D02*
D03*
X6444000D02*
D03*
D114*
X1385200Y1017050D02*
D03*
D115*
X8749600Y457200D02*
D03*
D116*
X9249600D02*
D03*
X9749600D02*
D03*
X10249600D02*
D03*
D117*
X5967000Y1181200D02*
D03*
X5717000D02*
D03*
X5967000Y981200D02*
D03*
X5717000D02*
D03*
D118*
X12400600Y4095600D02*
D03*
Y3988600D02*
D03*
Y3881600D02*
D03*
X12293600Y4095600D02*
D03*
Y3988600D02*
D03*
Y3881600D02*
D03*
X12186600Y4095600D02*
D03*
Y3988600D02*
D03*
Y3881600D02*
D03*
D119*
X13004800Y1574800D02*
D03*
X12090400D02*
D03*
X13233400D02*
D03*
X12192000Y1092200D02*
D03*
X12395200D02*
D03*
X12598400D02*
D03*
X12801601D02*
D03*
X12293600Y914400D02*
D03*
X12496800D02*
D03*
X12700000D02*
D03*
X11861800Y1574800D02*
D03*
X7162800Y9702800D02*
D03*
Y9448800D02*
D03*
X10871200Y9296400D02*
D03*
X10363200D02*
D03*
X10617200D02*
D03*
D120*
X12903200Y914400D02*
D03*
D121*
X11912600Y660400D02*
D03*
X13182600D02*
D03*
D122*
X2222500Y3111500D02*
D03*
X571500Y4254500D02*
D03*
Y4508500D02*
D03*
X317500Y4254500D02*
D03*
Y4508500D02*
D03*
X1079500Y3810000D02*
D03*
Y3556000D02*
D03*
Y4064000D02*
D03*
X817791Y4517800D02*
D03*
Y4263800D02*
D03*
X1325791Y4517800D02*
D03*
X1071791D02*
D03*
X1325791Y4263800D02*
D03*
X1071791D02*
D03*
X1587500Y4064000D02*
D03*
X1333500D02*
D03*
X1587500Y3556000D02*
D03*
Y3810000D02*
D03*
X1333500Y3556000D02*
D03*
Y3810000D02*
D03*
X1219200Y6299200D02*
D03*
X1778000Y4445000D02*
D03*
X1905000Y5080000D02*
D03*
X1651000D02*
D03*
Y6096000D02*
D03*
Y5842000D02*
D03*
Y5588000D02*
D03*
X1905000Y6096000D02*
D03*
Y5842000D02*
D03*
Y5588000D02*
D03*
X1397000D02*
D03*
X1905000Y5334000D02*
D03*
X1651000D02*
D03*
X1397000D02*
D03*
Y6350000D02*
D03*
X1651000D02*
D03*
X1905000D02*
D03*
X1397000Y6604000D02*
D03*
X1651000D02*
D03*
X1905000D02*
D03*
X15661127Y5889671D02*
D03*
X15925800Y5537200D02*
D03*
X15951199Y5638800D02*
D03*
Y5969000D02*
D03*
X16332201Y5842000D02*
D03*
X16408400Y6019800D02*
D03*
X16510736Y6461760D02*
D03*
X16535400Y5765800D02*
D03*
X16814799Y5791200D02*
D03*
X16586200Y5918200D02*
D03*
Y6400800D02*
D03*
X16713200Y6553200D02*
D03*
X16992599Y6527800D02*
D03*
X16916400Y6629400D02*
D03*
X17170399Y6096000D02*
D03*
X17043401Y6375400D02*
D03*
X18872200Y5130800D02*
D03*
X18059399Y5740400D02*
D03*
X18262601Y5664200D02*
D03*
X18567400Y5054600D02*
D03*
X18948399Y5257800D02*
D03*
X19067780Y5377180D02*
D03*
X18948399Y5715000D02*
D03*
X18821400Y5867400D02*
D03*
X18449211Y5796400D02*
D03*
X18465800Y7848600D02*
D03*
X18592799Y7874000D02*
D03*
X18821400D02*
D03*
X17627600Y7670800D02*
D03*
X17653000Y7518400D02*
D03*
X18186400Y7899400D02*
D03*
X17881599Y7924800D02*
D03*
X18694400Y6350000D02*
D03*
X18110201Y6781800D02*
D03*
X18973801Y6654800D02*
D03*
X18923000Y7035800D02*
D03*
X19100800Y7213600D02*
D03*
X18948399D02*
D03*
X18897600Y7366000D02*
D03*
Y7518400D02*
D03*
X18923000Y7670800D02*
D03*
X18669000Y8026400D02*
D03*
X17272000Y5029200D02*
D03*
X17043401Y5224780D02*
D03*
X17136404Y5096805D02*
D03*
X16764000Y4953000D02*
D03*
X17576801Y4419600D02*
D03*
X17424400Y4521200D02*
D03*
X17272000Y4318000D02*
D03*
X16586200Y4597400D02*
D03*
X16738600Y4368800D02*
D03*
X17297400Y4191000D02*
D03*
X16648198Y3367002D02*
D03*
X16154401Y3022600D02*
D03*
X16306799Y2616200D02*
D03*
X16459998Y2616998D02*
D03*
X16913206Y2784135D02*
D03*
X17094200Y2997200D02*
D03*
X17052296Y3251200D02*
D03*
X16901402Y3012198D02*
D03*
X16764000Y3251200D02*
D03*
X16281400Y3276600D02*
D03*
X8534400Y5181600D02*
D03*
X8788400Y5156200D02*
D03*
X8712200Y4140200D02*
D03*
X7264400Y2590800D02*
D03*
X7289800Y2133600D02*
D03*
X8128000D02*
D03*
X8102600Y2692400D02*
D03*
X8075400Y4802400D02*
D03*
X8102600Y3962400D02*
D03*
X9829800D02*
D03*
X9677400D02*
D03*
X9964400Y3962059D02*
D03*
X10312400Y3530600D02*
D03*
Y4191000D02*
D03*
X10210800Y4318000D02*
D03*
X10083800Y4376000D02*
D03*
X10160000Y4470400D02*
D03*
X13792200Y4064000D02*
D03*
X14478000Y5994400D02*
D03*
X14579601D02*
D03*
Y5664200D02*
D03*
X14478000Y5740400D02*
D03*
X14325600Y5511800D02*
D03*
Y4673600D02*
D03*
X13302000Y4523627D02*
D03*
X13614400Y4089400D02*
D03*
X13435201Y4499200D02*
D03*
X13614400Y4495800D02*
D03*
X6832600Y7874000D02*
D03*
X6937790Y7641810D02*
D03*
X8458200Y7645400D02*
D03*
Y7823200D02*
D03*
X8371790Y7731810D02*
D03*
X7569200Y7112000D02*
D03*
X6784810Y8181810D02*
D03*
X6904707Y8091810D02*
D03*
X6756400Y8001000D02*
D03*
X6846990Y8316810D02*
D03*
X7837408Y6016679D02*
D03*
X3937000Y6375400D02*
D03*
X2844800Y4064000D02*
D03*
X3048000Y4089400D02*
D03*
X3493810Y4382810D02*
D03*
X3501390Y4702810D02*
D03*
X3235706Y4607306D02*
D03*
X2438400Y4064000D02*
D03*
X2585806Y4068994D02*
D03*
X3302000Y7556500D02*
D03*
X2832540Y8103040D02*
D03*
X3302000Y8064500D02*
D03*
Y8318500D02*
D03*
Y8191500D02*
D03*
X5080000Y7874000D02*
D03*
X14876781Y3220720D02*
D03*
X17119600Y7061200D02*
D03*
X17270139Y7067129D02*
D03*
X16967200Y7061200D02*
D03*
X1066800Y6671060D02*
D03*
Y6451600D02*
D03*
X2129040Y1683967D02*
D03*
Y1493467D02*
D03*
X1938540D02*
D03*
Y1683967D02*
D03*
X1397000Y2349500D02*
D03*
Y2159000D02*
D03*
Y1968500D02*
D03*
X1143000Y2349500D02*
D03*
Y2159000D02*
D03*
Y1968500D02*
D03*
X1333500Y1270000D02*
D03*
X1587500D02*
D03*
X825500D02*
D03*
X1079500D02*
D03*
X317500D02*
D03*
X571500D02*
D03*
Y762000D02*
D03*
X317500D02*
D03*
X635000Y1841500D02*
D03*
Y2095500D02*
D03*
X825500Y1841500D02*
D03*
Y2095500D02*
D03*
X571500Y571500D02*
D03*
X317500D02*
D03*
X825500Y381000D02*
D03*
X1079500D02*
D03*
X1587500Y571500D02*
D03*
X1333500D02*
D03*
X1079500D02*
D03*
X825500D02*
D03*
Y762000D02*
D03*
X1079500D02*
D03*
X1333500D02*
D03*
X1587500D02*
D03*
X1905000Y2222500D02*
D03*
X2349500Y1587500D02*
D03*
Y1778000D02*
D03*
X2095500Y2222500D02*
D03*
X2349500Y1397000D02*
D03*
X1714500Y2032000D02*
D03*
X2540000Y1016000D02*
D03*
X2286000D02*
D03*
X2540000Y825500D02*
D03*
X2286000D02*
D03*
X2540000Y635000D02*
D03*
X2286000D02*
D03*
X2540000Y444500D02*
D03*
X2286000D02*
D03*
X2032000D02*
D03*
X1778000D02*
D03*
Y254000D02*
D03*
X2032000D02*
D03*
X2286000D02*
D03*
X2540000D02*
D03*
X1714500Y2222500D02*
D03*
Y2413000D02*
D03*
X2540000Y2349500D02*
D03*
X2349500D02*
D03*
Y2159000D02*
D03*
Y1968500D02*
D03*
X2540000Y1397000D02*
D03*
Y1587500D02*
D03*
Y1778000D02*
D03*
Y1968500D02*
D03*
Y2159000D02*
D03*
D123*
X18416400Y6751400D02*
D03*
Y6829400D02*
D03*
Y6907400D02*
D03*
X18244400D02*
D03*
Y6829400D02*
D03*
Y6751400D02*
D03*
X7697408Y5734796D02*
D03*
X7754908Y5829796D02*
D03*
X7639908D02*
D03*
X7697408Y5924796D02*
D03*
X7477600Y7915310D02*
D03*
Y7988310D02*
D03*
Y8061810D02*
D03*
X7331065Y7841770D02*
D03*
X7404065D02*
D03*
X7477565D02*
D03*
X7257400Y7915310D02*
D03*
Y7841810D02*
D03*
Y7988310D02*
D03*
Y8061810D02*
D03*
X7331100D02*
D03*
X7404100D02*
D03*
X13555200Y4951600D02*
D03*
Y4878600D02*
D03*
Y4804900D02*
D03*
X13628700D02*
D03*
X13775200D02*
D03*
X13701700D02*
D03*
X13775240Y5025065D02*
D03*
Y4951565D02*
D03*
Y4878565D02*
D03*
X13555200Y5025100D02*
D03*
X13628700D02*
D03*
X13701700D02*
D03*
X3810035Y7998340D02*
D03*
Y8071339D02*
D03*
Y8144839D02*
D03*
X3663500Y7924800D02*
D03*
X3736500D02*
D03*
X3810000D02*
D03*
X3589835Y7998340D02*
D03*
Y7924840D02*
D03*
Y8071339D02*
D03*
Y8144839D02*
D03*
X3663535D02*
D03*
X3736535D02*
D03*
X15814799Y7400000D02*
D03*
X15704800D02*
D03*
X15594800D02*
D03*
X15484801D02*
D03*
X15374800D02*
D03*
X15814799Y7510000D02*
D03*
X15704800D02*
D03*
X15594800D02*
D03*
X15484801D02*
D03*
X15374800D02*
D03*
X15814799Y7620000D02*
D03*
X15704800D02*
D03*
X15594800D02*
D03*
X15484801D02*
D03*
X15374800D02*
D03*
X15814799Y7730000D02*
D03*
X15704800D02*
D03*
X15594800D02*
D03*
X15484801D02*
D03*
X15374800D02*
D03*
X15814799Y7840000D02*
D03*
X15704800D02*
D03*
X15594800D02*
D03*
X15484801D02*
D03*
X15374800D02*
D03*
X17097539Y4627652D02*
D03*
X16997539D02*
D03*
Y4827652D02*
D03*
X16897539D02*
D03*
Y4627652D02*
D03*
Y4727652D02*
D03*
X16997539D02*
D03*
X17097539Y4827652D02*
D03*
Y4727652D02*
D03*
X15193401Y2861700D02*
D03*
Y2751700D02*
D03*
X15083400Y2861700D02*
D03*
Y2751700D02*
D03*
X9249500Y4559500D02*
D03*
Y4632500D02*
D03*
Y4706000D02*
D03*
X9102965Y4485960D02*
D03*
X9175965D02*
D03*
X9249465D02*
D03*
X9029300Y4559500D02*
D03*
Y4486000D02*
D03*
Y4632500D02*
D03*
Y4706000D02*
D03*
X9103000D02*
D03*
X9176000D02*
D03*
X18584399Y3877600D02*
D03*
X18694400D02*
D03*
X18804401D02*
D03*
X18914400D02*
D03*
X19024400D02*
D03*
X18584399Y3767600D02*
D03*
X18694400D02*
D03*
X18804401D02*
D03*
X18914400D02*
D03*
X19024400D02*
D03*
X18584399Y3657600D02*
D03*
X18694400D02*
D03*
X18804401D02*
D03*
X18914400D02*
D03*
X19024400D02*
D03*
X18584399Y3547600D02*
D03*
X18694400D02*
D03*
X18804401D02*
D03*
X18914400D02*
D03*
X19024400D02*
D03*
X18584399Y3437600D02*
D03*
X18694400D02*
D03*
X18804401D02*
D03*
X18914400D02*
D03*
X19024400D02*
D03*
X15409200Y5228300D02*
D03*
X15299200D02*
D03*
X15189200D02*
D03*
X15079201D02*
D03*
X14969200D02*
D03*
X15409200Y5338300D02*
D03*
X15299200D02*
D03*
X15189200D02*
D03*
X15079201D02*
D03*
X14969200D02*
D03*
X15409200Y5448300D02*
D03*
X15299200D02*
D03*
X15189200D02*
D03*
X15079201D02*
D03*
X14969200D02*
D03*
X15409200Y5558300D02*
D03*
X15299200D02*
D03*
X15189200D02*
D03*
X15079201D02*
D03*
X14969200D02*
D03*
X15409200Y5668300D02*
D03*
X15299200D02*
D03*
X15189200D02*
D03*
X15079201D02*
D03*
X14969200D02*
D03*
X9008800Y1972800D02*
D03*
Y2082800D02*
D03*
Y2192800D02*
D03*
X9118800Y1972800D02*
D03*
Y2082800D02*
D03*
Y2192800D02*
D03*
X9228800Y1972800D02*
D03*
Y2082800D02*
D03*
Y2192800D02*
D03*
X9338800Y1972800D02*
D03*
Y2082800D02*
D03*
Y2192800D02*
D03*
X9448800Y1972800D02*
D03*
Y2082800D02*
D03*
Y2192800D02*
D03*
X9558800Y1972800D02*
D03*
Y2082800D02*
D03*
Y2192800D02*
D03*
X9668800Y1972800D02*
D03*
Y2082800D02*
D03*
Y2192800D02*
D03*
X9778800Y1972800D02*
D03*
Y2082800D02*
D03*
Y2192800D02*
D03*
X9888800Y1972800D02*
D03*
Y2082800D02*
D03*
Y2192800D02*
D03*
D124*
X10117598Y7421102D02*
D03*
X8892588Y5778500D02*
D03*
Y6944360D02*
D03*
X8623300Y5664200D02*
D03*
X13849350Y3651250D02*
D03*
X14452600Y3505200D02*
D03*
X3500540Y8618640D02*
D03*
X3884835Y7456265D02*
D03*
X4102100Y7137400D02*
D03*
X4038600D02*
D03*
Y7366000D02*
D03*
X4102100D02*
D03*
X10797540Y8054340D02*
D03*
X10795000Y7733050D02*
D03*
X10317500Y7739400D02*
D03*
X9873902Y6879987D02*
D03*
X9954225Y7315200D02*
D03*
X10051413Y7043810D02*
D03*
X9830678Y7144142D02*
D03*
X9391480Y7243216D02*
D03*
X10198082Y7034285D02*
D03*
X9131300Y7142480D02*
D03*
X9302750Y7245350D02*
D03*
X8986520Y6172200D02*
D03*
X9024620Y6456680D02*
D03*
X8968740Y6804660D02*
D03*
X8950960Y6901180D02*
D03*
X10184939Y7135321D02*
D03*
X10064750Y7410450D02*
D03*
X9810750Y7374890D02*
D03*
X9645650Y7263130D02*
D03*
X9552618Y7264400D02*
D03*
X9555480Y7493000D02*
D03*
X9633933Y7042163D02*
D03*
X9987280Y7470140D02*
D03*
X9761220Y7518400D02*
D03*
X9311640Y7439660D02*
D03*
X9123680Y7203440D02*
D03*
X9552618Y7043020D02*
D03*
X9093200Y6197600D02*
D03*
X10039980Y6479987D02*
D03*
X10124458Y6479987D02*
D03*
X12446000Y6756400D02*
D03*
X11945620Y3863340D02*
D03*
X13137086Y6641132D02*
D03*
X13051463Y6655510D02*
D03*
X13103860Y6261100D02*
D03*
X12999977Y6374126D02*
D03*
X12899977Y6400996D02*
D03*
X13195300Y6351009D02*
D03*
X13151463Y6755510D02*
D03*
X12799977Y6390026D02*
D03*
X12458700Y6654800D02*
D03*
X12851129Y6840967D02*
D03*
X12755880Y6945630D02*
D03*
X12338100Y6642100D02*
D03*
X12748260Y7147560D02*
D03*
X12651184Y6950202D02*
D03*
X12649200Y6748780D02*
D03*
X12544454Y6751474D02*
D03*
Y6851474D02*
D03*
X13251463Y6755510D02*
D03*
X13048489Y6844464D02*
D03*
X13251463Y6955510D02*
D03*
Y6855510D02*
D03*
X13451463Y6755510D02*
D03*
X13551463D02*
D03*
X13444453Y6851474D02*
D03*
X13351463Y6855510D02*
D03*
Y6655510D02*
D03*
X13155499Y6948500D02*
D03*
X13351463Y7055510D02*
D03*
X13251463Y7155510D02*
D03*
X13749020Y8549640D02*
D03*
X13545821Y8839200D02*
D03*
X12750800Y8750300D02*
D03*
X12951460Y8549640D02*
D03*
X13251180D02*
D03*
X13548360Y8651240D02*
D03*
X13654865Y8449135D02*
D03*
X13540286Y8458200D02*
D03*
X13645090Y8550839D02*
D03*
Y8950839D02*
D03*
X13749126Y8945099D02*
D03*
X13645090Y8750839D02*
D03*
X13650829Y8654875D02*
D03*
X13549126Y8745099D02*
D03*
X13545090Y8950839D02*
D03*
Y9050839D02*
D03*
X13650829Y7654875D02*
D03*
X13345090Y7750839D02*
D03*
X13454865Y7549135D02*
D03*
X13345090Y7550839D02*
D03*
X13245090D02*
D03*
X13049126Y7645099D02*
D03*
Y7845099D02*
D03*
X13050830Y7954875D02*
D03*
X12750829Y8154875D02*
D03*
X12850830D02*
D03*
X12745089Y8250839D02*
D03*
X12849126Y8245099D02*
D03*
X12954053Y8259088D02*
D03*
X13454865Y7849135D02*
D03*
X13245090Y7950839D02*
D03*
X13145090Y8050839D02*
D03*
X13045090D02*
D03*
X13254865Y8249135D02*
D03*
X13049126Y8245099D02*
D03*
X13145090Y8250839D02*
D03*
X13045090Y8850839D02*
D03*
X13157201Y8851900D02*
D03*
X12945090Y8850839D02*
D03*
Y8650839D02*
D03*
X13150830Y8654875D02*
D03*
X13245090Y8450839D02*
D03*
X13354865Y8149135D02*
D03*
X13450830Y8254875D02*
D03*
X13350830Y8354875D02*
D03*
X13151974Y8932649D02*
D03*
X13045090Y8750839D02*
D03*
X13044455Y8637305D02*
D03*
X12947981Y8932645D02*
D03*
X12845090Y8550839D02*
D03*
X12745089D02*
D03*
X12945090Y8450839D02*
D03*
X13049126Y8445099D02*
D03*
X13054865Y8949135D02*
D03*
X13249126Y8745099D02*
D03*
X13145090Y8750839D02*
D03*
X13249126Y8645099D02*
D03*
X13445090Y8850839D02*
D03*
Y8750839D02*
D03*
X13350830Y8654875D02*
D03*
X13450830D02*
D03*
X13449126Y8545099D02*
D03*
X13550830Y8554875D02*
D03*
X13450830Y8454875D02*
D03*
X13354865Y8449135D02*
D03*
X13049126Y8345099D02*
D03*
X13149126D02*
D03*
X13144501Y8547100D02*
D03*
X13149126Y8445099D02*
D03*
X12650469Y8552497D02*
D03*
Y8651987D02*
D03*
X12651572Y8753600D02*
D03*
X12848489Y8644464D02*
D03*
X12851463Y8755510D02*
D03*
X12549977Y8870475D02*
D03*
X12553490Y8953500D02*
D03*
X12152864Y8547100D02*
D03*
X11950982Y8548700D02*
D03*
X13151463Y6855510D02*
D03*
X13055499Y6948500D02*
D03*
Y6748500D02*
D03*
X12852400Y6350000D02*
D03*
X12848489Y6744464D02*
D03*
X12738100Y6642100D02*
D03*
X12740482Y6844528D02*
D03*
X11950700Y8648700D02*
D03*
X11849100Y7861300D02*
D03*
X11751464Y7855510D02*
D03*
X12052300Y7556500D02*
D03*
X12966701Y7251700D02*
D03*
X13150850Y7143750D02*
D03*
X13244453Y7651474D02*
D03*
X13551463Y7655510D02*
D03*
X13550900Y7848600D02*
D03*
X13347701Y7937500D02*
D03*
X13356064Y8255000D02*
D03*
X13235141Y8346187D02*
D03*
X12351464Y7455510D02*
D03*
X12700000Y6376409D02*
D03*
X12955499Y6648500D02*
D03*
X12943840Y6555740D02*
D03*
X12855499Y6648500D02*
D03*
X12748490Y6744464D02*
D03*
X12944453Y6751474D02*
D03*
X12948489Y6844464D02*
D03*
X12959081Y7045960D02*
D03*
X12448490Y8244464D02*
D03*
X12348490Y7744464D02*
D03*
X13844453Y6551474D02*
D03*
X13551463Y6655510D02*
D03*
X13544453Y6851474D02*
D03*
X13851463Y7055510D02*
D03*
X13544453Y7251474D02*
D03*
X12951463Y6955510D02*
D03*
X13251463Y7355510D02*
D03*
X13744450Y7851471D02*
D03*
X13744453Y8251474D02*
D03*
Y8651474D02*
D03*
X13848489Y8944464D02*
D03*
X13348489Y8844464D02*
D03*
X12451464Y8655510D02*
D03*
X12655500Y8848500D02*
D03*
X12255500D02*
D03*
X12251464Y8955510D02*
D03*
X11444454Y7851474D02*
D03*
X12048490Y7744464D02*
D03*
Y7244464D02*
D03*
X12247880Y6855460D02*
D03*
X11851640Y6405880D02*
D03*
X12538098Y6942099D02*
D03*
X13544453Y7051474D02*
D03*
X13751463Y6655510D02*
D03*
X12037660Y7055410D02*
D03*
X11871960Y7056120D02*
D03*
X11841480Y6944360D02*
D03*
X11936310Y7053580D02*
D03*
X11736345Y6745245D02*
D03*
X11744960Y6845881D02*
D03*
X11561911Y6636851D02*
D03*
X12551464Y7155510D02*
D03*
X12544454Y7251474D02*
D03*
X13051463Y7155510D02*
D03*
X13151463Y7355510D02*
D03*
X13851463Y6855510D02*
D03*
X13051463Y8555510D02*
D03*
X13451463Y8355510D02*
D03*
Y8155510D02*
D03*
X13351463Y8055510D02*
D03*
X13651463Y7855510D02*
D03*
X13744453Y8051474D02*
D03*
X13651463Y8355510D02*
D03*
X13744453Y8451474D02*
D03*
X13771523Y9238563D02*
D03*
X13461313Y9234527D02*
D03*
X13748489Y8744464D02*
D03*
X13344453Y8551474D02*
D03*
Y8751474D02*
D03*
X13246100Y8851900D02*
D03*
X11645900Y9105900D02*
D03*
X11988800Y9093200D02*
D03*
X11849100Y7442200D02*
D03*
X12052300Y7645400D02*
D03*
X12151464Y6655510D02*
D03*
X13455499Y6948500D02*
D03*
X13351463Y6955510D02*
D03*
X13451463Y7355510D02*
D03*
X13655499Y7348500D02*
D03*
X13748489Y7344464D02*
D03*
X13744453Y7251474D02*
D03*
X13551463Y7555510D02*
D03*
X13748489Y7544464D02*
D03*
X12455500Y7648500D02*
D03*
X12451464Y7455510D02*
D03*
X12555500Y7448500D02*
D03*
X12755500Y7348500D02*
D03*
X12648490Y7544464D02*
D03*
X12655500Y7448500D02*
D03*
X12555500Y7648500D02*
D03*
X12651464Y7655510D02*
D03*
X12855499Y7548500D02*
D03*
X12751464Y7755510D02*
D03*
X12748490Y7644464D02*
D03*
X12751464Y7555510D02*
D03*
X12748490Y7444464D02*
D03*
X12955499Y7348500D02*
D03*
X12951463Y7555510D02*
D03*
X13051463D02*
D03*
Y7755510D02*
D03*
X12844453Y7751474D02*
D03*
Y7651474D02*
D03*
X13155499Y7748500D02*
D03*
X13148486Y7844461D02*
D03*
X13048489Y8144464D02*
D03*
X12948489Y8044464D02*
D03*
X12844453Y8451474D02*
D03*
X12855499Y8348500D02*
D03*
X12744454Y8651474D02*
D03*
X12949277Y8750987D02*
D03*
X12748490Y8844464D02*
D03*
X12455500Y8848500D02*
D03*
X12548490Y8544464D02*
D03*
X12244454Y8451474D02*
D03*
X12348490Y8444464D02*
D03*
X11955500Y8448500D02*
D03*
X12255500Y8648500D02*
D03*
X11455500Y8948500D02*
D03*
X12051464Y8955510D02*
D03*
X11744454Y8951474D02*
D03*
X11555500Y8748500D02*
D03*
X11648490Y8744464D02*
D03*
X11848490Y8644464D02*
D03*
X11644454Y8651474D02*
D03*
X11551464Y8655510D02*
D03*
X11648490Y8344464D02*
D03*
X11551464Y8055510D02*
D03*
Y8255510D02*
D03*
X11555500Y8348500D02*
D03*
X11755500Y8248500D02*
D03*
X12048490Y8344464D02*
D03*
X11948490Y8244464D02*
D03*
X11951464Y8055510D02*
D03*
X11848489Y8144461D02*
D03*
X12251464Y8155510D02*
D03*
X12451464D02*
D03*
X12848489Y8044464D02*
D03*
X12544454Y8151474D02*
D03*
X12651464Y8055510D02*
D03*
X12951463Y7855510D02*
D03*
X12848489Y7844464D02*
D03*
X12955499Y7948500D02*
D03*
X12855499D02*
D03*
X12648490Y7944464D02*
D03*
X12448490D02*
D03*
X12248490D02*
D03*
X12348490D02*
D03*
X12348488Y7844461D02*
D03*
X12447627Y7849287D02*
D03*
X12755500Y7848500D02*
D03*
X12655500D02*
D03*
X12544454Y7851474D02*
D03*
X12648490Y7744464D02*
D03*
X12544454Y7751474D02*
D03*
X12555500Y7548500D02*
D03*
X12248490Y7544464D02*
D03*
X12455500Y7548500D02*
D03*
X12344454Y7551474D02*
D03*
X12153900Y7353300D02*
D03*
X12151464Y7055510D02*
D03*
X12255500Y7048500D02*
D03*
X11031220Y6859940D02*
D03*
X11644555D02*
D03*
X11843461Y7556500D02*
D03*
X11699977Y6388100D02*
D03*
X9721295Y7039987D02*
D03*
X9588500Y7543800D02*
D03*
X9563100Y6642100D02*
D03*
X9859010Y6160770D02*
D03*
X7551358Y6167058D02*
D03*
X8394700Y6629400D02*
D03*
X8502650Y6686550D02*
D03*
X8540750Y7245350D02*
D03*
X8451850Y7232650D02*
D03*
X8540750Y7004050D02*
D03*
X8451850D02*
D03*
X8890000Y5664200D02*
D03*
X9004300Y7505700D02*
D03*
X9931400Y7785100D02*
D03*
X9817100D02*
D03*
X8636000Y7366000D02*
D03*
Y7023100D02*
D03*
X8648700Y6680200D02*
D03*
X8623300Y6565900D02*
D03*
Y6451600D02*
D03*
Y6337300D02*
D03*
Y6223000D02*
D03*
Y6108700D02*
D03*
Y5994400D02*
D03*
Y5880100D02*
D03*
Y5778500D02*
D03*
X10199980Y6559987D02*
D03*
X10119980D02*
D03*
X10039980D02*
D03*
X9873902Y6959324D02*
D03*
X9786714Y6879987D02*
D03*
X9067800Y7505700D02*
D03*
X9182100Y7480300D02*
D03*
X9098262Y6443962D02*
D03*
X9029700Y6527800D02*
D03*
X8890000Y6565900D02*
D03*
X9486900Y6642100D02*
D03*
X9478377Y6558669D02*
D03*
X9563100Y6564378D02*
D03*
X9601200Y6832600D02*
D03*
X9194800Y7023100D02*
D03*
X9931400Y7506896D02*
D03*
X10048258Y6959714D02*
D03*
X9957296Y6959987D02*
D03*
X9964438Y6883042D02*
D03*
X10353642Y6774780D02*
D03*
X9894792Y6692834D02*
D03*
X10846853Y6582193D02*
D03*
X10303434Y6821496D02*
D03*
X10896600Y6629400D02*
D03*
X9826239Y6694767D02*
D03*
X9017000Y6888480D02*
D03*
Y6819900D02*
D03*
X9004300Y7162801D02*
D03*
X9283700Y7099300D02*
D03*
X9389987Y7041553D02*
D03*
X9479979Y6477354D02*
D03*
X9245600Y7518400D02*
D03*
X9471302Y7040571D02*
D03*
X9817100Y7543800D02*
D03*
X9702800D02*
D03*
X9474200D02*
D03*
X9359900D02*
D03*
X11744555Y6960656D02*
D03*
X11760646Y7055410D02*
D03*
X11353800Y6197600D02*
D03*
X9634914Y6965052D02*
D03*
X9559980D02*
D03*
X9639979Y6878671D02*
D03*
X9479980Y6965052D02*
D03*
X9483729Y6883737D02*
D03*
X9398000Y6484620D02*
D03*
X9396899Y6402239D02*
D03*
X9489459Y6398860D02*
D03*
X9641849Y6399948D02*
D03*
X9745980Y6307045D02*
D03*
X10083833Y6778660D02*
D03*
X11546840Y7150100D02*
D03*
X11549978Y7049986D02*
D03*
X10180466Y6843350D02*
D03*
X11449977Y7049986D02*
D03*
X10185530Y6774957D02*
D03*
X11541760Y6957060D02*
D03*
X10993120Y6827538D02*
D03*
X11541660Y7256163D02*
D03*
X11048475Y7022920D02*
D03*
X10195560Y6972300D02*
D03*
X11640820Y7259320D02*
D03*
X11666220Y6951980D02*
D03*
X11646037Y7050903D02*
D03*
X11442869Y6553031D02*
D03*
X11849100Y7243025D02*
D03*
X11239500Y7394734D02*
D03*
X10857359Y7240140D02*
D03*
X9697474Y6400370D02*
D03*
X10623207Y6873288D02*
D03*
X10607040Y7129780D02*
D03*
X11236912Y6982460D02*
D03*
X10076180Y6683412D02*
D03*
X10284460Y7043420D02*
D03*
X10363200Y7038340D02*
D03*
X10283999Y7135321D02*
D03*
X10345420Y7139940D02*
D03*
X10502900Y7142480D02*
D03*
X10426700Y7137400D02*
D03*
X10119980Y7039985D02*
D03*
X10432010Y7039957D02*
D03*
X10515600Y7030720D02*
D03*
X10997852Y7069185D02*
D03*
X10850880Y7099950D02*
D03*
X11742420Y7163775D02*
D03*
X11655400Y7139318D02*
D03*
X10777220Y6507480D02*
D03*
X10195987Y6402664D02*
D03*
X10279980D02*
D03*
X11163300Y6573520D02*
D03*
X10590887Y6482671D02*
D03*
X10359980Y6401356D02*
D03*
Y6482671D02*
D03*
X10592658Y6400863D02*
D03*
X10359982Y6565892D02*
D03*
X10442235Y6565295D02*
D03*
X9799320Y6479540D02*
D03*
X9878060Y6398260D02*
D03*
X11744960Y7251100D02*
D03*
X9719979Y6879987D02*
D03*
X10124458Y6402664D02*
D03*
X10439980D02*
D03*
X10515600Y6403322D02*
D03*
X10279811Y6484638D02*
D03*
X9639300Y6477000D02*
D03*
X9720580Y6479540D02*
D03*
X9879983Y6479987D02*
D03*
X9884912Y6555140D02*
D03*
X11851040Y6850380D02*
D03*
X11442759Y6460656D02*
D03*
X10251440Y6789420D02*
D03*
X9786714Y6963729D02*
D03*
X11328400Y7645418D02*
D03*
X11303000Y7454900D02*
D03*
X11955780Y7155180D02*
D03*
X11845459Y7158821D02*
D03*
X11449977Y7649986D02*
D03*
X11549978Y7649986D02*
D03*
X10807700Y7302500D02*
D03*
X11645900Y6731000D02*
D03*
X9791700Y6667500D02*
D03*
X9720355Y6959987D02*
D03*
X10039979Y6402664D02*
D03*
X12146002Y7250431D02*
D03*
X11544300Y6553200D02*
D03*
X11539308Y6844564D02*
D03*
X9559980Y6399987D02*
D03*
X11345290Y6845300D02*
D03*
X10199980Y6479987D02*
D03*
X11445290Y6845300D02*
D03*
X11252200Y7696200D02*
D03*
X11751690Y7554064D02*
D03*
X11545900Y7551700D02*
D03*
X11549978Y7449986D02*
D03*
X11449978D02*
D03*
X11954055Y7448274D02*
D03*
X11948264Y7345910D02*
D03*
X11851690Y7354064D02*
D03*
X11751690D02*
D03*
X5080000Y9499600D02*
D03*
D125*
X8534400Y4521200D02*
D03*
X13604160Y6399987D02*
D03*
X15360304Y9326880D02*
D03*
X5384800Y7162800D02*
D03*
X5372100Y7531100D02*
D03*
Y7874000D02*
D03*
X4546600Y7124700D02*
D03*
X4559300Y7289800D02*
D03*
X4572000Y7416800D02*
D03*
X4394200Y7404100D02*
D03*
X4191000D02*
D03*
X4711700Y7632700D02*
D03*
X4813300Y7569200D02*
D03*
X4800600Y7721600D02*
D03*
X15773399Y2590800D02*
D03*
X15735300Y2755900D02*
D03*
Y2997200D02*
D03*
X15938499D02*
D03*
Y2857500D02*
D03*
Y2717800D02*
D03*
Y2578100D02*
D03*
X14681200Y2971800D02*
D03*
X14693900Y2667000D02*
D03*
X14795500D02*
D03*
X14876781Y3108029D02*
D03*
X15367000Y3187700D02*
D03*
X15608299D02*
D03*
X15798801D02*
D03*
X15697200D02*
D03*
X8432800Y9702800D02*
D03*
X16319501Y4241800D02*
D03*
X16598900Y6743700D02*
D03*
X14350999Y5791200D02*
D03*
X14084300Y2921000D02*
D03*
X13944600Y3759200D02*
D03*
X7416800Y7137400D02*
D03*
X7213108Y6997700D02*
D03*
X3327400Y7721600D02*
D03*
X3160610Y7799490D02*
D03*
X3784600Y7378700D02*
D03*
X11620500Y2222500D02*
D03*
X10061800Y2708500D02*
D03*
X10454640Y4826000D02*
D03*
X10634980Y4147820D02*
D03*
X10675620Y3779520D02*
D03*
X11026140D02*
D03*
X11031220Y4257040D02*
D03*
X11480800Y4823460D02*
D03*
X9494520Y3817620D02*
D03*
X9260840Y3839210D02*
D03*
X8735060Y4826000D02*
D03*
X8737940Y4646000D02*
D03*
X8742546Y4736000D02*
D03*
X8763315Y4286000D02*
D03*
X8276180Y9699400D02*
D03*
X8269380Y8886600D02*
D03*
X11582400Y4216400D02*
D03*
X12268600Y4317600D02*
D03*
X12848703Y5504200D02*
D03*
Y5943600D02*
D03*
X12052300Y6390339D02*
D03*
X11696700Y3797300D02*
D03*
X12540000Y5943600D02*
D03*
X11531600Y6083300D02*
D03*
X11785600Y6337300D02*
D03*
X11950700Y6386950D02*
D03*
X13716000Y5867400D02*
D03*
X14350999Y5626100D02*
D03*
X13138150Y4832350D02*
D03*
X14478000Y5130800D02*
D03*
X14579601D02*
D03*
X14478000Y4953000D02*
D03*
X14579601D02*
D03*
X14306551Y5314950D02*
D03*
X14312900Y5219700D02*
D03*
X14319250Y5111750D02*
D03*
X14293851Y5022850D02*
D03*
X13982700Y4508500D02*
D03*
X13874750Y4514850D02*
D03*
X13859898Y5867400D02*
D03*
X14338300Y6045200D02*
D03*
X14668500Y6324600D02*
D03*
X14274800D02*
D03*
X14681200Y6972300D02*
D03*
X14274800Y6959600D02*
D03*
X15024100Y7759700D02*
D03*
X15033200Y7845000D02*
D03*
X15138400Y8064500D02*
D03*
X14617700Y7899400D02*
D03*
Y7988300D02*
D03*
X14846300Y8280400D02*
D03*
X16421100Y8458200D02*
D03*
X16600951Y8587250D02*
D03*
X16043336Y8696264D02*
D03*
X16040100Y9093200D02*
D03*
X15218900Y8339600D02*
D03*
X14274800Y9169400D02*
D03*
X14681200Y9156700D02*
D03*
Y8483600D02*
D03*
X14274800D02*
D03*
X12301200Y5943600D02*
D03*
X12540000Y5506700D02*
D03*
X12301200Y5516900D02*
D03*
X11785600Y5740400D02*
D03*
X11798300Y6146800D02*
D03*
X12496800Y1270000D02*
D03*
X11607800Y4013200D02*
D03*
X11557000Y3835400D02*
D03*
X11636993Y3747787D02*
D03*
X11930497Y3345297D02*
D03*
X12214977Y3329823D02*
D03*
X12115800Y3327400D02*
D03*
X12014200D02*
D03*
X11808577Y4671177D02*
D03*
X11912600Y4673600D02*
D03*
X12014200D02*
D03*
X12217400Y4749800D02*
D03*
X12113377Y4798177D02*
D03*
X12214977Y4645777D02*
D03*
X12316577D02*
D03*
X12903200Y3810000D02*
D03*
Y3911600D02*
D03*
Y4013200D02*
D03*
Y4114800D02*
D03*
Y4216400D02*
D03*
Y4318000D02*
D03*
Y4419600D02*
D03*
X14033501Y1130300D02*
D03*
Y1333500D02*
D03*
X12801601Y2362200D02*
D03*
X13837920Y909320D02*
D03*
X12280900Y1841500D02*
D03*
X12915900Y1854200D02*
D03*
X12960350Y2171700D02*
D03*
X12871449D02*
D03*
X12236450Y2184400D02*
D03*
X12325350D02*
D03*
X12598400Y2159000D02*
D03*
X11625580Y2557780D02*
D03*
X11906250Y2851150D02*
D03*
X11672587Y4255787D02*
D03*
Y4154187D02*
D03*
X11667507Y4052587D02*
D03*
X11526520Y3947160D02*
D03*
X11662427Y3950987D02*
D03*
X11764127Y3664067D02*
D03*
X12793980Y4541520D02*
D03*
X11971020Y3708400D02*
D03*
X11611077Y6218657D02*
D03*
X6972300Y6807200D02*
D03*
X7360920Y6548120D02*
D03*
X7594600Y6553200D02*
D03*
Y6667500D02*
D03*
X7620000Y6007100D02*
D03*
X7302500Y5854700D02*
D03*
X7467600Y5829300D02*
D03*
Y5969000D02*
D03*
Y5664200D02*
D03*
X8292004Y5866304D02*
D03*
X8190404D02*
D03*
X8028805Y5755505D02*
D03*
X7708900Y5575300D02*
D03*
X8103808Y5487608D02*
D03*
X8002208D02*
D03*
X8286750Y6121400D02*
D03*
X8309784Y6036484D02*
D03*
X8182784D02*
D03*
X8188898Y6423598D02*
D03*
X9118600Y7797800D02*
D03*
X2484206Y5718810D02*
D03*
X2636606D02*
D03*
X2789006D02*
D03*
X2941406D02*
D03*
X2865206Y5642610D02*
D03*
X2560406D02*
D03*
X2941406Y5566410D02*
D03*
X2789006D02*
D03*
X2636606D02*
D03*
X2484206D02*
D03*
X2865206Y5490210D02*
D03*
X2560406D02*
D03*
X2941406Y5414010D02*
D03*
X2789006D02*
D03*
X2636606D02*
D03*
X2484206D02*
D03*
X2865206Y5337810D02*
D03*
X2560406D02*
D03*
X2941406Y5261610D02*
D03*
X2789006D02*
D03*
X2636606D02*
D03*
X2484206D02*
D03*
X2865206Y5185410D02*
D03*
X2712806D02*
D03*
X2560406D02*
D03*
X2941406Y5109210D02*
D03*
X2789006D02*
D03*
X2636606D02*
D03*
X2865206Y5033010D02*
D03*
X2712806D02*
D03*
X2941406Y4956810D02*
D03*
X2789006D02*
D03*
X2636606D02*
D03*
X2484206D02*
D03*
Y5109210D02*
D03*
X2560406Y5033010D02*
D03*
X2712806Y5642610D02*
D03*
Y5490210D02*
D03*
Y5337810D02*
D03*
D126*
X6908800Y7772400D02*
D03*
X7543800Y7239000D02*
D03*
X7366000Y7289800D02*
D03*
X7315200Y8509000D02*
D03*
X7924800Y6502400D02*
D03*
X7758295Y6618105D02*
D03*
X7837408Y6135608D02*
D03*
X2286000Y4368800D02*
D03*
X2585806Y4365317D02*
D03*
X10007600Y7825740D02*
D03*
D127*
X18602800Y5586400D02*
D03*
Y5486400D02*
D03*
Y5386400D02*
D03*
X18702800D02*
D03*
Y5486400D02*
D03*
Y5586400D02*
D03*
X18802800D02*
D03*
Y5486400D02*
D03*
Y5386400D02*
D03*
X16424998Y2912198D02*
D03*
X16524998D02*
D03*
X16624998D02*
D03*
Y3012198D02*
D03*
X16524998D02*
D03*
X16424998D02*
D03*
Y3112198D02*
D03*
X16524998D02*
D03*
X16624998D02*
D03*
X16913200Y6046800D02*
D03*
Y6146800D02*
D03*
Y6246800D02*
D03*
X16813200D02*
D03*
Y6146800D02*
D03*
Y6046800D02*
D03*
X16713200D02*
D03*
Y6146800D02*
D03*
Y6246800D02*
D03*
D128*
X10538601Y6523827D02*
G03*
X10523811Y6509037I0J-14789D01*
G01*
X10512412Y6484666D02*
G03*
X10523811Y6496065I0J11399D01*
G01*
X10491242D02*
G03*
X10502641Y6484666I11399J0D01*
G01*
X10491242Y6512391D02*
G03*
X10479843Y6523791I-11399J0D01*
G01*
X10470072D02*
G03*
X10458673Y6512391I0J-11399D01*
G01*
X10447273Y6484666D02*
G03*
X10458673Y6496065I0J11399D01*
G01*
X10426103D02*
G03*
X10437502Y6484666I11399J0D01*
G01*
X10426103Y6509037D02*
G03*
X10411314Y6523827I-14789J0D01*
G01*
X10303164Y6538616D02*
G03*
X10317953Y6523827I14789J0D01*
G01*
X10303164Y6594766D02*
G03*
X10291765Y6606165I-11399J0D01*
G01*
X10281994D02*
G03*
X10270595Y6594766I0J-11399D01*
G01*
X10255805Y6523827D02*
G03*
X10270595Y6538616I0J14789D01*
G01*
X10885425Y6884925D02*
G03*
X10881093Y6874467I10458J-10458D01*
G01*
X10869694Y6713370D02*
G03*
X10881093Y6724769I0J11399D01*
G01*
X10848523D02*
G03*
X10859923Y6713370I11399J0D01*
G01*
X10848523Y6865611D02*
G03*
X10837124Y6877011I-11399J0D01*
G01*
X10827353D02*
G03*
X10815954Y6865611I0J-11399D01*
G01*
X10804555Y6713370D02*
G03*
X10815954Y6724769I0J11399D01*
G01*
X10783385D02*
G03*
X10794784Y6713370I11399J0D01*
G01*
X10783385Y6747180D02*
G03*
X10758137Y6757637I-14789J0D01*
G01*
X10457691Y6750036D02*
G03*
X10472480Y6735246I14789J0D01*
G01*
X10457691Y6780186D02*
G03*
X10446291Y6791585I-11399J0D01*
G01*
X10436520D02*
G03*
X10425121Y6780186I0J-11399D01*
G01*
X10413722Y6702704D02*
G03*
X10425121Y6714104I0J11399D01*
G01*
X10392552D02*
G03*
X10403951Y6702704I11399J0D01*
G01*
X10392552Y6727221D02*
G03*
X10381152Y6738620I-11399J0D01*
G01*
X10371382D02*
G03*
X10359982Y6727221I0J-11399D01*
G01*
X10348583Y6662795D02*
G03*
X10359982Y6674194I0J11399D01*
G01*
X10327413D02*
G03*
X10338812Y6662795I11399J0D01*
G01*
X10327413Y6738472D02*
G03*
X10316014Y6749872I-11399J0D01*
G01*
X10306243D02*
G03*
X10294844Y6738472I0J-11399D01*
G01*
X10283444Y6662795D02*
G03*
X10294844Y6674194I0J11399D01*
G01*
X10262274D02*
G03*
X10273673Y6662795I11399J0D01*
G01*
X10262274Y6741861D02*
G03*
X10250875Y6753260I-11399J0D01*
G01*
X10241104D02*
G03*
X10229705Y6741861I0J-11399D01*
G01*
X10218305Y6662795D02*
G03*
X10229705Y6674194I0J11399D01*
G01*
X10197135D02*
G03*
X10208535Y6662795I11399J0D01*
G01*
X10197135Y6727398D02*
G03*
X10185736Y6738797I-11399J0D01*
G01*
X10175965D02*
G03*
X10164566Y6727398I0J-11399D01*
G01*
X10153167Y6662795D02*
G03*
X10164566Y6674194I0J11399D01*
G01*
X10131996D02*
G03*
X10143396Y6662795I11399J0D01*
G01*
X10131996Y6720457D02*
G03*
X10117207Y6735246I-14789J0D01*
G01*
X10049078D02*
G03*
X10034288Y6720457I0J-14789D01*
G01*
X10022889Y6662795D02*
G03*
X10034288Y6674194I0J11399D01*
G01*
X10001719D02*
G03*
X10013118Y6662795I11399J0D01*
G01*
X10001719Y6775106D02*
G03*
X9990320Y6786505I-11399J0D01*
G01*
X9980549D02*
G03*
X9969149Y6775106I0J-11399D01*
G01*
X9954360Y6735246D02*
G03*
X9969149Y6750036I0J14789D01*
G01*
X10725300Y6685055D02*
G03*
X10710511Y6670265I0J-14789D01*
G01*
X10699111Y6589338D02*
G03*
X10710511Y6600738I0J11399D01*
G01*
X10677941D02*
G03*
X10689341Y6589338I11399J0D01*
G01*
X10677941Y6695532D02*
G03*
X10666542Y6706931I-11399J0D01*
G01*
X10656771D02*
G03*
X10645372Y6695532I0J-11399D01*
G01*
X10633973Y6551809D02*
G03*
X10645372Y6563208I0J11399D01*
G01*
X10612802D02*
G03*
X10624202Y6551809I11399J0D01*
G01*
X10612802Y6695532D02*
G03*
X10601403Y6706931I-11399J0D01*
G01*
X10591632D02*
G03*
X10580233Y6695532I0J-11399D01*
G01*
X10568834Y6552142D02*
G03*
X10580233Y6563541I0J11399D01*
G01*
X10547664D02*
G03*
X10559063Y6552142I11399J0D01*
G01*
X10547664Y6695532D02*
G03*
X10536264Y6706931I-11399J0D01*
G01*
X10526494D02*
G03*
X10515094Y6695532I0J-11399D01*
G01*
X10503695Y6552106D02*
G03*
X10515094Y6563505I0J11399D01*
G01*
X10482525D02*
G03*
X10493924Y6552106I11399J0D01*
G01*
X10482525Y6670265D02*
G03*
X10467735Y6685055I-14789J0D01*
G01*
X10590675Y6950270D02*
G03*
X10605464Y6935480I14789J0D01*
G01*
X10590675Y7004395D02*
G03*
X10579276Y7015794I-11399J0D01*
G01*
X10569505D02*
G03*
X10558105Y7004395I0J-11399D01*
G01*
X10543316Y6935480D02*
G03*
X10558105Y6950270I0J14789D01*
G01*
X11339074Y7161145D02*
G03*
X11324284Y7146356I0J-14789D01*
G01*
X11312885Y7104643D02*
G03*
X11324284Y7116042I0J11399D01*
G01*
X11291715D02*
G03*
X11303114Y7104643I11399J0D01*
G01*
X11291715Y7267866D02*
G03*
X11280316Y7279265I-11399J0D01*
G01*
X11270545D02*
G03*
X11259145Y7267866I0J-11399D01*
G01*
X11244356Y7161145D02*
G03*
X11259145Y7175934I0J14789D01*
G01*
X11168196Y7161145D02*
G03*
X11153406Y7146356I0J-14789D01*
G01*
X11142007Y7105345D02*
G03*
X11153406Y7116745I0J11399D01*
G01*
X11120837D02*
G03*
X11132236Y7105345I11399J0D01*
G01*
X11120837Y7267866D02*
G03*
X11109438Y7279265I-11399J0D01*
G01*
X11099667D02*
G03*
X11088268Y7267866I0J-11399D01*
G01*
X11076868Y7059080D02*
G03*
X11088268Y7070479I0J11399D01*
G01*
X11055698D02*
G03*
X11067097Y7059080I11399J0D01*
G01*
X11055698Y7267866D02*
G03*
X11044299Y7279265I-11399J0D01*
G01*
X11034528D02*
G03*
X11023129Y7267866I0J-11399D01*
G01*
X11011730Y7105345D02*
G03*
X11023129Y7116744I0J11399D01*
G01*
X10990559D02*
G03*
X11001959Y7105345I11399J0D01*
G01*
X10990559Y7231561D02*
G03*
X10979160Y7242960I-11399J0D01*
G01*
X10969389D02*
G03*
X10957990Y7231561I0J-11399D01*
G01*
X10953658Y7094801D02*
G03*
X10957990Y7105259I-10458J10458D01*
G01*
X10860282Y7037130D02*
G03*
X10885529Y7026672I14789J0D01*
G01*
X10860282Y7052391D02*
G03*
X10848883Y7063790I-11399J0D01*
G01*
X10839112D02*
G03*
X10827712Y7052391I0J-11399D01*
G01*
X10822012Y6963155D02*
G03*
X10827712Y6976916I-13759J13761D01*
G01*
X10153232Y7195970D02*
G03*
X10168021Y7181180I14789J0D01*
G01*
X10153232Y7231113D02*
G03*
X10141833Y7242512I-11399J0D01*
G01*
X10132062D02*
G03*
X10120663Y7231113I0J-11399D01*
G01*
X10109263Y7101526D02*
G03*
X10120663Y7112925I0J11399D01*
G01*
X10088093D02*
G03*
X10099492Y7101526I11399J0D01*
G01*
X10088093Y7336242D02*
G03*
X10076694Y7347642I-11399J0D01*
G01*
X10066923D02*
G03*
X10055524Y7336242I0J-11399D01*
G01*
X10044124Y7101526D02*
G03*
X10055524Y7112925I0J11399D01*
G01*
X10022954D02*
G03*
X10034354Y7101526I11399J0D01*
G01*
X10022954Y7336242D02*
G03*
X10011555Y7347642I-11399J0D01*
G01*
X10001784D02*
G03*
X9990385Y7336242I0J-11399D01*
G01*
X9975595Y7181180D02*
G03*
X9990385Y7195970I0J14789D01*
G01*
X11403130Y6390804D02*
G03*
X11424045Y6390804I10458J10458D01*
G01*
X11399612Y6394322D02*
G03*
X11383491Y6394322I-8060J-8060D01*
G01*
X11376582Y6387413D02*
G03*
X11376582Y6371292I8060J-8060D01*
G01*
X11380100Y6346859D02*
G03*
X11380099Y6367774I-10458J10458D01*
G01*
X11286635Y6349174D02*
G03*
X11301424Y6334385I14789J0D01*
G01*
X11286635Y6363059D02*
G03*
X11275236Y6374458I-11399J0D01*
G01*
X11265465D02*
G03*
X11254065Y6363059I0J-11399D01*
G01*
X11239276Y6334385D02*
G03*
X11254065Y6349174I0J14789D01*
G01*
X10684692Y6334385D02*
G03*
X10699482Y6349174I0J14789D01*
G01*
X10710881Y6369310D02*
G03*
X10699482Y6357911I0J-11399D01*
G01*
X10732051D02*
G03*
X10720652Y6369310I-11399J0D01*
G01*
X10732051Y6338914D02*
G03*
X10743450Y6327515I11399J0D01*
G01*
X10753221D02*
G03*
X10764621Y6338914I0J11399D01*
G01*
X10776020Y6369310D02*
G03*
X10764621Y6357911I0J-11399D01*
G01*
X10797190D02*
G03*
X10785791Y6369310I-11399J0D01*
G01*
X10797190Y6338914D02*
G03*
X10808589Y6327515I11399J0D01*
G01*
X10818360D02*
G03*
X10829759Y6338914I0J11399D01*
G01*
X10841159Y6369310D02*
G03*
X10829759Y6357911I0J-11399D01*
G01*
X10862329D02*
G03*
X10850930Y6369310I-11399J0D01*
G01*
X10862329Y6338914D02*
G03*
X10873728Y6327515I11399J0D01*
G01*
X10883499D02*
G03*
X10894898Y6338914I0J11399D01*
G01*
X10906297Y6369310D02*
G03*
X10894898Y6357911I0J-11399D01*
G01*
X10927468D02*
G03*
X10916068Y6369310I-11399J0D01*
G01*
X10927468Y6338914D02*
G03*
X10938867Y6327515I11399J0D01*
G01*
X10948638D02*
G03*
X10960037Y6338914I0J11399D01*
G01*
X10971436Y6369482D02*
G03*
X10960037Y6358082I0J-11399D01*
G01*
X10992606D02*
G03*
X10981207Y6369482I-11399J0D01*
G01*
X10992606Y6338914D02*
G03*
X11004006Y6327515I11399J0D01*
G01*
X11013777D02*
G03*
X11025176Y6338914I0J11399D01*
G01*
X11036575Y6425832D02*
G03*
X11025176Y6414433I0J-11399D01*
G01*
X11057745D02*
G03*
X11046346Y6425832I-11399J0D01*
G01*
X11057745Y6349174D02*
G03*
X11072535Y6334385I14789J0D01*
G01*
X11297658Y6502400D02*
G03*
X11282869Y6487611I0J-14789D01*
G01*
X11271470Y6402773D02*
G03*
X11282869Y6414173I0J11399D01*
G01*
X11250300D02*
G03*
X11261699Y6402773I11399J0D01*
G01*
X11250300Y6574251D02*
G03*
X11238900Y6585650I-11399J0D01*
G01*
X11229129D02*
G03*
X11217730Y6574251I0J-11399D01*
G01*
X11206331Y6362700D02*
G03*
X11217730Y6374099I0J11399D01*
G01*
X11185161D02*
G03*
X11196560Y6362700I11399J0D01*
G01*
X11185161Y6525961D02*
G03*
X11173761Y6537360I-11399J0D01*
G01*
X11163991D02*
G03*
X11152591Y6525961I0J-11399D01*
G01*
X11141192Y6362700D02*
G03*
X11152591Y6374099I0J11399D01*
G01*
X11120022D02*
G03*
X11131421Y6362700I11399J0D01*
G01*
X11120022Y6565610D02*
G03*
X11108623Y6577009I-11399J0D01*
G01*
X11098852D02*
G03*
X11087453Y6565610I0J-11399D01*
G01*
X11072663Y6502400D02*
G03*
X11087453Y6517189I0J14789D01*
G01*
X9626415Y6776535D02*
G03*
X9626415Y6755619I10458J-10458D01*
G01*
X9645847Y6720067D02*
G03*
X9645846Y6736187I-8061J8060D01*
G01*
X9622817Y6713158D02*
G03*
X9638938Y6713158I8060J8060D01*
G01*
X9529569Y6806405D02*
G03*
X9513449Y6806405I-8060J-8060D01*
G01*
X9506539Y6799496D02*
G03*
X9506539Y6783375I8060J-8060D01*
G01*
X9559439Y6709559D02*
G03*
X9559439Y6730475I-10458J10458D01*
G01*
X10993275Y6611775D02*
G03*
X10993275Y6590860I10458J-10458D01*
G01*
X10999185Y6568828D02*
G03*
X10999185Y6584949I-8061J8060D01*
G01*
X10976155Y6561919D02*
G03*
X10992276Y6561919I8060J8060D01*
G01*
X10936266Y6601807D02*
G03*
X10920146Y6601807I-8060J-8060D01*
G01*
X10913237Y6594898D02*
G03*
X10913237Y6578778I8060J-8060D01*
G01*
X10953125Y6522768D02*
G03*
X10953125Y6538889I-8061J8060D01*
G01*
X10930095Y6515859D02*
G03*
X10946216Y6515859I8060J8060D01*
G01*
X10888937Y6557017D02*
G03*
X10872816Y6557017I-8060J-8060D01*
G01*
X10865907Y6550108D02*
G03*
X10865907Y6533987I8060J-8060D01*
G01*
X10880239Y6498739D02*
G03*
X10880239Y6519655I-10458J10458D01*
G01*
X11499837Y6794500D02*
G03*
X11485047Y6779711I0J-14789D01*
G01*
X11473648Y6746615D02*
G03*
X11485047Y6758014I0J11399D01*
G01*
X11452478D02*
G03*
X11463877Y6746615I11399J0D01*
G01*
X11452478Y6779711D02*
G03*
X11437688Y6794500I-14789J0D01*
G01*
X11257061Y6809289D02*
G03*
X11271851Y6794500I14789J0D01*
G01*
X11257061Y6843686D02*
G03*
X11245662Y6855085I-11399J0D01*
G01*
X11235891D02*
G03*
X11224492Y6843686I0J-11399D01*
G01*
X11213093Y6793253D02*
G03*
X11224492Y6804653I0J11399D01*
G01*
X11191922D02*
G03*
X11203322Y6793253I11399J0D01*
G01*
X11191922Y6843686D02*
G03*
X11180523Y6855085I-11399J0D01*
G01*
X11170752D02*
G03*
X11159353Y6843686I0J-11399D01*
G01*
X11147954Y6728996D02*
G03*
X11159353Y6740396I0J11399D01*
G01*
X11126784D02*
G03*
X11138183Y6728996I11399J0D01*
G01*
X11126784Y6785732D02*
G03*
X11115384Y6797131I-11399J0D01*
G01*
X11105614D02*
G03*
X11094214Y6785732I0J-11399D01*
G01*
X11082815Y6663858D02*
G03*
X11094214Y6675257I0J11399D01*
G01*
X11061645D02*
G03*
X11073044Y6663858I11399J0D01*
G01*
X11061645Y6720593D02*
G03*
X11050246Y6731992I-11399J0D01*
G01*
X11040475D02*
G03*
X11029075Y6720593I0J-11399D01*
G01*
X11023375Y6641875D02*
G03*
X11029075Y6655636I-13759J13761D01*
G01*
X11436331Y6718300D02*
G03*
X11421542Y6703511I0J-14789D01*
G01*
X11410143Y6692109D02*
G03*
X11421542Y6703508I0J11399D01*
G01*
X11388972D02*
G03*
X11400372Y6692109I11399J0D01*
G01*
X11388972Y6752596D02*
G03*
X11377573Y6763995I-11399J0D01*
G01*
X11367802D02*
G03*
X11356403Y6752596I0J-11399D01*
G01*
X11345004Y6570446D02*
G03*
X11356403Y6581846I0J11399D01*
G01*
X11323834D02*
G03*
X11335233Y6570446I11399J0D01*
G01*
X11323834Y6754786D02*
G03*
X11312434Y6766185I-11399J0D01*
G01*
X11302663D02*
G03*
X11291264Y6754786I0J-11399D01*
G01*
X11279865Y6609620D02*
G03*
X11291264Y6621020I0J11399D01*
G01*
X11258695D02*
G03*
X11270094Y6609620I11399J0D01*
G01*
X11258695Y6754786D02*
G03*
X11247296Y6766185I-11399J0D01*
G01*
X11237525D02*
G03*
X11226125Y6754786I0J-11399D01*
G01*
X11211336Y6718300D02*
G03*
X11226125Y6733089I0J14789D01*
G01*
X10137855Y6256096D02*
G03*
X10123065Y6270885I-14789J0D01*
G01*
X10137855Y6250526D02*
G03*
X10149254Y6239126I11399J0D01*
G01*
X10159025D02*
G03*
X10170424Y6250526I0J11399D01*
G01*
X10181823Y6270885D02*
G03*
X10170424Y6259486I0J-11399D01*
G01*
X10202994D02*
G03*
X10191594Y6270885I-11399J0D01*
G01*
X10202994Y6237314D02*
G03*
X10214393Y6225915I11399J0D01*
G01*
X10224164D02*
G03*
X10235563Y6237314I0J11399D01*
G01*
X10246962Y6270885D02*
G03*
X10235563Y6259486I0J-11399D01*
G01*
X10268132D02*
G03*
X10256733Y6270885I-11399J0D01*
G01*
X10268132Y6237314D02*
G03*
X10279532Y6225915I11399J0D01*
G01*
X10289303D02*
G03*
X10300702Y6237314I0J11399D01*
G01*
X10312101Y6270885D02*
G03*
X10300702Y6259486I0J-11399D01*
G01*
X10333271D02*
G03*
X10321872Y6270885I-11399J0D01*
G01*
X10333271Y6237314D02*
G03*
X10344670Y6225915I11399J0D01*
G01*
X10354441D02*
G03*
X10365841Y6237314I0J11399D01*
G01*
X10377240Y6270885D02*
G03*
X10365841Y6259486I0J-11399D01*
G01*
X10398410D02*
G03*
X10387011Y6270885I-11399J0D01*
G01*
X10398410Y6237314D02*
G03*
X10409809Y6225915I11399J0D01*
G01*
X10419580D02*
G03*
X10430979Y6237314I0J11399D01*
G01*
X10442379Y6270885D02*
G03*
X10430979Y6259486I0J-11399D01*
G01*
X10463549D02*
G03*
X10452150Y6270885I-11399J0D01*
G01*
X10463549Y6237314D02*
G03*
X10474948Y6225915I11399J0D01*
G01*
X10484719D02*
G03*
X10496118Y6237314I0J11399D01*
G01*
X10507517Y6270885D02*
G03*
X10496118Y6259486I0J-11399D01*
G01*
X10528688D02*
G03*
X10517288Y6270885I-11399J0D01*
G01*
X10528688Y6237314D02*
G03*
X10540087Y6225915I11399J0D01*
G01*
X10549858D02*
G03*
X10561257Y6237314I0J11399D01*
G01*
X10572656Y6270885D02*
G03*
X10561257Y6259486I0J-11399D01*
G01*
X10593826D02*
G03*
X10582427Y6270885I-11399J0D01*
G01*
X10593826Y6237314D02*
G03*
X10605226Y6225915I11399J0D01*
G01*
X10614997D02*
G03*
X10626396Y6237314I0J11399D01*
G01*
X10637795Y6270885D02*
G03*
X10626396Y6259486I0J-11399D01*
G01*
X10658965D02*
G03*
X10647566Y6270885I-11399J0D01*
G01*
X10658965Y6237314D02*
G03*
X10670364Y6225915I11399J0D01*
G01*
X10680135D02*
G03*
X10691535Y6237314I0J11399D01*
G01*
X10706324Y6270885D02*
G03*
X10691535Y6256096I0J-14789D01*
G01*
X9421311Y6689794D02*
G03*
X9436100Y6704583I0J14789D01*
G01*
X9399948Y6689794D02*
G03*
X9388549Y6678394I0J-11399D01*
G01*
Y6668623D02*
G03*
X9399948Y6657224I11399J0D01*
G01*
X9443821Y6645825D02*
G03*
X9432421Y6657224I-11399J0D01*
G01*
Y6624655D02*
G03*
X9443821Y6636054I0J11399D01*
G01*
X9323414Y6624655D02*
G03*
X9312015Y6613256I0J-11399D01*
G01*
Y6603485D02*
G03*
X9323414Y6592085I11399J0D01*
G01*
X9443821Y6580686D02*
G03*
X9432421Y6592085I-11399J0D01*
G01*
Y6559516D02*
G03*
X9443821Y6570915I0J11399D01*
G01*
X9323414Y6559516D02*
G03*
X9312015Y6548117I0J-11399D01*
G01*
Y6538346D02*
G03*
X9323414Y6526947I11399J0D01*
G01*
X9436100Y6512157D02*
G03*
X9421311Y6526947I-14789J0D01*
G01*
X11353659Y7018620D02*
G03*
X11338870Y7003831I0J-14789D01*
G01*
X11327471Y6987088D02*
G03*
X11338870Y6998487I0J11399D01*
G01*
X11306300D02*
G03*
X11317700Y6987088I11399J0D01*
G01*
X11306300Y7064928D02*
G03*
X11294901Y7076327I-11399J0D01*
G01*
X11285130D02*
G03*
X11273731Y7064928I0J-11399D01*
G01*
X11262332Y7018620D02*
G03*
X11273731Y7030019I0J11399D01*
G01*
X11241162D02*
G03*
X11252561Y7018620I11399J0D01*
G01*
X11241162Y7065631D02*
G03*
X11229762Y7077030I-11399J0D01*
G01*
X11219992D02*
G03*
X11208592Y7065631I0J-11399D01*
G01*
X11197193Y7005278D02*
G03*
X11208592Y7016677I0J11399D01*
G01*
X11176023D02*
G03*
X11187422Y7005278I11399J0D01*
G01*
X11176023Y7065631D02*
G03*
X11164624Y7077030I-11399J0D01*
G01*
X11154853D02*
G03*
X11143453Y7065631I0J-11399D01*
G01*
X11132054Y6941595D02*
G03*
X11143453Y6952994I0J11399D01*
G01*
X11110884D02*
G03*
X11122283Y6941595I11399J0D01*
G01*
X11110884Y6990222D02*
G03*
X11099485Y7001621I-11399J0D01*
G01*
X11089714D02*
G03*
X11078315Y6990222I0J-11399D01*
G01*
X11066915Y6941595D02*
G03*
X11078315Y6952994I0J11399D01*
G01*
X11045745D02*
G03*
X11057145Y6941595I11399J0D01*
G01*
X11045745Y6975360D02*
G03*
X11034346Y6986760I-11399J0D01*
G01*
X11024575D02*
G03*
X11013176Y6975360I0J-11399D01*
G01*
X11001777Y6941595D02*
G03*
X11013176Y6952994I0J11399D01*
G01*
X10980606D02*
G03*
X10992006Y6941595I11399J0D01*
G01*
X10980606Y7023892D02*
G03*
X10969207Y7035292I-11399J0D01*
G01*
X10959436D02*
G03*
X10948037Y7023892I0J-11399D01*
G01*
X10936638Y6941595D02*
G03*
X10948037Y6952994I0J11399D01*
G01*
X10915468D02*
G03*
X10926867Y6941595I11399J0D01*
G01*
X10915468Y6971970D02*
G03*
X10900678Y6986760I-14789J0D01*
G01*
X10756952Y6858052D02*
G03*
X10752621Y6847595I10458J-10458D01*
G01*
X10741221Y6792164D02*
G03*
X10752621Y6803563I0J11399D01*
G01*
X10720051D02*
G03*
X10731450Y6792164I11399J0D01*
G01*
X10720051Y6895766D02*
G03*
X10708652Y6907165I-11399J0D01*
G01*
X10698881D02*
G03*
X10687482Y6895766I0J-11399D01*
G01*
X10676083Y6763561D02*
G03*
X10687482Y6774961I0J11399D01*
G01*
X10654912D02*
G03*
X10666312Y6763561I11399J0D01*
G01*
X10654912Y6825728D02*
G03*
X10643513Y6837128I-11399J0D01*
G01*
X10633742D02*
G03*
X10622343Y6825728I0J-11399D01*
G01*
X10610944Y6763561D02*
G03*
X10622343Y6774961I0J11399D01*
G01*
X10589774D02*
G03*
X10601173Y6763561I11399J0D01*
G01*
X10589774Y6844183D02*
G03*
X10578374Y6855583I-11399J0D01*
G01*
X10568603D02*
G03*
X10557204Y6844183I0J-11399D01*
G01*
X10545805Y6763561D02*
G03*
X10557204Y6774961I0J11399D01*
G01*
X10524635D02*
G03*
X10536034Y6763561I11399J0D01*
G01*
X10524635Y6895766D02*
G03*
X10513236Y6907165I-11399J0D01*
G01*
X10503465D02*
G03*
X10492065Y6895766I0J-11399D01*
G01*
X10477276Y6819900D02*
G03*
X10492065Y6834689I0J14789D01*
G01*
X9873902Y6879987D02*
X9916355D01*
X9829800Y7145020D02*
X9830678Y7144142D01*
X9431020Y7145020D02*
X9829800D01*
X11920056Y7307580D02*
X12027649Y7199987D01*
X12095558D02*
X12146002Y7250431D01*
X12027649Y7199987D02*
X12095558D01*
X11341100Y6121400D02*
X12109674Y6889974D01*
X11427085Y6270885D02*
X12036946Y6880746D01*
X11734800Y6629400D02*
X11938000Y6832600D01*
X11820600Y7055410D02*
X11887200Y6988810D01*
X11871960Y7056120D02*
X11938000Y6990080D01*
X11760646Y7055410D02*
X11820600D01*
X11887200Y6832600D02*
Y6988810D01*
X11938000Y6832600D02*
Y6990080D01*
X11732260Y6677660D02*
X11887200Y6832600D01*
X11722827Y6844573D02*
X11743653D01*
X11744960Y6845881D01*
X11762458Y6809720D02*
X11798300Y6845562D01*
X11557000Y6883400D02*
X11630680Y6809720D01*
X11557000Y6794500D02*
X11570095Y6781406D01*
X11630680Y6809720D02*
X11762458D01*
X11782065Y6781406D02*
X11851040Y6850380D01*
X11570095Y6781406D02*
X11782065D01*
X11623040Y6677660D02*
X11732260D01*
X11561911Y6636851D02*
X11562249D01*
X11607800Y6502400D02*
Y6591300D01*
X11562249Y6636851D02*
X11607800Y6591300D01*
X11620500Y6629400D02*
X11734800D01*
X11576720Y6673180D02*
X11620500Y6629400D01*
X11499180Y6673180D02*
X11576720D01*
X11582400Y6718300D02*
X11623040Y6677660D01*
X11465560Y6718300D02*
X11582400D01*
X11643660Y6859940D02*
X11644555D01*
X11590320Y6913280D02*
X11643660Y6859940D01*
X12036946Y6880746D02*
Y7054695D01*
X12037660Y7055410D01*
X11966294Y7200900D02*
X12109674Y7057520D01*
Y6889974D02*
Y7057520D01*
X9372600Y6121400D02*
X11341100D01*
X9563100Y6642100D02*
X9565215Y6639985D01*
X9662160D01*
X9241601Y6252399D02*
X9372600Y6121400D01*
X9507220Y6197600D02*
X11353800D01*
X9778166Y6735246D02*
X9814560Y6771640D01*
X9888220D01*
X9721414Y6735246D02*
X9778166D01*
X9924614D02*
X9946964D01*
X9888220Y6771640D02*
X9924614Y6735246D01*
X9845547Y6845902D02*
X9876629Y6814820D01*
X9820799Y6845902D02*
X9845547D01*
X9786714Y6879987D02*
X9820799Y6845902D01*
X9876629Y6814820D02*
X10079326D01*
X10144016Y6879510D01*
X9719979Y6879987D02*
X9724225D01*
X9732070Y6872142D01*
X9740900Y6819900D02*
Y6863478D01*
X9732236Y6872142D02*
X9740900Y6863478D01*
X9705340Y6784340D02*
X9740900Y6819900D01*
X9732070Y6872142D02*
X9732236D01*
X9705340Y6751320D02*
Y6784340D01*
Y6751320D02*
X9721414Y6735246D01*
X10538601Y6523827D02*
X10586720D01*
X10523811Y6496065D02*
Y6509037D01*
X10502641Y6484666D02*
X10512412D01*
X10491242Y6496065D02*
Y6512391D01*
X10470072Y6523791D02*
X10479843D01*
X10458673Y6496065D02*
Y6512391D01*
X10437502Y6484666D02*
X10447273D01*
X10426103Y6496065D02*
Y6509037D01*
X10371348Y6523827D02*
X10411314D01*
X10317953D02*
X10364773D01*
X10303164Y6538616D02*
Y6594766D01*
X10281994Y6606165D02*
X10291765D01*
X10270595Y6538616D02*
Y6594766D01*
X9983634Y6523827D02*
X10255805D01*
X9916160Y6591300D02*
X9983634Y6523827D01*
X9804840Y6591300D02*
X9916160D01*
X9756156Y6639985D02*
X9804840Y6591300D01*
X9662160Y6639985D02*
X9756156D01*
X10913780Y6913280D02*
X10944169D01*
X10885425Y6884925D02*
X10913780Y6913280D01*
X10881093Y6724769D02*
Y6874467D01*
X10859923Y6713370D02*
X10869694D01*
X10848523Y6724769D02*
Y6865611D01*
X10827353Y6877011D02*
X10837124D01*
X10815954Y6724769D02*
Y6865611D01*
X10794784Y6713370D02*
X10804555D01*
X10783385Y6724769D02*
Y6747180D01*
X10739120Y6738620D02*
X10758137Y6757637D01*
X10695906Y6738620D02*
X10739120D01*
X10692533Y6735246D02*
X10695906Y6738620D01*
X10472480Y6735246D02*
X10692533D01*
X10457691Y6750036D02*
Y6780186D01*
X10436520Y6791585D02*
X10446291D01*
X10425121Y6714104D02*
Y6780186D01*
X10403951Y6702704D02*
X10413722D01*
X10392552Y6714104D02*
Y6727221D01*
X10371382Y6738620D02*
X10381152D01*
X10359982Y6674194D02*
Y6727221D01*
X10338812Y6662795D02*
X10348583D01*
X10327413Y6674194D02*
Y6738472D01*
X10306243Y6749872D02*
X10316014D01*
X10294844Y6674194D02*
Y6738472D01*
X10273673Y6662795D02*
X10283444D01*
X10262274Y6674194D02*
Y6741861D01*
X10241104Y6753260D02*
X10250875D01*
X10229705Y6674194D02*
Y6741861D01*
X10208535Y6662795D02*
X10218305D01*
X10197135Y6674194D02*
Y6727398D01*
X10175965Y6738797D02*
X10185736D01*
X10164566Y6674194D02*
Y6727398D01*
X10143396Y6662795D02*
X10153167D01*
X10131996Y6674194D02*
Y6720457D01*
X10049078Y6735246D02*
X10117207D01*
X10034288Y6674194D02*
Y6720457D01*
X10013118Y6662795D02*
X10022889D01*
X10001719Y6674194D02*
Y6775106D01*
X9980549Y6786505D02*
X9990320D01*
X9969149Y6750036D02*
Y6775106D01*
X9946964Y6735246D02*
X9954360D01*
X10944169Y6913280D02*
X11590320D01*
X9878060Y6398260D02*
X9913620Y6362700D01*
X10617200D01*
X9523060Y6530694D02*
X9538654Y6515100D01*
X9523060Y6530694D02*
Y6673180D01*
X9563100Y6564378D02*
X9590022Y6591300D01*
X9740900D01*
X9538654Y6515100D02*
X9575800D01*
X9523060Y6673180D02*
X9554210Y6704330D01*
X9436100Y6769100D02*
X9546987Y6879987D01*
X9638663D01*
X9639979Y6878671D01*
X9241601Y6252399D02*
Y7057201D01*
X9283700Y7099300D01*
Y6421120D02*
Y6956449D01*
X9353826Y7026575D01*
X9283700Y6421120D02*
X9507220Y6197600D01*
X9353826Y7026575D02*
Y7067826D01*
X9431020Y7145020D01*
X10071345Y6846882D02*
X10159943Y6935480D01*
X9949460Y6846882D02*
X10071345D01*
X9916355Y6879987D02*
X9949460Y6846882D01*
X10396940Y6634480D02*
X10436860Y6674400D01*
X9824720Y6634480D02*
X10396940D01*
X9791700Y6667500D02*
X9824720Y6634480D01*
X10364773Y6523827D02*
X10371348D01*
X9443819Y6462376D02*
Y6465010D01*
Y6462376D02*
X9465001Y6441193D01*
X9467636D01*
X9469929Y6438900D01*
X9436100Y6472729D02*
X9443819Y6465010D01*
X11702380Y6865020D02*
Y6983610D01*
Y6865020D02*
X11722827Y6844573D01*
X11798300Y6845562D02*
Y6959600D01*
X11722100Y7035800D02*
X11798300Y6959600D01*
X11722100Y7035800D02*
Y7073900D01*
X11693785Y6992205D02*
Y7172585D01*
X11722100Y7200900D01*
X11693785Y6992205D02*
X11702380Y6983610D01*
X11722100Y7073900D02*
X11807021Y7158821D01*
X11722100Y7200900D02*
X11966294D01*
X11645785Y7198360D02*
X11698525Y7251100D01*
X11403715Y7198360D02*
X11645785D01*
X10713720Y6270885D02*
X11427085D01*
X9634914Y6965052D02*
X9679981Y6919986D01*
X11366500Y7161145D02*
X11403715Y7198360D01*
X11000761Y6737043D02*
X11089163Y6825446D01*
X11090106D01*
X11148060Y6883400D02*
X11557000D01*
X10949715Y6685055D02*
X11000761Y6736101D01*
Y6737043D01*
X11090106Y6825446D02*
X11148060Y6883400D01*
X10750036Y6685055D02*
X10949715D01*
X10725300D02*
X10750036D01*
X10710511Y6600738D02*
Y6670265D01*
X10689341Y6589338D02*
X10699111D01*
X10677941Y6600738D02*
Y6695532D01*
X10656771Y6706931D02*
X10666542D01*
X10645372Y6563208D02*
Y6695532D01*
X10624202Y6551809D02*
X10633973D01*
X10612802Y6563208D02*
Y6695532D01*
X10591632Y6706931D02*
X10601403D01*
X10580233Y6563541D02*
Y6695532D01*
X10559063Y6552142D02*
X10568834D01*
X10547664Y6563541D02*
Y6695532D01*
X10526494Y6706931D02*
X10536264D01*
X10515094Y6563505D02*
Y6695532D01*
X10493924Y6552106D02*
X10503695D01*
X10482525Y6563505D02*
Y6670265D01*
X10447515Y6685055D02*
X10467735D01*
X10436860Y6674400D02*
X10447515Y6685055D01*
X11807021Y7158821D02*
X11845459D01*
X11531600Y7002555D02*
X11615645D01*
X11666220Y6951980D01*
X10605464Y6935480D02*
X10723880D01*
X10590675Y6950270D02*
Y7004395D01*
X10569505Y7015794D02*
X10579276D01*
X10558105Y6950270D02*
Y7004395D01*
X10535920Y6935480D02*
X10543316D01*
X10723880D02*
X10794337D01*
X10159943D02*
X10535920D01*
X10794337D02*
X10814617Y6955760D01*
X11339074Y7161145D02*
X11366500D01*
X11324284Y7116042D02*
Y7146356D01*
X11303114Y7104643D02*
X11312885D01*
X11291715Y7116042D02*
Y7267866D01*
X11270545Y7279265D02*
X11280316D01*
X11259145Y7175934D02*
Y7267866D01*
X11236960Y7161145D02*
X11244356D01*
X11215246D02*
X11236960D01*
X11168196D02*
X11215246D01*
X11153406Y7116745D02*
Y7146356D01*
X11132236Y7105345D02*
X11142007D01*
X11120837Y7116745D02*
Y7267866D01*
X11099667Y7279265D02*
X11109438D01*
X11088268Y7070479D02*
Y7267866D01*
X11067097Y7059080D02*
X11076868D01*
X11055698Y7070479D02*
Y7267866D01*
X11034528Y7279265D02*
X11044299D01*
X11023129Y7116744D02*
Y7267866D01*
X11001959Y7105345D02*
X11011730D01*
X10990559Y7116744D02*
Y7231561D01*
X10969389Y7242960D02*
X10979160D01*
X10957990Y7105259D02*
Y7231561D01*
X10885529Y7026672D02*
X10953658Y7094801D01*
X10860282Y7037130D02*
Y7052391D01*
X10839112Y7063790D02*
X10848883D01*
X10827712Y6976916D02*
Y7052391D01*
X10814617Y6955760D02*
X10822012Y6963155D01*
X11698525Y7251100D02*
X11744960D01*
X10168021Y7181180D02*
X10212389D01*
X10153232Y7195970D02*
Y7231113D01*
X10132062Y7242512D02*
X10141833D01*
X10120663Y7112925D02*
Y7231113D01*
X10099492Y7101526D02*
X10109263D01*
X10088093Y7112925D02*
Y7336242D01*
X10066923Y7347642D02*
X10076694D01*
X10055524Y7112925D02*
Y7336242D01*
X10034354Y7101526D02*
X10044124D01*
X10022954Y7112925D02*
Y7336242D01*
X10001784Y7347642D02*
X10011555D01*
X9990385Y7195970D02*
Y7336242D01*
X9968200Y7181180D02*
X9975595D01*
X10212389D02*
X10856167D01*
X9941548D02*
X9968200D01*
X9720355Y6959987D02*
X9941548Y7181180D01*
X11424045Y6390804D02*
X11501871Y6468629D01*
X11399612Y6394322D02*
X11403130Y6390804D01*
X11376582Y6387413D02*
X11383491Y6394322D01*
X11376582Y6371292D02*
X11380100Y6367774D01*
X11380099Y6367774D02*
X11380100Y6367774D01*
X11374871Y6341629D02*
X11380100Y6346859D01*
X11501871Y6468629D02*
X11542461Y6509220D01*
X11367626Y6334385D02*
X11374871Y6341629D01*
X11346180Y6334385D02*
X11367626D01*
X11301424D02*
X11346180D01*
X11286635Y6349174D02*
Y6363059D01*
X11265465Y6374458D02*
X11275236D01*
X11254065Y6349174D02*
Y6363059D01*
X11231880Y6334385D02*
X11239276D01*
X11112500D02*
X11231880D01*
X10647680D02*
X10684692D01*
X10699482Y6349174D02*
Y6357911D01*
X10710881Y6369310D02*
X10720652D01*
X10732051Y6338914D02*
Y6357911D01*
X10743450Y6327515D02*
X10753221D01*
X10764621Y6338914D02*
Y6357911D01*
X10776020Y6369310D02*
X10785791D01*
X10797190Y6338914D02*
Y6357911D01*
X10808589Y6327515D02*
X10818360D01*
X10829759Y6338914D02*
Y6357911D01*
X10841159Y6369310D02*
X10850930D01*
X10862329Y6338914D02*
Y6357911D01*
X10873728Y6327515D02*
X10883499D01*
X10894898Y6338914D02*
Y6357911D01*
X10906297Y6369310D02*
X10916068D01*
X10927468Y6338914D02*
Y6357911D01*
X10938867Y6327515D02*
X10948638D01*
X10960037Y6338914D02*
Y6358082D01*
X10971436Y6369482D02*
X10981207D01*
X10992606Y6338914D02*
Y6358082D01*
X11004006Y6327515D02*
X11013777D01*
X11025176Y6338914D02*
Y6414433D01*
X11036575Y6425832D02*
X11046346D01*
X11057745Y6349174D02*
Y6414433D01*
X11072535Y6334385D02*
X11112500D01*
X9873355D02*
X10647680D01*
X11328400Y6502400D02*
X11366500Y6540500D01*
X11297658Y6502400D02*
X11328400D01*
X11282869Y6414173D02*
Y6487611D01*
X11261699Y6402773D02*
X11271470D01*
X11250300Y6414173D02*
Y6574251D01*
X11229129Y6585650D02*
X11238900D01*
X11217730Y6374099D02*
Y6574251D01*
X11196560Y6362700D02*
X11206331D01*
X11185161Y6374099D02*
Y6525961D01*
X11163991Y6537360D02*
X11173761D01*
X11152591Y6374099D02*
Y6525961D01*
X11131421Y6362700D02*
X11141192D01*
X11120022Y6374099D02*
Y6565610D01*
X11098852Y6577009D02*
X11108623D01*
X11087453Y6517189D02*
Y6565610D01*
X11065267Y6502400D02*
X11072663D01*
X11061700D02*
X11065267D01*
X10956925Y6397625D02*
X11061700Y6502400D01*
X10617200Y6362700D02*
X10652125Y6397625D01*
X10956925D01*
X10909882Y6439482D02*
X11188700Y6718300D01*
X9979651Y6439482D02*
X10909882D01*
X9760620Y6447120D02*
Y6490638D01*
Y6447120D02*
X9873355Y6334385D01*
X9626415Y6776535D02*
X9658350Y6808470D01*
X9626415Y6755619D02*
X9645847Y6736188D01*
X9645846Y6736187D02*
X9645847Y6736188D01*
X9638938Y6713158D02*
X9645847Y6720067D01*
X9622816Y6713158D02*
X9622817Y6713158D01*
X9529569Y6806405D02*
X9622817Y6713158D01*
X9529569Y6806405D02*
X9529569Y6806405D01*
X9506539Y6799496D02*
X9513449Y6806405D01*
X9506539Y6783375D02*
X9506539Y6783375D01*
X9559439Y6730475D01*
X9559439Y6730474D02*
X9559439Y6730475D01*
X9554210Y6704330D02*
X9559439Y6709559D01*
X9658350Y6808470D02*
X9679981Y6830101D01*
Y6919986D01*
X10586720Y6523827D02*
X10608473D01*
X10660980Y6471320D01*
X10852820D01*
X10993275Y6611775D02*
X11013440Y6631940D01*
X10993275Y6590860D02*
X10999185Y6584949D01*
X10999185Y6584949D02*
X10999185Y6584949D01*
X10992276Y6561919D02*
X10999185Y6568828D01*
X10976155Y6561919D02*
X10976155Y6561919D01*
X10936267Y6601807D02*
X10976155Y6561919D01*
X10936266Y6601807D02*
X10936267Y6601807D01*
X10913237Y6594898D02*
X10920146Y6601807D01*
X10913236Y6578777D02*
X10913237Y6578778D01*
X10953125Y6538889D01*
X10953125Y6538889D02*
X10953125Y6538889D01*
X10946216Y6515859D02*
X10953125Y6522768D01*
X10930095Y6515859D02*
X10930095Y6515859D01*
X10888937Y6557017D02*
X10930095Y6515859D01*
X10888937Y6557017D02*
X10888937Y6557017D01*
X10865907Y6550108D02*
X10872816Y6557017D01*
X10865907Y6533987D02*
X10865907Y6533987D01*
X10880239Y6519655D01*
X10880239Y6519654D02*
X10880239Y6519655D01*
X10875010Y6493510D02*
X10880239Y6498739D01*
X11013440Y6631940D02*
X11015980Y6634480D01*
X10852820Y6471320D02*
X10875010Y6493510D01*
X11499837Y6794500D02*
X11529060D01*
X11485047Y6758014D02*
Y6779711D01*
X11463877Y6746615D02*
X11473648D01*
X11452478Y6758014D02*
Y6779711D01*
X11271851Y6794500D02*
X11437688D01*
X11257061Y6809289D02*
Y6843686D01*
X11235891Y6855085D02*
X11245662D01*
X11224492Y6804653D02*
Y6843686D01*
X11203322Y6793253D02*
X11213093D01*
X11191922Y6804653D02*
Y6843686D01*
X11170752Y6855085D02*
X11180523D01*
X11159353Y6740396D02*
Y6843686D01*
X11138183Y6728996D02*
X11147954D01*
X11126784Y6740396D02*
Y6785732D01*
X11105614Y6797131D02*
X11115384D01*
X11094214Y6675257D02*
Y6785732D01*
X11073044Y6663858D02*
X11082815D01*
X11061645Y6675257D02*
Y6720593D01*
X11040475Y6731992D02*
X11050246D01*
X11029075Y6655636D02*
Y6720593D01*
X11015980Y6634480D02*
X11023375Y6641875D01*
X11529060Y6794500D02*
X11557000D01*
X11436331Y6718300D02*
X11465560D01*
X11421542Y6703508D02*
Y6703511D01*
X11400372Y6692109D02*
X11410143D01*
X11388972Y6703508D02*
Y6752596D01*
X11367802Y6763995D02*
X11377573D01*
X11356403Y6581846D02*
Y6752596D01*
X11335233Y6570446D02*
X11345004D01*
X11323834Y6581846D02*
Y6754786D01*
X11302663Y6766185D02*
X11312434D01*
X11291264Y6621020D02*
Y6754786D01*
X11270094Y6609620D02*
X11279865D01*
X11258695Y6621020D02*
Y6754786D01*
X11237525Y6766185D02*
X11247296D01*
X11226125Y6733089D02*
Y6754786D01*
X11203940Y6718300D02*
X11211336D01*
X11188700D02*
X11203940D01*
X11366500Y6540500D02*
X11499180Y6673180D01*
X10982567Y7307580D02*
X11920056D01*
X10144016Y6879510D02*
X10383628D01*
X9890760Y6270885D02*
X10123065D01*
X10137855Y6250526D02*
Y6256096D01*
X10149254Y6239126D02*
X10159025D01*
X10170424Y6250526D02*
Y6259486D01*
X10181823Y6270885D02*
X10191594D01*
X10202994Y6237314D02*
Y6259486D01*
X10214393Y6225915D02*
X10224164D01*
X10235563Y6237314D02*
Y6259486D01*
X10246962Y6270885D02*
X10256733D01*
X10268132Y6237314D02*
Y6259486D01*
X10279532Y6225915D02*
X10289303D01*
X10300702Y6237314D02*
Y6259486D01*
X10312101Y6270885D02*
X10321872D01*
X10333271Y6237314D02*
Y6259486D01*
X10344670Y6225915D02*
X10354441D01*
X10365841Y6237314D02*
Y6259486D01*
X10377240Y6270885D02*
X10387011D01*
X10398410Y6237314D02*
Y6259486D01*
X10409809Y6225915D02*
X10419580D01*
X10430979Y6237314D02*
Y6259486D01*
X10442379Y6270885D02*
X10452150D01*
X10463549Y6237314D02*
Y6259486D01*
X10474948Y6225915D02*
X10484719D01*
X10496118Y6237314D02*
Y6259486D01*
X10507517Y6270885D02*
X10517288D01*
X10528688Y6237314D02*
Y6259486D01*
X10540087Y6225915D02*
X10549858D01*
X10561257Y6237314D02*
Y6259486D01*
X10572656Y6270885D02*
X10582427D01*
X10593826Y6237314D02*
Y6259486D01*
X10605226Y6225915D02*
X10614997D01*
X10626396Y6237314D02*
Y6259486D01*
X10637795Y6270885D02*
X10647566D01*
X10658965Y6237314D02*
Y6259486D01*
X10670364Y6225915D02*
X10680135D01*
X10691535Y6237314D02*
Y6256096D01*
X10706324Y6270885D02*
X10713720D01*
X9680315D02*
X9890760D01*
X9436100Y6726969D02*
Y6769100D01*
Y6704583D02*
Y6726969D01*
X9399948Y6689794D02*
X9421311D01*
X9388549Y6668623D02*
Y6678394D01*
X9399948Y6657224D02*
X9432421D01*
X9443821Y6636054D02*
Y6645825D01*
X9323414Y6624655D02*
X9432421D01*
X9312015Y6603485D02*
Y6613256D01*
X9323414Y6592085D02*
X9432421D01*
X9443821Y6570915D02*
Y6580686D01*
X9323414Y6559516D02*
X9432421D01*
X9312015Y6538346D02*
Y6548117D01*
X9323414Y6526947D02*
X9421311D01*
X9436100Y6504761D02*
Y6512157D01*
Y6472729D02*
Y6504761D01*
X9469929Y6438900D02*
X9550062D01*
X11417099Y7002555D02*
X11531600D01*
X11401034Y7018620D02*
X11417099Y7002555D01*
X11353659Y7018620D02*
X11401034D01*
X11338870Y6998487D02*
Y7003831D01*
X11317700Y6987088D02*
X11327471D01*
X11306300Y6998487D02*
Y7064928D01*
X11285130Y7076327D02*
X11294901D01*
X11273731Y7030019D02*
Y7064928D01*
X11252561Y7018620D02*
X11262332D01*
X11241162Y7030019D02*
Y7065631D01*
X11219992Y7077030D02*
X11229762D01*
X11208592Y7016677D02*
Y7065631D01*
X11187422Y7005278D02*
X11197193D01*
X11176023Y7016677D02*
Y7065631D01*
X11154853Y7077030D02*
X11164624D01*
X11143453Y6952994D02*
Y7065631D01*
X11122283Y6941595D02*
X11132054D01*
X11110884Y6952994D02*
Y6990222D01*
X11089714Y7001621D02*
X11099485D01*
X11078315Y6952994D02*
Y6990222D01*
X11057145Y6941595D02*
X11066915D01*
X11045745Y6952994D02*
Y6975360D01*
X11024575Y6986760D02*
X11034346D01*
X11013176Y6952994D02*
Y6975360D01*
X10992006Y6941595D02*
X11001777D01*
X10980606Y6952994D02*
Y7023892D01*
X10959436Y7035292D02*
X10969207D01*
X10948037Y6952994D02*
Y7023892D01*
X10926867Y6941595D02*
X10936638D01*
X10915468Y6952994D02*
Y6971970D01*
X10885660Y6986760D02*
X10900678D01*
X10756952Y6858052D02*
X10885660Y6986760D01*
X10752621Y6803563D02*
Y6847595D01*
X10731450Y6792164D02*
X10741221D01*
X10720051Y6803563D02*
Y6895766D01*
X10698881Y6907165D02*
X10708652D01*
X10687482Y6774961D02*
Y6895766D01*
X10666312Y6763561D02*
X10676083D01*
X10654912Y6774961D02*
Y6825728D01*
X10633742Y6837128D02*
X10643513D01*
X10622343Y6774961D02*
Y6825728D01*
X10601173Y6763561D02*
X10610944D01*
X10589774Y6774961D02*
Y6844183D01*
X10568603Y6855583D02*
X10578374D01*
X10557204Y6774961D02*
Y6844183D01*
X10536034Y6763561D02*
X10545805D01*
X10524635Y6774961D02*
Y6895766D01*
X10503465Y6907165D02*
X10513236D01*
X10492065Y6834689D02*
Y6895766D01*
X10469880Y6819900D02*
X10477276D01*
X10443238D02*
X10469880D01*
X9601200Y6436658D02*
X9639300Y6474758D01*
X9601200Y6350000D02*
Y6436658D01*
Y6350000D02*
X9680315Y6270885D01*
X10383628Y6879510D02*
X10443238Y6819900D01*
X9550062Y6438900D02*
X9624322Y6513160D01*
X9613900Y6553200D02*
X9698058D01*
X9760620Y6490638D01*
X10856167Y7181180D02*
X10982567Y7307580D01*
X9683556Y6465426D02*
X9849782Y6299200D01*
X11404600D01*
X9902987Y6516147D02*
X9979651Y6439482D01*
X9639300Y6474758D02*
Y6477000D01*
X9654278Y6513160D02*
X9683556Y6483882D01*
X9624322Y6513160D02*
X9654278D01*
X9683556Y6465426D02*
Y6483882D01*
X9740900Y6591300D02*
X9816053Y6516147D01*
X9902987D01*
X11542461Y6509220D02*
Y6551361D01*
X11544300Y6553200D01*
X11404600Y6299200D02*
X11607800Y6502400D01*
X9575800Y6515100D02*
X9613900Y6553200D01*
D129*
X12585700Y6175749D02*
X12799977Y6390026D01*
X12585700Y5395882D02*
Y6175749D01*
X12051839Y4862021D02*
X12585700Y5395882D01*
X11854180Y4371340D02*
X12051839Y4568999D01*
Y4862021D01*
X11912600Y4673600D02*
Y5384800D01*
X12382500Y5854700D01*
X11854180Y3815080D02*
Y4371340D01*
X11786887Y3747787D02*
X11854180Y3815080D01*
X11636993Y3747787D02*
X11786887D01*
X11945620Y3863340D02*
Y4047849D01*
X11442700Y3926840D02*
Y4602870D01*
Y3926840D02*
X11470640Y3898900D01*
X11595100D01*
X12959081Y6386830D02*
Y6523969D01*
X12675690Y6103441D02*
X12959081Y6386830D01*
Y6523969D02*
X12997960Y6562849D01*
X13195300Y6259541D02*
Y6351009D01*
X13233400Y6273800D02*
Y6621780D01*
X12675690Y4777920D02*
Y6103441D01*
X12997960Y6562849D02*
Y6697969D01*
X12944453Y6751474D02*
X12997960Y6697969D01*
X11945620Y4047849D02*
X12675690Y4777920D01*
X12092177Y3829557D02*
Y4153697D01*
X12165251Y4226770D01*
X12568130D01*
X11971020Y3708400D02*
X12092177Y3829557D01*
X12568130Y4226770D02*
X12886342Y4544982D01*
Y5950583D01*
X13195300Y6259541D01*
X12731157Y6884077D02*
X12908878D01*
X12103100Y5740400D02*
Y6256020D01*
X12731157Y6884077D01*
X12816180Y6687820D02*
X12855499Y6648500D01*
X12682220Y6687820D02*
X12816180D01*
X12166600Y6172200D02*
X12682220Y6687820D01*
X12908878Y6884077D02*
X12948489Y6844464D01*
X12214860Y6713220D02*
X12474749Y6973109D01*
X12214860Y6438900D02*
Y6713220D01*
X12026900Y6250940D02*
X12214860Y6438900D01*
X12026900Y5803900D02*
Y6250940D01*
X12474749Y6973109D02*
X12474749D01*
X12575079Y7073439D02*
X12979861D01*
X12474749Y6973109D02*
X12575079Y7073439D01*
X12941299Y5930900D02*
X13299977Y6289577D01*
X13176480Y6889520D02*
X13299977Y6766023D01*
Y6289577D02*
Y6766023D01*
X12899977Y6795951D02*
X13059229D01*
X13233400Y6621780D01*
X13041231Y6889520D02*
X13176480D01*
X13004800Y6925951D02*
Y6960339D01*
Y6925951D02*
X13041231Y6889520D01*
X12959081Y7006059D02*
X13004800Y6960339D01*
X12979861Y7073439D02*
X13055499Y6997800D01*
Y6948500D02*
Y6997800D01*
X11633200Y5410200D02*
X12026900Y5803900D01*
X11633200Y4793370D02*
Y5410200D01*
X11442700Y4602870D02*
X11633200Y4793370D01*
X11595100Y3898900D02*
X11696700Y3797300D01*
X12959081Y7006059D02*
Y7045960D01*
X12903200Y5943600D02*
X13233400Y6273800D01*
X12941299Y4356100D02*
Y5930900D01*
X12903200Y4318000D02*
X12941299Y4356100D01*
X12903200Y4419600D02*
Y5943600D01*
X12848489Y6744464D02*
X12899977Y6795951D01*
X12800836Y6744464D02*
X12882979Y6662321D01*
Y6630769D02*
Y6662321D01*
X12382500Y5854700D02*
Y6134100D01*
X12166600Y5753100D02*
Y6172200D01*
X11747500Y5334000D02*
X12166600Y5753100D01*
X11747500Y4594826D02*
Y5334000D01*
X12231843Y5767543D02*
Y6085043D01*
X11808577Y5344277D02*
X12231843Y5767543D01*
X11808577Y4671177D02*
Y5344277D01*
X11672587Y4519913D02*
X11747500Y4594826D01*
X11684000Y4711700D02*
Y5321300D01*
X11493500Y3980180D02*
Y4521200D01*
X11684000Y4711700D01*
X11493500Y3980180D02*
X11526520Y3947160D01*
X11684000Y5321300D02*
X12103100Y5740400D01*
X12231843Y6085043D02*
X12729456Y6582656D01*
X12748490Y6744464D02*
X12800836D01*
X12712700Y6464300D02*
X12801601D01*
X12849767Y6352633D02*
Y6416133D01*
X12801601Y6464300D02*
X12849767Y6416133D01*
X12382500Y6134100D02*
X12712700Y6464300D01*
X12849767Y6352633D02*
X12852400Y6350000D01*
X12729456Y6582656D02*
X12834866D01*
X12882979Y6630769D01*
X11672587Y4255787D02*
Y4519913D01*
%TF.MD5,e747a7e6d1a964e09e21d2ad5724d00d*%
M02*
