%TF.GenerationSoftware,Altium Limited,Altium Designer,23.11.1 (41)*%
G04 Layer_Color=32896*
%FSLAX45Y45*%
%MOMM*%
%TF.SameCoordinates,5B37CA9A-06B1-4671-AC7C-9F047A950D05*%
%TF.FilePolarity,Positive*%
%TF.FileFunction,Legend,Bot*%
%TF.Part,Single*%
G01*
G75*
%TA.AperFunction,NonConductor*%
%ADD136C,0.25400*%
%ADD137C,0.12700*%
%ADD140C,0.15240*%
%ADD141C,0.20000*%
%ADD142C,0.19990*%
%ADD143C,0.07620*%
%ADD155C,0.10000*%
D136*
X9178072Y2842260D02*
G03*
X9178072Y2842260I-3592J0D01*
G01*
Y3096260D02*
G03*
X9178072Y3096260I-3592J0D01*
G01*
X8954552Y3208020D02*
G03*
X8954552Y3208020I-3592J0D01*
G01*
X10173752D02*
G03*
X10173752Y3208020I-3592J0D01*
G01*
X10133112Y3025140D02*
G03*
X10133112Y3025140I-3592J0D01*
G01*
Y3279140D02*
G03*
X10133112Y3279140I-3592J0D01*
G01*
X12815570Y7879080D02*
Y8072120D01*
X12482830Y7879080D02*
X12815570D01*
X12482830D02*
Y8072120D01*
X12815570D01*
X12152630Y7129780D02*
Y7322820D01*
X12485370D01*
Y7129780D02*
Y7322820D01*
X12152630Y7129780D02*
X12485370D01*
X13568680Y6742430D02*
Y7075170D01*
Y6742430D02*
X13761720D01*
Y7075170D01*
X13568680D02*
X13761720D01*
X13397231Y7929880D02*
Y8122920D01*
X13729970D01*
Y7929880D02*
Y8122920D01*
X13397231Y7929880D02*
X13729970D01*
X12739370Y8336280D02*
Y8529320D01*
X12406630Y8336280D02*
X12739370D01*
X12406630D02*
Y8529320D01*
X12739370D01*
X11483607Y8403463D02*
Y8596503D01*
X11816347D01*
Y8403463D02*
Y8596503D01*
X11483607Y8403463D02*
X11816347D01*
X11730990Y8760460D02*
Y8953500D01*
X12063730D01*
Y8760460D02*
Y8953500D01*
X11730990Y8760460D02*
X12063730D01*
X11720830Y7818120D02*
X12053570D01*
X11720830Y7625080D02*
Y7818120D01*
Y7625080D02*
X12053570D01*
Y7818120D01*
X12755880Y7278370D02*
X12948920D01*
Y6945630D02*
Y7278370D01*
X12755880Y6945630D02*
X12948920D01*
X12755880D02*
Y7278370D01*
X12820650Y7548880D02*
X13153391D01*
X12820650Y7355840D02*
Y7548880D01*
Y7355840D02*
X13153391D01*
Y7548880D01*
X14731200Y7736840D02*
Y8199120D01*
Y7736840D02*
X14959801D01*
Y8199120D01*
X14731200D02*
X14959801D01*
X16369501Y7109460D02*
Y7571740D01*
X16140900D02*
X16369501D01*
X16140900Y7109460D02*
Y7571740D01*
Y7109460D02*
X16369501D01*
X11844137Y3379487D02*
Y3608087D01*
X12306417D01*
Y3379487D02*
Y3608087D01*
X11844137Y3379487D02*
X12306417D01*
X11696700Y2181860D02*
Y2644140D01*
Y2181860D02*
X11925300D01*
Y2644140D01*
X11696700D02*
X11925300D01*
X13487399Y822960D02*
X13716000D01*
X13487399D02*
Y1285240D01*
X13716000D01*
Y822960D02*
Y1285240D01*
X19299699Y3279140D02*
X19528300D01*
Y2816860D02*
Y3279140D01*
X19299699Y2816860D02*
X19528300D01*
X19299699D02*
Y3279140D01*
X18810750Y1126200D02*
Y1354800D01*
X18348470Y1126200D02*
X18810750D01*
X18348470D02*
Y1354800D01*
X18810750D01*
X18653270Y1634200D02*
Y1862800D01*
X19115550D01*
Y1634200D02*
Y1862800D01*
X18653270Y1634200D02*
X19115550D01*
X14922501Y3596640D02*
X15151100D01*
Y3134360D02*
Y3596640D01*
X14922501Y3134360D02*
X15151100D01*
X14922501D02*
Y3596640D01*
X15125700Y2016760D02*
X15354300D01*
X15125700D02*
Y2479040D01*
X15354300D01*
Y2016760D02*
Y2479040D01*
D137*
X16867438Y2480485D02*
G03*
X16867438Y2440485I0J-20000D01*
G01*
X16944208Y2350805D02*
G03*
X16944208Y2350805I-6350J0D01*
G01*
X543700Y3842320D02*
G03*
X503700Y3842320I-20000J0D01*
G01*
X420370Y3771900D02*
G03*
X420370Y3771900I-6350J0D01*
G01*
X7110590Y6754560D02*
G03*
X7150590Y6754560I20000J0D01*
G01*
X7246620Y6824980D02*
G03*
X7246620Y6824980I-6350J0D01*
G01*
X17861140Y4735260D02*
G03*
X17901140Y4735260I20000J0D01*
G01*
X17997169Y4805680D02*
G03*
X17997169Y4805680I-6350J0D01*
G01*
X17435260Y6065660D02*
G03*
X17435260Y6025660I0J-20000D01*
G01*
X17512030Y5935980D02*
G03*
X17512030Y5935980I-6350J0D01*
G01*
X14234860Y3678060D02*
G03*
X14234860Y3638060I0J-20000D01*
G01*
X14311630Y3548380D02*
G03*
X14311630Y3548380I-6350J0D01*
G01*
X10882060Y4033660D02*
G03*
X10882060Y3993660I0J-20000D01*
G01*
X10958830Y3903980D02*
G03*
X10958830Y3903980I-6350J0D01*
G01*
X3671000Y9056600D02*
G03*
X3671000Y9016600I0J-20000D01*
G01*
X3747770Y8926920D02*
G03*
X3747770Y8926920I-6350J0D01*
G01*
X2478340Y6278740D02*
G03*
X2478340Y6318740I0J20000D01*
G01*
X2414270Y6408420D02*
G03*
X2414270Y6408420I-6350J0D01*
G01*
X3973260Y2916060D02*
G03*
X3973260Y2876060I0J-20000D01*
G01*
X4050030Y2786380D02*
G03*
X4050030Y2786380I-6350J0D01*
G01*
X3109660Y2916060D02*
G03*
X3109660Y2876060I0J-20000D01*
G01*
X3186430Y2786380D02*
G03*
X3186430Y2786380I-6350J0D01*
G01*
X3973260Y2154060D02*
G03*
X3973260Y2114060I0J-20000D01*
G01*
X4050030Y2024380D02*
G03*
X4050030Y2024380I-6350J0D01*
G01*
X3109660Y2154060D02*
G03*
X3109660Y2114060I0J-20000D01*
G01*
X3186430Y2024380D02*
G03*
X3186430Y2024380I-6350J0D01*
G01*
X12272975Y7861884D02*
Y7938084D01*
X12438075D01*
Y7861884D02*
Y7938084D01*
X12272975Y7861884D02*
X12438075D01*
X11938076Y8072984D02*
Y8238084D01*
X11861876D02*
X11938076D01*
X11861876Y8072984D02*
Y8238084D01*
Y8072984D02*
X11938076D01*
X11861876Y7538085D02*
X12026976D01*
X11861876Y7461885D02*
Y7538085D01*
Y7461885D02*
X12026976D01*
Y7538085D01*
X11766550Y7035800D02*
X11931650D01*
X11766550Y6959600D02*
Y7035800D01*
Y6959600D02*
X11931650D01*
Y7035800D01*
X11672976Y6938086D02*
X11838076D01*
X11672976Y6861886D02*
Y6938086D01*
Y6861886D02*
X11838076D01*
Y6938086D01*
X11531600Y6673850D02*
Y6838950D01*
X11455400D02*
X11531600D01*
X11455400Y6673850D02*
Y6838950D01*
Y6673850D02*
X11531600D01*
X10471600Y969200D02*
Y1469200D01*
X10051600Y969200D02*
Y1469200D01*
X10410950Y969200D02*
X10471600D01*
X10410950Y1469200D02*
X10471600D01*
X10051600Y969200D02*
X10112250D01*
X10051600Y1469200D02*
X10112250D01*
X9963600Y969200D02*
Y1469200D01*
X9543600Y969200D02*
Y1469200D01*
X9902950Y969200D02*
X9963600D01*
X9902950Y1469200D02*
X9963600D01*
X9543600Y969200D02*
X9604250D01*
X9543600Y1469200D02*
X9604250D01*
X9455600Y969200D02*
Y1469200D01*
X9035600Y969200D02*
Y1469200D01*
X9394950Y969200D02*
X9455600D01*
X9394950Y1469200D02*
X9455600D01*
X9035600Y969200D02*
X9096250D01*
X9035600Y1469200D02*
X9096250D01*
X8947600Y969200D02*
Y1469200D01*
X8527600Y969200D02*
Y1469200D01*
X8886950Y969200D02*
X8947600D01*
X8886950Y1469200D02*
X8947600D01*
X8527600Y969200D02*
X8588250D01*
X8527600Y1469200D02*
X8588250D01*
X13328650Y7708900D02*
X13493750D01*
X13328650Y7632700D02*
Y7708900D01*
Y7632700D02*
X13493750D01*
Y7708900D01*
X16867438Y2415485D02*
Y2440485D01*
Y2480485D02*
Y2505485D01*
X16637437Y2415485D02*
X16867438D01*
X16637437D02*
Y2505485D01*
X16867438D01*
X17069939Y2466285D02*
Y2631385D01*
X16993738D02*
X17069939D01*
X16993738Y2466285D02*
Y2631385D01*
Y2466285D02*
X17069939D01*
Y2263085D02*
Y2428185D01*
X16993738D02*
X17069939D01*
X16993738Y2263085D02*
Y2428185D01*
Y2263085D02*
X17069939D01*
X323850Y3746500D02*
X488950D01*
X323850Y3670300D02*
Y3746500D01*
Y3670300D02*
X488950D01*
Y3746500D01*
X527050Y3670300D02*
X692150D01*
Y3746500D01*
X527050D02*
X692150D01*
X527050Y3670300D02*
Y3746500D01*
X850900Y3829050D02*
Y3994150D01*
X774700D02*
X850900D01*
X774700Y3829050D02*
Y3994150D01*
Y3829050D02*
X850900D01*
X478700Y3842320D02*
X503700D01*
X543700D02*
X568700D01*
X478700D02*
Y4072320D01*
X568700D01*
Y3842320D02*
Y4072320D01*
X527050Y3644900D02*
X692150D01*
X527050Y3568700D02*
Y3644900D01*
Y3568700D02*
X692150D01*
Y3644900D01*
X6927850Y6946900D02*
X7092950D01*
X6927850Y6870700D02*
Y6946900D01*
Y6870700D02*
X7092950D01*
Y6946900D01*
X7131050Y6870700D02*
X7296150D01*
Y6946900D01*
X7131050D02*
X7296150D01*
X7131050Y6870700D02*
Y6946900D01*
X7150590Y6754560D02*
X7175590D01*
X7085590D02*
X7110590D01*
X7175590Y6524560D02*
Y6754560D01*
X7085590Y6524560D02*
X7175590D01*
X7085590D02*
Y6754560D01*
X17900650Y4914900D02*
X18065750D01*
X17900650Y4838700D02*
Y4914900D01*
Y4838700D02*
X18065750D01*
Y4914900D01*
X17697450D02*
X17862550D01*
X17697450Y4838700D02*
Y4914900D01*
Y4838700D02*
X17862550D01*
Y4914900D01*
X17901140Y4735260D02*
X17926140D01*
X17836140D02*
X17861140D01*
X17926140Y4505260D02*
Y4735260D01*
X17836140Y4505260D02*
X17926140D01*
X17836140D02*
Y4735260D01*
X17614900Y6064250D02*
Y6229350D01*
X17538699D02*
X17614900D01*
X17538699Y6064250D02*
Y6229350D01*
Y6064250D02*
X17614900D01*
X17538699Y5861050D02*
Y6026150D01*
Y5861050D02*
X17614900D01*
Y6026150D01*
X17538699D02*
X17614900D01*
X17435260Y6000660D02*
Y6025660D01*
Y6065660D02*
Y6090660D01*
X17205260Y6000660D02*
X17435260D01*
X17205260D02*
Y6090660D01*
X17435260D01*
X14338300Y3473450D02*
Y3638550D01*
Y3473450D02*
X14414500D01*
Y3638550D01*
X14338300D02*
X14414500D01*
X14234860Y3613060D02*
Y3638060D01*
Y3678060D02*
Y3703060D01*
X14004860Y3613060D02*
X14234860D01*
X14004860D02*
Y3703060D01*
X14234860D01*
X14414500Y3676650D02*
Y3841750D01*
X14338300D02*
X14414500D01*
X14338300Y3676650D02*
Y3841750D01*
Y3676650D02*
X14414500D01*
X11061700Y4032250D02*
Y4197350D01*
X10985500D02*
X11061700D01*
X10985500Y4032250D02*
Y4197350D01*
Y4032250D02*
X11061700D01*
X10882060Y3968660D02*
Y3993660D01*
Y4033660D02*
Y4058660D01*
X10652060Y3968660D02*
X10882060D01*
X10652060D02*
Y4058660D01*
X10882060D01*
X10985500Y3829050D02*
Y3994150D01*
Y3829050D02*
X11061700D01*
Y3994150D01*
X10985500D02*
X11061700D01*
X3843020Y8836750D02*
Y9001850D01*
X3766820D02*
X3843020D01*
X3766820Y8836750D02*
Y9001850D01*
Y8836750D02*
X3843020D01*
Y9090750D02*
Y9255850D01*
X3766820D02*
X3843020D01*
X3766820Y9090750D02*
Y9255850D01*
Y9090750D02*
X3843020D01*
X3671000Y8991600D02*
Y9016600D01*
Y9056600D02*
Y9081600D01*
X3441000Y8991600D02*
X3671000D01*
X3441000D02*
Y9081600D01*
X3671000D01*
X2478340Y6318740D02*
Y6343740D01*
Y6253740D02*
Y6278740D01*
Y6343740D02*
X2708340D01*
Y6253740D02*
Y6343740D01*
X2478340Y6253740D02*
X2708340D01*
X2298700Y6115050D02*
Y6280150D01*
Y6115050D02*
X2374900D01*
Y6280150D01*
X2298700D02*
X2374900D01*
X2298700Y6318250D02*
Y6483350D01*
Y6318250D02*
X2374900D01*
Y6483350D01*
X2298700D02*
X2374900D01*
X685800Y2559050D02*
Y2724150D01*
Y2559050D02*
X762000D01*
Y2724150D01*
X685800D02*
X762000D01*
X660400Y2559050D02*
Y2724150D01*
X584200D02*
X660400D01*
X584200Y2559050D02*
Y2724150D01*
Y2559050D02*
X660400D01*
X558800D02*
Y2724150D01*
X482600D02*
X558800D01*
X482600Y2559050D02*
Y2724150D01*
Y2559050D02*
X558800D01*
X482600Y2882900D02*
X647700D01*
X482600Y2806700D02*
Y2882900D01*
Y2806700D02*
X647700D01*
Y2882900D01*
X12461875Y6938086D02*
X12538075D01*
Y6772986D02*
Y6938086D01*
X12461875Y6772986D02*
X12538075D01*
X12461875D02*
Y6938086D01*
X12153900Y6775450D02*
Y6940550D01*
Y6775450D02*
X12230100D01*
Y6940550D01*
X12153900D02*
X12230100D01*
X13531850Y6515100D02*
Y6591300D01*
X13696950D01*
Y6515100D02*
Y6591300D01*
X13531850Y6515100D02*
X13696950D01*
X13265150Y6858000D02*
Y6934200D01*
X13430251D01*
Y6858000D02*
Y6934200D01*
X13265150Y6858000D02*
X13430251D01*
X13838072Y7761884D02*
Y7838084D01*
X13672972Y7761884D02*
X13838072D01*
X13672972D02*
Y7838084D01*
X13838072D01*
X13161874Y7938084D02*
X13238074D01*
Y7772984D02*
Y7938084D01*
X13161874Y7772984D02*
X13238074D01*
X13161874D02*
Y7938084D01*
X13561873Y8438083D02*
X13638074D01*
Y8272983D02*
Y8438083D01*
X13561873Y8272983D02*
X13638074D01*
X13561873D02*
Y8438083D01*
X13261877Y8438087D02*
X13338077D01*
Y8272987D02*
Y8438087D01*
X13261877Y8272987D02*
X13338077D01*
X13261877D02*
Y8438087D01*
X12926974Y8761882D02*
Y8838082D01*
X12761874Y8761882D02*
X12926974D01*
X12761874D02*
Y8838082D01*
X12926974D01*
X13131799Y8661400D02*
Y8737600D01*
X12966701Y8661400D02*
X13131799D01*
X12966701D02*
Y8737600D01*
X13131799D01*
X13072974Y8861882D02*
Y8938082D01*
X13238074D01*
Y8861882D02*
Y8938082D01*
X13072974Y8861882D02*
X13238074D01*
X12272977Y8761887D02*
X12438077D01*
Y8838087D01*
X12272977D02*
X12438077D01*
X12272977Y8761887D02*
Y8838087D01*
X11826977Y7361885D02*
Y7438085D01*
X11661877Y7361885D02*
X11826977D01*
X11661877D02*
Y7438085D01*
X11826977D01*
X13188950Y7023100D02*
Y7099300D01*
X13023849Y7023100D02*
X13188950D01*
X13023849D02*
Y7099300D01*
X13188950D01*
X12934950Y6863080D02*
Y6939280D01*
X12769850Y6863080D02*
X12934950D01*
X12769850D02*
Y6939280D01*
X12934950D01*
X12762230Y6563360D02*
Y6639560D01*
X12927330D01*
Y6563360D02*
Y6639560D01*
X12762230Y6563360D02*
X12927330D01*
X12361875Y7472985D02*
Y7638085D01*
Y7472985D02*
X12438075D01*
Y7638085D01*
X12361875D02*
X12438075D01*
X12761874Y7672984D02*
Y7838084D01*
Y7672984D02*
X12838074D01*
Y7838084D01*
X12761874D02*
X12838074D01*
X12465050Y7835900D02*
X12630150D01*
X12465050Y7759700D02*
Y7835900D01*
Y7759700D02*
X12630150D01*
Y7835900D01*
X11461877Y7961887D02*
Y8126987D01*
Y7961887D02*
X11538077D01*
Y8126987D01*
X11461877D02*
X11538077D01*
X11961876Y8561883D02*
Y8638083D01*
X12126976D01*
Y8561883D02*
Y8638083D01*
X11961876Y8561883D02*
X12126976D01*
X12465050Y8648700D02*
Y8724900D01*
X12630150D01*
Y8648700D02*
Y8724900D01*
X12465050Y8648700D02*
X12630150D01*
X12272975Y8861882D02*
Y8938082D01*
X12438075D01*
Y8861882D02*
Y8938082D01*
X12272975Y8861882D02*
X12438075D01*
X15861501Y6902450D02*
X15937700D01*
X15861501D02*
Y7067550D01*
X15937700D01*
Y6902450D02*
Y7067550D01*
X7283450Y8293100D02*
X7448550D01*
Y8369300D01*
X7283450D02*
X7448550D01*
X7283450Y8293100D02*
Y8369300D01*
X7023100Y7689850D02*
Y7854950D01*
Y7689850D02*
X7099300D01*
Y7854950D01*
X7023100D02*
X7099300D01*
X7385050Y7454900D02*
X7550150D01*
X7385050Y7378700D02*
Y7454900D01*
Y7378700D02*
X7550150D01*
Y7454900D01*
X7588250D02*
X7753350D01*
X7588250Y7378700D02*
Y7454900D01*
Y7378700D02*
X7753350D01*
Y7454900D01*
X14185899Y4984750D02*
Y5149850D01*
Y4984750D02*
X14262100D01*
Y5149850D01*
X14185899D02*
X14262100D01*
X14185899Y5187950D02*
Y5353050D01*
Y5187950D02*
X14262100D01*
Y5353050D01*
X14185899D02*
X14262100D01*
X13836650Y4648200D02*
X14001750D01*
X13836650Y4572000D02*
Y4648200D01*
Y4572000D02*
X14001750D01*
Y4648200D01*
X4152900Y2711450D02*
Y2876550D01*
X4076700D02*
X4152900D01*
X4076700Y2711450D02*
Y2876550D01*
Y2711450D02*
X4152900D01*
X3973260Y2851060D02*
Y2876060D01*
Y2916060D02*
Y2941060D01*
X3743260Y2851060D02*
X3973260D01*
X3743260D02*
Y2941060D01*
X3973260D01*
X3856990Y3124290D02*
X4022090D01*
Y3200490D01*
X3856990D02*
X4022090D01*
X3856990Y3124290D02*
Y3200490D01*
X3213100Y2927350D02*
X3289300D01*
Y2762250D02*
Y2927350D01*
X3213100Y2762250D02*
X3289300D01*
X3213100D02*
Y2927350D01*
X3130550Y3162300D02*
Y3238500D01*
X2965450Y3162300D02*
X3130550D01*
X2965450D02*
Y3238500D01*
X3130550D01*
X3109660Y2851060D02*
Y2876060D01*
Y2916060D02*
Y2941060D01*
X2879660Y2851060D02*
X3109660D01*
X2879660D02*
Y2941060D01*
X3109660D01*
X4076700Y1949450D02*
Y2114550D01*
Y1949450D02*
X4152900D01*
Y2114550D01*
X4076700D02*
X4152900D01*
X3973260Y2089060D02*
Y2114060D01*
Y2154060D02*
Y2179060D01*
X3743260Y2089060D02*
X3973260D01*
X3743260D02*
Y2179060D01*
X3973260D01*
X4044950Y2349500D02*
Y2425700D01*
X3879850Y2349500D02*
X4044950D01*
X3879850D02*
Y2425700D01*
X4044950D01*
X3213100Y2114550D02*
X3289300D01*
Y1949450D02*
Y2114550D01*
X3213100Y1949450D02*
X3289300D01*
X3213100D02*
Y2114550D01*
X2965450Y2349500D02*
X3130550D01*
Y2425700D01*
X2965450D02*
X3130550D01*
X2965450Y2349500D02*
Y2425700D01*
X3109660Y2089060D02*
Y2114060D01*
Y2154060D02*
Y2179060D01*
X2879660Y2089060D02*
X3109660D01*
X2879660D02*
Y2179060D01*
X3109660D01*
X1257300Y9131300D02*
Y9461500D01*
X1587500Y9131300D02*
Y9461500D01*
X1257300D02*
X1587500D01*
X1257300Y9131300D02*
X1587500D01*
X11010900Y2603500D02*
Y2933700D01*
X11341100Y2603500D02*
Y2933700D01*
X11010900D02*
X11341100D01*
X11010900Y2603500D02*
X11341100D01*
X6286500Y2527300D02*
Y2857500D01*
X6616700Y2527300D02*
Y2857500D01*
X6286500D02*
X6616700D01*
X6286500Y2527300D02*
X6616700D01*
X19697701Y6591300D02*
Y6921500D01*
X20027901Y6591300D02*
Y6921500D01*
X19697701D02*
X20027901D01*
X19697701Y6591300D02*
X20027901D01*
X13811250Y1092200D02*
X13976350D01*
Y1168400D01*
X13811250D02*
X13976350D01*
X13811250Y1092200D02*
Y1168400D01*
X13817599Y1526540D02*
X13982700D01*
Y1602740D01*
X13817599D02*
X13982700D01*
X13817599Y1526540D02*
Y1602740D01*
Y1729740D02*
X13982700D01*
Y1805940D01*
X13817599D02*
X13982700D01*
X13817599Y1729740D02*
Y1805940D01*
X13811250Y1295400D02*
X13976350D01*
Y1371600D01*
X13811250D02*
X13976350D01*
X13811250Y1295400D02*
Y1371600D01*
X11726027Y3989087D02*
X11891127D01*
X11726027Y3912887D02*
Y3989087D01*
Y3912887D02*
X11891127D01*
Y3989087D01*
X11726027Y3785887D02*
X11891127D01*
X11726027Y3709687D02*
Y3785887D01*
Y3709687D02*
X11891127D01*
Y3785887D01*
X12668250Y3975100D02*
X12833350D01*
Y4051300D01*
X12668250D02*
X12833350D01*
X12668250Y3975100D02*
Y4051300D01*
X12151477Y4427237D02*
Y4592337D01*
X12075277D02*
X12151477D01*
X12075277Y4427237D02*
Y4592337D01*
Y4427237D02*
X12151477D01*
X18518649Y2984500D02*
X18683749D01*
X18518649Y2908300D02*
Y2984500D01*
Y2908300D02*
X18683749D01*
Y2984500D01*
X18315450Y2908300D02*
X18480550D01*
Y2984500D01*
X18315450D02*
X18480550D01*
X18315450Y2908300D02*
Y2984500D01*
X18772650Y2857500D02*
X18937750D01*
Y2933700D01*
X18772650D02*
X18937750D01*
X18772650Y2857500D02*
Y2933700D01*
X18975850D02*
X19140950D01*
X18975850Y2857500D02*
Y2933700D01*
Y2857500D02*
X19140950D01*
Y2933700D01*
X18338310Y1411950D02*
Y1577050D01*
Y1411950D02*
X18414510D01*
Y1577050D01*
X18338310D02*
X18414510D01*
X18439909Y1411950D02*
Y1577050D01*
Y1411950D02*
X18516110D01*
Y1577050D01*
X18439909D02*
X18516110D01*
X18541510Y1411950D02*
Y1577050D01*
Y1411950D02*
X18617709D01*
Y1577050D01*
X18541510D02*
X18617709D01*
X18954260Y1380200D02*
X19119360D01*
X18954260Y1304000D02*
Y1380200D01*
Y1304000D02*
X19119360D01*
Y1380200D01*
X18954260Y1583400D02*
X19119360D01*
X18954260Y1507200D02*
Y1583400D01*
Y1507200D02*
X19119360D01*
Y1583400D01*
X18954260Y1481800D02*
X19119360D01*
X18954260Y1405600D02*
Y1481800D01*
Y1405600D02*
X19119360D01*
Y1481800D01*
X19077451Y3035300D02*
X19242551D01*
X19077451Y2959100D02*
Y3035300D01*
Y2959100D02*
X19242551D01*
Y3035300D01*
X15201900Y3130550D02*
Y3295650D01*
Y3130550D02*
X15278101D01*
Y3295650D01*
X15201900D02*
X15278101D01*
X15074899Y2317750D02*
Y2482850D01*
X14998700D02*
X15074899D01*
X14998700Y2317750D02*
Y2482850D01*
Y2317750D02*
X15074899D01*
X9315450Y3378200D02*
X9480550D01*
X9315450Y3302000D02*
Y3378200D01*
Y3302000D02*
X9480550D01*
Y3378200D01*
X9175750Y3302000D02*
Y3378200D01*
X9010650Y3302000D02*
X9175750D01*
X9010650D02*
Y3378200D01*
X9175750D01*
X9423400Y2400300D02*
Y2476500D01*
X9588500D01*
Y2400300D02*
Y2476500D01*
X9423400Y2400300D02*
X9588500D01*
X9220200Y2476500D02*
X9385300D01*
X9220200Y2400300D02*
Y2476500D01*
Y2400300D02*
X9385300D01*
Y2476500D01*
X9329420Y2905760D02*
Y2969260D01*
X9316720Y2893060D02*
X9329420Y2905760D01*
Y2969260D02*
X9342120Y2981960D01*
X9335770Y2937510D02*
X9354820Y2918460D01*
Y2956560D01*
X9335770Y2937510D02*
X9354820Y2956560D01*
X9335770Y2937510D02*
X9354820D01*
X9194800Y2857500D02*
Y3009900D01*
X9499600Y2857500D02*
Y3009900D01*
X9194800Y2857500D02*
X9499600D01*
X9194800Y3009900D02*
X9499600D01*
X9329420Y3159760D02*
Y3223260D01*
X9316720Y3147060D02*
X9329420Y3159760D01*
Y3223260D02*
X9342120Y3235960D01*
X9335770Y3191510D02*
X9354820Y3172460D01*
Y3210560D01*
X9335770Y3191510D02*
X9354820Y3210560D01*
X9335770Y3191510D02*
X9354820D01*
X9194800Y3111500D02*
Y3263900D01*
X9499600Y3111500D02*
Y3263900D01*
X9194800Y3111500D02*
X9499600D01*
X9194800Y3263900D02*
X9499600D01*
X9014460Y3053080D02*
X9077960D01*
X9001760Y3065780D02*
X9014460Y3053080D01*
X9077960D02*
X9090660Y3040380D01*
X9027160Y3027680D02*
X9046210Y3046730D01*
X9027160Y3027680D02*
X9065260D01*
X9046210Y3046730D02*
X9065260Y3027680D01*
X9046210D02*
Y3046730D01*
X8966200Y3187700D02*
X9118600D01*
X8966200Y2882900D02*
X9118600D01*
X8966200D02*
Y3187700D01*
X9118600Y2882900D02*
Y3187700D01*
X10233660Y3053080D02*
X10297160D01*
X10220960Y3065780D02*
X10233660Y3053080D01*
X10297160D02*
X10309860Y3040380D01*
X10246360Y3027680D02*
X10265410Y3046730D01*
X10246360Y3027680D02*
X10284460D01*
X10265410Y3046730D02*
X10284460Y3027680D01*
X10265410D02*
Y3046730D01*
X10185400Y3187700D02*
X10337800D01*
X10185400Y2882900D02*
X10337800D01*
X10185400D02*
Y3187700D01*
X10337800Y2882900D02*
Y3187700D01*
X9974580Y2898140D02*
Y2961640D01*
X9987280Y2974340D01*
X9961880Y2885440D02*
X9974580Y2898140D01*
X9949180Y2948940D02*
X9968230Y2929890D01*
X9949180Y2910840D02*
Y2948940D01*
Y2910840D02*
X9968230Y2929890D01*
X9949180D02*
X9968230D01*
X10109200Y2857500D02*
Y3009900D01*
X9804400Y2857500D02*
Y3009900D01*
X10109200D01*
X9804400Y2857500D02*
X10109200D01*
X9974580Y3152140D02*
Y3215640D01*
X9987280Y3228340D01*
X9961880Y3139440D02*
X9974580Y3152140D01*
X9949180Y3202940D02*
X9968230Y3183890D01*
X9949180Y3164840D02*
Y3202940D01*
Y3164840D02*
X9968230Y3183890D01*
X9949180D02*
X9968230D01*
X10109200Y3111500D02*
Y3263900D01*
X9804400Y3111500D02*
Y3263900D01*
X10109200D01*
X9804400Y3111500D02*
X10109200D01*
X11826977Y6561887D02*
Y6638087D01*
X11661877Y6561887D02*
X11826977D01*
X11661877D02*
Y6638087D01*
X11826977D01*
D140*
X12395183Y8026392D02*
X12407879Y8039088D01*
X12433271D01*
X12445967Y8026392D01*
Y7975608D01*
X12433271Y7962912D01*
X12407879D01*
X12395183Y7975608D01*
X12319008Y7962912D02*
X12369792D01*
X12319008Y8013696D01*
Y8026392D01*
X12331704Y8039088D01*
X12357096D01*
X12369792Y8026392D01*
X12293616Y8039088D02*
X12242833D01*
Y8026392D01*
X12293616Y7975608D01*
Y7962912D01*
X12928592Y7937517D02*
X12941289Y7924821D01*
Y7899429D01*
X12928592Y7886733D01*
X12877808D01*
X12865112Y7899429D01*
Y7924821D01*
X12877808Y7937517D01*
X12865112Y8013692D02*
Y7962908D01*
X12915897Y8013692D01*
X12928592D01*
X12941289Y8000996D01*
Y7975604D01*
X12928592Y7962908D01*
X12941289Y8089867D02*
Y8039084D01*
X12903200D01*
X12915897Y8064476D01*
Y8077172D01*
X12903200Y8089867D01*
X12877808D01*
X12865112Y8077172D01*
Y8051780D01*
X12877808Y8039084D01*
X11976112Y8051833D02*
X12052288D01*
Y8089921D01*
X12039592Y8102617D01*
X12014200D01*
X12001504Y8089921D01*
Y8051833D01*
Y8077225D02*
X11976112Y8102617D01*
Y8178792D02*
Y8128008D01*
X12026896Y8178792D01*
X12039592D01*
X12052288Y8166096D01*
Y8140704D01*
X12039592Y8128008D01*
X12052288Y8254967D02*
X12039592Y8229576D01*
X12014200Y8204184D01*
X11988808D01*
X11976112Y8216880D01*
Y8242272D01*
X11988808Y8254967D01*
X12001504D01*
X12014200Y8242272D01*
Y8204184D01*
X11772896Y7531092D02*
X11785592Y7543788D01*
X11810983D01*
X11823679Y7531092D01*
Y7480308D01*
X11810983Y7467612D01*
X11785592D01*
X11772896Y7480308D01*
X11696721Y7467612D02*
X11747504D01*
X11696721Y7518396D01*
Y7531092D01*
X11709416Y7543788D01*
X11734808D01*
X11747504Y7531092D01*
X12090379Y6959612D02*
Y7035788D01*
X12052292D01*
X12039596Y7023092D01*
Y6997700D01*
X12052292Y6985004D01*
X12090379D01*
X12064988D02*
X12039596Y6959612D01*
X12014204Y7023092D02*
X12001508Y7035788D01*
X11976116D01*
X11963421Y7023092D01*
Y7010396D01*
X11976116Y6997700D01*
X11988812D01*
X11976116D01*
X11963421Y6985004D01*
Y6972308D01*
X11976116Y6959612D01*
X12001508D01*
X12014204Y6972308D01*
X12014179Y6858012D02*
Y6934188D01*
X11976092D01*
X11963396Y6921492D01*
Y6896100D01*
X11976092Y6883404D01*
X12014179D01*
X11988788D02*
X11963396Y6858012D01*
X11887221D02*
X11938004D01*
X11887221Y6908796D01*
Y6921492D01*
X11899916Y6934188D01*
X11925308D01*
X11938004Y6921492D01*
X11366492Y6718317D02*
X11379188Y6705621D01*
Y6680229D01*
X11366492Y6667533D01*
X11315708D01*
X11303012Y6680229D01*
Y6705621D01*
X11315708Y6718317D01*
X11379188Y6794492D02*
X11366492Y6769100D01*
X11341100Y6743708D01*
X11315708D01*
X11303012Y6756404D01*
Y6781796D01*
X11315708Y6794492D01*
X11328404D01*
X11341100Y6781796D01*
Y6743708D01*
X11379188Y6870667D02*
X11366492Y6845276D01*
X11341100Y6819884D01*
X11315708D01*
X11303012Y6832580D01*
Y6857972D01*
X11315708Y6870667D01*
X11328404D01*
X11341100Y6857972D01*
Y6819884D01*
X10236200Y1724635D02*
Y1648460D01*
X10198112D01*
X10185417Y1661156D01*
Y1711939D01*
X10198112Y1724635D01*
X10236200D01*
X10160025Y1648460D02*
X10134633D01*
X10147329D01*
Y1724635D01*
X10160025Y1711939D01*
X10096545D02*
X10083849Y1724635D01*
X10058457D01*
X10045762Y1711939D01*
Y1661156D01*
X10058457Y1648460D01*
X10083849D01*
X10096545Y1661156D01*
Y1711939D01*
X9702800Y1724635D02*
Y1648460D01*
X9664712D01*
X9652017Y1661156D01*
Y1711939D01*
X9664712Y1724635D01*
X9702800D01*
X9626625Y1648460D02*
X9601233D01*
X9613929D01*
Y1724635D01*
X9626625Y1711939D01*
X9563145Y1648460D02*
X9537753D01*
X9550449D01*
Y1724635D01*
X9563145Y1711939D01*
X9156700Y1724635D02*
Y1648460D01*
X9118612D01*
X9105917Y1661156D01*
Y1711939D01*
X9118612Y1724635D01*
X9156700D01*
X9080525Y1661156D02*
X9067829Y1648460D01*
X9042437D01*
X9029741Y1661156D01*
Y1711939D01*
X9042437Y1724635D01*
X9067829D01*
X9080525Y1711939D01*
Y1699243D01*
X9067829Y1686548D01*
X9029741D01*
X8648700Y1724635D02*
Y1648460D01*
X8610612D01*
X8597917Y1661156D01*
Y1711939D01*
X8610612Y1724635D01*
X8648700D01*
X8572525Y1711939D02*
X8559829Y1724635D01*
X8534437D01*
X8521741Y1711939D01*
Y1699243D01*
X8534437Y1686548D01*
X8521741Y1673852D01*
Y1661156D01*
X8534437Y1648460D01*
X8559829D01*
X8572525Y1661156D01*
Y1673852D01*
X8559829Y1686548D01*
X8572525Y1699243D01*
Y1711939D01*
X8559829Y1686548D02*
X8534437D01*
X13461983Y7594592D02*
X13474680Y7607288D01*
X13500072D01*
X13512767Y7594592D01*
Y7543808D01*
X13500072Y7531112D01*
X13474680D01*
X13461983Y7543808D01*
X13398505Y7531112D02*
Y7607288D01*
X13436592Y7569200D01*
X13385808D01*
X13360416Y7594592D02*
X13347720Y7607288D01*
X13322328D01*
X13309633Y7594592D01*
Y7543808D01*
X13322328Y7531112D01*
X13347720D01*
X13360416Y7543808D01*
Y7594592D01*
X13201636Y9029692D02*
X13214331Y9042388D01*
X13239723D01*
X13252419Y9029692D01*
Y8978908D01*
X13239723Y8966212D01*
X13214331D01*
X13201636Y8978908D01*
X13176244Y8966212D02*
X13150851D01*
X13163548D01*
Y9042388D01*
X13176244Y9029692D01*
X13112764D02*
X13100069Y9042388D01*
X13074677D01*
X13061981Y9029692D01*
Y8978908D01*
X13074677Y8966212D01*
X13100069D01*
X13112764Y8978908D01*
Y9029692D01*
X14090605Y1424952D02*
Y1501128D01*
X14052518D01*
X14039821Y1488432D01*
Y1463040D01*
X14052518Y1450344D01*
X14090605D01*
X14065213D02*
X14039821Y1424952D01*
X13963646D02*
X14014429D01*
X13963646Y1475736D01*
Y1488432D01*
X13976341Y1501128D01*
X14001733D01*
X14014429Y1488432D01*
X13938254D02*
X13925558Y1501128D01*
X13900166D01*
X13887471Y1488432D01*
Y1437648D01*
X13900166Y1424952D01*
X13925558D01*
X13938254Y1437648D01*
Y1488432D01*
X13823991Y1424952D02*
Y1501128D01*
X13862079Y1463040D01*
X13811295D01*
X14090605Y1628152D02*
Y1704328D01*
X14052518D01*
X14039821Y1691632D01*
Y1666240D01*
X14052518Y1653544D01*
X14090605D01*
X14065213D02*
X14039821Y1628152D01*
X13963646D02*
X14014429D01*
X13963646Y1678936D01*
Y1691632D01*
X13976341Y1704328D01*
X14001733D01*
X14014429Y1691632D01*
X13938254D02*
X13925558Y1704328D01*
X13900166D01*
X13887471Y1691632D01*
Y1640848D01*
X13900166Y1628152D01*
X13925558D01*
X13938254Y1640848D01*
Y1691632D01*
X13862079D02*
X13849384Y1704328D01*
X13823991D01*
X13811295Y1691632D01*
Y1678936D01*
X13823991Y1666240D01*
X13836687D01*
X13823991D01*
X13811295Y1653544D01*
Y1640848D01*
X13823991Y1628152D01*
X13849384D01*
X13862079Y1640848D01*
X14084254Y990612D02*
Y1066788D01*
X14046167D01*
X14033472Y1054092D01*
Y1028700D01*
X14046167Y1016004D01*
X14084254D01*
X14058862D02*
X14033472Y990612D01*
X13957297D02*
X14008080D01*
X13957297Y1041396D01*
Y1054092D01*
X13969992Y1066788D01*
X13995383D01*
X14008080Y1054092D01*
X13931905D02*
X13919208Y1066788D01*
X13893816D01*
X13881120Y1054092D01*
Y1003308D01*
X13893816Y990612D01*
X13919208D01*
X13931905Y1003308D01*
Y1054092D01*
X13804945Y990612D02*
X13855730D01*
X13804945Y1041396D01*
Y1054092D01*
X13817641Y1066788D01*
X13843033D01*
X13855730Y1054092D01*
X11887175Y2743192D02*
X11899871Y2755888D01*
X11925263D01*
X11937959Y2743192D01*
Y2692408D01*
X11925263Y2679712D01*
X11899871D01*
X11887175Y2692408D01*
X11861783Y2679712D02*
X11836392D01*
X11849088D01*
Y2755888D01*
X11861783Y2743192D01*
X11798304Y2679712D02*
X11772912D01*
X11785608D01*
Y2755888D01*
X11798304Y2743192D01*
X11734825Y2692408D02*
X11722129Y2679712D01*
X11696737D01*
X11684041Y2692408D01*
Y2743192D01*
X11696737Y2755888D01*
X11722129D01*
X11734825Y2743192D01*
Y2730496D01*
X11722129Y2717800D01*
X11684041D01*
X12420579Y8648712D02*
Y8724888D01*
X12382492D01*
X12369796Y8712192D01*
Y8686800D01*
X12382492Y8674104D01*
X12420579D01*
X12395188D02*
X12369796Y8648712D01*
X12344404Y8712192D02*
X12331708Y8724888D01*
X12306316D01*
X12293621Y8712192D01*
Y8699496D01*
X12306316Y8686800D01*
X12293621Y8674104D01*
Y8661408D01*
X12306316Y8648712D01*
X12331708D01*
X12344404Y8661408D01*
Y8674104D01*
X12331708Y8686800D01*
X12344404Y8699496D01*
Y8712192D01*
X12331708Y8686800D02*
X12306316D01*
X584212Y2247945D02*
X660388D01*
Y2286033D01*
X647692Y2298728D01*
X622300D01*
X609604Y2286033D01*
Y2247945D01*
Y2273337D02*
X584212Y2298728D01*
Y2374904D02*
Y2324120D01*
X634996Y2374904D01*
X647692D01*
X660388Y2362208D01*
Y2336816D01*
X647692Y2324120D01*
X660388Y2451079D02*
Y2400296D01*
X622300D01*
X634996Y2425688D01*
Y2438383D01*
X622300Y2451079D01*
X596908D01*
X584212Y2438383D01*
Y2412992D01*
X596908Y2400296D01*
X647692Y2476471D02*
X660388Y2489167D01*
Y2514559D01*
X647692Y2527255D01*
X634996D01*
X622300Y2514559D01*
Y2501863D01*
Y2514559D01*
X609604Y2527255D01*
X596908D01*
X584212Y2514559D01*
Y2489167D01*
X596908Y2476471D01*
X1003255Y3568712D02*
Y3644888D01*
X965167D01*
X952471Y3632192D01*
Y3606800D01*
X965167Y3594104D01*
X1003255D01*
X977863D02*
X952471Y3568712D01*
X876296D02*
X927079D01*
X876296Y3619496D01*
Y3632192D01*
X888992Y3644888D01*
X914383D01*
X927079Y3632192D01*
X800121Y3644888D02*
X850904D01*
Y3606800D01*
X825512Y3619496D01*
X812816D01*
X800121Y3606800D01*
Y3581408D01*
X812816Y3568712D01*
X838208D01*
X850904Y3581408D01*
X723945Y3568712D02*
X774729D01*
X723945Y3619496D01*
Y3632192D01*
X736641Y3644888D01*
X762033D01*
X774729Y3632192D01*
X482612Y2260641D02*
X558788D01*
Y2298729D01*
X546092Y2311425D01*
X520700D01*
X508004Y2298729D01*
Y2260641D01*
Y2286033D02*
X482612Y2311425D01*
Y2387600D02*
Y2336817D01*
X533396Y2387600D01*
X546092D01*
X558788Y2374904D01*
Y2349512D01*
X546092Y2336817D01*
X558788Y2463775D02*
Y2412992D01*
X520700D01*
X533396Y2438384D01*
Y2451080D01*
X520700Y2463775D01*
X495308D01*
X482612Y2451080D01*
Y2425688D01*
X495308Y2412992D01*
X482612Y2489167D02*
Y2514559D01*
Y2501863D01*
X558788D01*
X546092Y2489167D01*
X495255Y3568712D02*
Y3644888D01*
X457167D01*
X444471Y3632192D01*
Y3606800D01*
X457167Y3594104D01*
X495255D01*
X469863D02*
X444471Y3568712D01*
X368296D02*
X419079D01*
X368296Y3619496D01*
Y3632192D01*
X380992Y3644888D01*
X406383D01*
X419079Y3632192D01*
X292121Y3644888D02*
X342904D01*
Y3606800D01*
X317512Y3619496D01*
X304816D01*
X292121Y3606800D01*
Y3581408D01*
X304816Y3568712D01*
X330208D01*
X342904Y3581408D01*
X266729Y3632192D02*
X254033Y3644888D01*
X228641D01*
X215945Y3632192D01*
Y3581408D01*
X228641Y3568712D01*
X254033D01*
X266729Y3581408D01*
Y3632192D01*
X685812Y2247945D02*
X761988D01*
Y2286033D01*
X749292Y2298728D01*
X723900D01*
X711204Y2286033D01*
Y2247945D01*
Y2273337D02*
X685812Y2298728D01*
Y2374904D02*
Y2324120D01*
X736596Y2374904D01*
X749292D01*
X761988Y2362208D01*
Y2336816D01*
X749292Y2324120D01*
X685812Y2438383D02*
X761988D01*
X723900Y2400296D01*
Y2451079D01*
X698508Y2476471D02*
X685812Y2489167D01*
Y2514559D01*
X698508Y2527255D01*
X749292D01*
X761988Y2514559D01*
Y2489167D01*
X749292Y2476471D01*
X736596D01*
X723900Y2489167D01*
Y2527255D01*
X965155Y2806712D02*
Y2882888D01*
X927067D01*
X914371Y2870192D01*
Y2844800D01*
X927067Y2832104D01*
X965155D01*
X939763D02*
X914371Y2806712D01*
X838196D02*
X888979D01*
X838196Y2857496D01*
Y2870192D01*
X850892Y2882888D01*
X876283D01*
X888979Y2870192D01*
X774716Y2806712D02*
Y2882888D01*
X812804Y2844800D01*
X762021D01*
X736629Y2870192D02*
X723933Y2882888D01*
X698541D01*
X685845Y2870192D01*
Y2857496D01*
X698541Y2844800D01*
X685845Y2832104D01*
Y2819408D01*
X698541Y2806712D01*
X723933D01*
X736629Y2819408D01*
Y2832104D01*
X723933Y2844800D01*
X736629Y2857496D01*
Y2870192D01*
X723933Y2844800D02*
X698541D01*
X1003255Y3670312D02*
Y3746488D01*
X965167D01*
X952471Y3733792D01*
Y3708400D01*
X965167Y3695704D01*
X1003255D01*
X977863D02*
X952471Y3670312D01*
X876296D02*
X927079D01*
X876296Y3721096D01*
Y3733792D01*
X888992Y3746488D01*
X914383D01*
X927079Y3733792D01*
X812816Y3670312D02*
Y3746488D01*
X850904Y3708400D01*
X800121D01*
X774729Y3746488D02*
X723945D01*
Y3733792D01*
X774729Y3683008D01*
Y3670312D01*
X889012Y3784645D02*
X965188D01*
Y3822733D01*
X952492Y3835429D01*
X927100D01*
X914404Y3822733D01*
Y3784645D01*
Y3810037D02*
X889012Y3835429D01*
Y3911604D02*
Y3860821D01*
X939796Y3911604D01*
X952492D01*
X965188Y3898908D01*
Y3873517D01*
X952492Y3860821D01*
X889012Y3975084D02*
X965188D01*
X927100Y3936996D01*
Y3987779D01*
X965188Y4063955D02*
X952492Y4038563D01*
X927100Y4013171D01*
X901708D01*
X889012Y4025867D01*
Y4051259D01*
X901708Y4063955D01*
X914404D01*
X927100Y4051259D01*
Y4013171D01*
X3873512Y8737645D02*
X3949688D01*
Y8775733D01*
X3936992Y8788428D01*
X3911600D01*
X3898904Y8775733D01*
Y8737645D01*
Y8763037D02*
X3873512Y8788428D01*
Y8864604D02*
Y8813820D01*
X3924296Y8864604D01*
X3936992D01*
X3949688Y8851908D01*
Y8826516D01*
X3936992Y8813820D01*
X3873512Y8928083D02*
X3949688D01*
X3911600Y8889996D01*
Y8940779D01*
X3949688Y9016955D02*
Y8966171D01*
X3911600D01*
X3924296Y8991563D01*
Y9004259D01*
X3911600Y9016955D01*
X3886208D01*
X3873512Y9004259D01*
Y8978867D01*
X3886208Y8966171D01*
X11087112Y3721145D02*
X11163288D01*
Y3759233D01*
X11150592Y3771928D01*
X11125200D01*
X11112504Y3759233D01*
Y3721145D01*
Y3746537D02*
X11087112Y3771928D01*
Y3848104D02*
Y3797320D01*
X11137896Y3848104D01*
X11150592D01*
X11163288Y3835408D01*
Y3810016D01*
X11150592Y3797320D01*
X11087112Y3911583D02*
X11163288D01*
X11125200Y3873496D01*
Y3924279D01*
X11087112Y3987759D02*
X11163288D01*
X11125200Y3949671D01*
Y4000455D01*
X14439912Y3365545D02*
X14516087D01*
Y3403633D01*
X14503392Y3416328D01*
X14478000D01*
X14465305Y3403633D01*
Y3365545D01*
Y3390937D02*
X14439912Y3416328D01*
Y3492504D02*
Y3441720D01*
X14490697Y3492504D01*
X14503392D01*
X14516087Y3479808D01*
Y3454416D01*
X14503392Y3441720D01*
X14439912Y3555983D02*
X14516087D01*
X14478000Y3517896D01*
Y3568679D01*
X14503392Y3594071D02*
X14516087Y3606767D01*
Y3632159D01*
X14503392Y3644855D01*
X14490697D01*
X14478000Y3632159D01*
Y3619463D01*
Y3632159D01*
X14465305Y3644855D01*
X14452608D01*
X14439912Y3632159D01*
Y3606767D01*
X14452608Y3594071D01*
X7365955Y6985012D02*
Y7061188D01*
X7327867D01*
X7315171Y7048492D01*
Y7023100D01*
X7327867Y7010404D01*
X7365955D01*
X7340563D02*
X7315171Y6985012D01*
X7238996D02*
X7289779D01*
X7238996Y7035796D01*
Y7048492D01*
X7251692Y7061188D01*
X7277083D01*
X7289779Y7048492D01*
X7175516Y6985012D02*
Y7061188D01*
X7213604Y7023100D01*
X7162821D01*
X7086645Y6985012D02*
X7137429D01*
X7086645Y7035796D01*
Y7048492D01*
X7099341Y7061188D01*
X7124733D01*
X7137429Y7048492D01*
X2197112Y6324641D02*
X2273288D01*
Y6362729D01*
X2260592Y6375425D01*
X2235200D01*
X2222504Y6362729D01*
Y6324641D01*
Y6350033D02*
X2197112Y6375425D01*
Y6451600D02*
Y6400817D01*
X2247896Y6451600D01*
X2260592D01*
X2273288Y6438904D01*
Y6413512D01*
X2260592Y6400817D01*
X2197112Y6515080D02*
X2273288D01*
X2235200Y6476992D01*
Y6527775D01*
X2197112Y6553167D02*
Y6578559D01*
Y6565863D01*
X2273288D01*
X2260592Y6553167D01*
X17095351Y2155180D02*
X17171526D01*
Y2193268D01*
X17158830Y2205964D01*
X17133438D01*
X17120741Y2193268D01*
Y2155180D01*
Y2180572D02*
X17095351Y2205964D01*
Y2282139D02*
Y2231355D01*
X17146133Y2282139D01*
X17158830D01*
X17171526Y2269443D01*
Y2244051D01*
X17158830Y2231355D01*
X17095351Y2345619D02*
X17171526D01*
X17133438Y2307531D01*
Y2358314D01*
X17158830Y2383706D02*
X17171526Y2396402D01*
Y2421794D01*
X17158830Y2434490D01*
X17108046D01*
X17095351Y2421794D01*
Y2396402D01*
X17108046Y2383706D01*
X17158830D01*
X18173656Y4940312D02*
Y5016488D01*
X18135567D01*
X18122871Y5003792D01*
Y4978400D01*
X18135567Y4965704D01*
X18173656D01*
X18148264D02*
X18122871Y4940312D01*
X18046696D02*
X18097479D01*
X18046696Y4991096D01*
Y5003792D01*
X18059392Y5016488D01*
X18084782D01*
X18097479Y5003792D01*
X18021304D02*
X18008607Y5016488D01*
X17983215D01*
X17970522Y5003792D01*
Y4991096D01*
X17983215Y4978400D01*
X17995912D01*
X17983215D01*
X17970522Y4965704D01*
Y4953008D01*
X17983215Y4940312D01*
X18008607D01*
X18021304Y4953008D01*
X17945129D02*
X17932433Y4940312D01*
X17907040D01*
X17894345Y4953008D01*
Y5003792D01*
X17907040Y5016488D01*
X17932433D01*
X17945129Y5003792D01*
Y4991096D01*
X17932433Y4978400D01*
X17894345D01*
X17640312Y5753145D02*
X17716489D01*
Y5791233D01*
X17703792Y5803928D01*
X17678400D01*
X17665704Y5791233D01*
Y5753145D01*
Y5778537D02*
X17640312Y5803928D01*
Y5880104D02*
Y5829320D01*
X17691096Y5880104D01*
X17703792D01*
X17716489Y5867408D01*
Y5842016D01*
X17703792Y5829320D01*
Y5905496D02*
X17716489Y5918192D01*
Y5943583D01*
X17703792Y5956279D01*
X17691096D01*
X17678400Y5943583D01*
Y5930888D01*
Y5943583D01*
X17665704Y5956279D01*
X17653008D01*
X17640312Y5943583D01*
Y5918192D01*
X17653008Y5905496D01*
X17703792Y5981671D02*
X17716489Y5994367D01*
Y6019759D01*
X17703792Y6032455D01*
X17691096D01*
X17678400Y6019759D01*
X17665704Y6032455D01*
X17653008D01*
X17640312Y6019759D01*
Y5994367D01*
X17653008Y5981671D01*
X17665704D01*
X17678400Y5994367D01*
X17691096Y5981671D01*
X17703792D01*
X17678400Y5994367D02*
Y6019759D01*
X3868432Y9084445D02*
X3944608D01*
Y9122533D01*
X3931912Y9135228D01*
X3906520D01*
X3893824Y9122533D01*
Y9084445D01*
Y9109837D02*
X3868432Y9135228D01*
Y9211404D02*
Y9160620D01*
X3919216Y9211404D01*
X3931912D01*
X3944608Y9198708D01*
Y9173316D01*
X3931912Y9160620D01*
Y9236796D02*
X3944608Y9249492D01*
Y9274883D01*
X3931912Y9287579D01*
X3919216D01*
X3906520Y9274883D01*
Y9262187D01*
Y9274883D01*
X3893824Y9287579D01*
X3881128D01*
X3868432Y9274883D01*
Y9249492D01*
X3881128Y9236796D01*
X3944608Y9312971D02*
Y9363754D01*
X3931912D01*
X3881128Y9312971D01*
X3868432D01*
X11087112Y4025945D02*
X11163288D01*
Y4064033D01*
X11150592Y4076728D01*
X11125200D01*
X11112504Y4064033D01*
Y4025945D01*
Y4051337D02*
X11087112Y4076728D01*
Y4152904D02*
Y4102120D01*
X11137896Y4152904D01*
X11150592D01*
X11163288Y4140208D01*
Y4114816D01*
X11150592Y4102120D01*
Y4178296D02*
X11163288Y4190992D01*
Y4216383D01*
X11150592Y4229079D01*
X11137896D01*
X11125200Y4216383D01*
Y4203688D01*
Y4216383D01*
X11112504Y4229079D01*
X11099808D01*
X11087112Y4216383D01*
Y4190992D01*
X11099808Y4178296D01*
X11163288Y4305255D02*
X11150592Y4279863D01*
X11125200Y4254471D01*
X11099808D01*
X11087112Y4267167D01*
Y4292559D01*
X11099808Y4305255D01*
X11112504D01*
X11125200Y4292559D01*
Y4254471D01*
X14439912Y3670345D02*
X14516087D01*
Y3708433D01*
X14503392Y3721129D01*
X14478000D01*
X14465305Y3708433D01*
Y3670345D01*
Y3695737D02*
X14439912Y3721129D01*
Y3797304D02*
Y3746521D01*
X14490697Y3797304D01*
X14503392D01*
X14516087Y3784608D01*
Y3759217D01*
X14503392Y3746521D01*
Y3822696D02*
X14516087Y3835392D01*
Y3860784D01*
X14503392Y3873479D01*
X14490697D01*
X14478000Y3860784D01*
Y3848088D01*
Y3860784D01*
X14465305Y3873479D01*
X14452608D01*
X14439912Y3860784D01*
Y3835392D01*
X14452608Y3822696D01*
X14516087Y3949655D02*
Y3898871D01*
X14478000D01*
X14490697Y3924263D01*
Y3936959D01*
X14478000Y3949655D01*
X14452608D01*
X14439912Y3936959D01*
Y3911567D01*
X14452608Y3898871D01*
X6896055Y6870712D02*
Y6946888D01*
X6857967D01*
X6845271Y6934192D01*
Y6908800D01*
X6857967Y6896104D01*
X6896055D01*
X6870663D02*
X6845271Y6870712D01*
X6769096D02*
X6819879D01*
X6769096Y6921496D01*
Y6934192D01*
X6781792Y6946888D01*
X6807183D01*
X6819879Y6934192D01*
X6743704D02*
X6731008Y6946888D01*
X6705616D01*
X6692921Y6934192D01*
Y6921496D01*
X6705616Y6908800D01*
X6718312D01*
X6705616D01*
X6692921Y6896104D01*
Y6883408D01*
X6705616Y6870712D01*
X6731008D01*
X6743704Y6883408D01*
X6629441Y6870712D02*
Y6946888D01*
X6667529Y6908800D01*
X6616745D01*
X2197112Y6007145D02*
X2273288D01*
Y6045233D01*
X2260592Y6057929D01*
X2235200D01*
X2222504Y6045233D01*
Y6007145D01*
Y6032537D02*
X2197112Y6057929D01*
Y6134104D02*
Y6083321D01*
X2247896Y6134104D01*
X2260592D01*
X2273288Y6121408D01*
Y6096017D01*
X2260592Y6083321D01*
Y6159496D02*
X2273288Y6172192D01*
Y6197584D01*
X2260592Y6210279D01*
X2247896D01*
X2235200Y6197584D01*
Y6184888D01*
Y6197584D01*
X2222504Y6210279D01*
X2209808D01*
X2197112Y6197584D01*
Y6172192D01*
X2209808Y6159496D01*
X2260592Y6235671D02*
X2273288Y6248367D01*
Y6273759D01*
X2260592Y6286455D01*
X2247896D01*
X2235200Y6273759D01*
Y6261063D01*
Y6273759D01*
X2222504Y6286455D01*
X2209808D01*
X2197112Y6273759D01*
Y6248367D01*
X2209808Y6235671D01*
X17095351Y2459980D02*
X17171526D01*
Y2498068D01*
X17158830Y2510764D01*
X17133438D01*
X17120741Y2498068D01*
Y2459980D01*
Y2485372D02*
X17095351Y2510764D01*
Y2586939D02*
Y2536155D01*
X17146133Y2586939D01*
X17158830D01*
X17171526Y2574243D01*
Y2548851D01*
X17158830Y2536155D01*
Y2612331D02*
X17171526Y2625027D01*
Y2650419D01*
X17158830Y2663114D01*
X17146133D01*
X17133438Y2650419D01*
Y2637723D01*
Y2650419D01*
X17120741Y2663114D01*
X17108046D01*
X17095351Y2650419D01*
Y2625027D01*
X17108046Y2612331D01*
X17095351Y2739290D02*
Y2688506D01*
X17146133Y2739290D01*
X17158830D01*
X17171526Y2726594D01*
Y2701202D01*
X17158830Y2688506D01*
X17856158Y4940312D02*
Y5016488D01*
X17818071D01*
X17805376Y5003792D01*
Y4978400D01*
X17818071Y4965704D01*
X17856158D01*
X17830766D02*
X17805376Y4940312D01*
X17729201D02*
X17779984D01*
X17729201Y4991096D01*
Y5003792D01*
X17741896Y5016488D01*
X17767288D01*
X17779984Y5003792D01*
X17703809D02*
X17691112Y5016488D01*
X17665720D01*
X17653024Y5003792D01*
Y4991096D01*
X17665720Y4978400D01*
X17678416D01*
X17665720D01*
X17653024Y4965704D01*
Y4953008D01*
X17665720Y4940312D01*
X17691112D01*
X17703809Y4953008D01*
X17627634Y4940312D02*
X17602242D01*
X17614937D01*
Y5016488D01*
X17627634Y5003792D01*
X17640312Y6057945D02*
X17716489D01*
Y6096033D01*
X17703792Y6108728D01*
X17678400D01*
X17665704Y6096033D01*
Y6057945D01*
Y6083337D02*
X17640312Y6108728D01*
Y6184904D02*
Y6134120D01*
X17691096Y6184904D01*
X17703792D01*
X17716489Y6172208D01*
Y6146816D01*
X17703792Y6134120D01*
Y6210296D02*
X17716489Y6222992D01*
Y6248383D01*
X17703792Y6261079D01*
X17691096D01*
X17678400Y6248383D01*
Y6235688D01*
Y6248383D01*
X17665704Y6261079D01*
X17653008D01*
X17640312Y6248383D01*
Y6222992D01*
X17653008Y6210296D01*
X17703792Y6286471D02*
X17716489Y6299167D01*
Y6324559D01*
X17703792Y6337255D01*
X17653008D01*
X17640312Y6324559D01*
Y6299167D01*
X17653008Y6286471D01*
X17703792D01*
X11944307Y4000512D02*
Y4076688D01*
X11906219D01*
X11893523Y4063992D01*
Y4038600D01*
X11906219Y4025904D01*
X11944307D01*
X11918915D02*
X11893523Y4000512D01*
X11817348D02*
X11868131D01*
X11817348Y4051296D01*
Y4063992D01*
X11830044Y4076688D01*
X11855436D01*
X11868131Y4063992D01*
X11791956Y4000512D02*
X11766564D01*
X11779260D01*
Y4076688D01*
X11791956Y4063992D01*
X11728477D02*
X11715781Y4076688D01*
X11690389D01*
X11677693Y4063992D01*
Y4051296D01*
X11690389Y4038600D01*
X11677693Y4025904D01*
Y4013208D01*
X11690389Y4000512D01*
X11715781D01*
X11728477Y4013208D01*
Y4025904D01*
X11715781Y4038600D01*
X11728477Y4051296D01*
Y4063992D01*
X11715781Y4038600D02*
X11690389D01*
X12151464Y4903442D02*
X12075289D01*
Y4865354D01*
X12087985Y4852658D01*
X12113377D01*
X12126073Y4865354D01*
Y4903442D01*
Y4878050D02*
X12151464Y4852658D01*
Y4776483D02*
Y4827266D01*
X12100681Y4776483D01*
X12087985D01*
X12075289Y4789179D01*
Y4814571D01*
X12087985Y4827266D01*
Y4751091D02*
X12075289Y4738395D01*
Y4713003D01*
X12087985Y4700308D01*
X12138768D01*
X12151464Y4713003D01*
Y4738395D01*
X12138768Y4751091D01*
X12087985D01*
X12075289Y4674916D02*
Y4624132D01*
X12087985D01*
X12138768Y4674916D01*
X12151464D01*
X13144455Y3975112D02*
Y4051288D01*
X13106367D01*
X13093671Y4038592D01*
Y4013200D01*
X13106367Y4000504D01*
X13144455D01*
X13119063D02*
X13093671Y3975112D01*
X13017496D02*
X13068279D01*
X13017496Y4025896D01*
Y4038592D01*
X13030193Y4051288D01*
X13055583D01*
X13068279Y4038592D01*
X12992104D02*
X12979408Y4051288D01*
X12954016D01*
X12941321Y4038592D01*
Y3987808D01*
X12954016Y3975112D01*
X12979408D01*
X12992104Y3987808D01*
Y4038592D01*
X12865144Y4051288D02*
X12890536Y4038592D01*
X12915929Y4013200D01*
Y3987808D01*
X12903233Y3975112D01*
X12877841D01*
X12865144Y3987808D01*
Y4000504D01*
X12877841Y4013200D01*
X12915929D01*
X11950655Y3810012D02*
Y3886188D01*
X11912567D01*
X11899871Y3873492D01*
Y3848100D01*
X11912567Y3835404D01*
X11950655D01*
X11925263D02*
X11899871Y3810012D01*
X11823696D02*
X11874479D01*
X11823696Y3860796D01*
Y3873492D01*
X11836392Y3886188D01*
X11861783D01*
X11874479Y3873492D01*
X11798304D02*
X11785608Y3886188D01*
X11760216D01*
X11747521Y3873492D01*
Y3822708D01*
X11760216Y3810012D01*
X11785608D01*
X11798304Y3822708D01*
Y3873492D01*
X11671345Y3886188D02*
X11722129D01*
Y3848100D01*
X11696737Y3860796D01*
X11684041D01*
X11671345Y3848100D01*
Y3822708D01*
X11684041Y3810012D01*
X11709433D01*
X11722129Y3822708D01*
X14071559Y1193812D02*
Y1269988D01*
X14033472D01*
X14020775Y1257292D01*
Y1231900D01*
X14033472Y1219204D01*
X14071559D01*
X14046167D02*
X14020775Y1193812D01*
X13944600D02*
X13995383D01*
X13944600Y1244596D01*
Y1257292D01*
X13957297Y1269988D01*
X13982687D01*
X13995383Y1257292D01*
X13919208D02*
X13906512Y1269988D01*
X13881120D01*
X13868425Y1257292D01*
Y1206508D01*
X13881120Y1193812D01*
X13906512D01*
X13919208Y1206508D01*
Y1257292D01*
X13843033Y1193812D02*
X13817641D01*
X13830338D01*
Y1269988D01*
X13843033Y1257292D01*
X14052507Y4673612D02*
Y4749788D01*
X14014420D01*
X14001723Y4737092D01*
Y4711700D01*
X14014420Y4699004D01*
X14052507D01*
X14027115D02*
X14001723Y4673612D01*
X13976331D02*
X13950940D01*
X13963635D01*
Y4749788D01*
X13976331Y4737092D01*
X13862070Y4749788D02*
X13912852D01*
Y4711700D01*
X13887460Y4724396D01*
X13874763D01*
X13862070Y4711700D01*
Y4686308D01*
X13874763Y4673612D01*
X13900156D01*
X13912852Y4686308D01*
X13798589Y4673612D02*
Y4749788D01*
X13836678Y4711700D01*
X13785893D01*
X14084312Y4927643D02*
X14160487D01*
Y4965731D01*
X14147792Y4978427D01*
X14122400D01*
X14109705Y4965731D01*
Y4927643D01*
Y4953035D02*
X14084312Y4978427D01*
Y5003819D02*
Y5029210D01*
Y5016514D01*
X14160487D01*
X14147792Y5003819D01*
X14160487Y5118081D02*
Y5067298D01*
X14122400D01*
X14135097Y5092690D01*
Y5105386D01*
X14122400Y5118081D01*
X14097008D01*
X14084312Y5105386D01*
Y5079994D01*
X14097008Y5067298D01*
X14147792Y5143473D02*
X14160487Y5156169D01*
Y5181561D01*
X14147792Y5194257D01*
X14097008D01*
X14084312Y5181561D01*
Y5156169D01*
X14097008Y5143473D01*
X14147792D01*
X7397707Y7734312D02*
Y7810488D01*
X7359619D01*
X7346923Y7797792D01*
Y7772400D01*
X7359619Y7759704D01*
X7397707D01*
X7372315D02*
X7346923Y7734312D01*
X7321531D02*
X7296140D01*
X7308836D01*
Y7810488D01*
X7321531Y7797792D01*
X7219964Y7734312D02*
Y7810488D01*
X7258052Y7772400D01*
X7207269D01*
X7181877Y7810488D02*
X7131093D01*
Y7797792D01*
X7181877Y7747008D01*
Y7734312D01*
X7359607Y7366012D02*
Y7442188D01*
X7321519D01*
X7308823Y7429492D01*
Y7404100D01*
X7321519Y7391404D01*
X7359607D01*
X7334215D02*
X7308823Y7366012D01*
X7283431D02*
X7258040D01*
X7270736D01*
Y7442188D01*
X7283431Y7429492D01*
X7181864Y7366012D02*
Y7442188D01*
X7219952Y7404100D01*
X7169169D01*
X7092993Y7442188D02*
X7143777D01*
Y7404100D01*
X7118385Y7416796D01*
X7105689D01*
X7092993Y7404100D01*
Y7378708D01*
X7105689Y7366012D01*
X7131081D01*
X7143777Y7378708D01*
X7232693Y8267688D02*
Y8191512D01*
X7270781D01*
X7283477Y8204208D01*
Y8229600D01*
X7270781Y8242296D01*
X7232693D01*
X7258085D02*
X7283477Y8267688D01*
X7308869D02*
X7334260D01*
X7321564D01*
Y8191512D01*
X7308869Y8204208D01*
X7410436Y8267688D02*
Y8191512D01*
X7372348Y8229600D01*
X7423131D01*
X7486611Y8267688D02*
Y8191512D01*
X7448523Y8229600D01*
X7499307D01*
X3314712Y2698793D02*
X3390888D01*
Y2736881D01*
X3378192Y2749576D01*
X3352800D01*
X3340104Y2736881D01*
Y2698793D01*
Y2724185D02*
X3314712Y2749576D01*
Y2774968D02*
Y2800360D01*
Y2787664D01*
X3390888D01*
X3378192Y2774968D01*
Y2838448D02*
X3390888Y2851144D01*
Y2876536D01*
X3378192Y2889231D01*
X3365496D01*
X3352800Y2876536D01*
Y2863840D01*
Y2876536D01*
X3340104Y2889231D01*
X3327408D01*
X3314712Y2876536D01*
Y2851144D01*
X3327408Y2838448D01*
X3390888Y2965407D02*
X3378192Y2940015D01*
X3352800Y2914623D01*
X3327408D01*
X3314712Y2927319D01*
Y2952711D01*
X3327408Y2965407D01*
X3340104D01*
X3352800Y2952711D01*
Y2914623D01*
X4191012Y1873293D02*
X4267188D01*
Y1911381D01*
X4254492Y1924077D01*
X4229100D01*
X4216404Y1911381D01*
Y1873293D01*
Y1898685D02*
X4191012Y1924077D01*
Y1949469D02*
Y1974860D01*
Y1962164D01*
X4267188D01*
X4254492Y1949469D01*
Y2012948D02*
X4267188Y2025644D01*
Y2051036D01*
X4254492Y2063731D01*
X4241796D01*
X4229100Y2051036D01*
Y2038340D01*
Y2051036D01*
X4216404Y2063731D01*
X4203708D01*
X4191012Y2051036D01*
Y2025644D01*
X4203708Y2012948D01*
X4267188Y2139907D02*
Y2089123D01*
X4229100D01*
X4241796Y2114515D01*
Y2127211D01*
X4229100Y2139907D01*
X4203708D01*
X4191012Y2127211D01*
Y2101819D01*
X4203708Y2089123D01*
X3130507Y3263912D02*
Y3340088D01*
X3092419D01*
X3079723Y3327392D01*
Y3302000D01*
X3092419Y3289304D01*
X3130507D01*
X3105115D02*
X3079723Y3263912D01*
X3054331D02*
X3028940D01*
X3041636D01*
Y3340088D01*
X3054331Y3327392D01*
X2990852D02*
X2978156Y3340088D01*
X2952764D01*
X2940069Y3327392D01*
Y3314696D01*
X2952764Y3302000D01*
X2965460D01*
X2952764D01*
X2940069Y3289304D01*
Y3276608D01*
X2952764Y3263912D01*
X2978156D01*
X2990852Y3276608D01*
X2876589Y3263912D02*
Y3340088D01*
X2914677Y3302000D01*
X2863893D01*
X4044907Y2451112D02*
Y2527288D01*
X4006819D01*
X3994123Y2514592D01*
Y2489200D01*
X4006819Y2476504D01*
X4044907D01*
X4019515D02*
X3994123Y2451112D01*
X3968731D02*
X3943340D01*
X3956036D01*
Y2527288D01*
X3968731Y2514592D01*
X3905252D02*
X3892556Y2527288D01*
X3867164D01*
X3854469Y2514592D01*
Y2501896D01*
X3867164Y2489200D01*
X3879860D01*
X3867164D01*
X3854469Y2476504D01*
Y2463808D01*
X3867164Y2451112D01*
X3892556D01*
X3905252Y2463808D01*
X3829077Y2514592D02*
X3816381Y2527288D01*
X3790989D01*
X3778293Y2514592D01*
Y2501896D01*
X3790989Y2489200D01*
X3803685D01*
X3790989D01*
X3778293Y2476504D01*
Y2463808D01*
X3790989Y2451112D01*
X3816381D01*
X3829077Y2463808D01*
X4178312Y2660693D02*
X4254488D01*
Y2698781D01*
X4241792Y2711476D01*
X4216400D01*
X4203704Y2698781D01*
Y2660693D01*
Y2686085D02*
X4178312Y2711476D01*
Y2736868D02*
Y2762260D01*
Y2749564D01*
X4254488D01*
X4241792Y2736868D01*
Y2800348D02*
X4254488Y2813044D01*
Y2838436D01*
X4241792Y2851131D01*
X4229096D01*
X4216400Y2838436D01*
Y2825740D01*
Y2838436D01*
X4203704Y2851131D01*
X4191008D01*
X4178312Y2838436D01*
Y2813044D01*
X4191008Y2800348D01*
X4178312Y2927307D02*
Y2876523D01*
X4229096Y2927307D01*
X4241792D01*
X4254488Y2914611D01*
Y2889219D01*
X4241792Y2876523D01*
X3314712Y1911389D02*
X3390888D01*
Y1949477D01*
X3378192Y1962173D01*
X3352800D01*
X3340104Y1949477D01*
Y1911389D01*
Y1936781D02*
X3314712Y1962173D01*
Y1987564D02*
Y2012956D01*
Y2000260D01*
X3390888D01*
X3378192Y1987564D01*
Y2051044D02*
X3390888Y2063740D01*
Y2089132D01*
X3378192Y2101827D01*
X3365496D01*
X3352800Y2089132D01*
Y2076436D01*
Y2089132D01*
X3340104Y2101827D01*
X3327408D01*
X3314712Y2089132D01*
Y2063740D01*
X3327408Y2051044D01*
X3314712Y2127219D02*
Y2152611D01*
Y2139915D01*
X3390888D01*
X3378192Y2127219D01*
X4072847Y3225902D02*
Y3302078D01*
X4034759D01*
X4022063Y3289382D01*
Y3263990D01*
X4034759Y3251294D01*
X4072847D01*
X4047455D02*
X4022063Y3225902D01*
X3996671D02*
X3971280D01*
X3983976D01*
Y3302078D01*
X3996671Y3289382D01*
X3933192D02*
X3920496Y3302078D01*
X3895104D01*
X3882409Y3289382D01*
Y3276686D01*
X3895104Y3263990D01*
X3907800D01*
X3895104D01*
X3882409Y3251294D01*
Y3238598D01*
X3895104Y3225902D01*
X3920496D01*
X3933192Y3238598D01*
X3857017Y3289382D02*
X3844321Y3302078D01*
X3818929D01*
X3806233Y3289382D01*
Y3238598D01*
X3818929Y3225902D01*
X3844321D01*
X3857017Y3238598D01*
Y3289382D01*
X3181307Y2451112D02*
Y2527288D01*
X3143219D01*
X3130523Y2514592D01*
Y2489200D01*
X3143219Y2476504D01*
X3181307D01*
X3155915D02*
X3130523Y2451112D01*
X3105131D02*
X3079740D01*
X3092436D01*
Y2527288D01*
X3105131Y2514592D01*
X2990869Y2451112D02*
X3041652D01*
X2990869Y2501896D01*
Y2514592D01*
X3003564Y2527288D01*
X3028956D01*
X3041652Y2514592D01*
X2965477Y2463808D02*
X2952781Y2451112D01*
X2927389D01*
X2914693Y2463808D01*
Y2514592D01*
X2927389Y2527288D01*
X2952781D01*
X2965477Y2514592D01*
Y2501896D01*
X2952781Y2489200D01*
X2914693D01*
X9182057Y2400312D02*
Y2476488D01*
X9143969D01*
X9131273Y2463792D01*
Y2438400D01*
X9143969Y2425704D01*
X9182057D01*
X9156665D02*
X9131273Y2400312D01*
X9105881D02*
X9080490D01*
X9093186D01*
Y2476488D01*
X9105881Y2463792D01*
X8991619Y2400312D02*
X9042402D01*
X8991619Y2451096D01*
Y2463792D01*
X9004314Y2476488D01*
X9029706D01*
X9042402Y2463792D01*
X8966227D02*
X8953531Y2476488D01*
X8928139D01*
X8915443Y2463792D01*
Y2413008D01*
X8928139Y2400312D01*
X8953531D01*
X8966227Y2413008D01*
Y2463792D01*
X9886909Y2400312D02*
Y2476488D01*
X9848821D01*
X9836125Y2463792D01*
Y2438400D01*
X9848821Y2425704D01*
X9886909D01*
X9861517D02*
X9836125Y2400312D01*
X9810733D02*
X9785342D01*
X9798038D01*
Y2476488D01*
X9810733Y2463792D01*
X9747254Y2400312D02*
X9721862D01*
X9734558D01*
Y2476488D01*
X9747254Y2463792D01*
X9683775Y2413008D02*
X9671079Y2400312D01*
X9645687D01*
X9632991Y2413008D01*
Y2463792D01*
X9645687Y2476488D01*
X9671079D01*
X9683775Y2463792D01*
Y2451096D01*
X9671079Y2438400D01*
X9632991D01*
X9207459Y3403612D02*
Y3479788D01*
X9169371D01*
X9156675Y3467092D01*
Y3441700D01*
X9169371Y3429004D01*
X9207459D01*
X9182067D02*
X9156675Y3403612D01*
X9131283D02*
X9105892D01*
X9118588D01*
Y3479788D01*
X9131283Y3467092D01*
X9067804Y3403612D02*
X9042412D01*
X9055108D01*
Y3479788D01*
X9067804Y3467092D01*
X8966237Y3403612D02*
Y3479788D01*
X9004325Y3441700D01*
X8953541D01*
X9537659Y3416312D02*
Y3492488D01*
X9499571D01*
X9486875Y3479792D01*
Y3454400D01*
X9499571Y3441704D01*
X9537659D01*
X9512267D02*
X9486875Y3416312D01*
X9461483D02*
X9436092D01*
X9448788D01*
Y3492488D01*
X9461483Y3479792D01*
X9398004Y3416312D02*
X9372612D01*
X9385308D01*
Y3492488D01*
X9398004Y3479792D01*
X9283741Y3416312D02*
X9334525D01*
X9283741Y3467096D01*
Y3479792D01*
X9296437Y3492488D01*
X9321829D01*
X9334525Y3479792D01*
X18702766Y2806712D02*
Y2882888D01*
X18664679D01*
X18651984Y2870192D01*
Y2844800D01*
X18664679Y2832104D01*
X18702766D01*
X18677374D02*
X18651984Y2806712D01*
X18626591Y2870192D02*
X18613896Y2882888D01*
X18588504D01*
X18575809Y2870192D01*
Y2857496D01*
X18588504Y2844800D01*
X18575809Y2832104D01*
Y2819408D01*
X18588504Y2806712D01*
X18613896D01*
X18626591Y2819408D01*
Y2832104D01*
X18613896Y2844800D01*
X18626591Y2857496D01*
Y2870192D01*
X18613896Y2844800D02*
X18588504D01*
X18499632Y2882888D02*
X18525024Y2870192D01*
X18550417Y2844800D01*
Y2819408D01*
X18537720Y2806712D01*
X18512328D01*
X18499632Y2819408D01*
Y2832104D01*
X18512328Y2844800D01*
X18550417D01*
X18448767Y2806712D02*
Y2882888D01*
X18410680D01*
X18397984Y2870192D01*
Y2844800D01*
X18410680Y2832104D01*
X18448767D01*
X18423375D02*
X18397984Y2806712D01*
X18372592Y2870192D02*
X18359895Y2882888D01*
X18334505D01*
X18321808Y2870192D01*
Y2857496D01*
X18334505Y2844800D01*
X18321808Y2832104D01*
Y2819408D01*
X18334505Y2806712D01*
X18359895D01*
X18372592Y2819408D01*
Y2832104D01*
X18359895Y2844800D01*
X18372592Y2857496D01*
Y2870192D01*
X18359895Y2844800D02*
X18334505D01*
X18245633Y2882888D02*
X18296416D01*
Y2844800D01*
X18271024Y2857496D01*
X18258328D01*
X18245633Y2844800D01*
Y2819408D01*
X18258328Y2806712D01*
X18283720D01*
X18296416Y2819408D01*
X18956767Y2755912D02*
Y2832088D01*
X18918678D01*
X18905984Y2819392D01*
Y2794000D01*
X18918678Y2781304D01*
X18956767D01*
X18931375D02*
X18905984Y2755912D01*
X18829808Y2832088D02*
X18855200Y2819392D01*
X18880592Y2794000D01*
Y2768608D01*
X18867896Y2755912D01*
X18842503D01*
X18829808Y2768608D01*
Y2781304D01*
X18842503Y2794000D01*
X18880592D01*
X18753633Y2832088D02*
X18779024Y2819392D01*
X18804416Y2794000D01*
Y2768608D01*
X18791721Y2755912D01*
X18766328D01*
X18753633Y2768608D01*
Y2781304D01*
X18766328Y2794000D01*
X18804416D01*
X19215067Y2755912D02*
Y2832088D01*
X19176979D01*
X19164284Y2819392D01*
Y2794000D01*
X19176979Y2781304D01*
X19215067D01*
X19189674D02*
X19164284Y2755912D01*
X19088107Y2832088D02*
X19113499Y2819392D01*
X19138892Y2794000D01*
Y2768608D01*
X19126196Y2755912D01*
X19100804D01*
X19088107Y2768608D01*
Y2781304D01*
X19100804Y2794000D01*
X19138892D01*
X19011932Y2832088D02*
X19062717D01*
Y2794000D01*
X19037325Y2806696D01*
X19024628D01*
X19011932Y2794000D01*
Y2768608D01*
X19024628Y2755912D01*
X19050020D01*
X19062717Y2768608D01*
X15861513Y7086633D02*
X15937688D01*
Y7124721D01*
X15924992Y7137417D01*
X15899600D01*
X15886903Y7124721D01*
Y7086633D01*
Y7112025D02*
X15861513Y7137417D01*
X15937688Y7213592D02*
Y7162808D01*
X15899600D01*
X15912296Y7188200D01*
Y7200896D01*
X15899600Y7213592D01*
X15874208D01*
X15861513Y7200896D01*
Y7175504D01*
X15874208Y7162808D01*
X15937688Y7289767D02*
X15924992Y7264376D01*
X15899600Y7238984D01*
X15874208D01*
X15861513Y7251680D01*
Y7277072D01*
X15874208Y7289767D01*
X15886903D01*
X15899600Y7277072D01*
Y7238984D01*
X11461890Y8146070D02*
X11538065D01*
Y8184158D01*
X11525369Y8196854D01*
X11499978D01*
X11487282Y8184158D01*
Y8146070D01*
Y8171462D02*
X11461890Y8196854D01*
Y8273029D02*
Y8222245D01*
X11512673Y8273029D01*
X11525369D01*
X11538065Y8260333D01*
Y8234941D01*
X11525369Y8222245D01*
X11538065Y8349204D02*
Y8298421D01*
X11499978D01*
X11512673Y8323813D01*
Y8336509D01*
X11499978Y8349204D01*
X11474586D01*
X11461890Y8336509D01*
Y8311117D01*
X11474586Y8298421D01*
X11818620Y6710680D02*
Y6786855D01*
X11780532D01*
X11767837Y6774159D01*
Y6748768D01*
X11780532Y6736072D01*
X11818620D01*
X11793228D02*
X11767837Y6710680D01*
X11742445D02*
X11717053D01*
X11729749D01*
Y6786855D01*
X11742445Y6774159D01*
X228608Y3816364D02*
X279392D01*
X292088Y3803669D01*
Y3778277D01*
X279392Y3765581D01*
X228608D01*
X215912Y3778277D01*
Y3803669D01*
X241304Y3790973D02*
X215912Y3816364D01*
Y3803669D02*
X228608Y3816364D01*
X215912Y3841756D02*
Y3867148D01*
Y3854452D01*
X292088D01*
X279392Y3841756D01*
X292088Y3956019D02*
Y3905236D01*
X254000D01*
X266696Y3930628D01*
Y3943324D01*
X254000Y3956019D01*
X228608D01*
X215912Y3943324D01*
Y3917932D01*
X228608Y3905236D01*
X3747756Y8741508D02*
Y8792292D01*
X3760451Y8804988D01*
X3785843D01*
X3798539Y8792292D01*
Y8741508D01*
X3785843Y8728812D01*
X3760451D01*
X3773147Y8754204D02*
X3747756Y8728812D01*
X3760451D02*
X3747756Y8741508D01*
X3722364Y8728812D02*
X3696972D01*
X3709668D01*
Y8804988D01*
X3722364Y8792292D01*
X3620796Y8728812D02*
Y8804988D01*
X3658884Y8766900D01*
X3608101D01*
X10926496Y3714268D02*
Y3765052D01*
X10939191Y3777748D01*
X10964583D01*
X10977279Y3765052D01*
Y3714268D01*
X10964583Y3701572D01*
X10939191D01*
X10951887Y3726964D02*
X10926496Y3701572D01*
X10939191D02*
X10926496Y3714268D01*
X10901104Y3701572D02*
X10875712D01*
X10888408D01*
Y3777748D01*
X10901104Y3765052D01*
X10837624D02*
X10824928Y3777748D01*
X10799536D01*
X10786841Y3765052D01*
Y3752356D01*
X10799536Y3739660D01*
X10812232D01*
X10799536D01*
X10786841Y3726964D01*
Y3714268D01*
X10799536Y3701572D01*
X10824928D01*
X10837624Y3714268D01*
X14319237Y3378208D02*
Y3428992D01*
X14331931Y3441688D01*
X14357323D01*
X14370020Y3428992D01*
Y3378208D01*
X14357323Y3365512D01*
X14331931D01*
X14344627Y3390904D02*
X14319237Y3365512D01*
X14331931D02*
X14319237Y3378208D01*
X14293845Y3365512D02*
X14268452D01*
X14281148D01*
Y3441688D01*
X14293845Y3428992D01*
X14179581Y3365512D02*
X14230363D01*
X14179581Y3416296D01*
Y3428992D01*
X14192276Y3441688D01*
X14217668D01*
X14230363Y3428992D01*
X7461240Y6731008D02*
Y6781792D01*
X7473936Y6794488D01*
X7499327D01*
X7512023Y6781792D01*
Y6731008D01*
X7499327Y6718312D01*
X7473936D01*
X7486631Y6743704D02*
X7461240Y6718312D01*
X7473936D02*
X7461240Y6731008D01*
X7435848Y6718312D02*
X7410456D01*
X7423152D01*
Y6794488D01*
X7435848Y6781792D01*
X7372369Y6718312D02*
X7346977D01*
X7359673D01*
Y6794488D01*
X7372369Y6781792D01*
X2686036Y5969008D02*
Y6019792D01*
X2698731Y6032488D01*
X2724123D01*
X2736819Y6019792D01*
Y5969008D01*
X2724123Y5956312D01*
X2698731D01*
X2711427Y5981704D02*
X2686036Y5956312D01*
X2698731D02*
X2686036Y5969008D01*
X2660644Y5956312D02*
X2635252D01*
X2647948D01*
Y6032488D01*
X2660644Y6019792D01*
X2597164D02*
X2584468Y6032488D01*
X2559076D01*
X2546381Y6019792D01*
Y5969008D01*
X2559076Y5956312D01*
X2584468D01*
X2597164Y5969008D01*
Y6019792D01*
X16892134Y2167844D02*
Y2218627D01*
X16904829Y2231323D01*
X16930222D01*
X16942917Y2218627D01*
Y2167844D01*
X16930222Y2155148D01*
X16904829D01*
X16917525Y2180539D02*
X16892134Y2155148D01*
X16904829D02*
X16892134Y2167844D01*
X16866742D02*
X16854047Y2155148D01*
X16828654D01*
X16815958Y2167844D01*
Y2218627D01*
X16828654Y2231323D01*
X16854047D01*
X16866742Y2218627D01*
Y2205931D01*
X16854047Y2193235D01*
X16815958D01*
X18110208Y4711704D02*
X18160992D01*
X18173688Y4699008D01*
Y4673616D01*
X18160992Y4660920D01*
X18110208D01*
X18097511Y4673616D01*
Y4699008D01*
X18122903Y4686312D02*
X18097511Y4711704D01*
Y4699008D02*
X18110208Y4711704D01*
X18160992Y4737096D02*
X18173688Y4749792D01*
Y4775183D01*
X18160992Y4787879D01*
X18148296D01*
X18135600Y4775183D01*
X18122903Y4787879D01*
X18110208D01*
X18097511Y4775183D01*
Y4749792D01*
X18110208Y4737096D01*
X18122903D01*
X18135600Y4749792D01*
X18148296Y4737096D01*
X18160992D01*
X18135600Y4749792D02*
Y4775183D01*
X17538696Y5715008D02*
Y5765792D01*
X17551392Y5778488D01*
X17576784D01*
X17589479Y5765792D01*
Y5715008D01*
X17576784Y5702312D01*
X17551392D01*
X17564088Y5727704D02*
X17538696Y5702312D01*
X17551392D02*
X17538696Y5715008D01*
X17513304Y5778488D02*
X17462521D01*
Y5765792D01*
X17513304Y5715008D01*
Y5702312D01*
X3111496Y2616208D02*
Y2666992D01*
X3124192Y2679688D01*
X3149583D01*
X3162279Y2666992D01*
Y2616208D01*
X3149583Y2603512D01*
X3124192D01*
X3136888Y2628904D02*
X3111496Y2603512D01*
X3124192D02*
X3111496Y2616208D01*
X3035321Y2679688D02*
X3086104D01*
Y2641600D01*
X3060712Y2654296D01*
X3048016D01*
X3035321Y2641600D01*
Y2616208D01*
X3048016Y2603512D01*
X3073408D01*
X3086104Y2616208D01*
X3975096Y1854208D02*
Y1904992D01*
X3987792Y1917688D01*
X4013183D01*
X4025879Y1904992D01*
Y1854208D01*
X4013183Y1841512D01*
X3987792D01*
X4000488Y1866904D02*
X3975096Y1841512D01*
X3987792D02*
X3975096Y1854208D01*
X3911616Y1841512D02*
Y1917688D01*
X3949704Y1879600D01*
X3898921D01*
X4025896Y2565408D02*
Y2616192D01*
X4038592Y2628888D01*
X4063983D01*
X4076679Y2616192D01*
Y2565408D01*
X4063983Y2552712D01*
X4038592D01*
X4051288Y2578104D02*
X4025896Y2552712D01*
X4038592D02*
X4025896Y2565408D01*
X4000504Y2616192D02*
X3987808Y2628888D01*
X3962416D01*
X3949721Y2616192D01*
Y2603496D01*
X3962416Y2590800D01*
X3975112D01*
X3962416D01*
X3949721Y2578104D01*
Y2565408D01*
X3962416Y2552712D01*
X3987808D01*
X4000504Y2565408D01*
X3094416Y1836078D02*
Y1886862D01*
X3107112Y1899558D01*
X3132504D01*
X3145199Y1886862D01*
Y1836078D01*
X3132504Y1823382D01*
X3107112D01*
X3119808Y1848774D02*
X3094416Y1823382D01*
X3107112D02*
X3094416Y1836078D01*
X3018241Y1823382D02*
X3069024D01*
X3018241Y1874166D01*
Y1886862D01*
X3030936Y1899558D01*
X3056328D01*
X3069024Y1886862D01*
X12890488Y2184433D02*
X12814313D01*
Y2222521D01*
X12827008Y2235217D01*
X12877792D01*
X12890488Y2222521D01*
Y2184433D01*
X12877792Y2260608D02*
X12890488Y2273304D01*
Y2298696D01*
X12877792Y2311392D01*
X12865096D01*
X12852400Y2298696D01*
Y2286000D01*
Y2298696D01*
X12839703Y2311392D01*
X12827008D01*
X12814313Y2298696D01*
Y2273304D01*
X12827008Y2260608D01*
X12877792Y2336784D02*
X12890488Y2349480D01*
Y2374872D01*
X12877792Y2387567D01*
X12827008D01*
X12814313Y2374872D01*
Y2349480D01*
X12827008Y2336784D01*
X12877792D01*
X9613888Y3092481D02*
X9537712D01*
Y3130569D01*
X9550408Y3143264D01*
X9601192D01*
X9613888Y3130569D01*
Y3092481D01*
X9537712Y3168656D02*
Y3194048D01*
Y3181352D01*
X9613888D01*
X9601192Y3168656D01*
X9613888Y3232136D02*
Y3282919D01*
X9601192D01*
X9550408Y3232136D01*
X9537712D01*
X10064719Y2819388D02*
Y2743212D01*
X10026631D01*
X10013936Y2755908D01*
Y2806692D01*
X10026631Y2819388D01*
X10064719D01*
X9988544Y2743212D02*
X9963152D01*
X9975848D01*
Y2819388D01*
X9988544Y2806692D01*
X9874281Y2819388D02*
X9899672Y2806692D01*
X9925064Y2781300D01*
Y2755908D01*
X9912368Y2743212D01*
X9886976D01*
X9874281Y2755908D01*
Y2768604D01*
X9886976Y2781300D01*
X9925064D01*
X9613888Y2838481D02*
X9537712D01*
Y2876569D01*
X9550408Y2889264D01*
X9601192D01*
X9613888Y2876569D01*
Y2838481D01*
X9537712Y2914656D02*
Y2940048D01*
Y2927352D01*
X9613888D01*
X9601192Y2914656D01*
X9613888Y3028919D02*
Y2978136D01*
X9575800D01*
X9588496Y3003528D01*
Y3016224D01*
X9575800Y3028919D01*
X9550408D01*
X9537712Y3016224D01*
Y2990832D01*
X9550408Y2978136D01*
X10039319Y3365488D02*
Y3289312D01*
X10001231D01*
X9988536Y3302008D01*
Y3352792D01*
X10001231Y3365488D01*
X10039319D01*
X9963144Y3289312D02*
X9937752D01*
X9950448D01*
Y3365488D01*
X9963144Y3352792D01*
X9861576Y3289312D02*
Y3365488D01*
X9899664Y3327400D01*
X9848881D01*
X9086819Y2832088D02*
Y2755912D01*
X9048731D01*
X9036036Y2768608D01*
Y2819392D01*
X9048731Y2832088D01*
X9086819D01*
X9010644Y2755912D02*
X8985252D01*
X8997948D01*
Y2832088D01*
X9010644Y2819392D01*
X8947164D02*
X8934468Y2832088D01*
X8909076D01*
X8896381Y2819392D01*
Y2806696D01*
X8909076Y2794000D01*
X8921772D01*
X8909076D01*
X8896381Y2781304D01*
Y2768608D01*
X8909076Y2755912D01*
X8934468D01*
X8947164Y2768608D01*
X10369519Y3327388D02*
Y3251212D01*
X10331431D01*
X10318736Y3263908D01*
Y3314692D01*
X10331431Y3327388D01*
X10369519D01*
X10293344Y3251212D02*
X10267952D01*
X10280648D01*
Y3327388D01*
X10293344Y3314692D01*
X10179081Y3251212D02*
X10229864D01*
X10179081Y3301996D01*
Y3314692D01*
X10191776Y3327388D01*
X10217168D01*
X10229864Y3314692D01*
X8318471Y7289792D02*
X8331167Y7302488D01*
X8356559D01*
X8369255Y7289792D01*
Y7239008D01*
X8356559Y7226312D01*
X8331167D01*
X8318471Y7239008D01*
X8242296Y7226312D02*
X8293079D01*
X8242296Y7277096D01*
Y7289792D01*
X8254992Y7302488D01*
X8280383D01*
X8293079Y7289792D01*
X8166121Y7302488D02*
X8191512Y7289792D01*
X8216904Y7264400D01*
Y7239008D01*
X8204208Y7226312D01*
X8178816D01*
X8166121Y7239008D01*
Y7251704D01*
X8178816Y7264400D01*
X8216904D01*
X8089945Y7302488D02*
X8115337Y7289792D01*
X8140729Y7264400D01*
Y7239008D01*
X8128033Y7226312D01*
X8102641D01*
X8089945Y7239008D01*
Y7251704D01*
X8102641Y7264400D01*
X8140729D01*
X7150071Y8610592D02*
X7162767Y8623288D01*
X7188159D01*
X7200855Y8610592D01*
Y8559808D01*
X7188159Y8547112D01*
X7162767D01*
X7150071Y8559808D01*
X7073896Y8547112D02*
X7124679D01*
X7073896Y8597896D01*
Y8610592D01*
X7086592Y8623288D01*
X7111983D01*
X7124679Y8610592D01*
X6997721Y8623288D02*
X7023112Y8610592D01*
X7048504Y8585200D01*
Y8559808D01*
X7035808Y8547112D01*
X7010416D01*
X6997721Y8559808D01*
Y8572504D01*
X7010416Y8585200D01*
X7048504D01*
X6934241Y8547112D02*
Y8623288D01*
X6972329Y8585200D01*
X6921545D01*
X14350992Y5524528D02*
X14363689Y5511833D01*
Y5486441D01*
X14350992Y5473745D01*
X14300208D01*
X14287512Y5486441D01*
Y5511833D01*
X14300208Y5524528D01*
X14287512Y5600704D02*
Y5549920D01*
X14338297Y5600704D01*
X14350992D01*
X14363689Y5588008D01*
Y5562616D01*
X14350992Y5549920D01*
X14363689Y5676879D02*
Y5626096D01*
X14325600D01*
X14338297Y5651488D01*
Y5664183D01*
X14325600Y5676879D01*
X14300208D01*
X14287512Y5664183D01*
Y5638792D01*
X14300208Y5626096D01*
X14350992Y5702271D02*
X14363689Y5714967D01*
Y5740359D01*
X14350992Y5753055D01*
X14338297D01*
X14325600Y5740359D01*
X14312904Y5753055D01*
X14300208D01*
X14287512Y5740359D01*
Y5714967D01*
X14300208Y5702271D01*
X14312904D01*
X14325600Y5714967D01*
X14338297Y5702271D01*
X14350992D01*
X14325600Y5714967D02*
Y5740359D01*
X13088608Y4406871D02*
X13075912Y4419567D01*
Y4444959D01*
X13088608Y4457655D01*
X13139392D01*
X13152087Y4444959D01*
Y4419567D01*
X13139392Y4406871D01*
X13152087Y4330696D02*
Y4381479D01*
X13101305Y4330696D01*
X13088608D01*
X13075912Y4343392D01*
Y4368783D01*
X13088608Y4381479D01*
X13075912Y4254521D02*
Y4305304D01*
X13114000D01*
X13101305Y4279912D01*
Y4267216D01*
X13114000Y4254521D01*
X13139392D01*
X13152087Y4267216D01*
Y4292608D01*
X13139392Y4305304D01*
X13075912Y4178345D02*
X13088608Y4203737D01*
X13114000Y4229129D01*
X13139392D01*
X13152087Y4216433D01*
Y4191041D01*
X13139392Y4178345D01*
X13126695D01*
X13114000Y4191041D01*
Y4229129D01*
X11795492Y3421799D02*
X11808188Y3409103D01*
Y3383711D01*
X11795492Y3371015D01*
X11744708D01*
X11732012Y3383711D01*
Y3409103D01*
X11744708Y3421799D01*
X11732012Y3497974D02*
Y3447190D01*
X11782796Y3497974D01*
X11795492D01*
X11808188Y3485278D01*
Y3459886D01*
X11795492Y3447190D01*
X11732012Y3561454D02*
X11808188D01*
X11770100Y3523366D01*
Y3574149D01*
X11732012Y3599541D02*
Y3624933D01*
Y3612237D01*
X11808188D01*
X11795492Y3599541D01*
X13690572Y1384292D02*
X13703267Y1396988D01*
X13728659D01*
X13741354Y1384292D01*
Y1333508D01*
X13728659Y1320812D01*
X13703267D01*
X13690572Y1333508D01*
X13614397Y1320812D02*
X13665179D01*
X13614397Y1371596D01*
Y1384292D01*
X13627092Y1396988D01*
X13652483D01*
X13665179Y1384292D01*
X13550916Y1320812D02*
Y1396988D01*
X13589005Y1358900D01*
X13538222D01*
X13512830Y1384292D02*
X13500133Y1396988D01*
X13474741D01*
X13462045Y1384292D01*
Y1333508D01*
X13474741Y1320812D01*
X13500133D01*
X13512830Y1333508D01*
Y1384292D01*
X14147792Y5181627D02*
X14160487Y5168931D01*
Y5143539D01*
X14147792Y5130843D01*
X14097008D01*
X14084312Y5143539D01*
Y5168931D01*
X14097008Y5181627D01*
X14084312Y5257802D02*
Y5207019D01*
X14135097Y5257802D01*
X14147792D01*
X14160487Y5245106D01*
Y5219714D01*
X14147792Y5207019D01*
X14084312Y5283194D02*
Y5308586D01*
Y5295890D01*
X14160487D01*
X14147792Y5283194D01*
X14160487Y5397457D02*
X14147792Y5372065D01*
X14122400Y5346673D01*
X14097008D01*
X14084312Y5359369D01*
Y5384761D01*
X14097008Y5397457D01*
X14109705D01*
X14122400Y5384761D01*
Y5346673D01*
X7753323Y7543792D02*
X7766019Y7556488D01*
X7791411D01*
X7804107Y7543792D01*
Y7493008D01*
X7791411Y7480312D01*
X7766019D01*
X7753323Y7493008D01*
X7677148Y7480312D02*
X7727931D01*
X7677148Y7531096D01*
Y7543792D01*
X7689844Y7556488D01*
X7715236D01*
X7727931Y7543792D01*
X7651756Y7480312D02*
X7626364D01*
X7639060D01*
Y7556488D01*
X7651756Y7543792D01*
X7588277D02*
X7575581Y7556488D01*
X7550189D01*
X7537493Y7543792D01*
Y7493008D01*
X7550189Y7480312D01*
X7575581D01*
X7588277Y7493008D01*
Y7543792D01*
X9131271Y2362192D02*
X9143967Y2374888D01*
X9169359D01*
X9182055Y2362192D01*
Y2311408D01*
X9169359Y2298712D01*
X9143967D01*
X9131271Y2311408D01*
X9055096Y2298712D02*
X9105879D01*
X9055096Y2349496D01*
Y2362192D01*
X9067792Y2374888D01*
X9093183D01*
X9105879Y2362192D01*
X9029704D02*
X9017008Y2374888D01*
X8991616D01*
X8978921Y2362192D01*
Y2311408D01*
X8991616Y2298712D01*
X9017008D01*
X9029704Y2311408D01*
Y2362192D01*
X8953529D02*
X8940833Y2374888D01*
X8915441D01*
X8902745Y2362192D01*
Y2349496D01*
X8915441Y2336800D01*
X8928137D01*
X8915441D01*
X8902745Y2324104D01*
Y2311408D01*
X8915441Y2298712D01*
X8940833D01*
X8953529Y2311408D01*
X9837391Y2362192D02*
X9850087Y2374888D01*
X9875479D01*
X9888175Y2362192D01*
Y2311408D01*
X9875479Y2298712D01*
X9850087D01*
X9837391Y2311408D01*
X9761216Y2298712D02*
X9811999D01*
X9761216Y2349496D01*
Y2362192D01*
X9773912Y2374888D01*
X9799303D01*
X9811999Y2362192D01*
X9735824D02*
X9723128Y2374888D01*
X9697736D01*
X9685041Y2362192D01*
Y2311408D01*
X9697736Y2298712D01*
X9723128D01*
X9735824Y2311408D01*
Y2362192D01*
X9608865Y2298712D02*
X9659649D01*
X9608865Y2349496D01*
Y2362192D01*
X9621561Y2374888D01*
X9646953D01*
X9659649Y2362192D01*
X9290027Y2641592D02*
X9302723Y2654288D01*
X9328115D01*
X9340811Y2641592D01*
Y2590808D01*
X9328115Y2578112D01*
X9302723D01*
X9290027Y2590808D01*
X9264636Y2578112D02*
X9239244D01*
X9251940D01*
Y2654288D01*
X9264636Y2641592D01*
X9201156Y2590808D02*
X9188460Y2578112D01*
X9163068D01*
X9150373Y2590808D01*
Y2641592D01*
X9163068Y2654288D01*
X9188460D01*
X9201156Y2641592D01*
Y2628896D01*
X9188460Y2616200D01*
X9150373D01*
X9124981Y2578112D02*
X9099589D01*
X9112285D01*
Y2654288D01*
X9124981Y2641592D01*
X15773392Y4705377D02*
X15786089Y4692681D01*
Y4667289D01*
X15773392Y4654593D01*
X15722607D01*
X15709912Y4667289D01*
Y4692681D01*
X15722607Y4705377D01*
X15709912Y4730769D02*
Y4756160D01*
Y4743464D01*
X15786089D01*
X15773392Y4730769D01*
Y4794248D02*
X15786089Y4806944D01*
Y4832336D01*
X15773392Y4845031D01*
X15760696D01*
X15748000Y4832336D01*
X15735304Y4845031D01*
X15722607D01*
X15709912Y4832336D01*
Y4806944D01*
X15722607Y4794248D01*
X15735304D01*
X15748000Y4806944D01*
X15760696Y4794248D01*
X15773392D01*
X15748000Y4806944D02*
Y4832336D01*
X15773392Y4870423D02*
X15786089Y4883119D01*
Y4908511D01*
X15773392Y4921207D01*
X15760696D01*
X15748000Y4908511D01*
X15735304Y4921207D01*
X15722607D01*
X15709912Y4908511D01*
Y4883119D01*
X15722607Y4870423D01*
X15735304D01*
X15748000Y4883119D01*
X15760696Y4870423D01*
X15773392D01*
X15748000Y4883119D02*
Y4908511D01*
X15874992Y4705377D02*
X15887688Y4692681D01*
Y4667289D01*
X15874992Y4654593D01*
X15824208D01*
X15811513Y4667289D01*
Y4692681D01*
X15824208Y4705377D01*
X15811513Y4730769D02*
Y4756160D01*
Y4743464D01*
X15887688D01*
X15874992Y4730769D01*
Y4794248D02*
X15887688Y4806944D01*
Y4832336D01*
X15874992Y4845031D01*
X15862296D01*
X15849600Y4832336D01*
X15836903Y4845031D01*
X15824208D01*
X15811513Y4832336D01*
Y4806944D01*
X15824208Y4794248D01*
X15836903D01*
X15849600Y4806944D01*
X15862296Y4794248D01*
X15874992D01*
X15849600Y4806944D02*
Y4832336D01*
X15887688Y4870423D02*
Y4921207D01*
X15874992D01*
X15824208Y4870423D01*
X15811513D01*
X15119324Y3682992D02*
X15132019Y3695688D01*
X15157411D01*
X15170107Y3682992D01*
Y3632208D01*
X15157411Y3619512D01*
X15132019D01*
X15119324Y3632208D01*
X15093932Y3619512D02*
X15068539D01*
X15081236D01*
Y3695688D01*
X15093932Y3682992D01*
X14979669Y3695688D02*
X15005060Y3682992D01*
X15030452Y3657600D01*
Y3632208D01*
X15017757Y3619512D01*
X14992365D01*
X14979669Y3632208D01*
Y3644904D01*
X14992365Y3657600D01*
X15030452D01*
X14954277Y3695688D02*
X14903493D01*
Y3682992D01*
X14954277Y3632208D01*
Y3619512D01*
X15265392Y3390926D02*
X15278088Y3378231D01*
Y3352839D01*
X15265392Y3340143D01*
X15214607D01*
X15201912Y3352839D01*
Y3378231D01*
X15214607Y3390926D01*
X15201912Y3416318D02*
Y3441710D01*
Y3429014D01*
X15278088D01*
X15265392Y3416318D01*
X15278088Y3530581D02*
X15265392Y3505190D01*
X15239999Y3479798D01*
X15214607D01*
X15201912Y3492494D01*
Y3517886D01*
X15214607Y3530581D01*
X15227304D01*
X15239999Y3517886D01*
Y3479798D01*
X15278088Y3606757D02*
X15265392Y3581365D01*
X15239999Y3555973D01*
X15214607D01*
X15201912Y3568669D01*
Y3594061D01*
X15214607Y3606757D01*
X15227304D01*
X15239999Y3594061D01*
Y3555973D01*
X15344157Y2621259D02*
X15356853Y2633955D01*
X15382243D01*
X15394940Y2621259D01*
Y2570476D01*
X15382243Y2557780D01*
X15356853D01*
X15344157Y2570476D01*
X15318765Y2557780D02*
X15293373D01*
X15306068D01*
Y2633955D01*
X15318765Y2621259D01*
X15204501Y2633955D02*
X15255286D01*
Y2595868D01*
X15229893Y2608563D01*
X15217197D01*
X15204501Y2595868D01*
Y2570476D01*
X15217197Y2557780D01*
X15242589D01*
X15255286Y2570476D01*
X15179111Y2621259D02*
X15166414Y2633955D01*
X15141022D01*
X15128326Y2621259D01*
Y2608563D01*
X15141022Y2595868D01*
X15128326Y2583172D01*
Y2570476D01*
X15141022Y2557780D01*
X15166414D01*
X15179111Y2570476D01*
Y2583172D01*
X15166414Y2595868D01*
X15179111Y2608563D01*
Y2621259D01*
X15166414Y2595868D02*
X15141022D01*
X15062192Y2057427D02*
X15074889Y2044731D01*
Y2019339D01*
X15062192Y2006643D01*
X15011407D01*
X14998712Y2019339D01*
Y2044731D01*
X15011407Y2057427D01*
X14998712Y2082819D02*
Y2108210D01*
Y2095514D01*
X15074889D01*
X15062192Y2082819D01*
X15074889Y2197081D02*
Y2146298D01*
X15036800D01*
X15049496Y2171690D01*
Y2184386D01*
X15036800Y2197081D01*
X15011407D01*
X14998712Y2184386D01*
Y2158994D01*
X15011407Y2146298D01*
X15074889Y2222473D02*
Y2273257D01*
X15062192D01*
X15011407Y2222473D01*
X14998712D01*
X19214603Y1665977D02*
X19227298Y1653281D01*
Y1627889D01*
X19214603Y1615193D01*
X19163818D01*
X19151122Y1627889D01*
Y1653281D01*
X19163818Y1665977D01*
X19151122Y1691368D02*
Y1716760D01*
Y1704064D01*
X19227298D01*
X19214603Y1691368D01*
X19151122Y1792936D02*
X19227298D01*
X19189211Y1754848D01*
Y1805631D01*
X19227298Y1881807D02*
X19214603Y1856415D01*
X19189211Y1831023D01*
X19163818D01*
X19151122Y1843719D01*
Y1869111D01*
X19163818Y1881807D01*
X19176514D01*
X19189211Y1869111D01*
Y1831023D01*
X19366983Y1570692D02*
X19379678Y1583388D01*
X19405070D01*
X19417767Y1570692D01*
Y1519908D01*
X19405070Y1507212D01*
X19379678D01*
X19366983Y1519908D01*
X19341591Y1507212D02*
X19316200D01*
X19328896D01*
Y1583388D01*
X19341591Y1570692D01*
X19240024Y1507212D02*
Y1583388D01*
X19278111Y1545300D01*
X19227328D01*
X19151154Y1583388D02*
X19201936D01*
Y1545300D01*
X19176546Y1557996D01*
X19163849D01*
X19151154Y1545300D01*
Y1519908D01*
X19163849Y1507212D01*
X19189241D01*
X19201936Y1519908D01*
X19373334Y1469092D02*
X19386029Y1481788D01*
X19411421D01*
X19424117Y1469092D01*
Y1418308D01*
X19411421Y1405612D01*
X19386029D01*
X19373334Y1418308D01*
X19347942Y1405612D02*
X19322549D01*
X19335246D01*
Y1481788D01*
X19347942Y1469092D01*
X19246375Y1405612D02*
Y1481788D01*
X19284462Y1443700D01*
X19233679D01*
X19170200Y1405612D02*
Y1481788D01*
X19208287Y1443700D01*
X19157503D01*
X19360637Y1367492D02*
X19373334Y1380188D01*
X19398724D01*
X19411421Y1367492D01*
Y1316708D01*
X19398724Y1304012D01*
X19373334D01*
X19360637Y1316708D01*
X19335246Y1304012D02*
X19309854D01*
X19322549D01*
Y1380188D01*
X19335246Y1367492D01*
X19233678Y1304012D02*
Y1380188D01*
X19271767Y1342100D01*
X19220982D01*
X19195592Y1304012D02*
X19170200D01*
X19182895D01*
Y1380188D01*
X19195592Y1367492D01*
X18859018Y1323023D02*
X18846323Y1335719D01*
Y1361111D01*
X18859018Y1373807D01*
X18909802D01*
X18922498Y1361111D01*
Y1335719D01*
X18909802Y1323023D01*
X18922498Y1297631D02*
Y1272240D01*
Y1284935D01*
X18846323D01*
X18859018Y1297631D01*
Y1234152D02*
X18846323Y1221456D01*
Y1196064D01*
X18859018Y1183368D01*
X18871713D01*
X18884410Y1196064D01*
Y1208760D01*
Y1196064D01*
X18897105Y1183368D01*
X18909802D01*
X18922498Y1196064D01*
Y1221456D01*
X18909802Y1234152D01*
X18859018Y1157977D02*
X18846323Y1145281D01*
Y1119889D01*
X18859018Y1107193D01*
X18871713D01*
X18884410Y1119889D01*
X18897105Y1107193D01*
X18909802D01*
X18922498Y1119889D01*
Y1145281D01*
X18909802Y1157977D01*
X18897105D01*
X18884410Y1145281D01*
X18871713Y1157977D01*
X18859018D01*
X18884410Y1145281D02*
Y1119889D01*
X18605002Y1665977D02*
X18617699Y1653281D01*
Y1627889D01*
X18605002Y1615193D01*
X18554218D01*
X18541522Y1627889D01*
Y1653281D01*
X18554218Y1665977D01*
X18541522Y1691368D02*
Y1716760D01*
Y1704064D01*
X18617699D01*
X18605002Y1691368D01*
Y1754848D02*
X18617699Y1767544D01*
Y1792936D01*
X18605002Y1805631D01*
X18592307D01*
X18579610Y1792936D01*
Y1780240D01*
Y1792936D01*
X18566914Y1805631D01*
X18554218D01*
X18541522Y1792936D01*
Y1767544D01*
X18554218Y1754848D01*
X18617699Y1831023D02*
Y1881807D01*
X18605002D01*
X18554218Y1831023D01*
X18541522D01*
X18503893Y1670076D02*
X18516588Y1657381D01*
Y1631989D01*
X18503893Y1619293D01*
X18453108D01*
X18440411Y1631989D01*
Y1657381D01*
X18453108Y1670076D01*
X18440411Y1695468D02*
Y1720860D01*
Y1708164D01*
X18516588D01*
X18503893Y1695468D01*
Y1758948D02*
X18516588Y1771644D01*
Y1797036D01*
X18503893Y1809731D01*
X18491196D01*
X18478500Y1797036D01*
Y1784340D01*
Y1797036D01*
X18465804Y1809731D01*
X18453108D01*
X18440411Y1797036D01*
Y1771644D01*
X18453108Y1758948D01*
X18516588Y1885907D02*
X18503893Y1860515D01*
X18478500Y1835123D01*
X18453108D01*
X18440411Y1847819D01*
Y1873211D01*
X18453108Y1885907D01*
X18465804D01*
X18478500Y1873211D01*
Y1835123D01*
X18401802Y1665977D02*
X18414497Y1653281D01*
Y1627889D01*
X18401802Y1615193D01*
X18351018D01*
X18338322Y1627889D01*
Y1653281D01*
X18351018Y1665977D01*
X18338322Y1691368D02*
Y1716760D01*
Y1704064D01*
X18414497D01*
X18401802Y1691368D01*
Y1754848D02*
X18414497Y1767544D01*
Y1792936D01*
X18401802Y1805631D01*
X18389107D01*
X18376410Y1792936D01*
Y1780240D01*
Y1792936D01*
X18363715Y1805631D01*
X18351018D01*
X18338322Y1792936D01*
Y1767544D01*
X18351018Y1754848D01*
X18401802Y1831023D02*
X18414497Y1843719D01*
Y1869111D01*
X18401802Y1881807D01*
X18389107D01*
X18376410Y1869111D01*
Y1856415D01*
Y1869111D01*
X18363715Y1881807D01*
X18351018D01*
X18338322Y1869111D01*
Y1843719D01*
X18351018Y1831023D01*
X19496523Y2768592D02*
X19509219Y2781288D01*
X19534612D01*
X19547307Y2768592D01*
Y2717808D01*
X19534612Y2705112D01*
X19509219D01*
X19496523Y2717808D01*
X19471130Y2705112D02*
X19445740D01*
X19458437D01*
Y2781288D01*
X19471130Y2768592D01*
X19356870Y2705112D02*
X19407652D01*
X19356870Y2755896D01*
Y2768592D01*
X19369563Y2781288D01*
X19394955D01*
X19407652Y2768592D01*
X19331477Y2717808D02*
X19318781Y2705112D01*
X19293388D01*
X19280693Y2717808D01*
Y2768592D01*
X19293388Y2781288D01*
X19318781D01*
X19331477Y2768592D01*
Y2755896D01*
X19318781Y2743200D01*
X19280693D01*
X18988522Y3022592D02*
X19001219Y3035288D01*
X19026611D01*
X19039307Y3022592D01*
Y2971808D01*
X19026611Y2959112D01*
X19001219D01*
X18988522Y2971808D01*
X18963132Y2959112D02*
X18937740D01*
X18950436D01*
Y3035288D01*
X18963132Y3022592D01*
X18848869Y2959112D02*
X18899652D01*
X18848869Y3009896D01*
Y3022592D01*
X18861565Y3035288D01*
X18886955D01*
X18899652Y3022592D01*
X18823477D02*
X18810780Y3035288D01*
X18785390D01*
X18772693Y3022592D01*
Y3009896D01*
X18785390Y2997200D01*
X18772693Y2984504D01*
Y2971808D01*
X18785390Y2959112D01*
X18810780D01*
X18823477Y2971808D01*
Y2984504D01*
X18810780Y2997200D01*
X18823477Y3009896D01*
Y3022592D01*
X18810780Y2997200D02*
X18785390D01*
X18988522Y3124192D02*
X19001219Y3136888D01*
X19026611D01*
X19039307Y3124192D01*
Y3073408D01*
X19026611Y3060712D01*
X19001219D01*
X18988522Y3073408D01*
X18963132Y3060712D02*
X18937740D01*
X18950436D01*
Y3136888D01*
X18963132Y3124192D01*
X18848869Y3060712D02*
X18899652D01*
X18848869Y3111496D01*
Y3124192D01*
X18861565Y3136888D01*
X18886955D01*
X18899652Y3124192D01*
X18823477Y3136888D02*
X18772693D01*
Y3124192D01*
X18823477Y3073408D01*
Y3060712D01*
X18988522Y3225792D02*
X19001219Y3238488D01*
X19026611D01*
X19039307Y3225792D01*
Y3175008D01*
X19026611Y3162312D01*
X19001219D01*
X18988522Y3175008D01*
X18963132Y3162312D02*
X18937740D01*
X18950436D01*
Y3238488D01*
X18963132Y3225792D01*
X18848869Y3162312D02*
X18899652D01*
X18848869Y3213096D01*
Y3225792D01*
X18861565Y3238488D01*
X18886955D01*
X18899652Y3225792D01*
X18823477D02*
X18810780Y3238488D01*
X18785390D01*
X18772693Y3225792D01*
Y3213096D01*
X18785390Y3200400D01*
X18798085D01*
X18785390D01*
X18772693Y3187704D01*
Y3175008D01*
X18785390Y3162312D01*
X18810780D01*
X18823477Y3175008D01*
X14897083Y7696192D02*
X14909779Y7708888D01*
X14935172D01*
X14947867Y7696192D01*
Y7645408D01*
X14935172Y7632712D01*
X14909779D01*
X14897083Y7645408D01*
X14871692D02*
X14858997Y7632712D01*
X14833604D01*
X14820908Y7645408D01*
Y7696192D01*
X14833604Y7708888D01*
X14858997D01*
X14871692Y7696192D01*
Y7683496D01*
X14858997Y7670800D01*
X14820908D01*
X14757428Y7632712D02*
Y7708888D01*
X14795515Y7670800D01*
X14744733D01*
X16305983Y7670792D02*
X16318678Y7683488D01*
X16344070D01*
X16356767Y7670792D01*
Y7620008D01*
X16344070Y7607312D01*
X16318678D01*
X16305983Y7620008D01*
X16280592D02*
X16267896Y7607312D01*
X16242503D01*
X16229808Y7620008D01*
Y7670792D01*
X16242503Y7683488D01*
X16267896D01*
X16280592Y7670792D01*
Y7658096D01*
X16267896Y7645400D01*
X16229808D01*
X16204416Y7670792D02*
X16191721Y7683488D01*
X16166328D01*
X16153633Y7670792D01*
Y7658096D01*
X16166328Y7645400D01*
X16179024D01*
X16166328D01*
X16153633Y7632704D01*
Y7620008D01*
X16166328Y7607312D01*
X16191721D01*
X16204416Y7620008D01*
X11582383Y7429492D02*
X11595079Y7442188D01*
X11620471D01*
X11633167Y7429492D01*
Y7378708D01*
X11620471Y7366012D01*
X11595079D01*
X11582383Y7378708D01*
X11506208Y7442188D02*
X11531600Y7429492D01*
X11556992Y7404100D01*
Y7378708D01*
X11544296Y7366012D01*
X11518904D01*
X11506208Y7378708D01*
Y7391404D01*
X11518904Y7404100D01*
X11556992D01*
X11430033Y7442188D02*
X11480816D01*
Y7404100D01*
X11455424Y7416796D01*
X11442728D01*
X11430033Y7404100D01*
Y7378708D01*
X11442728Y7366012D01*
X11468120D01*
X11480816Y7378708D01*
X12166592Y7670817D02*
X12179288Y7658121D01*
Y7632729D01*
X12166592Y7620033D01*
X12115808D01*
X12103112Y7632729D01*
Y7658121D01*
X12115808Y7670817D01*
X12179288Y7746992D02*
X12166592Y7721600D01*
X12141200Y7696208D01*
X12115808D01*
X12103112Y7708904D01*
Y7734296D01*
X12115808Y7746992D01*
X12128504D01*
X12141200Y7734296D01*
Y7696208D01*
X12166592Y7772384D02*
X12179288Y7785080D01*
Y7810472D01*
X12166592Y7823167D01*
X12153896D01*
X12141200Y7810472D01*
Y7797776D01*
Y7810472D01*
X12128504Y7823167D01*
X12115808D01*
X12103112Y7810472D01*
Y7785080D01*
X12115808Y7772384D01*
X12217392Y6604017D02*
X12230088Y6591321D01*
Y6565929D01*
X12217392Y6553233D01*
X12166608D01*
X12153912Y6565929D01*
Y6591321D01*
X12166608Y6604017D01*
X12230088Y6680192D02*
X12217392Y6654800D01*
X12192000Y6629408D01*
X12166608D01*
X12153912Y6642104D01*
Y6667496D01*
X12166608Y6680192D01*
X12179304D01*
X12192000Y6667496D01*
Y6629408D01*
X12217392Y6705584D02*
X12230088Y6718280D01*
Y6743672D01*
X12217392Y6756367D01*
X12166608D01*
X12153912Y6743672D01*
Y6718280D01*
X12166608Y6705584D01*
X12217392D01*
X12534892Y6604017D02*
X12547588Y6591321D01*
Y6565929D01*
X12534892Y6553233D01*
X12484108D01*
X12471412Y6565929D01*
Y6591321D01*
X12484108Y6604017D01*
X12547588Y6680192D02*
Y6629408D01*
X12509500D01*
X12522196Y6654800D01*
Y6667496D01*
X12509500Y6680192D01*
X12484108D01*
X12471412Y6667496D01*
Y6642104D01*
X12484108Y6629408D01*
Y6705584D02*
X12471412Y6718280D01*
Y6743672D01*
X12484108Y6756367D01*
X12534892D01*
X12547588Y6743672D01*
Y6718280D01*
X12534892Y6705584D01*
X12522196D01*
X12509500Y6718280D01*
Y6756367D01*
X12064983Y7251692D02*
X12077679Y7264388D01*
X12103071D01*
X12115767Y7251692D01*
Y7200908D01*
X12103071Y7188212D01*
X12077679D01*
X12064983Y7200908D01*
X11988808Y7264388D02*
X12039592D01*
Y7226300D01*
X12014200Y7238996D01*
X12001504D01*
X11988808Y7226300D01*
Y7200908D01*
X12001504Y7188212D01*
X12026896D01*
X12039592Y7200908D01*
X11963416Y7264388D02*
X11912633D01*
Y7251692D01*
X11963416Y7200908D01*
Y7188212D01*
X13461983Y6578592D02*
X13474680Y6591288D01*
X13500072D01*
X13512767Y6578592D01*
Y6527808D01*
X13500072Y6515112D01*
X13474680D01*
X13461983Y6527808D01*
X13385808Y6591288D02*
X13436592D01*
Y6553200D01*
X13411200Y6565896D01*
X13398505D01*
X13385808Y6553200D01*
Y6527808D01*
X13398505Y6515112D01*
X13423895D01*
X13436592Y6527808D01*
X13322328Y6515112D02*
Y6591288D01*
X13360416Y6553200D01*
X13309633D01*
X13398483Y6819892D02*
X13411179Y6832588D01*
X13436571D01*
X13449268Y6819892D01*
Y6769108D01*
X13436571Y6756412D01*
X13411179D01*
X13398483Y6769108D01*
X13322308Y6832588D02*
X13373093D01*
Y6794500D01*
X13347701Y6807196D01*
X13335004D01*
X13322308Y6794500D01*
Y6769108D01*
X13335004Y6756412D01*
X13360396D01*
X13373093Y6769108D01*
X13296916Y6819892D02*
X13284219Y6832588D01*
X13258829D01*
X13246133Y6819892D01*
Y6807196D01*
X13258829Y6794500D01*
X13271524D01*
X13258829D01*
X13246133Y6781804D01*
Y6769108D01*
X13258829Y6756412D01*
X13284219D01*
X13296916Y6769108D01*
X13698238Y7216119D02*
X13710931Y7228815D01*
X13736324D01*
X13749020Y7216119D01*
Y7165336D01*
X13736324Y7152640D01*
X13710931D01*
X13698238Y7165336D01*
X13622061Y7228815D02*
X13672845D01*
Y7190728D01*
X13647453Y7203423D01*
X13634756D01*
X13622061Y7190728D01*
Y7165336D01*
X13634756Y7152640D01*
X13660149D01*
X13672845Y7165336D01*
X13596669Y7152640D02*
X13571277D01*
X13583974D01*
Y7228815D01*
X13596669Y7216119D01*
X13106383Y8623292D02*
X13119080Y8635988D01*
X13144472D01*
X13157167Y8623292D01*
Y8572508D01*
X13144472Y8559812D01*
X13119080D01*
X13106383Y8572508D01*
X13042905Y8559812D02*
Y8635988D01*
X13080992Y8597900D01*
X13030208D01*
X13004816Y8623292D02*
X12992120Y8635988D01*
X12966728D01*
X12954033Y8623292D01*
Y8610596D01*
X12966728Y8597900D01*
X12954033Y8585204D01*
Y8572508D01*
X12966728Y8559812D01*
X12992120D01*
X13004816Y8572508D01*
Y8585204D01*
X12992120Y8597900D01*
X13004816Y8610596D01*
Y8623292D01*
X12992120Y8597900D02*
X12966728D01*
X12903183Y8940792D02*
X12915878Y8953488D01*
X12941270D01*
X12953967Y8940792D01*
Y8890008D01*
X12941270Y8877312D01*
X12915878D01*
X12903183Y8890008D01*
X12839703Y8877312D02*
Y8953488D01*
X12877792Y8915400D01*
X12827008D01*
X12801616Y8953488D02*
X12750833D01*
Y8940792D01*
X12801616Y8890008D01*
Y8877312D01*
X12852393Y8394717D02*
X12865088Y8382021D01*
Y8356629D01*
X12852393Y8343933D01*
X12801608D01*
X12788912Y8356629D01*
Y8382021D01*
X12801608Y8394717D01*
X12788912Y8458196D02*
X12865088D01*
X12827000Y8420108D01*
Y8470892D01*
X12865088Y8547067D02*
Y8496284D01*
X12827000D01*
X12839696Y8521676D01*
Y8534372D01*
X12827000Y8547067D01*
X12801608D01*
X12788912Y8534372D01*
Y8508980D01*
X12801608Y8496284D01*
X13766792Y8318517D02*
X13779488Y8305821D01*
Y8280429D01*
X13766792Y8267733D01*
X13716008D01*
X13703313Y8280429D01*
Y8305821D01*
X13716008Y8318517D01*
X13703313Y8381996D02*
X13779488D01*
X13741400Y8343908D01*
Y8394692D01*
X13703313Y8470867D02*
Y8420084D01*
X13754095Y8470867D01*
X13766792D01*
X13779488Y8458172D01*
Y8432780D01*
X13766792Y8420084D01*
X13804887Y7696192D02*
X13817583Y7708888D01*
X13842975D01*
X13855672Y7696192D01*
Y7645408D01*
X13842975Y7632712D01*
X13817583D01*
X13804887Y7645408D01*
X13741408Y7632712D02*
Y7708888D01*
X13779495Y7670800D01*
X13728712D01*
X13703320Y7632712D02*
X13677930D01*
X13690625D01*
Y7708888D01*
X13703320Y7696192D01*
X13334991Y7975617D02*
X13347688Y7962921D01*
Y7937529D01*
X13334991Y7924833D01*
X13284209D01*
X13271512Y7937529D01*
Y7962921D01*
X13284209Y7975617D01*
X13334991Y8001008D02*
X13347688Y8013704D01*
Y8039096D01*
X13334991Y8051792D01*
X13322296D01*
X13309599Y8039096D01*
Y8026400D01*
Y8039096D01*
X13296904Y8051792D01*
X13284209D01*
X13271512Y8039096D01*
Y8013704D01*
X13284209Y8001008D01*
Y8077184D02*
X13271512Y8089880D01*
Y8115272D01*
X13284209Y8127967D01*
X13334991D01*
X13347688Y8115272D01*
Y8089880D01*
X13334991Y8077184D01*
X13322296D01*
X13309599Y8089880D01*
Y8127967D01*
X12877783Y6515092D02*
X12890479Y6527788D01*
X12915871D01*
X12928568Y6515092D01*
Y6464308D01*
X12915871Y6451612D01*
X12890479D01*
X12877783Y6464308D01*
X12852393Y6515092D02*
X12839696Y6527788D01*
X12814304D01*
X12801608Y6515092D01*
Y6502396D01*
X12814304Y6489700D01*
X12827000D01*
X12814304D01*
X12801608Y6477004D01*
Y6464308D01*
X12814304Y6451612D01*
X12839696D01*
X12852393Y6464308D01*
X12725433Y6527788D02*
X12750824Y6515092D01*
X12776216Y6489700D01*
Y6464308D01*
X12763520Y6451612D01*
X12738128D01*
X12725433Y6464308D01*
Y6477004D01*
X12738128Y6489700D01*
X12776216D01*
X12903183Y6807192D02*
X12915878Y6819888D01*
X12941270D01*
X12953967Y6807192D01*
Y6756408D01*
X12941270Y6743712D01*
X12915878D01*
X12903183Y6756408D01*
X12877792Y6807192D02*
X12865096Y6819888D01*
X12839703D01*
X12827008Y6807192D01*
Y6794496D01*
X12839703Y6781800D01*
X12852400D01*
X12839703D01*
X12827008Y6769104D01*
Y6756408D01*
X12839703Y6743712D01*
X12865096D01*
X12877792Y6756408D01*
X12750833Y6819888D02*
X12801616D01*
Y6781800D01*
X12776224Y6794496D01*
X12763528D01*
X12750833Y6781800D01*
Y6756408D01*
X12763528Y6743712D01*
X12788920D01*
X12801616Y6756408D01*
X13157182Y6972292D02*
X13169879Y6984988D01*
X13195271D01*
X13207967Y6972292D01*
Y6921508D01*
X13195271Y6908812D01*
X13169879D01*
X13157182Y6921508D01*
X13131792Y6972292D02*
X13119096Y6984988D01*
X13093704D01*
X13081007Y6972292D01*
Y6959596D01*
X13093704Y6946900D01*
X13106400D01*
X13093704D01*
X13081007Y6934204D01*
Y6921508D01*
X13093704Y6908812D01*
X13119096D01*
X13131792Y6921508D01*
X13017528Y6908812D02*
Y6984988D01*
X13055617Y6946900D01*
X13004832D01*
X13157182Y7238992D02*
X13169879Y7251688D01*
X13195271D01*
X13207967Y7238992D01*
Y7188208D01*
X13195271Y7175512D01*
X13169879D01*
X13157182Y7188208D01*
X13131792Y7238992D02*
X13119096Y7251688D01*
X13093704D01*
X13081007Y7238992D01*
Y7226296D01*
X13093704Y7213600D01*
X13106400D01*
X13093704D01*
X13081007Y7200904D01*
Y7188208D01*
X13093704Y7175512D01*
X13119096D01*
X13131792Y7188208D01*
X13055617Y7238992D02*
X13042920Y7251688D01*
X13017528D01*
X13004832Y7238992D01*
Y7226296D01*
X13017528Y7213600D01*
X13030225D01*
X13017528D01*
X13004832Y7200904D01*
Y7188208D01*
X13017528Y7175512D01*
X13042920D01*
X13055617Y7188208D01*
X12318992Y7505717D02*
X12331688Y7493021D01*
Y7467629D01*
X12318992Y7454933D01*
X12268208D01*
X12255512Y7467629D01*
Y7493021D01*
X12268208Y7505717D01*
X12318992Y7531108D02*
X12331688Y7543804D01*
Y7569196D01*
X12318992Y7581892D01*
X12306296D01*
X12293600Y7569196D01*
Y7556500D01*
Y7569196D01*
X12280904Y7581892D01*
X12268208D01*
X12255512Y7569196D01*
Y7543804D01*
X12268208Y7531108D01*
X12318992Y7607284D02*
X12331688Y7619980D01*
Y7645372D01*
X12318992Y7658067D01*
X12268208D01*
X12255512Y7645372D01*
Y7619980D01*
X12268208Y7607284D01*
X12318992D01*
X12941292Y7683517D02*
X12953989Y7670821D01*
Y7645429D01*
X12941292Y7632733D01*
X12890508D01*
X12877812Y7645429D01*
Y7670821D01*
X12890508Y7683517D01*
X12877812Y7759692D02*
Y7708908D01*
X12928596Y7759692D01*
X12941292D01*
X12953989Y7746996D01*
Y7721604D01*
X12941292Y7708908D01*
X12890508Y7785084D02*
X12877812Y7797780D01*
Y7823172D01*
X12890508Y7835867D01*
X12941292D01*
X12953989Y7823172D01*
Y7797780D01*
X12941292Y7785084D01*
X12928596D01*
X12915900Y7797780D01*
Y7835867D01*
X12585683Y7721592D02*
X12598379Y7734288D01*
X12623771D01*
X12636467Y7721592D01*
Y7670808D01*
X12623771Y7658112D01*
X12598379D01*
X12585683Y7670808D01*
X12509508Y7658112D02*
X12560292D01*
X12509508Y7708896D01*
Y7721592D01*
X12522204Y7734288D01*
X12547596D01*
X12560292Y7721592D01*
X12484116D02*
X12471420Y7734288D01*
X12446028D01*
X12433333Y7721592D01*
Y7708896D01*
X12446028Y7696200D01*
X12433333Y7683504D01*
Y7670808D01*
X12446028Y7658112D01*
X12471420D01*
X12484116Y7670808D01*
Y7683504D01*
X12471420Y7696200D01*
X12484116Y7708896D01*
Y7721592D01*
X12471420Y7696200D02*
X12446028D01*
X13271492Y7404117D02*
X13284187Y7391421D01*
Y7366029D01*
X13271492Y7353333D01*
X13220708D01*
X13208012Y7366029D01*
Y7391421D01*
X13220708Y7404117D01*
X13208012Y7480292D02*
Y7429508D01*
X13258797Y7480292D01*
X13271492D01*
X13284187Y7467596D01*
Y7442204D01*
X13271492Y7429508D01*
X13284187Y7556467D02*
X13271492Y7531076D01*
X13246100Y7505684D01*
X13220708D01*
X13208012Y7518380D01*
Y7543772D01*
X13220708Y7556467D01*
X13233405D01*
X13246100Y7543772D01*
Y7505684D01*
X12095209Y8523775D02*
X12107905Y8536471D01*
X12133297D01*
X12145993Y8523775D01*
Y8472991D01*
X12133297Y8460295D01*
X12107905D01*
X12095209Y8472991D01*
X12019034Y8460295D02*
X12069818D01*
X12019034Y8511079D01*
Y8523775D01*
X12031730Y8536471D01*
X12057122D01*
X12069818Y8523775D01*
X11942859Y8460295D02*
X11993642D01*
X11942859Y8511079D01*
Y8523775D01*
X11955554Y8536471D01*
X11980946D01*
X11993642Y8523775D01*
X12585688Y8826492D02*
X12598383Y8839188D01*
X12623775D01*
X12636471Y8826492D01*
Y8775708D01*
X12623775Y8763012D01*
X12598383D01*
X12585688Y8775708D01*
X12509512Y8763012D02*
X12560296D01*
X12509512Y8813796D01*
Y8826492D01*
X12522208Y8839188D01*
X12547600D01*
X12560296Y8826492D01*
X12484121Y8763012D02*
X12458729D01*
X12471425D01*
Y8839188D01*
X12484121Y8826492D01*
X12407883Y9055092D02*
X12420579Y9067788D01*
X12445971D01*
X12458667Y9055092D01*
Y9004308D01*
X12445971Y8991612D01*
X12420579D01*
X12407883Y9004308D01*
X12331708Y8991612D02*
X12382492D01*
X12331708Y9042396D01*
Y9055092D01*
X12344404Y9067788D01*
X12369796D01*
X12382492Y9055092D01*
X12306316D02*
X12293620Y9067788D01*
X12268228D01*
X12255533Y9055092D01*
Y9004308D01*
X12268228Y8991612D01*
X12293620D01*
X12306316Y9004308D01*
Y9055092D01*
X13119092Y7816864D02*
X13131789Y7804169D01*
Y7778777D01*
X13119092Y7766081D01*
X13068307D01*
X13055612Y7778777D01*
Y7804169D01*
X13068307Y7816864D01*
X13055612Y7842256D02*
Y7867648D01*
Y7854952D01*
X13131789D01*
X13119092Y7842256D01*
X13068307Y7905736D02*
X13055612Y7918432D01*
Y7943824D01*
X13068307Y7956519D01*
X13119092D01*
X13131789Y7943824D01*
Y7918432D01*
X13119092Y7905736D01*
X13106396D01*
X13093700Y7918432D01*
Y7956519D01*
X13423892Y8324864D02*
X13436588Y8312169D01*
Y8286777D01*
X13423892Y8274081D01*
X13373108D01*
X13360413Y8286777D01*
Y8312169D01*
X13373108Y8324864D01*
X13360413Y8350256D02*
Y8375648D01*
Y8362952D01*
X13436588D01*
X13423892Y8350256D01*
Y8413736D02*
X13436588Y8426432D01*
Y8451824D01*
X13423892Y8464519D01*
X13411195D01*
X13398500Y8451824D01*
X13385805Y8464519D01*
X13373108D01*
X13360413Y8451824D01*
Y8426432D01*
X13373108Y8413736D01*
X13385805D01*
X13398500Y8426432D01*
X13411195Y8413736D01*
X13423892D01*
X13398500Y8426432D02*
Y8451824D01*
X11668752Y8812544D02*
X11681448Y8799849D01*
Y8774457D01*
X11668752Y8761761D01*
X11617968D01*
X11605272Y8774457D01*
Y8799849D01*
X11617968Y8812544D01*
X11605272Y8837936D02*
Y8863328D01*
Y8850632D01*
X11681448D01*
X11668752Y8837936D01*
X11681448Y8952199D02*
X11668752Y8926808D01*
X11643360Y8901416D01*
X11617968D01*
X11605272Y8914112D01*
Y8939504D01*
X11617968Y8952199D01*
X11630664D01*
X11643360Y8939504D01*
Y8901416D01*
X11429992Y8464564D02*
X11442688Y8451869D01*
Y8426477D01*
X11429992Y8413781D01*
X11379208D01*
X11366512Y8426477D01*
Y8451869D01*
X11379208Y8464564D01*
X11366512Y8489956D02*
Y8515348D01*
Y8502652D01*
X11442688D01*
X11429992Y8489956D01*
X11442688Y8604219D02*
Y8553436D01*
X11404600D01*
X11417296Y8578828D01*
Y8591524D01*
X11404600Y8604219D01*
X11379208D01*
X11366512Y8591524D01*
Y8566132D01*
X11379208Y8553436D01*
D141*
X12743400Y2231000D02*
Y2341000D01*
X12453400Y2231000D02*
Y2341000D01*
D142*
X7874000Y7696200D02*
X8382000D01*
X7874000Y7340600D02*
Y7696200D01*
Y7340600D02*
X8382000D01*
Y7696200D01*
X14224001Y5448300D02*
Y5803900D01*
X13716000Y5448300D02*
X14224001D01*
X13716000D02*
Y5803900D01*
X14224001D01*
X6883400Y8432800D02*
X7239000D01*
Y7924800D02*
Y8432800D01*
X6883400Y7924800D02*
X7239000D01*
X6883400D02*
Y8432800D01*
X13208000Y4140200D02*
Y4495800D01*
X13716000D01*
Y4140200D02*
Y4495800D01*
X13208000Y4140200D02*
X13716000D01*
D143*
X19189211Y3063240D02*
Y3134360D01*
X19076180Y3063240D02*
X19189211D01*
X19076180D02*
Y3134360D01*
X19189211D01*
Y3164840D02*
Y3235960D01*
X19076180Y3164840D02*
X19189211D01*
X19076180D02*
Y3235960D01*
X19189211D01*
X15814040Y4961890D02*
X15885159D01*
X15814040D02*
Y5074920D01*
X15885159D01*
Y4961890D02*
Y5074920D01*
X15712440Y4961890D02*
X15783560D01*
X15712440D02*
Y5074920D01*
X15783560D01*
Y4961890D02*
Y5074920D01*
X9274810Y2694940D02*
Y2766060D01*
X9161780Y2694940D02*
X9274810D01*
X9161780D02*
Y2766060D01*
X9274810D01*
X9465310Y2301240D02*
X9578340D01*
Y2372360D01*
X9465310D02*
X9578340D01*
X9465310Y2301240D02*
Y2372360D01*
X9263380D02*
X9376410D01*
X9263380Y2301240D02*
Y2372360D01*
Y2301240D02*
X9376410D01*
Y2372360D01*
D155*
X12735480Y2202180D02*
G03*
X12735480Y2202180I-5000J0D01*
G01*
%TF.MD5,1154492157c6c9c24b03939ed2ade054*%
M02*
