G04*
G04 #@! TF.GenerationSoftware,Altium Limited,Altium Designer,23.11.1 (41)*
G04*
G04 Layer_Physical_Order=2*
G04 Layer_Color=16440176*
%FSLAX44Y44*%
%MOMM*%
G71*
G04*
G04 #@! TF.SameCoordinates,2A2BF33C-356B-47B5-B991-195B9626E357*
G04*
G04*
G04 #@! TF.FilePolarity,Positive*
G04*
G01*
G75*
%ADD216C,0.2384*%
%ADD250C,6.2000*%
%ADD251C,3.5000*%
%ADD252C,2.2000*%
%ADD253C,3.0000*%
%ADD254R,3.0000X3.0000*%
%ADD255R,1.9050X1.9050*%
%ADD256C,1.9050*%
%ADD257C,1.6000*%
%ADD258C,0.6000*%
%ADD259C,1.5240*%
G04:AMPARAMS|DCode=260|XSize=1.524mm|YSize=1.524mm|CornerRadius=0mm|HoleSize=0mm|Usage=FLASHONLY|Rotation=0.000|XOffset=0mm|YOffset=0mm|HoleType=Round|Shape=Octagon|*
%AMOCTAGOND260*
4,1,8,0.7620,-0.3810,0.7620,0.3810,0.3810,0.7620,-0.3810,0.7620,-0.7620,0.3810,-0.7620,-0.3810,-0.3810,-0.7620,0.3810,-0.7620,0.7620,-0.3810,0.0*
%
%ADD260OCTAGOND260*%

%ADD261C,3.8100*%
%ADD262C,0.7620*%
%ADD263C,0.5000*%
%ADD264C,0.3048*%
%ADD265C,0.5080*%
%ADD266C,0.7112*%
%ADD267C,0.5588*%
G36*
X2006600Y25400D02*
X1430098D01*
Y203200D01*
X1427843Y208643D01*
X1389743Y246743D01*
X1381308Y255179D01*
X1375864Y257434D01*
X1214936D01*
X1209492Y255179D01*
X1203311Y248998D01*
X1130300D01*
X1124857Y246743D01*
X1086757Y208643D01*
X1084502Y203200D01*
Y25400D01*
X725317D01*
Y139631D01*
X723062Y145075D01*
X699848Y168289D01*
Y311150D01*
X699848Y311150D01*
X697593Y316593D01*
X672193Y341993D01*
X666750Y344248D01*
X495300D01*
X489857Y341993D01*
X451757Y303893D01*
X449502Y298450D01*
Y190500D01*
X451757Y185057D01*
X487602Y149211D01*
Y25400D01*
X258572D01*
Y27294D01*
X255894Y29972D01*
X252106D01*
X249428Y27294D01*
Y25400D01*
X233172D01*
Y27294D01*
X230494Y29972D01*
X226706D01*
X224028Y27294D01*
Y25400D01*
X207772D01*
Y27294D01*
X205094Y29972D01*
X201306D01*
X198628Y27294D01*
Y25400D01*
X182372D01*
Y27294D01*
X179694Y29972D01*
X175906D01*
X173228Y27294D01*
Y25400D01*
X154383D01*
X154268Y25573D01*
Y31837D01*
X151870Y37626D01*
X147441Y42056D01*
X141652Y44453D01*
X135387D01*
X129600Y42056D01*
X125169Y37626D01*
X122772Y31837D01*
Y25573D01*
X122657Y25400D01*
X70383D01*
X70268Y25573D01*
Y31837D01*
X67870Y37626D01*
X63440Y42056D01*
X57653Y44453D01*
X51388D01*
X45599Y42056D01*
X41170Y37626D01*
X38772Y31837D01*
Y25573D01*
X38657Y25400D01*
X26670D01*
X26542Y122150D01*
X29081Y123203D01*
X29856Y122428D01*
X33644D01*
X36322Y125106D01*
Y128894D01*
X33644Y131572D01*
X29856D01*
X29071Y130787D01*
X26530Y131838D01*
X26148Y420994D01*
X28687Y422048D01*
X29856Y420878D01*
X33644D01*
X36322Y423556D01*
Y427344D01*
X33644Y430022D01*
X29856D01*
X28678Y428844D01*
X26136Y429894D01*
X26115Y446427D01*
X28653Y447481D01*
X29856Y446278D01*
X33644D01*
X36322Y448956D01*
Y452744D01*
X33644Y455422D01*
X29856D01*
X28644Y454210D01*
X26103Y455261D01*
X25400Y988060D01*
X27940Y990600D01*
X2006600D01*
Y25400D01*
D02*
G37*
G36*
X1415227Y199557D02*
Y13578D01*
X1104243D01*
Y203200D01*
X1133453Y232410D01*
X1135993Y229870D01*
X1209653D01*
Y232410D01*
X1218543Y241300D01*
X1373483D01*
X1415227Y199557D01*
D02*
G37*
G36*
X679450Y304800D02*
Y158750D01*
X704850Y133350D01*
Y19050D01*
X508000D01*
Y158750D01*
X501650D01*
X469900Y190500D01*
Y298450D01*
X495300Y323850D01*
X660400D01*
X679450Y304800D01*
D02*
G37*
%LPC*%
G36*
X828986Y973242D02*
X826250D01*
X824316Y971308D01*
Y968572D01*
X826250Y966638D01*
X828986D01*
X830920Y968572D01*
Y971308D01*
X828986Y973242D01*
D02*
G37*
G36*
X719752Y978662D02*
X712808D01*
X707898Y973752D01*
Y966808D01*
X712808Y961898D01*
X719752D01*
X724662Y966808D01*
Y973752D01*
X719752Y978662D01*
D02*
G37*
G36*
X508947Y952246D02*
X507053D01*
X505714Y950907D01*
Y949013D01*
X507053Y947674D01*
X508947D01*
X510286Y949013D01*
Y950907D01*
X508947Y952246D01*
D02*
G37*
G36*
X1378099Y926142D02*
X1376205D01*
X1374866Y924803D01*
Y922909D01*
X1376205Y921570D01*
X1378099D01*
X1379438Y922909D01*
Y924803D01*
X1378099Y926142D01*
D02*
G37*
G36*
X1090592Y938022D02*
X1083648D01*
X1078738Y933112D01*
Y926168D01*
X1083648Y921258D01*
X1090592D01*
X1095502Y926168D01*
Y933112D01*
X1090592Y938022D01*
D02*
G37*
G36*
X1065192D02*
X1058248D01*
X1053338Y933112D01*
Y926168D01*
X1058248Y921258D01*
X1065192D01*
X1070102Y926168D01*
Y933112D01*
X1065192Y938022D01*
D02*
G37*
G36*
X1039792D02*
X1032848D01*
X1027938Y933112D01*
Y926168D01*
X1032848Y921258D01*
X1039792D01*
X1044702Y926168D01*
Y933112D01*
X1039792Y938022D01*
D02*
G37*
G36*
X1347078Y925739D02*
X1345184D01*
X1343845Y924400D01*
Y922506D01*
X1345184Y921167D01*
X1347078D01*
X1348417Y922506D01*
Y924400D01*
X1347078Y925739D01*
D02*
G37*
G36*
X1165537Y912876D02*
X1163643D01*
X1162304Y911537D01*
Y909643D01*
X1163643Y908304D01*
X1165537D01*
X1166876Y909643D01*
Y911537D01*
X1165537Y912876D01*
D02*
G37*
G36*
X1199827Y911606D02*
X1197933D01*
X1196594Y910267D01*
Y908373D01*
X1197933Y907034D01*
X1199827D01*
X1201166Y908373D01*
Y910267D01*
X1199827Y911606D01*
D02*
G37*
G36*
X1355456Y907370D02*
X1353562D01*
X1352223Y906031D01*
Y904137D01*
X1353562Y902798D01*
X1355456D01*
X1356795Y904137D01*
Y906031D01*
X1355456Y907370D01*
D02*
G37*
G36*
X1206093Y897837D02*
X1204200D01*
X1202860Y896498D01*
Y894604D01*
X1204200Y893265D01*
X1206093D01*
X1207432Y894604D01*
Y896498D01*
X1206093Y897837D01*
D02*
G37*
G36*
X1256296Y897636D02*
X1254402D01*
X1253063Y896297D01*
Y894403D01*
X1254402Y893064D01*
X1256296D01*
X1257635Y894403D01*
Y896297D01*
X1256296Y897636D01*
D02*
G37*
G36*
X1365456Y897370D02*
X1363562D01*
X1362223Y896031D01*
Y894137D01*
X1363562Y892798D01*
X1365456D01*
X1366795Y894137D01*
Y896031D01*
X1365456Y897370D01*
D02*
G37*
G36*
X1355456D02*
X1353562D01*
X1352223Y896031D01*
Y894137D01*
X1353562Y892798D01*
X1355456D01*
X1356795Y894137D01*
Y896031D01*
X1355456Y897370D01*
D02*
G37*
G36*
X1306433Y897199D02*
X1304540D01*
X1303201Y895860D01*
Y893967D01*
X1304540Y892627D01*
X1306433D01*
X1307773Y893967D01*
Y895860D01*
X1306433Y897199D01*
D02*
G37*
G36*
X1375859Y896796D02*
X1373966D01*
X1372626Y895457D01*
Y893563D01*
X1373966Y892224D01*
X1375859D01*
X1377198Y893563D01*
Y895457D01*
X1375859Y896796D01*
D02*
G37*
G36*
X1316144Y895551D02*
X1314251D01*
X1312912Y894212D01*
Y892318D01*
X1314251Y890979D01*
X1316144D01*
X1317484Y892318D01*
Y894212D01*
X1316144Y895551D01*
D02*
G37*
G36*
X1255945Y889333D02*
X1254051D01*
X1252712Y887994D01*
Y886101D01*
X1254051Y884762D01*
X1255945D01*
X1257284Y886101D01*
Y887994D01*
X1255945Y889333D01*
D02*
G37*
G36*
X1325557Y887476D02*
X1323663D01*
X1322324Y886137D01*
Y884243D01*
X1323663Y882904D01*
X1325557D01*
X1326896Y884243D01*
Y886137D01*
X1325557Y887476D01*
D02*
G37*
G36*
X1316667D02*
X1314773D01*
X1313434Y886137D01*
Y884243D01*
X1314773Y882904D01*
X1316667D01*
X1318006Y884243D01*
Y886137D01*
X1316667Y887476D01*
D02*
G37*
G36*
X1345456Y887370D02*
X1343562D01*
X1342223Y886031D01*
Y884137D01*
X1343562Y882798D01*
X1345456D01*
X1346795Y884137D01*
Y886031D01*
X1345456Y887370D01*
D02*
G37*
G36*
X1305456D02*
X1303562D01*
X1302223Y886031D01*
Y884137D01*
X1303562Y882798D01*
X1305456D01*
X1306795Y884137D01*
Y886031D01*
X1305456Y887370D01*
D02*
G37*
G36*
X1295456D02*
X1293562D01*
X1292223Y886031D01*
Y884137D01*
X1293562Y882798D01*
X1295456D01*
X1296795Y884137D01*
Y886031D01*
X1295456Y887370D01*
D02*
G37*
G36*
X1246497Y887136D02*
X1244603D01*
X1243264Y885797D01*
Y883903D01*
X1244603Y882564D01*
X1246497D01*
X1247836Y883903D01*
Y885797D01*
X1246497Y887136D01*
D02*
G37*
G36*
X1275796Y886732D02*
X1273902D01*
X1272563Y885393D01*
Y883500D01*
X1273902Y882160D01*
X1275796D01*
X1277135Y883500D01*
Y885393D01*
X1275796Y886732D01*
D02*
G37*
G36*
X1286093Y877837D02*
X1284200D01*
X1282860Y876498D01*
Y874604D01*
X1284200Y873265D01*
X1286093D01*
X1287432Y874604D01*
Y876498D01*
X1286093Y877837D01*
D02*
G37*
G36*
X1266104Y877646D02*
X1264210D01*
X1262871Y876307D01*
Y874413D01*
X1264210Y873074D01*
X1266104D01*
X1267443Y874413D01*
Y876307D01*
X1266104Y877646D01*
D02*
G37*
G36*
X1335392Y877433D02*
X1333499D01*
X1332159Y876094D01*
Y874201D01*
X1333499Y872861D01*
X1335392D01*
X1336731Y874201D01*
Y876094D01*
X1335392Y877433D01*
D02*
G37*
G36*
X1295875Y877385D02*
X1293981D01*
X1292642Y876046D01*
Y874152D01*
X1293981Y872813D01*
X1295875D01*
X1297214Y874152D01*
Y876046D01*
X1295875Y877385D01*
D02*
G37*
G36*
X1365456Y877370D02*
X1363562D01*
X1362223Y876031D01*
Y874137D01*
X1363562Y872798D01*
X1365456D01*
X1366795Y874137D01*
Y876031D01*
X1365456Y877370D01*
D02*
G37*
G36*
X1345456D02*
X1343562D01*
X1342223Y876031D01*
Y874137D01*
X1343562Y872798D01*
X1345456D01*
X1346795Y874137D01*
Y876031D01*
X1345456Y877370D01*
D02*
G37*
G36*
X1305456D02*
X1303562D01*
X1302223Y876031D01*
Y874137D01*
X1303562Y872798D01*
X1305456D01*
X1306795Y874137D01*
Y876031D01*
X1305456Y877370D01*
D02*
G37*
G36*
X1156497Y877136D02*
X1154603D01*
X1153264Y875797D01*
Y873903D01*
X1154603Y872564D01*
X1156497D01*
X1157836Y873903D01*
Y875797D01*
X1156497Y877136D01*
D02*
G37*
G36*
X1355859Y876796D02*
X1353966D01*
X1352626Y875457D01*
Y873563D01*
X1353966Y872224D01*
X1355859D01*
X1357198Y873563D01*
Y875457D01*
X1355859Y876796D01*
D02*
G37*
G36*
X1325859D02*
X1323966D01*
X1322626Y875457D01*
Y873563D01*
X1323966Y872224D01*
X1325859D01*
X1327198Y873563D01*
Y875457D01*
X1325859Y876796D01*
D02*
G37*
G36*
X1375796Y876732D02*
X1373902D01*
X1372563Y875393D01*
Y873500D01*
X1373902Y872160D01*
X1375796D01*
X1377135Y873500D01*
Y875393D01*
X1375796Y876732D01*
D02*
G37*
G36*
X1366030Y867774D02*
X1364136D01*
X1362797Y866434D01*
Y864541D01*
X1364136Y863202D01*
X1366030D01*
X1367369Y864541D01*
Y866434D01*
X1366030Y867774D01*
D02*
G37*
G36*
X1346030D02*
X1344136D01*
X1342797Y866434D01*
Y864541D01*
X1344136Y863202D01*
X1346030D01*
X1347369Y864541D01*
Y866434D01*
X1346030Y867774D01*
D02*
G37*
G36*
X1336030D02*
X1334136D01*
X1332797Y866434D01*
Y864541D01*
X1334136Y863202D01*
X1336030D01*
X1337369Y864541D01*
Y866434D01*
X1336030Y867774D01*
D02*
G37*
G36*
X1316030D02*
X1314136D01*
X1312797Y866434D01*
Y864541D01*
X1314136Y863202D01*
X1316030D01*
X1317369Y864541D01*
Y866434D01*
X1316030Y867774D01*
D02*
G37*
G36*
X1265994Y867485D02*
X1264100D01*
X1262761Y866146D01*
Y864252D01*
X1264100Y862913D01*
X1265994D01*
X1267333Y864252D01*
Y866146D01*
X1265994Y867485D01*
D02*
G37*
G36*
X1165392Y867433D02*
X1163499D01*
X1162159Y866094D01*
Y864201D01*
X1163499Y862861D01*
X1165392D01*
X1166731Y864201D01*
Y866094D01*
X1165392Y867433D01*
D02*
G37*
G36*
X1355783Y867410D02*
X1353889D01*
X1352550Y866071D01*
Y864177D01*
X1353889Y862838D01*
X1355783D01*
X1357122Y864177D01*
Y866071D01*
X1355783Y867410D01*
D02*
G37*
G36*
X1295456Y867370D02*
X1293562D01*
X1292223Y866031D01*
Y864137D01*
X1293562Y862798D01*
X1295456D01*
X1296795Y864137D01*
Y866031D01*
X1295456Y867370D01*
D02*
G37*
G36*
X1226497Y867136D02*
X1224603D01*
X1223264Y865797D01*
Y863903D01*
X1224603Y862564D01*
X1226497D01*
X1227836Y863903D01*
Y865797D01*
X1226497Y867136D01*
D02*
G37*
G36*
X1325859Y866796D02*
X1323966D01*
X1322626Y865457D01*
Y863563D01*
X1323966Y862224D01*
X1325859D01*
X1327198Y863563D01*
Y865457D01*
X1325859Y866796D01*
D02*
G37*
G36*
X1285796Y866732D02*
X1283902D01*
X1282563Y865393D01*
Y863500D01*
X1283902Y862160D01*
X1285796D01*
X1287135Y863500D01*
Y865393D01*
X1285796Y866732D01*
D02*
G37*
G36*
X1185796D02*
X1183902D01*
X1182563Y865393D01*
Y863500D01*
X1183902Y862160D01*
X1185796D01*
X1187135Y863500D01*
Y865393D01*
X1185796Y866732D01*
D02*
G37*
G36*
X1306093Y857837D02*
X1304200D01*
X1302860Y856498D01*
Y854604D01*
X1304200Y853265D01*
X1306093D01*
X1307432Y854604D01*
Y856498D01*
X1306093Y857837D01*
D02*
G37*
G36*
X1356030Y857774D02*
X1354136D01*
X1352797Y856434D01*
Y854541D01*
X1354136Y853202D01*
X1356030D01*
X1357369Y854541D01*
Y856434D01*
X1356030Y857774D01*
D02*
G37*
G36*
X1265994Y857536D02*
X1264100D01*
X1262761Y856197D01*
Y854303D01*
X1264100Y852964D01*
X1265994D01*
X1267333Y854303D01*
Y856197D01*
X1265994Y857536D01*
D02*
G37*
G36*
X1335392Y857433D02*
X1333499D01*
X1332159Y856094D01*
Y854201D01*
X1333499Y852861D01*
X1335392D01*
X1336731Y854201D01*
Y856094D01*
X1335392Y857433D01*
D02*
G37*
G36*
X1365456Y857370D02*
X1363562D01*
X1362223Y856031D01*
Y854137D01*
X1363562Y852798D01*
X1365456D01*
X1366795Y854137D01*
Y856031D01*
X1365456Y857370D01*
D02*
G37*
G36*
X1285456D02*
X1283562D01*
X1282223Y856031D01*
Y854137D01*
X1283562Y852798D01*
X1285456D01*
X1286795Y854137D01*
Y856031D01*
X1285456Y857370D01*
D02*
G37*
G36*
X1275456D02*
X1273562D01*
X1272223Y856031D01*
Y854137D01*
X1273562Y852798D01*
X1275456D01*
X1276795Y854137D01*
Y856031D01*
X1275456Y857370D01*
D02*
G37*
G36*
X1196045Y857156D02*
X1194151D01*
X1192812Y855817D01*
Y853923D01*
X1194151Y852584D01*
X1196045D01*
X1197384Y853923D01*
Y855817D01*
X1196045Y857156D01*
D02*
G37*
G36*
X1315397Y856996D02*
X1313503D01*
X1312164Y855657D01*
Y853763D01*
X1313503Y852424D01*
X1315397D01*
X1316736Y853763D01*
Y855657D01*
X1315397Y856996D01*
D02*
G37*
G36*
X1216233D02*
X1214340D01*
X1213000Y855657D01*
Y853763D01*
X1214340Y852424D01*
X1216233D01*
X1217572Y853763D01*
Y855657D01*
X1216233Y856996D01*
D02*
G37*
G36*
X1345859Y856796D02*
X1343966D01*
X1342626Y855457D01*
Y853563D01*
X1343966Y852224D01*
X1345859D01*
X1347198Y853563D01*
Y855457D01*
X1345859Y856796D01*
D02*
G37*
G36*
X1255796Y856732D02*
X1253902D01*
X1252563Y855393D01*
Y853500D01*
X1253902Y852160D01*
X1255796D01*
X1257135Y853500D01*
Y855393D01*
X1255796Y856732D01*
D02*
G37*
G36*
X733309Y855218D02*
X729731D01*
X727202Y852689D01*
Y849111D01*
X729731Y846582D01*
X733309D01*
X735838Y849111D01*
Y852689D01*
X733309Y855218D01*
D02*
G37*
G36*
X1469488Y851662D02*
X1466752D01*
X1464818Y849728D01*
Y846992D01*
X1466752Y845058D01*
X1469488D01*
X1471422Y846992D01*
Y849728D01*
X1469488Y851662D01*
D02*
G37*
G36*
X1428848D02*
X1426112D01*
X1424178Y849728D01*
Y846992D01*
X1426112Y845058D01*
X1428848D01*
X1430782Y846992D01*
Y849728D01*
X1428848Y851662D01*
D02*
G37*
G36*
X1346030Y847774D02*
X1344136D01*
X1342797Y846434D01*
Y844541D01*
X1344136Y843202D01*
X1346030D01*
X1347369Y844541D01*
Y846434D01*
X1346030Y847774D01*
D02*
G37*
G36*
X1375392Y847433D02*
X1373499D01*
X1372159Y846094D01*
Y844201D01*
X1373499Y842861D01*
X1375392D01*
X1376731Y844201D01*
Y846094D01*
X1375392Y847433D01*
D02*
G37*
G36*
X1225392D02*
X1223499D01*
X1222159Y846094D01*
Y844201D01*
X1223499Y842861D01*
X1225392D01*
X1226731Y844201D01*
Y846094D01*
X1225392Y847433D01*
D02*
G37*
G36*
X1295456Y847370D02*
X1293562D01*
X1292223Y846031D01*
Y844137D01*
X1293562Y842798D01*
X1295456D01*
X1296795Y844137D01*
Y846031D01*
X1295456Y847370D01*
D02*
G37*
G36*
X1366433Y847199D02*
X1364540D01*
X1363201Y845860D01*
Y843967D01*
X1364540Y842627D01*
X1366433D01*
X1367773Y843967D01*
Y845860D01*
X1366433Y847199D01*
D02*
G37*
G36*
X1336433D02*
X1334540D01*
X1333201Y845860D01*
Y843967D01*
X1334540Y842627D01*
X1336433D01*
X1337773Y843967D01*
Y845860D01*
X1336433Y847199D01*
D02*
G37*
G36*
X1196497Y847136D02*
X1194603D01*
X1193264Y845797D01*
Y843903D01*
X1194603Y842564D01*
X1196497D01*
X1197836Y843903D01*
Y845797D01*
X1196497Y847136D01*
D02*
G37*
G36*
X1643478Y849122D02*
X1640742D01*
X1638808Y847188D01*
Y844452D01*
X1640742Y842518D01*
X1643478D01*
X1645412Y844452D01*
Y847188D01*
X1643478Y849122D01*
D02*
G37*
G36*
X1315859Y846796D02*
X1313966D01*
X1312626Y845457D01*
Y843563D01*
X1313966Y842224D01*
X1315859D01*
X1317198Y843563D01*
Y845457D01*
X1315859Y846796D01*
D02*
G37*
G36*
X1305859D02*
X1303966D01*
X1302626Y845457D01*
Y843563D01*
X1303966Y842224D01*
X1305859D01*
X1307198Y843563D01*
Y845457D01*
X1305859Y846796D01*
D02*
G37*
G36*
X1235796Y846732D02*
X1233902D01*
X1232563Y845393D01*
Y843500D01*
X1233902Y842160D01*
X1235796D01*
X1237135Y843500D01*
Y845393D01*
X1235796Y846732D01*
D02*
G37*
G36*
X1366093Y837837D02*
X1364200D01*
X1362860Y836498D01*
Y834604D01*
X1364200Y833265D01*
X1366093D01*
X1367432Y834604D01*
Y836498D01*
X1366093Y837837D01*
D02*
G37*
G36*
X1346093D02*
X1344200D01*
X1342860Y836498D01*
Y834604D01*
X1344200Y833265D01*
X1346093D01*
X1347432Y834604D01*
Y836498D01*
X1346093Y837837D01*
D02*
G37*
G36*
X1336030Y837774D02*
X1334136D01*
X1332797Y836434D01*
Y834541D01*
X1334136Y833202D01*
X1336030D01*
X1337369Y834541D01*
Y836434D01*
X1336030Y837774D01*
D02*
G37*
G36*
X1286497Y837136D02*
X1284603D01*
X1283264Y835797D01*
Y833903D01*
X1284603Y832564D01*
X1286497D01*
X1287836Y833903D01*
Y835797D01*
X1286497Y837136D01*
D02*
G37*
G36*
X1156497D02*
X1154603D01*
X1153264Y835797D01*
Y833903D01*
X1154603Y832564D01*
X1156497D01*
X1157836Y833903D01*
Y835797D01*
X1156497Y837136D01*
D02*
G37*
G36*
X1315859Y836796D02*
X1313966D01*
X1312626Y835457D01*
Y833563D01*
X1313966Y832224D01*
X1315859D01*
X1317198Y833563D01*
Y835457D01*
X1315859Y836796D01*
D02*
G37*
G36*
X1305859D02*
X1303966D01*
X1302626Y835457D01*
Y833563D01*
X1303966Y832224D01*
X1305859D01*
X1307198Y833563D01*
Y835457D01*
X1305859Y836796D01*
D02*
G37*
G36*
X1205796Y836732D02*
X1203902D01*
X1202563Y835393D01*
Y833500D01*
X1203902Y832160D01*
X1205796D01*
X1207135Y833500D01*
Y835393D01*
X1205796Y836732D01*
D02*
G37*
G36*
X332094Y836422D02*
X328306D01*
X325628Y833744D01*
Y829956D01*
X328306Y827278D01*
X332094D01*
X334772Y829956D01*
Y833744D01*
X332094Y836422D01*
D02*
G37*
G36*
X1296352Y828195D02*
X1294458D01*
X1293119Y826856D01*
Y824962D01*
X1294458Y823623D01*
X1296352D01*
X1297691Y824962D01*
Y826856D01*
X1296352Y828195D01*
D02*
G37*
G36*
X1336553Y827786D02*
X1334659D01*
X1333320Y826447D01*
Y824553D01*
X1334659Y823214D01*
X1336553D01*
X1337892Y824553D01*
Y826447D01*
X1336553Y827786D01*
D02*
G37*
G36*
X1346030Y827774D02*
X1344136D01*
X1342797Y826434D01*
Y824541D01*
X1344136Y823202D01*
X1346030D01*
X1347369Y824541D01*
Y826434D01*
X1346030Y827774D01*
D02*
G37*
G36*
X1315456Y827370D02*
X1313562D01*
X1312223Y826031D01*
Y824137D01*
X1313562Y822798D01*
X1315456D01*
X1316795Y824137D01*
Y826031D01*
X1315456Y827370D01*
D02*
G37*
G36*
X1275456D02*
X1273562D01*
X1272223Y826031D01*
Y824137D01*
X1273562Y822798D01*
X1275456D01*
X1276795Y824137D01*
Y826031D01*
X1275456Y827370D01*
D02*
G37*
G36*
X1326433Y827199D02*
X1324540D01*
X1323201Y825860D01*
Y823967D01*
X1324540Y822627D01*
X1326433D01*
X1327773Y823967D01*
Y825860D01*
X1326433Y827199D01*
D02*
G37*
G36*
X1176497Y827136D02*
X1174603D01*
X1173264Y825797D01*
Y823903D01*
X1174603Y822564D01*
X1176497D01*
X1177836Y823903D01*
Y825797D01*
X1176497Y827136D01*
D02*
G37*
G36*
X1305859Y826796D02*
X1303966D01*
X1302626Y825457D01*
Y823563D01*
X1303966Y822224D01*
X1305859D01*
X1307198Y823563D01*
Y825457D01*
X1305859Y826796D01*
D02*
G37*
G36*
X1285859D02*
X1283966D01*
X1282626Y825457D01*
Y823563D01*
X1283966Y822224D01*
X1285859D01*
X1287198Y823563D01*
Y825457D01*
X1285859Y826796D01*
D02*
G37*
G36*
X332094Y823722D02*
X328306D01*
X325628Y821044D01*
Y817256D01*
X328306Y814578D01*
X332094D01*
X334772Y817256D01*
Y821044D01*
X332094Y823722D01*
D02*
G37*
G36*
X680375Y822753D02*
X676587D01*
X673909Y820075D01*
Y816287D01*
X676587Y813609D01*
X680375D01*
X683053Y816287D01*
Y820075D01*
X680375Y822753D01*
D02*
G37*
G36*
X1346093Y817837D02*
X1344200D01*
X1342860Y816498D01*
Y814604D01*
X1344200Y813265D01*
X1346093D01*
X1347432Y814604D01*
Y816498D01*
X1346093Y817837D01*
D02*
G37*
G36*
X1246093D02*
X1244200D01*
X1242860Y816498D01*
Y814604D01*
X1244200Y813265D01*
X1246093D01*
X1247432Y814604D01*
Y816498D01*
X1246093Y817837D01*
D02*
G37*
G36*
X1226093D02*
X1224200D01*
X1222860Y816498D01*
Y814604D01*
X1224200Y813265D01*
X1226093D01*
X1227432Y814604D01*
Y816498D01*
X1226093Y817837D01*
D02*
G37*
G36*
X1286030Y817774D02*
X1284136D01*
X1282797Y816434D01*
Y814541D01*
X1284136Y813202D01*
X1286030D01*
X1287369Y814541D01*
Y816434D01*
X1286030Y817774D01*
D02*
G37*
G36*
X1276030D02*
X1274136D01*
X1272797Y816434D01*
Y814541D01*
X1274136Y813202D01*
X1276030D01*
X1277369Y814541D01*
Y816434D01*
X1276030Y817774D01*
D02*
G37*
G36*
X1255392Y817433D02*
X1253499D01*
X1252159Y816094D01*
Y814201D01*
X1253499Y812861D01*
X1255392D01*
X1256731Y814201D01*
Y816094D01*
X1255392Y817433D01*
D02*
G37*
G36*
X1336433Y817199D02*
X1334540D01*
X1333201Y815860D01*
Y813967D01*
X1334540Y812627D01*
X1336433D01*
X1337773Y813967D01*
Y815860D01*
X1336433Y817199D01*
D02*
G37*
G36*
X1305796Y816732D02*
X1303902D01*
X1302563Y815393D01*
Y813500D01*
X1303902Y812160D01*
X1305796D01*
X1307135Y813500D01*
Y815393D01*
X1305796Y816732D01*
D02*
G37*
G36*
X1185796Y816732D02*
X1183902D01*
X1182563Y815393D01*
Y813499D01*
X1183902Y812160D01*
X1185796D01*
X1187135Y813499D01*
Y815393D01*
X1185796Y816732D01*
D02*
G37*
G36*
X285148Y814876D02*
X281360D01*
X278682Y812198D01*
Y808410D01*
X281360Y805732D01*
X285148D01*
X287826Y808410D01*
Y812198D01*
X285148Y814876D01*
D02*
G37*
G36*
X692365Y813753D02*
X688577D01*
X685899Y811075D01*
Y807287D01*
X688577Y804609D01*
X692365D01*
X695043Y807287D01*
Y811075D01*
X692365Y813753D01*
D02*
G37*
G36*
X1336093Y807837D02*
X1334200D01*
X1332860Y806498D01*
Y804604D01*
X1334200Y803265D01*
X1336093D01*
X1337432Y804604D01*
Y806498D01*
X1336093Y807837D01*
D02*
G37*
G36*
X1156093D02*
X1154200D01*
X1152860Y806498D01*
Y804604D01*
X1154200Y803265D01*
X1156093D01*
X1157432Y804604D01*
Y806498D01*
X1156093Y807837D01*
D02*
G37*
G36*
X1515208Y809752D02*
X1512472D01*
X1510538Y807818D01*
Y805082D01*
X1512472Y803148D01*
X1515208D01*
X1517142Y805082D01*
Y807818D01*
X1515208Y809752D01*
D02*
G37*
G36*
X1375392Y807433D02*
X1373499D01*
X1372159Y806094D01*
Y804201D01*
X1373499Y802861D01*
X1375392D01*
X1376731Y804201D01*
Y806094D01*
X1375392Y807433D01*
D02*
G37*
G36*
X1315456Y807370D02*
X1313562D01*
X1312223Y806031D01*
Y804137D01*
X1313562Y802798D01*
X1315456D01*
X1316795Y804137D01*
Y806031D01*
X1315456Y807370D01*
D02*
G37*
G36*
X1305456D02*
X1303562D01*
X1302223Y806031D01*
Y804137D01*
X1303562Y802798D01*
X1305456D01*
X1306795Y804137D01*
Y806031D01*
X1305456Y807370D01*
D02*
G37*
G36*
X1295796Y806732D02*
X1293902D01*
X1292563Y805393D01*
Y803500D01*
X1293902Y802160D01*
X1295796D01*
X1297135Y803500D01*
Y805393D01*
X1295796Y806732D01*
D02*
G37*
G36*
X332094Y811022D02*
X328306D01*
X325628Y808344D01*
Y804556D01*
X328306Y801878D01*
X332094D01*
X334772Y804556D01*
Y808344D01*
X332094Y811022D01*
D02*
G37*
G36*
X677534Y804672D02*
X673746D01*
X671068Y801994D01*
Y798206D01*
X673746Y795528D01*
X677534D01*
X680212Y798206D01*
Y801994D01*
X677534Y804672D01*
D02*
G37*
G36*
X1306030Y797774D02*
X1304136D01*
X1302797Y796434D01*
Y794541D01*
X1304136Y793202D01*
X1306030D01*
X1307369Y794541D01*
Y796434D01*
X1306030Y797774D01*
D02*
G37*
G36*
X1325456Y797370D02*
X1323562D01*
X1322223Y796031D01*
Y794137D01*
X1323562Y792798D01*
X1325456D01*
X1326795Y794137D01*
Y796031D01*
X1325456Y797370D01*
D02*
G37*
G36*
X1296497Y797136D02*
X1294603D01*
X1293264Y795797D01*
Y793903D01*
X1294603Y792564D01*
X1296497D01*
X1297836Y793903D01*
Y795797D01*
X1296497Y797136D01*
D02*
G37*
G36*
X1265796Y796732D02*
X1263902D01*
X1262563Y795393D01*
Y793500D01*
X1263902Y792160D01*
X1265796D01*
X1267135Y793500D01*
Y795393D01*
X1265796Y796732D01*
D02*
G37*
G36*
X1245796D02*
X1243902D01*
X1242563Y795393D01*
Y793500D01*
X1243902Y792160D01*
X1245796D01*
X1247135Y793500D01*
Y795393D01*
X1245796Y796732D01*
D02*
G37*
G36*
X1225796D02*
X1223902D01*
X1222563Y795393D01*
Y793500D01*
X1223902Y792160D01*
X1225796D01*
X1227135Y793500D01*
Y795393D01*
X1225796Y796732D01*
D02*
G37*
G36*
X1790054Y797052D02*
X1786266D01*
X1783588Y794374D01*
Y790586D01*
X1786266Y787908D01*
X1790054D01*
X1792732Y790586D01*
Y794374D01*
X1790054Y797052D01*
D02*
G37*
G36*
X1463138Y793242D02*
X1460402D01*
X1458468Y791308D01*
Y788572D01*
X1460402Y786638D01*
X1463138D01*
X1465072Y788572D01*
Y791308D01*
X1463138Y793242D01*
D02*
G37*
G36*
X1820534Y794512D02*
X1816746D01*
X1814068Y791834D01*
Y788046D01*
X1816746Y785368D01*
X1820534D01*
X1823212Y788046D01*
Y791834D01*
X1820534Y794512D01*
D02*
G37*
G36*
X538578Y790702D02*
X535842D01*
X533908Y788768D01*
Y786032D01*
X535842Y784098D01*
X538578D01*
X540512Y786032D01*
Y788768D01*
X538578Y790702D01*
D02*
G37*
G36*
X1185857Y788416D02*
X1183963D01*
X1182624Y787077D01*
Y785183D01*
X1183963Y783844D01*
X1185857D01*
X1187196Y785183D01*
Y787077D01*
X1185857Y788416D01*
D02*
G37*
G36*
X1366093Y787837D02*
X1364200D01*
X1362860Y786498D01*
Y784604D01*
X1364200Y783265D01*
X1366093D01*
X1367432Y784604D01*
Y786498D01*
X1366093Y787837D01*
D02*
G37*
G36*
X1296093D02*
X1294200D01*
X1292860Y786498D01*
Y784604D01*
X1294200Y783265D01*
X1296093D01*
X1297432Y784604D01*
Y786498D01*
X1296093Y787837D01*
D02*
G37*
G36*
X1176093D02*
X1174200D01*
X1172860Y786498D01*
Y784604D01*
X1174200Y783265D01*
X1176093D01*
X1177432Y784604D01*
Y786498D01*
X1176093Y787837D01*
D02*
G37*
G36*
X509894Y791972D02*
X506106D01*
X503428Y789294D01*
Y785506D01*
X506106Y782828D01*
X509894D01*
X512572Y785506D01*
Y789294D01*
X509894Y791972D01*
D02*
G37*
G36*
X1245710Y787215D02*
X1243816D01*
X1242477Y785876D01*
Y783982D01*
X1243816Y782643D01*
X1245710D01*
X1247049Y783982D01*
Y785876D01*
X1245710Y787215D01*
D02*
G37*
G36*
X1346433Y787199D02*
X1344540D01*
X1343201Y785860D01*
Y783967D01*
X1344540Y782627D01*
X1346433D01*
X1347773Y783967D01*
Y785860D01*
X1346433Y787199D01*
D02*
G37*
G36*
X1266497Y787136D02*
X1264603D01*
X1263264Y785797D01*
Y783903D01*
X1264603Y782564D01*
X1266497D01*
X1267836Y783903D01*
Y785797D01*
X1266497Y787136D01*
D02*
G37*
G36*
X1305859Y786796D02*
X1303966D01*
X1302626Y785457D01*
Y783563D01*
X1303966Y782224D01*
X1305859D01*
X1307198Y783563D01*
Y785457D01*
X1305859Y786796D01*
D02*
G37*
G36*
X1235796Y786732D02*
X1233902D01*
X1232563Y785393D01*
Y783499D01*
X1233902Y782160D01*
X1235796D01*
X1237135Y783499D01*
Y785393D01*
X1235796Y786732D01*
D02*
G37*
G36*
X847714Y786892D02*
X843926D01*
X841248Y784214D01*
Y780426D01*
X843926Y777748D01*
X847714D01*
X850392Y780426D01*
Y784214D01*
X847714Y786892D01*
D02*
G37*
G36*
X913228Y783082D02*
X910492D01*
X908558Y781148D01*
Y778412D01*
X910492Y776478D01*
X913228D01*
X915162Y778412D01*
Y781148D01*
X913228Y783082D01*
D02*
G37*
G36*
X994087Y780796D02*
X992193D01*
X990854Y779457D01*
Y777563D01*
X992193Y776224D01*
X994087D01*
X995426Y777563D01*
Y779457D01*
X994087Y780796D01*
D02*
G37*
G36*
X1306093Y777837D02*
X1304200D01*
X1302860Y776498D01*
Y774604D01*
X1304200Y773265D01*
X1306093D01*
X1307432Y774604D01*
Y776498D01*
X1306093Y777837D01*
D02*
G37*
G36*
X692669Y781558D02*
X689091D01*
X686562Y779029D01*
Y775451D01*
X689091Y772922D01*
X692669D01*
X695198Y775451D01*
Y779029D01*
X692669Y781558D01*
D02*
G37*
G36*
X1255392Y777433D02*
X1253499D01*
X1252159Y776094D01*
Y774201D01*
X1253499Y772861D01*
X1255392D01*
X1256731Y774201D01*
Y776094D01*
X1255392Y777433D01*
D02*
G37*
G36*
X1335456Y777370D02*
X1333562D01*
X1332223Y776031D01*
Y774137D01*
X1333562Y772798D01*
X1335456D01*
X1336795Y774137D01*
Y776031D01*
X1335456Y777370D01*
D02*
G37*
G36*
X1504688Y787802D02*
X1501952D01*
X1500018Y785868D01*
Y783132D01*
X1501338Y781812D01*
X1501066Y779476D01*
X1500875Y779104D01*
X1499108Y777338D01*
Y774602D01*
X1501042Y772668D01*
X1503778D01*
X1505712Y774602D01*
Y777338D01*
X1504392Y778658D01*
X1504664Y780994D01*
X1504855Y781366D01*
X1506622Y783132D01*
Y785868D01*
X1504688Y787802D01*
D02*
G37*
G36*
X1316497Y777136D02*
X1314603D01*
X1313264Y775797D01*
Y773903D01*
X1314603Y772564D01*
X1316497D01*
X1317836Y773903D01*
Y775797D01*
X1316497Y777136D01*
D02*
G37*
G36*
X1265796Y776732D02*
X1263902D01*
X1262563Y775393D01*
Y773500D01*
X1263902Y772160D01*
X1265796D01*
X1267135Y773500D01*
Y775393D01*
X1265796Y776732D01*
D02*
G37*
G36*
X1032697Y776226D02*
X1030803D01*
X1029464Y774887D01*
Y772993D01*
X1030803Y771654D01*
X1032697D01*
X1034036Y772993D01*
Y774887D01*
X1032697Y776226D01*
D02*
G37*
G36*
X1080447Y775591D02*
X1078553D01*
X1077214Y774252D01*
Y772358D01*
X1078553Y771019D01*
X1080447D01*
X1081786Y772358D01*
Y774252D01*
X1080447Y775591D01*
D02*
G37*
G36*
X481428Y775462D02*
X478692D01*
X476758Y773528D01*
Y770792D01*
X478692Y768858D01*
X481428D01*
X483362Y770792D01*
Y773528D01*
X481428Y775462D01*
D02*
G37*
G36*
X334108D02*
X331372D01*
X329438Y773528D01*
Y770792D01*
X331372Y768858D01*
X334108D01*
X336042Y770792D01*
Y773528D01*
X334108Y775462D01*
D02*
G37*
G36*
X839073Y777753D02*
X835285D01*
X832607Y775075D01*
Y771287D01*
X835285Y768609D01*
X839073D01*
X841751Y771287D01*
Y775075D01*
X839073Y777753D01*
D02*
G37*
G36*
X1126167Y771906D02*
X1124273D01*
X1122934Y770567D01*
Y768673D01*
X1124273Y767334D01*
X1126167D01*
X1127506Y768673D01*
Y770567D01*
X1126167Y771906D01*
D02*
G37*
G36*
X1366030Y767774D02*
X1364136D01*
X1362797Y766434D01*
Y764541D01*
X1364136Y763202D01*
X1366030D01*
X1367369Y764541D01*
Y766434D01*
X1366030Y767774D01*
D02*
G37*
G36*
X1325392Y767433D02*
X1323499D01*
X1322159Y766094D01*
Y764201D01*
X1323499Y762861D01*
X1325392D01*
X1326731Y764201D01*
Y766094D01*
X1325392Y767433D01*
D02*
G37*
G36*
X1285392D02*
X1283499D01*
X1282159Y766094D01*
Y764201D01*
X1283499Y762861D01*
X1285392D01*
X1286731Y764201D01*
Y766094D01*
X1285392Y767433D01*
D02*
G37*
G36*
X1155945Y767285D02*
X1154051D01*
X1152712Y765946D01*
Y764052D01*
X1154051Y762713D01*
X1155945D01*
X1157284Y764052D01*
Y765946D01*
X1155945Y767285D01*
D02*
G37*
G36*
X1145945Y767285D02*
X1144051D01*
X1142712Y765946D01*
Y764052D01*
X1144051Y762713D01*
X1145945D01*
X1147284Y764052D01*
Y765946D01*
X1145945Y767285D01*
D02*
G37*
G36*
X1246497Y767136D02*
X1244603D01*
X1243264Y765797D01*
Y763903D01*
X1244603Y762564D01*
X1246497D01*
X1247836Y763903D01*
Y765797D01*
X1246497Y767136D01*
D02*
G37*
G36*
X1764654Y771652D02*
X1760866D01*
X1758188Y768974D01*
Y765186D01*
X1760866Y762508D01*
X1764654D01*
X1767332Y765186D01*
Y768974D01*
X1764654Y771652D01*
D02*
G37*
G36*
X1133787Y766828D02*
X1131893D01*
X1130554Y765489D01*
Y763595D01*
X1131893Y762256D01*
X1133787D01*
X1135126Y763595D01*
Y765489D01*
X1133787Y766828D01*
D02*
G37*
G36*
X1206177Y766826D02*
X1204283D01*
X1202944Y765487D01*
Y763593D01*
X1204283Y762254D01*
X1206177D01*
X1207516Y763593D01*
Y765487D01*
X1206177Y766826D01*
D02*
G37*
G36*
X1305859Y766796D02*
X1303966D01*
X1302626Y765457D01*
Y763563D01*
X1303966Y762224D01*
X1305859D01*
X1307198Y763563D01*
Y765457D01*
X1305859Y766796D01*
D02*
G37*
G36*
X1275796Y766732D02*
X1273902D01*
X1272563Y765393D01*
Y763500D01*
X1273902Y762160D01*
X1275796D01*
X1277135Y763500D01*
Y765393D01*
X1275796Y766732D01*
D02*
G37*
G36*
X847714Y769112D02*
X843926D01*
X841248Y766434D01*
Y762646D01*
X843926Y759968D01*
X847714D01*
X850392Y762646D01*
Y766434D01*
X847714Y769112D01*
D02*
G37*
G36*
X472538Y766572D02*
X469802D01*
X467868Y764638D01*
Y761902D01*
X469802Y759968D01*
X472538D01*
X474472Y761902D01*
Y764638D01*
X472538Y766572D01*
D02*
G37*
G36*
X695673Y768753D02*
X691885D01*
X689207Y766075D01*
Y762287D01*
X691885Y759609D01*
X695673D01*
X698351Y762287D01*
Y766075D01*
X695673Y768753D01*
D02*
G37*
G36*
X482698Y760222D02*
X479962D01*
X478028Y758288D01*
Y755552D01*
X479962Y753618D01*
X482698D01*
X484632Y755552D01*
Y758288D01*
X482698Y760222D01*
D02*
G37*
G36*
X1185293Y757936D02*
X1183399D01*
X1182060Y756597D01*
Y754703D01*
X1183399Y753364D01*
X1185293D01*
X1186632Y754703D01*
Y756597D01*
X1185293Y757936D01*
D02*
G37*
G36*
X1356093Y757837D02*
X1354200D01*
X1352860Y756498D01*
Y754604D01*
X1354200Y753265D01*
X1356093D01*
X1357432Y754604D01*
Y756498D01*
X1356093Y757837D01*
D02*
G37*
G36*
X1306093D02*
X1304200D01*
X1302860Y756498D01*
Y754604D01*
X1304200Y753265D01*
X1306093D01*
X1307432Y754604D01*
Y756498D01*
X1306093Y757837D01*
D02*
G37*
G36*
X1155537Y757456D02*
X1153643D01*
X1152304Y756117D01*
Y754223D01*
X1153643Y752884D01*
X1155537D01*
X1156876Y754223D01*
Y756117D01*
X1155537Y757456D01*
D02*
G37*
G36*
X1235392Y757433D02*
X1233499D01*
X1232159Y756094D01*
Y754201D01*
X1233499Y752861D01*
X1235392D01*
X1236731Y754201D01*
Y756094D01*
X1235392Y757433D01*
D02*
G37*
G36*
X1335456Y757370D02*
X1333562D01*
X1332223Y756031D01*
Y754137D01*
X1333562Y752798D01*
X1335456D01*
X1336795Y754137D01*
Y756031D01*
X1335456Y757370D01*
D02*
G37*
G36*
X1325456D02*
X1323562D01*
X1322223Y756031D01*
Y754137D01*
X1323562Y752798D01*
X1325456D01*
X1326795Y754137D01*
Y756031D01*
X1325456Y757370D01*
D02*
G37*
G36*
X1346433Y757199D02*
X1344540D01*
X1343201Y755860D01*
Y753967D01*
X1344540Y752627D01*
X1346433D01*
X1347773Y753967D01*
Y755860D01*
X1346433Y757199D01*
D02*
G37*
G36*
X1256497Y757136D02*
X1254603D01*
X1253264Y755797D01*
Y753903D01*
X1254603Y752564D01*
X1256497D01*
X1257836Y753903D01*
Y755797D01*
X1256497Y757136D01*
D02*
G37*
G36*
X1375796Y756732D02*
X1373902D01*
X1372563Y755393D01*
Y753500D01*
X1373902Y752160D01*
X1375796D01*
X1377135Y753500D01*
Y755393D01*
X1375796Y756732D01*
D02*
G37*
G36*
X1265796D02*
X1263902D01*
X1262563Y755393D01*
Y753500D01*
X1263902Y752160D01*
X1265796D01*
X1267135Y753500D01*
Y755393D01*
X1265796Y756732D01*
D02*
G37*
G36*
X1225796D02*
X1223902D01*
X1222563Y755393D01*
Y753500D01*
X1223902Y752160D01*
X1225796D01*
X1227135Y753500D01*
Y755393D01*
X1225796Y756732D01*
D02*
G37*
G36*
X982657Y756666D02*
X980763D01*
X979424Y755327D01*
Y753433D01*
X980763Y752094D01*
X982657D01*
X983996Y753433D01*
Y755327D01*
X982657Y756666D01*
D02*
G37*
G36*
X971227D02*
X969333D01*
X967994Y755327D01*
Y753433D01*
X969333Y752094D01*
X971227D01*
X972566Y753433D01*
Y755327D01*
X971227Y756666D01*
D02*
G37*
G36*
X959797D02*
X957903D01*
X956564Y755327D01*
Y753433D01*
X957903Y752094D01*
X959797D01*
X961136Y753433D01*
Y755327D01*
X959797Y756666D01*
D02*
G37*
G36*
X948367D02*
X946473D01*
X945134Y755327D01*
Y753433D01*
X946473Y752094D01*
X948367D01*
X949706Y753433D01*
Y755327D01*
X948367Y756666D01*
D02*
G37*
G36*
X936937D02*
X935043D01*
X933704Y755327D01*
Y753433D01*
X935043Y752094D01*
X936937D01*
X938276Y753433D01*
Y755327D01*
X936937Y756666D01*
D02*
G37*
G36*
X538578Y756412D02*
X535842D01*
X533908Y754478D01*
Y751742D01*
X535842Y749808D01*
X538578D01*
X540512Y751742D01*
Y754478D01*
X538578Y756412D01*
D02*
G37*
G36*
X925507Y754126D02*
X923613D01*
X922274Y752787D01*
Y750893D01*
X923613Y749554D01*
X925507D01*
X926846Y750893D01*
Y752787D01*
X925507Y754126D01*
D02*
G37*
G36*
X994087Y752976D02*
X992193D01*
X990854Y751637D01*
Y749743D01*
X992193Y748404D01*
X994087D01*
X995426Y749743D01*
Y751637D01*
X994087Y752976D01*
D02*
G37*
G36*
X901377Y752856D02*
X899483D01*
X898144Y751517D01*
Y749623D01*
X899483Y748284D01*
X901377D01*
X902716Y749623D01*
Y751517D01*
X901377Y752856D01*
D02*
G37*
G36*
X1767194Y756412D02*
X1763406D01*
X1760728Y753734D01*
Y749946D01*
X1763406Y747268D01*
X1767194D01*
X1769872Y749946D01*
Y753734D01*
X1767194Y756412D01*
D02*
G37*
G36*
X919157Y750316D02*
X917263D01*
X915924Y748977D01*
Y747083D01*
X917263Y745744D01*
X919157D01*
X920496Y747083D01*
Y748977D01*
X919157Y750316D01*
D02*
G37*
G36*
X1236093Y747837D02*
X1234200D01*
X1232860Y746498D01*
Y744604D01*
X1234200Y743265D01*
X1236093D01*
X1237432Y744604D01*
Y746498D01*
X1236093Y747837D01*
D02*
G37*
G36*
X1131247Y747776D02*
X1129353D01*
X1128014Y746437D01*
Y744543D01*
X1129353Y743204D01*
X1131247D01*
X1132586Y744543D01*
Y746437D01*
X1131247Y747776D01*
D02*
G37*
G36*
X1155945Y747285D02*
X1154051D01*
X1152712Y745946D01*
Y744052D01*
X1154051Y742713D01*
X1155945D01*
X1157284Y744052D01*
Y745946D01*
X1155945Y747285D01*
D02*
G37*
G36*
X1266497Y747136D02*
X1264603D01*
X1263264Y745797D01*
Y743903D01*
X1264603Y742564D01*
X1266497D01*
X1267836Y743903D01*
Y745797D01*
X1266497Y747136D01*
D02*
G37*
G36*
X1196352Y747113D02*
X1194459D01*
X1193120Y745774D01*
Y743880D01*
X1194459Y742541D01*
X1196352D01*
X1197691Y743880D01*
Y745774D01*
X1196352Y747113D01*
D02*
G37*
G36*
X1275796Y746732D02*
X1273902D01*
X1272563Y745393D01*
Y743500D01*
X1273902Y742160D01*
X1275796D01*
X1277135Y743500D01*
Y745393D01*
X1275796Y746732D01*
D02*
G37*
G36*
X1185857Y746506D02*
X1183963D01*
X1182624Y745167D01*
Y743273D01*
X1183963Y741934D01*
X1185857D01*
X1187196Y743273D01*
Y745167D01*
X1185857Y746506D01*
D02*
G37*
G36*
X1007422Y743331D02*
X1005528D01*
X1004189Y741992D01*
Y740098D01*
X1005528Y738759D01*
X1007422D01*
X1008761Y740098D01*
Y741992D01*
X1007422Y743331D01*
D02*
G37*
G36*
X458568Y744982D02*
X455832D01*
X453898Y743048D01*
Y740312D01*
X455832Y738378D01*
X458568D01*
X460502Y740312D01*
Y743048D01*
X458568Y744982D01*
D02*
G37*
G36*
X1124897Y741759D02*
X1123003D01*
X1121664Y740420D01*
Y738527D01*
X1123003Y737187D01*
X1124897D01*
X1126236Y738527D01*
Y740420D01*
X1124897Y741759D01*
D02*
G37*
G36*
X440788Y743712D02*
X438052D01*
X436118Y741778D01*
Y739042D01*
X438052Y737108D01*
X440788D01*
X442722Y739042D01*
Y741778D01*
X440788Y743712D01*
D02*
G37*
G36*
X420468D02*
X417732D01*
X415798Y741778D01*
Y739042D01*
X417732Y737108D01*
X420468D01*
X422402Y739042D01*
Y741778D01*
X420468Y743712D01*
D02*
G37*
G36*
X982022Y739775D02*
X980128D01*
X978789Y738436D01*
Y736542D01*
X980128Y735203D01*
X982022D01*
X983361Y736542D01*
Y738436D01*
X982022Y739775D01*
D02*
G37*
G36*
X864547Y738886D02*
X862653D01*
X861314Y737547D01*
Y735653D01*
X862653Y734314D01*
X864547D01*
X865886Y735653D01*
Y737547D01*
X864547Y738886D01*
D02*
G37*
G36*
X404807D02*
X402913D01*
X401574Y737547D01*
Y735653D01*
X402913Y734314D01*
X404807D01*
X406146Y735653D01*
Y737547D01*
X404807Y738886D01*
D02*
G37*
G36*
X1346093Y737837D02*
X1344200D01*
X1342860Y736498D01*
Y734604D01*
X1344200Y733265D01*
X1346093D01*
X1347432Y734604D01*
Y736498D01*
X1346093Y737837D01*
D02*
G37*
G36*
X1316093D02*
X1314200D01*
X1312860Y736498D01*
Y734604D01*
X1314200Y733265D01*
X1316093D01*
X1317432Y734604D01*
Y736498D01*
X1316093Y737837D01*
D02*
G37*
G36*
X1186116Y737692D02*
X1184222D01*
X1182883Y736353D01*
Y734460D01*
X1184222Y733120D01*
X1186116D01*
X1187455Y734460D01*
Y736353D01*
X1186116Y737692D01*
D02*
G37*
G36*
X1176116D02*
X1174222D01*
X1172883Y736353D01*
Y734460D01*
X1174222Y733120D01*
X1176116D01*
X1177455Y734460D01*
Y736353D01*
X1176116Y737692D01*
D02*
G37*
G36*
X1216337Y737616D02*
X1214443D01*
X1213104Y736277D01*
Y734383D01*
X1214443Y733044D01*
X1216337D01*
X1217676Y734383D01*
Y736277D01*
X1216337Y737616D01*
D02*
G37*
G36*
X1366497Y737136D02*
X1364603D01*
X1363264Y735797D01*
Y733903D01*
X1364603Y732564D01*
X1366497D01*
X1367836Y733903D01*
Y735797D01*
X1366497Y737136D01*
D02*
G37*
G36*
X1296497D02*
X1294603D01*
X1293264Y735797D01*
Y733903D01*
X1294603Y732564D01*
X1296497D01*
X1297836Y733903D01*
Y735797D01*
X1296497Y737136D01*
D02*
G37*
G36*
X1276497D02*
X1274603D01*
X1273264Y735797D01*
Y733903D01*
X1274603Y732564D01*
X1276497D01*
X1277836Y733903D01*
Y735797D01*
X1276497Y737136D01*
D02*
G37*
G36*
X1195773Y736877D02*
X1193879D01*
X1192540Y735538D01*
Y733644D01*
X1193879Y732305D01*
X1195773D01*
X1197112Y733644D01*
Y735538D01*
X1195773Y736877D01*
D02*
G37*
G36*
X1891654Y741172D02*
X1887866D01*
X1885188Y738494D01*
Y734706D01*
X1887866Y732028D01*
X1891654D01*
X1894332Y734706D01*
Y738494D01*
X1891654Y741172D01*
D02*
G37*
G36*
X1081717Y732536D02*
X1079823D01*
X1078484Y731197D01*
Y729303D01*
X1079823Y727964D01*
X1081717D01*
X1083056Y729303D01*
Y731197D01*
X1081717Y732536D01*
D02*
G37*
G36*
X457298Y732282D02*
X454562D01*
X452628Y730348D01*
Y727612D01*
X454562Y725678D01*
X457298D01*
X459232Y727612D01*
Y730348D01*
X457298Y732282D01*
D02*
G37*
G36*
X738389Y733298D02*
X734811D01*
X732282Y730769D01*
Y727191D01*
X734811Y724662D01*
X738389D01*
X740918Y727191D01*
Y730769D01*
X738389Y733298D01*
D02*
G37*
G36*
X956209Y728726D02*
X954315D01*
X952976Y727387D01*
Y725493D01*
X954315Y724154D01*
X956209D01*
X957548Y725493D01*
Y727387D01*
X956209Y728726D01*
D02*
G37*
G36*
X1165029Y728218D02*
X1163135D01*
X1161796Y726879D01*
Y724985D01*
X1163135Y723646D01*
X1165029D01*
X1166368Y724985D01*
Y726879D01*
X1165029Y728218D01*
D02*
G37*
G36*
X1155113Y727902D02*
X1153219D01*
X1151880Y726563D01*
Y724669D01*
X1153219Y723330D01*
X1155113D01*
X1156452Y724669D01*
Y726563D01*
X1155113Y727902D01*
D02*
G37*
G36*
X1375392Y727433D02*
X1373499D01*
X1372159Y726094D01*
Y724201D01*
X1373499Y722861D01*
X1375392D01*
X1376731Y724201D01*
Y726094D01*
X1375392Y727433D01*
D02*
G37*
G36*
X1255392D02*
X1253499D01*
X1252159Y726094D01*
Y724201D01*
X1253499Y722861D01*
X1255392D01*
X1256731Y724201D01*
Y726094D01*
X1255392Y727433D01*
D02*
G37*
G36*
X1175443Y727396D02*
X1173549D01*
X1172210Y726057D01*
Y724163D01*
X1173549Y722824D01*
X1175443D01*
X1176782Y724163D01*
Y726057D01*
X1175443Y727396D01*
D02*
G37*
G36*
X1215547Y727329D02*
X1213653D01*
X1212314Y725990D01*
Y724096D01*
X1213653Y722757D01*
X1215547D01*
X1216886Y724096D01*
Y725990D01*
X1215547Y727329D01*
D02*
G37*
G36*
X931222Y726821D02*
X929328D01*
X927989Y725482D01*
Y723588D01*
X929328Y722249D01*
X931222D01*
X932561Y723588D01*
Y725482D01*
X931222Y726821D01*
D02*
G37*
G36*
X855022D02*
X853128D01*
X851789Y725482D01*
Y723588D01*
X853128Y722249D01*
X855022D01*
X856361Y723588D01*
Y725482D01*
X855022Y726821D01*
D02*
G37*
G36*
X1185857Y726589D02*
X1183963D01*
X1182624Y725249D01*
Y723356D01*
X1183963Y722017D01*
X1185857D01*
X1187196Y723356D01*
Y725249D01*
X1185857Y726589D01*
D02*
G37*
G36*
X1086683Y726300D02*
X1084789D01*
X1083450Y724961D01*
Y723067D01*
X1084789Y721728D01*
X1086683D01*
X1088022Y723067D01*
Y724961D01*
X1086683Y726300D01*
D02*
G37*
G36*
X756169Y728218D02*
X752591D01*
X750062Y725689D01*
Y722111D01*
X752591Y719582D01*
X756169D01*
X758698Y722111D01*
Y725689D01*
X756169Y728218D01*
D02*
G37*
G36*
X1911974Y725932D02*
X1908186D01*
X1905508Y723254D01*
Y719466D01*
X1908186Y716788D01*
X1911974D01*
X1914652Y719466D01*
Y723254D01*
X1911974Y725932D01*
D02*
G37*
G36*
X1896734D02*
X1892946D01*
X1890268Y723254D01*
Y719466D01*
X1892946Y716788D01*
X1896734D01*
X1899412Y719466D01*
Y723254D01*
X1896734Y725932D01*
D02*
G37*
G36*
X901377Y718566D02*
X899483D01*
X898144Y717227D01*
Y715333D01*
X899483Y713994D01*
X901377D01*
X902716Y715333D01*
Y717227D01*
X901377Y718566D01*
D02*
G37*
G36*
X1185493Y718168D02*
X1183599D01*
X1182260Y716829D01*
Y714935D01*
X1183599Y713596D01*
X1185493D01*
X1186832Y714935D01*
Y716829D01*
X1185493Y718168D01*
D02*
G37*
G36*
X1326093Y717837D02*
X1324200D01*
X1322860Y716498D01*
Y714604D01*
X1324200Y713265D01*
X1326093D01*
X1327432Y714604D01*
Y716498D01*
X1326093Y717837D01*
D02*
G37*
G36*
X1306093D02*
X1304200D01*
X1302860Y716498D01*
Y714604D01*
X1304200Y713265D01*
X1306093D01*
X1307432Y714604D01*
Y716498D01*
X1306093Y717837D01*
D02*
G37*
G36*
X1256093D02*
X1254200D01*
X1252860Y716498D01*
Y714604D01*
X1254200Y713265D01*
X1256093D01*
X1257432Y714604D01*
Y716498D01*
X1256093Y717837D01*
D02*
G37*
G36*
X1196525Y717804D02*
X1194631D01*
X1193292Y716465D01*
Y714571D01*
X1194631Y713232D01*
X1196525D01*
X1197864Y714571D01*
Y716465D01*
X1196525Y717804D01*
D02*
G37*
G36*
X539848Y719582D02*
X537112D01*
X535178Y717648D01*
Y714912D01*
X537112Y712978D01*
X539848D01*
X541782Y714912D01*
Y717648D01*
X539848Y719582D01*
D02*
G37*
G36*
X1155631Y717296D02*
X1153737D01*
X1152398Y715957D01*
Y714063D01*
X1153737Y712724D01*
X1155631D01*
X1156970Y714063D01*
Y715957D01*
X1155631Y717296D01*
D02*
G37*
G36*
X1275773Y717042D02*
X1273879D01*
X1272540Y715703D01*
Y713809D01*
X1273879Y712470D01*
X1275773D01*
X1277112Y713809D01*
Y715703D01*
X1275773Y717042D01*
D02*
G37*
G36*
X984015Y716700D02*
X982121D01*
X980782Y715361D01*
Y713467D01*
X982121Y712128D01*
X984015D01*
X985354Y713467D01*
Y715361D01*
X984015Y716700D01*
D02*
G37*
G36*
X1051237Y716534D02*
X1049343D01*
X1048004Y715195D01*
Y713301D01*
X1049343Y711962D01*
X1051237D01*
X1052576Y713301D01*
Y715195D01*
X1051237Y716534D01*
D02*
G37*
G36*
X914077D02*
X912183D01*
X910844Y715195D01*
Y713301D01*
X912183Y711962D01*
X914077D01*
X915416Y713301D01*
Y715195D01*
X914077Y716534D01*
D02*
G37*
G36*
X1035489Y716280D02*
X1033595D01*
X1032256Y714941D01*
Y713047D01*
X1033595Y711708D01*
X1035489D01*
X1036828Y713047D01*
Y714941D01*
X1035489Y716280D01*
D02*
G37*
G36*
X1166487Y716218D02*
X1164593D01*
X1163254Y714879D01*
Y712985D01*
X1164593Y711646D01*
X1166487D01*
X1167826Y712985D01*
Y714879D01*
X1166487Y716218D01*
D02*
G37*
G36*
X404807Y716026D02*
X402913D01*
X401574Y714687D01*
Y712793D01*
X402913Y711454D01*
X404807D01*
X406146Y712793D01*
Y714687D01*
X404807Y716026D01*
D02*
G37*
G36*
X1061651Y715264D02*
X1059757D01*
X1058418Y713925D01*
Y712031D01*
X1059757Y710692D01*
X1061651D01*
X1062990Y712031D01*
Y713925D01*
X1061651Y715264D01*
D02*
G37*
G36*
X743048Y717042D02*
X740312D01*
X738378Y715108D01*
Y712372D01*
X740312Y710438D01*
X743048D01*
X744982Y712372D01*
Y715108D01*
X743048Y717042D01*
D02*
G37*
G36*
X456028Y715772D02*
X453292D01*
X451358Y713838D01*
Y711102D01*
X453292Y709168D01*
X456028D01*
X457962Y711102D01*
Y713838D01*
X456028Y715772D01*
D02*
G37*
G36*
X1086035Y712281D02*
X1084141D01*
X1082802Y710942D01*
Y709048D01*
X1084141Y707709D01*
X1086035D01*
X1087374Y709048D01*
Y710942D01*
X1086035Y712281D01*
D02*
G37*
G36*
X929317Y712216D02*
X927423D01*
X926084Y710877D01*
Y708983D01*
X927423Y707644D01*
X929317D01*
X930656Y708983D01*
Y710877D01*
X929317Y712216D01*
D02*
G37*
G36*
X1044148Y706282D02*
X1042254D01*
X1041297Y705324D01*
X1041031Y705059D01*
X1040148Y704958D01*
X1038395Y704992D01*
X1038131Y705256D01*
X1037267Y706120D01*
X1035373D01*
X1034034Y704781D01*
Y702887D01*
X1035373Y701548D01*
X1037267D01*
X1038224Y702505D01*
X1038490Y702771D01*
X1039372Y702872D01*
X1041126Y702838D01*
X1041390Y702574D01*
X1042254Y701710D01*
X1044148D01*
X1045487Y703049D01*
Y704943D01*
X1044148Y706282D01*
D02*
G37*
G36*
X1336093Y707837D02*
X1334200D01*
X1332860Y706498D01*
Y704604D01*
X1334200Y703265D01*
X1336093D01*
X1337432Y704604D01*
Y706498D01*
X1336093Y707837D01*
D02*
G37*
G36*
X1204713Y707827D02*
X1202819D01*
X1201480Y706488D01*
Y704594D01*
X1202819Y703255D01*
X1204713D01*
X1206052Y704594D01*
Y706488D01*
X1204713Y707827D01*
D02*
G37*
G36*
X1177011D02*
X1175118D01*
X1173779Y706488D01*
Y704594D01*
X1175118Y703255D01*
X1177011D01*
X1178351Y704594D01*
Y706488D01*
X1177011Y707827D01*
D02*
G37*
G36*
X1188143Y707898D02*
X1186249D01*
X1184910Y706559D01*
Y704665D01*
X1186249Y703326D01*
X1187877D01*
X1188143Y703326D01*
X1190034Y704249D01*
X1190652Y704325D01*
X1191749Y704007D01*
X1192684Y703072D01*
X1194578D01*
X1195917Y704411D01*
Y706305D01*
X1194578Y707644D01*
X1192950D01*
X1192684Y707644D01*
X1190793Y706721D01*
X1190175Y706645D01*
X1189078Y706963D01*
X1188143Y707898D01*
D02*
G37*
G36*
X1355392Y707433D02*
X1353499D01*
X1352159Y706094D01*
Y704201D01*
X1353499Y702861D01*
X1355392D01*
X1356731Y704201D01*
Y706094D01*
X1355392Y707433D01*
D02*
G37*
G36*
X1165551Y707376D02*
X1163657D01*
X1162318Y706037D01*
Y704143D01*
X1163657Y702804D01*
X1165551D01*
X1166890Y704143D01*
Y706037D01*
X1165551Y707376D01*
D02*
G37*
G36*
X1155945Y707285D02*
X1154051D01*
X1152712Y705946D01*
Y704052D01*
X1154051Y702713D01*
X1155945D01*
X1157284Y704052D01*
Y705946D01*
X1155945Y707285D01*
D02*
G37*
G36*
X1145945Y707285D02*
X1144051D01*
X1142712Y705946D01*
Y704052D01*
X1144051Y702713D01*
X1145945D01*
X1147284Y704052D01*
Y705946D01*
X1145945Y707285D01*
D02*
G37*
G36*
X1226497Y707136D02*
X1224603D01*
X1223264Y705797D01*
Y703903D01*
X1224603Y702564D01*
X1226497D01*
X1227836Y703903D01*
Y705797D01*
X1226497Y707136D01*
D02*
G37*
G36*
X1296855Y706882D02*
X1294961D01*
X1293622Y705543D01*
Y703649D01*
X1294961Y702310D01*
X1296855D01*
X1298194Y703649D01*
Y705543D01*
X1296855Y706882D01*
D02*
G37*
G36*
X1728908Y711285D02*
X1725120D01*
X1722442Y708607D01*
Y704819D01*
X1725120Y702141D01*
X1728908D01*
X1731586Y704819D01*
Y708607D01*
X1728908Y711285D01*
D02*
G37*
G36*
X964340Y706502D02*
X962446D01*
X961107Y705163D01*
Y703269D01*
X962446Y701930D01*
X964340D01*
X965679Y703269D01*
Y705163D01*
X964340Y706502D01*
D02*
G37*
G36*
X948077Y706343D02*
X946183D01*
X944844Y705004D01*
Y703110D01*
X946183Y701771D01*
X948077D01*
X949416Y703110D01*
Y705004D01*
X948077Y706343D01*
D02*
G37*
G36*
X1012945Y706284D02*
X1011051D01*
X1009712Y704945D01*
Y703052D01*
X1011051Y701712D01*
X1012945D01*
X1014284Y703052D01*
Y704945D01*
X1012945Y706284D01*
D02*
G37*
G36*
X1713854Y710692D02*
X1710066D01*
X1707388Y708014D01*
Y704226D01*
X1710066Y701548D01*
X1713854D01*
X1716532Y704226D01*
Y708014D01*
X1713854Y710692D01*
D02*
G37*
G36*
X1698614D02*
X1694826D01*
X1692148Y708014D01*
Y704226D01*
X1694826Y701548D01*
X1698614D01*
X1701292Y704226D01*
Y708014D01*
X1698614Y710692D01*
D02*
G37*
G36*
X1052507Y705358D02*
X1050613D01*
X1049274Y704019D01*
Y702125D01*
X1050613Y700786D01*
X1052507D01*
X1053846Y702125D01*
Y704019D01*
X1052507Y705358D01*
D02*
G37*
G36*
X920427Y704596D02*
X918533D01*
X917194Y703257D01*
Y701363D01*
X918533Y700024D01*
X920427D01*
X921766Y701363D01*
Y703257D01*
X920427Y704596D01*
D02*
G37*
G36*
X864547D02*
X862653D01*
X861314Y703257D01*
Y701363D01*
X862653Y700024D01*
X864547D01*
X865886Y701363D01*
Y703257D01*
X864547Y704596D01*
D02*
G37*
G36*
X1100732Y709204D02*
X1098838D01*
X1097499Y707865D01*
Y705972D01*
X1098838Y704632D01*
X1100599Y704632D01*
X1101105Y704273D01*
X1102561Y702870D01*
X1102561Y702508D01*
Y701345D01*
X1103901Y700006D01*
X1105794D01*
X1107133Y701345D01*
Y703239D01*
X1105794Y704578D01*
X1104034Y704578D01*
X1103527Y704938D01*
X1102071Y706341D01*
X1102071Y706702D01*
Y707865D01*
X1100732Y709204D01*
D02*
G37*
G36*
X1894194Y708152D02*
X1890406D01*
X1887728Y705474D01*
Y701686D01*
X1890406Y699008D01*
X1894194D01*
X1896872Y701686D01*
Y705474D01*
X1894194Y708152D01*
D02*
G37*
G36*
X855022Y702691D02*
X853128D01*
X851789Y701352D01*
Y699458D01*
X853128Y698119D01*
X855022D01*
X856361Y699458D01*
Y701352D01*
X855022Y702691D01*
D02*
G37*
G36*
X979618Y698659D02*
X977725D01*
X976545Y697529D01*
Y697529D01*
X976545Y697529D01*
Y697529D01*
X975810Y697336D01*
X973875Y697392D01*
X972982Y698285D01*
X971089D01*
X969750Y696946D01*
Y695052D01*
X971089Y693713D01*
X972982D01*
X974162Y694843D01*
Y694843D01*
X974162Y694843D01*
Y694843D01*
X974897Y695035D01*
X976832Y694980D01*
X977725Y694087D01*
X979618D01*
X980957Y695426D01*
Y697320D01*
X979618Y698659D01*
D02*
G37*
G36*
X722679Y703072D02*
X719943D01*
X718009Y701138D01*
Y698402D01*
X719943Y696468D01*
X722679D01*
X724613Y698402D01*
Y701138D01*
X722679Y703072D01*
D02*
G37*
G36*
X1124638Y700532D02*
X1122744D01*
X1121405Y699193D01*
Y697299D01*
X1122744Y695960D01*
X1124638D01*
X1125977Y697299D01*
Y699193D01*
X1124638Y700532D01*
D02*
G37*
G36*
X1020755Y705714D02*
X1018861D01*
X1017522Y704375D01*
Y702482D01*
X1017523Y702481D01*
X1018448Y700324D01*
X1018448D01*
Y700324D01*
D01*
X1018485Y700139D01*
X1018037Y698944D01*
X1017270Y698177D01*
Y696283D01*
X1018609Y694944D01*
X1020503D01*
X1021842Y696283D01*
Y698177D01*
X1021842Y698177D01*
X1020916Y700334D01*
X1020879Y700520D01*
X1021327Y701715D01*
X1022094Y702482D01*
Y704375D01*
X1020755Y705714D01*
D02*
G37*
G36*
X964438Y698791D02*
X962545D01*
X961205Y697452D01*
Y695558D01*
X962545Y694219D01*
X964438D01*
X965777Y695558D01*
Y697452D01*
X964438Y698791D01*
D02*
G37*
G36*
X956945D02*
X955051D01*
X953712Y697452D01*
Y695558D01*
X955051Y694219D01*
X956945D01*
X958284Y695558D01*
Y697452D01*
X956945Y698791D01*
D02*
G37*
G36*
X948945D02*
X947051D01*
X945712Y697452D01*
Y695558D01*
X947051Y694219D01*
X948945D01*
X950284Y695558D01*
Y697452D01*
X948945Y698791D01*
D02*
G37*
G36*
X1469488Y700532D02*
X1466752D01*
X1464818Y698598D01*
Y695862D01*
X1466752Y693928D01*
X1469488D01*
X1471422Y695862D01*
Y698598D01*
X1469488Y700532D01*
D02*
G37*
G36*
X1175402Y698352D02*
X1173509D01*
X1172169Y697012D01*
Y695119D01*
X1173509Y693780D01*
X1175402D01*
X1176741Y695119D01*
Y697012D01*
X1175402Y698352D01*
D02*
G37*
G36*
X1005773Y698257D02*
X1003879D01*
X1002540Y696918D01*
Y695024D01*
X1003879Y693685D01*
X1005773D01*
X1007112Y695024D01*
Y696918D01*
X1005773Y698257D01*
D02*
G37*
G36*
X988337Y698218D02*
X986443D01*
X985104Y696879D01*
Y694986D01*
X986443Y693646D01*
X988337D01*
X989676Y694986D01*
Y696879D01*
X988337Y698218D01*
D02*
G37*
G36*
X1326093Y697837D02*
X1324200D01*
X1322860Y696498D01*
Y694604D01*
X1324200Y693265D01*
X1326093D01*
X1327432Y694604D01*
Y696498D01*
X1326093Y697837D01*
D02*
G37*
G36*
X1167569Y697484D02*
X1165675D01*
X1164336Y696145D01*
Y694251D01*
X1165675Y692912D01*
X1167569D01*
X1168908Y694251D01*
Y696145D01*
X1167569Y697484D01*
D02*
G37*
G36*
X1266065Y697306D02*
X1264172D01*
X1262832Y695967D01*
Y694073D01*
X1264172Y692734D01*
X1266065D01*
X1267404Y694073D01*
Y695967D01*
X1266065Y697306D01*
D02*
G37*
G36*
X1428848Y699262D02*
X1426112D01*
X1424178Y697328D01*
Y694592D01*
X1426112Y692658D01*
X1428848D01*
X1430782Y694592D01*
Y697328D01*
X1428848Y699262D01*
D02*
G37*
G36*
X1346497Y697136D02*
X1344603D01*
X1343264Y695797D01*
Y693903D01*
X1344603Y692564D01*
X1346497D01*
X1347836Y693903D01*
Y695797D01*
X1346497Y697136D01*
D02*
G37*
G36*
X1316497D02*
X1314603D01*
X1313264Y695797D01*
Y693903D01*
X1314603Y692564D01*
X1316497D01*
X1317836Y693903D01*
Y695797D01*
X1316497Y697136D01*
D02*
G37*
G36*
X1306497D02*
X1304603D01*
X1303264Y695797D01*
Y693903D01*
X1304603Y692564D01*
X1306497D01*
X1307836Y693903D01*
Y695797D01*
X1306497Y697136D01*
D02*
G37*
G36*
X1276535Y696849D02*
X1274641D01*
X1273302Y695510D01*
Y693616D01*
X1274641Y692277D01*
X1276535D01*
X1277874Y693616D01*
Y695510D01*
X1276535Y696849D01*
D02*
G37*
G36*
X1185095Y696722D02*
X1183201D01*
X1181862Y695383D01*
Y693489D01*
X1183201Y692150D01*
X1185095D01*
X1186434Y693489D01*
Y695383D01*
X1185095Y696722D01*
D02*
G37*
G36*
X890206D02*
X888312D01*
X886973Y695383D01*
Y693489D01*
X888312Y692150D01*
X890206D01*
X891545Y693489D01*
Y695383D01*
X890206Y696722D01*
D02*
G37*
G36*
X949320Y690660D02*
X947426D01*
X946087Y689321D01*
Y687427D01*
X947426Y686088D01*
X949320D01*
X950659Y687427D01*
Y689321D01*
X949320Y690660D01*
D02*
G37*
G36*
X997391Y690590D02*
X995497D01*
X994158Y689251D01*
Y687357D01*
X995497Y686018D01*
X997391D01*
X998730Y687357D01*
Y689251D01*
X997391Y690590D01*
D02*
G37*
G36*
X988337Y690285D02*
X986443D01*
X985104Y688946D01*
Y687052D01*
X986443Y685713D01*
X988337D01*
X989676Y687052D01*
Y688946D01*
X988337Y690285D01*
D02*
G37*
G36*
X972945Y690285D02*
X971051D01*
X969712Y688946D01*
Y687052D01*
X971051Y685713D01*
X972945D01*
X973932Y686700D01*
X973974Y686742D01*
X975335Y686917D01*
X976695Y686742D01*
X976737Y686700D01*
X977725Y685713D01*
X979618D01*
X980957Y687052D01*
Y688946D01*
X979618Y690285D01*
X977725D01*
X976737Y689297D01*
X976695Y689256D01*
X975335Y689081D01*
X973974Y689256D01*
X973932Y689297D01*
X973932Y689297D01*
X972945Y690285D01*
D02*
G37*
G36*
X1165402Y688280D02*
X1163509D01*
X1162169Y686941D01*
Y685047D01*
X1163509Y683708D01*
X1165402D01*
X1166741Y685047D01*
Y686941D01*
X1165402Y688280D01*
D02*
G37*
G36*
X1386093Y687837D02*
X1384200D01*
X1382860Y686498D01*
Y684604D01*
X1384200Y683265D01*
X1386093D01*
X1387432Y684604D01*
Y686498D01*
X1386093Y687837D01*
D02*
G37*
G36*
X1336093D02*
X1334200D01*
X1332860Y686498D01*
Y684604D01*
X1334200Y683265D01*
X1336093D01*
X1337432Y684604D01*
Y686498D01*
X1336093Y687837D01*
D02*
G37*
G36*
X1326093D02*
X1324200D01*
X1322860Y686498D01*
Y684604D01*
X1324200Y683265D01*
X1326093D01*
X1327432Y684604D01*
Y686498D01*
X1326093Y687837D01*
D02*
G37*
G36*
X1316093D02*
X1314200D01*
X1312860Y686498D01*
Y684604D01*
X1314200Y683265D01*
X1316093D01*
X1317432Y684604D01*
Y686498D01*
X1316093Y687837D01*
D02*
G37*
G36*
X1225735Y687832D02*
X1223841D01*
X1222502Y686493D01*
Y684599D01*
X1223841Y683260D01*
X1225735D01*
X1227074Y684599D01*
Y686493D01*
X1225735Y687832D01*
D02*
G37*
G36*
X1345392Y687433D02*
X1343499D01*
X1342159Y686094D01*
Y684201D01*
X1343499Y682861D01*
X1345392D01*
X1346731Y684201D01*
Y686094D01*
X1345392Y687433D01*
D02*
G37*
G36*
X1255392D02*
X1253499D01*
X1252159Y686094D01*
Y684201D01*
X1253499Y682861D01*
X1255392D01*
X1256731Y684201D01*
Y686094D01*
X1255392Y687433D01*
D02*
G37*
G36*
X1186051Y687324D02*
X1184157D01*
X1182818Y685985D01*
Y684091D01*
X1184157Y682752D01*
X1186051D01*
X1187390Y684091D01*
Y685985D01*
X1186051Y687324D01*
D02*
G37*
G36*
X1175443Y686874D02*
X1173549D01*
X1172210Y685535D01*
Y683641D01*
X1173549Y682302D01*
X1175443D01*
X1176782Y683641D01*
Y685535D01*
X1175443Y686874D01*
D02*
G37*
G36*
X1145476Y686816D02*
X1143582D01*
X1142243Y685477D01*
Y683583D01*
X1143582Y682244D01*
X1145476D01*
X1146815Y683583D01*
Y685477D01*
X1145476Y686816D01*
D02*
G37*
G36*
X1135476D02*
X1133582D01*
X1132243Y685477D01*
Y683583D01*
X1133582Y682244D01*
X1135476D01*
X1136815Y683583D01*
Y685477D01*
X1135476Y686816D01*
D02*
G37*
G36*
X1154878Y686742D02*
X1152984D01*
X1151645Y685403D01*
Y683510D01*
X1152984Y682170D01*
X1154878D01*
X1156217Y683510D01*
Y685403D01*
X1154878Y686742D01*
D02*
G37*
G36*
X1274995Y686739D02*
X1273101D01*
X1271762Y685400D01*
Y683506D01*
X1273101Y682167D01*
X1274995D01*
X1276334Y683506D01*
Y685400D01*
X1274995Y686739D01*
D02*
G37*
G36*
X1305796Y686732D02*
X1303902D01*
X1302563Y685393D01*
Y683500D01*
X1303902Y682160D01*
X1305796D01*
X1307135Y683500D01*
Y685393D01*
X1305796Y686732D01*
D02*
G37*
G36*
X1295796D02*
X1293902D01*
X1292563Y685393D01*
Y683500D01*
X1293902Y682160D01*
X1295796D01*
X1297135Y683500D01*
Y685393D01*
X1295796Y686732D01*
D02*
G37*
G36*
X964945Y690153D02*
X963051D01*
X961712Y688814D01*
Y687819D01*
X961394Y686699D01*
X959741Y685546D01*
X959173D01*
X957834Y684207D01*
Y682313D01*
X959173Y680974D01*
X961067D01*
X962406Y682313D01*
Y683308D01*
X962724Y684429D01*
X964377Y685581D01*
X964945D01*
X966284Y686920D01*
Y688814D01*
X964945Y690153D01*
D02*
G37*
G36*
X1104069Y688280D02*
X1102175D01*
X1101119Y687224D01*
X1100836Y686941D01*
X1099347Y685106D01*
X1098365Y685040D01*
X1098318Y684993D01*
X1097026Y683701D01*
Y681807D01*
X1098365Y680468D01*
X1100259D01*
X1101315Y681524D01*
X1101598Y681807D01*
X1103087Y683642D01*
X1104069Y683708D01*
X1104116Y683755D01*
X1105408Y685047D01*
Y686941D01*
X1104069Y688280D01*
D02*
G37*
G36*
X902647Y691134D02*
X900753D01*
X899414Y689795D01*
Y687901D01*
X900325Y686990D01*
X900574Y686742D01*
X900670Y685419D01*
X900574Y684096D01*
X900325Y683848D01*
X899414Y682937D01*
Y681043D01*
X900753Y679704D01*
X902647D01*
X903986Y681043D01*
Y682937D01*
X903075Y683848D01*
X902827Y684096D01*
X902730Y685419D01*
X902827Y686742D01*
X903075Y686990D01*
X903986Y687901D01*
Y689795D01*
X902647Y691134D01*
D02*
G37*
G36*
X698598Y684022D02*
X695862D01*
X693928Y682088D01*
Y679352D01*
X695862Y677418D01*
X698598D01*
X700532Y679352D01*
Y682088D01*
X698598Y684022D01*
D02*
G37*
G36*
X1009330Y680152D02*
X1007436D01*
X1006097Y678813D01*
Y676919D01*
X1007436Y675580D01*
X1009330D01*
X1010669Y676919D01*
Y678813D01*
X1009330Y680152D01*
D02*
G37*
G36*
X1018994Y686621D02*
X1017100D01*
X1015761Y685282D01*
Y683388D01*
X1016756Y682393D01*
X1016813Y682335D01*
X1016813D01*
X1017055Y682094D01*
X1017121Y681817D01*
X1017275Y680143D01*
D01*
X1017333Y679509D01*
X1016267Y678443D01*
Y676549D01*
X1017606Y675210D01*
X1019500D01*
X1020839Y676549D01*
X1020839Y676737D01*
X1021761Y677005D01*
Y677005D01*
X1023379Y677474D01*
X1023580Y677273D01*
X1024197Y676656D01*
X1026091D01*
X1027430Y677995D01*
Y678238D01*
X1029397Y679864D01*
X1029970Y679864D01*
X1031134Y679864D01*
X1031724Y679427D01*
X1033078Y678064D01*
X1033078Y677718D01*
Y676531D01*
X1034417Y675192D01*
X1036311D01*
X1037650Y676531D01*
Y678425D01*
X1036311Y679764D01*
X1034574Y679764D01*
X1033984Y680201D01*
X1032629Y681563D01*
X1032629Y681909D01*
Y683096D01*
X1031290Y684436D01*
X1029397D01*
X1028057Y683096D01*
Y682854D01*
X1026091Y681228D01*
X1025517Y681228D01*
X1024197D01*
X1022858Y679889D01*
X1020525Y680328D01*
X1020391Y680639D01*
X1020325Y683381D01*
X1020333Y683388D01*
Y685282D01*
X1018994Y686621D01*
D02*
G37*
G36*
X1812914Y682752D02*
X1809126D01*
X1806448Y680074D01*
Y676286D01*
X1809126Y673608D01*
X1812914D01*
X1815592Y676286D01*
Y680074D01*
X1812914Y682752D01*
D02*
G37*
G36*
X1245547Y677926D02*
X1243653D01*
X1242314Y676587D01*
Y674693D01*
X1243653Y673354D01*
X1245547D01*
X1246886Y674693D01*
Y676587D01*
X1245547Y677926D01*
D02*
G37*
G36*
X1356093Y677837D02*
X1354200D01*
X1352860Y676498D01*
Y674604D01*
X1354200Y673265D01*
X1356093D01*
X1357432Y674604D01*
Y676498D01*
X1356093Y677837D01*
D02*
G37*
G36*
X1346093D02*
X1344200D01*
X1342860Y676498D01*
Y674604D01*
X1344200Y673265D01*
X1346093D01*
X1347432Y674604D01*
Y676498D01*
X1346093Y677837D01*
D02*
G37*
G36*
X1326093D02*
X1324200D01*
X1322860Y676498D01*
Y674604D01*
X1324200Y673265D01*
X1326093D01*
X1327432Y674604D01*
Y676498D01*
X1326093Y677837D01*
D02*
G37*
G36*
X1316093D02*
X1314200D01*
X1312860Y676498D01*
Y674604D01*
X1314200Y673265D01*
X1316093D01*
X1317432Y674604D01*
Y676498D01*
X1316093Y677837D01*
D02*
G37*
G36*
X1295392Y677433D02*
X1293499D01*
X1292159Y676094D01*
Y674201D01*
X1293499Y672861D01*
X1295392D01*
X1296731Y674201D01*
Y676094D01*
X1295392Y677433D01*
D02*
G37*
G36*
X1255392D02*
X1253499D01*
X1252159Y676094D01*
Y674201D01*
X1253499Y672861D01*
X1255392D01*
X1256731Y674201D01*
Y676094D01*
X1255392Y677433D01*
D02*
G37*
G36*
X1265867Y677164D02*
X1263973D01*
X1262634Y675825D01*
Y673931D01*
X1263973Y672592D01*
X1265867D01*
X1267206Y673931D01*
Y675825D01*
X1265867Y677164D01*
D02*
G37*
G36*
X1306497Y677136D02*
X1304603D01*
X1303264Y675797D01*
Y673903D01*
X1304603Y672564D01*
X1306497D01*
X1307836Y673903D01*
Y675797D01*
X1306497Y677136D01*
D02*
G37*
G36*
X1174581Y676811D02*
X1172688D01*
X1171348Y675471D01*
Y673578D01*
X1172688Y672238D01*
X1174581D01*
X1175920Y673578D01*
Y675471D01*
X1174581Y676811D01*
D02*
G37*
G36*
X1285796Y676732D02*
X1283902D01*
X1282563Y675393D01*
Y673500D01*
X1283902Y672160D01*
X1285796D01*
X1287135Y673500D01*
Y675393D01*
X1285796Y676732D01*
D02*
G37*
G36*
X1275796D02*
X1273902D01*
X1272563Y675393D01*
Y673500D01*
X1273902Y672160D01*
X1275796D01*
X1277135Y673500D01*
Y675393D01*
X1275796Y676732D01*
D02*
G37*
G36*
X1842991Y694002D02*
X1840289D01*
X1838378Y692091D01*
Y689389D01*
X1839395Y688372D01*
X1840026Y686840D01*
X1839395Y685308D01*
X1838378Y684291D01*
Y681589D01*
X1839395Y680572D01*
X1840026Y679040D01*
X1839395Y677508D01*
X1838378Y676491D01*
Y673789D01*
X1840289Y671878D01*
X1842991D01*
X1844902Y673789D01*
Y676491D01*
X1843885Y677508D01*
X1843254Y679040D01*
X1843885Y680572D01*
X1844902Y681589D01*
Y684291D01*
X1843885Y685308D01*
X1843254Y686840D01*
X1843885Y688372D01*
X1844902Y689389D01*
Y692091D01*
X1842991Y694002D01*
D02*
G37*
G36*
X1825791D02*
X1823089D01*
X1821178Y692091D01*
Y689389D01*
X1822195Y688372D01*
X1822826Y686840D01*
X1822195Y685308D01*
X1821178Y684291D01*
Y681589D01*
X1822195Y680572D01*
X1822826Y679040D01*
X1822195Y677508D01*
X1821178Y676491D01*
Y673789D01*
X1823089Y671878D01*
X1825791D01*
X1827702Y673789D01*
Y676491D01*
X1826685Y677508D01*
X1826054Y679040D01*
X1826685Y680572D01*
X1827702Y681589D01*
Y684291D01*
X1826685Y685308D01*
X1826054Y686840D01*
X1826685Y688372D01*
X1827702Y689389D01*
Y692091D01*
X1825791Y694002D01*
D02*
G37*
G36*
X1661258Y677672D02*
X1658522D01*
X1656588Y675738D01*
Y673002D01*
X1658522Y671068D01*
X1661258D01*
X1663192Y673002D01*
Y675738D01*
X1661258Y677672D01*
D02*
G37*
G36*
X1165537Y675386D02*
X1163643D01*
X1162304Y674047D01*
Y672153D01*
X1163643Y670814D01*
X1165537D01*
X1166876Y672153D01*
Y674047D01*
X1165537Y675386D01*
D02*
G37*
G36*
X983571Y671763D02*
X981677D01*
X980338Y670424D01*
X980338Y669300D01*
X980338Y669128D01*
X980117Y669036D01*
X980000Y669036D01*
X979589Y669036D01*
X978223D01*
X976884Y667697D01*
Y665803D01*
X978223Y664464D01*
X980117D01*
X981456Y665803D01*
X981456Y666927D01*
X981456Y667099D01*
X981677Y667191D01*
X981794Y667191D01*
X982205Y667191D01*
X983571D01*
X984426Y668046D01*
X984672Y668292D01*
X986470Y668324D01*
X987318Y668212D01*
X987539Y667991D01*
X988532Y666997D01*
X990426D01*
X991765Y668336D01*
Y670230D01*
X990426Y671569D01*
X988532D01*
X987677Y670714D01*
X987431Y670469D01*
X985633Y670437D01*
X984785Y670549D01*
X984540Y670794D01*
X984540Y670794D01*
X983571Y671763D01*
D02*
G37*
G36*
X1008565Y670627D02*
X1006671D01*
X1005332Y669288D01*
Y667394D01*
X1006671Y666055D01*
X1008565D01*
X1009904Y667394D01*
Y669288D01*
X1008565Y670627D01*
D02*
G37*
G36*
X865817Y670306D02*
X863923D01*
X862584Y668967D01*
Y667073D01*
X863923Y665734D01*
X865817D01*
X867156Y667073D01*
Y668967D01*
X865817Y670306D01*
D02*
G37*
G36*
X1376093Y667837D02*
X1374200D01*
X1372860Y666498D01*
Y664604D01*
X1374200Y663265D01*
X1376093D01*
X1377432Y664604D01*
Y666498D01*
X1376093Y667837D01*
D02*
G37*
G36*
X1336093D02*
X1334200D01*
X1332860Y666498D01*
Y664604D01*
X1334200Y663265D01*
X1336093D01*
X1337432Y664604D01*
Y666498D01*
X1336093Y667837D01*
D02*
G37*
G36*
X1306093D02*
X1304200D01*
X1302860Y666498D01*
Y664604D01*
X1304200Y663265D01*
X1306093D01*
X1307432Y664604D01*
Y666498D01*
X1306093Y667837D01*
D02*
G37*
G36*
X1216093D02*
X1214200D01*
X1212860Y666498D01*
Y664604D01*
X1214200Y663265D01*
X1216093D01*
X1217432Y664604D01*
Y666498D01*
X1216093Y667837D01*
D02*
G37*
G36*
X1246817Y667766D02*
X1244923D01*
X1243584Y666427D01*
Y664533D01*
X1244923Y663194D01*
X1246817D01*
X1248156Y664533D01*
Y666427D01*
X1246817Y667766D01*
D02*
G37*
G36*
X1296497Y667136D02*
X1294603D01*
X1293264Y665797D01*
Y663903D01*
X1294603Y662564D01*
X1296497D01*
X1297836Y663903D01*
Y665797D01*
X1296497Y667136D01*
D02*
G37*
G36*
X1286497D02*
X1284603D01*
X1283264Y665797D01*
Y663903D01*
X1284603Y662564D01*
X1286497D01*
X1287836Y663903D01*
Y665797D01*
X1286497Y667136D01*
D02*
G37*
G36*
X108574Y671678D02*
X104786D01*
X102108Y669000D01*
Y665212D01*
X104786Y662534D01*
X108574D01*
X111252Y665212D01*
Y669000D01*
X108574Y671678D01*
D02*
G37*
G36*
X957257Y666496D02*
X955363D01*
X954024Y665157D01*
Y663263D01*
X955363Y661924D01*
X957257D01*
X958596Y663263D01*
Y665157D01*
X957257Y666496D01*
D02*
G37*
G36*
X949637D02*
X947743D01*
X946404Y665157D01*
Y663263D01*
X947743Y661924D01*
X949637D01*
X950976Y663263D01*
Y665157D01*
X949637Y666496D01*
D02*
G37*
G36*
X1157138Y665971D02*
X1155244D01*
X1153905Y664632D01*
Y662738D01*
X1155244Y661399D01*
X1157138D01*
X1158477Y662738D01*
Y664632D01*
X1157138Y665971D01*
D02*
G37*
G36*
X1899274Y670052D02*
X1895486D01*
X1892808Y667374D01*
Y663586D01*
X1895486Y660908D01*
X1899274D01*
X1901952Y663586D01*
Y667374D01*
X1899274Y670052D01*
D02*
G37*
G36*
X777618Y666128D02*
X774041D01*
X771512Y663599D01*
Y660022D01*
X774041Y657493D01*
X777618D01*
X780147Y660022D01*
Y663599D01*
X777618Y666128D01*
D02*
G37*
G36*
X1090607Y665226D02*
X1088713D01*
X1087374Y663887D01*
X1087374Y662324D01*
X1086152Y661048D01*
X1085450Y660505D01*
X1085103Y660505D01*
X1083738D01*
X1082399Y659166D01*
Y657272D01*
X1083738Y655933D01*
X1085632D01*
X1086971Y657272D01*
X1086971Y658836D01*
X1088193Y660111D01*
X1088895Y660654D01*
X1089242Y660654D01*
X1090607D01*
X1091946Y661993D01*
Y663887D01*
X1090607Y665226D01*
D02*
G37*
G36*
X192394Y664972D02*
X188606D01*
X185928Y662294D01*
Y658506D01*
X188606Y655828D01*
X192394D01*
X195072Y658506D01*
Y662294D01*
X192394Y664972D01*
D02*
G37*
G36*
X166994D02*
X163206D01*
X160528Y662294D01*
Y658506D01*
X163206Y655828D01*
X166994D01*
X169672Y658506D01*
Y662294D01*
X166994Y664972D01*
D02*
G37*
G36*
X141594D02*
X137806D01*
X135128Y662294D01*
Y658506D01*
X137806Y655828D01*
X141594D01*
X144272Y658506D01*
Y662294D01*
X141594Y664972D01*
D02*
G37*
G36*
X1117277Y659638D02*
X1115383D01*
X1114044Y658299D01*
Y656405D01*
X1115383Y655066D01*
X1117277D01*
X1118616Y656405D01*
Y658299D01*
X1117277Y659638D01*
D02*
G37*
G36*
X889947Y658876D02*
X888053D01*
X886714Y657537D01*
Y655643D01*
X888053Y654304D01*
X889947D01*
X891286Y655643D01*
Y657537D01*
X889947Y658876D01*
D02*
G37*
G36*
X863277D02*
X861383D01*
X860044Y657537D01*
Y655643D01*
X861383Y654304D01*
X863277D01*
X864616Y655643D01*
Y657537D01*
X863277Y658876D01*
D02*
G37*
G36*
X1036945Y658875D02*
X1035051D01*
X1033712Y657536D01*
Y655642D01*
X1035051Y654303D01*
X1036945D01*
X1038284Y655642D01*
Y657536D01*
X1036945Y658875D01*
D02*
G37*
G36*
X1045170Y658816D02*
X1043277D01*
X1041937Y657476D01*
Y655583D01*
X1043277Y654243D01*
X1045170D01*
X1046509Y655583D01*
Y657476D01*
X1045170Y658816D01*
D02*
G37*
G36*
X957257Y658724D02*
X955363D01*
X954024Y657385D01*
Y655491D01*
X955363Y654152D01*
X957257D01*
X958596Y655491D01*
Y657385D01*
X957257Y658724D01*
D02*
G37*
G36*
X1020945Y658285D02*
X1019051D01*
X1017712Y656946D01*
Y655052D01*
X1019051Y653713D01*
X1020945D01*
X1022284Y655052D01*
Y656946D01*
X1020945Y658285D01*
D02*
G37*
G36*
X1012945D02*
X1011051D01*
X1009712Y656946D01*
Y655052D01*
X1011051Y653713D01*
X1012945D01*
X1014284Y655052D01*
Y656946D01*
X1012945Y658285D01*
D02*
G37*
G36*
X1004945D02*
X1003051D01*
X1001712Y656946D01*
Y655052D01*
X1003051Y653713D01*
X1004945D01*
X1006284Y655052D01*
Y656946D01*
X1004945Y658285D01*
D02*
G37*
G36*
X948785Y658153D02*
X946891D01*
X945552Y656814D01*
Y654920D01*
X946891Y653581D01*
X948785D01*
X950124Y654920D01*
Y656814D01*
X948785Y658153D01*
D02*
G37*
G36*
X1295331Y657860D02*
X1293437D01*
X1292098Y656521D01*
Y654627D01*
X1293437Y653288D01*
X1295331D01*
X1296670Y654627D01*
Y656521D01*
X1295331Y657860D01*
D02*
G37*
G36*
X989438Y657800D02*
X987544D01*
X986205Y656461D01*
Y654567D01*
X987544Y653228D01*
X989438D01*
X990777Y654567D01*
Y656461D01*
X989438Y657800D01*
D02*
G37*
G36*
X1155377Y657606D02*
X1153483D01*
X1152144Y656267D01*
Y654373D01*
X1153483Y653034D01*
X1155377D01*
X1156716Y654373D01*
Y656267D01*
X1155377Y657606D01*
D02*
G37*
G36*
X1145234Y657589D02*
X1143340D01*
X1142001Y656250D01*
Y654356D01*
X1143340Y653017D01*
X1145234D01*
X1146573Y654356D01*
Y656250D01*
X1145234Y657589D01*
D02*
G37*
G36*
X1673214Y659892D02*
X1669426D01*
X1666748Y657214D01*
Y653426D01*
X1669426Y650748D01*
X1673214D01*
X1675892Y653426D01*
Y657214D01*
X1673214Y659892D01*
D02*
G37*
G36*
X903917Y655066D02*
X902023D01*
X900684Y653727D01*
Y651833D01*
X902023Y650494D01*
X903917D01*
X905256Y651833D01*
Y653727D01*
X903917Y655066D01*
D02*
G37*
G36*
X1078669Y653034D02*
X1076775D01*
X1075436Y651695D01*
Y649801D01*
X1076775Y648462D01*
X1078669D01*
X1080008Y649801D01*
Y651695D01*
X1078669Y653034D01*
D02*
G37*
G36*
X1701154Y657352D02*
X1697366D01*
X1694688Y654674D01*
Y650886D01*
X1697366Y648208D01*
X1701154D01*
X1703832Y650886D01*
Y654674D01*
X1701154Y657352D01*
D02*
G37*
G36*
X940747Y650748D02*
X938853D01*
X937514Y649409D01*
Y647515D01*
X938853Y646176D01*
X940747D01*
X942086Y647515D01*
Y649409D01*
X940747Y650748D01*
D02*
G37*
G36*
X1060036Y650553D02*
X1058142D01*
X1056803Y649214D01*
Y647320D01*
X1058142Y645981D01*
X1060036D01*
X1061375Y647320D01*
Y649214D01*
X1060036Y650553D01*
D02*
G37*
G36*
X794269Y654558D02*
X790691D01*
X788162Y652029D01*
Y648451D01*
X790691Y645922D01*
X794269D01*
X796798Y648451D01*
Y652029D01*
X794269Y654558D01*
D02*
G37*
G36*
X1020945Y650285D02*
X1019051D01*
X1017712Y648946D01*
Y647052D01*
X1019051Y645713D01*
X1020945D01*
X1022284Y647052D01*
Y648946D01*
X1020945Y650285D01*
D02*
G37*
G36*
X1004945D02*
X1003051D01*
X1001712Y648946D01*
Y647052D01*
X1003051Y645713D01*
X1004945D01*
X1006284Y647052D01*
Y648946D01*
X1004945Y650285D01*
D02*
G37*
G36*
X980879Y650240D02*
X978985D01*
X977646Y648901D01*
Y647007D01*
X978985Y645668D01*
X980879D01*
X982218Y647007D01*
Y648901D01*
X980879Y650240D01*
D02*
G37*
G36*
X973005D02*
X971111D01*
X969772Y648901D01*
Y647007D01*
X971111Y645668D01*
X973005D01*
X974344Y647007D01*
Y648901D01*
X973005Y650240D01*
D02*
G37*
G36*
X948945Y650021D02*
X947051D01*
X945712Y648682D01*
Y646788D01*
X947051Y645449D01*
X948945D01*
X950284Y646788D01*
Y648682D01*
X948945Y650021D01*
D02*
G37*
G36*
X964877Y649986D02*
X962983D01*
X961644Y648647D01*
Y646753D01*
X962983Y645414D01*
X964877D01*
X966216Y646753D01*
Y648647D01*
X964877Y649986D01*
D02*
G37*
G36*
X903409Y647954D02*
X901515D01*
X900176Y646615D01*
Y644721D01*
X901515Y643382D01*
X903409D01*
X904748Y644721D01*
Y646615D01*
X903409Y647954D01*
D02*
G37*
G36*
X863277Y647446D02*
X861383D01*
X860044Y646107D01*
Y644213D01*
X861383Y642874D01*
X863277D01*
X864616Y644213D01*
Y646107D01*
X863277Y647446D01*
D02*
G37*
G36*
X910773Y646682D02*
X908879D01*
X907540Y645343D01*
Y643449D01*
X908879Y642110D01*
X910773D01*
X912112Y643449D01*
Y645343D01*
X910773Y646682D01*
D02*
G37*
G36*
X108574Y649732D02*
X104786D01*
X102108Y647054D01*
Y643266D01*
X104786Y640588D01*
X108574D01*
X111252Y643266D01*
Y647054D01*
X108574Y649732D01*
D02*
G37*
G36*
X1044945Y642552D02*
X1043051D01*
X1041712Y641213D01*
Y639319D01*
X1043051Y637980D01*
X1044945D01*
X1046284Y639319D01*
Y641213D01*
X1044945Y642552D01*
D02*
G37*
G36*
X1028945D02*
X1027051D01*
X1025712Y641213D01*
Y639319D01*
X1027051Y637980D01*
X1028945D01*
X1030284Y639319D01*
Y641213D01*
X1028945Y642552D01*
D02*
G37*
G36*
X1004945D02*
X1003051D01*
X1001712Y641213D01*
Y639319D01*
X1003051Y637980D01*
X1004945D01*
X1006284Y639319D01*
Y641213D01*
X1004945Y642552D01*
D02*
G37*
G36*
X1036945Y642422D02*
X1035051D01*
X1033712Y641083D01*
Y639189D01*
X1035051Y637850D01*
X1036945D01*
X1038284Y639189D01*
Y641083D01*
X1036945Y642422D01*
D02*
G37*
G36*
X965132Y642281D02*
X963238D01*
X961899Y640942D01*
Y639048D01*
X963238Y637709D01*
X965132D01*
X966471Y639048D01*
Y640942D01*
X965132Y642281D01*
D02*
G37*
G36*
X949893Y642172D02*
X947999D01*
X946660Y640833D01*
Y638939D01*
X947999Y637600D01*
X949893D01*
X951232Y638939D01*
Y640833D01*
X949893Y642172D01*
D02*
G37*
G36*
X988753Y642112D02*
X986859D01*
X985520Y640773D01*
Y638879D01*
X986859Y637540D01*
X988753D01*
X990092Y638879D01*
Y640773D01*
X988753Y642112D01*
D02*
G37*
G36*
X1290945Y642386D02*
X1289051D01*
X1287712Y641047D01*
X1287712Y639194D01*
X1287466Y638887D01*
X1285986Y637286D01*
X1285482Y637286D01*
X1284505D01*
X1284127Y637417D01*
X1282630Y638596D01*
Y638596D01*
X1282630Y638596D01*
X1282284Y639949D01*
X1280945Y641289D01*
X1279051D01*
X1277712Y639949D01*
Y638056D01*
X1279051Y636717D01*
X1280733D01*
X1281111Y636586D01*
X1282607Y635407D01*
Y635407D01*
X1282607Y635407D01*
X1282954Y634053D01*
X1284293Y632714D01*
X1286187D01*
X1287526Y634053D01*
X1287526Y635905D01*
X1287772Y636213D01*
X1289251Y637813D01*
X1289755Y637814D01*
X1290945D01*
X1292284Y639153D01*
Y641047D01*
X1290945Y642386D01*
D02*
G37*
G36*
X1361784Y643301D02*
X1359048D01*
X1357114Y641366D01*
Y638631D01*
X1359048Y636697D01*
X1361784D01*
X1363718Y638631D01*
Y641366D01*
X1361784Y643301D01*
D02*
G37*
G36*
X1170945Y641096D02*
X1169051D01*
X1167712Y639757D01*
Y637863D01*
X1169051Y636524D01*
X1170945D01*
X1172284Y637863D01*
Y639757D01*
X1170945Y641096D01*
D02*
G37*
G36*
X1206598Y642336D02*
X1203862D01*
X1201928Y640402D01*
Y637666D01*
X1203862Y635732D01*
X1206598D01*
X1208532Y637666D01*
Y640402D01*
X1206598Y642336D01*
D02*
G37*
G36*
X1652967Y650748D02*
X1649180D01*
X1646502Y648070D01*
Y644282D01*
X1649180Y641604D01*
X1652967Y641604D01*
X1654048Y639512D01*
Y638186D01*
X1656726Y635508D01*
X1660514D01*
X1663192Y638186D01*
Y641974D01*
X1660514Y644652D01*
X1656726Y644652D01*
X1655646Y646744D01*
Y648070D01*
X1652967Y650748D01*
D02*
G37*
G36*
X1196438Y641997D02*
X1193702D01*
X1191768Y640063D01*
Y637327D01*
X1193702Y635393D01*
X1196438D01*
X1198372Y637327D01*
Y640063D01*
X1196438Y641997D01*
D02*
G37*
G36*
X1270947Y639927D02*
X1269053D01*
X1267714Y638588D01*
Y636694D01*
X1269053Y635355D01*
X1270947D01*
X1272286Y636694D01*
Y638588D01*
X1270947Y639927D01*
D02*
G37*
G36*
X1300945Y639699D02*
X1299051D01*
X1297712Y638359D01*
Y636466D01*
X1299051Y635127D01*
X1300945D01*
X1302284Y636466D01*
Y638359D01*
X1300945Y639699D01*
D02*
G37*
G36*
X1320477Y637387D02*
X1318583D01*
X1317244Y636048D01*
Y634154D01*
X1318583Y632815D01*
X1320477D01*
X1321816Y634154D01*
Y636048D01*
X1320477Y637387D01*
D02*
G37*
G36*
X863277Y636016D02*
X861383D01*
X860044Y634677D01*
Y632783D01*
X861383Y631444D01*
X863277D01*
X864616Y632783D01*
Y634677D01*
X863277Y636016D01*
D02*
G37*
G36*
X1179928Y637032D02*
X1177192D01*
X1175258Y635098D01*
Y632362D01*
X1177192Y630428D01*
X1179928D01*
X1181862Y632362D01*
Y635098D01*
X1179928Y637032D01*
D02*
G37*
G36*
X192394Y639572D02*
X188606D01*
X185928Y636894D01*
Y633106D01*
X188606Y630428D01*
X192394D01*
X195072Y633106D01*
Y636894D01*
X192394Y639572D01*
D02*
G37*
G36*
X166994D02*
X163206D01*
X160528Y636894D01*
Y633106D01*
X163206Y630428D01*
X166994D01*
X169672Y633106D01*
Y636894D01*
X166994Y639572D01*
D02*
G37*
G36*
X141594D02*
X137806D01*
X135128Y636894D01*
Y633106D01*
X137806Y630428D01*
X141594D01*
X144272Y633106D01*
Y636894D01*
X141594Y639572D01*
D02*
G37*
G36*
X975545Y632990D02*
X973651D01*
X972312Y631651D01*
Y629758D01*
X973651Y628419D01*
X975545D01*
X976884Y629758D01*
Y631651D01*
X975545Y632990D01*
D02*
G37*
G36*
X123814Y634492D02*
X120026D01*
X117348Y631814D01*
Y628026D01*
X120026Y625348D01*
X123814D01*
X126492Y628026D01*
Y631814D01*
X123814Y634492D01*
D02*
G37*
G36*
X1311333Y628396D02*
X1309439D01*
X1308100Y627057D01*
Y625163D01*
X1309439Y623824D01*
X1311333D01*
X1312672Y625163D01*
Y627057D01*
X1311333Y628396D01*
D02*
G37*
G36*
X863277Y624586D02*
X861383D01*
X860044Y623247D01*
Y621353D01*
X861383Y620014D01*
X863277D01*
X864616Y621353D01*
Y623247D01*
X863277Y624586D01*
D02*
G37*
G36*
X1136327Y622046D02*
X1134433D01*
X1133094Y620707D01*
Y618813D01*
X1134433Y617474D01*
X1136327D01*
X1137666Y618813D01*
Y620707D01*
X1136327Y622046D01*
D02*
G37*
G36*
X910267D02*
X908373D01*
X907034Y620707D01*
Y618813D01*
X908373Y617474D01*
X910267D01*
X911606Y618813D01*
Y620707D01*
X910267Y622046D01*
D02*
G37*
G36*
X899599Y619506D02*
X897705D01*
X896366Y618167D01*
Y616273D01*
X897705Y614934D01*
X899599D01*
X900938Y616273D01*
Y618167D01*
X899599Y619506D01*
D02*
G37*
G36*
X756083Y618992D02*
X754189D01*
X752850Y617653D01*
Y615759D01*
X754189Y614420D01*
X756083D01*
X757422Y615759D01*
Y617653D01*
X756083Y618992D01*
D02*
G37*
G36*
X785529Y617879D02*
X781952D01*
X779423Y615349D01*
Y611772D01*
X781952Y609243D01*
X785529D01*
X788059Y611772D01*
Y615349D01*
X785529Y617879D01*
D02*
G37*
G36*
X863277Y613156D02*
X861383D01*
X860044Y611817D01*
Y609923D01*
X861383Y608584D01*
X863277D01*
X864616Y609923D01*
Y611817D01*
X863277Y613156D01*
D02*
G37*
G36*
X1154528Y611632D02*
X1151792D01*
X1149858Y609698D01*
Y606962D01*
X1151792Y605028D01*
X1154528D01*
X1156462Y606962D01*
Y609698D01*
X1154528Y611632D01*
D02*
G37*
G36*
X192394Y614172D02*
X188606D01*
X185928Y611494D01*
Y607706D01*
X188606Y605028D01*
X192394D01*
X195072Y607706D01*
Y611494D01*
X192394Y614172D01*
D02*
G37*
G36*
X166994D02*
X163206D01*
X160528Y611494D01*
Y607706D01*
X163206Y605028D01*
X166994D01*
X169672Y607706D01*
Y611494D01*
X166994Y614172D01*
D02*
G37*
G36*
X863277Y601726D02*
X861383D01*
X860044Y600387D01*
Y598493D01*
X861383Y597154D01*
X863277D01*
X864616Y598493D01*
Y600387D01*
X863277Y601726D01*
D02*
G37*
G36*
X785635Y606240D02*
X781847D01*
X779169Y603562D01*
Y599774D01*
X781847Y597096D01*
X785635D01*
X788313Y599774D01*
Y603562D01*
X785635Y606240D01*
D02*
G37*
G36*
X748128Y600202D02*
X745392D01*
X743458Y598268D01*
Y595532D01*
X745392Y593598D01*
X748128D01*
X750062Y595532D01*
Y598268D01*
X748128Y600202D01*
D02*
G37*
G36*
X1255368Y597662D02*
X1252632D01*
X1250698Y595728D01*
Y592992D01*
X1252632Y591058D01*
X1255368D01*
X1257302Y592992D01*
Y595728D01*
X1255368Y597662D01*
D02*
G37*
G36*
X1231488D02*
X1228752D01*
X1226818Y595728D01*
Y592992D01*
X1228752Y591058D01*
X1231488D01*
X1233422Y592992D01*
Y595728D01*
X1231488Y597662D01*
D02*
G37*
G36*
X1660514Y596392D02*
X1656726D01*
X1654048Y593714D01*
Y589926D01*
X1656726Y587248D01*
X1660514D01*
X1663192Y589926D01*
Y593714D01*
X1660514Y596392D01*
D02*
G37*
G36*
X863277Y590296D02*
X861383D01*
X860044Y588957D01*
Y587063D01*
X861383Y585724D01*
X863277D01*
X864616Y587063D01*
Y588957D01*
X863277Y590296D01*
D02*
G37*
G36*
X1568006Y593539D02*
X1564219D01*
X1561541Y590861D01*
Y587073D01*
X1564219Y584395D01*
X1568006D01*
X1570685Y587073D01*
Y590861D01*
X1568006Y593539D01*
D02*
G37*
G36*
X1387358Y590042D02*
X1384622D01*
X1382688Y588108D01*
Y585372D01*
X1384622Y583438D01*
X1387358D01*
X1389292Y585372D01*
Y588108D01*
X1387358Y590042D01*
D02*
G37*
G36*
X1372968D02*
X1370232D01*
X1368298Y588108D01*
Y585372D01*
X1370232Y583438D01*
X1372968D01*
X1374902Y585372D01*
Y588108D01*
X1372968Y590042D01*
D02*
G37*
G36*
X830568Y589932D02*
X827833D01*
X825898Y587998D01*
Y585263D01*
X827833Y583328D01*
X830568D01*
X832502Y585263D01*
Y587998D01*
X830568Y589932D01*
D02*
G37*
G36*
X820408D02*
X817673D01*
X815738Y587998D01*
Y585263D01*
X817673Y583328D01*
X820408D01*
X822342Y585263D01*
Y587998D01*
X820408Y589932D01*
D02*
G37*
G36*
X1884034Y591312D02*
X1880246D01*
X1877568Y588634D01*
Y584846D01*
X1880246Y582168D01*
X1884034D01*
X1886712Y584846D01*
Y588634D01*
X1884034Y591312D01*
D02*
G37*
G36*
X748128Y586232D02*
X745392D01*
X743458Y584298D01*
Y581562D01*
X745392Y579628D01*
X748128D01*
X750062Y581562D01*
Y584298D01*
X748128Y586232D01*
D02*
G37*
G36*
X192394Y588772D02*
X188606D01*
X185928Y586094D01*
Y582306D01*
X188606Y579628D01*
X192394D01*
X195072Y582306D01*
Y586094D01*
X192394Y588772D01*
D02*
G37*
G36*
X166994D02*
X163206D01*
X160528Y586094D01*
Y582306D01*
X163206Y579628D01*
X166994D01*
X169672Y582306D01*
Y586094D01*
X166994Y588772D01*
D02*
G37*
G36*
X1436468Y582422D02*
X1433732D01*
X1431798Y580488D01*
Y577752D01*
X1433732Y575818D01*
X1436468D01*
X1438402Y577752D01*
Y580488D01*
X1436468Y582422D01*
D02*
G37*
G36*
X890206Y580136D02*
X888312D01*
X886973Y578797D01*
Y576903D01*
X888312Y575564D01*
X890206D01*
X891545Y576903D01*
Y578797D01*
X890206Y580136D01*
D02*
G37*
G36*
X863277D02*
X861383D01*
X860044Y578797D01*
Y576903D01*
X861383Y575564D01*
X863277D01*
X864616Y576903D01*
Y578797D01*
X863277Y580136D01*
D02*
G37*
G36*
X1683374Y583692D02*
X1679586D01*
X1676908Y581014D01*
Y577226D01*
X1679586Y574548D01*
X1683374D01*
X1686052Y577226D01*
Y581014D01*
X1683374Y583692D01*
D02*
G37*
G36*
X804248Y578853D02*
X801513D01*
X799578Y576918D01*
Y574183D01*
X801513Y572248D01*
X804248D01*
X806182Y574183D01*
Y576918D01*
X804248Y578853D01*
D02*
G37*
G36*
X1655434Y581152D02*
X1651646D01*
X1648968Y578474D01*
Y574686D01*
X1651646Y572008D01*
X1655434D01*
X1658112Y574686D01*
Y578474D01*
X1655434Y581152D01*
D02*
G37*
G36*
X1807834Y578612D02*
X1804046D01*
X1801368Y575934D01*
Y572146D01*
X1804046Y569468D01*
X1807834D01*
X1810512Y572146D01*
Y575934D01*
X1807834Y578612D01*
D02*
G37*
G36*
X1449694D02*
X1445906D01*
X1443228Y575934D01*
Y572146D01*
X1445906Y569468D01*
X1449694D01*
X1452372Y572146D01*
Y575934D01*
X1449694Y578612D01*
D02*
G37*
G36*
X1896734Y576072D02*
X1892946D01*
X1890268Y573394D01*
Y569606D01*
X1892946Y566928D01*
X1896734D01*
X1899412Y569606D01*
Y573394D01*
X1896734Y576072D01*
D02*
G37*
G36*
X863277Y568706D02*
X861383D01*
X860044Y567367D01*
Y565473D01*
X861383Y564134D01*
X863277D01*
X864616Y565473D01*
Y567367D01*
X863277Y568706D01*
D02*
G37*
G36*
X748128Y569722D02*
X745392D01*
X743458Y567788D01*
Y565052D01*
X745392Y563118D01*
X748128D01*
X750062Y565052D01*
Y567788D01*
X748128Y569722D01*
D02*
G37*
G36*
X1459854Y570992D02*
X1456066D01*
X1453388Y568314D01*
Y564526D01*
X1456066Y561848D01*
X1459854D01*
X1462532Y564526D01*
Y568314D01*
X1459854Y570992D01*
D02*
G37*
G36*
X772258Y560832D02*
X769522D01*
X767588Y558898D01*
Y556162D01*
X769522Y554228D01*
X772258D01*
X774192Y556162D01*
Y558898D01*
X772258Y560832D01*
D02*
G37*
G36*
X192394Y563372D02*
X188606D01*
X185928Y560694D01*
Y556906D01*
X188606Y554228D01*
X192394D01*
X195072Y556906D01*
Y560694D01*
X192394Y563372D01*
D02*
G37*
G36*
X166994D02*
X163206D01*
X160528Y560694D01*
Y556906D01*
X163206Y554228D01*
X166994D01*
X169672Y556906D01*
Y560694D01*
X166994Y563372D01*
D02*
G37*
G36*
X141594D02*
X137806D01*
X135128Y560694D01*
Y556906D01*
X137806Y554228D01*
X141594D01*
X144272Y556906D01*
Y560694D01*
X141594Y563372D01*
D02*
G37*
G36*
X1597014Y568452D02*
X1593226D01*
X1590548Y565774D01*
Y561986D01*
X1591702Y560832D01*
X1590686Y558292D01*
X1590668Y558274D01*
X1588008Y555614D01*
Y551826D01*
X1590686Y549148D01*
X1594474D01*
X1597152Y551826D01*
Y555614D01*
X1595998Y556768D01*
X1597014Y559308D01*
X1597032Y559326D01*
X1599692Y561986D01*
Y565774D01*
X1597014Y568452D01*
D02*
G37*
G36*
X1231488Y554992D02*
X1228752D01*
X1226818Y553058D01*
Y550322D01*
X1228752Y548388D01*
X1231488D01*
X1233422Y550322D01*
Y553058D01*
X1231488Y554992D01*
D02*
G37*
G36*
X1255368Y553972D02*
X1252632D01*
X1250698Y552038D01*
Y549302D01*
X1252632Y547368D01*
X1255368D01*
X1257302Y549302D01*
Y552038D01*
X1255368Y553972D01*
D02*
G37*
G36*
X1434454Y555752D02*
X1430666D01*
X1427988Y553074D01*
Y549286D01*
X1430666Y546608D01*
X1434454D01*
X1437132Y549286D01*
Y553074D01*
X1434454Y555752D01*
D02*
G37*
G36*
X192394Y537972D02*
X188606D01*
X185928Y535294D01*
Y531506D01*
X188606Y528828D01*
X192394D01*
X195072Y531506D01*
Y535294D01*
X192394Y537972D01*
D02*
G37*
G36*
X166994D02*
X163206D01*
X160528Y535294D01*
Y531506D01*
X163206Y528828D01*
X166994D01*
X169672Y531506D01*
Y535294D01*
X166994Y537972D01*
D02*
G37*
G36*
X141594D02*
X137806D01*
X135128Y535294D01*
Y531506D01*
X137806Y528828D01*
X141594D01*
X144272Y531506D01*
Y535294D01*
X141594Y537972D01*
D02*
G37*
G36*
X1896734Y530352D02*
X1892946D01*
X1890268Y527674D01*
Y523886D01*
X1892946Y521208D01*
X1896734D01*
X1899412Y523886D01*
Y527674D01*
X1896734Y530352D01*
D02*
G37*
G36*
X1432658Y525272D02*
X1429922D01*
X1427988Y523338D01*
Y520602D01*
X1429922Y518668D01*
X1432658D01*
X1434592Y520602D01*
Y523338D01*
X1432658Y525272D01*
D02*
G37*
G36*
X1459328Y516382D02*
X1456592D01*
X1454658Y514448D01*
Y511712D01*
X1456592Y509778D01*
X1459328D01*
X1461262Y511712D01*
Y514448D01*
X1459328Y516382D01*
D02*
G37*
G36*
X1449168D02*
X1446432D01*
X1444498Y514448D01*
Y511712D01*
X1446432Y509778D01*
X1449168D01*
X1451102Y511712D01*
Y514448D01*
X1449168Y516382D01*
D02*
G37*
G36*
X1889114Y517652D02*
X1885326D01*
X1882648Y514974D01*
Y511186D01*
X1885326Y508508D01*
X1889114D01*
X1891792Y511186D01*
Y514974D01*
X1889114Y517652D01*
D02*
G37*
G36*
X1715534Y514253D02*
X1711747D01*
X1709068Y511574D01*
Y507787D01*
X1711747Y505108D01*
X1715534D01*
X1718212Y507787D01*
Y511574D01*
X1715534Y514253D01*
D02*
G37*
G36*
X1858634Y510032D02*
X1854846D01*
X1852168Y507354D01*
Y503566D01*
X1854846Y500888D01*
X1858634D01*
X1861312Y503566D01*
Y507354D01*
X1858634Y510032D01*
D02*
G37*
G36*
X1430753Y505587D02*
X1428017D01*
X1426083Y503653D01*
Y500917D01*
X1428017Y498983D01*
X1430753D01*
X1432687Y500917D01*
Y503653D01*
X1430753Y505587D01*
D02*
G37*
G36*
X1729094Y507492D02*
X1725306D01*
X1722628Y504814D01*
Y501026D01*
X1725306Y498348D01*
X1729094D01*
X1731772Y501026D01*
Y504814D01*
X1729094Y507492D01*
D02*
G37*
G36*
X1678294Y499872D02*
X1674506D01*
X1671828Y497194D01*
Y493406D01*
X1674506Y490728D01*
X1678294D01*
X1680972Y493406D01*
Y497194D01*
X1678294Y499872D01*
D02*
G37*
G36*
X1046832Y485902D02*
X1044096D01*
X1042162Y483968D01*
Y481232D01*
X1044096Y479298D01*
X1046832D01*
X1048766Y481232D01*
Y483968D01*
X1046832Y485902D01*
D02*
G37*
G36*
X1212705Y483120D02*
X1209970D01*
X1208036Y481185D01*
Y478450D01*
X1209970Y476516D01*
X1212705D01*
X1214640Y478450D01*
Y481185D01*
X1212705Y483120D01*
D02*
G37*
G36*
X1223108Y478282D02*
X1220372D01*
X1218438Y476348D01*
Y473612D01*
X1220372Y471678D01*
X1223108D01*
X1225042Y473612D01*
Y476348D01*
X1223108Y478282D01*
D02*
G37*
G36*
X352033Y474853D02*
X348245D01*
X345567Y472175D01*
Y468387D01*
X348245Y465709D01*
X352033D01*
X354711Y468387D01*
Y472175D01*
X352033Y474853D01*
D02*
G37*
G36*
X1202788Y470662D02*
X1200052D01*
X1198118Y468728D01*
Y465992D01*
X1200052Y464058D01*
X1202788D01*
X1204722Y465992D01*
Y468728D01*
X1202788Y470662D01*
D02*
G37*
G36*
X1192628D02*
X1189892D01*
X1187958Y468728D01*
Y465992D01*
X1189892Y464058D01*
X1192628D01*
X1194562Y465992D01*
Y468728D01*
X1192628Y470662D01*
D02*
G37*
G36*
X1182225Y470420D02*
X1179490D01*
X1177556Y468485D01*
Y465750D01*
X1179490Y463816D01*
X1182225D01*
X1184160Y465750D01*
Y468485D01*
X1182225Y470420D01*
D02*
G37*
G36*
X874874Y485902D02*
X872138D01*
X870204Y483968D01*
Y481232D01*
X872138Y479298D01*
X872505D01*
X872539Y479298D01*
X872743Y476758D01*
X872689Y476704D01*
X870953Y474968D01*
Y472232D01*
X872743Y470442D01*
X872539Y467902D01*
X872426D01*
X870492Y465968D01*
Y463232D01*
X872426Y461298D01*
X875162D01*
X877096Y463232D01*
Y465968D01*
X875306Y467758D01*
X875509Y470298D01*
X875622D01*
X877557Y472232D01*
Y474968D01*
X875622Y476902D01*
X875256D01*
X875221Y476902D01*
X875018Y479442D01*
X875071Y479496D01*
X876808Y481232D01*
Y483968D01*
X874874Y485902D01*
D02*
G37*
G36*
X1233025Y467880D02*
X1230290D01*
X1228356Y465945D01*
Y463210D01*
X1230290Y461276D01*
X1233025D01*
X1234960Y463210D01*
Y465945D01*
X1233025Y467880D01*
D02*
G37*
G36*
X1222865D02*
X1220130D01*
X1218196Y465945D01*
Y463210D01*
X1220130Y461276D01*
X1222865D01*
X1224800Y463210D01*
Y465945D01*
X1222865Y467880D01*
D02*
G37*
G36*
X325464Y465303D02*
X321677D01*
X318999Y462624D01*
Y458837D01*
X321677Y456159D01*
X325464D01*
X328143Y458837D01*
Y462624D01*
X325464Y465303D01*
D02*
G37*
G36*
X1660514Y464312D02*
X1656726D01*
X1654048Y461634D01*
Y457846D01*
X1656726Y455168D01*
X1660514D01*
X1663192Y457846D01*
Y461634D01*
X1660514Y464312D01*
D02*
G37*
G36*
X854808Y455422D02*
X852072D01*
X850138Y453488D01*
Y450752D01*
X852072Y448818D01*
X854808D01*
X856742Y450752D01*
Y453488D01*
X854808Y455422D01*
D02*
G37*
G36*
X1388843Y454787D02*
X1386107D01*
X1384173Y452853D01*
Y450117D01*
X1386107Y448183D01*
X1388843D01*
X1390777Y450117D01*
Y452853D01*
X1388843Y454787D01*
D02*
G37*
G36*
X1399638Y454152D02*
X1396902D01*
X1394968Y452218D01*
Y449482D01*
X1396902Y447548D01*
X1399638D01*
X1401572Y449482D01*
Y452218D01*
X1399638Y454152D01*
D02*
G37*
G36*
X134473Y456352D02*
X130685D01*
X128007Y453674D01*
Y449886D01*
X130685Y447208D01*
X134473D01*
X137151Y449886D01*
Y453674D01*
X134473Y456352D01*
D02*
G37*
G36*
X109073D02*
X105285D01*
X102607Y453674D01*
Y449886D01*
X105285Y447208D01*
X109073D01*
X111751Y449886D01*
Y453674D01*
X109073Y456352D01*
D02*
G37*
G36*
X83673D02*
X79885D01*
X77207Y453674D01*
Y449886D01*
X79885Y447208D01*
X83673D01*
X86351Y449886D01*
Y453674D01*
X83673Y456352D01*
D02*
G37*
G36*
X59044Y455422D02*
X55256D01*
X52578Y452744D01*
Y448956D01*
X55256Y446278D01*
X59044D01*
X61722Y448956D01*
Y452744D01*
X59044Y455422D01*
D02*
G37*
G36*
X1345414Y454492D02*
X1341626D01*
X1338948Y451814D01*
Y448026D01*
X1341626Y445348D01*
X1345414D01*
X1348092Y448026D01*
Y451814D01*
X1345414Y454492D01*
D02*
G37*
G36*
X1363334Y454152D02*
X1359546D01*
X1356868Y451474D01*
Y447686D01*
X1359546Y445008D01*
X1363334D01*
X1366012Y447686D01*
Y451474D01*
X1363334Y454152D01*
D02*
G37*
G36*
X1017894Y451612D02*
X1014106D01*
X1011428Y448934D01*
Y445146D01*
X1014106Y442468D01*
X1017894D01*
X1020572Y445146D01*
Y448934D01*
X1017894Y451612D01*
D02*
G37*
G36*
X179694Y449072D02*
X175906D01*
X173228Y446394D01*
Y442606D01*
X175906Y439928D01*
X179694D01*
X182372Y442606D01*
Y446394D01*
X179694Y449072D01*
D02*
G37*
G36*
X1291688Y445262D02*
X1288952D01*
X1287018Y443328D01*
Y440592D01*
X1288952Y438658D01*
X1291688D01*
X1293622Y440592D01*
Y443328D01*
X1291688Y445262D01*
D02*
G37*
G36*
X1010274Y442172D02*
X1006486D01*
X1003808Y439494D01*
Y435706D01*
X1006486Y433028D01*
X1010274D01*
X1012952Y435706D01*
Y439494D01*
X1010274Y442172D01*
D02*
G37*
G36*
X230389Y441198D02*
X226811D01*
X224282Y438669D01*
Y435091D01*
X226811Y432562D01*
X230389D01*
X232918Y435091D01*
Y438669D01*
X230389Y441198D01*
D02*
G37*
G36*
X1675754Y441452D02*
X1671966D01*
X1669288Y438774D01*
Y434986D01*
X1671966Y432308D01*
X1675754D01*
X1678432Y434986D01*
Y438774D01*
X1675754Y441452D01*
D02*
G37*
G36*
X260369Y440850D02*
X256792D01*
X254263Y438320D01*
Y434743D01*
X256792Y432214D01*
X260369D01*
X262899Y434743D01*
Y438320D01*
X260369Y440850D01*
D02*
G37*
G36*
X1291688Y435102D02*
X1288952D01*
X1287018Y433168D01*
Y430432D01*
X1288952Y428498D01*
X1291688D01*
X1293622Y430432D01*
Y433168D01*
X1291688Y435102D01*
D02*
G37*
G36*
X1228228Y435062D02*
X1225492D01*
X1223558Y433128D01*
Y430392D01*
X1225492Y428458D01*
X1228228D01*
X1230162Y430392D01*
Y433128D01*
X1228228Y435062D01*
D02*
G37*
G36*
X1022974Y436372D02*
X1019186D01*
X1016508Y433694D01*
Y429906D01*
X1019186Y427228D01*
X1022974D01*
X1025652Y429906D01*
Y433694D01*
X1022974Y436372D01*
D02*
G37*
G36*
X877699Y431902D02*
X874964D01*
X873029Y429968D01*
Y427232D01*
X874964Y425298D01*
X877699D01*
X879633Y427232D01*
Y429968D01*
X877699Y431902D01*
D02*
G37*
G36*
X1104490Y429006D02*
X1101754D01*
X1099820Y427072D01*
Y424336D01*
X1101754Y422402D01*
X1104490D01*
X1106424Y424336D01*
Y427072D01*
X1104490Y429006D01*
D02*
G37*
G36*
X1168626Y428881D02*
X1165891D01*
X1163957Y426946D01*
Y424211D01*
X1165891Y422277D01*
X1168626D01*
X1170561Y424211D01*
Y426946D01*
X1168626Y428881D01*
D02*
G37*
G36*
X134473Y430952D02*
X130685D01*
X128007Y428274D01*
Y424486D01*
X130685Y421808D01*
X134473D01*
X137151Y424486D01*
Y428274D01*
X134473Y430952D01*
D02*
G37*
G36*
X109073D02*
X105285D01*
X102607Y428274D01*
Y424486D01*
X105285Y421808D01*
X109073D01*
X111751Y424486D01*
Y428274D01*
X109073Y430952D01*
D02*
G37*
G36*
X83673D02*
X79885D01*
X77207Y428274D01*
Y424486D01*
X79885Y421808D01*
X83673D01*
X86351Y424486D01*
Y428274D01*
X83673Y430952D01*
D02*
G37*
G36*
X1633318Y427482D02*
X1630582D01*
X1628648Y425548D01*
Y422812D01*
X1630582Y420878D01*
X1633318D01*
X1635252Y422812D01*
Y425548D01*
X1633318Y427482D01*
D02*
G37*
G36*
X59044Y430022D02*
X55256D01*
X52578Y427344D01*
Y423556D01*
X55256Y420878D01*
X59044D01*
X61722Y423556D01*
Y427344D01*
X59044Y430022D01*
D02*
G37*
G36*
X1291688Y424942D02*
X1288952D01*
X1287018Y423008D01*
Y420272D01*
X1288952Y418338D01*
X1291688D01*
X1293622Y420272D01*
Y423008D01*
X1291688Y424942D01*
D02*
G37*
G36*
X1033134Y423672D02*
X1029346D01*
X1026668Y420994D01*
Y417206D01*
X1029346Y414528D01*
X1033134D01*
X1035812Y417206D01*
Y420994D01*
X1033134Y423672D01*
D02*
G37*
G36*
X1168626Y418721D02*
X1165891D01*
X1163957Y416786D01*
Y414051D01*
X1165891Y412117D01*
X1168626D01*
X1170561Y414051D01*
Y416786D01*
X1168626Y418721D01*
D02*
G37*
G36*
X1064866Y418084D02*
X1062130D01*
X1060196Y416150D01*
Y413414D01*
X1062130Y411480D01*
X1064866D01*
X1066800Y413414D01*
Y416150D01*
X1064866Y418084D01*
D02*
G37*
G36*
X1291688Y414782D02*
X1288952D01*
X1287018Y412848D01*
Y410112D01*
X1288952Y408178D01*
X1291688D01*
X1293622Y410112D01*
Y412848D01*
X1291688Y414782D01*
D02*
G37*
G36*
X1363334Y413512D02*
X1359546D01*
X1356868Y410834D01*
Y407046D01*
X1359546Y404368D01*
X1363334D01*
X1366012Y407046D01*
Y410834D01*
X1363334Y413512D01*
D02*
G37*
G36*
X1168118Y408561D02*
X1165383D01*
X1163449Y406626D01*
Y403891D01*
X1165383Y401957D01*
X1168118D01*
X1170053Y403891D01*
Y406626D01*
X1168118Y408561D01*
D02*
G37*
G36*
X1381114Y410972D02*
X1377326D01*
X1374648Y408294D01*
Y404506D01*
X1377326Y401828D01*
X1381114D01*
X1383792Y404506D01*
Y408294D01*
X1381114Y410972D01*
D02*
G37*
G36*
X160644D02*
X156856D01*
X154178Y408294D01*
Y404506D01*
X156856Y401828D01*
X160644D01*
X163322Y404506D01*
Y408294D01*
X160644Y410972D01*
D02*
G37*
G36*
X135244D02*
X131456D01*
X128778Y408294D01*
Y404506D01*
X131456Y401828D01*
X135244D01*
X137922Y404506D01*
Y408294D01*
X135244Y410972D01*
D02*
G37*
G36*
X109844D02*
X106056D01*
X103378Y408294D01*
Y404506D01*
X106056Y401828D01*
X109844D01*
X112522Y404506D01*
Y408294D01*
X109844Y410972D01*
D02*
G37*
G36*
X1291688Y404622D02*
X1288952D01*
X1287018Y402688D01*
Y399952D01*
X1288952Y398018D01*
X1291688D01*
X1293622Y399952D01*
Y402688D01*
X1291688Y404622D01*
D02*
G37*
G36*
X1167610Y398401D02*
X1164875D01*
X1162941Y396466D01*
Y393731D01*
X1164875Y391797D01*
X1167610D01*
X1169545Y393731D01*
Y396466D01*
X1167610Y398401D01*
D02*
G37*
G36*
X984874Y400812D02*
X981086D01*
X978408Y398134D01*
Y394346D01*
X981086Y391668D01*
X984874D01*
X987552Y394346D01*
Y398134D01*
X984874Y400812D01*
D02*
G37*
G36*
X969634D02*
X965846D01*
X963168Y398134D01*
Y394346D01*
X965846Y391668D01*
X969634D01*
X972312Y394346D01*
Y398134D01*
X969634Y400812D01*
D02*
G37*
G36*
X812154D02*
X808366D01*
X805688Y398134D01*
Y394346D01*
X808366Y391668D01*
X812154D01*
X814832Y394346D01*
Y398134D01*
X812154Y400812D01*
D02*
G37*
G36*
X998334Y400778D02*
X994546D01*
X991868Y398100D01*
Y394312D01*
X994546Y391634D01*
X998334D01*
X1001012Y394312D01*
Y398100D01*
X998334Y400778D01*
D02*
G37*
G36*
X1154020Y398018D02*
X1151284D01*
X1149350Y396084D01*
Y393348D01*
X1151284Y391414D01*
X1154020D01*
X1155954Y393348D01*
Y396084D01*
X1154020Y398018D01*
D02*
G37*
G36*
X1291688Y394462D02*
X1288952D01*
X1287018Y392528D01*
Y389792D01*
X1288952Y387858D01*
X1291688D01*
X1293622Y389792D01*
Y392528D01*
X1291688Y394462D01*
D02*
G37*
G36*
X1195509Y388620D02*
X1193615D01*
X1192276Y387281D01*
Y385387D01*
X1193615Y384048D01*
X1195509D01*
X1196848Y385387D01*
Y387281D01*
X1195509Y388620D01*
D02*
G37*
G36*
X160644Y385572D02*
X156856D01*
X154178Y382894D01*
Y379106D01*
X156856Y376428D01*
X160644D01*
X163322Y379106D01*
Y382894D01*
X160644Y385572D01*
D02*
G37*
G36*
X135244D02*
X131456D01*
X128778Y382894D01*
Y379106D01*
X131456Y376428D01*
X135244D01*
X137922Y379106D01*
Y382894D01*
X135244Y385572D01*
D02*
G37*
G36*
X109844D02*
X106056D01*
X103378Y382894D01*
Y379106D01*
X106056Y376428D01*
X109844D01*
X112522Y379106D01*
Y382894D01*
X109844Y385572D01*
D02*
G37*
G36*
X1103982Y381254D02*
X1101246D01*
X1099312Y379320D01*
Y376584D01*
X1101246Y374650D01*
X1103982D01*
X1105916Y376584D01*
Y379320D01*
X1103982Y381254D01*
D02*
G37*
G36*
X1395828Y379222D02*
X1393092D01*
X1391158Y377288D01*
Y374552D01*
X1393092Y372618D01*
X1395828D01*
X1397762Y374552D01*
Y377288D01*
X1395828Y379222D01*
D02*
G37*
G36*
X1171038Y383032D02*
X1168302D01*
X1166368Y381098D01*
Y380082D01*
X1165159Y378222D01*
X1163945Y378081D01*
X1162332D01*
X1160397Y376146D01*
Y373411D01*
X1162332Y371477D01*
X1165067D01*
X1167001Y373411D01*
Y374427D01*
X1168211Y376287D01*
X1169425Y376428D01*
X1171038D01*
X1172972Y378362D01*
Y381098D01*
X1171038Y383032D01*
D02*
G37*
G36*
X1198470Y374142D02*
X1195734D01*
X1193800Y372208D01*
Y369472D01*
X1195734Y367538D01*
X1198470D01*
X1200404Y369472D01*
Y372208D01*
X1198470Y374142D01*
D02*
G37*
G36*
X1177780Y369709D02*
X1175045D01*
X1173111Y367774D01*
Y365039D01*
X1175045Y363105D01*
X1177780D01*
X1179715Y365039D01*
Y367774D01*
X1177780Y369709D01*
D02*
G37*
G36*
X160644Y360172D02*
X156856D01*
X154178Y357494D01*
Y353706D01*
X156856Y351028D01*
X160644D01*
X163322Y353706D01*
Y357494D01*
X160644Y360172D01*
D02*
G37*
G36*
X135244D02*
X131456D01*
X128778Y357494D01*
Y353706D01*
X131456Y351028D01*
X135244D01*
X137922Y353706D01*
Y357494D01*
X135244Y360172D01*
D02*
G37*
G36*
X109844D02*
X106056D01*
X103378Y357494D01*
Y353706D01*
X106056Y351028D01*
X109844D01*
X112522Y353706D01*
Y357494D01*
X109844Y360172D01*
D02*
G37*
G36*
X1446207Y352806D02*
X1444313D01*
X1442974Y351467D01*
Y349573D01*
X1444313Y348234D01*
X1446207D01*
X1447546Y349573D01*
Y351467D01*
X1446207Y352806D01*
D02*
G37*
G36*
X1630034Y332232D02*
X1626246D01*
X1623568Y329554D01*
Y325766D01*
X1626246Y323088D01*
X1630034D01*
X1632712Y325766D01*
Y329554D01*
X1630034Y332232D01*
D02*
G37*
G36*
X1707123Y329692D02*
X1703336D01*
X1700658Y327014D01*
Y323226D01*
X1703336Y320548D01*
X1707123D01*
X1709802Y323226D01*
Y327014D01*
X1707123Y329692D01*
D02*
G37*
G36*
X1678294D02*
X1674506D01*
X1671828Y327014D01*
Y323226D01*
X1674506Y320548D01*
X1678294D01*
X1680972Y323226D01*
Y327014D01*
X1678294Y329692D01*
D02*
G37*
G36*
X1571088Y322072D02*
X1568352D01*
X1566598Y320317D01*
X1565275Y320221D01*
X1563952Y320317D01*
X1562198Y322072D01*
X1559462D01*
X1557528Y320138D01*
Y317402D01*
X1559462Y315468D01*
X1562198D01*
X1563952Y317223D01*
X1565275Y317319D01*
X1566598Y317223D01*
X1568352Y315468D01*
X1571088D01*
X1573022Y317402D01*
Y320138D01*
X1571088Y322072D01*
D02*
G37*
G36*
X1489572Y326644D02*
X1485784D01*
X1483106Y323966D01*
Y320178D01*
X1485784Y317500D01*
X1489572D01*
X1492250Y320178D01*
Y323966D01*
X1489572Y326644D01*
D02*
G37*
G36*
X1581248Y322072D02*
X1578512D01*
X1576578Y320138D01*
Y317402D01*
X1578512Y315468D01*
X1581248D01*
X1583182Y317402D01*
Y320138D01*
X1581248Y322072D01*
D02*
G37*
G36*
X1538068D02*
X1535332D01*
X1533398Y320138D01*
Y317402D01*
X1535332Y315468D01*
X1538068D01*
X1540002Y317402D01*
Y320138D01*
X1538068Y322072D01*
D02*
G37*
G36*
X1489046Y314105D02*
X1486310D01*
X1484376Y312171D01*
Y309435D01*
X1486310Y307501D01*
X1489046D01*
X1490980Y309435D01*
Y312171D01*
X1489046Y314105D01*
D02*
G37*
G36*
X1617334Y306832D02*
X1613546D01*
X1610868Y304154D01*
Y300366D01*
X1613546Y297688D01*
X1617334D01*
X1620012Y300366D01*
Y304154D01*
X1617334Y306832D01*
D02*
G37*
G36*
X1692034Y305792D02*
X1688246D01*
X1685568Y303114D01*
Y299326D01*
X1688246Y296648D01*
X1692034D01*
X1694712Y299326D01*
Y303114D01*
X1692034Y305792D01*
D02*
G37*
G36*
X1595218Y303022D02*
X1592482D01*
X1590548Y301088D01*
Y298352D01*
X1592482Y296418D01*
X1595218D01*
X1597152Y298352D01*
Y301088D01*
X1595218Y303022D01*
D02*
G37*
G36*
X1574898D02*
X1572162D01*
X1570228Y301088D01*
Y298352D01*
X1572162Y296418D01*
X1574898D01*
X1576832Y298352D01*
Y301088D01*
X1574898Y303022D01*
D02*
G37*
G36*
X1469488Y300482D02*
X1466752D01*
X1464818Y298548D01*
Y295812D01*
X1466752Y293878D01*
X1469488D01*
X1471422Y295812D01*
Y298548D01*
X1469488Y300482D01*
D02*
G37*
G36*
X1520691Y289432D02*
X1517989D01*
X1516078Y287521D01*
Y284819D01*
X1517989Y282908D01*
X1520691D01*
X1522602Y284819D01*
Y287521D01*
X1520691Y289432D01*
D02*
G37*
G36*
X1509691D02*
X1506989D01*
X1505078Y287521D01*
Y284819D01*
X1506989Y282908D01*
X1509691D01*
X1511602Y284819D01*
Y287521D01*
X1509691Y289432D01*
D02*
G37*
G36*
X1595218Y289052D02*
X1592482D01*
X1590548Y287118D01*
Y284382D01*
X1592482Y282448D01*
X1595218D01*
X1597152Y284382D01*
Y287118D01*
X1595218Y289052D01*
D02*
G37*
G36*
X1574898Y278892D02*
X1572162D01*
X1570228Y276958D01*
Y274222D01*
X1572162Y272288D01*
X1574898D01*
X1576832Y274222D01*
Y276958D01*
X1574898Y278892D01*
D02*
G37*
G36*
X1520691Y278432D02*
X1517989D01*
X1516078Y276521D01*
Y273819D01*
X1517989Y271908D01*
X1520691D01*
X1522602Y273819D01*
Y276521D01*
X1520691Y278432D01*
D02*
G37*
G36*
X1509691D02*
X1506989D01*
X1505078Y276521D01*
Y273819D01*
X1506989Y271908D01*
X1509691D01*
X1511602Y273819D01*
Y276521D01*
X1509691Y278432D01*
D02*
G37*
G36*
X1595218Y275082D02*
X1592482D01*
X1590548Y273148D01*
Y270412D01*
X1592482Y268478D01*
X1595218D01*
X1597152Y270412D01*
Y273148D01*
X1595218Y275082D01*
D02*
G37*
G36*
X1007548Y274152D02*
X1004812D01*
X1002878Y272218D01*
Y269482D01*
X1004812Y267548D01*
X1007548D01*
X1009482Y269482D01*
Y272218D01*
X1007548Y274152D01*
D02*
G37*
G36*
X812154Y273812D02*
X808366D01*
X805688Y271134D01*
Y267346D01*
X808366Y264668D01*
X812154D01*
X814832Y267346D01*
Y271134D01*
X812154Y273812D01*
D02*
G37*
G36*
X1480918Y270002D02*
X1478182D01*
X1476248Y268068D01*
Y265332D01*
X1478182Y263398D01*
X1480918D01*
X1482852Y265332D01*
Y268068D01*
X1480918Y270002D01*
D02*
G37*
G36*
X1470758D02*
X1468022D01*
X1466088Y268068D01*
Y265332D01*
X1468022Y263398D01*
X1470758D01*
X1472692Y265332D01*
Y268068D01*
X1470758Y270002D01*
D02*
G37*
G36*
X1578708Y262382D02*
X1575972D01*
X1574038Y260448D01*
Y257712D01*
X1575972Y255778D01*
X1578708D01*
X1580642Y257712D01*
Y260448D01*
X1578708Y262382D01*
D02*
G37*
G36*
X1595218Y261112D02*
X1592482D01*
X1590548Y259178D01*
Y256442D01*
X1592482Y254508D01*
X1595218D01*
X1597152Y256442D01*
Y259178D01*
X1595218Y261112D01*
D02*
G37*
G36*
X173344Y245872D02*
X169556D01*
X166878Y243194D01*
Y239406D01*
X169556Y236728D01*
X173344D01*
X176022Y239406D01*
Y243194D01*
X173344Y245872D01*
D02*
G37*
G36*
X255894Y239522D02*
X252106D01*
X249428Y236844D01*
Y233056D01*
X252106Y230378D01*
X255894D01*
X258572Y233056D01*
Y236844D01*
X255894Y239522D01*
D02*
G37*
G36*
X236844D02*
X233056D01*
X230378Y236844D01*
Y233056D01*
X233056Y230378D01*
X236844D01*
X239522Y233056D01*
Y236844D01*
X236844Y239522D01*
D02*
G37*
G36*
X141594D02*
X137806D01*
X135128Y236844D01*
Y233056D01*
X137806Y230378D01*
X141594D01*
X144272Y233056D01*
Y236844D01*
X141594Y239522D01*
D02*
G37*
G36*
X116194D02*
X112406D01*
X109728Y236844D01*
Y233056D01*
X112406Y230378D01*
X116194D01*
X118872Y233056D01*
Y236844D01*
X116194Y239522D01*
D02*
G37*
G36*
X211444Y226822D02*
X207656D01*
X204978Y224144D01*
Y220356D01*
X207656Y217678D01*
X211444D01*
X214122Y220356D01*
Y224144D01*
X211444Y226822D01*
D02*
G37*
G36*
X192394D02*
X188606D01*
X185928Y224144D01*
Y220356D01*
X188606Y217678D01*
X192394D01*
X195072Y220356D01*
Y224144D01*
X192394Y226822D01*
D02*
G37*
G36*
X173344D02*
X169556D01*
X166878Y224144D01*
Y220356D01*
X169556Y217678D01*
X173344D01*
X176022Y220356D01*
Y224144D01*
X173344Y226822D01*
D02*
G37*
G36*
X255894Y220472D02*
X252106D01*
X249428Y217794D01*
Y214006D01*
X252106Y211328D01*
X255894D01*
X258572Y214006D01*
Y217794D01*
X255894Y220472D01*
D02*
G37*
G36*
X236844D02*
X233056D01*
X230378Y217794D01*
Y214006D01*
X233056Y211328D01*
X236844D01*
X239522Y214006D01*
Y217794D01*
X236844Y220472D01*
D02*
G37*
G36*
X141594D02*
X137806D01*
X135128Y217794D01*
Y214006D01*
X137806Y211328D01*
X141594D01*
X144272Y214006D01*
Y217794D01*
X141594Y220472D01*
D02*
G37*
G36*
X116194D02*
X112406D01*
X109728Y217794D01*
Y214006D01*
X112406Y211328D01*
X116194D01*
X118872Y214006D01*
Y217794D01*
X116194Y220472D01*
D02*
G37*
G36*
X814694Y217932D02*
X810906D01*
X808228Y215254D01*
Y211466D01*
X810906Y208788D01*
X814694D01*
X817372Y211466D01*
Y215254D01*
X814694Y217932D01*
D02*
G37*
G36*
X84444Y214122D02*
X80656D01*
X77978Y211444D01*
Y207656D01*
X80656Y204978D01*
X84444D01*
X87122Y207656D01*
Y211444D01*
X84444Y214122D01*
D02*
G37*
G36*
X65394D02*
X61606D01*
X58928Y211444D01*
Y207656D01*
X61606Y204978D01*
X65394D01*
X68072Y207656D01*
Y211444D01*
X65394Y214122D01*
D02*
G37*
G36*
X173344Y207772D02*
X169556D01*
X166878Y205094D01*
Y201306D01*
X169556Y198628D01*
X173344D01*
X176022Y201306D01*
Y205094D01*
X173344Y207772D01*
D02*
G37*
G36*
X255894Y201422D02*
X252106D01*
X249428Y198744D01*
Y194956D01*
X252106Y192278D01*
X255894D01*
X258572Y194956D01*
Y198744D01*
X255894Y201422D01*
D02*
G37*
G36*
X236844D02*
X233056D01*
X230378Y198744D01*
Y194956D01*
X233056Y192278D01*
X236844D01*
X239522Y194956D01*
Y198744D01*
X236844Y201422D01*
D02*
G37*
G36*
X141594D02*
X137806D01*
X135128Y198744D01*
Y194956D01*
X137806Y192278D01*
X141594D01*
X144272Y194956D01*
Y198744D01*
X141594Y201422D01*
D02*
G37*
G36*
X116194D02*
X112406D01*
X109728Y198744D01*
Y194956D01*
X112406Y192278D01*
X116194D01*
X118872Y194956D01*
Y198744D01*
X116194Y201422D01*
D02*
G37*
G36*
X84444Y188722D02*
X80656D01*
X77978Y186044D01*
Y182256D01*
X80656Y179578D01*
X84444D01*
X87122Y182256D01*
Y186044D01*
X84444Y188722D01*
D02*
G37*
G36*
X65394D02*
X61606D01*
X58928Y186044D01*
Y182256D01*
X61606Y179578D01*
X65394D01*
X68072Y182256D01*
Y186044D01*
X65394Y188722D01*
D02*
G37*
G36*
X255894Y182372D02*
X252106D01*
X249428Y179694D01*
Y175906D01*
X252106Y173228D01*
X255894D01*
X258572Y175906D01*
Y179694D01*
X255894Y182372D01*
D02*
G37*
G36*
X236844D02*
X233056D01*
X230378Y179694D01*
Y175906D01*
X233056Y173228D01*
X236844D01*
X239522Y175906D01*
Y179694D01*
X236844Y182372D01*
D02*
G37*
G36*
X214798Y172969D02*
X211010D01*
X208332Y170291D01*
Y166503D01*
X211010Y163825D01*
X214798D01*
X217476Y166503D01*
Y170291D01*
X214798Y172969D01*
D02*
G37*
G36*
X195748D02*
X191960D01*
X189282Y170291D01*
Y166503D01*
X191960Y163825D01*
X195748D01*
X198426Y166503D01*
Y170291D01*
X195748Y172969D01*
D02*
G37*
G36*
X255894Y163322D02*
X252106D01*
X249428Y160644D01*
Y156856D01*
X252106Y154178D01*
X255894D01*
X258572Y156856D01*
Y160644D01*
X255894Y163322D01*
D02*
G37*
G36*
X236844D02*
X233056D01*
X230378Y160644D01*
Y156856D01*
X233056Y154178D01*
X236844D01*
X239522Y156856D01*
Y160644D01*
X236844Y163322D01*
D02*
G37*
G36*
X214798Y153919D02*
X211010D01*
X208332Y151241D01*
Y147453D01*
X211010Y144775D01*
X214798D01*
X217476Y147453D01*
Y151241D01*
X214798Y153919D01*
D02*
G37*
G36*
X195748D02*
X191960D01*
X189282Y151241D01*
Y147453D01*
X191960Y144775D01*
X195748D01*
X198426Y147453D01*
Y151241D01*
X195748Y153919D01*
D02*
G37*
G36*
X255894Y144272D02*
X252106D01*
X249428Y141594D01*
Y137806D01*
X252106Y135128D01*
X255894D01*
X258572Y137806D01*
Y141594D01*
X255894Y144272D01*
D02*
G37*
G36*
X236844D02*
X233056D01*
X230378Y141594D01*
Y137806D01*
X233056Y135128D01*
X236844D01*
X239522Y137806D01*
Y141594D01*
X236844Y144272D01*
D02*
G37*
G36*
X160644Y131572D02*
X156856D01*
X154178Y128894D01*
Y125106D01*
X156856Y122428D01*
X160644D01*
X163322Y125106D01*
Y128894D01*
X160644Y131572D01*
D02*
G37*
G36*
X135244D02*
X131456D01*
X128778Y128894D01*
Y125106D01*
X131456Y122428D01*
X135244D01*
X137922Y125106D01*
Y128894D01*
X135244Y131572D01*
D02*
G37*
G36*
X109844D02*
X106056D01*
X103378Y128894D01*
Y125106D01*
X106056Y122428D01*
X109844D01*
X112522Y125106D01*
Y128894D01*
X109844Y131572D01*
D02*
G37*
G36*
X84444D02*
X80656D01*
X77978Y128894D01*
Y125106D01*
X80656Y122428D01*
X84444D01*
X87122Y125106D01*
Y128894D01*
X84444Y131572D01*
D02*
G37*
G36*
X59044D02*
X55256D01*
X52578Y128894D01*
Y125106D01*
X55256Y122428D01*
X59044D01*
X61722Y125106D01*
Y128894D01*
X59044Y131572D01*
D02*
G37*
G36*
X255894Y106172D02*
X252106D01*
X249428Y103494D01*
Y99706D01*
X252106Y97028D01*
X255894D01*
X258572Y99706D01*
Y103494D01*
X255894Y106172D01*
D02*
G37*
G36*
X230494D02*
X226706D01*
X224028Y103494D01*
Y99706D01*
X226706Y97028D01*
X230494D01*
X233172Y99706D01*
Y103494D01*
X230494Y106172D01*
D02*
G37*
G36*
X154282Y117467D02*
X122758D01*
Y85943D01*
X154282D01*
Y117467D01*
D02*
G37*
G36*
X99655D02*
X93385D01*
X87591Y115067D01*
X83158Y110633D01*
X80758Y104840D01*
Y98570D01*
X83158Y92776D01*
X87591Y88343D01*
X93385Y85943D01*
X99655D01*
X105449Y88343D01*
X109882Y92776D01*
X112282Y98570D01*
Y104840D01*
X109882Y110633D01*
X105449Y115067D01*
X99655Y117467D01*
D02*
G37*
G36*
X57655D02*
X51385D01*
X45592Y115067D01*
X41158Y110633D01*
X38758Y104840D01*
Y98570D01*
X41158Y92776D01*
X45592Y88343D01*
X51385Y85943D01*
X57655D01*
X63449Y88343D01*
X67882Y92776D01*
X70282Y98570D01*
Y104840D01*
X67882Y110633D01*
X63449Y115067D01*
X57655Y117467D01*
D02*
G37*
G36*
X255894Y87122D02*
X252106D01*
X249428Y84444D01*
Y80656D01*
X252106Y77978D01*
X255894D01*
X258572Y80656D01*
Y84444D01*
X255894Y87122D01*
D02*
G37*
G36*
X230494D02*
X226706D01*
X224028Y84444D01*
Y80656D01*
X226706Y77978D01*
X230494D01*
X233172Y80656D01*
Y84444D01*
X230494Y87122D01*
D02*
G37*
G36*
X160644Y80772D02*
X156856D01*
X154178Y78094D01*
Y74306D01*
X156856Y71628D01*
X160644D01*
X163322Y74306D01*
Y78094D01*
X160644Y80772D01*
D02*
G37*
G36*
X255894Y68072D02*
X252106D01*
X249428Y65394D01*
Y61606D01*
X252106Y58928D01*
X255894D01*
X258572Y61606D01*
Y65394D01*
X255894Y68072D01*
D02*
G37*
G36*
X230494D02*
X226706D01*
X224028Y65394D01*
Y61606D01*
X226706Y58928D01*
X230494D01*
X233172Y61606D01*
Y65394D01*
X230494Y68072D01*
D02*
G37*
G36*
X160644Y61722D02*
X156856D01*
X154178Y59044D01*
Y55256D01*
X156856Y52578D01*
X160644D01*
X163322Y55256D01*
Y59044D01*
X160644Y61722D01*
D02*
G37*
G36*
X255894Y49022D02*
X252106D01*
X249428Y46344D01*
Y42556D01*
X252106Y39878D01*
X255894D01*
X258572Y42556D01*
Y46344D01*
X255894Y49022D01*
D02*
G37*
G36*
X230494D02*
X226706D01*
X224028Y46344D01*
Y42556D01*
X226706Y39878D01*
X230494D01*
X233172Y42556D01*
Y46344D01*
X230494Y49022D01*
D02*
G37*
G36*
X205094D02*
X201306D01*
X198628Y46344D01*
Y42556D01*
X201306Y39878D01*
X205094D01*
X207772Y42556D01*
Y46344D01*
X205094Y49022D01*
D02*
G37*
G36*
X179694D02*
X175906D01*
X173228Y46344D01*
Y42556D01*
X175906Y39878D01*
X179694D01*
X182372Y42556D01*
Y46344D01*
X179694Y49022D01*
D02*
G37*
G36*
X1775260Y62562D02*
X1770580D01*
X1766257Y60771D01*
X1762949Y57463D01*
X1761158Y53140D01*
Y48460D01*
X1762949Y44137D01*
X1766257Y40829D01*
X1770580Y39038D01*
X1775260D01*
X1779583Y40829D01*
X1782891Y44137D01*
X1784682Y48460D01*
Y53140D01*
X1782891Y57463D01*
X1779583Y60771D01*
X1775260Y62562D01*
D02*
G37*
G36*
X1633020D02*
X1628340D01*
X1624017Y60771D01*
X1620709Y57463D01*
X1618918Y53140D01*
Y48460D01*
X1620709Y44137D01*
X1624017Y40829D01*
X1628340Y39038D01*
X1633020D01*
X1637343Y40829D01*
X1640651Y44137D01*
X1642442Y48460D01*
Y53140D01*
X1640651Y57463D01*
X1637343Y60771D01*
X1633020Y62562D01*
D02*
G37*
G36*
X1480620D02*
X1475940D01*
X1471617Y60771D01*
X1468309Y57463D01*
X1466518Y53140D01*
Y48460D01*
X1468309Y44137D01*
X1471617Y40829D01*
X1475940Y39038D01*
X1480620D01*
X1484943Y40829D01*
X1488251Y44137D01*
X1490042Y48460D01*
Y53140D01*
X1488251Y57463D01*
X1484943Y60771D01*
X1480620Y62562D01*
D02*
G37*
G36*
X1917500Y62482D02*
X1912820D01*
X1908497Y60691D01*
X1905189Y57383D01*
X1903398Y53060D01*
Y48380D01*
X1905189Y44057D01*
X1908497Y40749D01*
X1912820Y38958D01*
X1917500D01*
X1921823Y40749D01*
X1925131Y44057D01*
X1926922Y48380D01*
Y53060D01*
X1925131Y57383D01*
X1921823Y60691D01*
X1917500Y62482D01*
D02*
G37*
G36*
X1027006Y56007D02*
X1022914D01*
X1019133Y54441D01*
X1016239Y51547D01*
X1014673Y47766D01*
Y43674D01*
X1016239Y39893D01*
X1019133Y36999D01*
X1022914Y35433D01*
X1027006D01*
X1030787Y36999D01*
X1033681Y39893D01*
X1035247Y43674D01*
Y47766D01*
X1033681Y51547D01*
X1030787Y54441D01*
X1027006Y56007D01*
D02*
G37*
G36*
X977006D02*
X972914D01*
X969133Y54441D01*
X966239Y51547D01*
X964673Y47766D01*
Y43674D01*
X966239Y39893D01*
X969133Y36999D01*
X972914Y35433D01*
X977006D01*
X980787Y36999D01*
X983681Y39893D01*
X985247Y43674D01*
Y47766D01*
X983681Y51547D01*
X980787Y54441D01*
X977006Y56007D01*
D02*
G37*
G36*
X927006D02*
X922914D01*
X919133Y54441D01*
X916239Y51547D01*
X914673Y47766D01*
Y43674D01*
X916239Y39893D01*
X919133Y36999D01*
X922914Y35433D01*
X927006D01*
X930787Y36999D01*
X933681Y39893D01*
X935247Y43674D01*
Y47766D01*
X933681Y51547D01*
X930787Y54441D01*
X927006Y56007D01*
D02*
G37*
G36*
X885247D02*
X864673D01*
Y35433D01*
X885247D01*
Y56007D01*
D02*
G37*
G36*
X1233192Y221742D02*
X1231878D01*
X1230665Y221239D01*
X1229736Y220310D01*
X1229478Y219688D01*
X1229478Y219688D01*
X1229295Y219419D01*
X1226885D01*
X1226702Y219688D01*
X1226702Y219688D01*
X1226444Y220310D01*
X1225515Y221239D01*
X1224302Y221742D01*
X1222988D01*
X1221775Y221239D01*
X1220846Y220310D01*
X1220343Y219097D01*
Y217783D01*
X1220846Y216570D01*
X1221775Y215641D01*
X1222988Y215138D01*
X1224302D01*
X1225515Y215641D01*
X1226444Y216570D01*
X1226702Y217192D01*
X1226702Y217192D01*
X1226885Y217461D01*
X1229295D01*
X1229478Y217192D01*
X1229478Y217192D01*
X1229736Y216570D01*
X1230665Y215641D01*
X1231878Y215138D01*
X1233192D01*
X1234405Y215641D01*
X1235334Y216570D01*
X1235837Y217783D01*
Y219097D01*
X1235334Y220310D01*
X1234405Y221239D01*
X1233192Y221742D01*
D02*
G37*
G36*
X1296692Y220472D02*
X1295378D01*
X1294165Y219969D01*
X1293236Y219040D01*
X1292978Y218418D01*
X1292978Y218418D01*
X1292795Y218149D01*
X1290385D01*
X1290202Y218418D01*
X1290202Y218418D01*
X1289944Y219040D01*
X1289015Y219969D01*
X1287802Y220472D01*
X1286488D01*
X1285275Y219969D01*
X1284346Y219040D01*
X1283843Y217827D01*
Y216513D01*
X1284346Y215300D01*
X1285275Y214371D01*
X1286488Y213868D01*
X1287802D01*
X1289015Y214371D01*
X1289944Y215300D01*
X1290202Y215922D01*
X1290202Y215922D01*
X1290385Y216191D01*
X1292795D01*
X1292978Y215922D01*
X1292978Y215922D01*
X1293236Y215300D01*
X1294165Y214371D01*
X1295378Y213868D01*
X1296692D01*
X1297905Y214371D01*
X1298834Y215300D01*
X1299337Y216513D01*
Y217827D01*
X1298834Y219040D01*
X1297905Y219969D01*
X1296692Y220472D01*
D02*
G37*
G36*
X1292247Y188722D02*
X1290933D01*
X1289720Y188219D01*
X1288791Y187290D01*
X1288288Y186077D01*
Y184763D01*
X1288791Y183550D01*
X1289720Y182621D01*
X1290933Y182118D01*
X1292247D01*
X1293460Y182621D01*
X1294389Y183550D01*
X1294892Y184763D01*
Y186077D01*
X1294389Y187290D01*
X1293460Y188219D01*
X1292247Y188722D01*
D02*
G37*
G36*
X1228747Y187452D02*
X1227433D01*
X1226220Y186949D01*
X1225291Y186020D01*
X1224788Y184807D01*
Y183493D01*
X1225291Y182280D01*
X1226220Y181351D01*
X1227433Y180848D01*
X1228747D01*
X1229960Y181351D01*
X1230889Y182280D01*
X1231392Y183493D01*
Y184807D01*
X1230889Y186020D01*
X1229960Y186949D01*
X1228747Y187452D01*
D02*
G37*
G36*
X1324444Y165862D02*
X1322236D01*
X1320105Y165291D01*
X1318193Y164187D01*
X1316633Y162627D01*
X1315529Y160715D01*
X1314958Y158583D01*
Y156376D01*
X1315529Y154245D01*
X1316633Y152333D01*
X1318193Y150773D01*
X1320105Y149669D01*
X1322236Y149098D01*
X1324444D01*
X1326575Y149669D01*
X1328487Y150773D01*
X1330047Y152333D01*
X1331151Y154245D01*
X1331722Y156376D01*
Y158583D01*
X1331151Y160715D01*
X1330047Y162627D01*
X1328487Y164187D01*
X1326575Y165291D01*
X1324444Y165862D01*
D02*
G37*
G36*
X1301584D02*
X1299377D01*
X1297245Y165291D01*
X1295333Y164187D01*
X1293773Y162627D01*
X1292669Y160715D01*
X1292098Y158583D01*
Y156376D01*
X1292669Y154245D01*
X1293773Y152333D01*
X1295333Y150773D01*
X1297245Y149669D01*
X1299377Y149098D01*
X1301584D01*
X1303715Y149669D01*
X1305627Y150773D01*
X1307187Y152333D01*
X1308291Y154245D01*
X1308862Y156376D01*
Y158583D01*
X1308291Y160715D01*
X1307187Y162627D01*
X1305627Y164187D01*
X1303715Y165291D01*
X1301584Y165862D01*
D02*
G37*
G36*
X1210144D02*
X1207936D01*
X1205805Y165291D01*
X1203893Y164187D01*
X1202333Y162627D01*
X1201229Y160715D01*
X1200658Y158583D01*
Y156376D01*
X1201229Y154245D01*
X1202333Y152333D01*
X1203893Y150773D01*
X1205805Y149669D01*
X1207936Y149098D01*
X1210144D01*
X1212275Y149669D01*
X1214187Y150773D01*
X1215747Y152333D01*
X1216851Y154245D01*
X1217422Y156376D01*
Y158583D01*
X1216851Y160715D01*
X1215747Y162627D01*
X1214187Y164187D01*
X1212275Y165291D01*
X1210144Y165862D01*
D02*
G37*
G36*
X1187283D02*
X1185077D01*
X1182945Y165291D01*
X1181033Y164187D01*
X1179473Y162627D01*
X1178369Y160715D01*
X1177798Y158583D01*
Y156376D01*
X1178369Y154245D01*
X1179473Y152333D01*
X1181033Y150773D01*
X1182945Y149669D01*
X1185077Y149098D01*
X1187283D01*
X1189415Y149669D01*
X1191327Y150773D01*
X1192887Y152333D01*
X1193991Y154245D01*
X1194562Y156376D01*
Y158583D01*
X1193991Y160715D01*
X1192887Y162627D01*
X1191327Y164187D01*
X1189415Y165291D01*
X1187283Y165862D01*
D02*
G37*
G36*
X1404007Y136652D02*
X1402693D01*
X1401480Y136149D01*
X1400551Y135220D01*
X1400048Y134007D01*
Y132693D01*
X1400551Y131480D01*
X1401480Y130551D01*
X1402693Y130048D01*
X1404007D01*
X1405220Y130551D01*
X1406149Y131480D01*
X1406652Y132693D01*
Y134007D01*
X1406149Y135220D01*
X1405220Y136149D01*
X1404007Y136652D01*
D02*
G37*
G36*
X1250337Y130302D02*
X1249023D01*
X1247810Y129799D01*
X1246881Y128870D01*
X1246378Y127657D01*
Y126343D01*
X1246881Y125130D01*
X1247810Y124201D01*
X1249023Y123698D01*
X1250337D01*
X1251550Y124201D01*
X1252479Y125130D01*
X1252982Y126343D01*
Y127657D01*
X1252479Y128870D01*
X1251550Y129799D01*
X1250337Y130302D01*
D02*
G37*
G36*
X1404007Y116332D02*
X1402693D01*
X1401480Y115829D01*
X1400551Y114900D01*
X1400048Y113687D01*
Y112373D01*
X1400551Y111160D01*
X1401480Y110231D01*
X1402693Y109728D01*
X1404007D01*
X1405220Y110231D01*
X1406149Y111160D01*
X1406652Y112373D01*
Y113687D01*
X1406149Y114900D01*
X1405220Y115829D01*
X1404007Y116332D01*
D02*
G37*
G36*
X1281263Y117602D02*
X1279056D01*
X1276925Y117031D01*
X1275013Y115927D01*
X1273453Y114367D01*
X1272349Y112455D01*
X1271778Y110323D01*
Y108117D01*
X1272349Y105985D01*
X1273453Y104073D01*
X1275013Y102513D01*
X1276925Y101409D01*
X1279056Y100838D01*
X1281263D01*
X1283395Y101409D01*
X1285307Y102513D01*
X1286867Y104073D01*
X1287971Y105985D01*
X1288542Y108117D01*
Y110323D01*
X1287971Y112455D01*
X1286867Y114367D01*
X1285307Y115927D01*
X1283395Y117031D01*
X1281263Y117602D01*
D02*
G37*
G36*
X1260944D02*
X1258736D01*
X1256605Y117031D01*
X1254693Y115927D01*
X1253133Y114367D01*
X1252029Y112455D01*
X1251458Y110323D01*
Y108117D01*
X1252029Y105985D01*
X1253133Y104073D01*
X1254693Y102513D01*
X1256605Y101409D01*
X1258736Y100838D01*
X1260944D01*
X1263075Y101409D01*
X1264987Y102513D01*
X1266547Y104073D01*
X1267651Y105985D01*
X1268222Y108117D01*
Y110323D01*
X1267651Y112455D01*
X1266547Y114367D01*
X1264987Y115927D01*
X1263075Y117031D01*
X1260944Y117602D01*
D02*
G37*
G36*
X1240623D02*
X1238417D01*
X1236285Y117031D01*
X1234373Y115927D01*
X1232813Y114367D01*
X1231709Y112455D01*
X1231138Y110323D01*
Y108117D01*
X1231709Y105985D01*
X1232813Y104073D01*
X1234373Y102513D01*
X1236285Y101409D01*
X1238417Y100838D01*
X1240623D01*
X1242755Y101409D01*
X1244667Y102513D01*
X1246227Y104073D01*
X1247331Y105985D01*
X1247902Y108117D01*
Y110323D01*
X1247331Y112455D01*
X1246227Y114367D01*
X1244667Y115927D01*
X1242755Y117031D01*
X1240623Y117602D01*
D02*
G37*
G36*
X1220303D02*
X1218096D01*
X1215965Y117031D01*
X1214053Y115927D01*
X1212493Y114367D01*
X1211389Y112455D01*
X1210818Y110323D01*
Y108117D01*
X1211389Y105985D01*
X1212493Y104073D01*
X1214053Y102513D01*
X1215965Y101409D01*
X1218096Y100838D01*
X1220303D01*
X1222435Y101409D01*
X1224347Y102513D01*
X1225907Y104073D01*
X1227011Y105985D01*
X1227582Y108117D01*
Y110323D01*
X1227011Y112455D01*
X1225907Y114367D01*
X1224347Y115927D01*
X1222435Y117031D01*
X1220303Y117602D01*
D02*
G37*
G36*
X1294511Y99822D02*
X1286129D01*
X1281938Y95631D01*
Y87249D01*
X1286129Y83058D01*
X1294511D01*
X1298702Y87249D01*
Y95631D01*
X1294511Y99822D01*
D02*
G37*
G36*
X1271104D02*
X1268896D01*
X1266765Y99251D01*
X1264853Y98147D01*
X1263293Y96587D01*
X1262189Y94675D01*
X1261618Y92543D01*
Y90337D01*
X1262189Y88205D01*
X1263293Y86293D01*
X1264853Y84733D01*
X1266765Y83629D01*
X1268896Y83058D01*
X1271104D01*
X1273235Y83629D01*
X1275147Y84733D01*
X1276707Y86293D01*
X1277811Y88205D01*
X1278382Y90337D01*
Y92543D01*
X1277811Y94675D01*
X1276707Y96587D01*
X1275147Y98147D01*
X1273235Y99251D01*
X1271104Y99822D01*
D02*
G37*
G36*
X1250783D02*
X1248577D01*
X1246445Y99251D01*
X1244533Y98147D01*
X1242973Y96587D01*
X1241869Y94675D01*
X1241298Y92543D01*
Y90337D01*
X1241869Y88205D01*
X1242973Y86293D01*
X1244533Y84733D01*
X1246445Y83629D01*
X1248577Y83058D01*
X1250783D01*
X1252915Y83629D01*
X1254827Y84733D01*
X1256387Y86293D01*
X1257491Y88205D01*
X1258062Y90337D01*
Y92543D01*
X1257491Y94675D01*
X1256387Y96587D01*
X1254827Y98147D01*
X1252915Y99251D01*
X1250783Y99822D01*
D02*
G37*
G36*
X1230463D02*
X1228257D01*
X1226125Y99251D01*
X1224213Y98147D01*
X1222653Y96587D01*
X1221549Y94675D01*
X1220978Y92543D01*
Y90337D01*
X1221549Y88205D01*
X1222653Y86293D01*
X1224213Y84733D01*
X1226125Y83629D01*
X1228257Y83058D01*
X1230463D01*
X1232595Y83629D01*
X1234507Y84733D01*
X1236067Y86293D01*
X1237171Y88205D01*
X1237742Y90337D01*
Y92543D01*
X1237171Y94675D01*
X1236067Y96587D01*
X1234507Y98147D01*
X1232595Y99251D01*
X1230463Y99822D01*
D02*
G37*
G36*
X1320211Y85852D02*
X1316309D01*
X1312481Y85091D01*
X1308875Y83597D01*
X1305631Y81429D01*
X1302871Y78669D01*
X1300703Y75424D01*
X1299209Y71819D01*
X1298448Y67991D01*
Y64089D01*
X1299209Y60261D01*
X1300703Y56656D01*
X1302871Y53411D01*
X1305631Y50651D01*
X1308875Y48483D01*
X1312481Y46989D01*
X1316309Y46228D01*
X1320211D01*
X1324039Y46989D01*
X1327645Y48483D01*
X1330889Y50651D01*
X1333649Y53411D01*
X1335817Y56656D01*
X1337311Y60261D01*
X1338072Y64089D01*
Y67991D01*
X1337311Y71819D01*
X1335817Y75424D01*
X1333649Y78669D01*
X1330889Y81429D01*
X1327645Y83597D01*
X1324039Y85091D01*
X1320211Y85852D01*
D02*
G37*
G36*
X1193211D02*
X1189309D01*
X1185481Y85091D01*
X1181876Y83597D01*
X1178631Y81429D01*
X1175871Y78669D01*
X1173703Y75424D01*
X1172209Y71819D01*
X1171448Y67991D01*
Y64089D01*
X1172209Y60261D01*
X1173703Y56656D01*
X1175871Y53411D01*
X1178631Y50651D01*
X1181876Y48483D01*
X1185481Y46989D01*
X1189309Y46228D01*
X1193211D01*
X1197039Y46989D01*
X1200645Y48483D01*
X1203889Y50651D01*
X1206649Y53411D01*
X1208817Y56656D01*
X1210311Y60261D01*
X1211072Y64089D01*
Y67991D01*
X1210311Y71819D01*
X1208817Y75424D01*
X1206649Y78669D01*
X1203889Y81429D01*
X1200645Y83597D01*
X1197039Y85091D01*
X1193211Y85852D01*
D02*
G37*
G36*
X597854Y126882D02*
X595546D01*
X593318Y126285D01*
X591320Y125131D01*
X589689Y123500D01*
X588535Y121502D01*
X587938Y119274D01*
Y116966D01*
X588535Y114738D01*
X589689Y112740D01*
X591320Y111109D01*
X593318Y109955D01*
X595546Y109358D01*
X597854D01*
X600082Y109955D01*
X602080Y111109D01*
X603711Y112740D01*
X604865Y114738D01*
X605462Y116966D01*
Y119274D01*
X604865Y121502D01*
X603711Y123500D01*
X602080Y125131D01*
X600082Y126285D01*
X597854Y126882D01*
D02*
G37*
G36*
X572854D02*
X570546D01*
X568318Y126285D01*
X566320Y125131D01*
X564689Y123500D01*
X563535Y121502D01*
X562938Y119274D01*
Y116966D01*
X563535Y114738D01*
X564689Y112740D01*
X566320Y111109D01*
X568318Y109955D01*
X570337Y109414D01*
X570546Y109358D01*
Y106882D01*
X570337Y106826D01*
X568318Y106285D01*
X566320Y105131D01*
X564689Y103500D01*
X563535Y101502D01*
X562938Y99274D01*
Y96966D01*
X563535Y94738D01*
X564689Y92740D01*
X566320Y91109D01*
X568318Y89955D01*
X570546Y89358D01*
X572854D01*
X575082Y89955D01*
X577080Y91109D01*
X578711Y92740D01*
X579865Y94738D01*
X580462Y96966D01*
Y99274D01*
X579865Y101502D01*
X578711Y103500D01*
X577080Y105131D01*
X575082Y106285D01*
X573063Y106826D01*
X572854Y106882D01*
Y109358D01*
X573063Y109414D01*
X575082Y109955D01*
X577080Y111109D01*
X578711Y112740D01*
X579865Y114738D01*
X580462Y116966D01*
Y119274D01*
X579865Y121502D01*
X578711Y123500D01*
X577080Y125131D01*
X575082Y126285D01*
X572854Y126882D01*
D02*
G37*
%LPD*%
D216*
X1171176Y718820D02*
X1175854D01*
X1187224Y692593D02*
X1187626Y692995D01*
X1185090Y690459D02*
X1187224Y692593D01*
X1175854Y718820D02*
X1183127Y711547D01*
Y701748D02*
X1187626Y697249D01*
X1183127Y701748D02*
Y711547D01*
X1187224Y692593D02*
X1189173Y690644D01*
X1187626Y692995D02*
Y697249D01*
X1159677Y690459D02*
X1185090D01*
X1189173Y674122D02*
Y690644D01*
X1185125Y670074D02*
X1189173Y674122D01*
X1179388Y659389D02*
X1185125Y665126D01*
Y670074D01*
X1204683Y741118D02*
X1212856Y732945D01*
X1177223Y752172D02*
X1196511D01*
X1204683Y743999D01*
Y741118D02*
Y743999D01*
X1174351Y749300D02*
X1177223Y752172D01*
X1158499Y691383D02*
X1158753D01*
X1159677Y690459D01*
X1154176Y695706D02*
X1158499Y691383D01*
X1144998Y744998D02*
X1144998D01*
X1158235Y725517D02*
Y731762D01*
X1144998Y744998D02*
X1158235Y731762D01*
Y725517D02*
X1163667Y720085D01*
X1169911D01*
X1171176Y718820D01*
X1125657Y659389D02*
X1179388D01*
X1124978Y660068D02*
X1125657Y659389D01*
X1144998Y744998D02*
X1145125Y745126D01*
Y746345D01*
X1148080Y749300D01*
X1174351D01*
D250*
X1696720Y144780D02*
D03*
X1957465Y931171D02*
D03*
X53340Y949960D02*
D03*
X402580Y380655D02*
D03*
D251*
X1443830Y976167D02*
D03*
X1041830Y573167D02*
D03*
D252*
X1915160Y50720D02*
D03*
X1940560Y76120D02*
D03*
Y25320D02*
D03*
X1889760D02*
D03*
Y76120D02*
D03*
X1772920Y50800D02*
D03*
X1798320Y76200D02*
D03*
Y25400D02*
D03*
X1747520D02*
D03*
Y76200D02*
D03*
X1630680Y50800D02*
D03*
X1656080Y76200D02*
D03*
Y25400D02*
D03*
X1605280D02*
D03*
Y76200D02*
D03*
X1478280Y50800D02*
D03*
X1503680Y76200D02*
D03*
Y25400D02*
D03*
X1452880D02*
D03*
Y76200D02*
D03*
D253*
X54520Y101705D02*
D03*
X96520D02*
D03*
X54520Y156705D02*
D03*
X96520D02*
D03*
X138520D02*
D03*
X524000Y71120D02*
D03*
X644400D02*
D03*
D254*
X138520Y101705D02*
D03*
D255*
X874960Y45720D02*
D03*
D256*
X924960D02*
D03*
X974960D02*
D03*
X1024960D02*
D03*
D257*
X596700Y118120D02*
D03*
X571700D02*
D03*
X596700Y98120D02*
D03*
X571700D02*
D03*
D258*
X1240060Y409560D02*
D03*
Y398860D02*
D03*
Y388160D02*
D03*
X1229360Y409560D02*
D03*
Y398860D02*
D03*
Y388160D02*
D03*
X1218660Y409560D02*
D03*
Y398860D02*
D03*
Y388160D02*
D03*
D259*
X1300480Y157480D02*
D03*
X1209040D02*
D03*
X1323340D02*
D03*
X1219200Y109220D02*
D03*
X1239520D02*
D03*
X1259840D02*
D03*
X1280160D02*
D03*
X1229360Y91440D02*
D03*
X1249680D02*
D03*
X1270000D02*
D03*
X1186180Y157480D02*
D03*
X716280Y970280D02*
D03*
Y944880D02*
D03*
X1087120Y929640D02*
D03*
X1036320D02*
D03*
X1061720D02*
D03*
D260*
X1290320Y91440D02*
D03*
D261*
X1191260Y66040D02*
D03*
X1318260D02*
D03*
D262*
X222250Y311150D02*
D03*
X57150Y425450D02*
D03*
Y450850D02*
D03*
X31750Y425450D02*
D03*
Y450850D02*
D03*
X107950Y381000D02*
D03*
Y355600D02*
D03*
Y406400D02*
D03*
X81779Y451780D02*
D03*
Y426380D02*
D03*
X132579Y451780D02*
D03*
X107179D02*
D03*
X132579Y426380D02*
D03*
X107179D02*
D03*
X158750Y406400D02*
D03*
X133350D02*
D03*
X158750Y355600D02*
D03*
Y381000D02*
D03*
X133350Y355600D02*
D03*
Y381000D02*
D03*
X121920Y629920D02*
D03*
X177800Y444500D02*
D03*
X190500Y508000D02*
D03*
X165100D02*
D03*
Y609600D02*
D03*
Y584200D02*
D03*
Y558800D02*
D03*
X190500Y609600D02*
D03*
Y584200D02*
D03*
Y558800D02*
D03*
X139700D02*
D03*
X190500Y533400D02*
D03*
X165100D02*
D03*
X139700D02*
D03*
Y635000D02*
D03*
X165100D02*
D03*
X190500D02*
D03*
X139700Y660400D02*
D03*
X165100D02*
D03*
X190500D02*
D03*
X1566113Y588967D02*
D03*
X1592580Y553720D02*
D03*
X1595120Y563880D02*
D03*
Y596900D02*
D03*
X1633220Y584200D02*
D03*
X1640840Y601980D02*
D03*
X1651074Y646176D02*
D03*
X1653540Y576580D02*
D03*
X1681480Y579120D02*
D03*
X1658620Y591820D02*
D03*
Y640080D02*
D03*
X1671320Y655320D02*
D03*
X1699260Y652780D02*
D03*
X1691640Y662940D02*
D03*
X1717040Y609600D02*
D03*
X1704340Y637540D02*
D03*
X1887220Y513080D02*
D03*
X1805940Y574040D02*
D03*
X1826260Y566420D02*
D03*
X1856740Y505460D02*
D03*
X1894840Y525780D02*
D03*
X1906778Y537718D02*
D03*
X1894840Y571500D02*
D03*
X1882140Y586740D02*
D03*
X1844921Y579640D02*
D03*
X1846580Y784860D02*
D03*
X1859280Y787400D02*
D03*
X1882140D02*
D03*
X1762760Y767080D02*
D03*
X1765300Y751840D02*
D03*
X1818640Y789940D02*
D03*
X1788160Y792480D02*
D03*
X1869440Y635000D02*
D03*
X1811020Y678180D02*
D03*
X1897380Y665480D02*
D03*
X1892300Y703580D02*
D03*
X1910080Y721360D02*
D03*
X1894840D02*
D03*
X1889760Y736600D02*
D03*
Y751840D02*
D03*
X1892300Y767080D02*
D03*
X1866900Y802640D02*
D03*
X1727200Y502920D02*
D03*
X1704340Y522478D02*
D03*
X1713640Y509680D02*
D03*
X1676400Y495300D02*
D03*
X1757680Y441960D02*
D03*
X1742440Y452120D02*
D03*
X1727200Y431800D02*
D03*
X1658620Y459740D02*
D03*
X1673860Y436880D02*
D03*
X1729740Y419100D02*
D03*
X1664820Y336700D02*
D03*
X1615440Y302260D02*
D03*
X1630680Y261620D02*
D03*
X1646000Y261700D02*
D03*
X1691321Y278414D02*
D03*
X1709420Y299720D02*
D03*
X1705230Y325120D02*
D03*
X1690140Y301220D02*
D03*
X1676400Y325120D02*
D03*
X1628140Y327660D02*
D03*
X853440Y518160D02*
D03*
X878840Y515620D02*
D03*
X871220Y414020D02*
D03*
X726440Y259080D02*
D03*
X728980Y213360D02*
D03*
X812800D02*
D03*
X810260Y269240D02*
D03*
X807540Y480240D02*
D03*
X810260Y396240D02*
D03*
X982980D02*
D03*
X967740D02*
D03*
X996440Y396206D02*
D03*
X1031240Y353060D02*
D03*
Y419100D02*
D03*
X1021080Y431800D02*
D03*
X1008380Y437600D02*
D03*
X1016000Y447040D02*
D03*
X1379220Y406400D02*
D03*
X1447800Y599440D02*
D03*
X1457960D02*
D03*
Y566420D02*
D03*
X1447800Y574040D02*
D03*
X1432560Y551180D02*
D03*
Y467360D02*
D03*
X1330200Y452363D02*
D03*
X1361440Y408940D02*
D03*
X1343520Y449920D02*
D03*
X1361440Y449580D02*
D03*
X683260Y787400D02*
D03*
X693779Y764181D02*
D03*
X845820Y764540D02*
D03*
Y782320D02*
D03*
X837179Y773181D02*
D03*
X756920Y711200D02*
D03*
X678481Y818181D02*
D03*
X690471Y809181D02*
D03*
X675640Y800100D02*
D03*
X684699Y831681D02*
D03*
X783741Y601668D02*
D03*
X393700Y637540D02*
D03*
X284480Y406400D02*
D03*
X304800Y408940D02*
D03*
X349381Y438281D02*
D03*
X350139Y470281D02*
D03*
X323571Y460731D02*
D03*
X243840Y406400D02*
D03*
X258581Y406899D02*
D03*
X330200Y755650D02*
D03*
X283254Y810304D02*
D03*
X330200Y806450D02*
D03*
Y831850D02*
D03*
Y819150D02*
D03*
X508000Y787400D02*
D03*
X1487678Y322072D02*
D03*
X1711960Y706120D02*
D03*
X1727014Y706713D02*
D03*
X1696720Y706120D02*
D03*
X106680Y667106D02*
D03*
Y645160D02*
D03*
X212904Y168397D02*
D03*
Y149347D02*
D03*
X193854D02*
D03*
Y168397D02*
D03*
X139700Y234950D02*
D03*
Y215900D02*
D03*
Y196850D02*
D03*
X114300Y234950D02*
D03*
Y215900D02*
D03*
Y196850D02*
D03*
X133350Y127000D02*
D03*
X158750D02*
D03*
X82550D02*
D03*
X107950D02*
D03*
X31750D02*
D03*
X57150D02*
D03*
Y76200D02*
D03*
X31750D02*
D03*
X63500Y184150D02*
D03*
Y209550D02*
D03*
X82550Y184150D02*
D03*
Y209550D02*
D03*
X57150Y57150D02*
D03*
X31750D02*
D03*
X82550Y38100D02*
D03*
X107950D02*
D03*
X158750Y57150D02*
D03*
X133350D02*
D03*
X107950D02*
D03*
X82550D02*
D03*
Y76200D02*
D03*
X107950D02*
D03*
X133350D02*
D03*
X158750D02*
D03*
X190500Y222250D02*
D03*
X234950Y158750D02*
D03*
Y177800D02*
D03*
X209550Y222250D02*
D03*
X234950Y139700D02*
D03*
X171450Y203200D02*
D03*
X254000Y101600D02*
D03*
X228600D02*
D03*
X254000Y82550D02*
D03*
X228600D02*
D03*
X254000Y63500D02*
D03*
X228600D02*
D03*
X254000Y44450D02*
D03*
X228600D02*
D03*
X203200D02*
D03*
X177800D02*
D03*
Y25400D02*
D03*
X203200D02*
D03*
X228600D02*
D03*
X254000D02*
D03*
X171450Y222250D02*
D03*
Y241300D02*
D03*
X254000Y234950D02*
D03*
X234950D02*
D03*
Y215900D02*
D03*
Y196850D02*
D03*
X254000Y139700D02*
D03*
Y158750D02*
D03*
Y177800D02*
D03*
Y196850D02*
D03*
Y215900D02*
D03*
D263*
X1841640Y675140D02*
D03*
Y682940D02*
D03*
Y690740D02*
D03*
X1824440D02*
D03*
Y682940D02*
D03*
Y675140D02*
D03*
X769741Y573480D02*
D03*
X775491Y582980D02*
D03*
X763991D02*
D03*
X769741Y592480D02*
D03*
X747760Y791531D02*
D03*
Y798831D02*
D03*
Y806181D02*
D03*
X733107Y784177D02*
D03*
X740406D02*
D03*
X747757D02*
D03*
X725740Y791531D02*
D03*
Y784181D02*
D03*
Y798831D02*
D03*
Y806181D02*
D03*
X733110D02*
D03*
X740410D02*
D03*
X1355520Y495160D02*
D03*
Y487860D02*
D03*
Y480490D02*
D03*
X1362870D02*
D03*
X1377520D02*
D03*
X1370170D02*
D03*
X1377524Y502506D02*
D03*
Y495157D02*
D03*
Y487856D02*
D03*
X1355520Y502510D02*
D03*
X1362870D02*
D03*
X1370170D02*
D03*
X381003Y799834D02*
D03*
Y807134D02*
D03*
Y814484D02*
D03*
X366350Y792480D02*
D03*
X373650D02*
D03*
X381000D02*
D03*
X358983Y799834D02*
D03*
Y792484D02*
D03*
Y807134D02*
D03*
Y814484D02*
D03*
X366353D02*
D03*
X373653D02*
D03*
X1581480Y740000D02*
D03*
X1570480D02*
D03*
X1559480D02*
D03*
X1548480D02*
D03*
X1537480D02*
D03*
X1581480Y751000D02*
D03*
X1570480D02*
D03*
X1559480D02*
D03*
X1548480D02*
D03*
X1537480D02*
D03*
X1581480Y762000D02*
D03*
X1570480D02*
D03*
X1559480D02*
D03*
X1548480D02*
D03*
X1537480D02*
D03*
X1581480Y773000D02*
D03*
X1570480D02*
D03*
X1559480D02*
D03*
X1548480D02*
D03*
X1537480D02*
D03*
X1581480Y784000D02*
D03*
X1570480D02*
D03*
X1559480D02*
D03*
X1548480D02*
D03*
X1537480D02*
D03*
X1709754Y462765D02*
D03*
X1699754D02*
D03*
Y482765D02*
D03*
X1689754D02*
D03*
Y462765D02*
D03*
Y472765D02*
D03*
X1699754D02*
D03*
X1709754Y482765D02*
D03*
Y472765D02*
D03*
X1519340Y286170D02*
D03*
Y275170D02*
D03*
X1508340Y286170D02*
D03*
Y275170D02*
D03*
X924950Y455950D02*
D03*
Y463250D02*
D03*
Y470600D02*
D03*
X910296Y448596D02*
D03*
X917597D02*
D03*
X924947D02*
D03*
X902930Y455950D02*
D03*
Y448600D02*
D03*
Y463250D02*
D03*
Y470600D02*
D03*
X910300D02*
D03*
X917600D02*
D03*
X1858440Y387760D02*
D03*
X1869440D02*
D03*
X1880440D02*
D03*
X1891440D02*
D03*
X1902440D02*
D03*
X1858440Y376760D02*
D03*
X1869440D02*
D03*
X1880440D02*
D03*
X1891440D02*
D03*
X1902440D02*
D03*
X1858440Y365760D02*
D03*
X1869440D02*
D03*
X1880440D02*
D03*
X1891440D02*
D03*
X1902440D02*
D03*
X1858440Y354760D02*
D03*
X1869440D02*
D03*
X1880440D02*
D03*
X1891440D02*
D03*
X1902440D02*
D03*
X1858440Y343760D02*
D03*
X1869440D02*
D03*
X1880440D02*
D03*
X1891440D02*
D03*
X1902440D02*
D03*
X1540920Y522830D02*
D03*
X1529920D02*
D03*
X1518920D02*
D03*
X1507920D02*
D03*
X1496920D02*
D03*
X1540920Y533830D02*
D03*
X1529920D02*
D03*
X1518920D02*
D03*
X1507920D02*
D03*
X1496920D02*
D03*
X1540920Y544830D02*
D03*
X1529920D02*
D03*
X1518920D02*
D03*
X1507920D02*
D03*
X1496920D02*
D03*
X1540920Y555830D02*
D03*
X1529920D02*
D03*
X1518920D02*
D03*
X1507920D02*
D03*
X1496920D02*
D03*
X1540920Y566830D02*
D03*
X1529920D02*
D03*
X1518920D02*
D03*
X1507920D02*
D03*
X1496920D02*
D03*
X900880Y197280D02*
D03*
Y208280D02*
D03*
Y219280D02*
D03*
X911880Y197280D02*
D03*
Y208280D02*
D03*
Y219280D02*
D03*
X922880Y197280D02*
D03*
Y208280D02*
D03*
Y219280D02*
D03*
X933880Y197280D02*
D03*
Y208280D02*
D03*
Y219280D02*
D03*
X944880Y197280D02*
D03*
Y208280D02*
D03*
Y219280D02*
D03*
X955880Y197280D02*
D03*
Y208280D02*
D03*
Y219280D02*
D03*
X966880Y197280D02*
D03*
Y208280D02*
D03*
Y219280D02*
D03*
X977880Y197280D02*
D03*
Y208280D02*
D03*
Y219280D02*
D03*
X988880Y197280D02*
D03*
Y208280D02*
D03*
Y219280D02*
D03*
D264*
X1011760Y742110D02*
D03*
X889259Y577850D02*
D03*
Y694436D02*
D03*
X862330Y566420D02*
D03*
X1384935Y365125D02*
D03*
X1445260Y350520D02*
D03*
X350054Y861864D02*
D03*
X388484Y745627D02*
D03*
X410210Y713740D02*
D03*
X403860D02*
D03*
Y736600D02*
D03*
X410210D02*
D03*
X1079754Y805434D02*
D03*
X1079500Y773305D02*
D03*
X1031750Y773940D02*
D03*
X987390Y687999D02*
D03*
X995423Y731520D02*
D03*
X1005141Y704381D02*
D03*
X983068Y714414D02*
D03*
X939148Y724322D02*
D03*
X1019808Y703428D02*
D03*
X913130Y714248D02*
D03*
X930275Y724535D02*
D03*
X898652Y617220D02*
D03*
X902462Y645668D02*
D03*
X896874Y680466D02*
D03*
X895096Y690118D02*
D03*
X1018494Y713532D02*
D03*
X1006475Y741045D02*
D03*
X981075Y737489D02*
D03*
X964565Y726313D02*
D03*
X955262Y726440D02*
D03*
X955548Y749300D02*
D03*
X963393Y704216D02*
D03*
X998728Y747014D02*
D03*
X976122Y751840D02*
D03*
X931164Y743966D02*
D03*
X912368Y720344D02*
D03*
X955262Y704302D02*
D03*
X909320Y619760D02*
D03*
X1003998Y647999D02*
D03*
X1012446Y647999D02*
D03*
X1244600Y675640D02*
D03*
X1194562Y386334D02*
D03*
X1313709Y664113D02*
D03*
X1305146Y665551D02*
D03*
X1310386Y626110D02*
D03*
X1299998Y637413D02*
D03*
X1289998Y640100D02*
D03*
X1319530Y635101D02*
D03*
X1315146Y675551D02*
D03*
X1279998Y639003D02*
D03*
X1245870Y665480D02*
D03*
X1285113Y684097D02*
D03*
X1275588Y694563D02*
D03*
X1233810Y664210D02*
D03*
X1274826Y714756D02*
D03*
X1265118Y695020D02*
D03*
X1264920Y674878D02*
D03*
X1254445Y675147D02*
D03*
Y685147D02*
D03*
X1325146Y675551D02*
D03*
X1304849Y684446D02*
D03*
X1325146Y695551D02*
D03*
Y685551D02*
D03*
X1345146Y675551D02*
D03*
X1355146D02*
D03*
X1344445Y685147D02*
D03*
X1335146Y685551D02*
D03*
Y665551D02*
D03*
X1315550Y694850D02*
D03*
X1335146Y705551D02*
D03*
X1325146Y715551D02*
D03*
X1374902Y854964D02*
D03*
X1354582Y883920D02*
D03*
X1275080Y875030D02*
D03*
X1295146Y854964D02*
D03*
X1325118D02*
D03*
X1354836Y865124D02*
D03*
X1365486Y844913D02*
D03*
X1354029Y845820D02*
D03*
X1364509Y855084D02*
D03*
Y895084D02*
D03*
X1374913Y894510D02*
D03*
X1364509Y875084D02*
D03*
X1365083Y865488D02*
D03*
X1354913Y874510D02*
D03*
X1354509Y895084D02*
D03*
Y905084D02*
D03*
X1365083Y765488D02*
D03*
X1334509Y775084D02*
D03*
X1345486Y754913D02*
D03*
X1334509Y755084D02*
D03*
X1324509D02*
D03*
X1304913Y764510D02*
D03*
Y784510D02*
D03*
X1305083Y795488D02*
D03*
X1275083Y815488D02*
D03*
X1285083D02*
D03*
X1274509Y825084D02*
D03*
X1284913Y824510D02*
D03*
X1295405Y825909D02*
D03*
X1345486Y784913D02*
D03*
X1324509Y795084D02*
D03*
X1314509Y805084D02*
D03*
X1304509D02*
D03*
X1325486Y824913D02*
D03*
X1304913Y824510D02*
D03*
X1314509Y825084D02*
D03*
X1304509Y885084D02*
D03*
X1315720Y885190D02*
D03*
X1294509Y885084D02*
D03*
Y865084D02*
D03*
X1315083Y865488D02*
D03*
X1324509Y845084D02*
D03*
X1335486Y814913D02*
D03*
X1345083Y825488D02*
D03*
X1335083Y835488D02*
D03*
X1315197Y893265D02*
D03*
X1304509Y875084D02*
D03*
X1304445Y863730D02*
D03*
X1294798Y893264D02*
D03*
X1284509Y855084D02*
D03*
X1274509D02*
D03*
X1294509Y845084D02*
D03*
X1304913Y844510D02*
D03*
X1305486Y894913D02*
D03*
X1324913Y874510D02*
D03*
X1314509Y875084D02*
D03*
X1324913Y864510D02*
D03*
X1344509Y885084D02*
D03*
Y875084D02*
D03*
X1335083Y865488D02*
D03*
X1345083D02*
D03*
X1344913Y854510D02*
D03*
X1355083Y855488D02*
D03*
X1345083Y845488D02*
D03*
X1335486Y844913D02*
D03*
X1304913Y834510D02*
D03*
X1314913D02*
D03*
X1314450Y854710D02*
D03*
X1314913Y844510D02*
D03*
X1265047Y855250D02*
D03*
Y865199D02*
D03*
X1265157Y875360D02*
D03*
X1284849Y864446D02*
D03*
X1285146Y875551D02*
D03*
X1254998Y887048D02*
D03*
X1255349Y895350D02*
D03*
X1215286Y854710D02*
D03*
X1195098Y854870D02*
D03*
X1315146Y685551D02*
D03*
X1305550Y694850D02*
D03*
Y674850D02*
D03*
X1285240Y635000D02*
D03*
X1284849Y674446D02*
D03*
X1273810Y664210D02*
D03*
X1274048Y684453D02*
D03*
X1195070Y864870D02*
D03*
X1184910Y786130D02*
D03*
X1175146Y785551D02*
D03*
X1205230Y755650D02*
D03*
X1296670Y725170D02*
D03*
X1315085Y714375D02*
D03*
X1324445Y765147D02*
D03*
X1355146Y765551D02*
D03*
X1355090Y784860D02*
D03*
X1334770Y793750D02*
D03*
X1335606Y825500D02*
D03*
X1323514Y834619D02*
D03*
X1235146Y745551D02*
D03*
X1270000Y637641D02*
D03*
X1295550Y664850D02*
D03*
X1294384Y655574D02*
D03*
X1285550Y664850D02*
D03*
X1274849Y674446D02*
D03*
X1294445Y675147D02*
D03*
X1294849Y684446D02*
D03*
X1295908Y704596D02*
D03*
X1244849Y824446D02*
D03*
X1234849Y774446D02*
D03*
X1384445Y655147D02*
D03*
X1355146Y665551D02*
D03*
X1354445Y685147D02*
D03*
X1385146Y705551D02*
D03*
X1354445Y725147D02*
D03*
X1295146Y695551D02*
D03*
X1325146Y735551D02*
D03*
X1374445Y785147D02*
D03*
X1374445Y825147D02*
D03*
Y865147D02*
D03*
X1384849Y894446D02*
D03*
X1334849Y884446D02*
D03*
X1245146Y865551D02*
D03*
X1265550Y884850D02*
D03*
X1225550D02*
D03*
X1225146Y895551D02*
D03*
X1144445Y785147D02*
D03*
X1204849Y774446D02*
D03*
Y724446D02*
D03*
X1224788Y685546D02*
D03*
X1185164Y640588D02*
D03*
X1253810Y694210D02*
D03*
X1354445Y705147D02*
D03*
X1375146Y665551D02*
D03*
X1203766Y705541D02*
D03*
X1187196Y705612D02*
D03*
X1184148Y694436D02*
D03*
X1193631Y705358D02*
D03*
X1173634Y674525D02*
D03*
X1174496Y684588D02*
D03*
X1156191Y663685D02*
D03*
X1255146Y715551D02*
D03*
X1254445Y725147D02*
D03*
X1305146Y715551D02*
D03*
X1315146Y735551D02*
D03*
X1385146Y685551D02*
D03*
X1305146Y855551D02*
D03*
X1345146Y835551D02*
D03*
Y815551D02*
D03*
X1335146Y805551D02*
D03*
X1365146Y785551D02*
D03*
X1374445Y805147D02*
D03*
X1365146Y835551D02*
D03*
X1374445Y845147D02*
D03*
X1377152Y923856D02*
D03*
X1346131Y923453D02*
D03*
X1374849Y874446D02*
D03*
X1334445Y855147D02*
D03*
Y875147D02*
D03*
X1324610Y885190D02*
D03*
X1164590Y910590D02*
D03*
X1198880Y909320D02*
D03*
X1184910Y744220D02*
D03*
X1205230Y764540D02*
D03*
X1215146Y665551D02*
D03*
X1345550Y694850D02*
D03*
X1335146Y695551D02*
D03*
X1345146Y735551D02*
D03*
X1365550Y734850D02*
D03*
X1374849Y734446D02*
D03*
X1374445Y725147D02*
D03*
X1355146Y755551D02*
D03*
X1374849Y754446D02*
D03*
X1245550Y764850D02*
D03*
X1245146Y745551D02*
D03*
X1255550Y744850D02*
D03*
X1275550Y734850D02*
D03*
X1264849Y754446D02*
D03*
X1265550Y744850D02*
D03*
X1255550Y764850D02*
D03*
X1265146Y765551D02*
D03*
X1285550Y754850D02*
D03*
X1275146Y775551D02*
D03*
X1274849Y764446D02*
D03*
X1275146Y755551D02*
D03*
X1274849Y744446D02*
D03*
X1295550Y734850D02*
D03*
X1295146Y755551D02*
D03*
X1305146D02*
D03*
Y775551D02*
D03*
X1284445Y775147D02*
D03*
Y765147D02*
D03*
X1315550Y774850D02*
D03*
X1314849Y784446D02*
D03*
X1304849Y814446D02*
D03*
X1294849Y804446D02*
D03*
X1284445Y845147D02*
D03*
X1285550Y834850D02*
D03*
X1274445Y865147D02*
D03*
X1294928Y875099D02*
D03*
X1274849Y884446D02*
D03*
X1245550Y884850D02*
D03*
X1254849Y854446D02*
D03*
X1224445Y845147D02*
D03*
X1234849Y844446D02*
D03*
X1195550Y844850D02*
D03*
X1225550Y864850D02*
D03*
X1145550Y894850D02*
D03*
X1205146Y895551D02*
D03*
X1174445Y895147D02*
D03*
X1155550Y874850D02*
D03*
X1164849Y874446D02*
D03*
X1184849Y864446D02*
D03*
X1164445Y865147D02*
D03*
X1155146Y865551D02*
D03*
X1164849Y834446D02*
D03*
X1155146Y805551D02*
D03*
Y825551D02*
D03*
X1155550Y834850D02*
D03*
X1175550Y824850D02*
D03*
X1204849Y834446D02*
D03*
X1194849Y824446D02*
D03*
X1195146Y805551D02*
D03*
X1184849Y814446D02*
D03*
X1225146Y815551D02*
D03*
X1245146D02*
D03*
X1284849Y804446D02*
D03*
X1254445Y815147D02*
D03*
X1265146Y805551D02*
D03*
X1295146Y785551D02*
D03*
X1284849Y784446D02*
D03*
X1295550Y794850D02*
D03*
X1285550D02*
D03*
X1264849Y794446D02*
D03*
X1244849D02*
D03*
X1224849D02*
D03*
X1234849D02*
D03*
X1234849Y784446D02*
D03*
X1244763Y784929D02*
D03*
X1275550Y784850D02*
D03*
X1265550D02*
D03*
X1254445Y785147D02*
D03*
X1264849Y774446D02*
D03*
X1254445Y775147D02*
D03*
X1255550Y754850D02*
D03*
X1224849Y754446D02*
D03*
X1245550Y754850D02*
D03*
X1234445Y755147D02*
D03*
X1215390Y735330D02*
D03*
X1215146Y705551D02*
D03*
X1225550Y704850D02*
D03*
X1103122Y685994D02*
D03*
X1164455D02*
D03*
X1184346Y755650D02*
D03*
X1169998Y638810D02*
D03*
X972130Y703999D02*
D03*
X958850Y754380D02*
D03*
X956310Y664210D02*
D03*
X985901Y616077D02*
D03*
X755136Y616706D02*
D03*
X839470Y662940D02*
D03*
X850265Y668655D02*
D03*
X854075Y724535D02*
D03*
X845185Y723265D02*
D03*
X854075Y700405D02*
D03*
X845185D02*
D03*
X889000Y566420D02*
D03*
X900430Y750570D02*
D03*
X993140Y778510D02*
D03*
X981710D02*
D03*
X863600Y736600D02*
D03*
Y702310D02*
D03*
X864870Y668020D02*
D03*
X862330Y656590D02*
D03*
Y645160D02*
D03*
Y633730D02*
D03*
Y622300D02*
D03*
Y610870D02*
D03*
Y599440D02*
D03*
Y588010D02*
D03*
Y577850D02*
D03*
X1019998Y655999D02*
D03*
X1011998D02*
D03*
X1003998D02*
D03*
X987390Y695932D02*
D03*
X978671Y687999D02*
D03*
X906780Y750570D02*
D03*
X918210Y748030D02*
D03*
X909826Y644396D02*
D03*
X902970Y652780D02*
D03*
X889000Y656590D02*
D03*
X948690Y664210D02*
D03*
X947838Y655867D02*
D03*
X956310Y656438D02*
D03*
X960120Y683260D02*
D03*
X919480Y702310D02*
D03*
X993140Y750690D02*
D03*
X1004826Y695971D02*
D03*
X995730Y695999D02*
D03*
X996444Y688304D02*
D03*
X1035364Y677478D02*
D03*
X989479Y669283D02*
D03*
X1084685Y658219D02*
D03*
X1030343Y682150D02*
D03*
X1089660Y662940D02*
D03*
X982624Y669477D02*
D03*
X901700Y688848D02*
D03*
Y681990D02*
D03*
X900430Y716280D02*
D03*
X928370Y709930D02*
D03*
X938999Y704155D02*
D03*
X947998Y647735D02*
D03*
X924560Y751840D02*
D03*
X947130Y704057D02*
D03*
X981710Y754380D02*
D03*
X970280D02*
D03*
X947420D02*
D03*
X935990D02*
D03*
X1174455Y696066D02*
D03*
X1176065Y705541D02*
D03*
X1135380Y619760D02*
D03*
X963491Y696505D02*
D03*
X955998D02*
D03*
X963998Y687867D02*
D03*
X947998Y696505D02*
D03*
X948373Y688374D02*
D03*
X939800Y648462D02*
D03*
X939690Y640224D02*
D03*
X948946Y639886D02*
D03*
X964185Y639995D02*
D03*
X974598Y630704D02*
D03*
X1008383Y677866D02*
D03*
X1154684Y715010D02*
D03*
X1154998Y704999D02*
D03*
X1018047Y684335D02*
D03*
X1144998Y704999D02*
D03*
X1018553Y677496D02*
D03*
X1154176Y695706D02*
D03*
X1099312Y682754D02*
D03*
X1154166Y725616D02*
D03*
X1104847Y702292D02*
D03*
X1019556Y697230D02*
D03*
X1164082Y725932D02*
D03*
X1166622Y695198D02*
D03*
X1164604Y705090D02*
D03*
X1144287Y655303D02*
D03*
X1184910Y724303D02*
D03*
X1123950Y739473D02*
D03*
X1085736Y724014D02*
D03*
X969747Y640037D02*
D03*
X1062321Y687329D02*
D03*
X1060704Y712978D02*
D03*
X1123691Y698246D02*
D03*
X1007618Y668341D02*
D03*
X1028446Y704342D02*
D03*
X1036320Y703834D02*
D03*
X1028400Y713532D02*
D03*
X1034542Y713994D02*
D03*
X1050290Y714248D02*
D03*
X1042670Y713740D02*
D03*
X1011998Y703998D02*
D03*
X1043201Y703996D02*
D03*
X1051560Y703072D02*
D03*
X1099785Y706918D02*
D03*
X1085088Y709995D02*
D03*
X1174242Y716377D02*
D03*
X1165540Y713932D02*
D03*
X1077722Y650748D02*
D03*
X1019599Y640266D02*
D03*
X1027998D02*
D03*
X1116330Y657352D02*
D03*
X1059089Y648267D02*
D03*
X1035998Y640136D02*
D03*
Y648267D02*
D03*
X1059266Y640086D02*
D03*
X1035998Y656589D02*
D03*
X1044223Y656529D02*
D03*
X979932Y647954D02*
D03*
X987806Y639826D02*
D03*
X1174496Y725110D02*
D03*
X971998Y687999D02*
D03*
X1012446Y640266D02*
D03*
X1043998D02*
D03*
X1051560Y640332D02*
D03*
X1027981Y648464D02*
D03*
X963930Y647700D02*
D03*
X972058Y647954D02*
D03*
X987998Y647999D02*
D03*
X988491Y655514D02*
D03*
X1185104Y685038D02*
D03*
X1144276Y646066D02*
D03*
X1025144Y678942D02*
D03*
X978671Y696373D02*
D03*
X1132840Y764542D02*
D03*
X1130300Y745490D02*
D03*
X1195578Y715518D02*
D03*
X1184546Y715882D02*
D03*
X1144998Y764999D02*
D03*
X1154998Y764999D02*
D03*
X1080770Y730250D02*
D03*
X1164590Y673100D02*
D03*
X979170Y666750D02*
D03*
X972036Y695999D02*
D03*
X1003998Y640266D02*
D03*
X1214600Y725043D02*
D03*
X1154430Y655320D02*
D03*
X1153931Y684456D02*
D03*
X955998Y639999D02*
D03*
X1134529Y684530D02*
D03*
X1019998Y647999D02*
D03*
X1144529Y684530D02*
D03*
X1125220Y769620D02*
D03*
X1175169Y755406D02*
D03*
X1154590Y755170D02*
D03*
X1154998Y744999D02*
D03*
X1144998D02*
D03*
X1195406Y744827D02*
D03*
X1194826Y734591D02*
D03*
X1185169Y735406D02*
D03*
X1175169D02*
D03*
X508000Y949960D02*
D03*
D265*
X853440Y452120D02*
D03*
X1360416Y639999D02*
D03*
X1536030Y932688D02*
D03*
X538480Y716280D02*
D03*
X537210Y753110D02*
D03*
Y787400D02*
D03*
X454660Y712470D02*
D03*
X455930Y728980D02*
D03*
X457200Y741680D02*
D03*
X439420Y740410D02*
D03*
X419100D02*
D03*
X471170Y763270D02*
D03*
X481330Y756920D02*
D03*
X480060Y772160D02*
D03*
X1577340Y259080D02*
D03*
X1573530Y275590D02*
D03*
Y299720D02*
D03*
X1593850D02*
D03*
Y285750D02*
D03*
Y271780D02*
D03*
Y257810D02*
D03*
X1468120Y297180D02*
D03*
X1469390Y266700D02*
D03*
X1479550D02*
D03*
X1487678Y310803D02*
D03*
X1536700Y318770D02*
D03*
X1560830D02*
D03*
X1579880D02*
D03*
X1569720D02*
D03*
X843280Y970280D02*
D03*
X1631950Y424180D02*
D03*
X1659890Y674370D02*
D03*
X1435100Y579120D02*
D03*
X1408430Y292100D02*
D03*
X1394460Y375920D02*
D03*
X741680Y713740D02*
D03*
X721311Y699770D02*
D03*
X332740Y772160D02*
D03*
X316061Y779949D02*
D03*
X378460Y737870D02*
D03*
X1162050Y222250D02*
D03*
X1006180Y270850D02*
D03*
X1045464Y482600D02*
D03*
X1063498Y414782D02*
D03*
X1067562Y377952D02*
D03*
X1102614D02*
D03*
X1103122Y425704D02*
D03*
X1148080Y482346D02*
D03*
X949452Y381762D02*
D03*
X926084Y383921D02*
D03*
X873506Y482600D02*
D03*
X873794Y464600D02*
D03*
X874255Y473600D02*
D03*
X876331Y428600D02*
D03*
X827618Y969940D02*
D03*
X826938Y888660D02*
D03*
X1158240Y421640D02*
D03*
X1226860Y431760D02*
D03*
X1284870Y550420D02*
D03*
Y594360D02*
D03*
X1205230Y639034D02*
D03*
X1169670Y379730D02*
D03*
X1254000Y594360D02*
D03*
X1153160Y608330D02*
D03*
X1178560Y633730D02*
D03*
X1195070Y638695D02*
D03*
X1371600Y586740D02*
D03*
X1435100Y562610D02*
D03*
X1313815Y483235D02*
D03*
X1447800Y513080D02*
D03*
X1457960D02*
D03*
X1447800Y495300D02*
D03*
X1457960D02*
D03*
X1430655Y531495D02*
D03*
X1431290Y521970D02*
D03*
X1431925Y511175D02*
D03*
X1429385Y502285D02*
D03*
X1398270Y450850D02*
D03*
X1387475Y451485D02*
D03*
X1385990Y586740D02*
D03*
X1433830Y604520D02*
D03*
X1466850Y632460D02*
D03*
X1427480D02*
D03*
X1468120Y697230D02*
D03*
X1427480Y695960D02*
D03*
X1502410Y775970D02*
D03*
X1503320Y784500D02*
D03*
X1513840Y806450D02*
D03*
X1461770Y789940D02*
D03*
Y798830D02*
D03*
X1484630Y828040D02*
D03*
X1642110Y845820D02*
D03*
X1660095Y858725D02*
D03*
X1604334Y869626D02*
D03*
X1604010Y909320D02*
D03*
X1521890Y833960D02*
D03*
X1427480Y916940D02*
D03*
X1468120Y915670D02*
D03*
Y848360D02*
D03*
X1427480D02*
D03*
X1230120Y594360D02*
D03*
X1254000Y550670D02*
D03*
X1230120Y551690D02*
D03*
X1178560Y574040D02*
D03*
X1179830Y614680D02*
D03*
X1249680Y127000D02*
D03*
X1160780Y401320D02*
D03*
X1155700Y383540D02*
D03*
X1163699Y374779D02*
D03*
X1193050Y334530D02*
D03*
X1221498Y332982D02*
D03*
X1211580Y332740D02*
D03*
X1201420D02*
D03*
X1180858Y467118D02*
D03*
X1191260Y467360D02*
D03*
X1201420D02*
D03*
X1221740Y474980D02*
D03*
X1211338Y479818D02*
D03*
X1221498Y464578D02*
D03*
X1231658D02*
D03*
X1290320Y381000D02*
D03*
Y391160D02*
D03*
Y401320D02*
D03*
Y411480D02*
D03*
Y421640D02*
D03*
Y431800D02*
D03*
Y441960D02*
D03*
X1403350Y113030D02*
D03*
Y133350D02*
D03*
X1280160Y236220D02*
D03*
X1383792Y90932D02*
D03*
X1228090Y184150D02*
D03*
X1291590Y185420D02*
D03*
X1296035Y217170D02*
D03*
X1287145D02*
D03*
X1223645Y218440D02*
D03*
X1232535D02*
D03*
X1259840Y215900D02*
D03*
X1162558Y255778D02*
D03*
X1190625Y285115D02*
D03*
X1167259Y425579D02*
D03*
Y415419D02*
D03*
X1166751Y405259D02*
D03*
X1152652Y394716D02*
D03*
X1166243Y395099D02*
D03*
X1176413Y366407D02*
D03*
X1279398Y454152D02*
D03*
X1197102Y370840D02*
D03*
X1161108Y621866D02*
D03*
X697230Y680720D02*
D03*
X736092Y654812D02*
D03*
X759460Y655320D02*
D03*
Y666750D02*
D03*
X762000Y600710D02*
D03*
X730250Y585470D02*
D03*
X746760Y582930D02*
D03*
Y596900D02*
D03*
Y566420D02*
D03*
X829200Y586630D02*
D03*
X819040D02*
D03*
X802880Y575550D02*
D03*
X770890Y557530D02*
D03*
X810381Y548761D02*
D03*
X800221D02*
D03*
X828675Y612140D02*
D03*
X830978Y603648D02*
D03*
X818278D02*
D03*
X818890Y642360D02*
D03*
X911860Y779780D02*
D03*
X248421Y571881D02*
D03*
X263661D02*
D03*
X278901D02*
D03*
X294141D02*
D03*
X286521Y564261D02*
D03*
X256041D02*
D03*
X294141Y556641D02*
D03*
X278901D02*
D03*
X263661D02*
D03*
X248421D02*
D03*
X286521Y549021D02*
D03*
X256041D02*
D03*
X294141Y541401D02*
D03*
X278901D02*
D03*
X263661D02*
D03*
X248421D02*
D03*
X286521Y533781D02*
D03*
X256041D02*
D03*
X294141Y526161D02*
D03*
X278901D02*
D03*
X263661D02*
D03*
X248421D02*
D03*
X286521Y518541D02*
D03*
X271281D02*
D03*
X256041D02*
D03*
X294141Y510921D02*
D03*
X278901D02*
D03*
X263661D02*
D03*
X286521Y503301D02*
D03*
X271281D02*
D03*
X294141Y495681D02*
D03*
X278901D02*
D03*
X263661D02*
D03*
X248421D02*
D03*
Y510921D02*
D03*
X256041Y503301D02*
D03*
X271281Y564261D02*
D03*
Y549021D02*
D03*
Y533781D02*
D03*
D266*
X690880Y777240D02*
D03*
X754380Y723900D02*
D03*
X736600Y728980D02*
D03*
X731520Y850900D02*
D03*
X792480Y650240D02*
D03*
X775829Y661811D02*
D03*
X783741Y613561D02*
D03*
X228600Y436880D02*
D03*
X258581Y436532D02*
D03*
X1000760Y782574D02*
D03*
D267*
X1860280Y558640D02*
D03*
Y548640D02*
D03*
Y538640D02*
D03*
X1870280D02*
D03*
Y548640D02*
D03*
Y558640D02*
D03*
X1880280D02*
D03*
Y548640D02*
D03*
Y538640D02*
D03*
X1642500Y291220D02*
D03*
X1652500D02*
D03*
X1662500D02*
D03*
Y301220D02*
D03*
X1652500D02*
D03*
X1642500D02*
D03*
Y311220D02*
D03*
X1652500D02*
D03*
X1662500D02*
D03*
X1691320Y604680D02*
D03*
Y614680D02*
D03*
Y624680D02*
D03*
X1681320D02*
D03*
Y614680D02*
D03*
Y604680D02*
D03*
X1671320D02*
D03*
Y614680D02*
D03*
Y624680D02*
D03*
M02*
