G04*
G04 #@! TF.GenerationSoftware,Altium Limited,Altium Designer,23.11.1 (41)*
G04*
G04 Layer_Color=32896*
%FSLAX44Y44*%
%MOMM*%
G71*
G04*
G04 #@! TF.SameCoordinates,2A2BF33C-356B-47B5-B991-195B9626E357*
G04*
G04*
G04 #@! TF.FilePolarity,Positive*
G04*
G01*
G75*
%ADD10C,0.2540*%
%ADD11C,0.1270*%
%ADD14C,0.1524*%
%ADD15C,0.2000*%
%ADD16C,0.1999*%
%ADD17C,0.0762*%
%ADD280C,0.1000*%
D10*
X917807Y284226D02*
G03*
X917807Y284226I-359J0D01*
G01*
Y309626D02*
G03*
X917807Y309626I-359J0D01*
G01*
X895455Y320802D02*
G03*
X895455Y320802I-359J0D01*
G01*
X1017375D02*
G03*
X1017375Y320802I-359J0D01*
G01*
X1013311Y302514D02*
G03*
X1013311Y302514I-359J0D01*
G01*
Y327914D02*
G03*
X1013311Y327914I-359J0D01*
G01*
X1281557Y787908D02*
Y807212D01*
X1248283Y787908D02*
X1281557D01*
X1248283D02*
Y807212D01*
X1281557D01*
X1215263Y712978D02*
Y732282D01*
X1248537D01*
Y712978D02*
Y732282D01*
X1215263Y712978D02*
X1248537D01*
X1356868Y674243D02*
Y707517D01*
Y674243D02*
X1376172D01*
Y707517D01*
X1356868D02*
X1376172D01*
X1339723Y792988D02*
Y812292D01*
X1372997D01*
Y792988D02*
Y812292D01*
X1339723Y792988D02*
X1372997D01*
X1273937Y833628D02*
Y852932D01*
X1240663Y833628D02*
X1273937D01*
X1240663D02*
Y852932D01*
X1273937D01*
X1148361Y840346D02*
Y859650D01*
X1181635D01*
Y840346D02*
Y859650D01*
X1148361Y840346D02*
X1181635D01*
X1173099Y876046D02*
Y895350D01*
X1206373D01*
Y876046D02*
Y895350D01*
X1173099Y876046D02*
X1206373D01*
X1172083Y781812D02*
X1205357D01*
X1172083Y762508D02*
Y781812D01*
Y762508D02*
X1205357D01*
Y781812D01*
X1275588Y727837D02*
X1294892D01*
Y694563D02*
Y727837D01*
X1275588Y694563D02*
X1294892D01*
X1275588D02*
Y727837D01*
X1282065Y754888D02*
X1315339D01*
X1282065Y735584D02*
Y754888D01*
Y735584D02*
X1315339D01*
Y754888D01*
X1473120Y773684D02*
Y819912D01*
Y773684D02*
X1495980D01*
Y819912D01*
X1473120D02*
X1495980D01*
X1636950Y710946D02*
Y757174D01*
X1614090D02*
X1636950D01*
X1614090Y710946D02*
Y757174D01*
Y710946D02*
X1636950D01*
X1184414Y337949D02*
Y360809D01*
X1230642D01*
Y337949D02*
Y360809D01*
X1184414Y337949D02*
X1230642D01*
X1169670Y218186D02*
Y264414D01*
Y218186D02*
X1192530D01*
Y264414D01*
X1169670D02*
X1192530D01*
X1348740Y82296D02*
X1371600D01*
X1348740D02*
Y128524D01*
X1371600D01*
Y82296D02*
Y128524D01*
X1929970Y327914D02*
X1952830D01*
Y281686D02*
Y327914D01*
X1929970Y281686D02*
X1952830D01*
X1929970D02*
Y327914D01*
X1881075Y112620D02*
Y135480D01*
X1834847Y112620D02*
X1881075D01*
X1834847D02*
Y135480D01*
X1881075D01*
X1865327Y163420D02*
Y186280D01*
X1911555D01*
Y163420D02*
Y186280D01*
X1865327Y163420D02*
X1911555D01*
X1492250Y359664D02*
X1515110D01*
Y313436D02*
Y359664D01*
X1492250Y313436D02*
X1515110D01*
X1492250D02*
Y359664D01*
X1512570Y201676D02*
X1535430D01*
X1512570D02*
Y247904D01*
X1535430D01*
Y201676D02*
Y247904D01*
D11*
X1686744Y248048D02*
G03*
X1686744Y244049I0J-2000D01*
G01*
X1694421Y235081D02*
G03*
X1694421Y235081I-635J0D01*
G01*
X54370Y384232D02*
G03*
X50370Y384232I-2000J0D01*
G01*
X42037Y377190D02*
G03*
X42037Y377190I-635J0D01*
G01*
X711059Y675456D02*
G03*
X715059Y675456I2000J0D01*
G01*
X724662Y682498D02*
G03*
X724662Y682498I-635J0D01*
G01*
X1786114Y473526D02*
G03*
X1790114Y473526I2000J0D01*
G01*
X1799717Y480568D02*
G03*
X1799717Y480568I-635J0D01*
G01*
X1743526Y606566D02*
G03*
X1743526Y602566I0J-2000D01*
G01*
X1751203Y593598D02*
G03*
X1751203Y593598I-635J0D01*
G01*
X1423486Y367806D02*
G03*
X1423486Y363806I0J-2000D01*
G01*
X1431163Y354838D02*
G03*
X1431163Y354838I-635J0D01*
G01*
X1088206Y403366D02*
G03*
X1088206Y399366I0J-2000D01*
G01*
X1095883Y390398D02*
G03*
X1095883Y390398I-635J0D01*
G01*
X367100Y905660D02*
G03*
X367100Y901660I0J-2000D01*
G01*
X374777Y892692D02*
G03*
X374777Y892692I-635J0D01*
G01*
X247834Y627874D02*
G03*
X247834Y631874I0J2000D01*
G01*
X241427Y640842D02*
G03*
X241427Y640842I-635J0D01*
G01*
X397326Y291606D02*
G03*
X397326Y287606I0J-2000D01*
G01*
X405003Y278638D02*
G03*
X405003Y278638I-635J0D01*
G01*
X310966Y291606D02*
G03*
X310966Y287606I0J-2000D01*
G01*
X318643Y278638D02*
G03*
X318643Y278638I-635J0D01*
G01*
X397326Y215406D02*
G03*
X397326Y211406I0J-2000D01*
G01*
X405003Y202438D02*
G03*
X405003Y202438I-635J0D01*
G01*
X310966Y215406D02*
G03*
X310966Y211406I0J-2000D01*
G01*
X318643Y202438D02*
G03*
X318643Y202438I-635J0D01*
G01*
X1227298Y786188D02*
Y793808D01*
X1243808D01*
Y786188D02*
Y793808D01*
X1227298Y786188D02*
X1243808D01*
X1193808Y807298D02*
Y823808D01*
X1186188D02*
X1193808D01*
X1186188Y807298D02*
Y823808D01*
Y807298D02*
X1193808D01*
X1186188Y753809D02*
X1202698D01*
X1186188Y746189D02*
Y753809D01*
Y746189D02*
X1202698D01*
Y753809D01*
X1176655Y703580D02*
X1193165D01*
X1176655Y695960D02*
Y703580D01*
Y695960D02*
X1193165D01*
Y703580D01*
X1167298Y693809D02*
X1183808D01*
X1167298Y686189D02*
Y693809D01*
Y686189D02*
X1183808D01*
Y693809D01*
X1153160Y667385D02*
Y683895D01*
X1145540D02*
X1153160D01*
X1145540Y667385D02*
Y683895D01*
Y667385D02*
X1153160D01*
X1047160Y96920D02*
Y146920D01*
X1005160Y96920D02*
Y146920D01*
X1041095Y96920D02*
X1047160D01*
X1041095Y146920D02*
X1047160D01*
X1005160Y96920D02*
X1011225D01*
X1005160Y146920D02*
X1011225D01*
X996360Y96920D02*
Y146920D01*
X954360Y96920D02*
Y146920D01*
X990295Y96920D02*
X996360D01*
X990295Y146920D02*
X996360D01*
X954360Y96920D02*
X960425D01*
X954360Y146920D02*
X960425D01*
X945560Y96920D02*
Y146920D01*
X903560Y96920D02*
Y146920D01*
X939495Y96920D02*
X945560D01*
X939495Y146920D02*
X945560D01*
X903560Y96920D02*
X909625D01*
X903560Y146920D02*
X909625D01*
X894760Y96920D02*
Y146920D01*
X852760Y96920D02*
Y146920D01*
X888695Y96920D02*
X894760D01*
X888695Y146920D02*
X894760D01*
X852760Y96920D02*
X858825D01*
X852760Y146920D02*
X858825D01*
X1332865Y770890D02*
X1349375D01*
X1332865Y763270D02*
Y770890D01*
Y763270D02*
X1349375D01*
Y770890D01*
X1686744Y241549D02*
Y244049D01*
Y248048D02*
Y250548D01*
X1663744Y241549D02*
X1686744D01*
X1663744D02*
Y250548D01*
X1686744D01*
X1706994Y246628D02*
Y263139D01*
X1699374D02*
X1706994D01*
X1699374Y246628D02*
Y263139D01*
Y246628D02*
X1706994D01*
Y226308D02*
Y242819D01*
X1699374D02*
X1706994D01*
X1699374Y226308D02*
Y242819D01*
Y226308D02*
X1706994D01*
X32385Y374650D02*
X48895D01*
X32385Y367030D02*
Y374650D01*
Y367030D02*
X48895D01*
Y374650D01*
X52705Y367030D02*
X69215D01*
Y374650D01*
X52705D02*
X69215D01*
X52705Y367030D02*
Y374650D01*
X85090Y382905D02*
Y399415D01*
X77470D02*
X85090D01*
X77470Y382905D02*
Y399415D01*
Y382905D02*
X85090D01*
X47870Y384232D02*
X50370D01*
X54370D02*
X56870D01*
X47870D02*
Y407232D01*
X56870D01*
Y384232D02*
Y407232D01*
X52705Y364490D02*
X69215D01*
X52705Y356870D02*
Y364490D01*
Y356870D02*
X69215D01*
Y364490D01*
X692785Y694690D02*
X709295D01*
X692785Y687070D02*
Y694690D01*
Y687070D02*
X709295D01*
Y694690D01*
X713105Y687070D02*
X729615D01*
Y694690D01*
X713105D02*
X729615D01*
X713105Y687070D02*
Y694690D01*
X715059Y675456D02*
X717559D01*
X708559D02*
X711059D01*
X717559Y652456D02*
Y675456D01*
X708559Y652456D02*
X717559D01*
X708559D02*
Y675456D01*
X1790065Y491490D02*
X1806575D01*
X1790065Y483870D02*
Y491490D01*
Y483870D02*
X1806575D01*
Y491490D01*
X1769745D02*
X1786255D01*
X1769745Y483870D02*
Y491490D01*
Y483870D02*
X1786255D01*
Y491490D01*
X1790114Y473526D02*
X1792614D01*
X1783614D02*
X1786114D01*
X1792614Y450526D02*
Y473526D01*
X1783614Y450526D02*
X1792614D01*
X1783614D02*
Y473526D01*
X1761490Y606425D02*
Y622935D01*
X1753870D02*
X1761490D01*
X1753870Y606425D02*
Y622935D01*
Y606425D02*
X1761490D01*
X1753870Y586105D02*
Y602615D01*
Y586105D02*
X1761490D01*
Y602615D01*
X1753870D02*
X1761490D01*
X1743526Y600066D02*
Y602566D01*
Y606566D02*
Y609066D01*
X1720526Y600066D02*
X1743526D01*
X1720526D02*
Y609066D01*
X1743526D01*
X1433830Y347345D02*
Y363855D01*
Y347345D02*
X1441450D01*
Y363855D01*
X1433830D02*
X1441450D01*
X1423486Y361306D02*
Y363806D01*
Y367806D02*
Y370306D01*
X1400486Y361306D02*
X1423486D01*
X1400486D02*
Y370306D01*
X1423486D01*
X1441450Y367665D02*
Y384175D01*
X1433830D02*
X1441450D01*
X1433830Y367665D02*
Y384175D01*
Y367665D02*
X1441450D01*
X1106170Y403225D02*
Y419735D01*
X1098550D02*
X1106170D01*
X1098550Y403225D02*
Y419735D01*
Y403225D02*
X1106170D01*
X1088206Y396866D02*
Y399366D01*
Y403366D02*
Y405866D01*
X1065206Y396866D02*
X1088206D01*
X1065206D02*
Y405866D01*
X1088206D01*
X1098550Y382905D02*
Y399415D01*
Y382905D02*
X1106170D01*
Y399415D01*
X1098550D02*
X1106170D01*
X384302Y883675D02*
Y900185D01*
X376682D02*
X384302D01*
X376682Y883675D02*
Y900185D01*
Y883675D02*
X384302D01*
Y909075D02*
Y925585D01*
X376682D02*
X384302D01*
X376682Y909075D02*
Y925585D01*
Y909075D02*
X384302D01*
X367100Y899160D02*
Y901660D01*
Y905660D02*
Y908160D01*
X344100Y899160D02*
X367100D01*
X344100D02*
Y908160D01*
X367100D01*
X247834Y631874D02*
Y634374D01*
Y625374D02*
Y627874D01*
Y634374D02*
X270834D01*
Y625374D02*
Y634374D01*
X247834Y625374D02*
X270834D01*
X229870Y611505D02*
Y628015D01*
Y611505D02*
X237490D01*
Y628015D01*
X229870D02*
X237490D01*
X229870Y631825D02*
Y648335D01*
Y631825D02*
X237490D01*
Y648335D01*
X229870D02*
X237490D01*
X68580Y255905D02*
Y272415D01*
Y255905D02*
X76200D01*
Y272415D01*
X68580D02*
X76200D01*
X66040Y255905D02*
Y272415D01*
X58420D02*
X66040D01*
X58420Y255905D02*
Y272415D01*
Y255905D02*
X66040D01*
X55880D02*
Y272415D01*
X48260D02*
X55880D01*
X48260Y255905D02*
Y272415D01*
Y255905D02*
X55880D01*
X48260Y288290D02*
X64770D01*
X48260Y280670D02*
Y288290D01*
Y280670D02*
X64770D01*
Y288290D01*
X1246188Y693809D02*
X1253808D01*
Y677299D02*
Y693809D01*
X1246188Y677299D02*
X1253808D01*
X1246188D02*
Y693809D01*
X1215390Y677545D02*
Y694055D01*
Y677545D02*
X1223010D01*
Y694055D01*
X1215390D02*
X1223010D01*
X1353185Y651510D02*
Y659130D01*
X1369695D01*
Y651510D02*
Y659130D01*
X1353185Y651510D02*
X1369695D01*
X1326515Y685800D02*
Y693420D01*
X1343025D01*
Y685800D02*
Y693420D01*
X1326515Y685800D02*
X1343025D01*
X1383807Y776188D02*
Y783808D01*
X1367297Y776188D02*
X1383807D01*
X1367297D02*
Y783808D01*
X1383807D01*
X1316187Y793808D02*
X1323807D01*
Y777298D02*
Y793808D01*
X1316187Y777298D02*
X1323807D01*
X1316187D02*
Y793808D01*
X1356187Y843808D02*
X1363807D01*
Y827298D02*
Y843808D01*
X1356187Y827298D02*
X1363807D01*
X1356187D02*
Y843808D01*
X1326188Y843809D02*
X1333808D01*
Y827299D02*
Y843809D01*
X1326188Y827299D02*
X1333808D01*
X1326188D02*
Y843809D01*
X1292697Y876188D02*
Y883808D01*
X1276187Y876188D02*
X1292697D01*
X1276187D02*
Y883808D01*
X1292697D01*
X1313180Y866140D02*
Y873760D01*
X1296670Y866140D02*
X1313180D01*
X1296670D02*
Y873760D01*
X1313180D01*
X1307297Y886188D02*
Y893808D01*
X1323807D01*
Y886188D02*
Y893808D01*
X1307297Y886188D02*
X1323807D01*
X1227298Y876189D02*
X1243808D01*
Y883809D01*
X1227298D02*
X1243808D01*
X1227298Y876189D02*
Y883809D01*
X1182698Y736189D02*
Y743809D01*
X1166188Y736189D02*
X1182698D01*
X1166188D02*
Y743809D01*
X1182698D01*
X1318895Y702310D02*
Y709930D01*
X1302385Y702310D02*
X1318895D01*
X1302385D02*
Y709930D01*
X1318895D01*
X1293495Y686308D02*
Y693928D01*
X1276985Y686308D02*
X1293495D01*
X1276985D02*
Y693928D01*
X1293495D01*
X1276223Y656336D02*
Y663956D01*
X1292733D01*
Y656336D02*
Y663956D01*
X1276223Y656336D02*
X1292733D01*
X1236188Y747299D02*
Y763809D01*
Y747299D02*
X1243808D01*
Y763809D01*
X1236188D02*
X1243808D01*
X1276187Y767298D02*
Y783808D01*
Y767298D02*
X1283807D01*
Y783808D01*
X1276187D02*
X1283807D01*
X1246505Y783590D02*
X1263015D01*
X1246505Y775970D02*
Y783590D01*
Y775970D02*
X1263015D01*
Y783590D01*
X1146188Y796189D02*
Y812699D01*
Y796189D02*
X1153808D01*
Y812699D01*
X1146188D02*
X1153808D01*
X1196188Y856188D02*
Y863808D01*
X1212698D01*
Y856188D02*
Y863808D01*
X1196188Y856188D02*
X1212698D01*
X1246505Y864870D02*
Y872490D01*
X1263015D01*
Y864870D02*
Y872490D01*
X1246505Y864870D02*
X1263015D01*
X1227298Y886188D02*
Y893808D01*
X1243808D01*
Y886188D02*
Y893808D01*
X1227298Y886188D02*
X1243808D01*
X1586150Y690245D02*
X1593770D01*
X1586150D02*
Y706755D01*
X1593770D01*
Y690245D02*
Y706755D01*
X728345Y829310D02*
X744855D01*
Y836930D01*
X728345D02*
X744855D01*
X728345Y829310D02*
Y836930D01*
X702310Y768985D02*
Y785495D01*
Y768985D02*
X709930D01*
Y785495D01*
X702310D02*
X709930D01*
X738505Y745490D02*
X755015D01*
X738505Y737870D02*
Y745490D01*
Y737870D02*
X755015D01*
Y745490D01*
X758825D02*
X775335D01*
X758825Y737870D02*
Y745490D01*
Y737870D02*
X775335D01*
Y745490D01*
X1418590Y498475D02*
Y514985D01*
Y498475D02*
X1426210D01*
Y514985D01*
X1418590D02*
X1426210D01*
X1418590Y518795D02*
Y535305D01*
Y518795D02*
X1426210D01*
Y535305D01*
X1418590D02*
X1426210D01*
X1383665Y464820D02*
X1400175D01*
X1383665Y457200D02*
Y464820D01*
Y457200D02*
X1400175D01*
Y464820D01*
X415290Y271145D02*
Y287655D01*
X407670D02*
X415290D01*
X407670Y271145D02*
Y287655D01*
Y271145D02*
X415290D01*
X397326Y285106D02*
Y287606D01*
Y291606D02*
Y294106D01*
X374326Y285106D02*
X397326D01*
X374326D02*
Y294106D01*
X397326D01*
X385699Y312429D02*
X402209D01*
Y320049D01*
X385699D02*
X402209D01*
X385699Y312429D02*
Y320049D01*
X321310Y292735D02*
X328930D01*
Y276225D02*
Y292735D01*
X321310Y276225D02*
X328930D01*
X321310D02*
Y292735D01*
X313055Y316230D02*
Y323850D01*
X296545Y316230D02*
X313055D01*
X296545D02*
Y323850D01*
X313055D01*
X310966Y285106D02*
Y287606D01*
Y291606D02*
Y294106D01*
X287966Y285106D02*
X310966D01*
X287966D02*
Y294106D01*
X310966D01*
X407670Y194945D02*
Y211455D01*
Y194945D02*
X415290D01*
Y211455D01*
X407670D02*
X415290D01*
X397326Y208906D02*
Y211406D01*
Y215406D02*
Y217906D01*
X374326Y208906D02*
X397326D01*
X374326D02*
Y217906D01*
X397326D01*
X404495Y234950D02*
Y242570D01*
X387985Y234950D02*
X404495D01*
X387985D02*
Y242570D01*
X404495D01*
X321310Y211455D02*
X328930D01*
Y194945D02*
Y211455D01*
X321310Y194945D02*
X328930D01*
X321310D02*
Y211455D01*
X296545Y234950D02*
X313055D01*
Y242570D01*
X296545D02*
X313055D01*
X296545Y234950D02*
Y242570D01*
X310966Y208906D02*
Y211406D01*
Y215406D02*
Y217906D01*
X287966Y208906D02*
X310966D01*
X287966D02*
Y217906D01*
X310966D01*
X125730Y913130D02*
Y946150D01*
X158750Y913130D02*
Y946150D01*
X125730D02*
X158750D01*
X125730Y913130D02*
X158750D01*
X1101090Y260350D02*
Y293370D01*
X1134110Y260350D02*
Y293370D01*
X1101090D02*
X1134110D01*
X1101090Y260350D02*
X1134110D01*
X628650Y252730D02*
Y285750D01*
X661670Y252730D02*
Y285750D01*
X628650D02*
X661670D01*
X628650Y252730D02*
X661670D01*
X1969770Y659130D02*
Y692150D01*
X2002790Y659130D02*
Y692150D01*
X1969770D02*
X2002790D01*
X1969770Y659130D02*
X2002790D01*
X1381125Y109220D02*
X1397635D01*
Y116840D01*
X1381125D02*
X1397635D01*
X1381125Y109220D02*
Y116840D01*
X1381760Y152654D02*
X1398270D01*
Y160274D01*
X1381760D02*
X1398270D01*
X1381760Y152654D02*
Y160274D01*
Y172974D02*
X1398270D01*
Y180594D01*
X1381760D02*
X1398270D01*
X1381760Y172974D02*
Y180594D01*
X1381125Y129540D02*
X1397635D01*
Y137160D01*
X1381125D02*
X1397635D01*
X1381125Y129540D02*
Y137160D01*
X1172603Y398909D02*
X1189113D01*
X1172603Y391289D02*
Y398909D01*
Y391289D02*
X1189113D01*
Y398909D01*
X1172603Y378589D02*
X1189113D01*
X1172603Y370969D02*
Y378589D01*
Y370969D02*
X1189113D01*
Y378589D01*
X1266825Y397510D02*
X1283335D01*
Y405130D01*
X1266825D02*
X1283335D01*
X1266825Y397510D02*
Y405130D01*
X1215148Y442724D02*
Y459234D01*
X1207528D02*
X1215148D01*
X1207528Y442724D02*
Y459234D01*
Y442724D02*
X1215148D01*
X1851865Y298450D02*
X1868375D01*
X1851865Y290830D02*
Y298450D01*
Y290830D02*
X1868375D01*
Y298450D01*
X1831545Y290830D02*
X1848055D01*
Y298450D01*
X1831545D02*
X1848055D01*
X1831545Y290830D02*
Y298450D01*
X1877265Y285750D02*
X1893775D01*
Y293370D01*
X1877265D02*
X1893775D01*
X1877265Y285750D02*
Y293370D01*
X1897585D02*
X1914095D01*
X1897585Y285750D02*
Y293370D01*
Y285750D02*
X1914095D01*
Y293370D01*
X1833831Y141195D02*
Y157705D01*
Y141195D02*
X1841451D01*
Y157705D01*
X1833831D02*
X1841451D01*
X1843991Y141195D02*
Y157705D01*
Y141195D02*
X1851611D01*
Y157705D01*
X1843991D02*
X1851611D01*
X1854151Y141195D02*
Y157705D01*
Y141195D02*
X1861771D01*
Y157705D01*
X1854151D02*
X1861771D01*
X1895426Y138020D02*
X1911936D01*
X1895426Y130400D02*
Y138020D01*
Y130400D02*
X1911936D01*
Y138020D01*
X1895426Y158340D02*
X1911936D01*
X1895426Y150720D02*
Y158340D01*
Y150720D02*
X1911936D01*
Y158340D01*
X1895426Y148180D02*
X1911936D01*
X1895426Y140560D02*
Y148180D01*
Y140560D02*
X1911936D01*
Y148180D01*
X1907745Y303530D02*
X1924255D01*
X1907745Y295910D02*
Y303530D01*
Y295910D02*
X1924255D01*
Y303530D01*
X1520190Y313055D02*
Y329565D01*
Y313055D02*
X1527810D01*
Y329565D01*
X1520190D02*
X1527810D01*
X1507490Y231775D02*
Y248285D01*
X1499870D02*
X1507490D01*
X1499870Y231775D02*
Y248285D01*
Y231775D02*
X1507490D01*
X931545Y337820D02*
X948055D01*
X931545Y330200D02*
Y337820D01*
Y330200D02*
X948055D01*
Y337820D01*
X917575Y330200D02*
Y337820D01*
X901065Y330200D02*
X917575D01*
X901065D02*
Y337820D01*
X917575D01*
X942340Y240030D02*
Y247650D01*
X958850D01*
Y240030D02*
Y247650D01*
X942340Y240030D02*
X958850D01*
X922020Y247650D02*
X938530D01*
X922020Y240030D02*
Y247650D01*
Y240030D02*
X938530D01*
Y247650D01*
X932942Y290576D02*
Y296926D01*
X931672Y289306D02*
X932942Y290576D01*
Y296926D02*
X934212Y298196D01*
X933577Y293751D02*
X935482Y291846D01*
Y295656D01*
X933577Y293751D02*
X935482Y295656D01*
X933577Y293751D02*
X935482D01*
X919480Y285750D02*
Y300990D01*
X949960Y285750D02*
Y300990D01*
X919480Y285750D02*
X949960D01*
X919480Y300990D02*
X949960D01*
X932942Y315976D02*
Y322326D01*
X931672Y314706D02*
X932942Y315976D01*
Y322326D02*
X934212Y323596D01*
X933577Y319151D02*
X935482Y317246D01*
Y321056D01*
X933577Y319151D02*
X935482Y321056D01*
X933577Y319151D02*
X935482D01*
X919480Y311150D02*
Y326390D01*
X949960Y311150D02*
Y326390D01*
X919480Y311150D02*
X949960D01*
X919480Y326390D02*
X949960D01*
X901446Y305308D02*
X907796D01*
X900176Y306578D02*
X901446Y305308D01*
X907796D02*
X909066Y304038D01*
X902716Y302768D02*
X904621Y304673D01*
X902716Y302768D02*
X906526D01*
X904621Y304673D02*
X906526Y302768D01*
X904621D02*
Y304673D01*
X896620Y318770D02*
X911860D01*
X896620Y288290D02*
X911860D01*
X896620D02*
Y318770D01*
X911860Y288290D02*
Y318770D01*
X1023366Y305308D02*
X1029716D01*
X1022096Y306578D02*
X1023366Y305308D01*
X1029716D02*
X1030986Y304038D01*
X1024636Y302768D02*
X1026541Y304673D01*
X1024636Y302768D02*
X1028446D01*
X1026541Y304673D02*
X1028446Y302768D01*
X1026541D02*
Y304673D01*
X1018540Y318770D02*
X1033780D01*
X1018540Y288290D02*
X1033780D01*
X1018540D02*
Y318770D01*
X1033780Y288290D02*
Y318770D01*
X997458Y289814D02*
Y296164D01*
X998728Y297434D01*
X996188Y288544D02*
X997458Y289814D01*
X994918Y294894D02*
X996823Y292989D01*
X994918Y291084D02*
Y294894D01*
Y291084D02*
X996823Y292989D01*
X994918D02*
X996823D01*
X1010920Y285750D02*
Y300990D01*
X980440Y285750D02*
Y300990D01*
X1010920D01*
X980440Y285750D02*
X1010920D01*
X997458Y315214D02*
Y321564D01*
X998728Y322834D01*
X996188Y313944D02*
X997458Y315214D01*
X994918Y320294D02*
X996823Y318389D01*
X994918Y316484D02*
Y320294D01*
Y316484D02*
X996823Y318389D01*
X994918D02*
X996823D01*
X1010920Y311150D02*
Y326390D01*
X980440Y311150D02*
Y326390D01*
X1010920D01*
X980440Y311150D02*
X1010920D01*
X1182698Y656189D02*
Y663809D01*
X1166188Y656189D02*
X1182698D01*
X1166188D02*
Y663809D01*
X1182698D01*
D14*
X1239518Y802639D02*
X1240788Y803909D01*
X1243327D01*
X1244597Y802639D01*
Y797561D01*
X1243327Y796291D01*
X1240788D01*
X1239518Y797561D01*
X1231901Y796291D02*
X1236979D01*
X1231901Y801370D01*
Y802639D01*
X1233170Y803909D01*
X1235710D01*
X1236979Y802639D01*
X1229362Y803909D02*
X1224283D01*
Y802639D01*
X1229362Y797561D01*
Y796291D01*
X1292859Y793752D02*
X1294129Y792482D01*
Y789943D01*
X1292859Y788673D01*
X1287781D01*
X1286511Y789943D01*
Y792482D01*
X1287781Y793752D01*
X1286511Y801369D02*
Y796291D01*
X1291590Y801369D01*
X1292859D01*
X1294129Y800100D01*
Y797560D01*
X1292859Y796291D01*
X1294129Y808987D02*
Y803908D01*
X1290320D01*
X1291590Y806448D01*
Y807717D01*
X1290320Y808987D01*
X1287781D01*
X1286511Y807717D01*
Y805178D01*
X1287781Y803908D01*
X1197611Y805183D02*
X1205229D01*
Y808992D01*
X1203959Y810262D01*
X1201420D01*
X1200150Y808992D01*
Y805183D01*
Y807722D02*
X1197611Y810262D01*
Y817879D02*
Y812801D01*
X1202690Y817879D01*
X1203959D01*
X1205229Y816610D01*
Y814070D01*
X1203959Y812801D01*
X1205229Y825497D02*
X1203959Y822958D01*
X1201420Y820418D01*
X1198881D01*
X1197611Y821688D01*
Y824227D01*
X1198881Y825497D01*
X1200150D01*
X1201420Y824227D01*
Y820418D01*
X1177290Y753109D02*
X1178559Y754379D01*
X1181098D01*
X1182368Y753109D01*
Y748031D01*
X1181098Y746761D01*
X1178559D01*
X1177290Y748031D01*
X1169672Y746761D02*
X1174750D01*
X1169672Y751840D01*
Y753109D01*
X1170942Y754379D01*
X1173481D01*
X1174750Y753109D01*
X1209038Y695961D02*
Y703579D01*
X1205229D01*
X1203960Y702309D01*
Y699770D01*
X1205229Y698500D01*
X1209038D01*
X1206499D02*
X1203960Y695961D01*
X1201420Y702309D02*
X1200151Y703579D01*
X1197612D01*
X1196342Y702309D01*
Y701040D01*
X1197612Y699770D01*
X1198881D01*
X1197612D01*
X1196342Y698500D01*
Y697231D01*
X1197612Y695961D01*
X1200151D01*
X1201420Y697231D01*
X1201418Y685801D02*
Y693419D01*
X1197609D01*
X1196340Y692149D01*
Y689610D01*
X1197609Y688340D01*
X1201418D01*
X1198879D02*
X1196340Y685801D01*
X1188722D02*
X1193800D01*
X1188722Y690880D01*
Y692149D01*
X1189992Y693419D01*
X1192531D01*
X1193800Y692149D01*
X1136649Y671832D02*
X1137919Y670562D01*
Y668023D01*
X1136649Y666753D01*
X1131571D01*
X1130301Y668023D01*
Y670562D01*
X1131571Y671832D01*
X1137919Y679449D02*
X1136649Y676910D01*
X1134110Y674371D01*
X1131571D01*
X1130301Y675640D01*
Y678180D01*
X1131571Y679449D01*
X1132840D01*
X1134110Y678180D01*
Y674371D01*
X1137919Y687067D02*
X1136649Y684528D01*
X1134110Y681988D01*
X1131571D01*
X1130301Y683258D01*
Y685797D01*
X1131571Y687067D01*
X1132840D01*
X1134110Y685797D01*
Y681988D01*
X1023620Y172463D02*
Y164846D01*
X1019811D01*
X1018542Y166116D01*
Y171194D01*
X1019811Y172463D01*
X1023620D01*
X1016003Y164846D02*
X1013463D01*
X1014733D01*
Y172463D01*
X1016003Y171194D01*
X1009654D02*
X1008385Y172463D01*
X1005846D01*
X1004576Y171194D01*
Y166116D01*
X1005846Y164846D01*
X1008385D01*
X1009654Y166116D01*
Y171194D01*
X970280Y172463D02*
Y164846D01*
X966471D01*
X965202Y166116D01*
Y171194D01*
X966471Y172463D01*
X970280D01*
X962663Y164846D02*
X960123D01*
X961393D01*
Y172463D01*
X962663Y171194D01*
X956314Y164846D02*
X953775D01*
X955045D01*
Y172463D01*
X956314Y171194D01*
X915670Y172463D02*
Y164846D01*
X911861D01*
X910592Y166116D01*
Y171194D01*
X911861Y172463D01*
X915670D01*
X908053Y166116D02*
X906783Y164846D01*
X904244D01*
X902974Y166116D01*
Y171194D01*
X904244Y172463D01*
X906783D01*
X908053Y171194D01*
Y169924D01*
X906783Y168655D01*
X902974D01*
X864870Y172463D02*
Y164846D01*
X861061D01*
X859792Y166116D01*
Y171194D01*
X861061Y172463D01*
X864870D01*
X857253Y171194D02*
X855983Y172463D01*
X853444D01*
X852174Y171194D01*
Y169924D01*
X853444Y168655D01*
X852174Y167385D01*
Y166116D01*
X853444Y164846D01*
X855983D01*
X857253Y166116D01*
Y167385D01*
X855983Y168655D01*
X857253Y169924D01*
Y171194D01*
X855983Y168655D02*
X853444D01*
X1346198Y759459D02*
X1347468Y760729D01*
X1350007D01*
X1351277Y759459D01*
Y754381D01*
X1350007Y753111D01*
X1347468D01*
X1346198Y754381D01*
X1339850Y753111D02*
Y760729D01*
X1343659Y756920D01*
X1338581D01*
X1336042Y759459D02*
X1334772Y760729D01*
X1332233D01*
X1330963Y759459D01*
Y754381D01*
X1332233Y753111D01*
X1334772D01*
X1336042Y754381D01*
Y759459D01*
X1320164Y902969D02*
X1321433Y904239D01*
X1323972D01*
X1325242Y902969D01*
Y897891D01*
X1323972Y896621D01*
X1321433D01*
X1320164Y897891D01*
X1317624Y896621D02*
X1315085D01*
X1316355D01*
Y904239D01*
X1317624Y902969D01*
X1311276D02*
X1310007Y904239D01*
X1307468D01*
X1306198Y902969D01*
Y897891D01*
X1307468Y896621D01*
X1310007D01*
X1311276Y897891D01*
Y902969D01*
X1409061Y142495D02*
Y150113D01*
X1405252D01*
X1403982Y148843D01*
Y146304D01*
X1405252Y145034D01*
X1409061D01*
X1406521D02*
X1403982Y142495D01*
X1396365D02*
X1401443D01*
X1396365Y147574D01*
Y148843D01*
X1397634Y150113D01*
X1400173D01*
X1401443Y148843D01*
X1393825D02*
X1392556Y150113D01*
X1390017D01*
X1388747Y148843D01*
Y143765D01*
X1390017Y142495D01*
X1392556D01*
X1393825Y143765D01*
Y148843D01*
X1382399Y142495D02*
Y150113D01*
X1386208Y146304D01*
X1381129D01*
X1409061Y162815D02*
Y170433D01*
X1405252D01*
X1403982Y169163D01*
Y166624D01*
X1405252Y165354D01*
X1409061D01*
X1406521D02*
X1403982Y162815D01*
X1396365D02*
X1401443D01*
X1396365Y167894D01*
Y169163D01*
X1397634Y170433D01*
X1400173D01*
X1401443Y169163D01*
X1393825D02*
X1392556Y170433D01*
X1390017D01*
X1388747Y169163D01*
Y164085D01*
X1390017Y162815D01*
X1392556D01*
X1393825Y164085D01*
Y169163D01*
X1386208D02*
X1384938Y170433D01*
X1382399D01*
X1381129Y169163D01*
Y167894D01*
X1382399Y166624D01*
X1383669D01*
X1382399D01*
X1381129Y165354D01*
Y164085D01*
X1382399Y162815D01*
X1384938D01*
X1386208Y164085D01*
X1408425Y99061D02*
Y106679D01*
X1404617D01*
X1403347Y105409D01*
Y102870D01*
X1404617Y101600D01*
X1408425D01*
X1405886D02*
X1403347Y99061D01*
X1395730D02*
X1400808D01*
X1395730Y104140D01*
Y105409D01*
X1396999Y106679D01*
X1399538D01*
X1400808Y105409D01*
X1393190D02*
X1391921Y106679D01*
X1389382D01*
X1388112Y105409D01*
Y100331D01*
X1389382Y99061D01*
X1391921D01*
X1393190Y100331D01*
Y105409D01*
X1380495Y99061D02*
X1385573D01*
X1380495Y104140D01*
Y105409D01*
X1381764Y106679D01*
X1384303D01*
X1385573Y105409D01*
X1188717Y274319D02*
X1189987Y275589D01*
X1192526D01*
X1193796Y274319D01*
Y269241D01*
X1192526Y267971D01*
X1189987D01*
X1188717Y269241D01*
X1186178Y267971D02*
X1183639D01*
X1184909D01*
Y275589D01*
X1186178Y274319D01*
X1179830Y267971D02*
X1177291D01*
X1178561D01*
Y275589D01*
X1179830Y274319D01*
X1173483Y269241D02*
X1172213Y267971D01*
X1169674D01*
X1168404Y269241D01*
Y274319D01*
X1169674Y275589D01*
X1172213D01*
X1173483Y274319D01*
Y273050D01*
X1172213Y271780D01*
X1168404D01*
X1242058Y864871D02*
Y872489D01*
X1238249D01*
X1236980Y871219D01*
Y868680D01*
X1238249Y867410D01*
X1242058D01*
X1239519D02*
X1236980Y864871D01*
X1234440Y871219D02*
X1233171Y872489D01*
X1230632D01*
X1229362Y871219D01*
Y869950D01*
X1230632Y868680D01*
X1229362Y867410D01*
Y866141D01*
X1230632Y864871D01*
X1233171D01*
X1234440Y866141D01*
Y867410D01*
X1233171Y868680D01*
X1234440Y869950D01*
Y871219D01*
X1233171Y868680D02*
X1230632D01*
X58421Y224795D02*
X66039D01*
Y228603D01*
X64769Y229873D01*
X62230D01*
X60960Y228603D01*
Y224795D01*
Y227334D02*
X58421Y229873D01*
Y237490D02*
Y232412D01*
X63500Y237490D01*
X64769D01*
X66039Y236221D01*
Y233682D01*
X64769Y232412D01*
X66039Y245108D02*
Y240030D01*
X62230D01*
X63500Y242569D01*
Y243838D01*
X62230Y245108D01*
X59691D01*
X58421Y243838D01*
Y241299D01*
X59691Y240030D01*
X64769Y247647D02*
X66039Y248917D01*
Y251456D01*
X64769Y252726D01*
X63500D01*
X62230Y251456D01*
Y250186D01*
Y251456D01*
X60960Y252726D01*
X59691D01*
X58421Y251456D01*
Y248917D01*
X59691Y247647D01*
X100325Y356871D02*
Y364489D01*
X96517D01*
X95247Y363219D01*
Y360680D01*
X96517Y359410D01*
X100325D01*
X97786D02*
X95247Y356871D01*
X87630D02*
X92708D01*
X87630Y361950D01*
Y363219D01*
X88899Y364489D01*
X91438D01*
X92708Y363219D01*
X80012Y364489D02*
X85090D01*
Y360680D01*
X82551Y361950D01*
X81282D01*
X80012Y360680D01*
Y358141D01*
X81282Y356871D01*
X83821D01*
X85090Y358141D01*
X72394Y356871D02*
X77473D01*
X72394Y361950D01*
Y363219D01*
X73664Y364489D01*
X76203D01*
X77473Y363219D01*
X48261Y226064D02*
X55879D01*
Y229873D01*
X54609Y231143D01*
X52070D01*
X50800Y229873D01*
Y226064D01*
Y228603D02*
X48261Y231143D01*
Y238760D02*
Y233682D01*
X53340Y238760D01*
X54609D01*
X55879Y237490D01*
Y234951D01*
X54609Y233682D01*
X55879Y246378D02*
Y241299D01*
X52070D01*
X53340Y243838D01*
Y245108D01*
X52070Y246378D01*
X49531D01*
X48261Y245108D01*
Y242569D01*
X49531Y241299D01*
X48261Y248917D02*
Y251456D01*
Y250186D01*
X55879D01*
X54609Y248917D01*
X49525Y356871D02*
Y364489D01*
X45717D01*
X44447Y363219D01*
Y360680D01*
X45717Y359410D01*
X49525D01*
X46986D02*
X44447Y356871D01*
X36830D02*
X41908D01*
X36830Y361950D01*
Y363219D01*
X38099Y364489D01*
X40638D01*
X41908Y363219D01*
X29212Y364489D02*
X34290D01*
Y360680D01*
X31751Y361950D01*
X30482D01*
X29212Y360680D01*
Y358141D01*
X30482Y356871D01*
X33021D01*
X34290Y358141D01*
X26673Y363219D02*
X25403Y364489D01*
X22864D01*
X21595Y363219D01*
Y358141D01*
X22864Y356871D01*
X25403D01*
X26673Y358141D01*
Y363219D01*
X68581Y224795D02*
X76199D01*
Y228603D01*
X74929Y229873D01*
X72390D01*
X71120Y228603D01*
Y224795D01*
Y227334D02*
X68581Y229873D01*
Y237490D02*
Y232412D01*
X73660Y237490D01*
X74929D01*
X76199Y236221D01*
Y233682D01*
X74929Y232412D01*
X68581Y243838D02*
X76199D01*
X72390Y240030D01*
Y245108D01*
X69851Y247647D02*
X68581Y248917D01*
Y251456D01*
X69851Y252726D01*
X74929D01*
X76199Y251456D01*
Y248917D01*
X74929Y247647D01*
X73660D01*
X72390Y248917D01*
Y252726D01*
X96516Y280671D02*
Y288289D01*
X92707D01*
X91437Y287019D01*
Y284480D01*
X92707Y283210D01*
X96516D01*
X93976D02*
X91437Y280671D01*
X83820D02*
X88898D01*
X83820Y285750D01*
Y287019D01*
X85089Y288289D01*
X87628D01*
X88898Y287019D01*
X77472Y280671D02*
Y288289D01*
X81280Y284480D01*
X76202D01*
X73663Y287019D02*
X72393Y288289D01*
X69854D01*
X68584Y287019D01*
Y285750D01*
X69854Y284480D01*
X68584Y283210D01*
Y281941D01*
X69854Y280671D01*
X72393D01*
X73663Y281941D01*
Y283210D01*
X72393Y284480D01*
X73663Y285750D01*
Y287019D01*
X72393Y284480D02*
X69854D01*
X100325Y367031D02*
Y374649D01*
X96517D01*
X95247Y373379D01*
Y370840D01*
X96517Y369570D01*
X100325D01*
X97786D02*
X95247Y367031D01*
X87630D02*
X92708D01*
X87630Y372110D01*
Y373379D01*
X88899Y374649D01*
X91438D01*
X92708Y373379D01*
X81282Y367031D02*
Y374649D01*
X85090Y370840D01*
X80012D01*
X77473Y374649D02*
X72394D01*
Y373379D01*
X77473Y368301D01*
Y367031D01*
X88901Y378465D02*
X96519D01*
Y382273D01*
X95249Y383543D01*
X92710D01*
X91440Y382273D01*
Y378465D01*
Y381004D02*
X88901Y383543D01*
Y391160D02*
Y386082D01*
X93980Y391160D01*
X95249D01*
X96519Y389891D01*
Y387352D01*
X95249Y386082D01*
X88901Y397508D02*
X96519D01*
X92710Y393700D01*
Y398778D01*
X96519Y406395D02*
X95249Y403856D01*
X92710Y401317D01*
X90171D01*
X88901Y402587D01*
Y405126D01*
X90171Y406395D01*
X91440D01*
X92710Y405126D01*
Y401317D01*
X387351Y873764D02*
X394969D01*
Y877573D01*
X393699Y878843D01*
X391160D01*
X389890Y877573D01*
Y873764D01*
Y876304D02*
X387351Y878843D01*
Y886460D02*
Y881382D01*
X392430Y886460D01*
X393699D01*
X394969Y885191D01*
Y882652D01*
X393699Y881382D01*
X387351Y892808D02*
X394969D01*
X391160Y889000D01*
Y894078D01*
X394969Y901695D02*
Y896617D01*
X391160D01*
X392430Y899156D01*
Y900426D01*
X391160Y901695D01*
X388621D01*
X387351Y900426D01*
Y897887D01*
X388621Y896617D01*
X1108711Y372114D02*
X1116329D01*
Y375923D01*
X1115059Y377193D01*
X1112520D01*
X1111250Y375923D01*
Y372114D01*
Y374654D02*
X1108711Y377193D01*
Y384810D02*
Y379732D01*
X1113790Y384810D01*
X1115059D01*
X1116329Y383541D01*
Y381002D01*
X1115059Y379732D01*
X1108711Y391158D02*
X1116329D01*
X1112520Y387350D01*
Y392428D01*
X1108711Y398776D02*
X1116329D01*
X1112520Y394967D01*
Y400046D01*
X1443991Y336554D02*
X1451609D01*
Y340363D01*
X1450339Y341633D01*
X1447800D01*
X1446530Y340363D01*
Y336554D01*
Y339094D02*
X1443991Y341633D01*
Y349250D02*
Y344172D01*
X1449070Y349250D01*
X1450339D01*
X1451609Y347981D01*
Y345442D01*
X1450339Y344172D01*
X1443991Y355598D02*
X1451609D01*
X1447800Y351790D01*
Y356868D01*
X1450339Y359407D02*
X1451609Y360677D01*
Y363216D01*
X1450339Y364486D01*
X1449070D01*
X1447800Y363216D01*
Y361946D01*
Y363216D01*
X1446530Y364486D01*
X1445261D01*
X1443991Y363216D01*
Y360677D01*
X1445261Y359407D01*
X736596Y698501D02*
Y706119D01*
X732787D01*
X731517Y704849D01*
Y702310D01*
X732787Y701040D01*
X736596D01*
X734056D02*
X731517Y698501D01*
X723900D02*
X728978D01*
X723900Y703580D01*
Y704849D01*
X725169Y706119D01*
X727708D01*
X728978Y704849D01*
X717552Y698501D02*
Y706119D01*
X721360Y702310D01*
X716282D01*
X708664Y698501D02*
X713743D01*
X708664Y703580D01*
Y704849D01*
X709934Y706119D01*
X712473D01*
X713743Y704849D01*
X219711Y632464D02*
X227329D01*
Y636273D01*
X226059Y637542D01*
X223520D01*
X222250Y636273D01*
Y632464D01*
Y635003D02*
X219711Y637542D01*
Y645160D02*
Y640082D01*
X224790Y645160D01*
X226059D01*
X227329Y643890D01*
Y641351D01*
X226059Y640082D01*
X219711Y651508D02*
X227329D01*
X223520Y647699D01*
Y652777D01*
X219711Y655317D02*
Y657856D01*
Y656586D01*
X227329D01*
X226059Y655317D01*
X1709535Y215518D02*
X1717153D01*
Y219327D01*
X1715883Y220596D01*
X1713344D01*
X1712074Y219327D01*
Y215518D01*
Y218057D02*
X1709535Y220596D01*
Y228214D02*
Y223136D01*
X1714613Y228214D01*
X1715883D01*
X1717153Y226944D01*
Y224405D01*
X1715883Y223136D01*
X1709535Y234562D02*
X1717153D01*
X1713344Y230753D01*
Y235831D01*
X1715883Y238371D02*
X1717153Y239640D01*
Y242179D01*
X1715883Y243449D01*
X1710805D01*
X1709535Y242179D01*
Y239640D01*
X1710805Y238371D01*
X1715883D01*
X1817366Y494031D02*
Y501649D01*
X1813557D01*
X1812287Y500379D01*
Y497840D01*
X1813557Y496570D01*
X1817366D01*
X1814826D02*
X1812287Y494031D01*
X1804670D02*
X1809748D01*
X1804670Y499110D01*
Y500379D01*
X1805939Y501649D01*
X1808478D01*
X1809748Y500379D01*
X1802130D02*
X1800861Y501649D01*
X1798322D01*
X1797052Y500379D01*
Y499110D01*
X1798322Y497840D01*
X1799591D01*
X1798322D01*
X1797052Y496570D01*
Y495301D01*
X1798322Y494031D01*
X1800861D01*
X1802130Y495301D01*
X1794513D02*
X1793243Y494031D01*
X1790704D01*
X1789435Y495301D01*
Y500379D01*
X1790704Y501649D01*
X1793243D01*
X1794513Y500379D01*
Y499110D01*
X1793243Y497840D01*
X1789435D01*
X1764031Y575314D02*
X1771649D01*
Y579123D01*
X1770379Y580393D01*
X1767840D01*
X1766570Y579123D01*
Y575314D01*
Y577854D02*
X1764031Y580393D01*
Y588010D02*
Y582932D01*
X1769110Y588010D01*
X1770379D01*
X1771649Y586741D01*
Y584202D01*
X1770379Y582932D01*
Y590550D02*
X1771649Y591819D01*
Y594358D01*
X1770379Y595628D01*
X1769110D01*
X1767840Y594358D01*
Y593089D01*
Y594358D01*
X1766570Y595628D01*
X1765301D01*
X1764031Y594358D01*
Y591819D01*
X1765301Y590550D01*
X1770379Y598167D02*
X1771649Y599437D01*
Y601976D01*
X1770379Y603246D01*
X1769110D01*
X1767840Y601976D01*
X1766570Y603246D01*
X1765301D01*
X1764031Y601976D01*
Y599437D01*
X1765301Y598167D01*
X1766570D01*
X1767840Y599437D01*
X1769110Y598167D01*
X1770379D01*
X1767840Y599437D02*
Y601976D01*
X386843Y908445D02*
X394461D01*
Y912253D01*
X393191Y913523D01*
X390652D01*
X389382Y912253D01*
Y908445D01*
Y910984D02*
X386843Y913523D01*
Y921140D02*
Y916062D01*
X391922Y921140D01*
X393191D01*
X394461Y919871D01*
Y917332D01*
X393191Y916062D01*
Y923680D02*
X394461Y924949D01*
Y927488D01*
X393191Y928758D01*
X391922D01*
X390652Y927488D01*
Y926219D01*
Y927488D01*
X389382Y928758D01*
X388113D01*
X386843Y927488D01*
Y924949D01*
X388113Y923680D01*
X394461Y931297D02*
Y936375D01*
X393191D01*
X388113Y931297D01*
X386843D01*
X1108711Y402594D02*
X1116329D01*
Y406403D01*
X1115059Y407673D01*
X1112520D01*
X1111250Y406403D01*
Y402594D01*
Y405134D02*
X1108711Y407673D01*
Y415290D02*
Y410212D01*
X1113790Y415290D01*
X1115059D01*
X1116329Y414021D01*
Y411482D01*
X1115059Y410212D01*
Y417830D02*
X1116329Y419099D01*
Y421638D01*
X1115059Y422908D01*
X1113790D01*
X1112520Y421638D01*
Y420369D01*
Y421638D01*
X1111250Y422908D01*
X1109981D01*
X1108711Y421638D01*
Y419099D01*
X1109981Y417830D01*
X1116329Y430526D02*
X1115059Y427986D01*
X1112520Y425447D01*
X1109981D01*
X1108711Y426717D01*
Y429256D01*
X1109981Y430526D01*
X1111250D01*
X1112520Y429256D01*
Y425447D01*
X1443991Y367034D02*
X1451609D01*
Y370843D01*
X1450339Y372113D01*
X1447800D01*
X1446530Y370843D01*
Y367034D01*
Y369574D02*
X1443991Y372113D01*
Y379730D02*
Y374652D01*
X1449070Y379730D01*
X1450339D01*
X1451609Y378461D01*
Y375922D01*
X1450339Y374652D01*
Y382270D02*
X1451609Y383539D01*
Y386078D01*
X1450339Y387348D01*
X1449070D01*
X1447800Y386078D01*
Y384809D01*
Y386078D01*
X1446530Y387348D01*
X1445261D01*
X1443991Y386078D01*
Y383539D01*
X1445261Y382270D01*
X1451609Y394966D02*
Y389887D01*
X1447800D01*
X1449070Y392426D01*
Y393696D01*
X1447800Y394966D01*
X1445261D01*
X1443991Y393696D01*
Y391157D01*
X1445261Y389887D01*
X689605Y687071D02*
Y694689D01*
X685797D01*
X684527Y693419D01*
Y690880D01*
X685797Y689610D01*
X689605D01*
X687066D02*
X684527Y687071D01*
X676910D02*
X681988D01*
X676910Y692150D01*
Y693419D01*
X678179Y694689D01*
X680718D01*
X681988Y693419D01*
X674370D02*
X673101Y694689D01*
X670562D01*
X669292Y693419D01*
Y692150D01*
X670562Y690880D01*
X671831D01*
X670562D01*
X669292Y689610D01*
Y688341D01*
X670562Y687071D01*
X673101D01*
X674370Y688341D01*
X662944Y687071D02*
Y694689D01*
X666753Y690880D01*
X661674D01*
X219711Y600714D02*
X227329D01*
Y604523D01*
X226059Y605793D01*
X223520D01*
X222250Y604523D01*
Y600714D01*
Y603254D02*
X219711Y605793D01*
Y613410D02*
Y608332D01*
X224790Y613410D01*
X226059D01*
X227329Y612141D01*
Y609602D01*
X226059Y608332D01*
Y615950D02*
X227329Y617219D01*
Y619758D01*
X226059Y621028D01*
X224790D01*
X223520Y619758D01*
Y618489D01*
Y619758D01*
X222250Y621028D01*
X220981D01*
X219711Y619758D01*
Y617219D01*
X220981Y615950D01*
X226059Y623567D02*
X227329Y624837D01*
Y627376D01*
X226059Y628646D01*
X224790D01*
X223520Y627376D01*
Y626106D01*
Y627376D01*
X222250Y628646D01*
X220981D01*
X219711Y627376D01*
Y624837D01*
X220981Y623567D01*
X1709535Y245998D02*
X1717153D01*
Y249807D01*
X1715883Y251076D01*
X1713344D01*
X1712074Y249807D01*
Y245998D01*
Y248537D02*
X1709535Y251076D01*
Y258694D02*
Y253615D01*
X1714613Y258694D01*
X1715883D01*
X1717153Y257424D01*
Y254885D01*
X1715883Y253615D01*
Y261233D02*
X1717153Y262503D01*
Y265042D01*
X1715883Y266311D01*
X1714613D01*
X1713344Y265042D01*
Y263772D01*
Y265042D01*
X1712074Y266311D01*
X1710805D01*
X1709535Y265042D01*
Y262503D01*
X1710805Y261233D01*
X1709535Y273929D02*
Y268851D01*
X1714613Y273929D01*
X1715883D01*
X1717153Y272659D01*
Y270120D01*
X1715883Y268851D01*
X1785616Y494031D02*
Y501649D01*
X1781807D01*
X1780538Y500379D01*
Y497840D01*
X1781807Y496570D01*
X1785616D01*
X1783077D02*
X1780538Y494031D01*
X1772920D02*
X1777998D01*
X1772920Y499110D01*
Y500379D01*
X1774190Y501649D01*
X1776729D01*
X1777998Y500379D01*
X1770381D02*
X1769111Y501649D01*
X1766572D01*
X1765302Y500379D01*
Y499110D01*
X1766572Y497840D01*
X1767842D01*
X1766572D01*
X1765302Y496570D01*
Y495301D01*
X1766572Y494031D01*
X1769111D01*
X1770381Y495301D01*
X1762763Y494031D02*
X1760224D01*
X1761494D01*
Y501649D01*
X1762763Y500379D01*
X1764031Y605794D02*
X1771649D01*
Y609603D01*
X1770379Y610873D01*
X1767840D01*
X1766570Y609603D01*
Y605794D01*
Y608334D02*
X1764031Y610873D01*
Y618490D02*
Y613412D01*
X1769110Y618490D01*
X1770379D01*
X1771649Y617221D01*
Y614682D01*
X1770379Y613412D01*
Y621030D02*
X1771649Y622299D01*
Y624838D01*
X1770379Y626108D01*
X1769110D01*
X1767840Y624838D01*
Y623569D01*
Y624838D01*
X1766570Y626108D01*
X1765301D01*
X1764031Y624838D01*
Y622299D01*
X1765301Y621030D01*
X1770379Y628647D02*
X1771649Y629917D01*
Y632456D01*
X1770379Y633726D01*
X1765301D01*
X1764031Y632456D01*
Y629917D01*
X1765301Y628647D01*
X1770379D01*
X1194431Y400051D02*
Y407669D01*
X1190622D01*
X1189352Y406399D01*
Y403860D01*
X1190622Y402590D01*
X1194431D01*
X1191891D02*
X1189352Y400051D01*
X1181735D02*
X1186813D01*
X1181735Y405130D01*
Y406399D01*
X1183004Y407669D01*
X1185544D01*
X1186813Y406399D01*
X1179196Y400051D02*
X1176656D01*
X1177926D01*
Y407669D01*
X1179196Y406399D01*
X1172848D02*
X1171578Y407669D01*
X1169039D01*
X1167769Y406399D01*
Y405130D01*
X1169039Y403860D01*
X1167769Y402590D01*
Y401321D01*
X1169039Y400051D01*
X1171578D01*
X1172848Y401321D01*
Y402590D01*
X1171578Y403860D01*
X1172848Y405130D01*
Y406399D01*
X1171578Y403860D02*
X1169039D01*
X1215146Y490344D02*
X1207529D01*
Y486535D01*
X1208799Y485266D01*
X1211338D01*
X1212607Y486535D01*
Y490344D01*
Y487805D02*
X1215146Y485266D01*
Y477648D02*
Y482727D01*
X1210068Y477648D01*
X1208799D01*
X1207529Y478918D01*
Y481457D01*
X1208799Y482727D01*
Y475109D02*
X1207529Y473839D01*
Y471300D01*
X1208799Y470031D01*
X1213877D01*
X1215146Y471300D01*
Y473839D01*
X1213877Y475109D01*
X1208799D01*
X1207529Y467492D02*
Y462413D01*
X1208799D01*
X1213877Y467492D01*
X1215146D01*
X1314445Y397511D02*
Y405129D01*
X1310637D01*
X1309367Y403859D01*
Y401320D01*
X1310637Y400050D01*
X1314445D01*
X1311906D02*
X1309367Y397511D01*
X1301750D02*
X1306828D01*
X1301750Y402590D01*
Y403859D01*
X1303019Y405129D01*
X1305558D01*
X1306828Y403859D01*
X1299210D02*
X1297941Y405129D01*
X1295402D01*
X1294132Y403859D01*
Y398781D01*
X1295402Y397511D01*
X1297941D01*
X1299210Y398781D01*
Y403859D01*
X1286514Y405129D02*
X1289054Y403859D01*
X1291593Y401320D01*
Y398781D01*
X1290323Y397511D01*
X1287784D01*
X1286514Y398781D01*
Y400050D01*
X1287784Y401320D01*
X1291593D01*
X1195066Y381001D02*
Y388619D01*
X1191257D01*
X1189987Y387349D01*
Y384810D01*
X1191257Y383540D01*
X1195066D01*
X1192526D02*
X1189987Y381001D01*
X1182370D02*
X1187448D01*
X1182370Y386080D01*
Y387349D01*
X1183639Y388619D01*
X1186178D01*
X1187448Y387349D01*
X1179830D02*
X1178561Y388619D01*
X1176022D01*
X1174752Y387349D01*
Y382271D01*
X1176022Y381001D01*
X1178561D01*
X1179830Y382271D01*
Y387349D01*
X1167134Y388619D02*
X1172213D01*
Y384810D01*
X1169674Y386080D01*
X1168404D01*
X1167134Y384810D01*
Y382271D01*
X1168404Y381001D01*
X1170943D01*
X1172213Y382271D01*
X1407156Y119381D02*
Y126999D01*
X1403347D01*
X1402077Y125729D01*
Y123190D01*
X1403347Y121920D01*
X1407156D01*
X1404617D02*
X1402077Y119381D01*
X1394460D02*
X1399538D01*
X1394460Y124460D01*
Y125729D01*
X1395730Y126999D01*
X1398269D01*
X1399538Y125729D01*
X1391921D02*
X1390651Y126999D01*
X1388112D01*
X1386842Y125729D01*
Y120651D01*
X1388112Y119381D01*
X1390651D01*
X1391921Y120651D01*
Y125729D01*
X1384303Y119381D02*
X1381764D01*
X1383034D01*
Y126999D01*
X1384303Y125729D01*
X1405251Y467361D02*
Y474979D01*
X1401442D01*
X1400172Y473709D01*
Y471170D01*
X1401442Y469900D01*
X1405251D01*
X1402711D02*
X1400172Y467361D01*
X1397633D02*
X1395094D01*
X1396364D01*
Y474979D01*
X1397633Y473709D01*
X1386207Y474979D02*
X1391285D01*
Y471170D01*
X1388746Y472440D01*
X1387476D01*
X1386207Y471170D01*
Y468631D01*
X1387476Y467361D01*
X1390016D01*
X1391285Y468631D01*
X1379859Y467361D02*
Y474979D01*
X1383668Y471170D01*
X1378589D01*
X1408431Y492764D02*
X1416049D01*
Y496573D01*
X1414779Y497843D01*
X1412240D01*
X1410970Y496573D01*
Y492764D01*
Y495303D02*
X1408431Y497843D01*
Y500382D02*
Y502921D01*
Y501651D01*
X1416049D01*
X1414779Y500382D01*
X1416049Y511808D02*
Y506730D01*
X1412240D01*
X1413510Y509269D01*
Y510539D01*
X1412240Y511808D01*
X1409701D01*
X1408431Y510539D01*
Y507999D01*
X1409701Y506730D01*
X1414779Y514347D02*
X1416049Y515617D01*
Y518156D01*
X1414779Y519426D01*
X1409701D01*
X1408431Y518156D01*
Y515617D01*
X1409701Y514347D01*
X1414779D01*
X739771Y773431D02*
Y781049D01*
X735962D01*
X734692Y779779D01*
Y777240D01*
X735962Y775970D01*
X739771D01*
X737232D02*
X734692Y773431D01*
X732153D02*
X729614D01*
X730884D01*
Y781049D01*
X732153Y779779D01*
X721996Y773431D02*
Y781049D01*
X725805Y777240D01*
X720727D01*
X718188Y781049D02*
X713109D01*
Y779779D01*
X718188Y774701D01*
Y773431D01*
X735961Y736601D02*
Y744219D01*
X732152D01*
X730882Y742949D01*
Y740410D01*
X732152Y739140D01*
X735961D01*
X733421D02*
X730882Y736601D01*
X728343D02*
X725804D01*
X727074D01*
Y744219D01*
X728343Y742949D01*
X718186Y736601D02*
Y744219D01*
X721995Y740410D01*
X716917D01*
X709299Y744219D02*
X714378D01*
Y740410D01*
X711839Y741680D01*
X710569D01*
X709299Y740410D01*
Y737871D01*
X710569Y736601D01*
X713108D01*
X714378Y737871D01*
X723269Y826769D02*
Y819151D01*
X727078D01*
X728348Y820421D01*
Y822960D01*
X727078Y824230D01*
X723269D01*
X725808D02*
X728348Y826769D01*
X730887D02*
X733426D01*
X732156D01*
Y819151D01*
X730887Y820421D01*
X741044Y826769D02*
Y819151D01*
X737235Y822960D01*
X742313D01*
X748661Y826769D02*
Y819151D01*
X744852Y822960D01*
X749931D01*
X331471Y269879D02*
X339089D01*
Y273688D01*
X337819Y274958D01*
X335280D01*
X334010Y273688D01*
Y269879D01*
Y272418D02*
X331471Y274958D01*
Y277497D02*
Y280036D01*
Y278766D01*
X339089D01*
X337819Y277497D01*
Y283845D02*
X339089Y285114D01*
Y287654D01*
X337819Y288923D01*
X336550D01*
X335280Y287654D01*
Y286384D01*
Y287654D01*
X334010Y288923D01*
X332741D01*
X331471Y287654D01*
Y285114D01*
X332741Y283845D01*
X339089Y296541D02*
X337819Y294002D01*
X335280Y291462D01*
X332741D01*
X331471Y292732D01*
Y295271D01*
X332741Y296541D01*
X334010D01*
X335280Y295271D01*
Y291462D01*
X419101Y187329D02*
X426719D01*
Y191138D01*
X425449Y192408D01*
X422910D01*
X421640Y191138D01*
Y187329D01*
Y189869D02*
X419101Y192408D01*
Y194947D02*
Y197486D01*
Y196216D01*
X426719D01*
X425449Y194947D01*
Y201295D02*
X426719Y202564D01*
Y205104D01*
X425449Y206373D01*
X424180D01*
X422910Y205104D01*
Y203834D01*
Y205104D01*
X421640Y206373D01*
X420371D01*
X419101Y205104D01*
Y202564D01*
X420371Y201295D01*
X426719Y213991D02*
Y208912D01*
X422910D01*
X424180Y211451D01*
Y212721D01*
X422910Y213991D01*
X420371D01*
X419101Y212721D01*
Y210182D01*
X420371Y208912D01*
X313051Y326391D02*
Y334009D01*
X309242D01*
X307972Y332739D01*
Y330200D01*
X309242Y328930D01*
X313051D01*
X310511D02*
X307972Y326391D01*
X305433D02*
X302894D01*
X304164D01*
Y334009D01*
X305433Y332739D01*
X299085D02*
X297816Y334009D01*
X295276D01*
X294007Y332739D01*
Y331470D01*
X295276Y330200D01*
X296546D01*
X295276D01*
X294007Y328930D01*
Y327661D01*
X295276Y326391D01*
X297816D01*
X299085Y327661D01*
X287659Y326391D02*
Y334009D01*
X291468Y330200D01*
X286389D01*
X404491Y245111D02*
Y252729D01*
X400682D01*
X399412Y251459D01*
Y248920D01*
X400682Y247650D01*
X404491D01*
X401951D02*
X399412Y245111D01*
X396873D02*
X394334D01*
X395604D01*
Y252729D01*
X396873Y251459D01*
X390525D02*
X389256Y252729D01*
X386716D01*
X385447Y251459D01*
Y250190D01*
X386716Y248920D01*
X387986D01*
X386716D01*
X385447Y247650D01*
Y246381D01*
X386716Y245111D01*
X389256D01*
X390525Y246381D01*
X382908Y251459D02*
X381638Y252729D01*
X379099D01*
X377829Y251459D01*
Y250190D01*
X379099Y248920D01*
X380368D01*
X379099D01*
X377829Y247650D01*
Y246381D01*
X379099Y245111D01*
X381638D01*
X382908Y246381D01*
X417831Y266069D02*
X425449D01*
Y269878D01*
X424179Y271148D01*
X421640D01*
X420370Y269878D01*
Y266069D01*
Y268608D02*
X417831Y271148D01*
Y273687D02*
Y276226D01*
Y274956D01*
X425449D01*
X424179Y273687D01*
Y280035D02*
X425449Y281304D01*
Y283844D01*
X424179Y285113D01*
X422910D01*
X421640Y283844D01*
Y282574D01*
Y283844D01*
X420370Y285113D01*
X419101D01*
X417831Y283844D01*
Y281304D01*
X419101Y280035D01*
X417831Y292731D02*
Y287652D01*
X422910Y292731D01*
X424179D01*
X425449Y291461D01*
Y288922D01*
X424179Y287652D01*
X331471Y191139D02*
X339089D01*
Y194948D01*
X337819Y196217D01*
X335280D01*
X334010Y194948D01*
Y191139D01*
Y193678D02*
X331471Y196217D01*
Y198756D02*
Y201296D01*
Y200026D01*
X339089D01*
X337819Y198756D01*
Y205104D02*
X339089Y206374D01*
Y208913D01*
X337819Y210183D01*
X336550D01*
X335280Y208913D01*
Y207644D01*
Y208913D01*
X334010Y210183D01*
X332741D01*
X331471Y208913D01*
Y206374D01*
X332741Y205104D01*
X331471Y212722D02*
Y215261D01*
Y213992D01*
X339089D01*
X337819Y212722D01*
X407285Y322590D02*
Y330208D01*
X403476D01*
X402206Y328938D01*
Y326399D01*
X403476Y325129D01*
X407285D01*
X404745D02*
X402206Y322590D01*
X399667D02*
X397128D01*
X398398D01*
Y330208D01*
X399667Y328938D01*
X393319D02*
X392050Y330208D01*
X389510D01*
X388241Y328938D01*
Y327669D01*
X389510Y326399D01*
X390780D01*
X389510D01*
X388241Y325129D01*
Y323860D01*
X389510Y322590D01*
X392050D01*
X393319Y323860D01*
X385702Y328938D02*
X384432Y330208D01*
X381893D01*
X380623Y328938D01*
Y323860D01*
X381893Y322590D01*
X384432D01*
X385702Y323860D01*
Y328938D01*
X318131Y245111D02*
Y252729D01*
X314322D01*
X313052Y251459D01*
Y248920D01*
X314322Y247650D01*
X318131D01*
X315592D02*
X313052Y245111D01*
X310513D02*
X307974D01*
X309244D01*
Y252729D01*
X310513Y251459D01*
X299087Y245111D02*
X304165D01*
X299087Y250190D01*
Y251459D01*
X300356Y252729D01*
X302896D01*
X304165Y251459D01*
X296548Y246381D02*
X295278Y245111D01*
X292739D01*
X291469Y246381D01*
Y251459D01*
X292739Y252729D01*
X295278D01*
X296548Y251459D01*
Y250190D01*
X295278Y248920D01*
X291469D01*
X918206Y240031D02*
Y247649D01*
X914397D01*
X913127Y246379D01*
Y243840D01*
X914397Y242570D01*
X918206D01*
X915667D02*
X913127Y240031D01*
X910588D02*
X908049D01*
X909319D01*
Y247649D01*
X910588Y246379D01*
X899162Y240031D02*
X904240D01*
X899162Y245110D01*
Y246379D01*
X900431Y247649D01*
X902971D01*
X904240Y246379D01*
X896623D02*
X895353Y247649D01*
X892814D01*
X891544Y246379D01*
Y241301D01*
X892814Y240031D01*
X895353D01*
X896623Y241301D01*
Y246379D01*
X988691Y240031D02*
Y247649D01*
X984882D01*
X983613Y246379D01*
Y243840D01*
X984882Y242570D01*
X988691D01*
X986152D02*
X983613Y240031D01*
X981073D02*
X978534D01*
X979804D01*
Y247649D01*
X981073Y246379D01*
X974725Y240031D02*
X972186D01*
X973456D01*
Y247649D01*
X974725Y246379D01*
X968378Y241301D02*
X967108Y240031D01*
X964569D01*
X963299Y241301D01*
Y246379D01*
X964569Y247649D01*
X967108D01*
X968378Y246379D01*
Y245110D01*
X967108Y243840D01*
X963299D01*
X920746Y340361D02*
Y347979D01*
X916937D01*
X915667Y346709D01*
Y344170D01*
X916937Y342900D01*
X920746D01*
X918207D02*
X915667Y340361D01*
X913128D02*
X910589D01*
X911859D01*
Y347979D01*
X913128Y346709D01*
X906780Y340361D02*
X904241D01*
X905511D01*
Y347979D01*
X906780Y346709D01*
X896624Y340361D02*
Y347979D01*
X900433Y344170D01*
X895354D01*
X953766Y341631D02*
Y349249D01*
X949957D01*
X948688Y347979D01*
Y345440D01*
X949957Y344170D01*
X953766D01*
X951227D02*
X948688Y341631D01*
X946148D02*
X943609D01*
X944879D01*
Y349249D01*
X946148Y347979D01*
X939800Y341631D02*
X937261D01*
X938531D01*
Y349249D01*
X939800Y347979D01*
X928374Y341631D02*
X933453D01*
X928374Y346710D01*
Y347979D01*
X929644Y349249D01*
X932183D01*
X933453Y347979D01*
X1870277Y280671D02*
Y288289D01*
X1866468D01*
X1865198Y287019D01*
Y284480D01*
X1866468Y283210D01*
X1870277D01*
X1867737D02*
X1865198Y280671D01*
X1862659Y287019D02*
X1861390Y288289D01*
X1858850D01*
X1857581Y287019D01*
Y285750D01*
X1858850Y284480D01*
X1857581Y283210D01*
Y281941D01*
X1858850Y280671D01*
X1861390D01*
X1862659Y281941D01*
Y283210D01*
X1861390Y284480D01*
X1862659Y285750D01*
Y287019D01*
X1861390Y284480D02*
X1858850D01*
X1849963Y288289D02*
X1852502Y287019D01*
X1855042Y284480D01*
Y281941D01*
X1853772Y280671D01*
X1851233D01*
X1849963Y281941D01*
Y283210D01*
X1851233Y284480D01*
X1855042D01*
X1844877Y280671D02*
Y288289D01*
X1841068D01*
X1839798Y287019D01*
Y284480D01*
X1841068Y283210D01*
X1844877D01*
X1842337D02*
X1839798Y280671D01*
X1837259Y287019D02*
X1835990Y288289D01*
X1833450D01*
X1832181Y287019D01*
Y285750D01*
X1833450Y284480D01*
X1832181Y283210D01*
Y281941D01*
X1833450Y280671D01*
X1835990D01*
X1837259Y281941D01*
Y283210D01*
X1835990Y284480D01*
X1837259Y285750D01*
Y287019D01*
X1835990Y284480D02*
X1833450D01*
X1824563Y288289D02*
X1829642D01*
Y284480D01*
X1827102Y285750D01*
X1825833D01*
X1824563Y284480D01*
Y281941D01*
X1825833Y280671D01*
X1828372D01*
X1829642Y281941D01*
X1895677Y275591D02*
Y283209D01*
X1891868D01*
X1890598Y281939D01*
Y279400D01*
X1891868Y278130D01*
X1895677D01*
X1893138D02*
X1890598Y275591D01*
X1882981Y283209D02*
X1885520Y281939D01*
X1888059Y279400D01*
Y276861D01*
X1886790Y275591D01*
X1884250D01*
X1882981Y276861D01*
Y278130D01*
X1884250Y279400D01*
X1888059D01*
X1875363Y283209D02*
X1877902Y281939D01*
X1880442Y279400D01*
Y276861D01*
X1879172Y275591D01*
X1876633D01*
X1875363Y276861D01*
Y278130D01*
X1876633Y279400D01*
X1880442D01*
X1921507Y275591D02*
Y283209D01*
X1917698D01*
X1916428Y281939D01*
Y279400D01*
X1917698Y278130D01*
X1921507D01*
X1918967D02*
X1916428Y275591D01*
X1908811Y283209D02*
X1911350Y281939D01*
X1913889Y279400D01*
Y276861D01*
X1912620Y275591D01*
X1910080D01*
X1908811Y276861D01*
Y278130D01*
X1910080Y279400D01*
X1913889D01*
X1901193Y283209D02*
X1906272D01*
Y279400D01*
X1903732Y280670D01*
X1902463D01*
X1901193Y279400D01*
Y276861D01*
X1902463Y275591D01*
X1905002D01*
X1906272Y276861D01*
X1586151Y708663D02*
X1593769D01*
Y712472D01*
X1592499Y713742D01*
X1589960D01*
X1588690Y712472D01*
Y708663D01*
Y711202D02*
X1586151Y713742D01*
X1593769Y721359D02*
Y716281D01*
X1589960D01*
X1591230Y718820D01*
Y720090D01*
X1589960Y721359D01*
X1587421D01*
X1586151Y720090D01*
Y717550D01*
X1587421Y716281D01*
X1593769Y728977D02*
X1592499Y726438D01*
X1589960Y723898D01*
X1587421D01*
X1586151Y725168D01*
Y727707D01*
X1587421Y728977D01*
X1588690D01*
X1589960Y727707D01*
Y723898D01*
X1146189Y814607D02*
X1153807D01*
Y818416D01*
X1152537Y819685D01*
X1149998D01*
X1148728Y818416D01*
Y814607D01*
Y817146D02*
X1146189Y819685D01*
Y827303D02*
Y822225D01*
X1151267Y827303D01*
X1152537D01*
X1153807Y826033D01*
Y823494D01*
X1152537Y822225D01*
X1153807Y834920D02*
Y829842D01*
X1149998D01*
X1151267Y832381D01*
Y833651D01*
X1149998Y834920D01*
X1147459D01*
X1146189Y833651D01*
Y831112D01*
X1147459Y829842D01*
X1181862Y671068D02*
Y678686D01*
X1178053D01*
X1176784Y677416D01*
Y674877D01*
X1178053Y673607D01*
X1181862D01*
X1179323D02*
X1176784Y671068D01*
X1174245D02*
X1171705D01*
X1172975D01*
Y678686D01*
X1174245Y677416D01*
X22861Y381636D02*
X27939D01*
X29209Y380367D01*
Y377828D01*
X27939Y376558D01*
X22861D01*
X21591Y377828D01*
Y380367D01*
X24130Y379097D02*
X21591Y381636D01*
Y380367D02*
X22861Y381636D01*
X21591Y384176D02*
Y386715D01*
Y385445D01*
X29209D01*
X27939Y384176D01*
X29209Y395602D02*
Y390524D01*
X25400D01*
X26670Y393063D01*
Y394332D01*
X25400Y395602D01*
X22861D01*
X21591Y394332D01*
Y391793D01*
X22861Y390524D01*
X374776Y874151D02*
Y879229D01*
X376045Y880499D01*
X378584D01*
X379854Y879229D01*
Y874151D01*
X378584Y872881D01*
X376045D01*
X377315Y875420D02*
X374776Y872881D01*
X376045D02*
X374776Y874151D01*
X372236Y872881D02*
X369697D01*
X370967D01*
Y880499D01*
X372236Y879229D01*
X362080Y872881D02*
Y880499D01*
X365888Y876690D01*
X360810D01*
X1092650Y371427D02*
Y376505D01*
X1093919Y377775D01*
X1096458D01*
X1097728Y376505D01*
Y371427D01*
X1096458Y370157D01*
X1093919D01*
X1095189Y372696D02*
X1092650Y370157D01*
X1093919D02*
X1092650Y371427D01*
X1090110Y370157D02*
X1087571D01*
X1088841D01*
Y377775D01*
X1090110Y376505D01*
X1083762D02*
X1082493Y377775D01*
X1079954D01*
X1078684Y376505D01*
Y375236D01*
X1079954Y373966D01*
X1081223D01*
X1079954D01*
X1078684Y372696D01*
Y371427D01*
X1079954Y370157D01*
X1082493D01*
X1083762Y371427D01*
X1431924Y337821D02*
Y342899D01*
X1433193Y344169D01*
X1435732D01*
X1437002Y342899D01*
Y337821D01*
X1435732Y336551D01*
X1433193D01*
X1434463Y339090D02*
X1431924Y336551D01*
X1433193D02*
X1431924Y337821D01*
X1429384Y336551D02*
X1426845D01*
X1428115D01*
Y344169D01*
X1429384Y342899D01*
X1417958Y336551D02*
X1423036D01*
X1417958Y341630D01*
Y342899D01*
X1419228Y344169D01*
X1421767D01*
X1423036Y342899D01*
X746124Y673101D02*
Y678179D01*
X747394Y679449D01*
X749933D01*
X751202Y678179D01*
Y673101D01*
X749933Y671831D01*
X747394D01*
X748663Y674370D02*
X746124Y671831D01*
X747394D02*
X746124Y673101D01*
X743585Y671831D02*
X741046D01*
X742315D01*
Y679449D01*
X743585Y678179D01*
X737237Y671831D02*
X734698D01*
X735967D01*
Y679449D01*
X737237Y678179D01*
X268604Y596901D02*
Y601979D01*
X269873Y603249D01*
X272412D01*
X273682Y601979D01*
Y596901D01*
X272412Y595631D01*
X269873D01*
X271143Y598170D02*
X268604Y595631D01*
X269873D02*
X268604Y596901D01*
X266064Y595631D02*
X263525D01*
X264795D01*
Y603249D01*
X266064Y601979D01*
X259716D02*
X258447Y603249D01*
X255908D01*
X254638Y601979D01*
Y596901D01*
X255908Y595631D01*
X258447D01*
X259716Y596901D01*
Y601979D01*
X1689213Y216784D02*
Y221863D01*
X1690483Y223132D01*
X1693022D01*
X1694292Y221863D01*
Y216784D01*
X1693022Y215515D01*
X1690483D01*
X1691752Y218054D02*
X1689213Y215515D01*
X1690483D02*
X1689213Y216784D01*
X1686674D02*
X1685405Y215515D01*
X1682865D01*
X1681596Y216784D01*
Y221863D01*
X1682865Y223132D01*
X1685405D01*
X1686674Y221863D01*
Y220593D01*
X1685405Y219324D01*
X1681596D01*
X1811021Y471170D02*
X1816099D01*
X1817369Y469901D01*
Y467362D01*
X1816099Y466092D01*
X1811021D01*
X1809751Y467362D01*
Y469901D01*
X1812290Y468631D02*
X1809751Y471170D01*
Y469901D02*
X1811021Y471170D01*
X1816099Y473710D02*
X1817369Y474979D01*
Y477518D01*
X1816099Y478788D01*
X1814830D01*
X1813560Y477518D01*
X1812290Y478788D01*
X1811021D01*
X1809751Y477518D01*
Y474979D01*
X1811021Y473710D01*
X1812290D01*
X1813560Y474979D01*
X1814830Y473710D01*
X1816099D01*
X1813560Y474979D02*
Y477518D01*
X1753870Y571501D02*
Y576579D01*
X1755139Y577849D01*
X1757678D01*
X1758948Y576579D01*
Y571501D01*
X1757678Y570231D01*
X1755139D01*
X1756409Y572770D02*
X1753870Y570231D01*
X1755139D02*
X1753870Y571501D01*
X1751330Y577849D02*
X1746252D01*
Y576579D01*
X1751330Y571501D01*
Y570231D01*
X311150Y261621D02*
Y266699D01*
X312419Y267969D01*
X314958D01*
X316228Y266699D01*
Y261621D01*
X314958Y260351D01*
X312419D01*
X313689Y262890D02*
X311150Y260351D01*
X312419D02*
X311150Y261621D01*
X303532Y267969D02*
X308610D01*
Y264160D01*
X306071Y265430D01*
X304802D01*
X303532Y264160D01*
Y261621D01*
X304802Y260351D01*
X307341D01*
X308610Y261621D01*
X397510Y185421D02*
Y190499D01*
X398779Y191769D01*
X401318D01*
X402588Y190499D01*
Y185421D01*
X401318Y184151D01*
X398779D01*
X400049Y186690D02*
X397510Y184151D01*
X398779D02*
X397510Y185421D01*
X391162Y184151D02*
Y191769D01*
X394970Y187960D01*
X389892D01*
X402590Y256541D02*
Y261619D01*
X403859Y262889D01*
X406398D01*
X407668Y261619D01*
Y256541D01*
X406398Y255271D01*
X403859D01*
X405129Y257810D02*
X402590Y255271D01*
X403859D02*
X402590Y256541D01*
X400050Y261619D02*
X398781Y262889D01*
X396242D01*
X394972Y261619D01*
Y260350D01*
X396242Y259080D01*
X397511D01*
X396242D01*
X394972Y257810D01*
Y256541D01*
X396242Y255271D01*
X398781D01*
X400050Y256541D01*
X309442Y183608D02*
Y188686D01*
X310711Y189956D01*
X313250D01*
X314520Y188686D01*
Y183608D01*
X313250Y182338D01*
X310711D01*
X311981Y184877D02*
X309442Y182338D01*
X310711D02*
X309442Y183608D01*
X301824Y182338D02*
X306902D01*
X301824Y187417D01*
Y188686D01*
X303094Y189956D01*
X305633D01*
X306902Y188686D01*
X1289049Y218443D02*
X1281431D01*
Y222252D01*
X1282701Y223522D01*
X1287779D01*
X1289049Y222252D01*
Y218443D01*
X1287779Y226061D02*
X1289049Y227330D01*
Y229870D01*
X1287779Y231139D01*
X1286510D01*
X1285240Y229870D01*
Y228600D01*
Y229870D01*
X1283970Y231139D01*
X1282701D01*
X1281431Y229870D01*
Y227330D01*
X1282701Y226061D01*
X1287779Y233678D02*
X1289049Y234948D01*
Y237487D01*
X1287779Y238757D01*
X1282701D01*
X1281431Y237487D01*
Y234948D01*
X1282701Y233678D01*
X1287779D01*
X961389Y309248D02*
X953771D01*
Y313057D01*
X955041Y314326D01*
X960119D01*
X961389Y313057D01*
Y309248D01*
X953771Y316866D02*
Y319405D01*
Y318135D01*
X961389D01*
X960119Y316866D01*
X961389Y323214D02*
Y328292D01*
X960119D01*
X955041Y323214D01*
X953771D01*
X1006472Y281939D02*
Y274321D01*
X1002663D01*
X1001394Y275591D01*
Y280669D01*
X1002663Y281939D01*
X1006472D01*
X998854Y274321D02*
X996315D01*
X997585D01*
Y281939D01*
X998854Y280669D01*
X987428Y281939D02*
X989967Y280669D01*
X992506Y278130D01*
Y275591D01*
X991237Y274321D01*
X988698D01*
X987428Y275591D01*
Y276860D01*
X988698Y278130D01*
X992506D01*
X961389Y283848D02*
X953771D01*
Y287657D01*
X955041Y288926D01*
X960119D01*
X961389Y287657D01*
Y283848D01*
X953771Y291466D02*
Y294005D01*
Y292735D01*
X961389D01*
X960119Y291466D01*
X961389Y302892D02*
Y297814D01*
X957580D01*
X958850Y300353D01*
Y301622D01*
X957580Y302892D01*
X955041D01*
X953771Y301622D01*
Y299083D01*
X955041Y297814D01*
X1003932Y336549D02*
Y328931D01*
X1000123D01*
X998854Y330201D01*
Y335279D01*
X1000123Y336549D01*
X1003932D01*
X996314Y328931D02*
X993775D01*
X995045D01*
Y336549D01*
X996314Y335279D01*
X986158Y328931D02*
Y336549D01*
X989966Y332740D01*
X984888D01*
X908682Y283209D02*
Y275591D01*
X904873D01*
X903604Y276861D01*
Y281939D01*
X904873Y283209D01*
X908682D01*
X901064Y275591D02*
X898525D01*
X899795D01*
Y283209D01*
X901064Y281939D01*
X894716D02*
X893447Y283209D01*
X890908D01*
X889638Y281939D01*
Y280670D01*
X890908Y279400D01*
X892177D01*
X890908D01*
X889638Y278130D01*
Y276861D01*
X890908Y275591D01*
X893447D01*
X894716Y276861D01*
X1036952Y332739D02*
Y325121D01*
X1033143D01*
X1031874Y326391D01*
Y331469D01*
X1033143Y332739D01*
X1036952D01*
X1029334Y325121D02*
X1026795D01*
X1028065D01*
Y332739D01*
X1029334Y331469D01*
X1017908Y325121D02*
X1022986D01*
X1017908Y330200D01*
Y331469D01*
X1019178Y332739D01*
X1021717D01*
X1022986Y331469D01*
X831847Y728979D02*
X833117Y730249D01*
X835656D01*
X836926Y728979D01*
Y723901D01*
X835656Y722631D01*
X833117D01*
X831847Y723901D01*
X824230Y722631D02*
X829308D01*
X824230Y727710D01*
Y728979D01*
X825499Y730249D01*
X828038D01*
X829308Y728979D01*
X816612Y730249D02*
X819151Y728979D01*
X821690Y726440D01*
Y723901D01*
X820421Y722631D01*
X817882D01*
X816612Y723901D01*
Y725170D01*
X817882Y726440D01*
X821690D01*
X808995Y730249D02*
X811534Y728979D01*
X814073Y726440D01*
Y723901D01*
X812803Y722631D01*
X810264D01*
X808995Y723901D01*
Y725170D01*
X810264Y726440D01*
X814073D01*
X715007Y861059D02*
X716277Y862329D01*
X718816D01*
X720086Y861059D01*
Y855981D01*
X718816Y854711D01*
X716277D01*
X715007Y855981D01*
X707390Y854711D02*
X712468D01*
X707390Y859790D01*
Y861059D01*
X708659Y862329D01*
X711198D01*
X712468Y861059D01*
X699772Y862329D02*
X702311Y861059D01*
X704850Y858520D01*
Y855981D01*
X703581Y854711D01*
X701042D01*
X699772Y855981D01*
Y857250D01*
X701042Y858520D01*
X704850D01*
X693424Y854711D02*
Y862329D01*
X697233Y858520D01*
X692154D01*
X1435099Y552453D02*
X1436369Y551183D01*
Y548644D01*
X1435099Y547374D01*
X1430021D01*
X1428751Y548644D01*
Y551183D01*
X1430021Y552453D01*
X1428751Y560070D02*
Y554992D01*
X1433830Y560070D01*
X1435099D01*
X1436369Y558801D01*
Y556262D01*
X1435099Y554992D01*
X1436369Y567688D02*
Y562610D01*
X1432560D01*
X1433830Y565149D01*
Y566418D01*
X1432560Y567688D01*
X1430021D01*
X1428751Y566418D01*
Y563879D01*
X1430021Y562610D01*
X1435099Y570227D02*
X1436369Y571497D01*
Y574036D01*
X1435099Y575305D01*
X1433830D01*
X1432560Y574036D01*
X1431290Y575305D01*
X1430021D01*
X1428751Y574036D01*
Y571497D01*
X1430021Y570227D01*
X1431290D01*
X1432560Y571497D01*
X1433830Y570227D01*
X1435099D01*
X1432560Y571497D02*
Y574036D01*
X1308861Y440687D02*
X1307591Y441957D01*
Y444496D01*
X1308861Y445765D01*
X1313939D01*
X1315209Y444496D01*
Y441957D01*
X1313939Y440687D01*
X1315209Y433070D02*
Y438148D01*
X1310130Y433070D01*
X1308861D01*
X1307591Y434339D01*
Y436878D01*
X1308861Y438148D01*
X1307591Y425452D02*
Y430530D01*
X1311400D01*
X1310130Y427991D01*
Y426722D01*
X1311400Y425452D01*
X1313939D01*
X1315209Y426722D01*
Y429261D01*
X1313939Y430530D01*
X1307591Y417835D02*
X1308861Y420374D01*
X1311400Y422913D01*
X1313939D01*
X1315209Y421643D01*
Y419104D01*
X1313939Y417835D01*
X1312670D01*
X1311400Y419104D01*
Y422913D01*
X1179549Y342180D02*
X1180819Y340910D01*
Y338371D01*
X1179549Y337102D01*
X1174471D01*
X1173201Y338371D01*
Y340910D01*
X1174471Y342180D01*
X1173201Y349797D02*
Y344719D01*
X1178280Y349797D01*
X1179549D01*
X1180819Y348528D01*
Y345989D01*
X1179549Y344719D01*
X1173201Y356145D02*
X1180819D01*
X1177010Y352337D01*
Y357415D01*
X1173201Y359954D02*
Y362493D01*
Y361224D01*
X1180819D01*
X1179549Y359954D01*
X1369057Y138429D02*
X1370327Y139699D01*
X1372866D01*
X1374135Y138429D01*
Y133351D01*
X1372866Y132081D01*
X1370327D01*
X1369057Y133351D01*
X1361440Y132081D02*
X1366518D01*
X1361440Y137160D01*
Y138429D01*
X1362709Y139699D01*
X1365248D01*
X1366518Y138429D01*
X1355092Y132081D02*
Y139699D01*
X1358900Y135890D01*
X1353822D01*
X1351283Y138429D02*
X1350013Y139699D01*
X1347474D01*
X1346205Y138429D01*
Y133351D01*
X1347474Y132081D01*
X1350013D01*
X1351283Y133351D01*
Y138429D01*
X1414779Y518163D02*
X1416049Y516893D01*
Y514354D01*
X1414779Y513084D01*
X1409701D01*
X1408431Y514354D01*
Y516893D01*
X1409701Y518163D01*
X1408431Y525780D02*
Y520702D01*
X1413510Y525780D01*
X1414779D01*
X1416049Y524511D01*
Y521971D01*
X1414779Y520702D01*
X1408431Y528319D02*
Y530859D01*
Y529589D01*
X1416049D01*
X1414779Y528319D01*
X1416049Y539746D02*
X1414779Y537206D01*
X1412240Y534667D01*
X1409701D01*
X1408431Y535937D01*
Y538476D01*
X1409701Y539746D01*
X1410970D01*
X1412240Y538476D01*
Y534667D01*
X775332Y754379D02*
X776602Y755649D01*
X779141D01*
X780411Y754379D01*
Y749301D01*
X779141Y748031D01*
X776602D01*
X775332Y749301D01*
X767715Y748031D02*
X772793D01*
X767715Y753110D01*
Y754379D01*
X768984Y755649D01*
X771524D01*
X772793Y754379D01*
X765176Y748031D02*
X762636D01*
X763906D01*
Y755649D01*
X765176Y754379D01*
X758828D02*
X757558Y755649D01*
X755019D01*
X753749Y754379D01*
Y749301D01*
X755019Y748031D01*
X757558D01*
X758828Y749301D01*
Y754379D01*
X913127Y236219D02*
X914397Y237489D01*
X916936D01*
X918205Y236219D01*
Y231141D01*
X916936Y229871D01*
X914397D01*
X913127Y231141D01*
X905510Y229871D02*
X910588D01*
X905510Y234950D01*
Y236219D01*
X906779Y237489D01*
X909318D01*
X910588Y236219D01*
X902970D02*
X901701Y237489D01*
X899162D01*
X897892Y236219D01*
Y231141D01*
X899162Y229871D01*
X901701D01*
X902970Y231141D01*
Y236219D01*
X895353D02*
X894083Y237489D01*
X891544D01*
X890275Y236219D01*
Y234950D01*
X891544Y233680D01*
X892814D01*
X891544D01*
X890275Y232410D01*
Y231141D01*
X891544Y229871D01*
X894083D01*
X895353Y231141D01*
X983739Y236219D02*
X985009Y237489D01*
X987548D01*
X988818Y236219D01*
Y231141D01*
X987548Y229871D01*
X985009D01*
X983739Y231141D01*
X976122Y229871D02*
X981200D01*
X976122Y234950D01*
Y236219D01*
X977391Y237489D01*
X979930D01*
X981200Y236219D01*
X973582D02*
X972313Y237489D01*
X969774D01*
X968504Y236219D01*
Y231141D01*
X969774Y229871D01*
X972313D01*
X973582Y231141D01*
Y236219D01*
X960887Y229871D02*
X965965D01*
X960887Y234950D01*
Y236219D01*
X962156Y237489D01*
X964695D01*
X965965Y236219D01*
X929003Y264159D02*
X930272Y265429D01*
X932812D01*
X934081Y264159D01*
Y259081D01*
X932812Y257811D01*
X930272D01*
X929003Y259081D01*
X926464Y257811D02*
X923924D01*
X925194D01*
Y265429D01*
X926464Y264159D01*
X920116Y259081D02*
X918846Y257811D01*
X916307D01*
X915037Y259081D01*
Y264159D01*
X916307Y265429D01*
X918846D01*
X920116Y264159D01*
Y262890D01*
X918846Y261620D01*
X915037D01*
X912498Y257811D02*
X909959D01*
X911228D01*
Y265429D01*
X912498Y264159D01*
X1577339Y470538D02*
X1578609Y469268D01*
Y466729D01*
X1577339Y465459D01*
X1572261D01*
X1570991Y466729D01*
Y469268D01*
X1572261Y470538D01*
X1570991Y473077D02*
Y475616D01*
Y474346D01*
X1578609D01*
X1577339Y473077D01*
Y479425D02*
X1578609Y480694D01*
Y483234D01*
X1577339Y484503D01*
X1576070D01*
X1574800Y483234D01*
X1573530Y484503D01*
X1572261D01*
X1570991Y483234D01*
Y480694D01*
X1572261Y479425D01*
X1573530D01*
X1574800Y480694D01*
X1576070Y479425D01*
X1577339D01*
X1574800Y480694D02*
Y483234D01*
X1577339Y487042D02*
X1578609Y488312D01*
Y490851D01*
X1577339Y492121D01*
X1576070D01*
X1574800Y490851D01*
X1573530Y492121D01*
X1572261D01*
X1570991Y490851D01*
Y488312D01*
X1572261Y487042D01*
X1573530D01*
X1574800Y488312D01*
X1576070Y487042D01*
X1577339D01*
X1574800Y488312D02*
Y490851D01*
X1587499Y470538D02*
X1588769Y469268D01*
Y466729D01*
X1587499Y465459D01*
X1582421D01*
X1581151Y466729D01*
Y469268D01*
X1582421Y470538D01*
X1581151Y473077D02*
Y475616D01*
Y474346D01*
X1588769D01*
X1587499Y473077D01*
Y479425D02*
X1588769Y480694D01*
Y483234D01*
X1587499Y484503D01*
X1586230D01*
X1584960Y483234D01*
X1583690Y484503D01*
X1582421D01*
X1581151Y483234D01*
Y480694D01*
X1582421Y479425D01*
X1583690D01*
X1584960Y480694D01*
X1586230Y479425D01*
X1587499D01*
X1584960Y480694D02*
Y483234D01*
X1588769Y487042D02*
Y492121D01*
X1587499D01*
X1582421Y487042D01*
X1581151D01*
X1511932Y368299D02*
X1513202Y369569D01*
X1515741D01*
X1517011Y368299D01*
Y363221D01*
X1515741Y361951D01*
X1513202D01*
X1511932Y363221D01*
X1509393Y361951D02*
X1506854D01*
X1508124D01*
Y369569D01*
X1509393Y368299D01*
X1497967Y369569D02*
X1500506Y368299D01*
X1503045Y365760D01*
Y363221D01*
X1501776Y361951D01*
X1499236D01*
X1497967Y363221D01*
Y364490D01*
X1499236Y365760D01*
X1503045D01*
X1495428Y369569D02*
X1490349D01*
Y368299D01*
X1495428Y363221D01*
Y361951D01*
X1526539Y339093D02*
X1527809Y337823D01*
Y335284D01*
X1526539Y334014D01*
X1521461D01*
X1520191Y335284D01*
Y337823D01*
X1521461Y339093D01*
X1520191Y341632D02*
Y344171D01*
Y342901D01*
X1527809D01*
X1526539Y341632D01*
X1527809Y353058D02*
X1526539Y350519D01*
X1524000Y347980D01*
X1521461D01*
X1520191Y349249D01*
Y351789D01*
X1521461Y353058D01*
X1522730D01*
X1524000Y351789D01*
Y347980D01*
X1527809Y360676D02*
X1526539Y358136D01*
X1524000Y355597D01*
X1521461D01*
X1520191Y356867D01*
Y359406D01*
X1521461Y360676D01*
X1522730D01*
X1524000Y359406D01*
Y355597D01*
X1534416Y262126D02*
X1535685Y263396D01*
X1538224D01*
X1539494Y262126D01*
Y257048D01*
X1538224Y255778D01*
X1535685D01*
X1534416Y257048D01*
X1531877Y255778D02*
X1529337D01*
X1530607D01*
Y263396D01*
X1531877Y262126D01*
X1520450Y263396D02*
X1525529D01*
Y259587D01*
X1522989Y260856D01*
X1521720D01*
X1520450Y259587D01*
Y257048D01*
X1521720Y255778D01*
X1524259D01*
X1525529Y257048D01*
X1517911Y262126D02*
X1516641Y263396D01*
X1514102D01*
X1512833Y262126D01*
Y260856D01*
X1514102Y259587D01*
X1512833Y258317D01*
Y257048D01*
X1514102Y255778D01*
X1516641D01*
X1517911Y257048D01*
Y258317D01*
X1516641Y259587D01*
X1517911Y260856D01*
Y262126D01*
X1516641Y259587D02*
X1514102D01*
X1506219Y205743D02*
X1507489Y204473D01*
Y201934D01*
X1506219Y200664D01*
X1501141D01*
X1499871Y201934D01*
Y204473D01*
X1501141Y205743D01*
X1499871Y208282D02*
Y210821D01*
Y209551D01*
X1507489D01*
X1506219Y208282D01*
X1507489Y219708D02*
Y214630D01*
X1503680D01*
X1504950Y217169D01*
Y218439D01*
X1503680Y219708D01*
X1501141D01*
X1499871Y218439D01*
Y215899D01*
X1501141Y214630D01*
X1507489Y222247D02*
Y227326D01*
X1506219D01*
X1501141Y222247D01*
X1499871D01*
X1921460Y166598D02*
X1922730Y165328D01*
Y162789D01*
X1921460Y161519D01*
X1916382D01*
X1915112Y162789D01*
Y165328D01*
X1916382Y166598D01*
X1915112Y169137D02*
Y171676D01*
Y170406D01*
X1922730D01*
X1921460Y169137D01*
X1915112Y179294D02*
X1922730D01*
X1918921Y175485D01*
Y180563D01*
X1922730Y188181D02*
X1921460Y185641D01*
X1918921Y183102D01*
X1916382D01*
X1915112Y184372D01*
Y186911D01*
X1916382Y188181D01*
X1917651D01*
X1918921Y186911D01*
Y183102D01*
X1936698Y157069D02*
X1937968Y158339D01*
X1940507D01*
X1941777Y157069D01*
Y151991D01*
X1940507Y150721D01*
X1937968D01*
X1936698Y151991D01*
X1934159Y150721D02*
X1931620D01*
X1932890D01*
Y158339D01*
X1934159Y157069D01*
X1924002Y150721D02*
Y158339D01*
X1927811Y154530D01*
X1922733D01*
X1915115Y158339D02*
X1920194D01*
Y154530D01*
X1917655Y155800D01*
X1916385D01*
X1915115Y154530D01*
Y151991D01*
X1916385Y150721D01*
X1918924D01*
X1920194Y151991D01*
X1937333Y146909D02*
X1938603Y148179D01*
X1941142D01*
X1942412Y146909D01*
Y141831D01*
X1941142Y140561D01*
X1938603D01*
X1937333Y141831D01*
X1934794Y140561D02*
X1932255D01*
X1933525D01*
Y148179D01*
X1934794Y146909D01*
X1924637Y140561D02*
Y148179D01*
X1928446Y144370D01*
X1923368D01*
X1917020Y140561D02*
Y148179D01*
X1920829Y144370D01*
X1915750D01*
X1936064Y136749D02*
X1937333Y138019D01*
X1939872D01*
X1941142Y136749D01*
Y131671D01*
X1939872Y130401D01*
X1937333D01*
X1936064Y131671D01*
X1933525Y130401D02*
X1930985D01*
X1932255D01*
Y138019D01*
X1933525Y136749D01*
X1923368Y130401D02*
Y138019D01*
X1927177Y134210D01*
X1922098D01*
X1919559Y130401D02*
X1917020D01*
X1918289D01*
Y138019D01*
X1919559Y136749D01*
X1885902Y132302D02*
X1884632Y133572D01*
Y136111D01*
X1885902Y137381D01*
X1890980D01*
X1892250Y136111D01*
Y133572D01*
X1890980Y132302D01*
X1892250Y129763D02*
Y127224D01*
Y128493D01*
X1884632D01*
X1885902Y129763D01*
Y123415D02*
X1884632Y122146D01*
Y119606D01*
X1885902Y118337D01*
X1887171D01*
X1888441Y119606D01*
Y120876D01*
Y119606D01*
X1889711Y118337D01*
X1890980D01*
X1892250Y119606D01*
Y122146D01*
X1890980Y123415D01*
X1885902Y115798D02*
X1884632Y114528D01*
Y111989D01*
X1885902Y110719D01*
X1887171D01*
X1888441Y111989D01*
X1889711Y110719D01*
X1890980D01*
X1892250Y111989D01*
Y114528D01*
X1890980Y115798D01*
X1889711D01*
X1888441Y114528D01*
X1887171Y115798D01*
X1885902D01*
X1888441Y114528D02*
Y111989D01*
X1860500Y166598D02*
X1861770Y165328D01*
Y162789D01*
X1860500Y161519D01*
X1855422D01*
X1854152Y162789D01*
Y165328D01*
X1855422Y166598D01*
X1854152Y169137D02*
Y171676D01*
Y170406D01*
X1861770D01*
X1860500Y169137D01*
Y175485D02*
X1861770Y176754D01*
Y179294D01*
X1860500Y180563D01*
X1859231D01*
X1857961Y179294D01*
Y178024D01*
Y179294D01*
X1856691Y180563D01*
X1855422D01*
X1854152Y179294D01*
Y176754D01*
X1855422Y175485D01*
X1861770Y183102D02*
Y188181D01*
X1860500D01*
X1855422Y183102D01*
X1854152D01*
X1850389Y167008D02*
X1851659Y165738D01*
Y163199D01*
X1850389Y161929D01*
X1845311D01*
X1844041Y163199D01*
Y165738D01*
X1845311Y167008D01*
X1844041Y169547D02*
Y172086D01*
Y170816D01*
X1851659D01*
X1850389Y169547D01*
Y175895D02*
X1851659Y177164D01*
Y179704D01*
X1850389Y180973D01*
X1849120D01*
X1847850Y179704D01*
Y178434D01*
Y179704D01*
X1846580Y180973D01*
X1845311D01*
X1844041Y179704D01*
Y177164D01*
X1845311Y175895D01*
X1851659Y188591D02*
X1850389Y186052D01*
X1847850Y183512D01*
X1845311D01*
X1844041Y184782D01*
Y187321D01*
X1845311Y188591D01*
X1846580D01*
X1847850Y187321D01*
Y183512D01*
X1840180Y166598D02*
X1841450Y165328D01*
Y162789D01*
X1840180Y161519D01*
X1835102D01*
X1833832Y162789D01*
Y165328D01*
X1835102Y166598D01*
X1833832Y169137D02*
Y171676D01*
Y170406D01*
X1841450D01*
X1840180Y169137D01*
Y175485D02*
X1841450Y176754D01*
Y179294D01*
X1840180Y180563D01*
X1838911D01*
X1837641Y179294D01*
Y178024D01*
Y179294D01*
X1836371Y180563D01*
X1835102D01*
X1833832Y179294D01*
Y176754D01*
X1835102Y175485D01*
X1840180Y183102D02*
X1841450Y184372D01*
Y186911D01*
X1840180Y188181D01*
X1838911D01*
X1837641Y186911D01*
Y185641D01*
Y186911D01*
X1836371Y188181D01*
X1835102D01*
X1833832Y186911D01*
Y184372D01*
X1835102Y183102D01*
X1949652Y276859D02*
X1950922Y278129D01*
X1953461D01*
X1954731Y276859D01*
Y271781D01*
X1953461Y270511D01*
X1950922D01*
X1949652Y271781D01*
X1947113Y270511D02*
X1944574D01*
X1945844D01*
Y278129D01*
X1947113Y276859D01*
X1935687Y270511D02*
X1940765D01*
X1935687Y275590D01*
Y276859D01*
X1936956Y278129D01*
X1939496D01*
X1940765Y276859D01*
X1933148Y271781D02*
X1931878Y270511D01*
X1929339D01*
X1928069Y271781D01*
Y276859D01*
X1929339Y278129D01*
X1931878D01*
X1933148Y276859D01*
Y275590D01*
X1931878Y274320D01*
X1928069D01*
X1898852Y302259D02*
X1900122Y303529D01*
X1902661D01*
X1903931Y302259D01*
Y297181D01*
X1902661Y295911D01*
X1900122D01*
X1898852Y297181D01*
X1896313Y295911D02*
X1893774D01*
X1895044D01*
Y303529D01*
X1896313Y302259D01*
X1884887Y295911D02*
X1889965D01*
X1884887Y300990D01*
Y302259D01*
X1886156Y303529D01*
X1888696D01*
X1889965Y302259D01*
X1882348D02*
X1881078Y303529D01*
X1878539D01*
X1877269Y302259D01*
Y300990D01*
X1878539Y299720D01*
X1877269Y298450D01*
Y297181D01*
X1878539Y295911D01*
X1881078D01*
X1882348Y297181D01*
Y298450D01*
X1881078Y299720D01*
X1882348Y300990D01*
Y302259D01*
X1881078Y299720D02*
X1878539D01*
X1898852Y312419D02*
X1900122Y313689D01*
X1902661D01*
X1903931Y312419D01*
Y307341D01*
X1902661Y306071D01*
X1900122D01*
X1898852Y307341D01*
X1896313Y306071D02*
X1893774D01*
X1895044D01*
Y313689D01*
X1896313Y312419D01*
X1884887Y306071D02*
X1889965D01*
X1884887Y311150D01*
Y312419D01*
X1886156Y313689D01*
X1888696D01*
X1889965Y312419D01*
X1882348Y313689D02*
X1877269D01*
Y312419D01*
X1882348Y307341D01*
Y306071D01*
X1898852Y322579D02*
X1900122Y323849D01*
X1902661D01*
X1903931Y322579D01*
Y317501D01*
X1902661Y316231D01*
X1900122D01*
X1898852Y317501D01*
X1896313Y316231D02*
X1893774D01*
X1895044D01*
Y323849D01*
X1896313Y322579D01*
X1884887Y316231D02*
X1889965D01*
X1884887Y321310D01*
Y322579D01*
X1886156Y323849D01*
X1888696D01*
X1889965Y322579D01*
X1882348D02*
X1881078Y323849D01*
X1878539D01*
X1877269Y322579D01*
Y321310D01*
X1878539Y320040D01*
X1879809D01*
X1878539D01*
X1877269Y318770D01*
Y317501D01*
X1878539Y316231D01*
X1881078D01*
X1882348Y317501D01*
X1489708Y769619D02*
X1490978Y770889D01*
X1493517D01*
X1494787Y769619D01*
Y764541D01*
X1493517Y763271D01*
X1490978D01*
X1489708Y764541D01*
X1487169D02*
X1485900Y763271D01*
X1483360D01*
X1482091Y764541D01*
Y769619D01*
X1483360Y770889D01*
X1485900D01*
X1487169Y769619D01*
Y768350D01*
X1485900Y767080D01*
X1482091D01*
X1475743Y763271D02*
Y770889D01*
X1479552Y767080D01*
X1474473D01*
X1630598Y767079D02*
X1631868Y768349D01*
X1634407D01*
X1635677Y767079D01*
Y762001D01*
X1634407Y760731D01*
X1631868D01*
X1630598Y762001D01*
X1628059D02*
X1626790Y760731D01*
X1624250D01*
X1622981Y762001D01*
Y767079D01*
X1624250Y768349D01*
X1626790D01*
X1628059Y767079D01*
Y765810D01*
X1626790Y764540D01*
X1622981D01*
X1620442Y767079D02*
X1619172Y768349D01*
X1616633D01*
X1615363Y767079D01*
Y765810D01*
X1616633Y764540D01*
X1617902D01*
X1616633D01*
X1615363Y763270D01*
Y762001D01*
X1616633Y760731D01*
X1619172D01*
X1620442Y762001D01*
X1158238Y742949D02*
X1159508Y744219D01*
X1162047D01*
X1163317Y742949D01*
Y737871D01*
X1162047Y736601D01*
X1159508D01*
X1158238Y737871D01*
X1150621Y744219D02*
X1153160Y742949D01*
X1155699Y740410D01*
Y737871D01*
X1154430Y736601D01*
X1151890D01*
X1150621Y737871D01*
Y739140D01*
X1151890Y740410D01*
X1155699D01*
X1143003Y744219D02*
X1148082D01*
Y740410D01*
X1145542Y741680D01*
X1144273D01*
X1143003Y740410D01*
Y737871D01*
X1144273Y736601D01*
X1146812D01*
X1148082Y737871D01*
X1216659Y767082D02*
X1217929Y765812D01*
Y763273D01*
X1216659Y762003D01*
X1211581D01*
X1210311Y763273D01*
Y765812D01*
X1211581Y767082D01*
X1217929Y774699D02*
X1216659Y772160D01*
X1214120Y769621D01*
X1211581D01*
X1210311Y770890D01*
Y773430D01*
X1211581Y774699D01*
X1212850D01*
X1214120Y773430D01*
Y769621D01*
X1216659Y777238D02*
X1217929Y778508D01*
Y781047D01*
X1216659Y782317D01*
X1215390D01*
X1214120Y781047D01*
Y779778D01*
Y781047D01*
X1212850Y782317D01*
X1211581D01*
X1210311Y781047D01*
Y778508D01*
X1211581Y777238D01*
X1221739Y660402D02*
X1223009Y659132D01*
Y656593D01*
X1221739Y655323D01*
X1216661D01*
X1215391Y656593D01*
Y659132D01*
X1216661Y660402D01*
X1223009Y668019D02*
X1221739Y665480D01*
X1219200Y662941D01*
X1216661D01*
X1215391Y664210D01*
Y666750D01*
X1216661Y668019D01*
X1217930D01*
X1219200Y666750D01*
Y662941D01*
X1221739Y670558D02*
X1223009Y671828D01*
Y674367D01*
X1221739Y675637D01*
X1216661D01*
X1215391Y674367D01*
Y671828D01*
X1216661Y670558D01*
X1221739D01*
X1253489Y660402D02*
X1254759Y659132D01*
Y656593D01*
X1253489Y655323D01*
X1248411D01*
X1247141Y656593D01*
Y659132D01*
X1248411Y660402D01*
X1254759Y668019D02*
Y662941D01*
X1250950D01*
X1252220Y665480D01*
Y666750D01*
X1250950Y668019D01*
X1248411D01*
X1247141Y666750D01*
Y664210D01*
X1248411Y662941D01*
Y670558D02*
X1247141Y671828D01*
Y674367D01*
X1248411Y675637D01*
X1253489D01*
X1254759Y674367D01*
Y671828D01*
X1253489Y670558D01*
X1252220D01*
X1250950Y671828D01*
Y675637D01*
X1206498Y725169D02*
X1207768Y726439D01*
X1210307D01*
X1211577Y725169D01*
Y720091D01*
X1210307Y718821D01*
X1207768D01*
X1206498Y720091D01*
X1198881Y726439D02*
X1203959D01*
Y722630D01*
X1201420Y723900D01*
X1200150D01*
X1198881Y722630D01*
Y720091D01*
X1200150Y718821D01*
X1202690D01*
X1203959Y720091D01*
X1196342Y726439D02*
X1191263D01*
Y725169D01*
X1196342Y720091D01*
Y718821D01*
X1346198Y657859D02*
X1347468Y659129D01*
X1350007D01*
X1351277Y657859D01*
Y652781D01*
X1350007Y651511D01*
X1347468D01*
X1346198Y652781D01*
X1338581Y659129D02*
X1343659D01*
Y655320D01*
X1341120Y656590D01*
X1339850D01*
X1338581Y655320D01*
Y652781D01*
X1339850Y651511D01*
X1342390D01*
X1343659Y652781D01*
X1332233Y651511D02*
Y659129D01*
X1336042Y655320D01*
X1330963D01*
X1339848Y681989D02*
X1341118Y683259D01*
X1343657D01*
X1344927Y681989D01*
Y676911D01*
X1343657Y675641D01*
X1341118D01*
X1339848Y676911D01*
X1332231Y683259D02*
X1337309D01*
Y679450D01*
X1334770Y680720D01*
X1333500D01*
X1332231Y679450D01*
Y676911D01*
X1333500Y675641D01*
X1336040D01*
X1337309Y676911D01*
X1329692Y681989D02*
X1328422Y683259D01*
X1325883D01*
X1324613Y681989D01*
Y680720D01*
X1325883Y679450D01*
X1327152D01*
X1325883D01*
X1324613Y678180D01*
Y676911D01*
X1325883Y675641D01*
X1328422D01*
X1329692Y676911D01*
X1369824Y721612D02*
X1371093Y722881D01*
X1373632D01*
X1374902Y721612D01*
Y716534D01*
X1373632Y715264D01*
X1371093D01*
X1369824Y716534D01*
X1362206Y722881D02*
X1367285D01*
Y719073D01*
X1364745Y720342D01*
X1363476D01*
X1362206Y719073D01*
Y716534D01*
X1363476Y715264D01*
X1366015D01*
X1367285Y716534D01*
X1359667Y715264D02*
X1357128D01*
X1358397D01*
Y722881D01*
X1359667Y721612D01*
X1310638Y862329D02*
X1311908Y863599D01*
X1314447D01*
X1315717Y862329D01*
Y857251D01*
X1314447Y855981D01*
X1311908D01*
X1310638Y857251D01*
X1304290Y855981D02*
Y863599D01*
X1308099Y859790D01*
X1303021D01*
X1300482Y862329D02*
X1299212Y863599D01*
X1296673D01*
X1295403Y862329D01*
Y861060D01*
X1296673Y859790D01*
X1295403Y858520D01*
Y857251D01*
X1296673Y855981D01*
X1299212D01*
X1300482Y857251D01*
Y858520D01*
X1299212Y859790D01*
X1300482Y861060D01*
Y862329D01*
X1299212Y859790D02*
X1296673D01*
X1290318Y894079D02*
X1291588Y895349D01*
X1294127D01*
X1295397Y894079D01*
Y889001D01*
X1294127Y887731D01*
X1291588D01*
X1290318Y889001D01*
X1283970Y887731D02*
Y895349D01*
X1287779Y891540D01*
X1282701D01*
X1280162Y895349D02*
X1275083D01*
Y894079D01*
X1280162Y889001D01*
Y887731D01*
X1285239Y839472D02*
X1286509Y838202D01*
Y835663D01*
X1285239Y834393D01*
X1280161D01*
X1278891Y835663D01*
Y838202D01*
X1280161Y839472D01*
X1278891Y845820D02*
X1286509D01*
X1282700Y842011D01*
Y847089D01*
X1286509Y854707D02*
Y849628D01*
X1282700D01*
X1283970Y852168D01*
Y853437D01*
X1282700Y854707D01*
X1280161D01*
X1278891Y853437D01*
Y850898D01*
X1280161Y849628D01*
X1376679Y831852D02*
X1377949Y830582D01*
Y828043D01*
X1376679Y826773D01*
X1371601D01*
X1370331Y828043D01*
Y830582D01*
X1371601Y831852D01*
X1370331Y838200D02*
X1377949D01*
X1374140Y834391D01*
Y839469D01*
X1370331Y847087D02*
Y842008D01*
X1375410Y847087D01*
X1376679D01*
X1377949Y845817D01*
Y843278D01*
X1376679Y842008D01*
X1380489Y769619D02*
X1381758Y770889D01*
X1384297D01*
X1385567Y769619D01*
Y764541D01*
X1384297Y763271D01*
X1381758D01*
X1380489Y764541D01*
X1374141Y763271D02*
Y770889D01*
X1377950Y767080D01*
X1372871D01*
X1370332Y763271D02*
X1367793D01*
X1369062D01*
Y770889D01*
X1370332Y769619D01*
X1333499Y797562D02*
X1334769Y796292D01*
Y793753D01*
X1333499Y792483D01*
X1328421D01*
X1327151Y793753D01*
Y796292D01*
X1328421Y797562D01*
X1333499Y800101D02*
X1334769Y801370D01*
Y803910D01*
X1333499Y805179D01*
X1332230D01*
X1330960Y803910D01*
Y802640D01*
Y803910D01*
X1329690Y805179D01*
X1328421D01*
X1327151Y803910D01*
Y801370D01*
X1328421Y800101D01*
Y807718D02*
X1327151Y808988D01*
Y811527D01*
X1328421Y812797D01*
X1333499D01*
X1334769Y811527D01*
Y808988D01*
X1333499Y807718D01*
X1332230D01*
X1330960Y808988D01*
Y812797D01*
X1287778Y651509D02*
X1289048Y652779D01*
X1291587D01*
X1292857Y651509D01*
Y646431D01*
X1291587Y645161D01*
X1289048D01*
X1287778Y646431D01*
X1285239Y651509D02*
X1283970Y652779D01*
X1281430D01*
X1280161Y651509D01*
Y650240D01*
X1281430Y648970D01*
X1282700D01*
X1281430D01*
X1280161Y647700D01*
Y646431D01*
X1281430Y645161D01*
X1283970D01*
X1285239Y646431D01*
X1272543Y652779D02*
X1275082Y651509D01*
X1277622Y648970D01*
Y646431D01*
X1276352Y645161D01*
X1273813D01*
X1272543Y646431D01*
Y647700D01*
X1273813Y648970D01*
X1277622D01*
X1290318Y680719D02*
X1291588Y681989D01*
X1294127D01*
X1295397Y680719D01*
Y675641D01*
X1294127Y674371D01*
X1291588D01*
X1290318Y675641D01*
X1287779Y680719D02*
X1286510Y681989D01*
X1283970D01*
X1282701Y680719D01*
Y679450D01*
X1283970Y678180D01*
X1285240D01*
X1283970D01*
X1282701Y676910D01*
Y675641D01*
X1283970Y674371D01*
X1286510D01*
X1287779Y675641D01*
X1275083Y681989D02*
X1280162D01*
Y678180D01*
X1277622Y679450D01*
X1276353D01*
X1275083Y678180D01*
Y675641D01*
X1276353Y674371D01*
X1278892D01*
X1280162Y675641D01*
X1315718Y697229D02*
X1316988Y698499D01*
X1319527D01*
X1320797Y697229D01*
Y692151D01*
X1319527Y690881D01*
X1316988D01*
X1315718Y692151D01*
X1313179Y697229D02*
X1311910Y698499D01*
X1309370D01*
X1308101Y697229D01*
Y695960D01*
X1309370Y694690D01*
X1310640D01*
X1309370D01*
X1308101Y693420D01*
Y692151D01*
X1309370Y690881D01*
X1311910D01*
X1313179Y692151D01*
X1301753Y690881D02*
Y698499D01*
X1305562Y694690D01*
X1300483D01*
X1315718Y723899D02*
X1316988Y725169D01*
X1319527D01*
X1320797Y723899D01*
Y718821D01*
X1319527Y717551D01*
X1316988D01*
X1315718Y718821D01*
X1313179Y723899D02*
X1311910Y725169D01*
X1309370D01*
X1308101Y723899D01*
Y722630D01*
X1309370Y721360D01*
X1310640D01*
X1309370D01*
X1308101Y720090D01*
Y718821D01*
X1309370Y717551D01*
X1311910D01*
X1313179Y718821D01*
X1305562Y723899D02*
X1304292Y725169D01*
X1301753D01*
X1300483Y723899D01*
Y722630D01*
X1301753Y721360D01*
X1303022D01*
X1301753D01*
X1300483Y720090D01*
Y718821D01*
X1301753Y717551D01*
X1304292D01*
X1305562Y718821D01*
X1231899Y750572D02*
X1233169Y749302D01*
Y746763D01*
X1231899Y745493D01*
X1226821D01*
X1225551Y746763D01*
Y749302D01*
X1226821Y750572D01*
X1231899Y753111D02*
X1233169Y754380D01*
Y756920D01*
X1231899Y758189D01*
X1230630D01*
X1229360Y756920D01*
Y755650D01*
Y756920D01*
X1228090Y758189D01*
X1226821D01*
X1225551Y756920D01*
Y754380D01*
X1226821Y753111D01*
X1231899Y760728D02*
X1233169Y761998D01*
Y764537D01*
X1231899Y765807D01*
X1226821D01*
X1225551Y764537D01*
Y761998D01*
X1226821Y760728D01*
X1231899D01*
X1294129Y768352D02*
X1295399Y767082D01*
Y764543D01*
X1294129Y763273D01*
X1289051D01*
X1287781Y764543D01*
Y767082D01*
X1289051Y768352D01*
X1287781Y775969D02*
Y770891D01*
X1292860Y775969D01*
X1294129D01*
X1295399Y774700D01*
Y772160D01*
X1294129Y770891D01*
X1289051Y778508D02*
X1287781Y779778D01*
Y782317D01*
X1289051Y783587D01*
X1294129D01*
X1295399Y782317D01*
Y779778D01*
X1294129Y778508D01*
X1292860D01*
X1291590Y779778D01*
Y783587D01*
X1258568Y772159D02*
X1259838Y773429D01*
X1262377D01*
X1263647Y772159D01*
Y767081D01*
X1262377Y765811D01*
X1259838D01*
X1258568Y767081D01*
X1250951Y765811D02*
X1256029D01*
X1250951Y770890D01*
Y772159D01*
X1252220Y773429D01*
X1254760D01*
X1256029Y772159D01*
X1248412D02*
X1247142Y773429D01*
X1244603D01*
X1243333Y772159D01*
Y770890D01*
X1244603Y769620D01*
X1243333Y768350D01*
Y767081D01*
X1244603Y765811D01*
X1247142D01*
X1248412Y767081D01*
Y768350D01*
X1247142Y769620D01*
X1248412Y770890D01*
Y772159D01*
X1247142Y769620D02*
X1244603D01*
X1327149Y740412D02*
X1328419Y739142D01*
Y736603D01*
X1327149Y735333D01*
X1322071D01*
X1320801Y736603D01*
Y739142D01*
X1322071Y740412D01*
X1320801Y748029D02*
Y742951D01*
X1325880Y748029D01*
X1327149D01*
X1328419Y746760D01*
Y744220D01*
X1327149Y742951D01*
X1328419Y755647D02*
X1327149Y753108D01*
X1324610Y750568D01*
X1322071D01*
X1320801Y751838D01*
Y754377D01*
X1322071Y755647D01*
X1323340D01*
X1324610Y754377D01*
Y750568D01*
X1209521Y852377D02*
X1210790Y853647D01*
X1213330D01*
X1214599Y852377D01*
Y847299D01*
X1213330Y846030D01*
X1210790D01*
X1209521Y847299D01*
X1201903Y846030D02*
X1206982D01*
X1201903Y851108D01*
Y852377D01*
X1203173Y853647D01*
X1205712D01*
X1206982Y852377D01*
X1194286Y846030D02*
X1199364D01*
X1194286Y851108D01*
Y852377D01*
X1195555Y853647D01*
X1198095D01*
X1199364Y852377D01*
X1258569Y882649D02*
X1259838Y883919D01*
X1262377D01*
X1263647Y882649D01*
Y877571D01*
X1262377Y876301D01*
X1259838D01*
X1258569Y877571D01*
X1250951Y876301D02*
X1256030D01*
X1250951Y881380D01*
Y882649D01*
X1252221Y883919D01*
X1254760D01*
X1256030Y882649D01*
X1248412Y876301D02*
X1245873D01*
X1247142D01*
Y883919D01*
X1248412Y882649D01*
X1240788Y905509D02*
X1242058Y906779D01*
X1244597D01*
X1245867Y905509D01*
Y900431D01*
X1244597Y899161D01*
X1242058D01*
X1240788Y900431D01*
X1233171Y899161D02*
X1238249D01*
X1233171Y904240D01*
Y905509D01*
X1234440Y906779D01*
X1236980D01*
X1238249Y905509D01*
X1230632D02*
X1229362Y906779D01*
X1226823D01*
X1225553Y905509D01*
Y900431D01*
X1226823Y899161D01*
X1229362D01*
X1230632Y900431D01*
Y905509D01*
X1311909Y781686D02*
X1313179Y780417D01*
Y777878D01*
X1311909Y776608D01*
X1306831D01*
X1305561Y777878D01*
Y780417D01*
X1306831Y781686D01*
X1305561Y784226D02*
Y786765D01*
Y785495D01*
X1313179D01*
X1311909Y784226D01*
X1306831Y790574D02*
X1305561Y791843D01*
Y794382D01*
X1306831Y795652D01*
X1311909D01*
X1313179Y794382D01*
Y791843D01*
X1311909Y790574D01*
X1310640D01*
X1309370Y791843D01*
Y795652D01*
X1342389Y832486D02*
X1343659Y831217D01*
Y828678D01*
X1342389Y827408D01*
X1337311D01*
X1336041Y828678D01*
Y831217D01*
X1337311Y832486D01*
X1336041Y835026D02*
Y837565D01*
Y836295D01*
X1343659D01*
X1342389Y835026D01*
Y841374D02*
X1343659Y842643D01*
Y845182D01*
X1342389Y846452D01*
X1341120D01*
X1339850Y845182D01*
X1338580Y846452D01*
X1337311D01*
X1336041Y845182D01*
Y842643D01*
X1337311Y841374D01*
X1338580D01*
X1339850Y842643D01*
X1341120Y841374D01*
X1342389D01*
X1339850Y842643D02*
Y845182D01*
X1166875Y881254D02*
X1168145Y879985D01*
Y877446D01*
X1166875Y876176D01*
X1161797D01*
X1160527Y877446D01*
Y879985D01*
X1161797Y881254D01*
X1160527Y883794D02*
Y886333D01*
Y885063D01*
X1168145D01*
X1166875Y883794D01*
X1168145Y895220D02*
X1166875Y892681D01*
X1164336Y890142D01*
X1161797D01*
X1160527Y891411D01*
Y893950D01*
X1161797Y895220D01*
X1163066D01*
X1164336Y893950D01*
Y890142D01*
X1142999Y846456D02*
X1144269Y845187D01*
Y842648D01*
X1142999Y841378D01*
X1137921D01*
X1136651Y842648D01*
Y845187D01*
X1137921Y846456D01*
X1136651Y848996D02*
Y851535D01*
Y850265D01*
X1144269D01*
X1142999Y848996D01*
X1144269Y860422D02*
Y855344D01*
X1140460D01*
X1141730Y857883D01*
Y859152D01*
X1140460Y860422D01*
X1137921D01*
X1136651Y859152D01*
Y856613D01*
X1137921Y855344D01*
D15*
X1274340Y223100D02*
Y234100D01*
X1245340Y223100D02*
Y234100D01*
D16*
X787400Y769620D02*
X838200D01*
X787400Y734060D02*
Y769620D01*
Y734060D02*
X838200D01*
Y769620D01*
X1422400Y544830D02*
Y580390D01*
X1371600Y544830D02*
X1422400D01*
X1371600D02*
Y580390D01*
X1422400D01*
X688340Y843280D02*
X723900D01*
Y792480D02*
Y843280D01*
X688340Y792480D02*
X723900D01*
X688340D02*
Y843280D01*
X1320800Y414020D02*
Y449580D01*
X1371600D01*
Y414020D02*
Y449580D01*
X1320800Y414020D02*
X1371600D01*
D17*
X1918921Y306324D02*
Y313436D01*
X1907618Y306324D02*
X1918921D01*
X1907618D02*
Y313436D01*
X1918921D01*
Y316484D02*
Y323596D01*
X1907618Y316484D02*
X1918921D01*
X1907618D02*
Y323596D01*
X1918921D01*
X1581404Y496189D02*
X1588516D01*
X1581404D02*
Y507492D01*
X1588516D01*
Y496189D02*
Y507492D01*
X1571244Y496189D02*
X1578356D01*
X1571244D02*
Y507492D01*
X1578356D01*
Y496189D02*
Y507492D01*
X927481Y269494D02*
Y276606D01*
X916178Y269494D02*
X927481D01*
X916178D02*
Y276606D01*
X927481D01*
X946531Y230124D02*
X957834D01*
Y237236D01*
X946531D02*
X957834D01*
X946531Y230124D02*
Y237236D01*
X926338D02*
X937641D01*
X926338Y230124D02*
Y237236D01*
Y230124D02*
X937641D01*
Y237236D01*
D280*
X1273548Y220218D02*
G03*
X1273548Y220218I-500J0D01*
G01*
M02*
